<svg xmlns="http://www.w3.org/2000/svg" xmlns:xlink="http://www.w3.org/1999/xlink" viewBox="0 0 300 165.5"><defs><style>.cls-1{isolation:isolate;}.cls-2{fill:#fce5cd;}.cls-3{fill:#f2cead;}.cls-4{fill:#4e664f;}.cls-5{opacity:0.68;}.cls-10,.cls-15,.cls-17,.cls-18,.cls-5,.cls-9{mix-blend-mode:soft-light;}.cls-6{fill:#c67b46;}.cls-7{fill:#b76322;}.cls-8{fill:#844a26;}.cls-9{opacity:0.44;}.cls-11{fill:#fff;}.cls-12{fill:#ad5625;}.cls-13{fill:#e07032;}.cls-14{fill:#374c22;}.cls-15{opacity:0.52;}.cls-16{fill:#ffe8d9;}.cls-17{opacity:0.49;}.cls-18{opacity:0.48;}.cls-19{fill:url(#linear-gradient);}</style><linearGradient id="linear-gradient" x1="150.37" y1="168.62" x2="149.66" y2="2.17" gradientUnits="userSpaceOnUse"><stop offset="0.03" stop-color="#591c16"/><stop offset="0.22" stop-color="#5f241d" stop-opacity="0.96"/><stop offset="0.38" stop-color="#733c33" stop-opacity="0.84"/><stop offset="0.53" stop-color="#936459" stop-opacity="0.64"/><stop offset="0.68" stop-color="#c09d8d" stop-opacity="0.36"/><stop offset="0.82" stop-color="#fae5cf" stop-opacity="0"/></linearGradient></defs><g class="cls-1"><g id="Layer_1" data-name="Layer 1"><rect class="cls-2" y="0.25" width="300" height="165"/><ellipse class="cls-3" cx="214.6" cy="85.87" rx="65.79" ry="13.87"/><path class="cls-4" d="M149.84,89.55a8.12,8.12,0,0,1-1.39-2,6.49,6.49,0,0,1-.45-1.16,2.76,2.76,0,0,1-.12-.66,2.89,2.89,0,0,1,0-.66,4.7,4.7,0,0,1,1.13-2.27,10,10,0,0,1,1.83-1.62,23.89,23.89,0,0,1,4.19-2.26c1.45-.62,2.93-1.15,4.42-1.63a92.7,92.7,0,0,1,9.1-2.34q4.59-1,9.23-1.63c6.19-.9,12.41-1.5,18.64-1.9s12.47-.6,18.71-.62,12.49.16,18.73.54,12.46,1,18.65,1.87c3.1.45,6.19,1,9.26,1.61a85.71,85.71,0,0,1,9.13,2.39,43.09,43.09,0,0,1,4.46,1.71c.73.34,1.45.7,2.16,1.11a15.92,15.92,0,0,1,2.05,1.41,7.57,7.57,0,0,1,1.76,2,4.55,4.55,0,0,1,.54,1.36,4.65,4.65,0,0,1,.09.76,3.89,3.89,0,0,1-.05.71,8.32,8.32,0,0,1-.71,2.45,5.83,5.83,0,0,1-.67,1.12,3.19,3.19,0,0,1-1,.93l-.65-.79a5.92,5.92,0,0,0,.77-1.85,13.83,13.83,0,0,0,.39-2.08,4.05,4.05,0,0,0,0-.45,1.83,1.83,0,0,0-.05-.4,2.36,2.36,0,0,0-.32-.8,5.71,5.71,0,0,0-1.32-1.49,17.13,17.13,0,0,0-3.78-2.26A39,39,0,0,0,270.36,79a84.37,84.37,0,0,0-8.93-2.37c-3-.65-6.07-1.18-9.14-1.63-6.13-.91-12.31-1.52-18.5-1.93s-12.41-.6-18.62-.65-12.42.11-18.63.45-12.39.89-18.54,1.73c-3.08.41-6.14.9-9.18,1.49a92.62,92.62,0,0,0-9,2.2c-1.48.45-2.94,1-4.36,1.54a22.5,22.5,0,0,0-4,2.12,8.7,8.7,0,0,0-1.69,1.44,3.76,3.76,0,0,0-1,1.83,2.11,2.11,0,0,0,0,.5,2.27,2.27,0,0,0,.08.49,5.28,5.28,0,0,0,.38,1A7.61,7.61,0,0,0,150.37,89Z"/><rect class="cls-4" x="194.75" y="123.43" width="41.78" height="6.1" rx="2.29"/><g class="cls-5"><polygon points="267.92 88.31 267.9 88.31 267.92 88.31 267.92 88.31"/></g><path class="cls-6" d="M266.62,95.25h-.08a1.38,1.38,0,0,1-.4,0,1.8,1.8,0,0,1-1.31-1.68l.74-9.22,0-.27.48-6h0l.07-1a1.42,1.42,0,0,1,2-1.18L278,78.71A3.72,3.72,0,0,1,280.4,81a8.43,8.43,0,0,1-.23,7c-.09.17-.18.34-.28.5h0l-.09.15C277,92.94,270,94.65,266.62,95.25Z"/><g class="cls-5"><path d="M280.17,88c.65-1.55-.08-3.7-.33-5.55A3.37,3.37,0,0,0,277.77,80s-9.6,7-9.45,7.26v0h0c2.07,3.82-.39,6.68-1.81,7.91a1.38,1.38,0,0,1-.4,0c3.16-5,3-6.73-.57-10.9l0-.27A13.27,13.27,0,0,1,268,86.72l9.35-6.86s-8.62-2.52-9.24-2.72-2,.87-2,.87h0l.07-1a1.42,1.42,0,0,1,2-1.18L278,78.71A3.72,3.72,0,0,1,280.4,81,8.43,8.43,0,0,1,280.17,88Z"/></g><g class="cls-5"><path d="M278.1,80.06a.59.59,0,0,1-.05-.19C278.07,79.93,278.08,80,278.1,80.06Z"/></g><path class="cls-6" d="M157.34,100.72s0,0-.05,0a1.56,1.56,0,0,1-.37.17,1.77,1.77,0,0,1-2-.78l-4.05-8.32-.11-.24-2.66-5.46h0l-.43-.87a1.42,1.42,0,0,1,1.13-2l10-2.56a3.74,3.74,0,0,1,3.18.74,8.48,8.48,0,0,1,3.36,6.15c0,.19,0,.38,0,.57h0v.18C165.08,93.49,160,98.48,157.34,100.72Z"/><g class="cls-5"><path d="M165.33,87.56c-.24-1.66-2-3.14-3.11-4.61a3.36,3.36,0,0,0-3-1s-4.71,10.9-4.46,11.05h0c3.73,2.25,3.06,6,2.47,7.74a1.56,1.56,0,0,1-.37.17c.16-6-.84-7.31-6-9.1l-.11-.24a14,14,0,0,1,3.4,1.08L158.75,82s-8.7,2.21-9.33,2.35-1.3,1.77-1.3,1.77h0l-.43-.87a1.42,1.42,0,0,1,1.13-2l10-2.56a3.74,3.74,0,0,1,3.18.74A8.48,8.48,0,0,1,165.33,87.56Z"/></g><g class="cls-5"><path d="M159.52,81.81a1,1,0,0,1-.13-.15Z"/></g><path class="cls-7" d="M153.56,78V78a28.74,28.74,0,0,0,.17,3.51,24.91,24.91,0,0,0,.65,3.58h0s3.16-4.74,6.2-10c4.57-7.93,8.84-17,1.49-12.79a16.62,16.62,0,0,0-4.22,3.41h0a17.51,17.51,0,0,0-4.1,9.64s0,0,0,0A24.61,24.61,0,0,0,153.56,78Z"/><path class="cls-7" d="M153.56,78V78a29.3,29.3,0,0,0,.1,4.15,9.67,9.67,0,0,0,.72,2.94h0c1.41,2.91,7.15,2.53,8.72,1.11.86-1.43,10.57-11.61,10.57-11.61l-13.09.52-5.89.23-.95,0h0v0C153.71,75.65,153.61,76.65,153.56,78Z"/><path class="cls-6" d="M158.41,68.53A8.41,8.41,0,0,0,160,74.4a8.59,8.59,0,0,0,14.39-.93,8.26,8.26,0,0,0,1-3.21A8.37,8.37,0,0,0,174.18,65a8.58,8.58,0,0,0-15.27,1.4h0A7.94,7.94,0,0,0,158.41,68.53Z"/><path class="cls-8" d="M167.07,68.69l0,.47c0,.16.19.23.36.15l.59-.28a.87.87,0,0,0,.53-.71l0-.92s0-.06-.08,0l-.92.5A1,1,0,0,0,167.07,68.69Z"/><path class="cls-8" d="M166.64,70.05l.3-.4c.1-.14,0-.26-.22-.26H166a1.35,1.35,0,0,0-1,.39l-.67.75s0,.07,0,.06l1.17-.06A1.49,1.49,0,0,0,166.64,70.05Z"/><path class="cls-8" d="M168,70.1l-.43-.37c-.15-.12-.34-.1-.39,0l-.2.5a.82.82,0,0,0,.24.83l.78.76s.08,0,.09,0l.24-.84A.93.93,0,0,0,168,70.1Z"/><g class="cls-5"><path d="M158.91,66.37c7.32-10.2,15.27-1.4,15.27-1.4a8.58,8.58,0,0,0-15.27,1.4Z"/></g><g class="cls-9"><path d="M153.56,78V78a29.3,29.3,0,0,0,.1,4.15h0c0-.21.05-.42.07-.63.26-2.32.59-4.37,1-6.16,1.33-6.48,3.08-9.48,3.15-9.6a17.51,17.51,0,0,0-4.1,9.64h0v0A24.61,24.61,0,0,0,153.56,78Z"/></g><g class="cls-10"><path class="cls-11" d="M160,74.4a8.59,8.59,0,0,0,14.39-.93c-1.89,2-6.89,6.11-14.38.93Z"/></g><g class="cls-9"><polygon points="166.08 77.82 160.25 87.47 165.36 77.74 166.08 77.82"/></g><g class="cls-9"><polygon points="161.4 75.84 160.58 75.14 156.59 86.91 161.4 75.84"/></g><path class="cls-12" d="M270.37,43.77a3.8,3.8,0,0,1-1.23,2.33h0c-.31.33-.65.67-1,1h0a17.93,17.93,0,0,0-2.29,2.72c-4.81,7.09-4.9,11.07-5,12.54-.73,8,0,8.94-1.1,15.56-1.73,11-8.37,23.5-17.94,22.78-5.1-.39-11.43-4.69-13.11-9.4-3.31-9.29,2.26-18.65,5.39-22.15,6.2-6.94,10.7-5.87,16.11-12.64,6.79-8.51,6.94-13.62,6.94-13.62A33,33,0,0,1,259,37.78a4,4,0,0,1,1-1.18,3.07,3.07,0,0,1,.8-.43C264.37,34.88,270.69,40,270.37,43.77Z"/><g class="cls-5"><path d="M267.92,88.31h0Z"/></g><path class="cls-13" d="M253.81,95c0,21.15-17.15,23.19-38.3,23.19s-38.29-2-38.29-23.19c0-16.71,7.45-30.91,23.56-36.15a47.69,47.69,0,0,1,14.73-2.14c16.6,0,27.31,6.54,33.07,16.53C252.14,79.39,253.81,86.89,253.81,95Z"/><path class="cls-14" d="M197.74,82h0a4.67,4.67,0,0,1-.23.51,3.34,3.34,0,0,1-.36.58,2.71,2.71,0,0,1-.71.66c-1.08.67-2.43.34-4.52,1.56l-.15.09-9.21-5.79,1.65-2.93h.08a7.76,7.76,0,0,0,2.93-1.5c1.66-1.13,1.83-1.8,2.91-1.93a3.18,3.18,0,0,1,2.79,1.1,1.9,1.9,0,0,1,.33.6,8,8,0,0,1,.13,1.6h0a1.8,1.8,0,0,0,.32.84h0a1.6,1.6,0,0,0,.3.33h0a2.18,2.18,0,0,0,.31.22h0c1.06.6,2.57.2,3.31,1.25a2.16,2.16,0,0,1,.31.71A3.83,3.83,0,0,1,197.74,82Z"/><g class="cls-9"><path d="M246.25,83.53a13.46,13.46,0,0,0-.7,3.58c.15.94,3.8,8.15,3.45,8.88s-.51,1.93-5.26,2.25-10,2-3.6,3.74,21.06-1.2,21.06-1.2-2.79-6.12-4.09-7.75S246.25,83.53,246.25,83.53Z"/></g><path class="cls-6" d="M186,68.9a5.56,5.56,0,0,0-4.73-2.22A12.21,12.21,0,0,0,174,69.42c-3.36,2.58-5.26,6.23-5.09,9.23a5.06,5.06,0,0,0,4.94,4.91,11.8,11.8,0,0,0,8-2.71c3.75-2.88,5.68-7.1,4.94-10.25h0A5.08,5.08,0,0,0,186,68.9Z"/><path class="cls-8" d="M178.13,75.69l-.29-.26c-.1-.09-.29,0-.4.19l-.38.64a.76.76,0,0,0-.08.84l.49.58s.07,0,.1-.05l.54-1C178.31,76.23,178.32,75.85,178.13,75.69Z"/><path class="cls-8" d="M177.77,74.52l-.05.48c0,.17.15.16.34,0l.64-.57a2.09,2.09,0,0,0,.65-1l.19-1s0,0-.08,0l-1,1A2.18,2.18,0,0,0,177.77,74.52Z"/><path class="cls-8" d="M176.55,75.54l.6-.12c.19,0,.35-.2.32-.34l-.11-.45c-.05-.24-.32-.36-.66-.31l-1.13.16s-.09,0-.07.08l.25.69C175.84,75.5,176.17,75.62,176.55,75.54Z"/><g class="cls-5"><path d="M186.75,70.6c-.92,11.94-12.94,13-12.94,13a11.8,11.8,0,0,0,8-2.71C185.56,78,187.49,73.75,186.75,70.6Z"/></g><g class="cls-10"><path class="cls-11" d="M181.28,66.68A12.21,12.21,0,0,0,174,69.42c-3.36,2.58-5.26,6.23-5.09,9.23.6-2.69,2.8-9.13,12.41-12Z"/></g><path class="cls-14" d="M272.3,82.1l-13.87.69V79.66l.2,0a1.12,1.12,0,0,0,.71-.16h0c.53-.31,1.14-1,2.56-2,.64-.46,1.2-.87,1.7-1.2a8,8,0,0,1,1.37-.75,2.62,2.62,0,0,1,1.47-.18,3.83,3.83,0,0,1,2.49,2.23,3.52,3.52,0,0,1,.28,1,4.86,4.86,0,0,1,0,.74c0,.32,0,.57.24.74.45.36,1.2-.06,1.84-.19a1,1,0,0,1,.72.08C272.61,80.29,272.46,81.42,272.3,82.1Z"/><g class="cls-9"><path d="M199.76,87s5.7,5.37,4.76,10.35a1,1,0,0,0,1.08,1.08c.51,0,14.14,2.16,16.3,1.8s-17.81,5.7-18.46,5.48-14.43-4-13.06-6.49,6.35-8.87,6.35-8.87Z"/></g><path class="cls-7" d="M265.68,95.51s0,0,0,.07c-.33,1.63-.72,3.12-1.11,4.38a38.34,38.34,0,0,1-1.6,4.37h0s-1.82-6.61-3.38-13.83c-2.35-10.91-4.08-23.23,2-16.37a18.09,18.09,0,0,1,3.21,5.16h0a26.15,26.15,0,0,1,1.43,13v0C266.06,93.43,265.88,94.5,265.68,95.51Z"/><path class="cls-7" d="M265.68,95.51s0,0,0,.07a48.24,48.24,0,0,1-1.22,5.2,15.22,15.22,0,0,1-1.49,3.55h0c-2.16,3.36-7.67,1.69-8.83-.42-.45-2-7.21-16.8-7.21-16.8l12.66,3.39,5.7,1.52.91.25h0v0C266.16,92.58,266,93.85,265.68,95.51Z"/><path class="cls-6" d="M263.47,82.65a13,13,0,0,1-3.17,7,8.4,8.4,0,0,1-6.82,3c-3.54-.28-6.22-3.23-7-7.19a13.06,13.06,0,0,1-.11-4.25A13.27,13.27,0,0,1,249,74.89a8.68,8.68,0,0,1,7.37-3.69c3.95.32,6.83,4,7.19,8.64h0A13.34,13.34,0,0,1,263.47,82.65Z"/><path class="cls-8" d="M255,81l-.16.59a.22.22,0,0,1-.39.11l-.51-.47a1.13,1.13,0,0,1-.32-1l.23-1.16s.05-.07.08,0l.77.82A1.29,1.29,0,0,1,255,81Z"/><path class="cls-8" d="M255,82.84l-.19-.57c-.07-.19.07-.32.28-.28l.7.16a1.21,1.21,0,0,1,.84.68l.45,1.09s0,.08-.06.07l-1.13-.33A1.33,1.33,0,0,1,255,82.84Z"/><path class="cls-8" d="M253.71,82.63l.52-.38c.18-.12.35,0,.37.15l.05.67a1.22,1.22,0,0,1-.45,1l-1,.79s-.08,0-.08,0v-1.1A1.41,1.41,0,0,1,253.71,82.63Z"/><g class="cls-5"><path d="M263.56,79.84c-4.42-14.36-14.56-5-14.56-5a8.68,8.68,0,0,1,7.37-3.69C260.32,71.52,263.2,75.17,263.56,79.84Z"/></g><g class="cls-9"><path d="M265.68,95.51s0,0,0,.07a48.24,48.24,0,0,1-1.22,5.2v0c0-.27.07-.53.1-.8.37-3,.6-5.62.72-7.94.43-8.41-.48-12.56-.52-12.72a26.15,26.15,0,0,1,1.43,13h0v0C266.06,93.43,265.88,94.5,265.68,95.51Z"/></g><g class="cls-10"><path class="cls-11" d="M260.3,89.68a8.4,8.4,0,0,1-6.82,3c-3.54-.28-6.22-3.23-7-7.19,1.32,2.89,5.09,9.11,13.81,4.17Z"/></g><g class="cls-9"><polygon points="253.48 92.72 256.59 106.06 254.21 92.77 253.48 92.72"/></g><g class="cls-9"><polygon points="258.58 91.21 259.58 90.5 260.32 106.12 258.58 91.21"/></g><path class="cls-12" d="M202.67,94.09a12.79,12.79,0,0,1-.22,2.58h0c-.86,4.58-4,9.6-7.83,11.38-8.91,4.21-18.78-.4-22.57-3.17-4.67-3.41-6.2-6.46-8.43-9.42a21.55,21.55,0,0,0-5.75-5.36c-9.13-5.92-14.23-5.56-14.23-5.56-3.14-.72-5.43-1-6.6-2.26a2.68,2.68,0,0,1-.51-.75c-1-2.11.28-5.47,2.29-7.78h0a6.45,6.45,0,0,1,4.32-2.53c1.35,0,2.24.83,3.58,1.92h0a18,18,0,0,0,2.93,2c7.53,4.08,11.5,3.78,13,3.77,4.37,0,6.62-.28,8.85-.43a49.24,49.24,0,0,1,6.75,0C189.35,79.13,202.44,84.49,202.67,94.09Z"/><path class="cls-14" d="M246.11,99.22l-25.18,1.25-.09-.15c-1.22-2.09-2.56-2.46-3.17-3.58a2.56,2.56,0,0,1-.29-.92,3.13,3.13,0,0,1,0-.69,4,4,0,0,1,.89-2.47,2.13,2.13,0,0,1,.62-.46c1.16-.56,2.28.53,3.5.53h0l.37,0h0l.31-.09h0l.12,0h0a1.77,1.77,0,0,0,.54-.4h0c.43-.46.57-1.06,1-1.5a1.75,1.75,0,0,1,.58-.37,3.22,3.22,0,0,1,3,.41c.87.64.69,1.31,1.59,3.11.17.34.34.68.51,1s.18.33.27.48a4.13,4.13,0,0,0,1,1.27,1.61,1.61,0,0,0,.71.28,1.12,1.12,0,0,0,.71-.16h0c.53-.3,1.14-1,2.57-2,.63-.47,1.19-.87,1.69-1.2a7.65,7.65,0,0,1,1.37-.75,2.47,2.47,0,0,1,1.47-.18,3.86,3.86,0,0,1,2.5,2.23,3.55,3.55,0,0,1,.28,1,6,6,0,0,1,0,.7.89.89,0,0,0,.23.79c.46.35,1.2-.07,1.84-.19a.88.88,0,0,1,.72.08C246.41,97.41,246.26,98.54,246.11,99.22Z"/><g class="cls-9"><path d="M164.36,94.7c0,.24-.28.49-.74.77a21.55,21.55,0,0,0-5.75-5.36c-9.13-5.92-14.23-5.56-14.23-5.56-3.14-.72-5.43-1-6.6-2.26a2.68,2.68,0,0,1-.51-.75c-1-2.11.28-5.47,2.29-7.78,0,.15-2.76,6.93,0,8.06s17.49,2.42,18.74,4.05S164.55,92.17,164.36,94.7Z"/></g><path class="cls-4" d="M281,85.62c0,23-29.72,41.61-66.38,41.61s-66.38-18.63-66.38-41.61c0,7.75,29.72,14,66.38,14S281,93.37,281,85.62Z"/><g class="cls-15"><path d="M194.72,125.2s9.5,1,19.78,1a207.59,207.59,0,0,0,21.81-1.43S217.75,131.94,194.72,125.2Z"/></g><circle class="cls-16" cx="200.79" cy="110.56" r="1.89"/><circle class="cls-16" cx="228.54" cy="110.56" r="1.89"/><path class="cls-16" d="M214.82,114.94a8.62,8.62,0,0,1-5.13-1.6.57.57,0,0,1,.71-.9,7.67,7.67,0,0,0,4.42,1.35,8.08,8.08,0,0,0,4.52-1.36.58.58,0,0,1,.69.92A9.08,9.08,0,0,1,214.82,114.94Z"/><g class="cls-17"><path class="cls-11" d="M148.81,87.42s12,17.78,101.91,10.28C250.86,97.69,161.3,112.38,148.81,87.42Z"/></g><g class="cls-10"><path class="cls-11" d="M202.67,94.09a12.79,12.79,0,0,1-.22,2.58c-3.76-15-31-18.17-31-18.17a49.24,49.24,0,0,1,6.75,0C189.35,79.13,202.44,84.49,202.67,94.09Z"/></g><g class="cls-10"><path class="cls-11" d="M270.37,43.77a3.8,3.8,0,0,1-1.23,2.33c-.66-9.43-10.16-8.32-10.16-8.32a4,4,0,0,1,1-1.18,3.07,3.07,0,0,1,.8-.43C264.37,34.88,270.69,40,270.37,43.77Z"/></g><g class="cls-10"><path class="cls-11" d="M248.58,73.21h0c-15.44-20.1-47.79-14.38-47.79-14.38a47.69,47.69,0,0,1,14.73-2.14C232.11,56.68,242.82,63.22,248.58,73.21Z"/></g><g class="cls-18"><ellipse class="cls-11" cx="224.83" cy="64.58" rx="3.23" ry="6.2" transform="translate(123.58 275.46) rotate(-80.38)"/></g><g class="cls-10"><path class="cls-11" d="M269.25,79.3A5.6,5.6,0,0,0,265,75.53a2.62,2.62,0,0,1,1.47-.18,3.83,3.83,0,0,1,2.49,2.23,3.52,3.52,0,0,1,.28,1A4.86,4.86,0,0,1,269.25,79.3Z"/></g><g class="cls-10"><path class="cls-11" d="M243.06,96.37c-.84-2.81-4.28-3.72-4.28-3.72a2.47,2.47,0,0,1,1.47-.18,3.86,3.86,0,0,1,2.5,2.23,3.55,3.55,0,0,1,.28,1A6,6,0,0,1,243.06,96.37Z"/></g><g class="cls-10"><path class="cls-11" d="M230.42,94.78c-2.76-4.76-5.08-4.51-5.08-4.51a3.22,3.22,0,0,1,3,.41c.87.64.69,1.31,1.59,3.11C230.08,94.13,230.25,94.47,230.42,94.78Z"/></g><g class="cls-10"><path class="cls-11" d="M223,92.59c-.68.41-1.68.87-2.19.44-.81-.69-2.62-.37-2.62-.37a2.13,2.13,0,0,1,.62-.46c1.16-.56,2.28.53,3.5.53h0l.37,0h0Z"/></g><g class="cls-10"><path class="cls-11" d="M197.74,82c0-1.89-.52-2.1-1.82-2.67a4.4,4.4,0,0,1-1.9-1.58,2.18,2.18,0,0,0,.31.22h0c1.06.6,2.57.2,3.31,1.25a2.16,2.16,0,0,1,.31.71A3.83,3.83,0,0,1,197.74,82Z"/></g><g class="cls-10"><path class="cls-11" d="M193.38,76.53a4.55,4.55,0,0,0-3.25-3.3,3.18,3.18,0,0,1,2.79,1.1,1.9,1.9,0,0,1,.33.6A8,8,0,0,1,193.38,76.53Z"/></g><rect class="cls-19" y="0.25" width="300" height="165"/></g></g></svg>