<svg xmlns="http://www.w3.org/2000/svg" xmlns:xlink="http://www.w3.org/1999/xlink" viewBox="0 0 300 165.5"><defs><style>.cls-1{isolation:isolate;}.cls-2{fill:#fce5cd;}.cls-3{fill:#e5884a;}.cls-4{fill:#f9dca0;}.cls-5{fill:#ad5625;}.cls-6{opacity:0.55;}.cls-12,.cls-14,.cls-16,.cls-17,.cls-18,.cls-6{mix-blend-mode:soft-light;}.cls-7{fill:#fff;}.cls-8{fill:#f7cda9;}.cls-9{fill:#f49519;}.cls-10{fill:#8d965a;}.cls-11{fill:#f75d0f;}.cls-12{opacity:0.52;}.cls-13{fill:#ffe8d9;}.cls-14{opacity:0.49;}.cls-15{fill:#00922b;}.cls-16{opacity:0.31;}.cls-17{opacity:0.57;}.cls-18{opacity:0.62;}.cls-19{fill:url(#linear-gradient);}</style><linearGradient id="linear-gradient" x1="150.37" y1="168.62" x2="149.66" y2="2.17" gradientUnits="userSpaceOnUse"><stop offset="0.03" stop-color="#591c16"/><stop offset="0.22" stop-color="#5f241d" stop-opacity="0.96"/><stop offset="0.38" stop-color="#733c33" stop-opacity="0.84"/><stop offset="0.53" stop-color="#936459" stop-opacity="0.64"/><stop offset="0.68" stop-color="#c09d8d" stop-opacity="0.36"/><stop offset="0.82" stop-color="#fae5cf" stop-opacity="0"/></linearGradient></defs><g class="cls-1"><g id="Layer_1" data-name="Layer 1"><rect class="cls-2" y="0.25" width="300" height="165"/><path class="cls-3" d="M194.58,91.29l76.07,22.3a1.39,1.39,0,0,0,1.61-1.17l8-34.58c3.29-13.09,3.19-26.3-12.76-31.06-7.94-2.36-16.84-1.74-22.42,3a1.11,1.11,0,0,1-1.8-.46,18,18,0,0,0-6.18-7.05,37.23,37.23,0,0,0-13.21-5.71c-10.51-2.31-15.32.67-18.43,7.61h0a57,57,0,0,0-2.9,9l-8.85,36.27A1.54,1.54,0,0,0,194.58,91.29Z"/><path class="cls-4" d="M204.93,55.73l-7.77,32A1.41,1.41,0,0,0,198,89.4l70.75,20.72a1.25,1.25,0,0,0,1.49-1l7-30.29c2.93-11.63,3-23.5-12-28-7.42-2.22-16-1-21.18,3.15a1.07,1.07,0,0,1-1.68-.44c-2.79-5.9-11.13-10.85-18.2-12.35C210.29,38.25,207.86,44.1,204.93,55.73Z"/><path class="cls-5" d="M214.81,68.12a6.68,6.68,0,0,1,2.45-3.35,1.56,1.56,0,0,1,.2-.16l.17-.14h0c6.42-4.92,21.67-8.1,27.91-4.68,3.67,2,1.71,4.92,6.23,7.57,5.86,3.44,14.74-3.69,14.62,3.27-.19,11.18-9.72,4.76-13.53,11.88-3.1,5.8,1.51,9-1.84,11.34-1.84,1.27-5.23,1.67-9,1.38-6.93-.54-15.14-3.43-17.27-7.67-1.1-2.19-.31-4.23-2.93-7.61-1.68-2.17-2.84-2.42-4.49-4.69C216.64,74.32,214.14,70.88,214.81,68.12Z"/><g class="cls-6"><path class="cls-7" d="M258.37,91.2h0l-.18.15Z"/></g><ellipse class="cls-8" cx="189.74" cy="76.46" rx="54.26" ry="17.01"/><ellipse class="cls-9" cx="189.74" cy="80.28" rx="53.22" ry="17.01"/><path class="cls-10" d="M136.27,80.85a9.67,9.67,0,0,1-.94-1.91,10.72,10.72,0,0,1-.58-2,6.32,6.32,0,0,1,.93-4.19,12.4,12.4,0,0,1,2.85-3.14A24.28,24.28,0,0,1,142,67.23a47.64,47.64,0,0,1,7.63-3.3,82,82,0,0,1,8-2.27A128.81,128.81,0,0,1,173.93,59c5.48-.54,11-.8,16.5-.8A162.84,162.84,0,0,1,207,59a126.18,126.18,0,0,1,16.34,2.68,77.36,77.36,0,0,1,8,2.33,42.26,42.26,0,0,1,7.62,3.5,20.69,20.69,0,0,1,3.45,2.56,12.11,12.11,0,0,1,1.47,1.64,8.24,8.24,0,0,1,1.12,2,6.65,6.65,0,0,1,.47,2.3,6.79,6.79,0,0,1-.07,1.13c0,.36-.09.71-.16,1.07a12.22,12.22,0,0,1-.59,2.08,7.07,7.07,0,0,1-.47,1,4.16,4.16,0,0,1-.72.93l-.72-.59a7.25,7.25,0,0,0,.55-1.76c.13-.63.22-1.28.3-1.93,0-.33.08-.66.1-1a7.55,7.55,0,0,0,0-.93,4.69,4.69,0,0,0-.34-1.71,8.66,8.66,0,0,0-2.16-3A18.37,18.37,0,0,0,238,69a40.5,40.5,0,0,0-7.31-3.39,76.89,76.89,0,0,0-7.8-2.32,125,125,0,0,0-16.12-2.71c-5.43-.57-10.9-.85-16.36-.9s-10.94.16-16.38.65a128,128,0,0,0-16.19,2.44c-2.67.59-5.31,1.28-7.9,2.13a46.59,46.59,0,0,0-7.5,3.14,23.09,23.09,0,0,0-3.39,2.19,11.56,11.56,0,0,0-2.7,2.89,6.82,6.82,0,0,0-.78,1.77,5,5,0,0,0-.15.94,3.78,3.78,0,0,0,0,1,10,10,0,0,0,.52,1.91,9.48,9.48,0,0,0,.84,1.79Z"/><path class="cls-11" d="M179.42,94.22c-.08-.14,4.23-3.23,5.64-3.38,1.26-.14,4.71,1.2,5.9,2.33a.31.31,0,0,1-.13.53C186.29,95,179.77,94.91,179.42,94.22Z"/><rect class="cls-10" x="173.37" y="122.95" width="34.46" height="6.8" rx="2.07"/><path class="cls-10" d="M244.53,76.16c0,28.18-24.5,51-54.74,51s-54.74-22.84-54.74-51c0,9.51,24.51,17.21,54.74,17.21S244.53,85.67,244.53,76.16Z"/><g class="cls-12"><path d="M173.34,126.17s7.84.86,16.32.86a171.15,171.15,0,0,0,18-1.18A58.09,58.09,0,0,1,173.34,126.17Z"/></g><circle class="cls-13" cx="178.88" cy="106.9" r="1.71"/><circle class="cls-13" cx="203.98" cy="106.9" r="1.71"/><path class="cls-13" d="M191.57,110.86a7.79,7.79,0,0,1-4.64-1.45.51.51,0,0,1-.08-.73.52.52,0,0,1,.73-.08,6.91,6.91,0,0,0,4,1.21,7.35,7.35,0,0,0,4.08-1.22.52.52,0,0,1,.73.1.51.51,0,0,1-.1.73A8.2,8.2,0,0,1,191.57,110.86Z"/><g class="cls-14"><path class="cls-7" d="M135.48,78.36s9.87,21.81,84,12.61C219.64,91,145.78,109,135.48,78.36Z"/></g><path class="cls-15" d="M218.07,76.46a8,8,0,0,1-.62,2.21,4.86,4.86,0,0,1-.3.56,6,6,0,0,1-.17-.6,7.24,7.24,0,0,1-.19-2.1,6.63,6.63,0,0,1,.21-1.26,5.83,5.83,0,0,1,.65-1.55l0,0A5,5,0,0,1,218.07,76.46Z"/><path class="cls-11" d="M202,73.44s-5.85-1.28-6.09-1.31c-.07,0-.09-.33-.07-.77.05-1.13.37-3.09,1-3.31a3.9,3.9,0,0,1,1.35,0c1.52.17,3.65.65,3.65.65a2.61,2.61,0,0,1,.1.42,17.14,17.14,0,0,1,.13,2.09h0v.26h0C202,72.53,202,73.44,202,73.44Z"/><g class="cls-16"><path d="M202,73.44s-5.85-1.28-6.09-1.31c-.07,0-.09-.33-.07-.77,0,.06,6.05,2.14,6.18.13C202,72.53,202,73.44,202,73.44Z"/></g><path class="cls-15" d="M205.82,75c-.55,4.53-5.82,5.9-7,6.16l-.26,0-1.67-2.12s-.84-6.32,8.52-7.69A8,8,0,0,1,205.82,75Z"/><g class="cls-16"><path d="M205.82,75c-.55,4.53-5.82,5.9-7,6.16.2-1.08.42-2.21.42-2.21S203.64,78.36,205.82,75Z"/></g><g class="cls-17"><path d="M197.79,85.19a3.66,3.66,0,0,1-.65.56h0c-1.91,1.27-3.88-.28-5-2.5a8.36,8.36,0,0,1-.75-2.43Z"/></g><path class="cls-15" d="M197.35,85a4,4,0,0,1-.71.48h0c-2,1-3.83-.75-4.69-3.1a8.26,8.26,0,0,1-.52-2.5Z"/><path class="cls-11" d="M207.19,86.49a15.62,15.62,0,0,1-1.24,2.2s-11.3-4.35-13.1-6.72c0,0,0-.12,0-.32.1-.84.42-3.09.85-3.29s13,1.13,14.08,3.61C208.4,83.27,207.84,85.08,207.19,86.49Z"/><path class="cls-11" d="M192.29,77.38c-.22.05-2.61.7-5.32,1.45l-8.2,2.27s-.66-8.56,0-10.65c0,0,9.32-2.66,11.16-2.09,1.27.4,2.17,4.57,2.42,7.1,0,0,0,.08,0,.13h0a.28.28,0,0,1,0,.09C192.46,76.66,192.43,77.35,192.29,77.38Z"/><g class="cls-6"><ellipse class="cls-7" cx="187.16" cy="69.66" rx="2.11" ry="0.76" transform="translate(-7.3 24.22) rotate(-7.26)"/></g><g class="cls-17"><path d="M187.42,81.34c-10.12,3-24.62,2.71-25.41,1.17A8,8,0,0,1,163.82,81h0c2.54-1.86,7.13-4.86,9.75-5.75a4.84,4.84,0,0,1,1-.25,11.22,11.22,0,0,1,3.74.56,31.85,31.85,0,0,1,7.57,3.27,12.42,12.42,0,0,1,1.83,1.36A.69.69,0,0,1,187.42,81.34Z"/></g><path class="cls-11" d="M187.65,81.07c-10.12,3-24.62,2.71-25.41,1.17a8,8,0,0,1,1.81-1.53h0c2.54-1.86,7.13-4.86,9.75-5.75a4.84,4.84,0,0,1,1-.25,11.25,11.25,0,0,1,3.74.56,31.85,31.85,0,0,1,7.57,3.27,12.42,12.42,0,0,1,1.83,1.36A.7.7,0,0,1,187.65,81.07Z"/><path class="cls-15" d="M186.38,68.28c-.36,1.27-1.09,2.44-2.59,2.35a5.92,5.92,0,0,1,0-1.41,5,5,0,0,1,.64-1.82,5.31,5.31,0,0,1,2.23-2.05.67.67,0,0,0,0,.1A11.09,11.09,0,0,1,186.38,68.28Z"/><path class="cls-11" d="M214.9,78.55c-1.13,0-6.84-1.35-6.84-1.35a1,1,0,0,1,.35-.74,8.06,8.06,0,0,1,3.49-1.65h0a4.92,4.92,0,0,1,3-.13,1.92,1.92,0,0,1,.68,1,5.05,5.05,0,0,1,.12.56C215.86,77.36,215.59,78.55,214.9,78.55Z"/><g class="cls-6"><path class="cls-7" d="M179.08,76.08c-.11.53-1.38.66-2.85.28A3.93,3.93,0,0,1,173.8,75a4.84,4.84,0,0,1,1-.25,11.25,11.25,0,0,1,3.74.56C178.92,75.55,179.12,75.84,179.08,76.08Z"/></g><g class="cls-16"><path d="M187.65,81.07c-10.12,3-24.62,2.71-25.41,1.17a8,8,0,0,1,1.81-1.53c-.06.08-1.32,1.86,4.34,1.72a140.77,140.77,0,0,0,15.85-1.72c.85-.19,2.71-.68,1.87-2.17a12.42,12.42,0,0,1,1.83,1.36A.7.7,0,0,1,187.65,81.07Z"/></g><path class="cls-11" d="M164,74.44c-.42.83-4.75,2.47-6.86,2.55a.72.72,0,0,1-.57-1.06c.18-.4.42-.9.69-1.42h0c.81-1.58,1.91-3.38,2.7-3.38A6.28,6.28,0,0,1,163.33,73h0C163.87,73.53,164.18,74.07,164,74.44Z"/><g class="cls-18"><path d="M167.68,84.44a5.89,5.89,0,0,1-.77,1.5s-2.64-.84-2.67-6.17h0a20.73,20.73,0,0,1,.27-3.37C168.57,79.47,168.32,82.63,167.68,84.44Z"/></g><path class="cls-15" d="M167.68,84a5.89,5.89,0,0,1-.77,1.5s-2.64-.84-2.67-6.16h0a20.57,20.57,0,0,1,.27-3.37C168.57,79,168.32,82.16,167.68,84Z"/><g class="cls-6"><path class="cls-7" d="M186.71,65.45a2.52,2.52,0,0,1-.68,1.36c-.57.66-1.25,1-1.52.65l0-.06a5.31,5.31,0,0,1,2.23-2.05A.67.67,0,0,0,186.71,65.45Z"/></g><g class="cls-16"><path d="M192.29,77.38c-.21,0-2.29.61-4.77,1.29l-.55.16-.29.08-8.2-3.66V74.5l8,3.7s4.78-1.14,4.93-1.23,1-.4.94-1.29C192.46,76.66,192.43,77.35,192.29,77.38Z"/></g><g class="cls-16"><path d="M207.19,86.49a15.62,15.62,0,0,1-1.24,2.2s-11.3-4.35-13.1-6.72c0,0,0-.12,0-.32.15.12,10.32,4.74,11,5.08s2.87.76,3.27-.18Z"/></g><g class="cls-16"><path d="M218.07,76.46a8,8,0,0,1-.62,2.21l-.47,0a7.24,7.24,0,0,1-.19-2.1,1.21,1.21,0,0,0,1.28-.07Z"/></g><g class="cls-16"><path d="M196.64,85.51c-2,1-3.83-.75-4.69-3.1C192,82.41,194.71,85.49,196.64,85.51Z"/></g><g class="cls-16"><path d="M214.9,78.55c-1.13,0-6.84-1.35-6.84-1.35a1,1,0,0,1,.35-.74s7.5,2.14,7.29-.18C215.86,77.36,215.59,78.55,214.9,78.55Z"/></g><path class="cls-11" d="M221.48,79.21v0a13.62,13.62,0,0,1-2,2.42s-4.73.56-5,.52c-.08,0-.11-.42-.08-1,.06-1.41.47-3.84,1.18-4.11,1-.38,6.28.82,6.28.82A1.73,1.73,0,0,1,221.48,79.21Z"/><g class="cls-16"><path d="M221.47,79.23a13.62,13.62,0,0,1-2,2.42s-4.73.56-5,.52c-.08,0-.11-.42-.08-1,.25,0,4.24.07,4.69-.07A10.28,10.28,0,0,0,221.47,79.23Z"/></g><g class="cls-16"><path d="M186.38,68.28c-.36,1.27-1.09,2.44-2.59,2.35a5.92,5.92,0,0,1,0-1.41C184.12,69.41,185.37,70.11,186.38,68.28Z"/></g><g class="cls-16"><path d="M167.68,84a5.89,5.89,0,0,1-.77,1.5s-2.64-.84-2.67-6.16C164.25,79.38,165.44,85.34,167.68,84Z"/></g><g class="cls-16"><polygon points="157.26 74.5 157.26 74.51 157.26 74.5 157.26 74.5"/></g><g class="cls-16"><path d="M164,74.44c-.42.83-4.75,2.47-6.86,2.55a.72.72,0,0,1-.57-1.06c.18-.4.42-.9.69-1.42a.92.92,0,0,0,.69,1.12c.9.24,4.45-1,4.66-1.13s1-1.25.73-1.52C163.87,73.53,164.18,74.07,164,74.44Z"/></g><g class="cls-6"><path class="cls-7" d="M215.58,75.72c-.72-.92-3.59-.91-3.67-.91a4.92,4.92,0,0,1,3-.13A1.92,1.92,0,0,1,215.58,75.72Z"/></g><g class="cls-6"><ellipse class="cls-7" cx="216.78" cy="77.82" rx="0.38" ry="1.14" transform="translate(113.12 283.5) rotate(-83)"/></g><g class="cls-6"><path class="cls-7" d="M217.54,74.56c-.15.4-.38.68-.54.71a5.83,5.83,0,0,1,.65-1.55A1.59,1.59,0,0,1,217.54,74.56Z"/></g><g class="cls-6"><ellipse class="cls-7" cx="206.33" cy="82.17" rx="0.68" ry="1.31" transform="translate(6.53 179.15) rotate(-47.61)"/></g><g class="cls-6"><ellipse class="cls-7" cx="203.38" cy="72.61" rx="1.26" ry="0.45" transform="translate(-12.51 67.45) rotate(-18.28)"/></g><g class="cls-6"><path class="cls-7" d="M201.9,69.12a5.9,5.9,0,0,1-1.8-.14c-1.13-.24-2-.63-2-.88,0,0,0,0,0,0,1.52.17,3.65.65,3.65.65A2.61,2.61,0,0,1,201.9,69.12Z"/></g><g class="cls-6"><ellipse class="cls-7" cx="186.87" cy="91.93" rx="0.57" ry="2.12" transform="translate(48.92 247.96) rotate(-74.71)"/></g><g class="cls-6"><ellipse class="cls-7" cx="160.89" cy="72.31" rx="0.55" ry="1.51" transform="translate(18.63 176.6) rotate(-60.44)"/></g><rect class="cls-19" y="0.25" width="300" height="165"/></g></g></svg>