<svg xmlns="http://www.w3.org/2000/svg" xmlns:xlink="http://www.w3.org/1999/xlink" viewBox="0 0 300 165"><defs><style>.cls-1{isolation:isolate;}.cls-2{fill:#fce5cd;}.cls-3{fill:#fff;}.cls-4{fill:#602d13;}.cls-5{fill:#ffc76c;}.cls-10,.cls-6,.cls-8,.cls-9{mix-blend-mode:soft-light;}.cls-7{fill:#d6412d;}.cls-8{opacity:0.44;}.cls-9{opacity:0.66;}.cls-10{opacity:0.36;}.cls-11{fill:#3f240f;}.cls-12{fill:url(#linear-gradient);}</style><linearGradient id="linear-gradient" x1="150.37" y1="168.37" x2="149.66" y2="1.92" gradientUnits="userSpaceOnUse"><stop offset="0.03" stop-color="#591c16"/><stop offset="0.22" stop-color="#5f241d" stop-opacity="0.96"/><stop offset="0.38" stop-color="#733c33" stop-opacity="0.84"/><stop offset="0.53" stop-color="#936459" stop-opacity="0.64"/><stop offset="0.68" stop-color="#c09d8d" stop-opacity="0.36"/><stop offset="0.82" stop-color="#fae5cf" stop-opacity="0"/></linearGradient></defs><g class="cls-1"><g id="Layer_1" data-name="Layer 1"><rect class="cls-2" x="-0.27" y="-0.15" width="300" height="165"/><path class="cls-3" d="M271,72.48c-2.54,6.49-5.54,8.54-5,13.43.46,4.24,2.94,4.75,3.07,8.08.28,6.67-9.3,12.76-15.68,15.2-1.26.48-16.4,6.06-25.55-1.45-5.51-4.52-3.59-9.47-9.7-13.42a11.36,11.36,0,0,0-5.54-1.9c-2.64-.26-5.38,0-9.67-1.82-1.82-.78-10.12-4.31-13.42-12.78-3.09-8-.92-18.09,4.59-22.93.35-.3.7-.58,1.07-.84,4.44-3.11,7.29-.61,12-4.21,5.4-4.14,3.2-8.7,8.41-13.26,3.57-3.12,7.77-3.64,16.17-4.69,7.54-.93,11.32-1.4,15.52.33,5.41,2.22,4.77,5.18,12.78,12,7.85,6.66,10.56,5.59,12.61,9.87C275.64,60.48,272.38,68.81,271,72.48Z"/><path class="cls-4" d="M240.17,111.8c-5.12,0-9.31-1.32-12.5-3.94a15,15,0,0,1-4.52-6.62c-1-2.43-2-4.73-5.17-6.79a11.17,11.17,0,0,0-5.47-1.87c-.53,0-1.06-.08-1.63-.12a21.34,21.34,0,0,1-8.08-1.72c-6.57-2.78-11.37-7.35-13.51-12.86a22.88,22.88,0,0,1-.94-12.73,18.69,18.69,0,0,1,5.58-10.38,12.61,12.61,0,0,1,1.08-.85A11,11,0,0,1,200.75,52,10.91,10.91,0,0,0,207,49.72c2.72-2.09,3.48-4.26,4.27-6.55a13.91,13.91,0,0,1,4.13-6.71c3.61-3.16,7.84-3.68,16.26-4.73,7.56-.93,11.36-1.4,15.6.34,3,1.22,4.14,2.66,5.89,4.83a47.5,47.5,0,0,0,6.93,7.16A46.85,46.85,0,0,0,268,49.57c2.23,1.27,3.58,2,4.72,4.41,3.11,6.49-.2,15-1.61,18.56h0a43.58,43.58,0,0,1-2.78,5.7c-1.48,2.67-2.56,4.59-2.23,7.65a9,9,0,0,0,1.7,4.41A6.75,6.75,0,0,1,269.17,94c.27,6.72-9.29,12.87-15.79,15.35a41.1,41.1,0,0,1-9.86,2.28A32.63,32.63,0,0,1,240.17,111.8Zm.68-80.58a81.94,81.94,0,0,0-9.18.83c-8.36,1-12.55,1.56-16.09,4.66a13.62,13.62,0,0,0-4,6.56c-.78,2.24-1.58,4.56-4.38,6.7a11.2,11.2,0,0,1-6.38,2.34,10.69,10.69,0,0,0-5.6,1.87c-.36.26-.71.54-1.05.83a18.39,18.39,0,0,0-5.47,10.21,22.58,22.58,0,0,0,.92,12.54c2.11,5.43,6.85,9.93,13.34,12.69a21.2,21.2,0,0,0,8,1.69c.57,0,1.1.06,1.65.11a11.61,11.61,0,0,1,5.6,1.93c3.26,2.11,4.25,4.45,5.29,6.93a14.81,14.81,0,0,0,4.43,6.5c3.79,3.11,9,4.36,15.62,3.69a40.68,40.68,0,0,0,9.77-2.26c6.41-2.45,15.85-8.48,15.58-15a6.34,6.34,0,0,0-1.32-3.52,9.37,9.37,0,0,1-1.75-4.56c-.34-3.15.75-5.12,2.27-7.84a44.15,44.15,0,0,0,2.75-5.65h0c1.4-3.58,4.68-11.94,1.63-18.31-1.1-2.29-2.34-3-4.59-4.27a47.56,47.56,0,0,1-8-5.54,47.48,47.48,0,0,1-7-7.21c-1.72-2.13-2.85-3.54-5.76-4.73A15.7,15.7,0,0,0,240.85,31.22Z"/><path class="cls-2" d="M251.86,63.19a14.91,14.91,0,0,1-11.58,14.57h0a15,15,0,0,1-18.13-12.19,14.42,14.42,0,0,1-.19-2.38,15,15,0,1,1,29.91,0Z"/><path class="cls-5" d="M252.67,62.05a15,15,0,0,1-11.58,14.58h0A15,15,0,0,1,223,64.44a14.45,14.45,0,0,1-.2-2.39,15,15,0,0,1,9.83-14,15,15,0,0,1,20.09,14Z"/><g class="cls-6"><path class="cls-3" d="M252.67,62.05a14.85,14.85,0,0,1-1.34,6.19C250.32,49.78,232.58,48,232.58,48a15,15,0,0,1,20.09,14Z"/></g><g class="cls-6"><path d="M241.08,76.63A15,15,0,0,1,223,64.44C224.08,66.48,230.23,76.58,241.08,76.63Z"/></g><path class="cls-7" d="M239.4,121.58c.07,1.94-1.3,4.12-3.45,6.12a23.82,23.82,0,0,1-2.27,1.83,27.21,27.21,0,0,1-6.16,3.25l-5,1.23a13,13,0,0,1-2.85,0,8.46,8.46,0,0,1-3.5-1.09c-5-3-1.81-9.74-7.48-14.28-6.59-5.27-14.51.93-20.57-4.74-4.26-4-4.46-10.93-4.51-12.62-.16-5.48,2-5.82,1.59-9.44-.74-6.66-8.27-7.89-20.17-20.13-4.29-4.42-6.1-7.13-7.33-10.25-.56-1.39-4-10.12-.06-14.56a4,4,0,0,1,1.72-1.15l.08,0h0c.22-.08.48-.16.77-.24h0c.83-.23,1.94-.47,3.51-.81l3.18-.7c2.21-.5,4.05-.94,5.58-1.31l.87-.21,2.2-.54c.73-.18,1.34-.33,1.87-.44,2.13-.46,2.88-.42,3.63.19,3.08,2.52-1.4,8.54,2,14.82a8,8,0,0,0,.76,1.16A7,7,0,0,0,185.18,59c1.35,1,3.35,2,6.92,4.49C201.35,69.8,206,73,208,78.24c1.69,4.38.44,7.13.27,10.27,0,.35,0,.71,0,1.07h0a10.57,10.57,0,0,0,1.29,4.62c2.46,4.74,7,7.43,10.21,9.17,4.81,2.63,7.56,2.33,10.8,4.69a14.44,14.44,0,0,1,1.56,1.32,23.69,23.69,0,0,1,3.2,3.89,42.38,42.38,0,0,1,2.45,4.32C238.84,119.66,239.37,120.7,239.4,121.58Z"/><path class="cls-5" d="M227.52,132.78l-5,1.23c-5-3-2.4-12.63-8.07-17.17-6.59-5.27-13.93-.87-20-6.55a16.42,16.42,0,0,1-5.09-10.81c-.16-5.48,2-5.82,1.59-9.44-.74-6.66-8.27-7.89-20.17-20.13-4.29-4.42-6.1-7.14-7.34-10.25-.38-1-3.94-8-4.18-12.32a6,6,0,0,1,.09-1.56l.08,0h0a3.64,3.64,0,0,1,.77-.24h0c.27-.06.72-.14,1.72-.36,2.19,2.79,1.11,8.18,4.23,13.92,1.52,2.79,6.49,10.73,12.36,14.76,9.26,6.34,12.65,6.81,14.69,12.07,2.6,6.72-3.41,11.19-.31,17.66,4,8.42,13.41,8,17,8.59,6.51,1,6.25,2.52,9.66,7.41,2.34,3.34,1.95,8.38,3,10.41S227.44,131.85,227.52,132.78Z"/><path class="cls-5" d="M236,127.7a23.82,23.82,0,0,1-2.27,1.83c-4-3.92-4.15-14.51-9.41-18.72-6.58-5.27-13.79-1.68-19.85-7.36-4.26-4-5.11-11.06-5.16-12.75-.17-5.49.53-5.77.13-9.39-.73-6.66-9.58-9.68-19.91-17.71-4.86-3.78-6.1-9.25-6.78-12.53a15.7,15.7,0,0,1-.18-8.38c2.21-.54,1.92-.54,3.08-.79-.78,4.56-1.32,8.14.33,13.25,1,3,7.07,9.09,12.95,13.12,9.25,6.34,9.84,5.46,11.88,10.72,2.61,6.72-.65,11.25,2.44,17.71,4,8.43,9.2,8,12.78,8.59,6.51,1,10.48,3.33,13.9,8.22,2.33,3.35,1.59,7.43,2.61,9.45C233.38,124.73,235.41,126.63,236,127.7Z"/><g class="cls-6"><path class="cls-3" d="M208.29,88.51c.56-11.39-18.14-24.67-23.11-29.55,1.35,1,3.35,2,6.92,4.49C201.35,69.8,206,73,208,78.24,209.71,82.62,208.46,85.37,208.29,88.51Z"/></g><g class="cls-6"><ellipse class="cls-3" cx="175.68" cy="46.58" rx="5.34" ry="1.77" transform="translate(-5.71 57.98) rotate(-18.45)"/></g><g class="cls-8"><path class="cls-3" d="M219.2,115.28c-.31-.44,1.14-2.11,2.58-3.23,1-.77,3.4-2.65,6.15-2.11a4.43,4.43,0,0,1,1.94.81c1.11.86.88,1.69,1.94,2.43s1.64.3,2.26,1a2.3,2.3,0,0,1,.49,2.26c-.79,2-6.05,2.6-8.09.49-.92-1-.53-1.82-1.45-2.43C223.08,113.18,219.64,115.9,219.2,115.28Z"/></g><g class="cls-9"><path class="cls-3" d="M183.78,83.1c.55.56.17,1.25.81,1.94a2.4,2.4,0,0,0,1.46.65c.78.11,1.76,0,4.36-1.62s2.51-2,3.72-2.26c1.72-.42,2.74.21,3.07-.33s-.59-2.5-2.1-3.07-2.12.62-4.53,1c-3.22.47-4.73-1.27-8.08-.49a2.44,2.44,0,0,0-1.62,1,2.19,2.19,0,0,0,.32,2.59C182,83.15,183.06,82.37,183.78,83.1Z"/></g><g class="cls-10"><path d="M189,110.43a2.83,2.83,0,0,0,.48,1.78,4.34,4.34,0,0,0,3.24,1.61c3.34.33,4.17-2.54,9-3.88,2.54-.69,4.33-.46,4.53-1.29s-1.17-1.78-2.1-2.26-2.55-1.07-6.79-.17C194.62,106.81,189.28,107.94,189,110.43Z"/></g><g class="cls-10"><path d="M219.69,134a8.46,8.46,0,0,1-3.5-1.09c-5-3-1.81-9.74-7.48-14.28-6.59-5.27-14.51.93-20.57-4.74-4.26-4-4.46-10.93-4.51-12.62-.16-5.48,2-5.82,1.59-9.44-.74-6.66-8.27-7.89-20.17-20.13-4.29-4.42-6.1-7.13-7.33-10.25-.56-1.39-4-10.12-.06-14.56a4,4,0,0,1,1.72-1.15l.08,0h0c0,.5-.12,1-.19,1.59-.45,3.31-1.16,7.51.24,12.31,1.45,5,4.52,8,10.67,14.07,10.09,10,15.31,9.85,16.82,15.85s-3.34,8.41-1.3,14.88c1.56,4.91,6.11,9.09,10.84,10.83,5.91,2.18,9.07-.58,12.93,2.59,2,1.61,3.07,3.9,4.86,7.6,2,4.21,1.61,5.14,3.07,6.79A8.12,8.12,0,0,0,219.69,134Z"/></g><path class="cls-2" d="M209,67c-.07.53.8.6,1.56,1.74,1.19,1.78.16,3.27,1.28,4.37a2.85,2.85,0,0,0,2.75.58c.78-.26,1-.79,2.28-2.69,1.73-2.51,2.19-2.7,2.07-3.29-.34-1.63-4.16-2-4.57-2C211.92,65.45,209.08,66.05,209,67Z"/><path class="cls-2" d="M244.26,93.45c-2.45,2.19-3.36,2.72-3.23,3.56.23,1.48,3.54,2.74,6.31,2.1,2-.47,2-1.59,4.85-3.07,3.57-1.89,5.38-1.05,6.3-2.59s-.4-2.56-1.29-6.63c-1.19-5.48,0-8.42-1.46-9.06-1.15-.5-3.05.87-4,2.27-1.63,2.31-.13,3.82-1.29,6.79C249.72,88.56,247.9,90.19,244.26,93.45Z"/><circle class="cls-11" cx="229.89" cy="63.92" r="0.95"/><circle class="cls-11" cx="241" cy="63.92" r="0.95"/><path class="cls-11" d="M235.06,66.31a4.63,4.63,0,0,1-2.7-.84.49.49,0,0,1,.61-.76,3.66,3.66,0,0,0,2.09.63,3.85,3.85,0,0,0,2.14-.64.49.49,0,0,1,.59.77A4.77,4.77,0,0,1,235.06,66.31Z"/><rect class="cls-12" width="300" height="165"/></g></g></svg>