<svg xmlns="http://www.w3.org/2000/svg" xmlns:xlink="http://www.w3.org/1999/xlink" viewBox="0 0 300 165.5"><defs><style>.cls-1{isolation:isolate;}.cls-2{fill:#fce5cd;}.cls-3{fill:#aa5a2e;}.cls-4{fill:#799166;}.cls-5{fill:#94aa81;}.cls-6{fill:#f4d49d;}.cls-7{opacity:0.52;mix-blend-mode:hard-light;}.cls-8{opacity:0.49;}.cls-10,.cls-8{mix-blend-mode:multiply;}.cls-9{fill:#56703a;}.cls-10{opacity:0.39;}.cls-11{fill:#c1272d;}.cls-12{opacity:0.53;}.cls-12,.cls-14,.cls-15{mix-blend-mode:soft-light;}.cls-13{fill:#fff;}.cls-14{opacity:0.58;}.cls-16{fill:#3f240f;}.cls-17{fill:url(#linear-gradient);}</style><linearGradient id="linear-gradient" x1="150.37" y1="168.62" x2="149.66" y2="2.17" gradientUnits="userSpaceOnUse"><stop offset="0.03" stop-color="#591c16"/><stop offset="0.22" stop-color="#5f241d" stop-opacity="0.96"/><stop offset="0.38" stop-color="#733c33" stop-opacity="0.84"/><stop offset="0.53" stop-color="#936459" stop-opacity="0.64"/><stop offset="0.68" stop-color="#c09d8d" stop-opacity="0.36"/><stop offset="0.82" stop-color="#fae5cf" stop-opacity="0"/></linearGradient></defs><g class="cls-1"><g id="Layer_1" data-name="Layer 1"><rect class="cls-2" y="0.25" width="300" height="165"/><path class="cls-3" d="M263.46,113.09a3.34,3.34,0,0,1-3.23,2.68h-.09l-14.39.49h-.33l-85.53,2.47c-2.61-.75-5.33-.06-6.5-2.47,0,0,0,0,0,0-.49-1-.24-4.65-.34-5.83,0-.08,0-.16,0-.23s0-.14,0-.21,0-.27,0-.4V78.4a8.83,8.83,0,0,1,0-.89l47.89-2.61h0l56.95-3A9,9,0,0,1,261,73.2l.16.11c1.21.87,1.18.89,1.74,4.4,0,2.06.07,7,.15,12.61,0,1.33,0,2.7.06,4.09l0,2.53C263.29,103.35,263.4,109.65,263.46,113.09Z"/><path class="cls-4" d="M270.25,72.79h0s-3.48.17-9.21.41c-13.06.55-37.85,1.48-60.09,1.7h0c-15.33.16-29.45,0-37.65-.9-5-.54-7.83-1.33-7.35-2.47h0c2.93-6.88,78.93-28.78,78.93-28.78a69.76,69.76,0,0,1,8.43,1.37C257.1,48.44,268.86,62,269.93,68.4A21.29,21.29,0,0,1,270.25,72.79Z"/><path class="cls-5" d="M270.25,72.79v38.34c0,4.09-1.55,4.63-9.55,4.63h-.47a3.34,3.34,0,0,0,3.23-2.68c-.06-3.44-.17-9.74-.27-16.15l0-2.53c0-1.39,0-2.76-.06-4.09-.08-5.63-.15-10.55-.15-12.61-.56-3.51-.53-3.53-1.74-4.4L261,73.2A9,9,0,0,0,257.89,72L201,74.9h0L153,77.51a9.53,9.53,0,0,1,2.89-6h0a9.5,9.5,0,0,1,6.61-2.66l98.16-5.62a9.52,9.52,0,0,1,8,4.38c.18.26-.16-.16,0,.12.65,1.25.83-.43,1.22.57a1.12,1.12,0,0,0,.05.13Z"/><path class="cls-6" d="M263.46,113.09a3.35,3.35,0,0,1-2.81,2.65,2.77,2.77,0,0,1-.42,0h-.09l-1.86.06h0l-12.53.43h-.33c-5.63.21-82,2.55-85.53,2.47-1.65,0-3.68,0-5.15-.93a3.94,3.94,0,0,1-1.35-1.54s0,0,0,0c-.48-1-.23-4.69-.34-5.83,0-.08,0-.16,0-.23s0-.14,0-.21,0-.27,0-.4V95.31l0-17.8,47.89-2.61h0L256.7,72l1.19-.06A9,9,0,0,1,261,73.2l.16.11c1.21.87,1.18.89,1.74,4.4,0,2.06.07,7,.15,12.61,0,1.33,0,2.7.06,4.09l0,2.53C263.29,103.35,263.4,109.65,263.46,113.09Z"/><g class="cls-7"><path class="cls-3" d="M263.46,113.05a.17.17,0,0,1,0,.07,3.32,3.32,0,0,1-3.22,2.65l-2,.07h-.08l-12.45.42h-.33c-5.63.21-82,2.55-85.53,2.47a13.67,13.67,0,0,1-4.1-.43.28.28,0,0,1,.08-.54l104.27-3a3,3,0,0,0,.84-.28,3.81,3.81,0,0,0,1-2.66v0c0-.64-.56-31.62-1-35.1a5.72,5.72,0,0,0-3.24-4.25.28.28,0,0,1,.12-.52h.06A8.79,8.79,0,0,1,261,73.2l.16.11c1.2.87,1.18.89,1.74,4.38v0c0,2.07.07,7,.15,12.59,0,1.33,0,2.7.06,4.09l0,2.53C263.29,103.32,263.4,109.6,263.46,113.05Z"/></g><polygon class="cls-5" points="263.09 87.32 263.09 91.14 153.01 99.08 153 99.08 153 94.82 153.02 94.82 263.09 87.32"/><g class="cls-8"><path class="cls-9" d="M257.47,68.86a12.91,12.91,0,0,1,1.31-.06Z"/></g><g class="cls-10"><path class="cls-9" d="M270.25,72.79v4.64c-1.5-7.61-8.29-8.62-11.47-8.63l11.14-.49a1.12,1.12,0,0,0,.05.13Z"/></g><polygon class="cls-11" points="263.37 93.45 263.37 97.27 263.19 97.28 153.01 105.23 153 105.23 153 100.97 153.01 100.97 263.15 93.46 263.37 93.45"/><path class="cls-9" d="M270,68.44h0l-.85.14h-2.68L163.17,74l-7.63.4a1,1,0,0,1-.85-1.57,9.14,9.14,0,0,1,1.08-1.25l.08-.12A4.74,4.74,0,0,1,157.33,70c11.18-8.14,77.42-27.23,77.42-27.23.65,0,1.29,0,1.94.08a29.16,29.16,0,0,1,6.49,1.29l.18,0C257.1,48.56,268.9,62.1,270,68.44Z"/><g class="cls-12"><path class="cls-13" d="M243.47,44.16l-.18,0a29.13,29.13,0,0,0-6.5-1.29c-.64,0-1.28-.08-1.93-.08,0,0-66.24,19.09-77.42,27.23,16-4.8,56.91-17.06,77.89-23.36a7,7,0,0,1,3.56-.13c4.78,1.08,17.45,5.36,31,21.92C268.87,62.06,257.2,48.56,243.47,44.16Z"/></g><g class="cls-10"><path class="cls-11" d="M216.75,56.5S215,64.68,232,64.1a4.53,4.53,0,0,0,.74-.09c9.72-2,4.11-5.4,4.11-5.4Z"/></g><path class="cls-11" d="M236.87,57.93h0V58c-.2,2.67-4.87,4.5-10.44,4.09-5.17-.37-9.29-2.55-9.7-5a2.73,2.73,0,0,1,0-.57s0,0,0-.07h0a24.61,24.61,0,0,1,1.21-5.09h0c1.38-3.93,4.23-8.69,9.93-8.59A7.73,7.73,0,0,1,232,44a8.07,8.07,0,0,1,2.32,2.3C237.33,50.73,236.87,57.93,236.87,57.93Z"/><g class="cls-10"><path class="cls-11" d="M236.87,57.93h0V58c-.2,2.67-4.87,4.5-10.44,4.09-5.17-.37-9.29-2.55-9.7-5,20.27,8.13,17.56-10.84,17.56-10.84C237.33,50.73,236.87,57.93,236.87,57.93Z"/></g><g class="cls-14"><path class="cls-13" d="M232,44s-7.4-1-14.05,7.41c1.38-3.93,4.23-8.69,9.93-8.59A7.73,7.73,0,0,1,232,44Z"/></g><path class="cls-9" d="M256.71,69.09l.2,0Z"/><path class="cls-9" d="M268,68.51s2,1,2.26,2.74a7.79,7.79,0,0,0-.28-2.81Z"/><g class="cls-15"><ellipse class="cls-13" cx="225.17" cy="48.64" rx="2.67" ry="2.11" transform="translate(45.81 193.21) rotate(-51.06)"/></g><circle class="cls-16" cx="211.83" cy="108.52" r="1.38"/><circle class="cls-16" cx="232.05" cy="108.52" r="1.38"/><path class="cls-16" d="M222.06,111.81a6.53,6.53,0,0,1-3.81-1.18.53.53,0,0,1-.08-.74.52.52,0,0,1,.73-.08,5.54,5.54,0,0,0,3.16,1,5.79,5.79,0,0,0,3.22-1,.54.54,0,0,1,.74.1.52.52,0,0,1-.1.73A6.77,6.77,0,0,1,222.06,111.81Z"/><rect class="cls-17" y="0.25" width="300" height="165"/></g></g></svg>