<svg xmlns="http://www.w3.org/2000/svg" xmlns:xlink="http://www.w3.org/1999/xlink" viewBox="0 0 300 165.5"><defs><style>.cls-1{isolation:isolate;}.cls-2{fill:#fce5cd;}.cls-3{fill:#d66c32;}.cls-4{fill:#ffbd66;}.cls-5{opacity:0.28;mix-blend-mode:multiply;}.cls-6{fill:#d16a3d;}.cls-7{opacity:0.74;mix-blend-mode:soft-light;}.cls-8{fill:#fff;}.cls-9{fill:#3f240f;}.cls-10{fill:url(#linear-gradient);}</style><linearGradient id="linear-gradient" x1="150.37" y1="168.62" x2="149.66" y2="2.17" gradientUnits="userSpaceOnUse"><stop offset="0.03" stop-color="#591c16"/><stop offset="0.22" stop-color="#5f241d" stop-opacity="0.96"/><stop offset="0.38" stop-color="#733c33" stop-opacity="0.84"/><stop offset="0.53" stop-color="#936459" stop-opacity="0.64"/><stop offset="0.68" stop-color="#c09d8d" stop-opacity="0.36"/><stop offset="0.82" stop-color="#fae5cf" stop-opacity="0"/></linearGradient></defs><g class="cls-1"><g id="Layer_1" data-name="Layer 1"><rect class="cls-2" y="0.25" width="300" height="165"/><path class="cls-3" d="M273.2,68.69c3.46,7.88-.16,12-.76,20-6.4-6.43-14.94-10.56-20.73-13.26-1.48-.69-3.79,1.72-5.24,1.25-8.38-2.7-15.86-4.69-27.74.52S203.24,89.6,199.44,97.33c-.64,1.31-4.2,1.51-4.69,2.91A67.33,67.33,0,0,0,191,120.43c-6.34-5-12-1-15.43-8.92-11.53-26.29,1-57.2,27.95-69S261.67,42.4,273.2,68.69Z"/><path class="cls-4" d="M234.5,39.81l.22,3.19L236,61.65h0l.74,10.67a3.39,3.39,0,0,1-2.63,3.75,61.55,61.55,0,0,0-26.66,11.69,3.35,3.35,0,0,1-.63.37,3.5,3.5,0,0,1-3.92-1l-6.86-7.26h0L180.53,63.48a4.1,4.1,0,0,1,0-5.85l7-5.82a66.1,66.1,0,0,1,33.63-14.74l9-1.21A4.11,4.11,0,0,1,234.5,39.81Z"/><path class="cls-4" d="M201.09,94.08l-3.43,6.77c-.83,1.64-4.12,3.23-7.12,1.58l-6.22-3.62-12.91-7.52a3,3,0,0,1-1.3-3.33c.34-1.12,1.5-10,5.62-18.24.87-1.74,3.83-3,5.41-1.25L193,82.07l7.69,8.79A2.9,2.9,0,0,1,201.09,94.08Z"/><path class="cls-4" d="M261,52l-.92,4.19-2.21,10h0l-1.58,7.15c-1.1,3.79-4.45,4.9-6.21,4.4l-7.14-2a2.87,2.87,0,0,1-2.11-2.45l-1.31-12.08-1.9-17.49a3.11,3.11,0,0,1,1.78-3.09h0a3.16,3.16,0,0,1,2.8,0c4.68,1.25,10.25,3.75,17.22,8.22A2.84,2.84,0,0,1,261,52Z"/><path class="cls-4" d="M192.91,108c-1.56,4.84-2.51,16.34-2,20.8.1.84-1.57,1.3-2.57.25a89.29,89.29,0,0,1-7-8.25,58.74,58.74,0,0,1-4.77-7.36,48.38,48.38,0,0,1-4.92-14.08c-.25-1.39.88-2.39,2.06-1.83,2,1,5,2.38,8.09,3.8l10.51,4.91A2,2,0,0,1,192.91,108Z"/><path class="cls-4" d="M273.18,68.65c.31.76.6,1.53.88,2.34a60.87,60.87,0,0,1,2.14,8.21h0a92.42,92.42,0,0,1,1.41,11.34c.1,1.47-1.89,2.25-2.43,1.38C272.62,87.84,262.49,80,258.27,79.1c-.44-.09-.58-.85-.44-1.3.6-1.86,2.15-6.73,3.65-11.47h0c.59-1.84,1.17-3.67,1.68-5.29.36-1.17.7-2.24,1-3.12a1.52,1.52,0,0,1,2.78-.29A49.69,49.69,0,0,1,273.18,68.65Z"/><g class="cls-5"><path class="cls-6" d="M236,61.65l.74,10.67a3.39,3.39,0,0,1-2.63,3.75,61.55,61.55,0,0,0-26.66,11.69,3.35,3.35,0,0,1-.63.37,3.5,3.5,0,0,1-3.92-1l-6.86-7.26h0a20.92,20.92,0,0,0,7.76-2.32c3.1-1.92,5.16-7.57,10.69-10,5-2.2,11.62-.92,14.51-1.78A22.94,22.94,0,0,0,236,61.65Z"/></g><g class="cls-5"><path class="cls-6" d="M257.9,66.17h0l-1.58,7.15c-1.1,3.79-4.45,4.9-6.21,4.4l-7.14-2a2.87,2.87,0,0,1-2.11-2.45l-1.31-12.08S247.48,67.9,257.9,66.17Z"/></g><g class="cls-5"><path class="cls-6" d="M201.09,94.08l-3.43,6.77c-.83,1.64-4.12,3.23-7.12,1.58l-6.22-3.62c7.83-6.15,8.64-15.73,8.7-16.74l7.69,8.79A2.9,2.9,0,0,1,201.09,94.08Z"/></g><g class="cls-5"><path class="cls-6" d="M276.2,79.2a92.42,92.42,0,0,1,1.41,11.34c.1,1.47-1.89,2.25-2.43,1.38C272.62,87.84,262.49,80,258.27,79.1c-.44-.09-.58-.85-.44-1.3.6-1.86,2.15-6.73,3.65-11.47h0S269.86,83.67,276.2,79.2Z"/></g><g class="cls-5"><path class="cls-6" d="M192.91,108c-1.56,4.84-2.51,16.34-2,20.8.1.84-1.57,1.3-2.57.25a89.29,89.29,0,0,1-7-8.25c7.22-1.65.91-18.29.46-19.47l10.51,4.91A2,2,0,0,1,192.91,108Z"/></g><g class="cls-7"><path class="cls-8" d="M234.5,39.81l.22,3.19c-15.12-8-54.18,14.63-54.18,14.63l7-5.82a66.1,66.1,0,0,1,33.63-14.74l9-1.21A4.11,4.11,0,0,1,234.5,39.81Z"/></g><g class="cls-7"><path class="cls-8" d="M261,52l-.92,4.19C256,48.94,239.43,40.6,239.43,40.6h0a3.16,3.16,0,0,1,2.8,0c4.62,1.07,10.52,4.06,17.22,8.22A2.84,2.84,0,0,1,261,52Z"/></g><g class="cls-7"><path class="cls-8" d="M273.18,68.65c-3.76-6.35-8.42-8.25-10-7.62.36-1.17.7-2.24,1-3.12a1.52,1.52,0,0,1,2.78-.29A49.69,49.69,0,0,1,273.18,68.65Z"/></g><g class="cls-7"><path class="cls-8" d="M226.09,46.59A1.85,1.85,0,0,1,224,47a4,4,0,0,1-.51,3.75c-1.21,1.34-3.42.67-4.31.4-.22-.07-4.08-1.3-4.21-3.7-.1-1.94,2.32-3.1,2.54-3.21s2.72-1.2,4.75.23A1.64,1.64,0,0,1,223,43c.75-.41,1.78.31,2.25.8C226,44.55,226.55,45.9,226.09,46.59Z"/></g><g class="cls-7"><path class="cls-8" d="M249.7,50.18c-.83.52-1,1.92-.78,2.88.55,2.63,4.16,4.41,5.68,3.35a2.49,2.49,0,0,0,.83-2.16C255.23,51.6,251.31,49.17,249.7,50.18Z"/></g><g class="cls-7"><path class="cls-8" d="M176.07,78.42c.63,1.33,3.08,1.72,4.75.91a2.88,2.88,0,0,0,1.61-1.6,4.12,4.12,0,0,0-2.32-4.67,2.89,2.89,0,0,0-2,0c-1.58.65-1.89,2.74-2,3.73A2.61,2.61,0,0,0,176.07,78.42Z"/></g><g class="cls-5"><path class="cls-6" d="M212,76.94c-5.23,3.1-8.25,3.56-8.17,5.38a2.19,2.19,0,0,0,.89,1.61c1.91,1.29,4.61.17,9-3,2-1.43,5-1.64,5.49-2.8a3.39,3.39,0,0,0-1.62-3.68C216.33,73.84,215.27,75,212,76.94Z"/></g><g class="cls-5"><path class="cls-6" d="M190.41,100.17c.43,1.07,2.31,1.31,3.54,1a3.9,3.9,0,0,0,2.91-2.88c0-.09.3-1.93-.64-2.71-1.21-1-3.59.45-4.79,1.91C191,98.07,190,99.22,190.41,100.17Z"/></g><g class="cls-5"><path class="cls-6" d="M188,108.63c-.75.54.47,4,.47,4h0s1,1.23,1.58,1.1,1.12-2.35.13-3.84C189.53,109,188.39,108.31,188,108.63Z"/></g><g class="cls-5"><path class="cls-6" d="M241.72,70.69c-.45.43,0,2.1.87,2.81a5.06,5.06,0,0,0,2,.73s2.1.27,2.27-.19C247.08,73.29,242.59,69.86,241.72,70.69Z"/></g><g class="cls-5"><path class="cls-6" d="M260.94,76c-.56.22-.82,1.29-.56,2s1.25.93,4,2.44c1.3.72,1.56,1,1.65.87C266.38,81,262.46,75.41,260.94,76Z"/></g><ellipse class="cls-9" cx="201.95" cy="64.72" rx="1.41" ry="1.55" transform="translate(-8.99 86.54) rotate(-23.68)"/><ellipse class="cls-9" cx="220.9" cy="56.42" rx="1.41" ry="1.55" transform="translate(-4.06 93.45) rotate(-23.68)"/><path class="cls-9" d="M210.4,64.33a5.59,5.59,0,0,1-1.5-.19.46.46,0,1,1,.28-.88A5.42,5.42,0,0,0,212.6,63a5.58,5.58,0,0,0,2.6-2.34.47.47,0,0,1,.62-.21A.46.46,0,0,1,216,61,6.44,6.44,0,0,1,213,63.8,6.37,6.37,0,0,1,210.4,64.33Z"/><rect class="cls-10" y="0.25" width="300" height="165"/></g></g></svg>