<svg xmlns="http://www.w3.org/2000/svg" xmlns:xlink="http://www.w3.org/1999/xlink" viewBox="0 0 300 165"><defs><style>.cls-1{isolation:isolate;}.cls-2{fill:#fce5cd;}.cls-3{fill:#474849;}.cls-4{fill:#c1272d;}.cls-5{opacity:0.52;}.cls-12,.cls-15,.cls-17,.cls-5{mix-blend-mode:soft-light;}.cls-6{fill:#fff;}.cls-7{opacity:0.26;}.cls-8{fill:#b3b3b3;}.cls-9{fill:#f28033;}.cls-10{fill:#ffc76c;}.cls-11{fill:#00922b;}.cls-12{opacity:0.75;}.cls-13{fill:#009245;}.cls-14{fill:#167541;}.cls-15{opacity:0.69;}.cls-16{fill:#f96421;}.cls-17{opacity:0.6;}.cls-18{fill:#3f240f;}.cls-19{fill:url(#linear-gradient);}</style><linearGradient id="linear-gradient" x1="150.37" y1="168.37" x2="149.66" y2="1.92" gradientUnits="userSpaceOnUse"><stop offset="0.03" stop-color="#591c16"/><stop offset="0.22" stop-color="#5f241d" stop-opacity="0.96"/><stop offset="0.38" stop-color="#733c33" stop-opacity="0.84"/><stop offset="0.53" stop-color="#936459" stop-opacity="0.64"/><stop offset="0.68" stop-color="#c09d8d" stop-opacity="0.36"/><stop offset="0.82" stop-color="#fae5cf" stop-opacity="0"/></linearGradient></defs><g class="cls-1"><g id="Layer_1" data-name="Layer 1"><rect class="cls-2" x="-0.27" y="-0.15" width="300" height="165"/><path class="cls-3" d="M264.37,38h-115a6.63,6.63,0,0,0-6.63,6.63v75.66a6.63,6.63,0,0,0,6.63,6.63h115a6.63,6.63,0,0,0,6.63-6.63V44.67A6.63,6.63,0,0,0,264.37,38ZM195.59,121.8H154.78a6.07,6.07,0,0,1-6.07-6.07V50.33a6.07,6.07,0,0,1,6.07-6.07h40.81a6.08,6.08,0,0,1,5.83,4.36,6.42,6.42,0,0,1,.24,1.71v65.4a6.06,6.06,0,0,1-6.07,6.07ZM264,117.56a3.71,3.71,0,0,1-3.71,3.71H211.56a3.71,3.71,0,0,1-3.69-3.26,3.4,3.4,0,0,1,0-.45V90.7A3.71,3.71,0,0,1,211.56,87h48.8A3.71,3.71,0,0,1,264,90.7ZM264,78a4.54,4.54,0,0,1-3.66,4.45,4.94,4.94,0,0,1-.87.08H212.37A4.53,4.53,0,0,1,207.84,78V48.26a4.53,4.53,0,0,1,4.53-4.53h47.12A4.53,4.53,0,0,1,264,48.26Z"/><path class="cls-3" d="M201.42,48.13a6.36,6.36,0,0,1,.24,1.71v65.4a6.06,6.06,0,0,1-6.07,6.07H154.78a6.07,6.07,0,0,1-6.07-6.07V49.84a6.08,6.08,0,0,1,6.07-6.08h40.81A6.09,6.09,0,0,1,201.42,48.13Z"/><path class="cls-3" d="M264,47.77V77.48a4.55,4.55,0,0,1-3.66,4.45,4.94,4.94,0,0,1-.87.08H212.37a4.53,4.53,0,0,1-4.53-4.53V47.77a4.53,4.53,0,0,1,4.53-4.53h47.12A4.53,4.53,0,0,1,264,47.77Z"/><path class="cls-3" d="M264,90.2v26.87a3.71,3.71,0,0,1-3.71,3.71H211.56a3.71,3.71,0,0,1-3.69-3.26,3.4,3.4,0,0,1,0-.45V90.2a3.71,3.71,0,0,1,3.72-3.71h48.8A3.71,3.71,0,0,1,264,90.2Z"/><path class="cls-4" d="M201.66,50.24v66.23a6.29,6.29,0,0,1-.44,2.31,6.09,6.09,0,0,1-5.63,3.84H154.78a6.12,6.12,0,0,1-6.07-6.15V50.24a6.11,6.11,0,0,1,6.07-6.15h40.81a6.1,6.1,0,0,1,5.83,4.42A6.57,6.57,0,0,1,201.66,50.24Z"/><path class="cls-4" d="M264,78.73a4.89,4.89,0,0,1,0,.54c0,.22,0,.44,0,.67v37.49c0,2.87-1.74,5.19-3.9,5.19H209c-2,0-3.64-2-3.87-4.55,0-.21,0-.42,0-.64V79.94c0-.23,0-.45,0-.67a4.89,4.89,0,0,1,0-.54V48.64a4.68,4.68,0,0,1,4.76-4.59h49.45A4.68,4.68,0,0,1,264,48.64Z"/><g class="cls-5"><path class="cls-6" d="M201.41,48.13a6,6,0,0,1,.25,1.71v65.4a5.77,5.77,0,0,1-.46,2.28H157.31a5.27,5.27,0,0,1-5.35-5.19v-59a5.27,5.27,0,0,1,5.35-5.19Z"/></g><g class="cls-5"><path class="cls-6" d="M205.3,47.8a5.16,5.16,0,0,0-.29,1.71v65.4a5.19,5.19,0,0,0,.52,2.28H255c3.33,0,6-2.32,6-5.18V53c0-2.86-2.69-5.19-6-5.19Z"/></g><path class="cls-6" d="M196,72.32V91.86a19.54,19.54,0,0,1-2.53,9.64h0a19.63,19.63,0,0,1-36.72-9.64V72.32a19.63,19.63,0,0,1,39.25,0Z"/><g class="cls-7"><path class="cls-8" d="M193.43,101.5a19.63,19.63,0,0,1-36.72-9.64v-3.8s3.11,12.94,11.62,16,11.48,3.52,15.65,2.42S193.26,101.62,193.43,101.5Z"/></g><path class="cls-9" d="M165.57,109.81h0a3.2,3.2,0,0,0-2.76.76h0a3.12,3.12,0,0,1-5.2-1.79h0a3,3,0,0,0-1.61-2.26h0a2.86,2.86,0,0,1,.18-5.25h0A2.94,2.94,0,0,0,158,99.13h0a3.14,3.14,0,0,1,5.32-1.46h0a3.18,3.18,0,0,0,2.7.93h0a3,3,0,0,1,3.1,4.35h0a2.8,2.8,0,0,0-.1,2.72h0A3,3,0,0,1,165.57,109.81Z"/><ellipse class="cls-10" cx="162.38" cy="104.22" rx="4.32" ry="4.1"/><path class="cls-9" d="M171.14,113.74h0a3.2,3.2,0,0,0-2.76.76h0a3.13,3.13,0,0,1-5.21-1.79h0a2.93,2.93,0,0,0-1.6-2.26h0a2.86,2.86,0,0,1,.18-5.25h0a2.94,2.94,0,0,0,1.77-2.14h0a3.14,3.14,0,0,1,5.32-1.46h0a3.18,3.18,0,0,0,2.7.93h0a3,3,0,0,1,3.1,4.35h0a2.78,2.78,0,0,0-.1,2.72h0A3,3,0,0,1,171.14,113.74Z"/><ellipse class="cls-10" cx="167.94" cy="108.15" rx="4.32" ry="4.1"/><path class="cls-9" d="M188.28,69h0a2.45,2.45,0,0,0-2.1.57h0a2.38,2.38,0,0,1-4-1.36h0A2.26,2.26,0,0,0,181,66.52h0a2.18,2.18,0,0,1,.14-4h0a2.28,2.28,0,0,0,1.35-1.64h0a2.39,2.39,0,0,1,4.05-1.11h0a2.39,2.39,0,0,0,2.05.71h0a2.25,2.25,0,0,1,2.36,3.31h0a2.14,2.14,0,0,0-.07,2.08h0A2.26,2.26,0,0,1,188.28,69Z"/><ellipse class="cls-10" cx="185.85" cy="64.77" rx="3.29" ry="3.12"/><ellipse class="cls-3" cx="175.51" cy="79.63" rx="0.46" ry="0.9"/><ellipse class="cls-3" cx="169.28" cy="81.76" rx="0.46" ry="0.9"/><ellipse class="cls-3" cx="173.7" cy="85.86" rx="0.46" ry="0.9"/><ellipse class="cls-3" cx="172.23" cy="87.82" rx="0.9" ry="0.46" transform="translate(-3.57 7.38) rotate(-2.43)"/><ellipse class="cls-3" cx="177.96" cy="82.91" rx="0.9" ry="0.46" transform="translate(-3.35 7.61) rotate(-2.43)"/><ellipse class="cls-3" cx="183.04" cy="79.63" rx="0.9" ry="0.46" transform="translate(-3.21 7.83) rotate(-2.43)"/><ellipse class="cls-3" cx="176.82" cy="74.72" rx="0.9" ry="0.46" transform="translate(-3.01 7.56) rotate(-2.43)"/><ellipse class="cls-3" cx="178.29" cy="79.63" rx="0.9" ry="0.46" transform="translate(15.24 187.07) rotate(-57.45)"/><ellipse class="cls-3" cx="177.31" cy="75.54" rx="0.9" ry="0.46" transform="translate(18.23 184.35) rotate(-57.45)"/><ellipse class="cls-3" cx="183.37" cy="86.35" rx="0.9" ry="0.46" transform="translate(11.92 194.45) rotate(-57.45)"/><ellipse class="cls-3" cx="169.61" cy="80.78" rx="0.9" ry="0.46" transform="translate(10.26 180.28) rotate(-57.45)"/><ellipse class="cls-3" cx="183.04" cy="83.4" rx="0.46" ry="0.9" transform="translate(-17.18 102.69) rotate(-30)"/><ellipse class="cls-3" cx="184.51" cy="78.65" rx="0.46" ry="0.9" transform="matrix(0.87, -0.5, 0.5, 0.87, -14.61, 102.79)"/><ellipse class="cls-3" cx="169.28" cy="72.59" rx="0.46" ry="0.9" transform="translate(-13.62 94.37) rotate(-30)"/><path class="cls-11" d="M212.38,83.48c-1-.15-3.48-.55-4.75-2.45s0-3.48.49-10.65c.21-3.25,0-4.28.66-6.55.52-1.83.92-2.11,1.64-4.58.93-3.2.54-3.69,1.31-5.08s1.48-1.38,4.58-3.76c4.06-3.13,4.8-4.74,6.88-4.75,1.26,0,1.49,1.08,3.27,1.31a7.69,7.69,0,0,0,3.28-.49c.52-.15,4.41-1.23,7-.82a8.75,8.75,0,0,1,5.57,3.76C247.36,57.68,224.82,85.45,212.38,83.48Z"/><path class="cls-11" d="M245.62,83.58c.54.59,1.93,2.13,3.47,2.31s1.67-1.23,4.94-4c1.48-1.27,2.08-1.51,2.87-2.72.64-1,.59-1.35,1.45-2.69,1.11-1.74,1.53-1.65,1.84-2.65s0-1.47-.36-4.37c-.43-3.8,0-4.86-1-6.25-.6-.84-1.23-.61-2.2-1.73a8.29,8.29,0,0,1-1.33-2.36,22.76,22.76,0,0,0-3-5c-1.52-1.7-5.16-.53-6.07-.59C239.86,53.05,238.71,76,245.62,83.58Z"/><path class="cls-11" d="M211.59,97.5c-.79.13-2.84.45-3.84,1.63s.13,2.08.68,6.35c.25,1.94.12,2.56.7,3.89.47,1.07.81,1.23,1.46,2.68.85,1.88.54,2.18,1.21,3s1.25.77,3.85,2.09c3.41,1.73,4.06,2.67,5.77,2.6,1,0,1.19-.7,2.65-.9a8.32,8.32,0,0,1,2.7.18,22.7,22.7,0,0,0,5.8.25c2.26-.35,3.27-4,3.82-4.76C240.29,109.39,221.75,95.89,211.59,97.5Z"/><ellipse class="cls-3" cx="172.23" cy="85.86" rx="0.46" ry="0.9" transform="translate(-19.85 97.62) rotate(-30)"/><path class="cls-10" d="M256.26,74.27h0a26.61,26.61,0,0,1-1.32,4.27c-4.21,10.13-15.58,13.27-16.59,13.53-5.81,1.5-7.39-.5-14.21,1.86-2.9,1-5.18,2.25-8.63,2a14.08,14.08,0,0,1-4.8-1.21,4.25,4.25,0,0,1-2.46-3.37c-.14-1.16-.25-2.29-.31-3.38a51.55,51.55,0,0,1,1-13.69c1-4.92,2.13-10.28,6.43-15.56a25.79,25.79,0,0,1,12.18-8.63c8.09-2.59,18.77-1.22,21.33,3.72.64,1.25.76,2.71,2.36,5.24a27.48,27.48,0,0,0,3.73,4.4C257.22,66.24,257.07,70.63,256.26,74.27Z"/><g class="cls-12"><path d="M256.26,74.27h0a26.61,26.61,0,0,1-1.32,4.27c-4.21,10.13-15.58,13.27-16.59,13.53-5.81,1.5-7.39-.5-14.21,1.86-2.9,1-5.18,2.25-8.63,2a14.08,14.08,0,0,1-4.8-1.21,4.25,4.25,0,0,1-2.46-3.37c-.14-1.16-.25-2.29-.31-3.38,0,0,15,3.58,22.53,1.83S256.26,74.27,256.26,74.27Z"/></g><path class="cls-9" d="M220.38,94a.76.76,0,0,1-.62-.33,50.09,50.09,0,0,1-5.34-10.33c-1.34-3.55-3-8.51-2-10.64a1.89,1.89,0,0,1,1.06-1c1-.37,1.88.17,2.9,1.1s2.53,2.58,5,5.27c1.09,1.2,2.33,2.57,3.81,4.18a34.49,34.49,0,0,0,3.34,3c2.51,2,3.3,1.87,3.4,1.85.14-.41-.48-2.1-1.09-3.74a90.09,90.09,0,0,1-4.46-15.72,39.22,39.22,0,0,1-.79-9c.15-2.6.7-4,1.71-4.19s1.72,1,2.08,1.66c.55,1,1.25,2.5,2.2,4.61,1.5,3.28,3.55,7.79,6.71,14A77.78,77.78,0,0,0,243,83.1c1,1.47,1.47,1.69,1.56,1.72s.73-.61.86-4.13A55.87,55.87,0,0,0,245.1,73,64.4,64.4,0,0,0,240.51,56c-1.14-2.88-1.61-4.08-.69-4.65s1.68.17,2.91,1.38a82,82,0,0,1,6,7,.73.73,0,0,1-.13,1,.72.72,0,0,1-1-.13c-3.81-4.88-5.65-6.79-6.53-7.54.21.62.55,1.49.88,2.33a65.93,65.93,0,0,1,4.68,17.32,57.28,57.28,0,0,1,.37,7.92c-.13,3.49-.74,5.19-2,5.51-.83.21-1.62-.29-2.71-1.73a68.72,68.72,0,0,1-5.33-9.18c-3.17-6.19-5.23-10.71-6.74-14A35.56,35.56,0,0,0,227.51,56c-.49.85-1,4.68.26,11.31a88.83,88.83,0,0,0,4.39,15.48c1.15,3.08,1.72,4.63.58,5.44-1,.7-2.55.15-5.07-1.8a36.7,36.7,0,0,1-3.62-3.21c-1.49-1.62-2.73-3-3.82-4.19-3.87-4.27-5.63-6.21-6.27-6a.41.41,0,0,0-.23.25c-.31.68-.45,2.82,2.07,9.51a48.44,48.44,0,0,0,5.19,10,.75.75,0,0,1-.2,1A.71.71,0,0,1,220.38,94Z"/><path class="cls-13" d="M241.28,96.71c-.58,2.07,2,3.76,3.11,4.44,1,.58,1.6,2.78,1.78,3.46l.05.19s-2.56,6.09-1.9,6.62,5.29,2.16,6,1.74,2.6-5,2.87-5.64l0-.07a7.5,7.5,0,0,0,2.62-.49c1.72-1,5.94,1.83,6.91.47,1.48-2.06-.64-3.78-1.25-4.72s.49-2.84.29-3.77a9.38,9.38,0,0,0-4.94-5.53c-1.42-.4-4.32,1.9-7.4,0C247.89,92.4,242.12,93.74,241.28,96.71Z"/><path class="cls-14" d="M244.32,111.42c.66.53,5.29,2.16,6,1.74s2.6-5,2.87-5.64l-7.06-2.91.05.19S243.66,110.89,244.32,111.42Z"/><path class="cls-14" d="M253.23,107.52s3-5.62,4.8-5.56-2.12-1.1-3.16-.14-2.24,3.29-2.69,3.49-4.07-5.27-2.68-7.45-2.45.74-2.2,1.57a13.76,13.76,0,0,1,.84,2.89c-.07.51-1.95-1.6-1.95-1.6s1.24,2.25,0,4.08"/><g class="cls-15"><ellipse class="cls-6" cx="257.3" cy="95.06" rx="0.75" ry="1.49" transform="translate(55.56 280.91) rotate(-62.93)"/></g><g class="cls-15"><ellipse class="cls-6" cx="250.45" cy="99.45" rx="0.75" ry="1.13" transform="translate(-19.01 102.17) rotate(-22.24)"/></g><path class="cls-13" d="M259.5,105.88c.5,1.78-2.09,3.35-3.24,4-1,.55-1.68,2.49-1.88,3.08l-.06.18s2.31,5.22,1.64,5.71-5.31,2.08-6,1.73-2.4-4.26-2.64-4.81l0-.07a7.92,7.92,0,0,1-2.58-.33c-1.67-.82-5.94,1.82-6.85.66-1.39-1.74.77-3.32,1.41-4.17s-.39-2.46-.16-3.28c.55-1.95,3.46-4.54,5.09-5,1.42-.41,4.21,1.49,7.33-.29C253.12,102.35,258.78,103.32,259.5,105.88Z"/><path class="cls-14" d="M256,119c-.69.43-5.34,2-6,1.73s-2.13-3.35-2.34-3.79l7.13-2.66-.06.14S256.68,118.51,256,119Z"/><path class="cls-14" d="M247.67,117.11s-2.92-5.38-4.72-5.3,2.12-1.08,3.15-.17,2.2,3.14,2.65,3.33,4.1-5.12,2.74-7.2,2.44.68,2.18,1.49a13.26,13.26,0,0,0-.87,2.79c.06.49,2-1.56,2-1.56s-1.27,2.18-.08,3.93"/><g class="cls-15"><ellipse class="cls-6" cx="243.76" cy="105.21" rx="1.49" ry="0.75" transform="translate(-21.17 122.46) rotate(-27.07)"/></g><g class="cls-15"><ellipse class="cls-6" cx="250.61" cy="109.61" rx="1.13" ry="0.75" transform="translate(54.32 300.1) rotate(-67.76)"/></g><path class="cls-16" d="M242.79,106.7c-1.35,1.83-3.69.63-5.43-.31l-.6-.32c-.91-.48-1.55-.73-1.63-.13a1.43,1.43,0,0,0,0,.29,1.68,1.68,0,0,0,.16.44,4.44,4.44,0,0,0,.7,1c.23.26.48.52.72.77,1,1.08,1.82,2-.19,2.38-.92.17-1.68-.53-2.31-1.48l-.07-.11a14.82,14.82,0,0,1-1-1.89,1.47,1.47,0,0,1-.1-.22l-.2-.45a1.46,1.46,0,0,0-2.11-.66,1.54,1.54,0,0,0-.41.36c-.07.1-.15.19-.22.3-1.15,1.48-2.82,3.51-4.32,2.86-3.92-1.69,2.46-2.6,2.67-4.36s-6.51,3.21-7.64-.93c-1-3.75,3.51,1.28,5.85-2a8,8,0,0,0,1-1.79,10.14,10.14,0,0,0,.63-2.54c.19-1.53.06-2.82.17-3.44.26-1.45,1.3-4.62,5.12-4.16A4.46,4.46,0,0,1,237.77,95c0,1.18-1.55,4.6-.36,8.43S245.36,103.21,242.79,106.7Z"/><g class="cls-17"><path d="M236,107.64c.23.26.48.52.72.77a3.1,3.1,0,0,1-2.5.9,5,5,0,0,1-.67,0c-1.5-.1-3-.5-3.59-.3a.34.34,0,0,0-.24.46c.41,1.73,6.09,2.27,3,4.08a1.68,1.68,0,0,1-1.37.11c-1.24-.38-2.56-1.77-3.5-2.75a1.47,1.47,0,0,0-2.47.58c-.56,1.8-1.44,4.63-3.19,4.53l-.61-.07c-3.05-.51,2-3.31,1.63-5-.11-.47-.53-.3-1.13.13-1.3.92-3.44,3-5.17,2.54a2.24,2.24,0,0,1-1.2-.91c-2.25-3.18,3.74,0,4.8-3.93,1-3.65-.8-6.73-1-7.89-.25-1.46-.36-4.8,3.38-5.67a6.26,6.26,0,0,1,.81-.14,4.57,4.57,0,0,1,3.64,3.2,12.51,12.51,0,0,1,.33,2.08,10.14,10.14,0,0,0,.63-2.54c.08.17.14.32.19.46.39,1.06.15,4.56,2.29,7.67l.26.37a2.29,2.29,0,0,0,1.39.91,2.42,2.42,0,0,0,.76,0,6.7,6.7,0,0,0,2.14-.64l.89-.4a2.48,2.48,0,0,1-.16,1.26Z"/></g><g class="cls-12"><path d="M237.36,106.39l-.6-.32C237.1,106,237.31,106.06,237.36,106.39Z"/></g><path class="cls-16" d="M236,107.53l0,.11a2.3,2.3,0,0,1-1.85,1.56,3.11,3.11,0,0,1-.6.09A18.29,18.29,0,0,1,230,109c-.91-.11-1.51-.09-1.38.46.4,1.73,6.08,2.27,3,4.08l-.22.11c-1.49.56-3.41-1.45-4.65-2.75a1.56,1.56,0,0,0-.48-.34,1.49,1.49,0,0,0-2,.92c-.5,1.6-1.25,4-2.65,4.46a1.51,1.51,0,0,1-.53.07c-4.16-.25,1.15-3.14,1-4.89a.51.51,0,0,0,0-.13c-.3-1.27-2.84,2.12-5.15,2.67a2,2,0,0,1-2.34-.91c-2.26-3.18,3.73,0,4.8-3.93,1-3.65-.81-6.73-1-7.89-.26-1.46-.37-4.8,3.38-5.67a5.39,5.39,0,0,1,1.95-.14,4.57,4.57,0,0,1,3.64,3.2,12.51,12.51,0,0,1,.33,2.08,12.33,12.33,0,0,0,2.23,6,3.47,3.47,0,0,0,.25.29,2.4,2.4,0,0,0,2.28.62,4,4,0,0,0,.66-.17,22.48,22.48,0,0,0,2.08-.86c.54-.22.93-.29,1.05,0A2.48,2.48,0,0,1,236,107.53Z"/><circle class="cls-18" cx="177.42" cy="95.66" r="1.07"/><circle class="cls-18" cx="189.93" cy="95.66" r="1.07"/><path class="cls-18" d="M183.24,98.29a5.09,5.09,0,0,1-3-.93.49.49,0,0,1,.62-.77,4.1,4.1,0,0,0,2.38.72,4.4,4.4,0,0,0,2.45-.73.49.49,0,0,1,.59.79A5.44,5.44,0,0,1,183.24,98.29Z"/><g class="cls-15"><ellipse class="cls-6" cx="235" cy="92.55" rx="0.75" ry="1.49" transform="translate(45.65 259.68) rotate(-62.93)"/></g><g class="cls-15"><ellipse class="cls-6" cx="224.52" cy="97.29" rx="0.75" ry="1.49" transform="translate(35.71 252.94) rotate(-62.93)"/></g><rect class="cls-19" width="300" height="165"/></g></g></svg>