<svg xmlns="http://www.w3.org/2000/svg" xmlns:xlink="http://www.w3.org/1999/xlink" viewBox="0 0 300 165.5"><defs><style>.cls-1{isolation:isolate;}.cls-2{fill:#fce5cd;}.cls-3{fill:#f9dca0;}.cls-4{opacity:0.81;}.cls-10,.cls-12,.cls-4,.cls-7{mix-blend-mode:soft-light;}.cls-5{fill:#bc5c46;}.cls-6{fill:#e5884a;}.cls-7{opacity:0.48;}.cls-8{fill:#a2b366;}.cls-9{fill:#db4d4d;}.cls-10{opacity:0.52;}.cls-11{fill:#fff;}.cls-12{opacity:0.58;}.cls-13{fill:#3f240f;}.cls-14{fill:url(#linear-gradient);}</style><linearGradient id="linear-gradient" x1="150.37" y1="168.62" x2="149.66" y2="2.17" gradientUnits="userSpaceOnUse"><stop offset="0.03" stop-color="#591c16"/><stop offset="0.22" stop-color="#5f241d" stop-opacity="0.96"/><stop offset="0.38" stop-color="#733c33" stop-opacity="0.84"/><stop offset="0.53" stop-color="#936459" stop-opacity="0.64"/><stop offset="0.68" stop-color="#c09d8d" stop-opacity="0.36"/><stop offset="0.82" stop-color="#fae5cf" stop-opacity="0"/></linearGradient></defs><g class="cls-1"><g id="Layer_1" data-name="Layer 1"><rect class="cls-2" y="0.25" width="300" height="165"/><path class="cls-3" d="M270.59,93.25v35.38a2.45,2.45,0,0,1-2.84,2.42l-98.11-15.8a2.45,2.45,0,0,1-2.06-2.42c0-1.58,0-4,0-6.8v-.81c0-3.34,0-7.25,0-11.26V77.25c0-2.11,0-4,0-5.49a2.44,2.44,0,0,1,3-2.38l34.16,7.47,61.17,13.39h0l2.79.61A2.44,2.44,0,0,1,270.59,93.25Z"/><g class="cls-4"><path d="M270.59,121.63v7a2.45,2.45,0,0,1-2.84,2.42l-98.11-15.8a2.45,2.45,0,0,1-2.06-2.42c0-1.58,0-4,0-6.8v-.81l1.72,1.06s-1.15,5.35,0,6.24,94,16.26,95.5,16.09,4.54-1.59,4.74-4.38S270.59,121.63,270.59,121.63Z"/></g><path class="cls-5" d="M270.59,110.62v11l-103-15.6c0-3.51,0-7.73,0-12.07l2.63.43,99.56,16.1Z"/><path class="cls-6" d="M167.55,73.26v-7a2.47,2.47,0,0,1,.95-1.94c5.62-4.39,34.75-27,44.57-29.81a3.23,3.23,0,0,1,2.88.54c8.76,6.8,47.48,42.8,53.76,48.65a2.68,2.68,0,0,1,.86,2v5.14Z"/><g class="cls-7"><path d="M270.59,94v9.5a12.06,12.06,0,0,1-7.85.21c-5.68-1.83-6.22-7.28-10.58-7.22-3.32,0-5.11,3.25-7.67,2-1.7-.85-1.58-2.59-3.25-3.12-2.61-.82-5.57,2.65-6,3.12-2.73,3.29-1.94,6-3.92,7-2.3,1.13-6.13-1.23-6.49-3.7-.27-1.91,1.63-3.19,1-4.88a2.85,2.85,0,0,0-2.56-1.75c-2,0-2.5,2.66-4.1,2.53S216.4,94.53,216,93a24,24,0,0,1-.34-3.31c-.67-3.5-4.85-6.57-8.7-6.63-4.06-.07-7.45,3.21-8.36,4.09A24.46,24.46,0,0,1,196,89.46,12.13,12.13,0,0,1,191.59,92c-1.4.27-2.62-.25-10.58-6.44-2.87-2.23-3.5-2.77-4.78-2.92-2.75-.32-3.7,1.74-6.48,1.36a6.38,6.38,0,0,1-2.19-.74v-6c5-1.48,19.94-1.7,37.14-.4,22.33,1.7,48.41,6,61.17,13.39h0a24.34,24.34,0,0,1,3.87,2.7A5.07,5.07,0,0,1,270.59,94Z"/></g><path class="cls-8" d="M166.34,76.74c-.39.24-1.46.91-1.54,2-.13,1.69,2.36,3.94,4.95,4.29,2.78.38,3.73-1.69,6.48-1.37,1.28.15,1.91.7,4.78,2.93,8,6.19,9.18,6.71,10.58,6.43A12.1,12.1,0,0,0,196,88.44a25.62,25.62,0,0,0,2.56-2.34c.91-.88,4.3-4.16,8.36-4.1,3.85.06,8,3.13,8.7,6.63A24,24,0,0,0,216,92c.41,1.56,1.59,4.55,3.24,4.68s2.12-2.53,4.1-2.54a2.86,2.86,0,0,1,2.56,1.76c.6,1.69-1.3,3-1,4.87.36,2.47,4.19,4.84,6.49,3.71,2-1,1.19-3.74,3.92-7,.4-.48,3.35-3.94,6-3.12,1.67.52,1.55,2.26,3.25,3.12,2.56,1.29,4.35-1.9,7.67-2,4.36-.06,4.9,5.38,10.58,7.21,4.5,1.45,9.86-.12,10.41-2.53.46-2-2.18-7.16-3.41-8.22C251.15,75.89,173.45,72.27,166.34,76.74Z"/><ellipse class="cls-9" cx="206.8" cy="83.03" rx="9.87" ry="17.92" transform="translate(96.01 276.38) rotate(-82.06)"/><g class="cls-10"><ellipse class="cls-11" cx="195.69" cy="85.12" rx="2.2" ry="3.99" transform="translate(30.93 220.75) rotate(-62.97)"/></g><g class="cls-10"><ellipse class="cls-11" cx="181.81" cy="104.44" rx="2.2" ry="6.68" transform="matrix(0.14, -0.99, 0.99, 0.14, 53.27, 270.08)"/></g><g class="cls-10"><ellipse class="cls-11" cx="241.19" cy="110.24" rx="2.2" ry="6.68" transform="translate(98.71 333.9) rotate(-82.06)"/></g><g class="cls-10"><ellipse class="cls-11" cx="249.73" cy="113.79" rx="1.57" ry="3.16" transform="translate(102.55 345.41) rotate(-82.06)"/></g><g class="cls-10"><ellipse class="cls-11" cx="199.76" cy="85.19" rx="1.11" ry="2.01" transform="translate(33.08 224.4) rotate(-62.97)"/></g><ellipse class="cls-9" cx="252.02" cy="88.68" rx="7.51" ry="14.58" transform="translate(129.39 326.04) rotate(-82.06)"/><path class="cls-9" d="M198.21,75.34c-.74,4.1-8.85,6.46-15.48,5.42-8-1.25-14-5.34-13.41-9.45s7.51-6.53,15.48-5.42S199,71.26,198.21,75.34Z"/><g class="cls-10"><ellipse cx="261.17" cy="93.05" rx="3.5" ry="1.62" transform="translate(-16.06 89.4) rotate(-18.86)"/></g><g class="cls-10"><ellipse cx="213.4" cy="90.66" rx="3.5" ry="1.62" transform="translate(-17.85 73.83) rotate(-18.86)"/></g><path class="cls-3" d="M270.59,87.47V92a1.1,1.1,0,0,1-1.28,1.08l-25.54-4.36L168.44,75.87a1.1,1.1,0,0,1-.91-1.08V68.57a1.1,1.1,0,0,1,.43-.87l.12-.09.19-.15,0,0,.13-.1.06,0,.15-.11,0,0,.16-.12c.26-.21.57-.44.91-.7l.23-.18.5-.38.26-.19,1.94-1.47.16-.13.18-.13.5-.38,1.13-.84.69-.52,1.09-.81.37-.27,2.48-1.83.68-.5.66-.49.46-.33,1.42-1,1.76-1.27,2.08-1.48.49-.35c2.33-1.65,4.72-3.31,7.08-4.9l.92-.62.54-.36.84-.55.91-.6.72-.47.48-.31.49-.31,1-.64.87-.54,0,0,.47-.29c1.12-.69,2.2-1.35,3.24-2l1.18-.67,1.24-.68.4-.21,1.14-.59.3-.15.49-.23.64-.3h0l.61-.27.09,0,.28-.11.31-.13.31-.11.29-.11.25-.08.06,0,.19-.06.32-.1.2,0,.53-.12.21,0,.26,0a1.17,1.17,0,0,1,.68.19c.38.27.89.65,1.5,1.13l.29.23,1.33,1.07.49.4.38.31h0c4.14,3.41,10.5,8.87,17.37,14.85,3.26,2.83,6.63,5.79,9.93,8.69l1.13,1c1.22,1.06,2.41,2.12,3.59,3.16l.68.59,8.18,7.23.54.48.92.8.44.39,7.94,7.05.2.17,1,.86A1.1,1.1,0,0,1,270.59,87.47Z"/><g class="cls-10"><ellipse class="cls-11" cx="227.86" cy="99.55" rx="2.21" ry="1.28" transform="translate(75.19 295.83) rotate(-75.72)"/></g><g class="cls-10"><ellipse class="cls-11" cx="241.85" cy="90.68" rx="1.28" ry="2.21" transform="translate(-3.69 170.83) rotate(-38.63)"/></g><g class="cls-10"><ellipse cx="191.13" cy="65.61" rx="1.62" ry="4.83" transform="translate(84.92 237.52) rotate(-77.24)"/></g><g class="cls-10"><ellipse cx="175.32" cy="91.64" rx="1.62" ry="5.92" transform="translate(68.6 258.21) rotate(-84.95)"/></g><g class="cls-10"><ellipse cx="259.28" cy="124.23" rx="1.62" ry="5.92" transform="matrix(0.09, -1, 1, 0.09, 112.7, 371.56)"/></g><g class="cls-10"><ellipse cx="235.73" cy="121.67" rx="1.62" ry="5.92" transform="translate(93.77 345.77) rotate(-84.95)"/></g><g class="cls-10"><ellipse cx="227.22" cy="118.3" rx="1.62" ry="3.5" transform="translate(89.37 334.22) rotate(-84.95)"/></g><g class="cls-10"><ellipse cx="180.51" cy="89" rx="1.62" ry="3.07" transform="translate(75.96 260.97) rotate(-84.95)"/></g><g class="cls-10"><ellipse cx="214.45" cy="62.27" rx="1.62" ry="2.85" transform="translate(106.34 257.66) rotate(-77.24)"/></g><g class="cls-10"><ellipse cx="249.77" cy="76.6" rx="1.62" ry="2.85" transform="translate(119.88 303.28) rotate(-77.24)"/></g><g class="cls-10"><ellipse cx="222.73" cy="61.81" rx="1.62" ry="6.96" transform="translate(82.46 245.53) rotate(-68.15)"/></g><g class="cls-10"><path d="M270.59,87v5a1.1,1.1,0,0,1-1.28,1.08l-25.54-4.36L168.44,75.87a1.1,1.1,0,0,1-.91-1.08V68l.43-.33.12-.09.19-.15,0,0,.13-.1.06,0,.15-.11,0,0,.16-.12c.26-.21.57-.44.91-.7l.23-.18.5-.38.26-.19,1.94-1.47.16-.13.18-.13.5-.38,1.13-.84.69-.52,1.09-.81.37-.27,2.48-1.83.68-.5.66-.49.46-.33,1.42-1,1.76-1.27,2.08-1.48.49-.35c2.33-1.65,4.72-3.31,7.08-4.9l.92-.62.54-.36.84-.55.91-.6.72-.47.48-.31.49-.31,1-.64.87-.54,0,0,.47-.29c1.12-.69,2.2-1.35,3.24-2l1.18-.67,1.24-.68.4-.21,1.14-.59.3-.15.49-.23.64-.3h0l.61-.27.09,0,.28-.11.31-.13.31-.11.29-.11.25-.08.06,0,.19-.06.32-.1.2,0,.53-.12.21,0,.26,0,.37,0,.31.21c.38.27.89.65,1.5,1.13l.29.23,1.33,1.07.49.4.38.31c-.15,0-5-1.32-8.87,1.7S175,65.65,175.38,66.67s2.08,3.14,17.42,6l.19,0L244.6,82.2s14.9,2.9,16.27,0c.87-1.86-23-24.05-25.12-25.93h0c3.26,2.83,6.63,5.79,9.93,8.69l1.13,1c1.22,1.06,2.41,2.12,3.59,3.16l.68.59,8.18,7.23.54.48.92.8.44.39,7.94,7.05.2.17,1,.86Z"/></g><g class="cls-12"><path d="M270.59,110.72v10.91l-103-15.6c0-3.51,0-7.73,0-12.07l2.63.43s-1.09,6.7,0,8.43.75,2.58,3,2.92,90.78,13.82,92.31,13.65,3.08-.85,3.42-2.56.86-6.34.86-6.34Z"/></g><circle class="cls-13" cx="203.81" cy="65.05" r="2.05"/><circle class="cls-13" cx="233.6" cy="69.2" r="2.05"/><path class="cls-13" d="M219.63,71.83a9.68,9.68,0,0,1-1.39-.1A9.25,9.25,0,0,1,213,69.29a.52.52,0,0,1,0-.72.51.51,0,0,1,.72,0h0a8.47,8.47,0,0,0,4.61,2.14,8.94,8.94,0,0,0,5.12-.79.51.51,0,0,1,.69.2.52.52,0,0,1-.19.7A9.78,9.78,0,0,1,219.63,71.83Z"/><rect class="cls-14" y="0.25" width="300" height="165"/></g></g></svg>