<svg xmlns="http://www.w3.org/2000/svg" xmlns:xlink="http://www.w3.org/1999/xlink" viewBox="0 0 300 165.5"><defs><style>.cls-1{isolation:isolate;}.cls-2{fill:#fce5cd;}.cls-3{fill:#edc094;}.cls-4{fill:#aa155f;}.cls-5{fill:#ffd085;}.cls-6,.cls-8{opacity:0.52;}.cls-6{mix-blend-mode:hard-light;}.cls-7{fill:#aa5a2e;}.cls-14,.cls-8,.cls-9{mix-blend-mode:soft-light;}.cls-9{opacity:0.49;}.cls-10{fill:#fff;}.cls-11{fill:#ffc81a;}.cls-12{fill:#dd7c12;}.cls-13{opacity:0.47;}.cls-13,.cls-15{mix-blend-mode:overlay;}.cls-14{opacity:0.74;}.cls-16{fill:#5e5046;}.cls-17{fill:url(#linear-gradient);}</style><linearGradient id="linear-gradient" x1="150.37" y1="168.62" x2="149.66" y2="2.17" gradientUnits="userSpaceOnUse"><stop offset="0.03" stop-color="#591c16"/><stop offset="0.22" stop-color="#5f241d" stop-opacity="0.96"/><stop offset="0.38" stop-color="#733c33" stop-opacity="0.84"/><stop offset="0.53" stop-color="#936459" stop-opacity="0.64"/><stop offset="0.68" stop-color="#c09d8d" stop-opacity="0.36"/><stop offset="0.82" stop-color="#fae5cf" stop-opacity="0"/></linearGradient></defs><g class="cls-1"><g id="Layer_1" data-name="Layer 1"><rect class="cls-2" y="0.25" width="300" height="165"/><ellipse class="cls-3" cx="210.52" cy="93.45" rx="67.86" ry="5.14"/><path class="cls-4" d="M143.88,95.06a3.46,3.46,0,0,1-1.18-.33,2.93,2.93,0,0,1-.56-.33,2.6,2.6,0,0,1-.28-.23,1.43,1.43,0,0,1-.28-.38,1,1,0,0,1-.06-.77,1.35,1.35,0,0,1,.28-.48,2.5,2.5,0,0,1,.61-.46,7,7,0,0,1,1.15-.5,21.1,21.1,0,0,1,2.23-.6c.75-.17,1.49-.31,2.23-.44,3-.5,6-.84,8.94-1.14,6-.58,11.94-1,17.91-1.27,11.95-.59,23.91-.84,35.87-.89q9,0,17.94.16c6,.12,12,.28,17.94.57s12,.65,17.93,1.23c3,.29,6,.62,9,1.14.75.13,1.49.27,2.24.44a16.65,16.65,0,0,1,2.28.65c.2.07.39.16.6.25a3.64,3.64,0,0,1,.63.38,1.8,1.8,0,0,1,.36.33A1.68,1.68,0,0,1,280,93a1.37,1.37,0,0,1,0,.45.37.37,0,0,1,0,.11l0,.08a.66.66,0,0,1,0,.15,1.83,1.83,0,0,1-.18.42,2.82,2.82,0,0,1-1.08,1,2.62,2.62,0,0,1-1.35.33l-.28-1a5,5,0,0,0,.65-.66,2.48,2.48,0,0,0,.4-.62l0,0a.08.08,0,0,0,0,0h0a.06.06,0,0,0,0,0v.09s0,.06,0,.09a.35.35,0,0,0,.07.14l-.05,0a3.66,3.66,0,0,0-.77-.38,16.66,16.66,0,0,0-2-.57c-.7-.16-1.42-.3-2.15-.43-2.9-.49-5.86-.82-8.81-1.11-5.93-.57-11.88-.93-17.84-1.21-11.91-.55-23.85-.8-35.79-.82s-23.87.13-35.79.63c-6,.26-11.92.6-17.85,1.13-3,.28-5.93.6-8.85,1.07-.73.12-1.45.25-2.17.41a20,20,0,0,0-2.09.54,6.06,6.06,0,0,0-.92.39,1.28,1.28,0,0,0-.28.2s0,0,0,0a.2.2,0,0,0,0-.09.34.34,0,0,0,0-.14s0,0,.05.07l.13.15.37.31.82.64Z"/><path class="cls-5" d="M265.3,96.19a7,7,0,0,1-7,7H165.82a7,7,0,0,1-5.31-11.6h0c.11-.13.23-.26.35-.38a7,7,0,0,1,5-2h92.47A7,7,0,0,1,265.3,96.19Z"/><g class="cls-6"><path class="cls-7" d="M265.3,96.19a7,7,0,0,1-7,7H165.82a7,7,0,0,1-5.31-11.6,11.12,11.12,0,0,0,.13,1.78,8.34,8.34,0,0,0,8.27,7.11h84.44a4.41,4.41,0,0,0,4.3-3.32,10.06,10.06,0,0,0-1.52-8h2.16A7,7,0,0,1,265.3,96.19Z"/></g><path class="cls-5" d="M266.19,83a7,7,0,0,1-7,7H166.7a7,7,0,0,1-5.3-11.6h0c.11-.12.22-.25.34-.37a7,7,0,0,1,5-2h92.48A7,7,0,0,1,266.19,83Z"/><g class="cls-6"><path class="cls-7" d="M266.19,83a7,7,0,0,1-7,7H166.7a7,7,0,0,1-5.3-11.6,12.46,12.46,0,0,0,.12,1.78,8.35,8.35,0,0,0,8.27,7.11h84.45a4.43,4.43,0,0,0,4.3-3.33A10,10,0,0,0,257,76h2.16A7,7,0,0,1,266.19,83Z"/></g><path class="cls-5" d="M266.39,69.73a7,7,0,0,1-7,7H166.9a7,7,0,0,1-5.31-11.61h0l.35-.37a7,7,0,0,1,5-2.06h92.47A7,7,0,0,1,266.39,69.73Z"/><g class="cls-6"><path class="cls-7" d="M266.39,69.73a7,7,0,0,1-7,7H166.9a7,7,0,0,1-5.31-11.61,12.55,12.55,0,0,0,.13,1.79A8.34,8.34,0,0,0,170,74h84.45a4.44,4.44,0,0,0,4.3-3.33,10,10,0,0,0-1.53-8h2.16A7,7,0,0,1,266.39,69.73Z"/></g><rect class="cls-4" x="178.67" y="105.02" width="65.88" height="6.8" rx="2.27"/><path class="cls-4" d="M279.05,93.36c0,8.51-7.31,15.41-68.46,15.41-63.5,0-68.46-6.9-68.46-15.41,0,2.87,30.65,5.2,68.46,5.2S279.05,96.23,279.05,93.36Z"/><g class="cls-8"><path d="M178.61,106.77s15,1,31.2,1,34.39-1.42,34.39-1.42S214.94,113.44,178.61,106.77Z"/></g><g class="cls-9"><path class="cls-10" d="M142.67,94s12.35,6.59,105.1,3.81C247.92,97.83,155.55,103.27,142.67,94Z"/></g><path class="cls-11" d="M222.94,55.79v5.57a2.11,2.11,0,0,1-2.11,2.12h-17a2.12,2.12,0,0,1-2.12-2.12V55.79a2.12,2.12,0,0,1,2.12-2.11h17A2.11,2.11,0,0,1,222.94,55.79Z"/><path class="cls-12" d="M253.46,63.54c-.23,1.15-1.7,1.88-3.27,2.36a28.57,28.57,0,0,1-3,.69c-4.29.82-3,.25-8,.81a12.67,12.67,0,0,0-5.3,1.44c-2.67,1.23-5.53,3-5.46,6.11.06,2.88,1.29,5.13,2.08,7.38,1.34,3.79-2.56,10.82-7.87,11.09a7.31,7.31,0,0,1-5.78-2.57c-2.66-3.19-1.27-7.69-1-8.68.73-2.37,1.58-2.27,2.4-4.66.25-.69,2.11-6-.64-9.15-2.57-2.91-7.83-2.35-11.08-.48A10.35,10.35,0,0,0,201.9,74c-.91,3.93,1.64,6,.16,8.35-1.13,1.77-3.82,2.39-5.94,1.93a6.21,6.21,0,0,1-4.5-3.85c-1.22-3.57,1.37-5.38.16-8-.76-1.67-3.76-3.05-6.91-4-4.78-1.46-10.16-3.35-10.11-5.14.05-2,6.61-3.26,8-3.54a35.46,35.46,0,0,1,10.92-.48c6,.81,14,0,22.26-1H216c13.94-1.6,28.45-3.55,34.85,1.44C251.62,60.25,253.79,62,253.46,63.54Z"/><g class="cls-13"><path class="cls-10" d="M253.46,63.54c-.23,1.15-1.7,1.88-3.27,2.36,4.65-10.6-32.43-7.79-34.15-7.66,13.94-1.6,28.45-3.55,34.85,1.44C251.62,60.25,253.79,62,253.46,63.54Z"/></g><g class="cls-14"><path class="cls-10" d="M225.19,77.41s2.25,4.6,1.72,7,2,2,1.92-.54S226.59,77.73,225.19,77.41Z"/></g><g class="cls-14"><path class="cls-10" d="M197.78,76s1.85,2.86,1.41,4.33,1.68,1.27,1.59-.33S198.93,76.21,197.78,76Z"/></g><g class="cls-15"><path class="cls-10" d="M222.94,55.79v1.69s0-1.07-1.92-2.35-18.63-.85-18.63-.85h0a2.11,2.11,0,0,1,1.48-.6h17A2.11,2.11,0,0,1,222.94,55.79Z"/></g><ellipse class="cls-16" cx="190.55" cy="85.92" rx="3" ry="2.81"/><ellipse class="cls-16" cx="234.55" cy="85.92" rx="3" ry="2.81"/><path class="cls-16" d="M212.8,92.42a14.43,14.43,0,0,1-8.14-2.37.82.82,0,0,1-.14-1.2,1,1,0,0,1,1.28-.14,12.68,12.68,0,0,0,7,2,13.49,13.49,0,0,0,7.16-2,1,1,0,0,1,1.28.16.83.83,0,0,1-.18,1.2A15,15,0,0,1,212.8,92.42Z"/><rect class="cls-17" y="0.25" width="300" height="165"/></g></g></svg>