<svg xmlns="http://www.w3.org/2000/svg" xmlns:xlink="http://www.w3.org/1999/xlink" viewBox="0 0 300 165.5"><defs><style>.cls-1{isolation:isolate;}.cls-2{fill:#fce5cd;}.cls-3{fill:#009245;}.cls-4{fill:#c5e1f9;}.cls-5{opacity:0.44;}.cls-10,.cls-14,.cls-5{mix-blend-mode:soft-light;}.cls-6{fill:#4d7cc1;}.cls-7{fill:#ffc294;}.cls-8{fill:#bc7235;}.cls-9{fill:#ea9942;}.cls-10{opacity:0.52;}.cls-11{fill:#892b2b;}.cls-12{fill:#fcc7a2;}.cls-13{fill:#fff;}.cls-14{opacity:0.49;}.cls-15{fill:#5e5046;}.cls-16{fill:url(#linear-gradient);}</style><linearGradient id="linear-gradient" x1="150.37" y1="168.62" x2="149.66" y2="2.17" gradientUnits="userSpaceOnUse"><stop offset="0.03" stop-color="#591c16"/><stop offset="0.22" stop-color="#5f241d" stop-opacity="0.96"/><stop offset="0.38" stop-color="#733c33" stop-opacity="0.84"/><stop offset="0.53" stop-color="#936459" stop-opacity="0.64"/><stop offset="0.68" stop-color="#c09d8d" stop-opacity="0.36"/><stop offset="0.82" stop-color="#fae5cf" stop-opacity="0"/></linearGradient></defs><g class="cls-1"><g id="Layer_1" data-name="Layer 1"><rect class="cls-2" y="0.25" width="300" height="165"/><path class="cls-3" d="M239.23,75.15c-3.3,2.57-4.27,2.6-4.63,4.17a4.57,4.57,0,0,0-.1,1.31c.09,1.3.62,2.38.13,3.43-.56,1.24-1.9,1.12-3.44,1.13-6.66,0-8.05,2.28-9.78.27-.49-.57-.23-.58-1.68-4.94-.11-.3-.22-.63-.34-1s-.31-.9-.46-1.33c-1-2.94-1.54-4.37-1.11-5.33A1.51,1.51,0,0,1,218.9,72a1.15,1.15,0,0,1,.41,0c.93,0,1.36,1,2,.81s.68-1,1-2c.32-1.32-1.54-5.42-1.22-5.91a1.7,1.7,0,0,1,2.27-.38c.76.42.86,1.08,1.36,1.11.72,0,1.16-1.29,1.37-1.89a2.09,2.09,0,0,1,.35-.64,3.39,3.39,0,0,1,2.31-1.14c1.13.13,3.43,6.35,3.39,6.43s.8,1.41,1.66,1.14a.51.51,0,0,0,.17-.08c.52-.31.69-1.63.32-2.44s1.25-2,1.11-2.63a1.55,1.55,0,0,1,.8-1.44c1-.6,1.17,1.77,1.12,2.79a4.56,4.56,0,0,0,1.26,3.81c.49.36.78-.7,1.59-.59A2.43,2.43,0,0,1,241.5,70h0a3.5,3.5,0,0,1,.67,1.66C242.23,72.35,241.92,73.07,239.23,75.15Z"/><ellipse class="cls-4" cx="199.1" cy="84.95" rx="59.81" ry="5.21"/><g class="cls-5"><path d="M239.23,75.15c-3.3,2.57-4.27,2.6-4.63,4.17a4.57,4.57,0,0,0-.1,1.31c-5.15.91-10.46,1.73-10.76,1.66s-2-.84-4-1.77c-.11-.3-.22-.63-.34-1s-.31-.9-.46-1.33c-1-2.94-1.54-4.37-1.11-5.33,4.76,1.44,10.58,1.43,15.05,1.21S241.5,70,241.5,70h0a3.5,3.5,0,0,1,.67,1.66C242.23,72.35,241.92,73.07,239.23,75.15Z"/></g><path class="cls-6" d="M140.36,86.51a3.49,3.49,0,0,1-1.48-.69,1.73,1.73,0,0,1-.44-.48,1.23,1.23,0,0,1-.1-.2,1.27,1.27,0,0,1,0-.14,1,1,0,0,1,0-.17,1,1,0,0,1,.13-.47,1.57,1.57,0,0,1,.48-.53,4.34,4.34,0,0,1,1-.54,13.18,13.18,0,0,1,2-.64c.65-.17,1.31-.32,2-.45,2.63-.52,5.26-.87,7.9-1.17,5.27-.6,10.56-1,15.85-1.29,10.58-.59,21.18-.84,31.77-.88q8,0,15.89.17c5.3.12,10.59.3,15.89.59s10.58.67,15.86,1.26c2.64.3,5.28.65,7.92,1.18.66.14,1.31.29,2,.47a11.64,11.64,0,0,1,2,.7l.52.29a2.51,2.51,0,0,1,.55.47,1.57,1.57,0,0,1,.25.43,1.24,1.24,0,0,1,.07.61,2.49,2.49,0,0,1-.11.4s-.05.11-.08.15a1.07,1.07,0,0,1-.07.15,2.46,2.46,0,0,1-.39.51,2.39,2.39,0,0,1-.23.22,2.27,2.27,0,0,1-.25.18A2.42,2.42,0,0,1,258,87l-.26-.76a4.57,4.57,0,0,0,.58-.59,3,3,0,0,0,.38-.62l0-.08,0-.07,0-.08a.23.23,0,0,0,0,.12s0,0,0,0a1.13,1.13,0,0,0-.21-.17,3.69,3.69,0,0,0-.35-.19,10.78,10.78,0,0,0-1.74-.61c-.62-.17-1.25-.31-1.89-.44-2.55-.52-5.16-.86-7.78-1.16-5.23-.58-10.5-.95-15.78-1.24-10.55-.57-21.12-.81-31.69-.83s-21.15.15-31.7.67c-5.28.27-10.55.62-15.8,1.18-2.62.29-5.23.61-7.81,1.11-.64.12-1.28.26-1.9.42a12.89,12.89,0,0,0-1.82.58,3.39,3.39,0,0,0-.76.4.59.59,0,0,0-.18.19s0,0,0,0v0a1.33,1.33,0,0,0,.21.27c.1.1.2.2.32.3s.47.39.71.59Z"/><path class="cls-7" d="M167.89,78.73a.29.29,0,0,1-.16.13h0l-.73.26L154.83,83.5l-2.08.74L148.7,85.7l-.63.22h0l-3.61,1.3h0c-.31.11-.55-.31-.35-.6.61-.87,1.6-2.24,2.86-3.76l.64-.77a37.8,37.8,0,0,1,5.09-5,17.21,17.21,0,0,1,3.74-2.35,8,8,0,0,1,3.09-.7c3.6-.09,6.51,2.33,7.88,3.71l.46.5A.41.41,0,0,1,167.89,78.73Z"/><path class="cls-8" d="M167.89,78.73l-.16.13h0s-.16-.23-.47-.59A9.51,9.51,0,0,0,159,74.88a12.94,12.94,0,0,0-6.09,2.72,29.66,29.66,0,0,0-5.14,5.12l-.61.76c-.86,1.11-1.74,2.35-2.65,3.74h0c-.31.11-.55-.31-.35-.6.61-.87,1.6-2.24,2.86-3.76l.64-.77a37.8,37.8,0,0,1,5.09-5,17.21,17.21,0,0,1,3.74-2.35,8,8,0,0,1,3.09-.7c3.6-.09,6.51,2.33,7.88,3.71l.46.5A.41.41,0,0,1,167.89,78.73Z"/><path class="cls-9" d="M265.43,80.07c-.61,2.94-6.27,5.23-10.74,7.06a54.1,54.1,0,0,1-6.28,2l-1,.26-.81.2c-2.45.59-4.22,4.32-4.76,4.38-14.86,1.5-37.06,1.77-42.51,1.4a2.28,2.28,0,0,1-1.63-.92,2.92,2.92,0,0,1-.57-2.12,10.16,10.16,0,0,1,3.2-5.64,9.84,9.84,0,0,1,.79-.68,7.91,7.91,0,0,1,2-1.17c2-.73,15.22-4.57,27-7.75,1.73-.47,3.44-.93,5.07-1.35,2.58-.68,5-1.3,7-1.79,1.58-.39,3-.7,4.06-.93a12.34,12.34,0,0,1,2.5-.26c3.87,0,11.35-.27,14.85,2.34h0A4.69,4.69,0,0,1,265.25,77h0A5.15,5.15,0,0,1,265.43,80.07Z"/><g class="cls-10"><path d="M265.43,80.07c-.61,2.94-6.27,5.23-10.74,7.06a54.1,54.1,0,0,1-6.28,2l-1,.26-.81.2c-.1-.4-1.05-1-1.25-1.46-3.86-9.67-15.19-11-15.19-11,1.73-.47,3.44-.93,5.07-1.35,0,0,9.18,2.69,11.62,6a7.17,7.17,0,0,1,.91,2.07A2.79,2.79,0,0,0,251.06,86c4.78-1.28,14.12-4.37,14.19-8.94A5.15,5.15,0,0,1,265.43,80.07Z"/></g><g class="cls-10"><path d="M217.67,90.4l-2.18.75-15.17-4.47a9.84,9.84,0,0,1,.79-.68Z"/></g><path class="cls-7" d="M149.16,88.44c0,.26-.06.52-.1.77-.35,2.52-.81,4.67-1.1,5.92a.35.35,0,0,1-.68,0h0l-8.75-26.35a.41.41,0,0,1,0-.22.34.34,0,0,1,.39-.28c1.59.26,6,1.34,8.57,5.28.09.13.18.28.26.42a11.14,11.14,0,0,1,1.1,2.67C149.81,80.25,149.63,84.69,149.16,88.44Z"/><path class="cls-8" d="M149.16,88.44c0,.26-.06.52-.1.77-.35,2.52-.81,4.67-1.1,5.92a.35.35,0,0,1-.68,0h0a55.1,55.1,0,0,0,1.37-6.52l.12-.82c.76-6,0-10.14-1.44-12.95-.09-.17-.17-.34-.27-.5a10.71,10.71,0,0,0-8.53-5.56v-.22a.34.34,0,0,1,.39-.28c1.59.26,6,1.34,8.57,5.28.09.13.18.28.26.42a11.14,11.14,0,0,1,1.1,2.67C149.81,80.25,149.63,84.69,149.16,88.44Z"/><g class="cls-10"><path d="M167.4,77.73c0,.18-.09.36-.14.54s-.16.57-.26.85c-1.26,3.75-4.2,7.52-10.19,10.33h0a34.91,34.91,0,0,1-4.55,1.75l-.25-.29c-.08-.1-.16-.19-.23-.29l0,0c-.08-.09-.15-.19-.23-.29l-.46-.6-.26-.36c-.09-.12-.17-.24-.25-.37l-.25-.35c-.07-.12-.15-.24-.23-.36s-.11-.18-.17-.27c-.21-.35-.41-.7-.6-1l-.16-.32c-.16-.32-.31-.63-.45-.94v0l-.15-.35c0-.11-.09-.21-.13-.32l-.09-.24c-.08-.22-.16-.44-.23-.66S148,84,148,83.87s-.08-.26-.11-.39a1.09,1.09,0,0,1,0-.17c-.05-.2-.1-.4-.14-.59s-.09-.42-.12-.63a37.8,37.8,0,0,1,5.09-5l.17.53,1.44,4.31,4.65-7,.57-.86C163.12,73.93,166,76.35,167.4,77.73Z"/><path d="M159.07,98.34l-.95-.77-.31-.27-.51-.43-.26-.23-.22-.19-.07-.06-.35-.31c-.33-.3-.67-.61-1-1l-.25-.23-.28-.27-.23-.22-.29-.29-.75-.76c-.1-.11-.21-.22-.31-.34s-.31-.33-.47-.5-.17-.19-.26-.29l-.26-.28c-.35-.4-.7-.81-1-1.23L151,90.4c-.19-.23-.37-.47-.55-.71l-.2-.27c-.25-.33-.49-.67-.71-1l-.21-.31c-.08-.13-.16-.26-.25-.39l-.21-.36-.21-.35c-.07-.12-.14-.24-.2-.36h0l-.37-.72-.15-.31-.12-.26c-.1-.22-.19-.44-.28-.67l-.12-.31a2.47,2.47,0,0,1-.1-.29c0-.1-.07-.2-.1-.3l-.09-.3c0-.1-.05-.21-.08-.31a2.29,2.29,0,0,0-.07-.28v0l.64-.77q0,.31.12.63c0,.19.09.39.14.59a1.09,1.09,0,0,0,0,.17c0,.13.07.26.11.39s0,.16.07.24.15.44.23.66l.09.24c0,.11.09.21.13.32l.15.35v0c.14.31.29.62.45.94l.16.32c.19.34.39.69.6,1,.06.09.12.18.17.27s.16.24.23.36l.25.35c.08.13.16.25.25.37l.26.36.46.6c.08.1.15.2.23.29l0,0c.07.1.15.19.23.29l.25.29a34.91,34.91,0,0,0,4.55-1.75l2.8,8.45h0A.36.36,0,0,1,159.07,98.34Z"/><path d="M159.07,98.34l-.95-.77-.31-.27-.51-.43-.26-.23-.22-.19-.07-.06-.35-.31c-.33-.3-.67-.61-1-1l-.25-.23-.28-.27-.23-.22-.29-.29-.75-.76c-.1-.11-.21-.22-.31-.34s-.31-.33-.47-.5-.17-.19-.26-.29l-.26-.28c-.35-.4-.7-.81-1-1.23L151,90.4c-.19-.23-.37-.47-.55-.71l-.2-.27c-.25-.33-.49-.67-.71-1l-.21-.31c-.08-.13-.16-.26-.25-.39l-.21-.36-.21-.35c-.07-.12-.14-.24-.2-.36h0l-.37-.72-.15-.31-.12-.26c-.1-.22-.19-.44-.28-.67l-.12-.31a2.47,2.47,0,0,1-.1-.29c0-.1-.07-.2-.1-.3l-.09-.3c0-.1-.05-.21-.08-.31a2.29,2.29,0,0,0-.07-.28v0l.64-.77q0,.31.12.63c0,.19.09.39.14.59a1.09,1.09,0,0,0,0,.17c0,.13.07.26.11.39s0,.16.07.24.15.44.23.66l.09.24c0,.11.09.21.13.32l.15.35v0c.14.31.29.62.45.94l.16.32c.19.34.39.69.6,1,.06.09.12.18.17.27s.16.24.23.36l.25.35c.08.13.16.25.25.37l.26.36.46.6c.08.1.15.2.23.29l0,0c.07.1.15.19.23.29l.25.29c.28.33.57.67.89,1l.21.22.29.31.09.09.34.35.84.82.28.26.46.42.3.27.75.65.38.32.83.68.73.57.21.17.31.23.15.11.29.22h0A.36.36,0,0,1,159.07,98.34Z"/></g><g class="cls-10"><path d="M150.08,88.27a24.87,24.87,0,0,0,2.18,2.93l-.49.15c-1.38.42-2.86.79-4.47,1.12l2.46-3.72Z"/><path d="M167.89,78.73a.29.29,0,0,1-.16.13h0l-.73.26c.1-.28.18-.56.26-.85s.1-.36.14-.54l.46.5A.41.41,0,0,1,167.89,78.73Z"/><path d="M167.89,78.73a.29.29,0,0,1-.16.13h0l-.73.26c.1-.28.18-.56.26-.85s.1-.36.14-.54l.46.5A.41.41,0,0,1,167.89,78.73Z"/></g><path class="cls-7" d="M168.11,81.39a11.67,11.67,0,0,1-1.57,2.75,16.91,16.91,0,0,1-2.42,2.52l-.43.36h0c-5.06,4.12-12.29,6.22-15.25,7-.4.1-.78-.52-.54-.89h0l18.36-27.73a.32.32,0,0,1,.21-.14.51.51,0,0,1,.56.37C168,68,170.54,75.38,168.11,81.39Z"/><path class="cls-8" d="M168.11,81.39a11.67,11.67,0,0,1-1.57,2.75,16.91,16.91,0,0,1-2.42,2.52l-.43.36h0c-5.06,4.12-12.29,6.22-15.25,7-.4.1-.78-.52-.54-.89h0c7.35-1.5,12.2-3.95,15.32-6.79.15-.14.31-.28.45-.43A15.23,15.23,0,0,0,167.51,80c2.63-7.32-1.24-14.65-1.24-14.65l.21-.14a.51.51,0,0,1,.56.37C168,68,170.54,75.38,168.11,81.39Z"/><g class="cls-10"><path d="M176.58,95.47a.37.37,0,0,1-.21.65c-2.7-.13-10.24-.81-14.75-4.16-4.67-3.48-4-9.79-3.74-11.77,0-.19.27-.78.42-.78s19.52,14.08,19.52,14.08c-1.24.07-2.41.1-3.5.07l.67.57,1.58,1.34Z"/></g><g class="cls-10"><path d="M150.85,71.56a1.37,1.37,0,0,0-.12-.18A.29.29,0,0,1,150.85,71.56Z"/><path d="M159.07,98.34l-.95-.77-.31-.27-.51-.43-.26-.23-.22-.19-.07-.06-.35-.31c-.33-.3-.67-.61-1-1l-.25-.23-.28-.27-.23-.22-.29-.29-.75-.76c-.1-.11-.21-.22-.31-.34s-.31-.33-.47-.5-.17-.19-.26-.29l-.26-.28c-.35-.4-.7-.81-1-1.23L151,90.4c-.19-.23-.37-.47-.55-.71l-.2-.27c-.25-.33-.49-.67-.71-1l-.21-.31c-.08-.13-.16-.26-.25-.39l-.21-.36-.21-.35c-.07-.12-.14-.24-.2-.36h0c-.13-.24-.25-.48-.37-.72h0l-.15-.31-.12-.26c-.1-.22-.19-.44-.28-.67l-.12-.31a2.47,2.47,0,0,1-.1-.29c0-.1-.07-.2-.1-.3l-.09-.3c0-.1-.05-.21-.08-.31a2.29,2.29,0,0,0-.07-.28v0l.64-.77a37.8,37.8,0,0,1,5.09-5l.17.53,1.44,4.31.53,1.59,2,6,2.8,8.45h0A.36.36,0,0,1,159.07,98.34Z"/><path d="M159.07,98.34l-.95-.77-.31-.27-.51-.43-.26-.23-.22-.19-.07-.06-.35-.31c-.33-.3-.67-.61-1-1l-.25-.23-.28-.27-.23-.22-.29-.29-.75-.76c-.1-.11-.21-.22-.31-.34s-.31-.33-.47-.5-.17-.19-.26-.29l-.26-.28c-.35-.4-.7-.81-1-1.23L151,90.4c-.19-.23-.37-.47-.55-.71l-.2-.27c-.25-.33-.49-.67-.71-1l-.21-.31c-.08-.13-.16-.26-.25-.39l-.21-.36-.21-.35c-.07-.12-.14-.24-.2-.36h0c-.13-.24-.25-.48-.37-.72h0l-.15-.31-.12-.26c-.1-.22-.19-.44-.28-.67l-.12-.31a2.47,2.47,0,0,1-.1-.29c0-.1-.07-.2-.1-.3l-.09-.3c0-.1-.05-.21-.08-.31a2.29,2.29,0,0,0-.07-.28v0l.64-.77q0,.31.12.63c0,.19.09.39.14.59a1.09,1.09,0,0,0,0,.17c0,.13.07.26.11.39s0,.16.07.24.15.44.23.66l.09.24c0,.11.09.21.13.32l.15.35v0c.14.31.29.62.45.94l.16.32c.19.34.39.69.6,1l.4.63.25.35c.08.12.16.25.25.37l.26.36.46.6c.08.1.15.2.23.29l0,0c.07.1.15.19.23.29l.25.29c.28.33.57.67.89,1l.21.22.29.31.09.09.34.35.84.82.28.26.46.42.3.27.75.65.38.32.83.68c.23.19.48.38.73.57l.21.17.31.23.15.11.29.22h0A.36.36,0,0,1,159.07,98.34Z"/></g><g class="cls-10"><path d="M149.7,71.33l-.12-.18A.47.47,0,0,1,149.7,71.33Z"/><path d="M157.92,98.11a50.61,50.61,0,0,1-8.86-8.94l-.41-.57a21.15,21.15,0,0,1-2.29-4.14,12.17,12.17,0,0,1,.7-10.12c.14-.28.29-.54.43-.79.09.14.18.28.26.43a11.08,11.08,0,0,1,1.95-2.65l8.76,26.35h0A.36.36,0,0,1,157.92,98.11Z"/><path d="M157.92,98.11a50.61,50.61,0,0,1-8.86-8.94l-.41-.57a21.15,21.15,0,0,1-2.29-4.14,12.17,12.17,0,0,1,.7-10.12c.14-.28.29-.54.43-.79.09.14.18.28.26.43-.14.26-.29.55-.42.85-1.29,2.87-2,7.37,1.44,13,.12.2.25.41.39.62a38.31,38.31,0,0,0,9.3,9.27h0A.36.36,0,0,1,157.92,98.11Z"/></g><path class="cls-7" d="M165.83,91.81c-.33-.07-.43-.7-.14-.91h0l22-15.35a.22.22,0,0,1,.19,0,.48.48,0,0,1,.31.5c0,2.69-.42,11.4-5.9,14.64C177,93.76,168.77,92.43,165.83,91.81Z"/><path class="cls-8" d="M165.83,91.81c-.33-.07-.43-.7-.14-.91h0c24,6.14,22-15.35,22-15.35l.19,0a.48.48,0,0,1,.31.5c0,2.69-.42,11.4-5.9,14.64C177,93.76,168.77,92.43,165.83,91.81Z"/><g class="cls-10"><path d="M177.66,94.15c-.65,0-1.57,0-2.67,0l-.67-.57c1.09,0,2.26,0,3.5-.07h0A.37.37,0,0,1,177.66,94.15Z"/><path d="M177.66,94.15c-.65,0-1.57,0-2.67,0l-.67-.57c1.09,0,2.26,0,3.5-.07h0A.37.37,0,0,1,177.66,94.15Z"/></g><path class="cls-7" d="M158.44,98.15a.36.36,0,0,0,.55-.43h0l-8.76-26.34a.35.35,0,0,0-.13-.18.34.34,0,0,0-.47,0c-1.31,1.58-5.22,7-2.74,13.25C149.27,90.49,156,96.19,158.44,98.15Z"/><path class="cls-8" d="M158.44,98.15a.36.36,0,0,0,.55-.43h0c-20.72-15.36-8.76-26.34-8.76-26.34l-.13-.18a.34.34,0,0,0-.47,0c-1.31,1.58-5.22,7-2.74,13.25C149.27,90.49,156,96.19,158.44,98.15Z"/><path class="cls-7" d="M177.58,94.76a.37.37,0,0,0,.16-.66h0L158.39,79.77a.27.27,0,0,0-.17-.06.34.34,0,0,0-.31.33c-.12,2-.14,8.51,4.72,11.65C167.31,94.7,174.87,94.82,177.58,94.76Z"/><path class="cls-8" d="M177.58,94.76a.37.37,0,0,0,.16-.66h0c-22.23,1.34-19.35-14.32-19.35-14.32l-.17-.06a.34.34,0,0,0-.31.33c-.12,2-.14,8.51,4.72,11.65C167.31,94.7,174.87,94.82,177.58,94.76Z"/><g class="cls-10"><path d="M173.87,96.5c-.54-.36-1.3-.88-2.18-1.53l-.36-.27-.62-.48a3.92,3.92,0,0,1-.32-.25c-.2-.15-.39-.31-.59-.48s-.27-.22-.4-.33c-.32-.26-.64-.54-1-.83l-.26-.23a32.56,32.56,0,0,1-2.61-2.64l-.24-.28-.23-.27-.17-.21A19.62,19.62,0,0,1,163.69,87h0a.21.21,0,0,1,0-.06c-.15-.22-.29-.45-.42-.68s-.13-.22-.19-.33l-.14-.26-.16-.31-.13-.28c-.09-.19-.17-.38-.24-.56s-.07-.19-.1-.29a7.93,7.93,0,0,1-.25-.83,10.18,10.18,0,0,1-.25-1.39c0-.17,0-.33,0-.5a13.59,13.59,0,0,1,2.52-8,.29.29,0,0,1,.41-.08.24.24,0,0,1,.12.14h0L167.51,80l.6,1.4a11.67,11.67,0,0,1-1.57,2.75,16.91,16.91,0,0,1-2.42,2.52c1.71,2.91,4.83,6.11,10.19,9.41h0A.32.32,0,0,1,173.87,96.5Z"/><path d="M173.87,96.5c-.54-.36-1.3-.88-2.18-1.53l-.36-.27-.62-.48a3.92,3.92,0,0,1-.32-.25c-.2-.15-.39-.31-.59-.48s-.27-.22-.4-.33c-.32-.26-.64-.54-1-.83l-.26-.23a32.56,32.56,0,0,1-2.61-2.64l-.24-.28-.23-.27-.17-.21A19.62,19.62,0,0,1,163.69,87l0-.06c-.15-.22-.29-.45-.42-.68s-.13-.22-.19-.33l-.14-.26-.16-.31-.13-.28c-.09-.19-.17-.38-.24-.56s-.07-.19-.1-.29a7.93,7.93,0,0,1-.25-.83,10.18,10.18,0,0,1-.25-1.39c0-.17,0-.33,0-.5a13.59,13.59,0,0,1,2.52-8,.29.29,0,0,1,.41-.08l.12.14h0a11,11,0,0,0-1.11,12.31c.14.27.28.54.44.81,1.71,2.91,4.83,6.11,10.19,9.41h0A.32.32,0,0,1,173.87,96.5Z"/></g><g class="cls-10"><path d="M173.23,97.09a.33.33,0,0,0,.46-.42h0l-9.53-22.53a.3.3,0,0,0-.53-.06c-1.05,1.49-4.12,6.61-1.51,11.9C164.63,91.06,170.93,95.56,173.23,97.09Z"/><path d="M173.23,97.09a.33.33,0,0,0,.46-.42h0c-19.32-11.9-9.53-22.53-9.53-22.53L164,74a.3.3,0,0,0-.41.09c-1.05,1.49-4.12,6.61-1.51,11.9C164.63,91.06,170.93,95.56,173.23,97.09Z"/></g><path class="cls-7" d="M173.68,96.67A48.81,48.81,0,0,1,169,93.15l-.26-.22-.24-.21-.25-.22c-.7-.62-1.4-1.29-2.07-2l-.31-.33a19.82,19.82,0,0,1-3.32-4.62c-2.61-5.3.47-10.41,1.51-11.9a.3.3,0,0,1,.41-.09.31.31,0,0,1,.12.15h0l3.79,8.94.23.56L171.47,90l.14.35.09.21.15.34,2.27,5.38h0A.32.32,0,0,1,173.68,96.67Z"/><path class="cls-8" d="M173.68,96.67a.32.32,0,0,0,.45-.42h0c-19.32-11.9-9.53-22.53-9.53-22.53l-.12-.15a.3.3,0,0,0-.41.09c-1,1.49-4.12,6.61-1.51,11.9C165.07,90.64,171.37,95.14,173.68,96.67Z"/><g class="cls-10"><path d="M171.47,90a28.34,28.34,0,0,1-2.86,2.29l-.36.25c-1,.71-2.18,1.42-3.45,2.12l-.51.28,1.58-4.73.16-.48,2.35-7,.23.56,4.67-14C174.86,71.13,181.71,80.59,171.47,90Z"/></g><path class="cls-7" d="M177.41,83.63a21,21,0,0,1-5.56,7.23c-.84.74-1.68,1.42-2.49,2l-.36.27c-1.51,1.11-2.87,1.95-3.73,2.46a.38.38,0,0,1-.46-.1.47.47,0,0,1-.15-.47h0l.13-.41,1.38-4.12.15-.46,2.28-6.83,4.67-14,.07-.22h0a.27.27,0,0,1,.13-.16l.08,0A.43.43,0,0,1,174,69C175.47,71,179.9,77.57,177.41,83.63Z"/><path class="cls-8" d="M165.27,95.61c-.3.17-.72-.22-.61-.57h0c22.05-11.81,8.68-26,8.68-26l.13-.16A.4.4,0,0,1,174,69c1.48,2,5.91,8.58,3.42,14.64C175,89.47,167.89,94.07,165.27,95.61Z"/><path class="cls-9" d="M245.29,88.26c-7.64.79-17.91,1.38-29.63,1.67-14.25-4.05-33.15-8.51-37.79-10.77a2.61,2.61,0,0,1-1.28-1.49,3.09,3.09,0,0,1,.08-2.22,6.59,6.59,0,0,1,.85-1.35,9.64,9.64,0,0,1,7-3.39c.63,0,2.3.17,4.65.41h0c9.87,1,31.71,3.55,39.43,5a12.58,12.58,0,0,1,2.44.71c3.22,1.29,9.15,3.51,12.25,6.63A8.34,8.34,0,0,1,244.52,85h0A4.76,4.76,0,0,1,245.29,88.26Z"/><g class="cls-10"><path d="M244.62,90.15c-1.43,2.54-7.43,2.53-12.18,2.53a73.59,73.59,0,0,1-13.35-1.75c-14.45-4.3-36.19-9.32-41.22-11.77a2.61,2.61,0,0,1-1.28-1.49,3.09,3.09,0,0,1,.08-2.22,6.59,6.59,0,0,1,.85-1.35h0s-1.66,2.32,2,4.06c4.06,1.2,43.23,11.21,43.89,11.42s21.22,3,21.09-4.63A4.76,4.76,0,0,1,244.62,90.15Z"/></g><rect class="cls-11" x="174.15" y="84.15" width="36.7" height="14.54"/><rect class="cls-6" x="171.02" y="96.68" width="58.06" height="6.9" rx="1.79"/><g class="cls-10"><path d="M210.85,84.86c0,2-8.21,3.69-18.35,3.69a63.53,63.53,0,0,1-14.26-1.37,1.71,1.71,0,0,0-2,1.84v1.45a9.27,9.27,0,0,1-2.12.82V84.74h0a1.13,1.13,0,0,1,.33-.6c1.64-1.7,9.08-3,18-3s16.38,1.28,18,3A1.05,1.05,0,0,1,210.85,84.86Z"/></g><ellipse class="cls-11" cx="192.5" cy="84.15" rx="18.35" ry="3.69"/><path class="cls-12" d="M209.49,84.15c0,1.75-7.54,3.17-16.84,3.17s-16.84-1.42-16.84-3.17S183.35,81,192.65,81,209.49,82.4,209.49,84.15Z"/><path class="cls-6" d="M259.5,84.86c0,8.63-6.44,15.63-60.34,15.63-56,0-60.34-7-60.34-15.63,0,.24.18.48.54.71h0c1.22.78,4.34,1.49,8.94,2.12h0c9.13,1.24,24.07,2.12,41.45,2.36H190c3,0,6.06.06,9.19.06,5.72,0,11.25-.07,16.5-.2l1,.29,2.42.71a73.59,73.59,0,0,0,13.35,1.75c4.75,0,10.75,0,12.18-2.53a5.19,5.19,0,0,0,.67-1.89C254.16,87.34,259.5,86.15,259.5,84.86Z"/><g class="cls-5"><path class="cls-13" d="M243.34,83.5l-.66-.39c-9.41-5.82-52.13-11.8-53.46-12,9.87,1,31.71,3.55,39.43,5a12.58,12.58,0,0,1,2.44.71C234.31,78.16,240.24,80.38,243.34,83.5Z"/></g><g class="cls-10"><path d="M171,98.46s13.21,1,27.5,1,30.31-1.44,30.31-1.44S203,105.23,171,98.46Z"/></g><g class="cls-14"><path class="cls-13" d="M216.67,90.22c-24.1,1.08-69.13,2.11-77.38-4.68l.07,0h0c.45.23,2.59,1.16,8.94,2.12h0c7.2,1.08,19.8,2.2,41.45,2.36H190c3,0,6.06.06,9.19.06,5.72,0,11.25-.07,16.5-.2Z"/></g><g class="cls-5"><path class="cls-13" d="M233.73,69.49c-.18.91-2.27.77-3.32-1.25a25.18,25.18,0,0,0-4-5.18,3.39,3.39,0,0,1,2.31-1.14c1.13.13,3.43,6.35,3.39,6.43S232.87,69.76,233.73,69.49Z"/></g><g class="cls-5"><path class="cls-13" d="M263.67,75.09c-8-2.42-21.49-1-21.49-1l.08-.16c1.58-.39,3-.7,4.06-.93a12.34,12.34,0,0,1,2.5-.26C252.69,72.73,260.17,72.48,263.67,75.09Z"/></g><ellipse class="cls-15" cx="184.05" cy="83.55" rx="1.19" ry="1.13"/><ellipse class="cls-15" cx="201.5" cy="83.55" rx="1.19" ry="1.13"/><path class="cls-15" d="M192.87,86.16a5.65,5.65,0,0,1-3.23-1,.33.33,0,0,1,0-.48.38.38,0,0,1,.51-.06,4.84,4.84,0,0,0,2.77.81,5.27,5.27,0,0,0,2.84-.81.37.37,0,0,1,.51.07.33.33,0,0,1-.07.48A6,6,0,0,1,192.87,86.16Z"/><rect class="cls-16" y="0.25" width="300" height="165"/></g></g></svg>