<svg xmlns="http://www.w3.org/2000/svg" xmlns:xlink="http://www.w3.org/1999/xlink" viewBox="0 0 300 165.5"><defs><style>.cls-1{isolation:isolate;}.cls-2{fill:#fce5cd;}.cls-3{fill:#edc094;}.cls-4{fill:#42563b;}.cls-5{fill:#302b2b;}.cls-6{opacity:0.52;}.cls-10,.cls-11,.cls-14,.cls-17,.cls-6,.cls-8,.cls-9{mix-blend-mode:soft-light;}.cls-7{fill:#ea9649;}.cls-8{opacity:0.58;}.cls-9{opacity:0.39;}.cls-10{opacity:0.62;}.cls-11{opacity:0.28;}.cls-12{fill:#f7cda9;}.cls-13{fill:#ce3f0d;}.cls-14{opacity:0.49;}.cls-15{fill:#fff;}.cls-16{fill:#ffe8d9;}.cls-17{opacity:0.98;}.cls-18{fill:url(#linear-gradient);}</style><linearGradient id="linear-gradient" x1="150.37" y1="168.62" x2="149.66" y2="2.17" gradientUnits="userSpaceOnUse"><stop offset="0.03" stop-color="#591c16"/><stop offset="0.22" stop-color="#5f241d" stop-opacity="0.96"/><stop offset="0.38" stop-color="#733c33" stop-opacity="0.84"/><stop offset="0.53" stop-color="#936459" stop-opacity="0.64"/><stop offset="0.68" stop-color="#c09d8d" stop-opacity="0.36"/><stop offset="0.82" stop-color="#fae5cf" stop-opacity="0"/></linearGradient></defs><g class="cls-1"><g id="Layer_1" data-name="Layer 1"><rect class="cls-2" y="0.25" width="300" height="165"/><ellipse class="cls-3" cx="203.67" cy="89.53" rx="78.36" ry="5.94"/><path class="cls-4" d="M126.73,91.35a4,4,0,0,1-1.34-.41,4.13,4.13,0,0,1-.63-.37l-.31-.26a2,2,0,0,1-.31-.42,1,1,0,0,1-.12-.43,1.23,1.23,0,0,1,.06-.39,1.31,1.31,0,0,1,.31-.52,3,3,0,0,1,.68-.52,8.5,8.5,0,0,1,1.3-.56,25.13,25.13,0,0,1,2.57-.69c.86-.19,1.72-.35,2.57-.5,3.44-.58,6.88-1,10.32-1.32,6.88-.67,13.78-1.1,20.68-1.45,13.8-.68,27.61-1,41.42-1q10.35,0,20.71.18c6.91.14,13.81.34,20.71.67s13.81.75,20.7,1.41c3.45.34,6.89.73,10.34,1.32.86.15,1.72.31,2.58.51a20.14,20.14,0,0,1,2.61.75c.22.08.45.17.68.28A4.53,4.53,0,0,1,283,88a2.56,2.56,0,0,1,.39.36,1.61,1.61,0,0,1,.36.68,1.23,1.23,0,0,1,0,.47s0,.08,0,.12l0,.08c0,.06,0,.12,0,.16a1.45,1.45,0,0,1-.1.25,1.39,1.39,0,0,1-.11.21,3.2,3.2,0,0,1-1.19,1.18,3.08,3.08,0,0,1-1.51.4l-.29-1a6,6,0,0,0,.81-.74,3.18,3.18,0,0,0,.51-.74l0-.08a.11.11,0,0,0,0-.05h0v.12a.22.22,0,0,0,0,.08.33.33,0,0,0,.05.11l-.09-.08a4.55,4.55,0,0,0-.91-.44,17.15,17.15,0,0,0-2.37-.67c-.81-.19-1.65-.35-2.48-.5-3.36-.57-6.78-1-10.2-1.29-6.84-.65-13.72-1.06-20.6-1.39-13.76-.64-27.55-.92-41.33-.94s-27.58.16-41.35.75c-6.88.3-13.76.69-20.61,1.31-3.43.32-6.85.69-10.22,1.24-.85.14-1.69.29-2.52.47a23.19,23.19,0,0,0-2.42.64,7.15,7.15,0,0,0-1.08.45,1.38,1.38,0,0,0-.35.25s0,.05,0,0v-.08a.21.21,0,0,0,0-.12.58.58,0,0,0,.08.1,1.29,1.29,0,0,0,.16.18,5.67,5.67,0,0,0,.44.36c.31.24.64.48,1,.72Z"/><rect class="cls-5" x="248.11" y="90.48" width="3.48" height="18.7" rx="1.74" transform="translate(139.68 345.29) rotate(-87.61)"/><g class="cls-6"><path d="M240.5,99.35s4.23.61,8.82.8,9.78-.19,9.78-.19A33.36,33.36,0,0,1,240.5,99.35Z"/></g><rect class="cls-4" x="166.88" y="102.89" width="76.07" height="7.86" rx="2.29"/><path class="cls-7" d="M237.11,65.17l-.06.5h0c0,.31-.07.62-.12.93h0c0,.17,0,.34-.07.51-.23,1.7-.53,3.43-.86,5.1-.46,2.29-1,4.47-1.56,6.28h0c-.1.33-.21.65-.31.95a.78.78,0,0,0,0,.14s0,.09-.05.13a4.7,4.7,0,0,1-.17.45l-.08.22h0c0,.12-.09.23-.13.34l0,.07a1.19,1.19,0,0,1-.08.2c-.12.29-.25.55-.37.79l-.07.13-.21.37-.07.11-.23.33-.06.06c-.06.08-.13.15-.19.22l-.07.06a1,1,0,0,1-.48.25h-.37a2.65,2.65,0,0,1-.44-.07,9.48,9.48,0,0,1-1.69-.6l-.29-.13-.36-.17-.25-.12-.64-.33-.17-.08-.49-.27-.73-.4L226,81l-.56-.33-.58-.34-1.17-.73-.4-.26c-.47-.3-.95-.61-1.42-.93l-.41-.28-.42-.28-.41-.28c-.55-.38-1.1-.78-1.65-1.17l-1.25-.93c-.4-.29-.79-.59-1.17-.89l-.39-.31-.58-.46c-1-.8-2-1.61-2.81-2.38l-.39-.36-.37-.35c-.62-.59-1.17-1.16-1.65-1.69l-.13-.14-.15-.18c-1.2-1.4-1.84-2.58-1.6-3.32a3.41,3.41,0,0,1,.72-1.14l.14-.15h0l0,0,.19-.19.17-.15.21-.18.21-.18.23-.18.23-.17.26-.19.53-.35.29-.18.24-.15q.73-.45,1.59-.9l.28-.15.56-.28.59-.29c.59-.28,1.21-.56,1.85-.84l.44-.19.37-.15.17-.08.8-.32h0l.52-.21h0l.29-.11c7.1-2.72,15.33-4.62,17.12-3.5C237.67,55.77,237.69,60.1,237.11,65.17Z"/><g class="cls-8"><path d="M244.62,90.55c-.18,1.4-.38,2.8-.61,4.14-1.36,2.9-4.5,5.51-11.19,7.62a36.48,36.48,0,0,1-3.51,1.3,2.05,2.05,0,0,1-.68,1c-.84.57-2.91.77-5.76.69-13.12-.43-42.7-7.11-43.3-12.65-.86-8,26.2-32.7,35.14-35.43a7.13,7.13,0,0,1,2.09,2.41c.59-.26,1.19-.51,1.81-.75,2,2.81,4.19,8.45,6.12,14.84a2.55,2.55,0,0,0,3.51,1.57,52.06,52.06,0,0,1,6.18-2.45c.54-.23,1.07-.43,1.58-.63,3.59-1.36,6.43-1.92,7.39-1C245.65,73.36,245.66,82.21,244.62,90.55Z"/></g><path class="cls-7" d="M278.93,84.91c-1.34,1.23-9.7,1.36-17.15.61l-1.2-.13a42.21,42.21,0,0,1-8.23-1.62c-1.53-.53-2.53-1.14-2.7-1.84-.63-2.51,3.27-8.66,7.72-14.05.4-.49.81-1,1.23-1.45l.13-.15h0l.45-.51.28-.32.72-.8h0l.92-1c3-3.08,5.68-5.28,7-5.28s3.58,3.58,5.73,8.12c.59,1.23,1.17,2.54,1.72,3.86.08.21.16.41.25.61.44,1.1.87,2.21,1.26,3.3C278.87,79.4,279.93,84,278.93,84.91Z"/><g class="cls-8"><path d="M277,74.29l-11,2.43L264.64,76l-6.92-4-.35-4c.4-.49.81-1,1.23-1.45l.13-.15h0l.45-.51.28-.32.72-.8h0l.92-1s10.72,4.75,12.7,2.84c.59,1.23,1.17,2.54,1.72,3.86.08.21.16.41.25.61C276.21,72.09,276.64,73.2,277,74.29Z"/></g><g class="cls-9"><path d="M280.38,89.59c-.18,1.4-.38,2.8-.61,4.14a11,11,0,0,1-4.23,4.53,31.06,31.06,0,0,1-8.33,3.5l-1,.28h0a100,100,0,0,1-11.92-8.42h0c-2.64,3-5,5-6.29,5.17-2.57.22-9-10.3-13.13-19.37a.39.39,0,0,0-.72,0,.78.78,0,0,0,0,.14s0,.09-.05.13a4.7,4.7,0,0,1-.17.45l-.08.22h0c0,.12-.09.23-.13.34l0,.07a1.19,1.19,0,0,1-.08.2c-.12.29-.25.55-.37.79l-.07.13-.21.37-.07.11-.23.33-.06.06c-.06.08-.13.15-.19.22l-.07.06a1,1,0,0,1-.48.25h-.37a2.65,2.65,0,0,1-.44-.07,10.34,10.34,0,0,1-1.69-.6l-.29-.13-.36-.17-.25-.12-.64-.33-.17-.08-.49-.27-.73-.4L226,81l-.56-.33-.58-.34-1.17-.73-.4-.26c-.47-.3-.95-.61-1.42-.93l-.41-.28-.42-.28-.41-.28L219,76.36l-1.25-.93c-.4-.29-.79-.59-1.17-.89l-.39-.31-.58-.46c-1-.8-2-1.61-2.81-2.38l-.39-.36-.37-.35c-.62-.59-1.17-1.16-1.65-1.69l-.13-.14-.08-.1a.31.31,0,0,1-.09-.18c-.28-1.42-.56-2.83-.82-4.17a.39.39,0,0,1,.1-.34h0l0,0,.19-.19.17-.15.21-.18.21-.18.23-.18.23-.17.26-.19.53-.35.29-.18.24-.15q.73-.45,1.59-.9l.28-.15.56-.28.59-.29c.59-.28,1.21-.56,1.85-.84l.44-.19.37-.15.17-.08.8-.32h0l.49-.19,0,0a.67.67,0,0,1,.52.31c.94,1.67,4.87,7.89,11.26,8.59a.38.38,0,0,0,.4-.27,1.19,1.19,0,0,1,.25-.46c.58-.63,2.44-1.18,5-1.61a.39.39,0,0,1,.45.42h0c0,.31-.07.62-.12.93h0c0,.17,0,.34-.07.51h0l.73-.11,1.75-.22.61-.07,1.78-.17.79-.07.57,0,1.23-.08h.17l.74,0,.46,0,.46,0,.46,0c1.08-.05,2.17-.07,3.27-.09.93,0,1.86,0,2.78,0h0l1.78,0,.89,0,.89,0,.43,0,1.73.11a.42.42,0,0,0,.3-.13h0l.45-.51.28-.32.72-.8h0c4.46.47,8.72,2.51,9.21,3.93a4.68,4.68,0,0,1,.07,2.18c-.08.51-.78,1.74-.21,1.54s3.63-1.31,6.27-1.92c.08.21.16.41.25.61a16.75,16.75,0,0,1,3.34-.76l0,0C281.41,72.4,281.42,81.25,280.38,89.59Z"/></g><path class="cls-7" d="M243.47,91.89s0,.09,0,.13c-.16,1.3-.35,2.58-.56,3.82l0,.19a7.34,7.34,0,0,1-.57,1,13.3,13.3,0,0,1-5.39,4.52,38.38,38.38,0,0,1-7.62,2.78c-1.65-1-3.38-2.11-5.09-3.29-1.94-1.33-3.85-2.74-5.59-4.12l-1.35-1.1c-3.89-3.24-6.63-6.19-6.28-7.49.19-.7,1.26-1.8,2.91-3.1A88.94,88.94,0,0,1,226.5,77.4c1.51-.78,3-1.53,4.47-2.19l1.22-.55c4.8-2.09,8.85-3.22,10.05-2.09C244.5,74.71,244.51,83.56,243.47,91.89Z"/><g class="cls-10"><path d="M243.45,92c-.17,1.37-.37,2.71-.59,4-.94,2-2.74,3.88-6,5.54l-12.71-.51L222,101s-1.62-1.69-3.43-4c-2.44-3.17-5.23-7.55-4.9-10.63a9,9,0,0,1,.18-1.06A88.94,88.94,0,0,1,226.5,77.4S228.65,95.84,243.45,92Z"/></g><path class="cls-7" d="M226.66,104.29a1.56,1.56,0,0,1-.34.34,7.5,7.5,0,0,1-3.45.69A85.34,85.34,0,0,1,207,103.7h0c-13.59-2.39-29.27-7-29.7-11s6.43-12.54,14.45-20.2h0c8.83-8.44,19-15.91,22.39-15.45a1.77,1.77,0,0,1,.61.23,7.13,7.13,0,0,1,2.09,2.41c2.46,4,5.23,12,7.32,20.19.91,3.52,1.68,7.07,2.26,10.34C227.57,97,227.9,102.59,226.66,104.29Z"/><g class="cls-9"><path d="M260.43,85.69c-4.5,6.92-10.09,13.57-13,14.94a2.52,2.52,0,0,1-.82.25c-1,.09-2.55-1.42-4.34-3.83a95.66,95.66,0,0,1-9.56-17.28c-.69-1.62-1.29-3.17-1.76-4.56l1.22-.55c-1-2.94-1.3-5.15-.63-5.87s2.57-1.22,5.3-1.66l.74-.11.26,0,.14,0,.62-.07,1.78-.17.78-.06.57,0,1.24-.08h.16l.74,0,.46,0,.46,0,.46,0c1.08-.05,2.18-.08,3.27-.09.93,0,1.87,0,2.79,0h0l1.77,0,.9,0,.88,0,.44,0c.59,0,1.16.07,1.73.12h.16c5.24.41,9.29,1.34,9.83,2.92a2.41,2.41,0,0,1,.08.25C267.83,72.68,264.6,79.3,260.43,85.69Z"/></g><path class="cls-7" d="M268.12,73.18c-1,3.34-3.45,7.9-6.34,12.34-5,7.65-11.29,15-13.8,15.19a1.29,1.29,0,0,1-.53-.08c-1.13-.4-2.76-2.22-4.56-4.79a85.41,85.41,0,0,1-5-8.4c-1.38-2.61-2.69-5.32-3.77-7.84-.76-1.77-1.41-3.45-1.89-4.94-1-2.94-1.3-5.15-.63-5.87s2.57-1.22,5.3-1.66l.74-.11.26,0c.48-.07,1-.14,1.49-.19l.61-.07,1.78-.17.79-.07.57,0,1.23-.08h.17l.74,0,.46,0,.46,0,.46,0q1.62-.08,3.27-.09c.93,0,1.86,0,2.78,0h0l1.78,0,.89,0,.89,0,.43,0,1.73.11.17,0c5.24.41,9.29,1.34,9.83,2.92a1.82,1.82,0,0,1,.07.25A7.48,7.48,0,0,1,268.12,73.18Z"/><g class="cls-8"><path d="M268.12,73.18h0c-1,3.34-3.45,7.9-6.34,12.34-5,7.65-11.29,15-13.8,15.19a1.29,1.29,0,0,1-.53-.08c-1.13-.4-2.76-2.22-4.56-4.79a85.41,85.41,0,0,1-5-8.4c3.78,2.83,11-.34,11.73-2.9S268.12,73.18,268.12,73.18Z"/></g><path class="cls-7" d="M282.69,88.24c-.06.58-.13,1.15-.2,1.73-.18,1.41-.38,2.8-.61,4.14-1.51,3.23-5.22,6.1-13.57,8.31-.37-.21-.73-.43-1.1-.66a102,102,0,0,1-10.93-7.84c-3.9-3.24-6.63-6.19-6.28-7.49a7.28,7.28,0,0,1,2.35-2.66c1-.79,2.18-1.68,3.56-2.61A100.22,100.22,0,0,1,264.64,76a71.25,71.25,0,0,1,11.13-5,16.75,16.75,0,0,1,3.34-.76,2.78,2.78,0,0,1,2.15.42C283.37,72.64,283.52,80.44,282.69,88.24Z"/><g class="cls-11"><path d="M282.69,88.24c-.06.58-.13,1.15-.2,1.73-.18,1.41-.38,2.8-.61,4.14-1.51,3.23-5.22,6.1-13.57,8.31-.37-.21-.73-.43-1.1-.66a102,102,0,0,1-10.93-7.84c-3.9-3.24-6.63-6.19-6.28-7.49a7.28,7.28,0,0,1,2.35-2.66c1-.79,2.18-1.68,3.56-2.61C255.91,81.16,262.88,95.33,282.69,88.24Z"/></g><g class="cls-9"><path d="M226.66,104.29c-4.95-.14-12.17-.35-19.69-.59h0c-13.59-2.39-29.27-7-29.7-11s6.43-12.54,14.45-20.2c-.13.36-7.64,21.71,34.67,17.71C227.57,97,227.9,102.59,226.66,104.29Z"/></g><ellipse class="cls-12" cx="160.91" cy="75.58" rx="29.45" ry="8.69" transform="translate(-1.51 3.3) rotate(-1.17)"/><path class="cls-13" d="M190,78.24c.09,4.8-13,9-29.27,9.29s-28.5-4.42-28.6-9.21A3.9,3.9,0,0,1,134,75.2h0c4-3,14-4.8,26.35-5,12.08-.24,22.5,1.69,27.1,4.67h0C189,75.86,189.93,77,190,78.24Z"/><path class="cls-5" d="M131.79,78.53a5.09,5.09,0,0,1-.58-1,5.63,5.63,0,0,1-.36-1.14,3.48,3.48,0,0,1,.6-2.39,7.13,7.13,0,0,1,1.64-1.69A13.89,13.89,0,0,1,135,71a27.86,27.86,0,0,1,4.13-1.79c1.41-.49,2.84-.9,4.28-1.25a75,75,0,0,1,8.78-1.54c2.94-.35,5.9-.55,8.87-.63s5.93,0,8.9.18a72,72,0,0,1,8.86,1.13,44.23,44.23,0,0,1,4.37,1.08,24.48,24.48,0,0,1,4.26,1.68,12,12,0,0,1,2,1.28,6.19,6.19,0,0,1,1.69,2,4,4,0,0,1,.42,1.39,4.42,4.42,0,0,1-.1,1.31,5.75,5.75,0,0,1-.37,1.18,2.85,2.85,0,0,1-.84,1.1l-.79-.66c0-.25.07-.56.09-.88s0-.66.07-1c0-.16,0-.33,0-.49a1.7,1.7,0,0,0,0-.22c0-.06,0-.11,0-.17a1.92,1.92,0,0,0-.21-.71,4.29,4.29,0,0,0-1.17-1.35,10.5,10.5,0,0,0-1.7-1.09A23.72,23.72,0,0,0,182.66,70c-1.37-.42-2.77-.77-4.19-1.06a73.41,73.41,0,0,0-8.63-1.2c-2.91-.23-5.82-.32-8.74-.3s-5.84.17-8.75.46a71.83,71.83,0,0,0-8.64,1.34c-1.42.31-2.83.67-4.21,1.11a26.93,26.93,0,0,0-4,1.6,13,13,0,0,0-1.82,1.1,6.62,6.62,0,0,0-1.47,1.42,3.33,3.33,0,0,0-.44.86,2.34,2.34,0,0,0-.09.46,1.64,1.64,0,0,0,0,.23v.1l0,.12a4.55,4.55,0,0,0,.27,1,4.75,4.75,0,0,0,.46.9Z"/><g class="cls-8"><path d="M190,78.24c.09,4.8-13,9-29.27,9.29s-28.5-4.42-28.6-9.21A3.9,3.9,0,0,1,134,75.2c0,.06-.43,2.48,1.39,3.27s23.9,8.11,49.89.41c3-.79,3-3.45,2.2-4C189,75.86,189.93,77,190,78.24Z"/></g><path class="cls-5" d="M190.64,74.82c.3,14.4-12.77,26.34-29.17,26.67S131.52,90.43,131.23,76c.1,4.86,13.48,8.52,29.88,8.19S190.74,79.67,190.64,74.82Z"/><g class="cls-14"><path class="cls-15" d="M131.49,77.15s5.58,11,45.73,5.51C177.29,82.65,137.4,92.68,131.49,77.15Z"/></g><circle class="cls-16" cx="151.19" cy="74.91" r="1.3"/><circle class="cls-16" cx="170.26" cy="73.72" r="1.3"/><path class="cls-16" d="M160.62,77.5a6.14,6.14,0,0,1-3.3-.92.57.57,0,0,1,.66-.94,5.16,5.16,0,0,0,3,.7,5.38,5.38,0,0,0,2.94-1.08.57.57,0,1,1,.75.87A6.51,6.51,0,0,1,161,77.49Z"/><path class="cls-4" d="M282.81,89.43a10.79,10.79,0,0,1-.93,4.68c-1.51,3.23-5.22,6.1-13.57,8.31-11.21,3-30.76,4.81-64.56,4.81-73.32,0-79.06-8-79.06-17.8,0,3.31,35.4,6,79.06,6,20.16,0,38.56-.57,52.53-1.51,14.61-1,24.37-2.38,26.21-4A.75.75,0,0,0,282.81,89.43Z"/><g class="cls-6"><path d="M166.83,104.92s17.3,1.18,36,1.18,39.71-1.64,39.71-1.64S208.77,112.62,166.83,104.92Z"/></g><g class="cls-14"><path class="cls-15" d="M125.31,90.2s14.26,7.61,121.38,4.4C246.86,94.59,140.19,100.88,125.31,90.2Z"/></g><g class="cls-17"><ellipse class="cls-15" cx="213.68" cy="62.76" rx="2.69" ry="4.18" transform="translate(-7.21 91.12) rotate(-23.68)"/></g><g class="cls-17"><ellipse class="cls-15" cx="238.09" cy="71.41" rx="4.18" ry="2.69" transform="translate(-10.34 63.05) rotate(-14.77)"/></g><g class="cls-17"><ellipse class="cls-15" cx="276.01" cy="74.26" rx="3.87" ry="1.78" transform="translate(-9.81 72.81) rotate(-14.77)"/></g><g class="cls-17"><ellipse class="cls-15" cx="243.47" cy="68.53" rx="1.11" ry="1.72" transform="translate(127.71 293.41) rotate(-78.48)"/></g><g class="cls-17"><ellipse class="cls-15" cx="268.08" cy="61.03" rx="1.11" ry="1.72" transform="translate(154.75 311.52) rotate(-78.48)"/></g><g class="cls-17"><ellipse class="cls-15" cx="212.1" cy="68.01" rx="1.5" ry="1.77" transform="matrix(0.92, -0.4, 0.4, 0.92, -9.45, 90.93)"/></g><g class="cls-17"><ellipse class="cls-15" cx="235.17" cy="57.82" rx="1.5" ry="1.77" transform="translate(-3.42 99.34) rotate(-23.68)"/></g><rect class="cls-18" y="0.25" width="300" height="165"/></g></g></svg>