<svg xmlns="http://www.w3.org/2000/svg" xmlns:xlink="http://www.w3.org/1999/xlink" viewBox="0 0 300 165.5"><defs><style>.cls-1{isolation:isolate;}.cls-2{fill:#fce5cd;}.cls-3{fill:#6f8dad;}.cls-4{opacity:0.52;}.cls-10,.cls-4{mix-blend-mode:soft-light;}.cls-5{fill:#fff;}.cls-6{fill:#f7d1a9;}.cls-7{fill:#a87028;}.cls-8{fill:#dd9957;}.cls-9{fill:#ffead9;}.cls-10{opacity:0.49;}.cls-11{fill:#ffdfbd;}.cls-12{fill:url(#linear-gradient);}</style><linearGradient id="linear-gradient" x1="150.37" y1="168.62" x2="149.66" y2="2.17" gradientUnits="userSpaceOnUse"><stop offset="0.03" stop-color="#591c16"/><stop offset="0.22" stop-color="#5f241d" stop-opacity="0.96"/><stop offset="0.38" stop-color="#733c33" stop-opacity="0.84"/><stop offset="0.53" stop-color="#936459" stop-opacity="0.64"/><stop offset="0.68" stop-color="#c09d8d" stop-opacity="0.36"/><stop offset="0.82" stop-color="#fae5cf" stop-opacity="0"/></linearGradient></defs><g class="cls-1"><g id="Layer_1" data-name="Layer 1"><rect class="cls-2" y="0.25" width="300" height="165"/><path class="cls-3" d="M279.34,73.44h0a27.18,27.18,0,0,1-12,10.45A28.73,28.73,0,0,1,265,81.44c-6.81-7.93-8.08-18.21-4.34-24.08a11.46,11.46,0,0,1,1-1.33c3.31-3.87,9.38-6.26,14.2-3.58a9.78,9.78,0,0,1,2.74,2.29h0a16.61,16.61,0,0,1,3.34,7.92A17.06,17.06,0,0,1,279.34,73.44Z"/><g class="cls-4"><path d="M279.34,62.17s-3.46-10.55-11.46,0c.44,2.08,3.18-1.55,5.75-1.21A51.28,51.28,0,0,1,279.34,62.17Z"/></g><g class="cls-4"><path class="cls-5" d="M278.54,54.74c-6.16-4.67-14.59,1.9-14.59,1.9s-1-.22-2.35-.61c3.31-3.87,9.38-6.26,14.2-3.58A9.78,9.78,0,0,1,278.54,54.74Z"/></g><g class="cls-4"><path class="cls-5" d="M271.9,61.4s1.73-1.3,7.44,1c1,5.53-6.21,11.94-8.47,13s-2.2-13.22-2.2-13.22Z"/></g><ellipse class="cls-6" cx="218.04" cy="64.93" rx="53.34" ry="18.56"/><ellipse class="cls-7" cx="218.04" cy="65.96" rx="53.34" ry="18.56"/><ellipse class="cls-8" cx="218.37" cy="66.29" rx="51.29" ry="15.6"/><ellipse class="cls-8" cx="218.2" cy="66.29" rx="51.29" ry="15.6"/><ellipse class="cls-8" cx="218.2" cy="66.12" rx="51.29" ry="15.6"/><ellipse class="cls-8" cx="218.2" cy="65.95" rx="51.29" ry="15.6"/><ellipse class="cls-7" cx="218.28" cy="66.07" rx="46.7" ry="14.27"/><ellipse class="cls-8" cx="218.64" cy="66.33" rx="41.65" ry="11.76"/><g class="cls-4"><path d="M279.34,73.44h0a27.18,27.18,0,0,1-12,10.45A28.73,28.73,0,0,1,265,81.44a6.91,6.91,0,0,1,1.25-.07c4.46.18,13-7.79,13.14-7.93Z"/></g><path class="cls-3" d="M165.46,69.68a11.28,11.28,0,0,1-.87-2,13.77,13.77,0,0,1-.57-2,7.57,7.57,0,0,1-.12-1.09,7.56,7.56,0,0,1,.7-3.17A11.64,11.64,0,0,1,167.11,58a21.28,21.28,0,0,1,3.3-2.63,41.53,41.53,0,0,1,7.47-3.77A72,72,0,0,1,185.81,49a115.41,115.41,0,0,1,16.37-3,148.72,148.72,0,0,1,16.61-.91,144.3,144.3,0,0,1,16.62.94,110.43,110.43,0,0,1,16.38,3.08,66.22,66.22,0,0,1,7.94,2.69,37.21,37.21,0,0,1,7.44,4,18,18,0,0,1,3.21,2.92,10,10,0,0,1,2.14,3.94,7.51,7.51,0,0,1,.24,2.31,15.28,15.28,0,0,1-.28,2.14,13.19,13.19,0,0,1-.56,2.09q-.19.51-.45,1a4.32,4.32,0,0,1-.67,1l-.74-.55a5.1,5.1,0,0,0,.3-.86c.09-.3.15-.62.22-.94.12-.64.21-1.3.29-2s.13-1.33.16-2a6,6,0,0,0-.18-1.8,8.55,8.55,0,0,0-1.77-3.28,17.08,17.08,0,0,0-2.9-2.65,35.19,35.19,0,0,0-7.09-3.86,66.43,66.43,0,0,0-7.73-2.65,108.85,108.85,0,0,0-16.13-3.11,153.22,153.22,0,0,0-16.44-1,148.47,148.47,0,0,0-16.47.75,111.12,111.12,0,0,0-16.22,2.8,71.26,71.26,0,0,0-7.85,2.43,40.86,40.86,0,0,0-7.34,3.58,20.49,20.49,0,0,0-3.21,2.48,11.23,11.23,0,0,0-2.38,3.17,7.39,7.39,0,0,0-.59,1.87,8,8,0,0,0-.09,1,5.51,5.51,0,0,0,.1,1,13.61,13.61,0,0,0,.5,2,11.52,11.52,0,0,0,.8,1.83Z"/><path class="cls-3" d="M271.9,64.6c0,30.75-24.09,55.67-53.81,55.67S164.27,95.35,164.27,64.6c0,10.37,24.1,18.77,53.82,18.77S271.9,75,271.9,64.6Z"/><g class="cls-4"><path d="M201.92,117.79a151.45,151.45,0,0,0,16,.93,151.6,151.6,0,0,0,17.68-1.29A51.75,51.75,0,0,1,201.92,117.79Z"/></g><circle class="cls-9" cx="207.63" cy="99.59" r="1.7"/><circle class="cls-9" cx="232.63" cy="99.59" r="1.7"/><path class="cls-9" d="M220.27,103.53a7.82,7.82,0,0,1-4.62-1.43.52.52,0,1,1,.65-.81,6.93,6.93,0,0,0,4,1.21,7.38,7.38,0,0,0,4.07-1.22.51.51,0,0,1,.72.1.5.5,0,0,1-.1.72A8.17,8.17,0,0,1,220.27,103.53Z"/><g class="cls-10"><path class="cls-5" d="M164.7,67s9.7,23.8,82.62,13.75C247.43,80.74,174.83,100.4,164.7,67Z"/></g><path class="cls-11" d="M217.17,58.6l-4.36-2.66c-3.14-1.92.14-3.8,3.28-1.88,1.78-2.14,5.43-.69,3.65,1.45Z"/><path class="cls-11" d="M217,67.74l-7.12-4.34c-4.2-3.57.23-6.37,7.73-1.79,4.67-4.3,12.31-3.49,8.37,1.27l-4.22,4.21C220.45,68.65,218.79,68.84,217,67.74Z"/><path class="cls-11" d="M202.56,62.05a.16.16,0,0,1,.31,0c.61,2.76,3.61,9.56,18.47,8.32s11.06-9.68,11.32-12.52c0,0,6.88,12.83-11.13,14.67C203.25,74.36,202.32,65.31,202.56,62.05Z"/><rect class="cls-12" y="0.25" width="300" height="165"/></g></g></svg>