<svg xmlns="http://www.w3.org/2000/svg" xmlns:xlink="http://www.w3.org/1999/xlink" viewBox="0 0 300 165.5"><defs><style>.cls-1{isolation:isolate;}.cls-2{fill:#fce5cd;}.cls-3{fill:#edc094;}.cls-4{fill:#ea6726;}.cls-5{fill:#f4d7c9;}.cls-10,.cls-12,.cls-15,.cls-16,.cls-6{mix-blend-mode:soft-light;}.cls-7{fill:#fff;}.cls-8{fill:#00922b;}.cls-9{fill:#36753c;}.cls-10{opacity:0.23;}.cls-11{fill:#ea9807;}.cls-12{opacity:0.81;}.cls-13{fill:#fe6702;}.cls-14{fill:#3f240f;}.cls-15{opacity:0.52;}.cls-16{opacity:0.49;}.cls-17{fill:url(#linear-gradient);}</style><linearGradient id="linear-gradient" x1="150.37" y1="168.62" x2="149.66" y2="2.17" gradientUnits="userSpaceOnUse"><stop offset="0.03" stop-color="#591c16"/><stop offset="0.22" stop-color="#5f241d" stop-opacity="0.96"/><stop offset="0.38" stop-color="#733c33" stop-opacity="0.84"/><stop offset="0.53" stop-color="#936459" stop-opacity="0.64"/><stop offset="0.68" stop-color="#c09d8d" stop-opacity="0.36"/><stop offset="0.82" stop-color="#fae5cf" stop-opacity="0"/></linearGradient></defs><g class="cls-1"><g id="Layer_1" data-name="Layer 1"><rect class="cls-2" y="0.25" width="300" height="165"/><ellipse class="cls-3" cx="201.71" cy="93.99" rx="79" ry="5.02"/><path class="cls-4" d="M124.15,95.5a4.75,4.75,0,0,1-1.34-.36,4,4,0,0,1-.62-.31,2.18,2.18,0,0,1-.31-.22,1.49,1.49,0,0,1-.31-.34.72.72,0,0,1-.11-.34.8.8,0,0,1,.05-.32,1.07,1.07,0,0,1,.31-.42,2.52,2.52,0,0,1,.67-.43,8.88,8.88,0,0,1,1.3-.47c.86-.25,1.73-.42,2.59-.59s1.72-.29,2.59-.42c3.46-.49,6.92-.82,10.39-1.11,6.94-.56,13.9-.93,20.85-1.22,13.91-.57,27.83-.81,41.75-.84q10.44,0,20.89.15c7,.12,13.92.29,20.88.57s13.91.63,20.86,1.19c3.47.29,6.94.61,10.41,1.11.87.13,1.73.27,2.6.43a23.84,23.84,0,0,1,2.63.63l.67.24a4.64,4.64,0,0,1,.71.35,2.36,2.36,0,0,1,.38.3,1.24,1.24,0,0,1,.35.54,1,1,0,0,1,0,.39,1,1,0,0,1-.07.28,2.24,2.24,0,0,1-.2.38,3.11,3.11,0,0,1-1.18,1,3.15,3.15,0,0,1-.73.25,2.78,2.78,0,0,1-.76.09l-.26-.76a7.63,7.63,0,0,0,.84-.61,2.82,2.82,0,0,0,.54-.65l.05-.12h0a.23.23,0,0,0,0,.12c0,.07,0,.08,0,.07l-.1-.07a1.83,1.83,0,0,0-.42-.2c-.16-.07-.34-.13-.52-.19a23.87,23.87,0,0,0-2.39-.57c-.83-.15-1.67-.29-2.52-.41-3.38-.49-6.83-.81-10.28-1.09-6.9-.56-13.83-.91-20.77-1.18q-20.82-.81-41.68-.79c-13.9,0-27.8.14-41.68.64-6.94.25-13.88.58-20.79,1.11-3.45.27-6.9.59-10.31,1-.85.12-1.69.25-2.53.4s-1.67.32-2.45.54a8.81,8.81,0,0,0-1.1.38,1.73,1.73,0,0,0-.36.23s0,0,0,0,0,0,0,0,0-.09,0-.08a.38.38,0,0,0,.08.09l.18.15.44.31,1,.6Z"/><path class="cls-5" d="M201.38,92.37a26,26,0,0,1-2.07,5.6,28,28,0,0,1-2,3.4H136.34A26.7,26.7,0,0,1,132.17,92c-.41-1.82-1-3.61-.69-5.34,2.19-13.43,10.08-24.44,29-27.45,14.92-2.37,25.74,1.71,32.89,9l0-.05c3.59,3.63,6.88,7.54,8.09,12.9A24.65,24.65,0,0,1,201.38,92.37Z"/><g class="cls-6"><path d="M200.91,101.37H136.34A26.7,26.7,0,0,1,132.17,92a27.92,27.92,0,0,1-.69-5.34s2.82,10,47,8.62c11.89-.38,18.14.8,20.83,2.7A3.25,3.25,0,0,1,200.91,101.37Z"/></g><g class="cls-6"><ellipse class="cls-7" cx="172.67" cy="63.11" rx="3.1" ry="6.21" transform="translate(97.32 230.8) rotate(-85.88)"/></g><path class="cls-8" d="M170.1,63.48a.8.8,0,0,1-.5.38.73.73,0,0,0-.52.39c-.2.45.29.79.16,1.31a1.55,1.55,0,0,1-1.83.91c-.74-.27-.64-1.3-1.44-1.56-.53-.17-.83.18-1.2-.09s-.16-.53-.51-1.22-.69-.75-.72-1.2a1,1,0,0,1,.59-1c.43-.15.62.28,1.24.3h.21c.66-.1.94-.69,1.47-.53.38.11.3.45.77.71.67.37,1.14-.14,1.71.2A1.3,1.3,0,0,1,170.1,63.48Z"/><path class="cls-8" d="M161.21,66c-.53-.16-.9-1.07-1.47-1.21-.37-.09-.39.25-.71.06s-.31-.45-.8-1-.71-.59-.92-1-.24-.79-.09-.94.47.18.82.12.31-.76.71-.67.37.36.74.53h0a.68.68,0,0,0,.21.06h0c.33,0,.42-.28.82-.08a2.13,2.13,0,0,1,.91,1.16.39.39,0,0,1-.12.4.42.42,0,0,0-.12.41c.08.42.5.66.64,1.13S161.7,66.09,161.21,66Z"/><path class="cls-8" d="M160,63.55s4.7.21,6-3.83l-.45-.3s-.63,3.48-5.77,3.68C159.63,63.75,160,63.55,160,63.55Z"/><g class="cls-6"><path class="cls-7" d="M170.1,63.48a.8.8,0,0,1-.5.38c.16-1.38-3.83-2.17-4-2.16.66-.1.94-.69,1.47-.53.38.11.3.45.77.71.67.37,1.14-.14,1.71.2A1.3,1.3,0,0,1,170.1,63.48Z"/></g><g class="cls-6"><path class="cls-7" d="M161.45,63a.39.39,0,0,1-.12.4.83.83,0,0,1,0-.12,2.45,2.45,0,0,0-1.57-1.36c.33,0,.42-.28.82-.08A2.13,2.13,0,0,1,161.45,63Z"/></g><path class="cls-9" d="M264.8,98.81c-2.26.75-32.6,7.62-41.41,9.61L221,109h0l-.3-.1-1.23-.42c-4.94-1.66-20.28-6.85-23.08-8-3.35-1.39-2-1.36-3.42-4.07S191,76,191,76l.57-.18,34.4-11.38s43.6,11.45,44.42,15.12S267.44,97.93,264.8,98.81Z"/><g class="cls-10"><path d="M264.8,98.81c-2.62.87-43.15,10-43.78,10.15,47.28-13.19,49.34-29.39,49.34-29.39C271.18,83.23,267.44,97.93,264.8,98.81Z"/></g><path class="cls-11" d="M271.19,78.57c-.44,1.84-5.54,2.17-12,3-8.76,1.16-17.14,2.27-25.76,4.91-5.13,1.58-9.14,3.33-14.79,2.65a39.55,39.55,0,0,1-6.21-1.42,43.08,43.08,0,0,1-10.5-4.25c-2.73-1.61-2.28-1.86-5.35-3.79-5.63-3.54-8.07-3.27-8.33-4.64-.31-1.6,3-2.63,9.61-5.56h0c2.71-1.2,6-2.71,9.81-4.7a31.67,31.67,0,0,1,10.56-3.62,22.49,22.49,0,0,1,6.19-.2,23.62,23.62,0,0,1,9.9,3.71c4.37,2.6,3.5,3.38,6,4.45,6.16,2.68,10.38-2.71,18-.56a13.91,13.91,0,0,1,4.05,2c1.66,1.1,3.55,2.64,6.14,4.74C270.82,77.15,271.35,77.88,271.19,78.57Z"/><g class="cls-10"><path d="M220.6,107.6c0,.45.08.87.11,1.26l-1.23-.42c-4.94-1.66-20.28-6.85-23.08-8-3.35-1.39-2-1.36-3.42-4.07S191,76,191,76l.57-.18.9,1.6s-1.65,22.88,26.49,29.75c-2.43-5.71-6-14.74-4.64-15.35,2.06-.89,3.48-2.73,4.36-2.67C219.29,89.2,220.07,101.15,220.6,107.6Z"/></g><g class="cls-10"><path d="M223.39,108.42,221,109h0l-.3-.1c0-.39-.07-.81-.11-1.26C221.63,107.88,222.55,108.15,223.39,108.42Z"/></g><g class="cls-10"><path d="M271.19,78.57c-.44,1.84-5.54,2.17-12,3-8.76,1.16-17.14,2.27-25.76,4.91-5.13,1.58-9.14,3.33-14.79,2.65a39.55,39.55,0,0,1-6.21-1.42,43.08,43.08,0,0,1-10.5-4.25c-2.73-1.61-2.28-1.86-5.35-3.79-5.63-3.54-8.07-3.27-8.33-4.64-.31-1.6,3-2.63,9.61-5.56h0s-3,16.34,23.3,16.47c41-4,41.21-15.43,41.21-15.43,1.66,1.1,3.55,2.64,6.14,4.74C270.82,77.15,271.35,77.88,271.19,78.57Z"/></g><g class="cls-12"><ellipse class="cls-7" cx="225.96" cy="65.04" rx="1.82" ry="6.53" transform="translate(102.73 265.29) rotate(-74.45)"/></g><g class="cls-12"><ellipse class="cls-7" cx="230.79" cy="70.75" rx="1.82" ry="3.26" transform="translate(109.03 279.18) rotate(-76.75)"/></g><g class="cls-12"><ellipse class="cls-7" cx="256.22" cy="70.95" rx="1.82" ry="3.26" transform="translate(128.44 304.09) rotate(-76.75)"/></g><path class="cls-13" d="M234.87,55.91a35.83,35.83,0,0,1-2.8,2.42,22.82,22.82,0,0,1-3.93,2.54c-.54.28-1.08.52-1.61.74s-1.12.42-1.67.61c-1.61.53-3.25.94-5.1,1.53-.68.21-1.39.45-2.13.73-.54.21-1.09.43-1.67.68h0c-.93.39-1.92.86-3,1.42a41.73,41.73,0,0,1-9.23,3.07c-.8.19-1.53.34-1.64.16-.33-.51,4.81-3.31,7.66-4.83l1.21-.63.06,0,1.33-.69c1.41-.73,3.06-1.57,4.83-2.44h0l1-.52,1.33-.65.73-.35h0c7.2-3.48,15-6.89,15.85-5.89C236.48,54.13,235.78,55,234.87,55.91Z"/><g class="cls-10"><path d="M239.73,63.72a91.69,91.69,0,0,1-10.33.66c-3,.08-7.36.14-11.77.1-.54.21-1.09.43-1.67.68h0c-2.15,0-4.26-.09-6.19-.18l1.21-.63c-4.59-.17-8.35-.52-9.36-1.14a3.85,3.85,0,0,1,1.11-.58,37.21,37.21,0,0,1,5-1.27,25.29,25.29,0,0,1,9.49-.18h0c2.27.34,4.56.83,7.66,1,1.27.08,2.69.12,4.29.07a42.79,42.79,0,0,1,8.67,1l1.15.25Z"/></g><g class="cls-10"><path d="M239.85,63.08c-.56.09-1.26.15-2,.21-2.68.21-6.2.3-7.66.34-2.67.07-6.46.13-10.4.12-2.49,0-5,0-7.39-.13-4.43-.15-8.19-.44-9.64-1-.36-.13-.58-.28-.62-.45a30.46,30.46,0,0,1,5.53-1.51,26.39,26.39,0,0,1,10.6,0l1.33-.65a48.72,48.72,0,0,0,8.57.86c-.54.28-1.08.52-1.61.74.79,0,1.64,0,2.55,0a44.94,44.94,0,0,1,9.83,1.25C239.26,62.93,239.59,63,239.85,63.08Z"/></g><path class="cls-13" d="M240.42,63.41c0,.12-.26.22-.69.31h0a91.69,91.69,0,0,1-10.33.66c-3,.08-7.36.14-11.77.1-2.27,0-4.55,0-6.65-.13-4.59-.17-8.35-.52-9.36-1.14a.51.51,0,0,1-.28-.33c0-.23.29-.47.77-.7a13.7,13.7,0,0,1,2.33-.79h0c1.39-.37,2.8-.65,3.19-.72a26.39,26.39,0,0,1,10.6,0c1.46.24,3,.52,4.76.71h0l.37,0h.09c.93.09,1.93.16,3,.19.79,0,1.64,0,2.55,0a44.94,44.94,0,0,1,9.83,1.25c.35.08.68.15.94.23S240.43,63.29,240.42,63.41Z"/><g class="cls-12"><path class="cls-7" d="M234.87,55.91c.82-2.82-13.81,3.43-14.54,3.74,7.2-3.48,15-6.89,15.85-5.89C236.48,54.13,235.78,55,234.87,55.91Z"/></g><g class="cls-12"><path class="cls-7" d="M218.24,60.66c1.46.24,3,.52,4.76.71-11.79-1.21-18.34,0-18.55,0,1.39-.37,2.8-.65,3.19-.72A26.39,26.39,0,0,1,218.24,60.66Z"/></g><g class="cls-12"><path class="cls-7" d="M223.49,61.42h0Z"/></g><ellipse class="cls-14" cx="211.94" cy="78.6" rx="1.59" ry="1.33"/><ellipse class="cls-14" cx="232.24" cy="77.19" rx="1.59" ry="1.33"/><path class="cls-14" d="M221.82,81a8.25,8.25,0,0,1-3.79-.85.4.4,0,0,1-.14-.62.59.59,0,0,1,.74-.12h0a7.78,7.78,0,0,0,7.42-.53.62.62,0,0,1,.76,0,.4.4,0,0,1,0,.63A8.55,8.55,0,0,1,222.48,81C222.25,81,222,81,221.82,81Z"/><path class="cls-4" d="M239.19,111.92H166.75a2,2,0,0,1-2.13-1.79v-3.07a2,2,0,0,1,2.13-1.78h72.44a2,2,0,0,1,2.12,1.78v3.07A2,2,0,0,1,239.19,111.92Z"/><path class="cls-4" d="M281.49,93.9c0,8.31-8.51,15-79.71,15-73.92,0-79.7-6.74-79.7-15,0,2.8,35.68,5.07,79.7,5.07S281.49,96.7,281.49,93.9Z"/><g class="cls-15"><path d="M164.56,107s17.44,1,36.32,1,40-1.39,40-1.39S206.85,113.5,164.56,107Z"/></g><g class="cls-16"><path class="cls-7" d="M122.71,94.55s14.37,6.43,122.36,3.72C245.25,98.26,137.71,103.58,122.71,94.55Z"/></g><rect class="cls-17" y="0.25" width="300" height="165"/></g></g></svg>