<svg xmlns="http://www.w3.org/2000/svg" xmlns:xlink="http://www.w3.org/1999/xlink" viewBox="0 0 300 165.5"><defs><style>.cls-1{isolation:isolate;}.cls-2{fill:#fce5cd;}.cls-3{fill:#f2cead;}.cls-4{fill:#f95d5d;}.cls-5{fill:#ffb564;}.cls-6{fill:#ff9b1d;}.cls-7{opacity:0.41;}.cls-10,.cls-11,.cls-12,.cls-13,.cls-15,.cls-7{mix-blend-mode:soft-light;}.cls-8{fill:#ad5625;}.cls-9{fill:#ffe8d9;}.cls-10{opacity:0.44;}.cls-11{opacity:0.48;}.cls-12{opacity:0.52;}.cls-13{opacity:0.49;}.cls-14{fill:#fff;}.cls-15{opacity:0.43;}.cls-16{fill:url(#linear-gradient);}</style><linearGradient id="linear-gradient" x1="150.37" y1="168.62" x2="149.66" y2="2.17" gradientUnits="userSpaceOnUse"><stop offset="0.03" stop-color="#591c16"/><stop offset="0.22" stop-color="#5f241d" stop-opacity="0.96"/><stop offset="0.38" stop-color="#733c33" stop-opacity="0.84"/><stop offset="0.53" stop-color="#936459" stop-opacity="0.64"/><stop offset="0.68" stop-color="#c09d8d" stop-opacity="0.36"/><stop offset="0.82" stop-color="#fae5cf" stop-opacity="0"/></linearGradient></defs><g class="cls-1"><g id="Layer_1" data-name="Layer 1"><rect class="cls-2" y="0.25" width="300" height="165"/><ellipse class="cls-3" cx="210.65" cy="78.46" rx="64.81" ry="13.11"/><path class="cls-4" d="M146.87,82a7.59,7.59,0,0,1-1.4-2,5.39,5.39,0,0,1-.44-1.14,2.76,2.76,0,0,1-.1-.66,3.5,3.5,0,0,1,.07-.65,4.58,4.58,0,0,1,1.23-2.15,10.07,10.07,0,0,1,1.84-1.5,25,25,0,0,1,4.16-2.11c1.43-.57,2.89-1.07,4.36-1.52,2.94-.88,5.93-1.58,8.94-2.19s6-1.09,9.05-1.52c6.07-.84,12.17-1.4,18.27-1.78s12.22-.56,18.34-.57,12.24.14,18.35.5,12.21.91,18.28,1.74c3,.42,6.07.91,9.08,1.51a87.81,87.81,0,0,1,9,2.22,45.09,45.09,0,0,1,4.38,1.59c.72.31,1.44.64,2.14,1a16,16,0,0,1,2.05,1.3,7.88,7.88,0,0,1,1.8,1.84,4.1,4.1,0,0,1,.61,1.28A3.72,3.72,0,0,1,277,78c0,.13,0,.25,0,.38s0,.24,0,.35a8,8,0,0,1-.25,1.24,7.67,7.67,0,0,1-.44,1.18,5.56,5.56,0,0,1-.66,1.09,3.45,3.45,0,0,1-1,.9l-.59-.77a5.88,5.88,0,0,0,.78-1.8,12.19,12.19,0,0,0,.39-2,1.77,1.77,0,0,0,0-.22v-.19a2.66,2.66,0,0,0-.07-.39,2.85,2.85,0,0,0-.37-.77,6.38,6.38,0,0,0-1.39-1.41,18.64,18.64,0,0,0-3.8-2.11,43.16,43.16,0,0,0-4.21-1.55,89.65,89.65,0,0,0-8.79-2.21c-3-.6-6-1.1-9-1.52a276.66,276.66,0,0,0-36.4-2.41q-9.13-.06-18.26.42c-6.08.32-12.15.83-18.19,1.61-3,.39-6,.85-9,1.4s-5.95,1.22-8.86,2.06c-1.46.42-2.9.89-4.3,1.44a23.14,23.14,0,0,0-4,2A8.76,8.76,0,0,0,146.82,76a3.72,3.72,0,0,0-1,1.75,2,2,0,0,0-.06.49,2.09,2.09,0,0,0,.06.47,5,5,0,0,0,.37,1,6.94,6.94,0,0,0,1.22,1.78Z"/><polygon class="cls-5" points="175.53 56.2 184.41 79.59 188.92 78.92 180.04 55.53 175.53 56.2"/><polygon class="cls-6" points="172.62 58.93 181.5 82.32 184.41 79.58 175.53 56.2 172.62 58.93"/><polygon class="cls-6" points="188.92 78.92 185.45 82.33 181.5 82.32 184.41 79.58 188.92 78.92"/><polygon class="cls-5" points="176.02 59.99 163.05 71.9 159.68 75 156.37 72.68 161.17 68.27 172.72 57.67 176.02 59.99 176.02 59.99"/><polygon class="cls-6" points="177.25 63.31 164.61 74.92 160.9 78.32 159.68 75 163.05 71.9 176.02 59.99 176.02 59.99 177.25 63.31"/><polygon class="cls-6" points="160.9 78.32 157.76 76.76 156.37 72.68 159.68 75 160.9 78.32"/><polygon class="cls-5" points="214.18 74.91 211.54 76.59 211.54 76.59 209.69 77.76 209.68 77.77 207.34 75.4 203.64 71.67 203.64 71.67 199.17 67.16 189.09 56.99 189.09 56.99 193.59 54.14 200.84 61.45 205.3 65.95 205.31 65.96 209.01 69.69 214.18 74.91"/><polygon class="cls-6" points="209.69 77.76 209.68 77.77 208.11 81.49 208.11 81.49 207.87 82.07 192.95 67.01 187.28 61.29 189.09 56.99 189.09 56.99 196.42 64.39 209.69 77.76"/><polygon class="cls-6" points="214.18 74.91 212.96 78.02 212.84 78.31 212.1 80.2 208.44 81.81 208.43 81.82 208.16 81.94 208.16 81.94 207.87 82.07 207.99 81.78 208 81.77 208.11 81.49 208.11 81.49 209.68 77.77 209.69 77.76 211.29 76.74 211.54 76.59 211.54 76.59 214.18 74.91"/><g class="cls-7"><polygon points="210.1 49.51 205.31 65.96 203.64 71.67 203.64 71.67 202.26 76.4 200.61 82.05 200.61 82.05 199.07 81.97 194.91 81.76 195.51 79.69 197.79 71.9 199.17 67.16 199.17 67.16 200.84 61.45 204.41 49.23 210.1 49.51 210.1 49.51"/><polygon points="205.31 65.96 209.01 69.69 207.34 75.4 207.34 75.4 205.96 80.14 204.45 85.31 200.61 82.05 200.61 82.05 200.61 82.05 202.25 76.4 203.64 71.67 203.64 71.66 205.3 65.95 210.1 49.51 210.1 49.51 210.1 49.51 205.31 65.96"/><polygon points="204.45 85.31 200.06 85.8 199.49 85.87 198.18 84.69 198.17 84.69 194.91 81.76 199.07 81.97 200.61 82.05 200.61 82.05 200.61 82.05 204.45 85.31"/></g><polygon class="cls-5" points="209.56 49.15 200.06 81.69 200.06 81.69 198.52 81.61 194.36 81.4 194.97 79.32 203.86 48.86 209.56 49.15 209.56 49.15"/><polygon class="cls-6" points="213.4 52.41 203.91 84.95 200.06 81.69 209.56 49.15 213.4 52.41"/><polygon class="cls-6" points="203.91 84.95 199.52 85.44 198.95 85.5 197.63 84.32 197.63 84.32 194.36 81.4 198.52 81.61 200.06 81.68 200.06 81.69 200.06 81.69 203.91 84.95"/><path class="cls-8" d="M219.57,71.52c-3.47-1.61-3.74-4.45-6.26-4.54-2.37-.08-2.71,2.43-5.87,3-2.66.45-3.06-1.21-6.56-1.3-2.95-.07-3,1.1-7.26,1.67-3.85.53-4.49-.35-7,.54-1.68.61-5.09,2.35-5.12,4.2-.07,4.15,16.86,11.06,32,6.18,7.62-2.46,16.06-3.67,13.3-8.82C226.39,71.62,223.35,73.28,219.57,71.52Z"/><path class="cls-8" d="M259.36,73.5c-3-2.09-2.84-5.42-5.13-5.67s-2.8,2.66-5.75,3.11c-2.49.37-2.64-1.6-5.83-1.92-2.68-.26-2.92,1.1-6.85,1.52-3.58.37-4.05-.68-6.41.2-1.62.61-5,2.44-5.24,4.59-.6,4.83,13.95,13.92,28.4,9.15,7.28-2.41,15.15-3.32,13.31-9.49C265.57,74,262.57,75.78,259.36,73.5Z"/><path class="cls-9" d="M237.15,75.15c1.64.78,2.21,4,1.26,4.87-.45.4-.92,0-1.84.36-1.48.62-1.4,2.21-2.4,2.5S231,81.67,230.8,80C230.46,77.29,235,74.1,237.15,75.15Z"/><path class="cls-9" d="M211,66.77c1,.47,1.35,2.46.77,3-.28.24-.57,0-1.13.22-.9.37-.85,1.35-1.47,1.53s-1.92-.74-2.05-1.75C206.91,68.08,209.67,66.13,211,66.77Z"/><polygon class="cls-5" points="242.95 69.7 236.85 90.57 232.57 90.2 238.66 69.33 242.95 69.7"/><polygon class="cls-6" points="245.94 71.95 239.84 92.82 236.85 90.57 242.94 69.7 245.94 71.95"/><polygon class="cls-6" points="232.57 90.2 236.14 93.02 239.84 92.82 236.85 90.57 232.57 90.2"/><g class="cls-7"><polygon points="216.59 90.44 216.59 90.45 208.53 82.32 208.21 82 208.16 81.94 207.99 81.78 193.29 66.94 193.29 66.94 196.52 64.89 196.52 64.89 196.77 64.74 196.77 64.74 198.38 63.72 211.29 76.74 211.64 77.09 211.64 77.09 212.84 78.31 212.1 80.2 208.44 81.81 208.43 81.82 208.16 81.94 208.21 81.99 208.54 82.32 216.59 90.44"/><polygon points="216.59 90.44 216.59 90.45 208.53 82.32 207.97 82.57 193.05 67.52 193.17 67.23 193.29 66.94 193.29 66.94 208 81.77 208.16 81.94 208.21 81.99 208.54 82.32 216.59 90.44"/><polygon points="221.68 87.22 219.32 93.2 214.54 95.31 216.59 90.45 216.59 90.44 221.68 87.22"/></g><polygon class="cls-5" points="193.19 68.25 216.49 91.76 221.58 88.53 198.28 65.03 193.19 68.25"/><polygon class="cls-6" points="191.14 73.12 214.44 96.62 216.49 91.76 193.19 68.25 191.14 73.12"/><polygon class="cls-6" points="221.58 88.53 219.22 94.51 214.44 96.62 216.49 91.76 221.58 88.53"/><path class="cls-8" d="M153.94,78.19c3.16-1.56,3.4-4.34,5.69-4.41s2.5,2.39,5.39,2.94c2.43.47,2.78-1.16,6-1.23,2.7,0,2.79,1.1,6.65,1.69,3.51.53,4.1-.32,6.34.56,1.55.61,4.67,2.34,4.71,4.15.09,4.07-15.34,10.75-29.17,5.87-7-2.46-14.7-3.7-12.2-8.74C147.71,78.25,150.5,79.89,153.94,78.19Z"/><g class="cls-10"><polygon points="157.76 76.76 156.37 72.68 161.17 68.27 163.05 71.9 164.61 74.92 160.9 78.32 157.76 76.76"/><polygon points="148.61 60.16 148.61 60.16 148.61 60.16 148.61 60.16"/></g><polygon class="cls-5" points="232.61 78.87 231.4 78.79 231.4 78.79 226.6 78.47 226.59 78.47 226.19 75.79 221.65 45.75 221.65 45.75 227.66 46.15 232.27 76.64 232.61 78.87"/><polygon class="cls-6" points="217.12 48.47 222.07 81.19 226.6 78.47 221.65 45.75 217.12 48.47"/><polygon class="cls-6" points="232.61 78.87 231.1 79.83 231.1 79.83 227.18 82.31 222.9 81.37 222.07 81.19 223.13 80.55 226.6 78.47 231.4 78.79 231.4 78.79 232.61 78.87"/><polygon class="cls-5" points="174.09 95.39 169.4 96.64 168.7 96.83 166.72 97.35 166.72 97.35 147.52 60.16 147.52 60.16 147.52 60.16 154.88 58.2 169.7 86.89 172.29 91.91 172.29 91.91 174.09 95.39"/><polygon class="cls-6" points="143.19 65.25 162.4 102.45 166.72 97.35 147.52 60.16 143.19 65.25"/><polygon class="cls-6" points="174.09 95.39 168.97 101.72 162.4 102.45 166.72 97.35 174.09 95.39"/><polygon class="cls-5" points="266.63 79.36 261.41 84.16 261.4 84.16 261.4 84.16 260.4 77.55 256.88 54.29 256.88 54.29 256.89 54.29 262.9 54.69 265.63 72.74 266.63 79.36 266.63 79.36"/><polygon class="cls-6" points="261.41 84.16 261.4 84.16 257.07 88.14 257.07 88.14 256.64 85.35 256.38 83.59 256.07 81.53 252.36 57.01 254.85 55.51 256.88 54.29 256.89 54.29 260.4 77.54 261.4 84.16 261.41 84.16"/><polygon class="cls-5" points="248.16 50.66 253.12 83.38 259.13 83.78 254.18 51.05 248.16 50.66"/><polygon class="cls-6" points="243.64 53.37 248.59 86.1 253.12 83.38 248.17 50.65 243.64 53.37"/><polygon class="cls-6" points="259.13 83.78 256.64 85.35 253.69 87.22 250.61 86.54 248.59 86.1 253.12 83.38 253.99 83.44 256.38 83.59 259.13 83.78"/><polygon class="cls-5" points="186.74 88.18 182.79 88.77 182.78 88.77 182.78 88.77 182.77 88.77 182.23 88.85 180.28 83.72 180.28 83.72 174.11 67.45 173.35 65.46 173.35 65.46 176.84 64.94 177.86 64.79 184.56 82.44 186.53 87.64 186.53 87.65 186.74 88.18"/><polygon class="cls-6" points="182.23 88.85 182.23 88.85 179.32 91.58 178.71 89.99 178.71 89.98 176.74 84.78 171.18 70.14 170.44 68.19 173.35 65.46 173.35 65.46 174.11 67.45 180.28 83.72 182.23 88.85"/><polygon class="cls-6" points="186.74 88.18 183.27 91.59 179.32 91.58 182.23 88.85 186.74 88.18"/><g class="cls-7"><polygon points="205.27 108.65 212.92 109.03 212.92 109.03 221.72 78.88 224.97 67.74 224.97 67.73 225.71 65.2 225.71 65.2 224.58 65.14 224.58 65.14 219.6 64.9 205.27 108.65"/><polygon points="230.87 69.59 218.07 113.42 212.92 109.03 225.71 65.2 230.87 69.59"/><polygon points="205.27 108.65 211.42 114.17 218.07 113.42 212.92 109.03 205.27 108.65"/></g><polygon class="cls-5" points="224.81 65.38 212.01 109.21 204.36 108.84 217.16 65 224.81 65.38"/><polygon class="cls-6" points="229.96 69.77 217.16 113.6 212.01 109.21 224.8 65.38 229.96 69.77"/><polygon class="cls-6" points="204.36 108.84 210.51 114.35 217.16 113.6 212.01 109.21 204.36 108.84"/><g class="cls-7"><polygon points="232.07 76.51 231.4 78.79 231.1 79.83 223.34 106.43 223.34 106.43 215.85 105.51 222.9 81.37 223.13 80.55 224.58 75.59 226.19 75.79 226.19 75.79 232.07 76.51 232.07 76.51"/><polygon points="232.61 78.87 231.1 79.83 223.34 106.43 223.34 106.43 223.34 106.43 231.1 79.83 231.4 78.79 232.07 76.51 232.07 76.51 232.27 76.64 232.61 78.87"/><polygon points="228.74 109.98 222.31 109.94 215.85 105.51 223.34 106.43 223.34 106.43 223.34 106.43 228.74 109.98"/></g><polygon class="cls-5" points="232.8 77.42 224.07 107.34 216.58 106.42 225.31 76.5 232.8 77.42"/><polygon class="cls-6" points="238.2 80.97 229.46 110.89 224.06 107.34 232.79 77.42 238.2 80.97"/><polygon class="cls-6" points="216.58 106.42 223.04 110.85 229.46 110.89 224.06 107.34 216.58 106.42"/><g class="cls-7"><polygon points="275.94 70.81 266.63 79.36 261.41 84.16 261.4 84.16 257.07 88.14 252.95 91.92 252.95 91.92 257.07 88.14 256.64 85.35 253.69 87.22 250.61 86.54 253.99 83.44 256.07 81.53 258.46 79.33 260.4 77.55 260.4 77.54 265.63 72.74 275.93 70.81 275.94 70.81"/><polygon points="275.94 70.81 266.63 79.36 261.41 84.16 261.4 84.16 257.07 88.14 252.95 91.92 252.95 91.92 257.07 88.14 261.4 84.16 261.4 84.16 266.63 79.36 275.93 70.81 275.94 70.81"/></g><path class="cls-9" d="M184.93,80.75c0-1.81,2.64-3.77,3.81-3.29.56.22.4.83,1.14,1.48,1.21,1.06,2.6.28,3.31,1s.32,3.37-1.07,4.29C189.83,85.8,185,83.18,184.93,80.75Z"/><polygon class="cls-5" points="276.84 71.72 253.86 92.83 249.21 89.57 272.19 68.46 276.84 71.72"/><polygon class="cls-6" points="278.56 76.4 255.58 97.5 253.86 92.83 276.84 71.72 278.56 76.4"/><polygon class="cls-6" points="249.21 89.57 251.16 95.31 255.58 97.5 253.86 92.83 249.21 89.57"/><g class="cls-11"><polygon points="169.7 86.89 172.29 91.91 172.29 91.91 169.8 92.66 169.8 92.66 167.04 87.69 169.7 86.89"/><polygon points="186.53 87.64 197.63 84.32 186.53 87.65 182.79 88.77 182.79 88.77 182.78 88.77 182.77 88.77 182.1 88.97 182.1 88.97 182.09 88.97 178.71 89.99 172.29 91.91 178.71 89.98 176.74 84.78 180.28 83.72 180.28 83.72 180.28 83.72 184.56 82.44 186.53 87.64"/><polygon points="199.69 83.7 199.69 83.71 199.52 85.44 199.19 88.66 173.25 96.43 169.3 97.61 169.4 96.64 169.8 92.66 169.8 92.66 172.29 91.91 178.71 89.98 182.09 88.97 182.1 88.97 182.1 88.97 182.1 88.97 182.77 88.77 182.78 88.77 182.78 88.77 186.53 87.64 197.63 84.32 197.63 84.32 199.69 83.7"/><polygon points="167.04 87.69 166.29 93.71 169.3 97.61 169.79 92.66 167.04 87.69"/></g><polygon class="cls-5" points="201.14 84.43 171.25 93.38 168.49 88.42 198.38 79.46 201.14 84.43"/><polygon class="cls-6" points="200.65 89.39 170.75 98.34 171.25 93.38 201.14 84.43 200.65 89.39"/><polygon class="cls-6" points="168.49 88.42 167.74 94.43 170.75 98.34 171.25 93.38 168.49 88.42"/><rect class="cls-4" x="191.09" y="113.98" width="41.16" height="5.77" rx="2.17"/><path class="cls-8" d="M185.12,86.64c3-1.06,3.5-3.33,5.63-3.22s2.1,2.17,4.72,2.84c2.21.56,2.68-.75,5.64-.57,2.49.16,2.47,1.11,6,1.89,3.2.71,3.81,0,5.81,1,1.38.61,4.11,2.28,4,3.78-.26,3.36-15.07,7.71-27.43,2.64-6.23-2.55-13.26-4.15-10.54-8.12C179.36,86.21,181.81,87.78,185.12,86.64Z"/><path class="cls-4" d="M276.1,78.23c0,21.73-29.27,39.34-65.39,39.34S145.32,100,145.32,78.23c0,7.33,29.28,13.27,65.39,13.27S276.1,85.56,276.1,78.23Z"/><g class="cls-12"><path d="M191.06,115.65s9.36,1,19.49,1A213.32,213.32,0,0,0,232,115.28S213.76,122,191.06,115.65Z"/></g><circle class="cls-9" cx="197.55" cy="101.81" r="1.79"/><g class="cls-7"><polygon points="176.84 64.94 174.11 67.45 174.11 67.45 171.18 70.14 170.44 68.19 173.35 65.46 173.35 65.46 176.84 64.94"/></g><circle class="cls-9" cx="223.8" cy="101.81" r="1.79"/><path class="cls-9" d="M210.82,106a8.19,8.19,0,0,1-4.85-1.51.54.54,0,0,1-.09-.77.55.55,0,0,1,.77-.08,7.2,7.2,0,0,0,4.17,1.27,7.7,7.7,0,0,0,4.27-1.28.54.54,0,0,1,.76.11.53.53,0,0,1-.1.76A8.65,8.65,0,0,1,210.82,106Z"/><g class="cls-13"><path class="cls-14" d="M145.83,79.93s11.8,16.81,100.4,9.72C246.37,89.63,158.14,103.53,145.83,79.93Z"/></g><path class="cls-8" d="M230.17,89.05c-.11-1.81,1.46-4.9,3.27-5.09a8.71,8.71,0,0,1,4.17.19c1.45.42,3.07.9,4.36.54,3.1-.87,1.95-4.17,6.18-7.27.78-.56,3.72-2.28,5.63-1.81,3.26.81,4.08,5.1,4.18,5.45.51,1.77.73,3.87,1.63,4,.6.09,1.1-.76,1.64-.54a1.29,1.29,0,0,1,.54,1.45c-.38,1.17-.62.4-4.54,2-1.38.56-3,1.33-3.45,2a5,5,0,0,0-.91,2.36c-.1,1.05-1.13,2.77-2,2.91s-2.54-.73-3.45-2.73A6.06,6.06,0,0,0,244,90.14c-3-.65-4.37.34-7.45.18C233.8,90.18,230.31,91.37,230.17,89.05Z"/><g class="cls-15"><path class="cls-9" d="M252.85,78.3c.35.6,1.17-.11,1.81.63s.34,1.6.9,2.14c.33.31.78.35.95.08.32-.49-.24-2-.95-3s-2.07-1.81-2.58-1.21A1.38,1.38,0,0,0,252.85,78.3Z"/></g><g class="cls-15"><path class="cls-9" d="M200.9,86.81s.74,1.23,1.29,1.37,3.81.46,4.54.94,1.55-.11,1.14-.27S201.43,86.21,200.9,86.81Z"/></g><rect class="cls-16" y="0.25" width="300" height="165"/></g></g></svg>