<svg xmlns="http://www.w3.org/2000/svg" xmlns:xlink="http://www.w3.org/1999/xlink" viewBox="0 0 300 165.5"><defs><style>.cls-1{isolation:isolate;}.cls-2{fill:#fce5cd;}.cls-3{fill:#edc094;}.cls-4{fill:#28668c;}.cls-5{fill:#d47526;}.cls-6{opacity:0.45;}.cls-12,.cls-6,.cls-8,.cls-9{mix-blend-mode:soft-light;}.cls-7{fill:#5a1200;}.cls-8{opacity:0.52;}.cls-9{opacity:0.49;}.cls-10{fill:#fff;}.cls-11{fill:#f4c28c;}.cls-13{fill:#d60500;}.cls-14{fill:#00922b;}.cls-15{fill:#ffe8d9;}.cls-16{fill:url(#linear-gradient);}</style><linearGradient id="linear-gradient" x1="150.37" y1="168.62" x2="149.66" y2="2.17" gradientUnits="userSpaceOnUse"><stop offset="0.03" stop-color="#591c16"/><stop offset="0.22" stop-color="#5f241d" stop-opacity="0.96"/><stop offset="0.38" stop-color="#733c33" stop-opacity="0.84"/><stop offset="0.53" stop-color="#936459" stop-opacity="0.64"/><stop offset="0.68" stop-color="#c09d8d" stop-opacity="0.36"/><stop offset="0.82" stop-color="#fae5cf" stop-opacity="0"/></linearGradient></defs><g class="cls-1"><g id="Layer_1" data-name="Layer 1"><rect class="cls-2" y="0.25" width="300" height="165"/><ellipse class="cls-3" cx="217.83" cy="109.6" rx="61.82" ry="4.68"/><path class="cls-4" d="M157.13,111a3.2,3.2,0,0,1-1-.32,3.6,3.6,0,0,1-.5-.29,2.25,2.25,0,0,1-.24-.21,1.4,1.4,0,0,1-.25-.33.77.77,0,0,1-.09-.33,1,1,0,0,1,0-.31,1.1,1.1,0,0,1,.25-.4,2.05,2.05,0,0,1,.53-.41,5.31,5.31,0,0,1,1-.44,19.11,19.11,0,0,1,2-.55c.67-.15,1.35-.28,2-.39,2.71-.46,5.43-.77,8.14-1,5.43-.53,10.87-.87,16.31-1.15,10.89-.53,21.78-.76,32.68-.79q8.16,0,16.34.14c5.45.11,10.89.27,16.34.53s10.88.59,16.32,1.11c2.72.27,5.44.57,8.15,1,.68.12,1.36.25,2,.4a15.94,15.94,0,0,1,2.06.59c.18.07.35.14.53.23a2.61,2.61,0,0,1,.57.33,1.92,1.92,0,0,1,.3.28,1.2,1.2,0,0,1,.28.53.77.77,0,0,1,0,.37.28.28,0,0,1,0,.09v.07l0,.12a1.82,1.82,0,0,1-.08.19,1.31,1.31,0,0,1-.09.17,2.51,2.51,0,0,1-.93.93,2.35,2.35,0,0,1-1.19.31l-.22-.76a6.27,6.27,0,0,0,.64-.58,2.68,2.68,0,0,0,.4-.59l0-.06a.11.11,0,0,0,0,0h0v0a.06.06,0,0,0,0,.06s0,0,0,.06,0,.09,0,.09,0,0-.07-.06a3.43,3.43,0,0,0-.72-.36,16.4,16.4,0,0,0-1.87-.53c-.64-.14-1.3-.27-2-.38-2.65-.46-5.35-.76-8-1-5.4-.52-10.83-.84-16.25-1.1-10.86-.51-21.74-.73-32.61-.74s-21.76.12-32.62.59c-5.43.24-10.86.54-16.26,1-2.7.25-5.4.54-8.07,1-.66.11-1.32.23-2,.37a19.09,19.09,0,0,0-1.91.51,6,6,0,0,0-.85.35,1.59,1.59,0,0,0-.28.2l0,0s0,0,0-.06,0-.09,0-.09a.35.35,0,0,0,.06.08l.13.14.35.29c.24.19.51.37.77.56Z"/><rect class="cls-4" x="188.81" y="120.14" width="60.01" height="6.2" rx="1.78"/><path class="cls-5" d="M266.84,111.21a3.52,3.52,0,0,1-.51,1.82c-.75,1.21-4.78.94-11.26,3.42-11,4.24-9.76,2.89-12,3.45-5.79,1.46-10.93,1-21.22.22-5.67-.46-4.42-.62-14.25-1.7-13.68-1.51-17.94-.25-22.82-2.54-2.27-1.07-9.79-2.16-9.92-5.1a3.34,3.34,0,0,1,.44-1.76,5.11,5.11,0,0,1,.55-.82l0,0c2.53-3.15,13-8,18.69-9.3,16.07-3.64,22.09,4.24,43.05,1.92,7.69-.86,11.94-2.48,17.28-.64C260,101.91,266.88,107.94,266.84,111.21Z"/><g class="cls-6"><path d="M266.84,111.21a3.52,3.52,0,0,1-.51,1.82c-.75,1.21-4.78.94-11.26,3.42-11,4.24-9.76,2.89-12,3.45-5.79,1.46-10.93,1-21.22.22-5.67-.46-4.42-.62-14.25-1.7-13.68-1.51-17.41-1.54-22.82-2.54-2.73-.51-9.79-2.16-9.92-5.1a3.34,3.34,0,0,1,.44-1.76l.55-.82,0,0C182.15,112.16,199.13,129.93,266.84,111.21Z"/></g><path class="cls-4" d="M280.25,109.51c0,7.76-6.65,14-62.36,14-57.84,0-62.37-6.29-62.37-14,0,2.62,27.92,4.74,62.37,4.74S280.25,112.13,280.25,109.51Z"/><path class="cls-7" d="M246.32,98.2c0,.32-.06.69-.1,1.08a12.81,12.81,0,0,1-2.95,7.25c-7.6,8.85-26.32,4.88-35.35,3-7.55-1.6-9.55-3.23-10.67-4.57a9.94,9.94,0,0,1-2-4.14c-1.14-5,1.08-11,5.36-13.86,3.18-2.09,5.21-.9,13.11-1.88,14.08-1.76,16.34-6.64,22.25-4.84C242.82,82.29,246.9,91.05,246.32,98.2Z"/><g class="cls-8"><path d="M188.76,121.73s13.65.93,28.42.93,31.33-1.29,31.33-1.29S221.85,127.81,188.76,121.73Z"/></g><g class="cls-9"><path class="cls-10" d="M156,110.12s11.25,6,95.75,3.47C251.9,113.59,167.75,118.55,156,110.12Z"/></g><path class="cls-11" d="M249.5,74.59c-.85,1.24-3.58,4.48-17.12,6.24-7.33.94-7.25.09-15,1.2-6.05.86-9.07,1.29-12.9,2.63-5.7,2-7,3.74-9.75,3.12-4.16-1-7.23-6.43-5.79-9.11.67-1.26,1.88-1,5.27-3.12a42.46,42.46,0,0,0,5-3.9l.22-.18c6.44-5.21,6.47-4.59,7.64-6,3.16-3.81,1.22-6.33,3.16-10.31,3.35-6.91,15.12-11.58,21.86-8.63,4.32,1.89,6.69,7,8.69,11.27,1.74,3.75,2,6.3,4.2,8.28a8.49,8.49,0,0,0,1.06.83c1.89,1.25,3.85,1.61,4.48,3.36S249.9,74,249.5,74.59Z"/><g class="cls-12"><path d="M249.5,74.59c-.85,1.24-3.58,4.48-17.12,6.24-7.33.94-7.25.09-15,1.2-6.05.86-9.07,1.29-12.9,2.63-5.7,2-7,3.74-9.75,3.12-4.16-1-7.23-6.43-5.79-9.11.67-1.26,1.88-1,5.27-3.12a42.46,42.46,0,0,0,5-3.9c7.21,2,24.85,4.86,45.77-5.56a8.49,8.49,0,0,0,1.06.83c1.89,1.25,3.85,1.61,4.48,3.36S249.9,74,249.5,74.59Z"/></g><path class="cls-13" d="M188.86,98h0c-.39.33-.8.65-1.22.95-7.94,5.72-21.26,6.56-24.51,4.31-1.56-1.08-1.91-3.2-1.41-5.29.59-2.49,2.4-4.93,4.84-5.5-2-1.52-3-3.2-2.42-4.61h0c.4-1.05,1.66-1.94,4-2.5,3.65-.88,10.78,1.52,15.16,3.23l1.69.67c1.26.53,2,.88,2,.88a13.56,13.56,0,0,1,1.64,5.29c.06.47.11,1,.15,1.49C188.83,97.3,188.85,97.66,188.86,98Z"/><g class="cls-12"><path d="M188.86,98h0c-.39.33-.8.65-1.22.95-7.94,5.72-21.26,6.56-24.51,4.31-1.56-1.08-1.91-3.2-1.41-5.29h0s8.27,8.8,25.12,0a24.63,24.63,0,0,1-3.54-9.41l1.69.67c1.26.53,2,.88,2,.88a13.56,13.56,0,0,1,1.64,5.29c.06.47.11,1,.15,1.49C188.83,97.3,188.85,97.66,188.86,98Z"/></g><path class="cls-13" d="M197.59,97.36l-.08,0h0c-.3.18-.67.38-1.08.59-2.16,1.1-5.53,2.23-7.56,0a11.64,11.64,0,0,1-1.71-2.56v0A26.64,26.64,0,0,1,185,89.3c-.53-2.3-.67-4.25-.32-4.91.49-1,3.05-1.89,5.4-2.53h0l1.32-.34c1-.22,1.79-.38,2.31-.45,1.77-.23,3.21,6.07,4,10.76a.08.08,0,0,1,0,0c0,.14.05.28.07.42.25,1.43.43,2.68.54,3.49A1.59,1.59,0,0,1,197.59,97.36Z"/><g class="cls-12"><path d="M206.28,94.78a2.06,2.06,0,0,1-1,1.81l0,0-.16.08-.1,0h0l-.49.21,0,0a14.22,14.22,0,0,1-4.93.84l-.22,0-.3,0-.56-.08-.26-.06h0l-.28-.08-.27-.08-.06,0h0c-.3.18-.67.38-1.08.59a4.9,4.9,0,0,1-2.68-1.92,12.93,12.93,0,0,1-.75-1.23c-1.91-3.6-2.86-9.17-2.93-13h0l1.32-.34c0-2,.14-3.57.55-4.16a2.73,2.73,0,0,1,1-.75h0a31.9,31.9,0,0,1,5.51-1.13l1.34-.16c1.24-.13,2.31-.19,3-.19,2.28,0,3.09,8,3.38,14.13,0,.49,0,1,.06,1.43C206.25,92.36,206.28,93.81,206.28,94.78Z"/></g><g class="cls-8"><path d="M197.64,97.39l-.07,0h0l-.06,0c-.3.18-.67.38-1.08.59-2.16,1.1-5.53,2.23-7.56,0h0a12,12,0,0,1-1.71-2.57h0c.49,0,1,0,1.51,0a17.41,17.41,0,0,0,4.33-.61,11.78,11.78,0,0,0,1.34-.47h0a7.87,7.87,0,0,0,2.78-1.95l.12-.13a5.94,5.94,0,0,1,.47-.43l0,0c0,.16.06.31.08.46.25,1.44.43,2.69.54,3.51A1.59,1.59,0,0,1,197.64,97.39Z"/></g><path class="cls-13" d="M207.6,94.26a2,2,0,0,1-1.23,1.9c-.31.14-.68.3-1.09.45l0,0-.28.1h0l-.53.19a14.22,14.22,0,0,1-4.93.84l-.22,0-.3,0-.56-.08-.26-.06h0l-.28-.08-.27-.08-.06,0-.35-.14L197,97.2l-.29-.15a4.88,4.88,0,0,1-1.64-1.48,11.25,11.25,0,0,1-.73-1.18,19.05,19.05,0,0,1-1-2.32,35.55,35.55,0,0,1-1.94-10.55c0-2,.14-3.57.55-4.16a2.73,2.73,0,0,1,1-.75h0a21,21,0,0,1,5.58-1.48c.46-.07.92-.14,1.36-.19a36.48,36.48,0,0,1,4.2-.34c2.21,0,3,7.58,3.35,13.62v0h0c.05.86.08,1.7.1,2.47C207.57,92.16,207.59,93.39,207.6,94.26Z"/><g class="cls-12"><path d="M217.05,93.7a2.36,2.36,0,0,1-.26,1.11h0l0,.07a2.86,2.86,0,0,1-.42.55,2.54,2.54,0,0,1-.71.48,21.23,21.23,0,0,1-6.87,1.84,8.25,8.25,0,0,1-1.58-.24l-.18-.06a5.9,5.9,0,0,1-1.71-.79l0,0-.28.1h0l-.49.21,0,0a5.66,5.66,0,0,1-1.89-1.71A16.54,16.54,0,0,1,200.8,92c-2.2-5.44-2.94-13.14-2.36-16.49,0-.12,0-.24.07-.35.46-.07.92-.14,1.36-.19a2.41,2.41,0,0,1,.34-.83c1-1.39,5.41-2.32,9.2-2.8.46-.07.91-.12,1.34-.16a.51.51,0,0,0,0-.13c.9-.07,1.66-.1,2.19-.1a1.09,1.09,0,0,1,.26,0h0c2.45.61,3.34,9.67,3.65,16.55,0,.41,0,.82.05,1.22C217,90.76,217,92.52,217.05,93.7Z"/></g><g class="cls-8"><path d="M207.7,94.27a2.06,2.06,0,0,1-1.23,1.91c-.33.15-.72.31-1.14.47h0l0,0-.28.1h0l-.49.21,0,0a14.22,14.22,0,0,1-4.93.84l-.22,0-.3,0-.56-.08-.26-.06h0l-.28-.08-.27-.08h0l-.06,0c-.11,0-.23-.09-.34-.15L197,97.2l-.29-.15a5,5,0,0,1-1.61-1.47,10.61,10.61,0,0,1-.73-1.2,17.47,17.47,0,0,1-1-2.31,28.08,28.08,0,0,0,3.91.23h.59a18.11,18.11,0,0,0,3-.32c.41-.08.81-.18,1.21-.29l.06,0a9.55,9.55,0,0,0,2.5-1.1h0a7.38,7.38,0,0,0,1.55-1.3h0a4,4,0,0,1,1.28-1h0l.1,0c0,.88.08,1.73.1,2.52C207.67,92.16,207.69,93.4,207.7,94.27Z"/></g><path class="cls-13" d="M218.37,93.7a2.36,2.36,0,0,1-.68,1.69l0,0a2.35,2.35,0,0,1-.47.36l-.23.12a19,19,0,0,1-8.19,1.84,8.25,8.25,0,0,1-1.58-.24l-.18-.06a5.9,5.9,0,0,1-1.71-.79l0,0,0,0a5.56,5.56,0,0,1-1.39-1.39A17,17,0,0,1,202,91.68c-.2-.5-.39-1-.56-1.56-1.71-5.31-2.23-11.89-1.67-14.8,0-.14.06-.26.09-.38a2.41,2.41,0,0,1,.34-.83c1-1.39,5.41-2.32,9.2-2.8.46-.07.91-.12,1.34-.16.93-.1,1.78-.17,2.47-.2h0l1.05,0c2.54,0,3.51,8.66,3.88,15.65v0c0,.78.07,1.54.1,2.26C218.33,90.83,218.36,92.55,218.37,93.7Z"/><g class="cls-8"><path d="M218.52,93.71a2.37,2.37,0,0,1-.72,1.73l0,0-.11,0a2.35,2.35,0,0,1-.47.36l-.23.12a19,19,0,0,1-8.19,1.84,8.25,8.25,0,0,1-1.58-.24l-.18-.06a6,6,0,0,1-1.67-.8l0,0,0,0,0,0a5.42,5.42,0,0,1-1.34-1.36,17.29,17.29,0,0,1-1.84-3.57c-.19-.5-.38-1-.55-1.55.81.15,1.86.33,3,.45h0c.51,0,1,.1,1.61.13s.88,0,1.33,0h.1a18.57,18.57,0,0,0,4.64-.53c.4-.11.79-.23,1.16-.37l.12,0a9,9,0,0,0,2.22-1.22,6.75,6.75,0,0,0,1-.89l.16-.17a3.63,3.63,0,0,1,1.28-.91l.14,0c0,.8.08,1.58.11,2.32C218.48,90.84,218.51,92.56,218.52,93.71Z"/></g><g class="cls-12"><path d="M230.32,91.69a1.85,1.85,0,0,1,0,.23,2.68,2.68,0,0,1-1.06,1.94,3.5,3.5,0,0,1-.53.31,23.64,23.64,0,0,1-7.8,2.08s0,0,0,0l-.42,0h-.07l-.19,0h-.05a7.91,7.91,0,0,1-2.4-.7l-.11,0a2.35,2.35,0,0,1-.47.36,6.49,6.49,0,0,1-3.18-2.4,17.25,17.25,0,0,1-1.74-3.2c-2.6-6.08-3.49-15-2.85-18.88.46-.07.91-.12,1.34-.16a.51.51,0,0,0,0-.13,3.8,3.8,0,0,1,.47-1.32c1.08-1.54,5.94-2.58,10.15-3.13l1.78-.22a.5.5,0,0,1,0-.12l1.33-.09c.47,0,.88,0,1.2,0a2.48,2.48,0,0,1,.27,0c2.87.64,3.84,11.48,4.17,19.29.05,1.12.08,2.19.11,3.14C230.3,89.8,230.31,90.87,230.32,91.69Z"/></g><path class="cls-13" d="M231.64,91.69a2.79,2.79,0,0,1-.23,1.11,2.48,2.48,0,0,1-.32.54,2.56,2.56,0,0,1-1,.82h0c-2,.91-5.75,2.27-9.12,2.08,0,0,0,0,0,0l-.42,0h-.07l-.19,0h-.05a7.91,7.91,0,0,1-2.4-.7l-.11,0a6.39,6.39,0,0,1-2.34-2,18.41,18.41,0,0,1-1.89-3.57c-.24-.58-.46-1.19-.67-1.82-2-6-2.61-13.48-2-16.85a.51.51,0,0,0,0-.13,3.8,3.8,0,0,1,.47-1.32c1.08-1.54,5.94-2.58,10.15-3.13l1.78-.22,1.34-.12,1.48-.1,1,0c3,0,4,10.63,4.41,18.62.07,1.43.11,2.78.14,4S231.63,90.9,231.64,91.69Z"/><path class="cls-13" d="M258,86.84a2.08,2.08,0,0,1-1.24,1.93c-2.09.93-6.39,2.46-9.42,1.08a4.48,4.48,0,0,1-.74-.41,5.15,5.15,0,0,1-.48-.37,5.07,5.07,0,0,1-.81-.9,12.74,12.74,0,0,1-1.08-1.91c-2.63-5.57-3.24-14.85-2.08-16.5a2.31,2.31,0,0,1,.71-.61,8.44,8.44,0,0,1,1.81-.75c.39-.12.81-.23,1.25-.34A44.55,44.55,0,0,1,254.43,67c2.14,0,3,7,3.34,13h0C257.94,82.78,258,85.36,258,86.84Z"/><g class="cls-12"><path d="M244.28,89.58a3,3,0,0,1-1.76,2.73,33.28,33.28,0,0,1-3.12,1.19h0a18.69,18.69,0,0,1-3.68.57,10.17,10.17,0,0,1-4.47-.67l-.16-.06a2.56,2.56,0,0,1-1,.82h0a5.48,5.48,0,0,1-.8-.3,7,7,0,0,1-2.93-2.4,19.2,19.2,0,0,1-1.64-2.92c-3.22-7-4.23-18-3.29-22l1.78-.22a.5.5,0,0,1,0-.12,3.8,3.8,0,0,1,.5-1.37,6.62,6.62,0,0,1,3.22-1.81,53.91,53.91,0,0,1,5.32-1h.07a57.54,57.54,0,0,1,6.93-.6c1.74,0,2.89,3.3,3.63,7.71a123.77,123.77,0,0,1,1.32,15.5c0,.56,0,1.1,0,1.61C244.26,87.58,244.27,88.71,244.28,89.58Z"/></g><g class="cls-8"><path d="M231.85,91.68a2.61,2.61,0,0,1-.23,1.12,1,1,0,0,0,0,.1,2.52,2.52,0,0,1-.28.44l-.05.06-.16-.06a2.56,2.56,0,0,1-1,.82h0c-2,.91-5.75,2.27-9.12,2.08,0,0,0,0,0,0l-.42,0h-.07l-.19,0h-.05a7.73,7.73,0,0,1-2.36-.74l-.11,0a6.56,6.56,0,0,1-.79-.5l-.11-.08h0a6.45,6.45,0,0,1-1.34-1.41,18.1,18.1,0,0,1-1.91-3.62c-.24-.58-.46-1.18-.67-1.8,0,0,1.16.31,2.89.58l1.17.16,1.33.13h.15a22.22,22.22,0,0,0,6.27-.32,13.94,13.94,0,0,0,1.84-.54l.6-.26a4.52,4.52,0,0,0,.49-.25,7.67,7.67,0,0,0,2.08-1.59,5.38,5.38,0,0,1,.47-.48,3.07,3.07,0,0,1,1.29-.7l.21,0c.07,1.45.11,2.82.14,4S231.85,90.9,231.85,91.68Z"/></g><g class="cls-12"><path d="M258,86.84a2.08,2.08,0,0,1-1.24,1.93c-2.09.93-6.39,2.46-9.42,1.08a5,5,0,0,1-.56-.3l-.16-.09,0,0h0a5.15,5.15,0,0,1-.48-.37,2.94,2.94,0,0,1-1.75,2.71,30,30,0,0,1-5,1.72h0a18.69,18.69,0,0,1-3.68.57,8.68,8.68,0,0,1-4.31-1.27,7,7,0,0,1-1.1-.88,9,9,0,0,1-.83-1c-4.44-6.31-6-19.89-5-24.7,0,0,0-.06,0-.09a3.75,3.75,0,0,1,.49-1.28c.85-1.22,3.87-2.16,7.22-2.81h.07a67.7,67.7,0,0,1,9-1.1c1.57.31,2.63,3.39,3.34,7.46.39-.12.81-.23,1.25-.34,1.26,6.9,1.48,16.88,1.52,21a3,3,0,0,1,0,.52c8.65,1.15,10.33-9.29,10.37-9.6C257.94,82.78,258,85.36,258,86.84Z"/></g><path class="cls-13" d="M246.12,89.05v0a3,3,0,0,1-1.75,2.71,30,30,0,0,1-5,1.72h0a18.69,18.69,0,0,1-3.68.57,10.17,10.17,0,0,1-4.47-.67l-.16-.06a9.64,9.64,0,0,1-1-.54,6.94,6.94,0,0,1-1.92-1.87A18.52,18.52,0,0,1,226.52,88c-.1-.21-.19-.42-.28-.63-2.92-6.84-3.87-16.9-3.07-21a.5.5,0,0,1,0-.12,3.8,3.8,0,0,1,.5-1.37,6.62,6.62,0,0,1,3.22-1.81,58.58,58.58,0,0,1,14.16-2.14,1.09,1.09,0,0,1,.26,0c1.57.31,2.63,3.39,3.34,7.46A118.32,118.32,0,0,1,246,83.28C246.08,85.64,246.11,87.68,246.12,89.05Z"/><g class="cls-12"><path d="M174.26,93.81c-5.18,1-7.71-1.3-7.71-1.3-2-1.52-3-3.2-2.42-4.61C165.91,91.69,174.24,93.81,174.26,93.81Z"/></g><g class="cls-8"><path d="M246.12,89.05v0a3,3,0,0,1-1.75,2.71,30,30,0,0,1-5,1.72h0a18.69,18.69,0,0,1-3.68.57,10.17,10.17,0,0,1-4.47-.67l-.16-.06a9.64,9.64,0,0,1-1-.54,6.94,6.94,0,0,1-1.92-1.87A18.52,18.52,0,0,1,226.52,88c-.1-.21-.19-.42-.28-.63h0c.29.14.59.26.88.37s.47.18.71.25a12.85,12.85,0,0,0,2.44.57,11.79,11.79,0,0,0,1.32.13h.21c4.93.19,9.33-2.06,11.88-3.72l.5-.33A18.83,18.83,0,0,0,246,83.28C246.08,85.64,246.11,87.68,246.12,89.05Z"/></g><g class="cls-12"><ellipse class="cls-10" cx="239.82" cy="68.16" rx="2.71" ry="5.13" transform="translate(-8 40.84) rotate(-9.58)"/></g><g class="cls-12"><ellipse class="cls-10" cx="235.22" cy="64.6" rx="1.55" ry="2.26" transform="translate(-7.47 40.03) rotate(-9.58)"/></g><g class="cls-12"><ellipse class="cls-10" cx="253.66" cy="70.13" rx="1.55" ry="2.26" transform="matrix(0.99, -0.17, 0.17, 0.99, -8.13, 43.17)"/></g><g class="cls-12"><ellipse class="cls-10" cx="212.84" cy="71.97" rx="1.55" ry="2.26" transform="translate(-9.01 36.41) rotate(-9.58)"/></g><g class="cls-12"><ellipse class="cls-10" cx="202.04" cy="76.45" rx="1.55" ry="2.26" transform="translate(-9.9 34.67) rotate(-9.58)"/></g><g class="cls-12"><ellipse class="cls-10" cx="193.33" cy="79.57" rx="1.31" ry="1.91" transform="translate(-10.54 33.27) rotate(-9.58)"/></g><g class="cls-12"><ellipse class="cls-10" cx="186.49" cy="85.89" rx="1.1" ry="1.61" transform="translate(-11.69 32.22) rotate(-9.58)"/></g><g class="cls-12"><ellipse class="cls-10" cx="167.53" cy="87.73" rx="1.61" ry="1.1" transform="matrix(0.87, -0.5, 0.5, 0.87, -21.42, 95.52)"/></g><g class="cls-12"><ellipse class="cls-10" cx="169.07" cy="96.11" rx="1.14" ry="0.78" transform="translate(-25.4 97.41) rotate(-30)"/></g><g class="cls-12"><ellipse class="cls-10" cx="166.02" cy="95.68" rx="2.1" ry="1.44" transform="translate(-25.6 95.83) rotate(-30)"/></g><g class="cls-12"><ellipse class="cls-10" cx="231.59" cy="51.3" rx="2.57" ry="3.6" transform="translate(52.07 206.34) rotate(-53.31)"/></g><g class="cls-6"><path d="M246.22,99.28a12.81,12.81,0,0,1-2.95,7.25c-7.6,8.85-26.32,4.88-35.35,3-7.55-1.6-9.55-3.23-10.67-4.57a9.94,9.94,0,0,1-2-4.14c3.17,1.54,30.76,14.23,50.54-1.16Z"/></g><g class="cls-12"><ellipse class="cls-10" cx="253.36" cy="103.35" rx="2.35" ry="3.48" transform="matrix(0.46, -0.89, 0.89, 0.46, 44.98, 280.69)"/></g><g class="cls-12"><ellipse class="cls-10" cx="240.72" cy="96.8" rx="3.48" ry="2.34" transform="translate(-17.74 119.47) rotate(-26.92)"/></g><g class="cls-12"><ellipse class="cls-10" cx="231.26" cy="56.55" rx="1.55" ry="2.17" transform="translate(47.73 208.2) rotate(-53.31)"/></g><path class="cls-14" d="M226.59,43.76a1.39,1.39,0,0,1-.35,1.1,1.51,1.51,0,0,0-.35,1.14c.13,1,1.08,1.29,1.35,2.38.34,1.34-.55,3.08-1.67,3.1s-2-2-3.27-1.93c-.85.06-1,1-1.68.73s-.67-.9-1.73-2-1.58-.93-2-1.77a2.5,2.5,0,0,1-.07-2.33c.44-.59,1.08.09,1.92-.34a1.3,1.3,0,0,0,.26-.17h0c.8-.66.66-2,1.5-2.09.61-.06.8.63,1.65.79,1.21.21,1.4-1.1,2.46-.87A3.05,3.05,0,0,1,226.59,43.76Z"/><path class="cls-14" d="M218.62,54.87c-.85.1-2.14-1.38-3-1.23-.57.1-.3.78-.89.65s-.82-.63-2-1.36-1.46-.6-2.07-1.2a2.7,2.7,0,0,1-.94-1.74c.08-.46.78,0,1.21-.37s-.24-1.68.37-1.81c.4-.08.8.43,1.45.48h0a.75.75,0,0,0,.35,0h0c.47-.18.33-.86,1-.77A4.14,4.14,0,0,1,216.38,49a1.09,1.09,0,0,1,.18.85,1.11,1.11,0,0,0,.19.87c.47.75,1.24.9,1.84,1.69C219.34,53.44,219.39,54.79,218.62,54.87Z"/><path class="cls-14" d="M215,51.18s6.47-3.08,4.72-11.76l-.87-.25a10.12,10.12,0,0,1-4.54,11.3C214.6,51.82,215,51.18,215,51.18Z"/><g class="cls-12"><path class="cls-10" d="M226.59,43.76a1.39,1.39,0,0,1-.35,1.1c-1-2.76-7-1.32-7.23-1.17.8-.66.66-2,1.5-2.09.61-.06.8.63,1.65.79,1.21.21,1.4-1.1,2.46-.87A3.05,3.05,0,0,1,226.59,43.76Z"/></g><g class="cls-12"><path class="cls-10" d="M216.38,49a1.09,1.09,0,0,1,.18.85,2.11,2.11,0,0,1-.15-.19,3.85,3.85,0,0,0-3.28-1.44c.47-.18.33-.86,1-.77A4.14,4.14,0,0,1,216.38,49Z"/></g><ellipse class="cls-15" cx="228.16" cy="80.99" rx="1.2" ry="1.11"/><ellipse class="cls-15" cx="241.65" cy="80.99" rx="1.2" ry="1.11"/><path class="cls-15" d="M235.17,84.05a5.79,5.79,0,0,1-3.21-.92.3.3,0,0,1,.36-.49h0a5.16,5.16,0,0,0,2.85.81,5.51,5.51,0,0,0,2.92-.81.31.31,0,0,1,.42.07.3.3,0,0,1-.07.42A6,6,0,0,1,235.17,84.05Z"/><rect class="cls-16" y="0.25" width="300" height="165"/></g></g></svg>