<svg xmlns="http://www.w3.org/2000/svg" xmlns:xlink="http://www.w3.org/1999/xlink" viewBox="0 0 300 165.5"><defs><style>.cls-1{isolation:isolate;}.cls-2{fill:#fce5cd;}.cls-3{fill:#ffe8d9;}.cls-4{opacity:0.75;}.cls-5{fill:#999;}.cls-6{fill:#ad5625;}.cls-7{opacity:0.27;}.cls-7,.cls-9{mix-blend-mode:soft-light;}.cls-8{fill:#fff;}.cls-9{opacity:0.69;}.cls-10{fill:url(#linear-gradient);}</style><linearGradient id="linear-gradient" x1="150.37" y1="168.62" x2="149.66" y2="2.17" gradientUnits="userSpaceOnUse"><stop offset="0.03" stop-color="#591c16"/><stop offset="0.22" stop-color="#5f241d" stop-opacity="0.96"/><stop offset="0.38" stop-color="#733c33" stop-opacity="0.84"/><stop offset="0.53" stop-color="#936459" stop-opacity="0.64"/><stop offset="0.68" stop-color="#c09d8d" stop-opacity="0.36"/><stop offset="0.82" stop-color="#fae5cf" stop-opacity="0"/></linearGradient></defs><g class="cls-1"><g id="Layer_1" data-name="Layer 1"><rect class="cls-2" y="0.25" width="300" height="165"/><path class="cls-3" d="M263.84,133.68a6,6,0,0,1-4.66-2.13,6.39,6.39,0,0,1,.89-8.83l-15-18,7.91-6.63,15,18a6.86,6.86,0,0,1,4.19-1.46,6,6,0,0,1,4.66,2.13,6.42,6.42,0,0,1-1.07,9,6.84,6.84,0,0,1-4.37,1.61,5.85,5.85,0,0,1-.73,0,6.74,6.74,0,0,1-2.44,4.74A6.83,6.83,0,0,1,263.84,133.68Z"/><path d="M252.9,98.48l15,18a6.61,6.61,0,0,1,4.22-1.56,5.78,5.78,0,0,1,4.48,2,6.16,6.16,0,0,1-1.05,8.64,6.53,6.53,0,0,1-4.21,1.56,6.22,6.22,0,0,1-1-.08,6.62,6.62,0,0,1-6.58,6.39,5.76,5.76,0,0,1-4.48-2,6.16,6.16,0,0,1,1-8.64l-15-18,7.54-6.32m.06-.68-.37.31-7.54,6.32-.37.31.31.36,14.74,17.6a7,7,0,0,0-2.13,4.21A6.21,6.21,0,0,0,259,131.7a6.29,6.29,0,0,0,4.85,2.22,7.09,7.09,0,0,0,4.52-1.67,7,7,0,0,0,2.51-4.67l.51,0a7.14,7.14,0,0,0,7-6.2,6.21,6.21,0,0,0-1.38-4.79,6.29,6.29,0,0,0-4.85-2.22,7,7,0,0,0-4.15,1.37L253.27,98.17,253,97.8Z"/><g class="cls-4"><path class="cls-5" d="M245.35,104.81l.9-.76,15.82,18.89c-2.69,2.25-3.48,5.73-1.31,8.32a6,6,0,0,0,4,2.11,5.86,5.86,0,0,1-5.44-2,6.15,6.15,0,0,1,1-8.64Z"/></g><path class="cls-6" d="M250.06,66.89a25.8,25.8,0,0,1,13.37,30.89,27.5,27.5,0,0,1-1.14,3,25.76,25.76,0,0,1-47.65-1.93,33.65,33.65,0,1,1,35.42-31.93Z"/><g class="cls-7"><path d="M257.82,107.49a26.76,26.76,0,0,1-2.43,2.32,25.76,25.76,0,0,1-40.75-11,33.64,33.64,0,0,1-19.79-59.38,31.85,31.85,0,0,1,2.68-2,33.64,33.64,0,0,0,22.24,57.1,25.77,25.77,0,0,0,38,13Z"/></g><g class="cls-7"><path class="cls-8" d="M250.06,66.89a25.8,25.8,0,0,1,13.37,30.89,25.79,25.79,0,0,1-26.88-16.87,33.65,33.65,0,0,1-28.46-48.28,33.65,33.65,0,0,1,42,34.26Z"/></g><circle class="cls-3" cx="204.3" cy="69.72" r="1.5"/><circle class="cls-3" cx="221.82" cy="69.72" r="1.5"/><path class="cls-3" d="M213.67,72.12a7,7,0,0,1-4.1-1.27.48.48,0,0,1,.6-.76,6,6,0,0,0,3.5,1.07,6.5,6.5,0,0,0,3.58-1.07.48.48,0,0,1,.58.76A7.31,7.31,0,0,1,213.67,72.12Z"/><g class="cls-9"><ellipse class="cls-8" cx="228.7" cy="42.85" rx="4.53" ry="7.39" transform="translate(77.24 219.48) rotate(-60)"/></g><rect class="cls-10" y="0.25" width="300" height="165"/></g></g></svg>