<svg xmlns="http://www.w3.org/2000/svg" xmlns:xlink="http://www.w3.org/1999/xlink" viewBox="0 0 300 165.5"><defs><style>.cls-1{fill:none;}.cls-2{isolation:isolate;}.cls-3{fill:#fce5cd;}.cls-4{fill:#9b4e23;}.cls-5{fill:#f7c67f;}.cls-6{opacity:0.82;}.cls-22,.cls-23,.cls-6,.cls-8{mix-blend-mode:soft-light;}.cls-7{fill:#fff;}.cls-8{opacity:0.45;}.cls-9{fill:#dd9376;}.cls-10{clip-path:url(#clip-path);}.cls-11{fill:#f7e8c4;}.cls-12{fill:#e49a48;}.cls-13{opacity:0.56;}.cls-14{fill:#ea8018;}.cls-15{clip-path:url(#clip-path-2);}.cls-16{clip-path:url(#clip-path-3);}.cls-17{clip-path:url(#clip-path-4);}.cls-18{fill:#eda52f;}.cls-19{opacity:0.6;}.cls-20{clip-path:url(#clip-path-5);}.cls-21{fill:#af643f;}.cls-22{opacity:0.47;}.cls-23{opacity:0.65;}.cls-24{fill:#5e5046;}.cls-25{fill:url(#linear-gradient);}</style><clipPath id="clip-path"><path class="cls-1" d="M233.3,64c0,9.37-2.77,17-20.06,17s-20.06-7.59-20.06-17S213.84,47.32,211,42.49C208.64,38.35,233.3,54.6,233.3,64Z"/></clipPath><clipPath id="clip-path-2"><path class="cls-1" d="M264.05,77.61c0,9.37-2.77,17-20.06,17s-20.06-7.59-20.06-17S244.59,61,241.79,56.13C239.39,52,264.05,68.25,264.05,77.61Z"/></clipPath><clipPath id="clip-path-3"><path class="cls-1" d="M203.43,76c0,9.37-2.77,17-20.06,17s-20.06-7.59-20.06-17S184,59.33,181.16,54.5C178.76,50.36,203.43,66.61,203.43,76Z"/></clipPath><clipPath id="clip-path-4"><path class="cls-1" d="M233.3,89.38c0,9.37-2.77,17-20.06,17s-20.06-7.59-20.06-17S213.84,72.73,211,67.9C208.64,63.76,233.3,80,233.3,89.38Z"/></clipPath><clipPath id="clip-path-5"><path class="cls-1" d="M272.33,65.46v33c0,14.84-26.45,26.86-59.09,26.86s-59.09-12-59.09-26.86V65.46a12.47,12.47,0,0,0,.12,1.73c.77,5.54,5.24,10.62,12.29,14.75,10.65,6.22,27.18,10.26,45.79,10.38a1.2,1.2,0,0,0,.19,0h1.8c18.53-.15,35-4.18,45.58-10.38C267.7,77.39,272.33,71.67,272.33,65.46Z"/></clipPath><linearGradient id="linear-gradient" x1="150.37" y1="168.62" x2="149.66" y2="2.17" gradientUnits="userSpaceOnUse"><stop offset="0.03" stop-color="#591c16"/><stop offset="0.22" stop-color="#5f241d" stop-opacity="0.96"/><stop offset="0.38" stop-color="#733c33" stop-opacity="0.84"/><stop offset="0.53" stop-color="#936459" stop-opacity="0.64"/><stop offset="0.68" stop-color="#c09d8d" stop-opacity="0.36"/><stop offset="0.82" stop-color="#fae5cf" stop-opacity="0"/></linearGradient></defs><g class="cls-2"><g id="Layer_1" data-name="Layer 1"><rect class="cls-3" y="0.25" width="300" height="165"/><ellipse class="cls-4" cx="213.24" cy="101.23" rx="56.46" ry="25.67"/><ellipse class="cls-4" cx="213.24" cy="100.62" rx="56.46" ry="25.67"/><ellipse class="cls-4" cx="213.24" cy="100" rx="56.46" ry="25.67"/><ellipse class="cls-4" cx="213.24" cy="99.38" rx="56.46" ry="25.67"/><ellipse class="cls-4" cx="213.24" cy="98.76" rx="56.46" ry="25.67"/><ellipse class="cls-4" cx="213.24" cy="98.15" rx="56.46" ry="25.67"/><ellipse class="cls-4" cx="213.24" cy="97.53" rx="56.46" ry="25.67"/><ellipse class="cls-4" cx="213.24" cy="96.91" rx="56.46" ry="25.67"/><ellipse class="cls-4" cx="213.24" cy="96.3" rx="56.46" ry="25.67"/><ellipse class="cls-4" cx="213.24" cy="95.68" rx="56.46" ry="25.67"/><ellipse class="cls-4" cx="213.24" cy="95.06" rx="56.46" ry="25.67"/><ellipse class="cls-4" cx="213.24" cy="94.44" rx="56.46" ry="25.67"/><ellipse class="cls-4" cx="213.24" cy="93.83" rx="56.46" ry="25.67"/><ellipse class="cls-4" cx="213.24" cy="93.21" rx="56.46" ry="25.67"/><ellipse class="cls-4" cx="213.24" cy="92.59" rx="56.46" ry="25.67"/><ellipse class="cls-4" cx="213.24" cy="91.97" rx="56.46" ry="25.67"/><ellipse class="cls-4" cx="213.24" cy="91.36" rx="56.46" ry="25.67"/><ellipse class="cls-4" cx="213.24" cy="90.74" rx="56.46" ry="25.67"/><ellipse class="cls-4" cx="213.24" cy="90.12" rx="56.46" ry="25.67"/><ellipse class="cls-4" cx="213.24" cy="89.51" rx="56.46" ry="25.67"/><ellipse class="cls-4" cx="213.24" cy="88.89" rx="56.46" ry="25.67"/><ellipse class="cls-4" cx="213.24" cy="88.27" rx="56.46" ry="25.67"/><ellipse class="cls-4" cx="213.24" cy="87.65" rx="56.46" ry="25.67"/><ellipse class="cls-4" cx="213.24" cy="87.04" rx="56.46" ry="25.67"/><ellipse class="cls-4" cx="213.24" cy="86.42" rx="56.46" ry="25.67"/><ellipse class="cls-4" cx="213.24" cy="85.8" rx="56.46" ry="25.67"/><ellipse class="cls-4" cx="213.24" cy="85.18" rx="56.46" ry="25.67"/><ellipse class="cls-4" cx="213.24" cy="84.57" rx="56.46" ry="25.67"/><ellipse class="cls-4" cx="213.24" cy="83.95" rx="56.46" ry="25.67"/><ellipse class="cls-4" cx="213.24" cy="83.33" rx="56.46" ry="25.67"/><ellipse class="cls-4" cx="213.24" cy="82.72" rx="56.46" ry="25.67"/><ellipse class="cls-4" cx="213.24" cy="82.1" rx="56.46" ry="25.67"/><ellipse class="cls-4" cx="213.24" cy="81.48" rx="56.46" ry="25.67"/><ellipse class="cls-4" cx="213.24" cy="80.86" rx="56.46" ry="25.67"/><ellipse class="cls-4" cx="213.24" cy="80.25" rx="56.46" ry="25.67"/><ellipse class="cls-4" cx="213.24" cy="79.63" rx="56.46" ry="25.67"/><ellipse class="cls-4" cx="213.24" cy="79.01" rx="56.46" ry="25.67"/><ellipse class="cls-4" cx="213.24" cy="78.39" rx="56.46" ry="25.67"/><ellipse class="cls-4" cx="213.24" cy="77.78" rx="56.46" ry="25.67"/><ellipse class="cls-4" cx="213.24" cy="77.16" rx="56.46" ry="25.67"/><ellipse class="cls-4" cx="213.24" cy="76.54" rx="56.46" ry="25.67"/><ellipse class="cls-4" cx="213.24" cy="75.93" rx="56.46" ry="25.67"/><ellipse class="cls-4" cx="213.24" cy="75.31" rx="56.46" ry="25.67"/><ellipse class="cls-4" cx="213.24" cy="74.69" rx="56.46" ry="25.67"/><ellipse class="cls-4" cx="213.24" cy="74.07" rx="56.46" ry="25.67"/><ellipse class="cls-4" cx="213.24" cy="73.46" rx="56.46" ry="25.67"/><ellipse class="cls-4" cx="213.24" cy="72.84" rx="56.46" ry="25.67"/><ellipse class="cls-4" cx="213.24" cy="72.22" rx="56.46" ry="25.67"/><ellipse class="cls-4" cx="213.24" cy="71.6" rx="56.46" ry="25.67"/><ellipse class="cls-4" cx="213.24" cy="70.99" rx="56.46" ry="25.67"/><ellipse class="cls-4" cx="213.24" cy="70.37" rx="56.46" ry="25.67"/><ellipse class="cls-4" cx="213.24" cy="69.75" rx="56.46" ry="25.67"/><path class="cls-5" d="M272.33,65.41v.3c-.07,3.72-1.81,7.25-4.88,10.46a34.13,34.13,0,0,1-7.53,5.76l-.81-.46-.41-.23-1-.53c-10.84-5.62-26.74-9.17-44.46-9.17s-33.6,3.55-44.43,9.16l-1,.53-.41.23c-.29.15-.57.31-.85.47-7-4.11-11.5-9.18-12.28-14.71v0s0-.06,0-.09a12.78,12.78,0,0,1-.11-1.64v0c0-.13,0-.26,0-.39a11.83,11.83,0,0,1,.14-1.46s0-.06,0-.09h0l.06-.32c2.56-13.64,27.55-24.38,58.14-24.55h.73c31.29,0,56.9,11.06,59,25,0,.19.05.39.07.58h0A11.46,11.46,0,0,1,272.33,65.41Z"/><g class="cls-6"><path class="cls-7" d="M272.33,65.41v.3c-.07,3.72-1.81,7.25-4.88,10.46-.2-.75-.38-1.55-.57-2.38-6.2-28-53.63-35.08-54.37-35.19h.73c31.29,0,56.9,11.06,59,25,0,.19.05.39.07.58h0A11.46,11.46,0,0,1,272.33,65.41Z"/></g><g class="cls-8"><path d="M263.47,73.23c0,.11,0,.21,0,.31v.36a2.62,2.62,0,0,1,0,.28c0,.22,0,.43,0,.65s0,.26,0,.4v0l0,.44,0,.44s0,0,0,.08l0,.34v.15c0,.13,0,.27-.05.4q-.06.54-.15,1l-.06.35c0,.18-.06.35-.1.53s-.07.29-.1.44-.06.25-.1.38-.05.19-.08.29-.05.19-.09.28a1.09,1.09,0,0,1-.05.17,3.16,3.16,0,0,1-.12.37s0,0,0,0a.58.58,0,0,0,0,.14s-.05.11-.07.17a.88.88,0,0,0,0,.15h0s0,0,0,.06l-.12.28,0,.05c0,.07-.07.15-.1.23l-.09.2,0,0c0,.08-.07.15-.1.22l-.2.37-.15.27a2.39,2.39,0,0,1-.13.21l-.12.21h0c0,.07-.09.13-.13.19s-.09.14-.14.21l-.06.09-.14.18-.37.48-.18.2-.06.07-.16.18c-.23.24-.46.47-.71.69L259,86l-.12.1-.19.16-.23.18-.06,0-.18.13-.1.07c-.15.1-.29.21-.45.3l-.41.26-.19.12-.21.11-.32.18c-.32.17-.66.33-1,.48l-.35.15-.37.15-.28.1-.24.09-.64.21-.2.06a3.17,3.17,0,0,1-.41.12l-.29.08-.27.07-.42.11-.42.09-.36.08-.13,0-.34.06h-.05l-.42.08-.5.08-.51.08-.25,0-.26,0-.53.07h-.07l-.31,0h-.16l-.41,0h-.15l-.51,0-.37,0h-.29l-.3,0h-5.47l-.59,0-.36,0-.5,0-.42,0-.31,0-.31,0-.6-.07-.26,0-.26,0-.5-.08-.51-.08-.42-.08-.59-.11-.51-.11-.62-.16-.27-.07-.28-.08a3.31,3.31,0,0,1-.42-.12l-.2-.06-.63-.21-.24-.09-.29-.1-.36-.15-.36-.15-.38-.17-.27-.13,0,0-.29-.14h0l-.31-.18a1.51,1.51,0,0,1-.22-.11l-.6-.38c-.08,0-.15-.1-.23-.15l-.22-.15-.11-.08-.14-.1a.71.71,0,0,0-.09-.07l-.23-.18-.48-.41-.14-.13-.56-.56-.12-.13-.1-.11,0,0-.13-.15c-.14-.16-.26-.32-.38-.48l-.13-.18-.07-.09-.23-.34-.09-.14a1.4,1.4,0,0,0-.1-.16c-.2-.34-.39-.69-.56-1.05l-.21-.45,0-.05-.12-.28a.14.14,0,0,0,0-.06l-.06-.16c0-.11-.09-.23-.13-.35l-.12-.37-.05-.17a1.17,1.17,0,0,1-.06-.2l0-.17-.06-.2-.09-.38a1.46,1.46,0,0,1-.05-.2l-.06-.26h0q-.17-.78-.27-1.59l-.2,0-.45.1-.46.1-.38.08-.14,0-.37.06h-.05l-.45.08-.54.08-.54.07-.28,0-.28,0-.56.06H218l-.33,0-.17,0-.45,0h-.15l-.55,0-.4,0h-.31l-.32,0h-5.87l-.64,0-.38,0-.54,0-.46,0-.33,0-.33,0-.65-.07-.28,0-.27,0-.54-.07-.55-.08-.44-.08c-.22,0-.43-.07-.64-.12l-.54-.11-.67-.15-.29-.07-.31-.08-.23-.06-.09.59-.06.35c0,.18-.06.35-.1.53s-.06.29-.1.44l-.09.38c0,.09,0,.19-.08.29s-.06.19-.08.28l-.06.17c0,.12-.07.24-.11.37l0,0,0,.14-.06.17-.06.15h0a.14.14,0,0,0,0,.06l-.12.28,0,0c0,.07-.06.15-.1.23l-.09.2v0a1.51,1.51,0,0,1-.11.22c-.06.13-.12.25-.19.37l-.15.28-.12.2-.12.21h0l-.13.2-.13.2-.07.09-.13.18-.37.48-.17.2a.46.46,0,0,1-.07.07l-.15.18a9.13,9.13,0,0,1-.7.69,1.07,1.07,0,0,1-.16.14l-.11.1L197,86l-.23.18-.06,0-.18.13-.1.07-.43.31-.41.25-.19.12-.2.12a3.07,3.07,0,0,0-.31.17q-.48.26-1,.48l-.35.15-.36.15-.28.1-.24.09-.62.21-.2.06a3,3,0,0,1-.4.12l-.28.08-.27.07-.41.11-.41.09-.36.08-.12,0-.34.06h0l-.4.08-.5.08-.49.08-.26,0-.25,0-.52.07h-.07l-.3,0h-.16l-.4,0h-.15l-.5,0-.36,0h-.29l-.29,0h-5.36l-.58,0-.35,0-.5,0-.42,0-.3,0-.3,0-.59-.07-.26,0-.25,0-.49-.08-.5-.08-.41-.08-.58-.11-.49-.11-.61-.16-.27-.07-.28-.08a2.64,2.64,0,0,1-.4-.12l-.2-.06-.63-.21-.23-.09-.28-.1-.36-.15-.35-.15-.37-.17-.27-.13,0,0-.28-.14h0l-.31-.17-.21-.12-.59-.37-.22-.15-.22-.16-.1-.08-.14-.1-.09-.07-.23-.18-.46-.41a.86.86,0,0,1-.14-.13,7.23,7.23,0,0,1-.55-.56,1.59,1.59,0,0,1-.13-.13l-.09-.11,0-.05-.13-.15-.37-.48-.13-.18-.07-.09-.22-.34-.09-.14a1.4,1.4,0,0,0-.1-.16c-.2-.34-.38-.69-.55-1-.07-.15-.14-.3-.2-.45s0,0,0,0l-.12-.28s0,0,0-.06l-.06-.16c0-.11-.09-.23-.13-.35l-.12-.37a1.09,1.09,0,0,0-.05-.17l-.06-.2a1.09,1.09,0,0,0-.05-.17,1.46,1.46,0,0,0-.05-.2l-.09-.38c0-.07,0-.13,0-.19a2.56,2.56,0,0,1-.05-.27h0a24,24,0,0,1-.46-3.69h0c0-.12,0-.25,0-.37h0c0-.46,0-.93,0-1.4v-.31c0-4.53,4.88-8.58,9.56-12.1,4.4-3.3,8.64-6.14,8.55-8.47a1.74,1.74,0,0,0-.25-.87.77.77,0,0,1-.16-.52c.27-.92,6.27,2.64,12,7.52,1.65-3.34,5.73-6.37,9.69-9.09,4.82-3.31,9.46-6.14,9.36-8.47A1.58,1.58,0,0,0,210,40c-.15-.24-.2-.41-.16-.51.33-1.08,9.19,3.94,16.17,10,3.87,3.38,7.17,7.09,8.1,10.27,3.77-2.75,7-5.14,6.92-7.16a1.66,1.66,0,0,0-.26-.87c-.14-.24-.19-.41-.15-.52.31-1.07,8.56,3.94,15,10C259.94,65.28,263.45,69.74,263.47,73.23Z"/></g><path class="cls-9" d="M259.92,81.93c-10.81-6.32-27.7-10.39-46.68-10.39s-35.86,4.07-46.68,10.39c10.82,6.33,27.7,10.4,46.68,10.4S249.11,88.26,259.92,81.93Z"/><g class="cls-10"><path class="cls-5" d="M211.19,42a9.27,9.27,0,0,1,.55,1.61,10.58,10.58,0,0,1,.31,1.68,11.49,11.49,0,0,1-.1,3.46,10.38,10.38,0,0,1-1.19,3.3,10.62,10.62,0,0,1-2.25,2.73,13.28,13.28,0,0,1-1.4,1.07,16.28,16.28,0,0,1-1.52.85c-.52.26-1.06.46-1.59.67-.27.11-.55.18-.82.26s-.55.17-.82.24a24.14,24.14,0,0,1-6.7.7l0-.37A48.66,48.66,0,0,0,202,56.59l.75-.28c.25-.1.51-.18.75-.3l.72-.32a7.86,7.86,0,0,0,.71-.36,7.62,7.62,0,0,0,.69-.38l.67-.42a12.49,12.49,0,0,0,1.23-.94,10.21,10.21,0,0,0,3.22-5.16,13.13,13.13,0,0,0,.42-3.14,16,16,0,0,0-.28-3.23Z"/><path class="cls-5" d="M211,41.84a25.66,25.66,0,0,1,3.91.4,30.3,30.3,0,0,1,3.85.91,23.14,23.14,0,0,1,3.71,1.48,15.62,15.62,0,0,1,3.38,2.24,10.32,10.32,0,0,1,2.56,3.28,8.66,8.66,0,0,1,.83,4.09c0,.35-.05.69-.09,1s-.1.68-.19,1-.19.65-.28,1l-.18.47a3.8,3.8,0,0,1-.18.47,16.72,16.72,0,0,1-2,3.44l-.32-.19a23.78,23.78,0,0,0,1.4-3.57,3.81,3.81,0,0,0,.13-.45l.12-.45c.06-.31.13-.61.16-.92s.08-.61.11-.92,0-.6,0-.91a8.76,8.76,0,0,0-.23-1.77,7.13,7.13,0,0,0-.64-1.66A9.77,9.77,0,0,0,224.86,48a16.67,16.67,0,0,0-3.05-2.1,29.16,29.16,0,0,0-3.45-1.58A52.31,52.31,0,0,0,211,42.18Z"/><path class="cls-5" d="M211.08,41.86a17,17,0,0,1,2.82,1.87,18.25,18.25,0,0,1,2.46,2.36A15.23,15.23,0,0,1,218.3,49a11.39,11.39,0,0,1,1.11,3.35,9.9,9.9,0,0,1-.08,3.56,10.57,10.57,0,0,1-1.28,3.28,15.89,15.89,0,0,1-4.68,4.9l-.25-.28a22.54,22.54,0,0,0,3.79-5.23,10.58,10.58,0,0,0,1-2.94,9.75,9.75,0,0,0,0-3.05A11.57,11.57,0,0,0,217,49.6a17.27,17.27,0,0,0-1.63-2.73,24.28,24.28,0,0,0-2.08-2.47,28.25,28.25,0,0,0-2.39-2.25Z"/><path class="cls-5" d="M211.67,41.93a19.08,19.08,0,0,1,3.33,1,20.8,20.8,0,0,1,3.15,1.53A17.28,17.28,0,0,1,221,46.58a12.23,12.23,0,0,1,2.27,2.83,9.37,9.37,0,0,1,1.18,3.5,9.88,9.88,0,0,1-.25,3.64l-.12.44-.14.43c-.05.14-.1.28-.16.42s-.1.28-.16.41a14.77,14.77,0,0,1-.8,1.59,16.4,16.4,0,0,1-2.08,2.8l-.3-.22a28.38,28.38,0,0,0,1.53-3l.16-.39.15-.39c.1-.25.18-.52.27-.77a14.74,14.74,0,0,0,.39-1.59,9.33,9.33,0,0,0,.05-3.16,8.53,8.53,0,0,0-1-3,14.88,14.88,0,0,0-4.48-4.64,33.41,33.41,0,0,0-5.9-3.26Z"/><path class="cls-5" d="M211.36,42.23a12.57,12.57,0,0,1,1.22,1.2c.38.43.72.89,1.06,1.36a12.77,12.77,0,0,1,1.56,3.11,9.54,9.54,0,0,1,.5,3.53,8.87,8.87,0,0,1-.92,3.5l-.21.4a1.87,1.87,0,0,1-.22.39l-.5.75a12.39,12.39,0,0,1-1.16,1.34A14.42,14.42,0,0,1,211.38,59a2.88,2.88,0,0,1-.35.26l-.35.26c-.24.16-.47.33-.72.48a24,24,0,0,1-6.23,2.73l-.14-.35a44.87,44.87,0,0,0,5.64-3.44c.22-.16.42-.34.63-.5l.32-.25a3.85,3.85,0,0,0,.3-.27,13.29,13.29,0,0,0,1.14-1.11,13,13,0,0,0,1-1.21l.42-.65a2.17,2.17,0,0,0,.19-.33l.18-.34a8.14,8.14,0,0,0,.83-2.93,9.21,9.21,0,0,0-.25-3.08,14.57,14.57,0,0,0-1.14-3,19.32,19.32,0,0,0-1.75-2.78Z"/><path class="cls-11" d="M233.3,64c0,9.37-2.77,17-20.06,17s-20.06-7.59-20.06-17S213.84,47.32,211,42.49C208.64,38.35,233.3,54.6,233.3,64Z"/><path class="cls-12" d="M211.19,42a9.56,9.56,0,0,1,.55,1.61,11.84,11.84,0,0,1,.31,1.68,11.49,11.49,0,0,1-.1,3.46A10.52,10.52,0,0,1,210.76,52a10.75,10.75,0,0,1-2.25,2.72,12.05,12.05,0,0,1-1.4,1.07,16.28,16.28,0,0,1-1.52.85c-.52.26-1.06.46-1.59.67-.27.11-.55.18-.82.26l-.82.25a24.51,24.51,0,0,1-6.7.69l0-.37A48.66,48.66,0,0,0,202,56.59l.75-.28c.25-.1.51-.18.75-.3l.72-.32c.25-.1.47-.24.71-.36s.47-.23.69-.38l.67-.41a14.36,14.36,0,0,0,1.23-.95,10.33,10.33,0,0,0,2-2.33,10.49,10.49,0,0,0,1.22-2.83,13.65,13.65,0,0,0,.42-3.14,16,16,0,0,0-.28-3.23Z"/><path class="cls-12" d="M211,41.84a25.79,25.79,0,0,1,3.91.4,32.11,32.11,0,0,1,3.85.91,23.51,23.51,0,0,1,3.71,1.48,15.62,15.62,0,0,1,3.38,2.24,10.43,10.43,0,0,1,2.56,3.28,8.71,8.71,0,0,1,.83,4.09c0,.35-.05.69-.09,1a8.59,8.59,0,0,1-.2,1c-.07.33-.18.66-.28,1l-.17.47a3.8,3.8,0,0,1-.18.47,16.72,16.72,0,0,1-2,3.44l-.32-.19a23,23,0,0,0,1.4-3.57,3.81,3.81,0,0,0,.13-.45l.12-.45c.06-.31.13-.61.16-.92s.08-.61.11-.91,0-.61,0-.91a8.76,8.76,0,0,0-.23-1.78,7.13,7.13,0,0,0-.64-1.66A9.77,9.77,0,0,0,224.86,48a16.41,16.41,0,0,0-3.06-2.1,28.3,28.3,0,0,0-3.44-1.58A52.7,52.7,0,0,0,211,42.18Z"/><path class="cls-12" d="M211.08,41.86a18.56,18.56,0,0,1,5.27,4.24,14.44,14.44,0,0,1,2,2.86,11.39,11.39,0,0,1,1.11,3.35,9.9,9.9,0,0,1-.08,3.56,10.73,10.73,0,0,1-1.28,3.28,16,16,0,0,1-4.69,4.91l-.24-.29a22.54,22.54,0,0,0,3.79-5.23,10.58,10.58,0,0,0,1-2.94,9.75,9.75,0,0,0,0-3.05A11.57,11.57,0,0,0,217,49.6a17.27,17.27,0,0,0-1.63-2.73,24.28,24.28,0,0,0-2.08-2.47,31.78,31.78,0,0,0-2.39-2.25Z"/><path class="cls-12" d="M211.67,41.93a19.08,19.08,0,0,1,3.33,1,20.8,20.8,0,0,1,3.15,1.53A16.79,16.79,0,0,1,221,46.59a12,12,0,0,1,2.27,2.82,9.37,9.37,0,0,1,1.18,3.5,9.88,9.88,0,0,1-.25,3.64l-.12.44-.14.43c-.05.14-.1.28-.16.42s-.1.28-.16.41a14.77,14.77,0,0,1-.8,1.59,16.4,16.4,0,0,1-2.08,2.8l-.3-.22a28.38,28.38,0,0,0,1.53-3l.16-.39.14-.38a8,8,0,0,0,.27-.78,12.75,12.75,0,0,0,.4-1.59,9.59,9.59,0,0,0,.05-3.16,8.53,8.53,0,0,0-1-3,14.88,14.88,0,0,0-4.48-4.64,33.77,33.77,0,0,0-5.9-3.26Z"/><path class="cls-12" d="M211.36,42.23a12.57,12.57,0,0,1,1.22,1.2,15.38,15.38,0,0,1,1,1.36,12.45,12.45,0,0,1,1.57,3.11,9.56,9.56,0,0,1,.5,3.54,8.83,8.83,0,0,1-.92,3.49l-.21.4a3.61,3.61,0,0,1-.22.39l-.5.75a13.6,13.6,0,0,1-1.16,1.34A14.42,14.42,0,0,1,211.38,59a2.88,2.88,0,0,1-.35.26l-.35.26c-.24.16-.47.34-.72.49a24.27,24.27,0,0,1-6.23,2.72l-.14-.35a44.87,44.87,0,0,0,5.64-3.44c.22-.15.42-.34.63-.5l.32-.25c.1-.09.21-.17.3-.26a15.09,15.09,0,0,0,1.14-1.12,13,13,0,0,0,1-1.21l.42-.65a2.17,2.17,0,0,0,.19-.33l.18-.34a8.35,8.35,0,0,0,.83-2.92,9.25,9.25,0,0,0-.25-3.09,14.57,14.57,0,0,0-1.14-3,19.32,19.32,0,0,0-1.75-2.78Z"/></g><g class="cls-13"><path class="cls-14" d="M233.35,63.93v.64h0v.28c0,.22,0,.43,0,.64s0,.27,0,.41v0c0,.15,0,.3,0,.45l0,.43a.28.28,0,0,0,0,.09l0,.34,0,.14c0,.14,0,.27,0,.41q-.06.54-.15,1l-.06.35c-.06.33-.12.65-.2,1l-.09.38c0,.1-.05.2-.08.3l-.09.28a1.09,1.09,0,0,1,0,.17,2.65,2.65,0,0,1-.12.37s0,0,0,0l-.05.14-.06.18-.06.14h0l0,.06c0,.1-.07.19-.11.29l0,0c0,.08-.07.15-.1.23l-.09.2v0c0,.07-.07.15-.11.22l-.19.37-.15.27a2.39,2.39,0,0,1-.13.21l-.12.21h0l-.12.2c-.05.06-.09.13-.14.2l-.06.09-.14.18c-.12.17-.24.33-.37.48l-.17.21-.06.07-.16.17a9.25,9.25,0,0,1-.7.7,1.07,1.07,0,0,1-.16.14l-.11.1-.19.16-.23.18-.06,0-.17.13-.1.07c-.14.11-.29.21-.44.31l-.41.26-.19.11-.2.12-.32.17c-.31.17-.64.33-1,.49l-.35.15-.36.14-.28.11-.24.09-.62.21-.2.06a2.77,2.77,0,0,1-.41.12l-.28.08-.26.07-.41.11-.42.1-.36.07-.12,0-.34.07h0l-.41.07-.5.08-.49.08-.25,0-.26,0-.52.06h-.07l-.3,0h-.16l-.41,0-.14,0-.5,0-.37,0h-.82l-.3,0h-4.3l-.3,0h-.24l-.58,0-.35,0-.5,0-.42,0-.3,0-.31,0-.59-.07-.26,0-.25,0-.49-.08-.5-.08-.41-.07L205,80.2l-.5-.11-.61-.16-.27-.07-.28-.08a2.77,2.77,0,0,1-.41-.12l-.2-.06-.62-.21-.24-.09-.28-.11-.36-.14-.35-.15-.38-.18-.27-.13-.05,0-.27-.15s0,0,0,0l-.32-.17-.2-.12c-.21-.12-.41-.24-.6-.37l-.22-.15-.22-.16-.11-.08-.13-.1-.09-.07-.23-.18-.47-.41-.14-.13c-.19-.18-.38-.37-.55-.56l-.12-.14-.1-.1,0,0c0-.05-.09-.1-.13-.16s-.25-.31-.37-.48l-.13-.18-.07-.09-.22-.34-.09-.14-.1-.17a9.75,9.75,0,0,1-.49-.9c-.09-.19-.18-.4-.27-.6,0,0,0,0,0,0s-.08-.19-.11-.29l0-.06a.88.88,0,0,1-.05-.15c0-.12-.09-.24-.13-.36a2.65,2.65,0,0,1-.12-.37,1.09,1.09,0,0,1,0-.17,1.17,1.17,0,0,1-.06-.2,1.09,1.09,0,0,1-.05-.17l-.06-.21-.09-.38c0-.06,0-.13,0-.19s0-.17-.05-.25v0h0v-.34h0l-.47-3.23h0s.11-.07.11-.11h0c0-.26,0-.43,0-.45a.49.49,0,0,0,.11.07h0v0c4.63,10,21.57,11.51,29.59,5.65s4.23-16.66,2.83-19.31C229.89,56,233.33,60.43,233.35,63.93Z"/></g><g class="cls-15"><path class="cls-5" d="M241.94,55.59a9.56,9.56,0,0,1,.55,1.61,12.1,12.1,0,0,1,.31,1.68,11.49,11.49,0,0,1-.1,3.46,10.43,10.43,0,0,1-1.19,3.31,10.75,10.75,0,0,1-2.25,2.72,12.05,12.05,0,0,1-1.4,1.07,16.28,16.28,0,0,1-1.52.85c-.52.26-1.06.46-1.59.67-.27.11-.55.18-.82.27l-.82.24a24.13,24.13,0,0,1-6.7.69l0-.37a48.66,48.66,0,0,0,6.35-1.56l.75-.28c.25-.1.51-.18.75-.29l.72-.33a7.86,7.86,0,0,0,.71-.36,6.66,6.66,0,0,0,.69-.38l.67-.41a14.36,14.36,0,0,0,1.23-1,10.28,10.28,0,0,0,2-2.32,10.56,10.56,0,0,0,1.22-2.84,13.13,13.13,0,0,0,.42-3.14,15.87,15.87,0,0,0-.28-3.22Z"/><path class="cls-5" d="M241.76,55.48a27,27,0,0,1,3.91.4,30.34,30.34,0,0,1,3.85.92,23.09,23.09,0,0,1,3.71,1.47,15.62,15.62,0,0,1,3.38,2.24,10.55,10.55,0,0,1,2.56,3.28,8.71,8.71,0,0,1,.83,4.09c0,.35-.05.69-.09,1a8.85,8.85,0,0,1-.2,1c-.07.34-.18.66-.27,1l-.18.48a3.66,3.66,0,0,1-.18.46,16.46,16.46,0,0,1-2,3.44l-.32-.19a23.26,23.26,0,0,0,1.4-3.56,4,4,0,0,0,.13-.46l.12-.45c.06-.31.13-.61.16-.92s.08-.61.11-.91,0-.61,0-.91a8.76,8.76,0,0,0-.23-1.78,6.89,6.89,0,0,0-.64-1.65,9.68,9.68,0,0,0-2.23-2.8,17.18,17.18,0,0,0-3.05-2.1A29.16,29.16,0,0,0,249.11,58a52.7,52.7,0,0,0-7.39-2.15Z"/><path class="cls-5" d="M241.83,55.5a17.68,17.68,0,0,1,2.82,1.87,18.28,18.28,0,0,1,2.45,2.37,14.44,14.44,0,0,1,2,2.86A11.48,11.48,0,0,1,250.16,66a9.9,9.9,0,0,1-.08,3.56,10.48,10.48,0,0,1-1.28,3.28,15.73,15.73,0,0,1-4.69,4.91l-.24-.29a22.54,22.54,0,0,0,3.79-5.23,10.58,10.58,0,0,0,1-2.94,9.75,9.75,0,0,0,0-3,11.57,11.57,0,0,0-.91-2.95,16.74,16.74,0,0,0-1.63-2.72A24.39,24.39,0,0,0,244,58a31.78,31.78,0,0,0-2.39-2.25Z"/><path class="cls-5" d="M242.42,55.57a19.08,19.08,0,0,1,3.33,1,20,20,0,0,1,3.15,1.54,16.22,16.22,0,0,1,2.85,2.12A11.82,11.82,0,0,1,254,63.06a9.32,9.32,0,0,1,1.18,3.49,9.88,9.88,0,0,1-.25,3.64l-.12.44-.14.43c-.05.14-.1.28-.16.42s-.1.28-.16.42a15.6,15.6,0,0,1-.8,1.58,16.88,16.88,0,0,1-2.08,2.81l-.3-.22a29.52,29.52,0,0,0,1.53-3l.16-.38.15-.39c.1-.26.18-.52.27-.78a15.17,15.17,0,0,0,.39-1.58,9.38,9.38,0,0,0,.05-3.17,8.48,8.48,0,0,0-1-2.94,14.92,14.92,0,0,0-4.48-4.65,33.77,33.77,0,0,0-5.9-3.26Z"/><path class="cls-5" d="M242.11,55.87a11.61,11.61,0,0,1,1.22,1.21,13.91,13.91,0,0,1,1,1.35A12.45,12.45,0,0,1,246,61.54a9.59,9.59,0,0,1,.5,3.54,8.83,8.83,0,0,1-.92,3.49l-.21.4a1.87,1.87,0,0,1-.22.39l-.5.75a13.6,13.6,0,0,1-1.16,1.34,14.42,14.42,0,0,1-1.31,1.17c-.11.1-.23.18-.35.27l-.35.25c-.24.16-.47.34-.72.49a23.93,23.93,0,0,1-6.23,2.72l-.14-.35A44.87,44.87,0,0,0,240,72.56c.22-.15.42-.33.63-.5l.32-.25a3.73,3.73,0,0,0,.3-.26,13.4,13.4,0,0,0,1.14-1.12,14.25,14.25,0,0,0,1-1.2l.42-.66a2.17,2.17,0,0,0,.19-.33l.18-.34A8.35,8.35,0,0,0,245,65a9.27,9.27,0,0,0-.25-3.09,14.71,14.71,0,0,0-1.14-3,18.28,18.28,0,0,0-1.75-2.78Z"/><path class="cls-11" d="M264.05,77.61c0,9.37-2.77,17-20.06,17s-20.06-7.59-20.06-17S244.59,61,241.79,56.13C239.39,52,264.05,68.25,264.05,77.61Z"/><path class="cls-12" d="M241.94,55.59a9.56,9.56,0,0,1,.55,1.61,12.1,12.1,0,0,1,.31,1.68,11.49,11.49,0,0,1-.1,3.46,10.43,10.43,0,0,1-1.19,3.31,10.75,10.75,0,0,1-2.25,2.72,12.05,12.05,0,0,1-1.4,1.07,16.28,16.28,0,0,1-1.52.85,16.78,16.78,0,0,1-1.59.67c-.27.11-.55.18-.82.27l-.82.24a24.17,24.17,0,0,1-6.7.69l0-.37a48.66,48.66,0,0,0,6.35-1.56l.75-.28c.25-.1.51-.18.75-.29l.72-.33c.25-.1.47-.24.71-.36a6.66,6.66,0,0,0,.69-.38l.67-.41a14.36,14.36,0,0,0,1.23-1,10.28,10.28,0,0,0,2-2.32,10.56,10.56,0,0,0,1.22-2.84,13.65,13.65,0,0,0,.42-3.14,15.87,15.87,0,0,0-.28-3.22Z"/><path class="cls-12" d="M241.76,55.48a27.13,27.13,0,0,1,3.91.4,30.34,30.34,0,0,1,3.85.92,24.47,24.47,0,0,1,3.71,1.47,15.62,15.62,0,0,1,3.38,2.24,10.7,10.7,0,0,1,2.56,3.28,8.83,8.83,0,0,1,.83,4.09c0,.35-.05.69-.09,1a8.43,8.43,0,0,1-.2,1,10.09,10.09,0,0,1-.28,1l-.17.48a4.52,4.52,0,0,1-.18.47,16.65,16.65,0,0,1-2,3.43l-.32-.19a24.33,24.33,0,0,0,1.4-3.56c.05-.15.09-.3.13-.46l.12-.45c.06-.31.13-.61.16-.92s.08-.61.11-.91,0-.61,0-.91a8.76,8.76,0,0,0-.23-1.78,7.05,7.05,0,0,0-.64-1.65,9.68,9.68,0,0,0-2.23-2.8,16.9,16.9,0,0,0-3.06-2.1A29,29,0,0,0,249.11,58a52.7,52.7,0,0,0-7.39-2.15Z"/><path class="cls-12" d="M241.83,55.5a17.68,17.68,0,0,1,2.82,1.87,18.28,18.28,0,0,1,2.45,2.37,14.44,14.44,0,0,1,2,2.86A11.48,11.48,0,0,1,250.16,66a9.9,9.9,0,0,1-.08,3.56,10.63,10.63,0,0,1-1.28,3.28,15.73,15.73,0,0,1-4.69,4.91l-.24-.28a22.81,22.81,0,0,0,3.79-5.24,10.58,10.58,0,0,0,1-2.94,9.75,9.75,0,0,0,0-3,11.21,11.21,0,0,0-.92-2.95,16,16,0,0,0-1.62-2.72A24.39,24.39,0,0,0,244,58a31.78,31.78,0,0,0-2.39-2.25Z"/><path class="cls-12" d="M242.42,55.57a19.61,19.61,0,0,1,3.33,1,20,20,0,0,1,3.15,1.54,16.22,16.22,0,0,1,2.85,2.12A11.82,11.82,0,0,1,254,63.06a9.32,9.32,0,0,1,1.18,3.49,9.86,9.86,0,0,1-.25,3.64l-.12.44-.14.43c-.05.14-.1.28-.16.42s-.1.28-.16.42a15.6,15.6,0,0,1-.8,1.58,16.88,16.88,0,0,1-2.08,2.81l-.3-.22a29.52,29.52,0,0,0,1.53-3l.16-.38.14-.39a8,8,0,0,0,.27-.78,11.38,11.38,0,0,0,.39-1.58,9.39,9.39,0,0,0,.06-3.17,8.69,8.69,0,0,0-1-2.94,14.92,14.92,0,0,0-4.48-4.65,33.77,33.77,0,0,0-5.9-3.26Z"/><path class="cls-12" d="M242.1,55.87a10.82,10.82,0,0,1,1.23,1.21,13.91,13.91,0,0,1,1,1.35A12.45,12.45,0,0,1,246,61.54a9.59,9.59,0,0,1,.5,3.54,9,9,0,0,1-.92,3.49l-.21.4a3.61,3.61,0,0,1-.22.39l-.5.75a12.54,12.54,0,0,1-1.16,1.34,13.06,13.06,0,0,1-1.31,1.17c-.11.1-.23.18-.35.27l-.35.25c-.24.16-.47.34-.72.49a23.93,23.93,0,0,1-6.23,2.72l-.14-.35A46,46,0,0,0,240,72.57c.22-.16.42-.34.63-.51l.32-.25a3.73,3.73,0,0,0,.3-.26,13.4,13.4,0,0,0,1.14-1.12,14.25,14.25,0,0,0,1-1.2l.42-.65c.07-.11.13-.23.19-.34l.18-.34A8.29,8.29,0,0,0,245,65a9.27,9.27,0,0,0-.25-3.09,14.71,14.71,0,0,0-1.14-3,18.28,18.28,0,0,0-1.75-2.78Z"/></g><g class="cls-13"><path class="cls-14" d="M264.1,77.57v.64h0v.28c0,.22,0,.43,0,.65s0,.27,0,.4v0c0,.15,0,.3,0,.45l0,.43a.28.28,0,0,0,0,.09l0,.34,0,.15c0,.13,0,.27,0,.4,0,.36-.09.71-.15,1.06l-.06.34c-.06.33-.12.66-.2,1l-.09.39c0,.09,0,.19-.08.29l-.09.29a1,1,0,0,1-.05.16,2.29,2.29,0,0,1-.12.37s0,0,0,0l-.05.14-.06.18-.06.15h0l0,.05a2.49,2.49,0,0,1-.11.29l0,0c0,.08-.07.16-.1.23l-.09.21v0l-.11.22c-.06.13-.13.25-.19.37l-.15.28a2.39,2.39,0,0,1-.13.21l-.12.2v0l-.12.19-.14.2-.06.09-.14.19-.37.48c-.06.06-.11.13-.17.2l-.06.07-.16.18a9.13,9.13,0,0,1-.7.69,1.07,1.07,0,0,1-.16.14.52.52,0,0,1-.11.1l-.19.16-.23.18-.06,0L259,91l-.1.07c-.14.11-.29.21-.44.31l-.41.26a1.18,1.18,0,0,1-.19.11l-.2.12-.32.17c-.31.17-.64.34-1,.49l-.35.15-.36.15-.28.1-.24.09-.62.21-.2.07-.41.12-.28.08-.26.07-.41.1-.42.1-.36.08-.12,0-.34.07h0l-.41.07-.5.09-.49.07-.25,0-.26,0-.52.06h-.07l-.31,0-.15,0-.41,0h-.14l-.5,0-.37,0h-.58l-.24,0h-4.9l-.24,0-.58,0-.35,0-.5,0-.42,0-.3,0-.31,0-.59-.07-.26,0-.25,0-.49-.07-.5-.09-.41-.07-.58-.12-.5-.11-.62-.15-.26-.07-.28-.08-.41-.12-.2-.07c-.21-.06-.42-.14-.62-.21l-.24-.09-.28-.1-.36-.15-.35-.15-.38-.17-.27-.14-.05,0-.27-.14s0,0,0,0l-.32-.17-.2-.12c-.21-.12-.41-.24-.6-.37l-.22-.15-.22-.16L229,91l-.13-.11-.09-.07-.23-.18-.47-.41-.14-.13c-.19-.18-.38-.37-.55-.56a1.59,1.59,0,0,0-.13-.13l-.09-.11,0,0-.13-.15c-.13-.16-.26-.32-.37-.48l-.14-.19-.06-.09-.23-.34a1,1,0,0,0-.08-.14l-.1-.17c-.18-.29-.34-.59-.49-.89l-.27-.61,0,0a2.49,2.49,0,0,1-.11-.29l0-.05a1.42,1.42,0,0,1-.05-.16c0-.12-.09-.24-.13-.36a2.29,2.29,0,0,1-.12-.37,1,1,0,0,1,0-.16l-.07-.21s0-.11,0-.17l-.06-.2-.09-.39c0-.06,0-.12,0-.19s0-.16-.05-.25h0V83h0l-.47-3.23h0s.11-.08.1-.12h0c0-.26,0-.43,0-.45s.11.07.11.07h0v0c4.63,10,21.57,11.52,29.59,5.66s4.23-16.67,2.83-19.31C260.64,69.62,264.08,74.08,264.1,77.57Z"/></g><g class="cls-16"><path class="cls-5" d="M181.32,54a10.55,10.55,0,0,1,.55,1.61,13.44,13.44,0,0,1,.31,1.68,11.83,11.83,0,0,1-.1,3.46,10.45,10.45,0,0,1-1.2,3.31,10.34,10.34,0,0,1-2.25,2.72,12.05,12.05,0,0,1-1.4,1.07,15.1,15.1,0,0,1-1.52.85,17.2,17.2,0,0,1-1.59.67c-.27.11-.54.18-.82.27l-.82.24a24.44,24.44,0,0,1-6.69.69l0-.37a48.27,48.27,0,0,0,6.35-1.56l.76-.28c.24-.1.5-.18.74-.3l.73-.32a7.67,7.67,0,0,0,.7-.36c.23-.13.48-.23.7-.38l.66-.41a14.36,14.36,0,0,0,1.23-1,10.64,10.64,0,0,0,2-2.33,10.16,10.16,0,0,0,1.21-2.83,12.64,12.64,0,0,0,.42-3.14,15.33,15.33,0,0,0-.28-3.23Z"/><path class="cls-5" d="M181.13,53.85a25.79,25.79,0,0,1,3.92.4,32,32,0,0,1,3.84.91,24.11,24.11,0,0,1,3.71,1.48A15.93,15.93,0,0,1,196,58.88a10.52,10.52,0,0,1,2.55,3.28,8.59,8.59,0,0,1,.83,4.09c0,.35-.05.69-.08,1s-.11.68-.2,1a10.09,10.09,0,0,1-.28,1l-.17.48c-.06.15-.12.31-.19.46a16.43,16.43,0,0,1-2,3.44l-.32-.19a24,24,0,0,0,1.4-3.57c.05-.15.09-.3.13-.45l.11-.45c.06-.31.13-.61.17-.92s.07-.61.11-.91,0-.61,0-.91a8.77,8.77,0,0,0-.24-1.78,7.57,7.57,0,0,0-.63-1.66A9.64,9.64,0,0,0,195,60a16.33,16.33,0,0,0-3-2.1,29.16,29.16,0,0,0-3.45-1.58,52.18,52.18,0,0,0-7.38-2.15Z"/><path class="cls-5" d="M181.21,53.87A17.68,17.68,0,0,1,184,55.74a18.26,18.26,0,0,1,2.45,2.37A14.84,14.84,0,0,1,188.42,61a11.1,11.1,0,0,1,1.11,3.35,9.9,9.9,0,0,1-.08,3.56,10.48,10.48,0,0,1-1.28,3.28,16,16,0,0,1-4.68,4.91l-.25-.29A22.54,22.54,0,0,0,187,70.55a10.6,10.6,0,0,0,1-2.94,9.46,9.46,0,0,0,0-3,10.83,10.83,0,0,0-.91-3,16.55,16.55,0,0,0-1.63-2.73,23.05,23.05,0,0,0-2.08-2.47A30,30,0,0,0,181,54.16Z"/><path class="cls-5" d="M181.79,53.94a19.44,19.44,0,0,1,3.34,1,21.27,21.27,0,0,1,3.15,1.53,17.2,17.2,0,0,1,2.85,2.13,12.23,12.23,0,0,1,2.27,2.82,9.32,9.32,0,0,1,.92,7.14l-.12.44-.14.43c0,.14-.1.28-.15.42s-.11.28-.17.41a14.77,14.77,0,0,1-.8,1.59,16.89,16.89,0,0,1-2.07,2.8l-.3-.22a28.29,28.29,0,0,0,1.52-3l.16-.39.15-.38c.1-.26.18-.52.27-.78a12.71,12.71,0,0,0,.39-1.59,9.59,9.59,0,0,0,.06-3.16,8.76,8.76,0,0,0-1.05-3,14.77,14.77,0,0,0-4.48-4.64,33.32,33.32,0,0,0-5.89-3.26Z"/><path class="cls-5" d="M181.48,54.24a11.54,11.54,0,0,1,1.22,1.2,15.49,15.49,0,0,1,1.06,1.36,12.45,12.45,0,0,1,1.57,3.11,9.77,9.77,0,0,1,.5,3.54,9,9,0,0,1-.92,3.49l-.21.4a2.5,2.5,0,0,1-.23.39l-.49.75a13.69,13.69,0,0,1-1.17,1.34A13.19,13.19,0,0,1,181.5,71c-.11.1-.22.18-.34.27l-.36.25c-.24.16-.47.34-.71.49a24.42,24.42,0,0,1-6.23,2.72l-.14-.35a45.47,45.47,0,0,0,5.63-3.44c.22-.15.43-.34.64-.5l.31-.25.31-.26c.38-.37.8-.72,1.14-1.12a12.84,12.84,0,0,0,1-1.21l.42-.65a1.57,1.57,0,0,0,.19-.33l.18-.34a8.16,8.16,0,0,0,.84-2.92,9.52,9.52,0,0,0-.26-3.09,13.25,13.25,0,0,0-1.14-3,18.82,18.82,0,0,0-1.74-2.79Z"/><path class="cls-11" d="M203.43,76c0,9.37-2.77,17-20.06,17s-20.06-7.59-20.06-17S184,59.33,181.16,54.5C178.76,50.36,203.43,66.61,203.43,76Z"/><path class="cls-12" d="M181.32,54a10.55,10.55,0,0,1,.55,1.61,13.44,13.44,0,0,1,.31,1.68,11.83,11.83,0,0,1-.1,3.46,10.45,10.45,0,0,1-1.2,3.31,10.34,10.34,0,0,1-2.25,2.72,12.05,12.05,0,0,1-1.4,1.07,15.1,15.1,0,0,1-1.52.85c-.52.26-1.05.46-1.59.67-.27.11-.54.18-.82.27l-.82.24a24.44,24.44,0,0,1-6.69.69l0-.37a48.66,48.66,0,0,0,6.35-1.56l.76-.28c.24-.1.5-.18.74-.3l.73-.32a27.74,27.74,0,0,0,1.39-.74l.67-.41a14.36,14.36,0,0,0,1.23-1,10.59,10.59,0,0,0,2-2.32,10.22,10.22,0,0,0,1.21-2.84,12.64,12.64,0,0,0,.42-3.14,15.33,15.33,0,0,0-.28-3.23Z"/><path class="cls-12" d="M181.13,53.85a27.13,27.13,0,0,1,3.92.4,32,32,0,0,1,3.84.91,24.11,24.11,0,0,1,3.71,1.48A15.93,15.93,0,0,1,196,58.88a10.52,10.52,0,0,1,2.55,3.28,8.59,8.59,0,0,1,.83,4.09,9.12,9.12,0,0,1-.09,1c-.06.33-.1.67-.19,1a10.09,10.09,0,0,1-.28,1l-.17.48c-.06.15-.12.31-.19.46a16.43,16.43,0,0,1-2,3.44l-.32-.19a24.33,24.33,0,0,0,1.4-3.56c.05-.15.09-.31.13-.46l.11-.45c.06-.31.13-.61.17-.92s.07-.61.1-.91,0-.61,0-.91a9.54,9.54,0,0,0-.24-1.78,7.31,7.31,0,0,0-.63-1.65A9.71,9.71,0,0,0,195,60a16.82,16.82,0,0,0-3-2.1,29.16,29.16,0,0,0-3.45-1.58,52.18,52.18,0,0,0-7.38-2.15Z"/><path class="cls-12" d="M181.2,53.87A16.83,16.83,0,0,1,184,55.74a18.36,18.36,0,0,1,2.46,2.37A14.84,14.84,0,0,1,188.42,61a11.2,11.2,0,0,1,1.11,3.35,9.9,9.9,0,0,1-.08,3.56,10.48,10.48,0,0,1-1.28,3.28,15.92,15.92,0,0,1-4.68,4.91l-.25-.29A22.54,22.54,0,0,0,187,70.55a10.94,10.94,0,0,0,1-2.94,9.46,9.46,0,0,0,0-3,10.83,10.83,0,0,0-.91-3,16.06,16.06,0,0,0-1.63-2.72,22.21,22.21,0,0,0-2.08-2.48A30,30,0,0,0,181,54.16Z"/><path class="cls-12" d="M181.79,53.94a19.44,19.44,0,0,1,3.34,1,20.38,20.38,0,0,1,3.15,1.54,17,17,0,0,1,2.85,2.12,12.07,12.07,0,0,1,2.27,2.83,9.5,9.5,0,0,1,1.18,3.49,9.67,9.67,0,0,1-.26,3.64l-.12.44-.14.43c0,.14-.1.28-.15.42s-.11.28-.17.41a14.77,14.77,0,0,1-.8,1.59,17.4,17.4,0,0,1-2.07,2.81l-.3-.23a28.29,28.29,0,0,0,1.52-3l.16-.38.15-.39c.1-.26.18-.52.27-.78a13,13,0,0,0,.39-1.58,9.65,9.65,0,0,0,.06-3.17,8.63,8.63,0,0,0-1.05-2.94,14.8,14.8,0,0,0-4.48-4.65,33.32,33.32,0,0,0-5.89-3.26Z"/><path class="cls-12" d="M181.48,54.24a11.54,11.54,0,0,1,1.22,1.2,15.49,15.49,0,0,1,1.06,1.36,12.45,12.45,0,0,1,1.57,3.11,9.58,9.58,0,0,1,.49,3.54,8.81,8.81,0,0,1-.91,3.49l-.21.4a2.5,2.5,0,0,1-.23.39l-.49.75a13.69,13.69,0,0,1-1.17,1.34A13.19,13.19,0,0,1,181.5,71c-.11.1-.22.18-.34.27l-.36.25c-.24.16-.47.34-.71.49a24.42,24.42,0,0,1-6.23,2.72l-.14-.35a45.47,45.47,0,0,0,5.63-3.44c.22-.15.42-.33.64-.5l.31-.25.31-.26c.38-.37.79-.72,1.14-1.12a14.13,14.13,0,0,0,1-1.2l.42-.66a1.57,1.57,0,0,0,.19-.33l.18-.34a8.16,8.16,0,0,0,.84-2.92,9.55,9.55,0,0,0-.26-3.09,13.62,13.62,0,0,0-1.14-3,18.82,18.82,0,0,0-1.74-2.79Z"/></g><g class="cls-13"><path class="cls-14" d="M203.48,75.94c0,.1,0,.17,0,.27v.37h0a2.62,2.62,0,0,1,0,.28c0,.22,0,.43,0,.65s0,.26,0,.4v0l0,.45,0,.43s0,.06,0,.09l0,.34v.15c0,.13,0,.27,0,.4,0,.36-.09.71-.14,1.06l-.06.34c-.06.33-.13.65-.2,1,0,.13-.07.26-.1.38s-.05.2-.08.3-.05.19-.08.28,0,.12-.05.17l-.12.37s0,0,0,0a.78.78,0,0,1,0,.14l-.06.18a1.21,1.21,0,0,0-.05.14v0s0,0,0,0l-.12.29,0,0a1.6,1.6,0,0,1-.1.23l-.09.21v0a2.26,2.26,0,0,1-.11.22c-.06.12-.12.25-.19.37l-.15.27-.12.21a2.39,2.39,0,0,1-.13.21h0l-.12.2c-.05.06-.09.13-.14.2l-.06.09-.13.19c-.12.16-.25.32-.38.47l-.17.21-.06.07-.16.18c-.22.23-.45.47-.7.69l-.15.14-.11.1-.19.16-.23.18-.06,0-.18.13-.1.07c-.14.11-.29.21-.44.31l-.4.26-.19.11-.21.12-.31.17c-.32.17-.65.33-1,.49l-.35.15-.36.15-.28.1-.24.09-.63.21-.2.06-.4.13-.28.07-.27.08-.41.1-.42.1-.35.07-.13,0-.34.07h0l-.41.07-.5.08-.5.08-.25,0-.26,0-.51.06h-.08l-.3,0-.15,0-.41,0-.15,0-.5,0-.36,0H186l-.25,0H180.9l-.25,0-.58,0-.35,0-.5,0-.41,0-.31,0-.3,0-.6-.07-.25,0-.25,0-.5-.08-.5-.08-.41-.07-.58-.12-.5-.11L174,92l-.27-.08-.28-.07-.41-.13-.2-.06-.62-.21-.24-.09-.28-.1-.36-.15-.35-.15-.37-.17-.27-.14,0,0-.28-.14,0,0a3.07,3.07,0,0,1-.31-.17l-.21-.12c-.2-.12-.4-.24-.59-.37l-.23-.15-.21-.16-.11-.08-.14-.1-.09-.07-.23-.18-.47-.41-.14-.13c-.19-.18-.37-.37-.55-.56l-.12-.14a.94.94,0,0,0-.1-.1l0-.05-.13-.16c-.13-.15-.25-.31-.37-.47l-.13-.19-.06-.09-.23-.34-.09-.14-.1-.17c-.17-.29-.34-.59-.48-.89a6.65,6.65,0,0,1-.27-.61.08.08,0,0,1,0,0l-.12-.29a.17.17,0,0,1,0,0l-.06-.16c0-.12-.09-.24-.13-.36l-.12-.37s0-.11,0-.17l-.06-.2-.05-.17a1.6,1.6,0,0,1-.05-.21c0-.12-.07-.25-.1-.38s0-.12,0-.19l-.06-.25v0h0v-.34h0l-.46-3.23h0s.1-.08.1-.12h0c0-.26-.05-.43-.05-.45s.1.07.1.07h0v0C168,87.71,185,89.18,193,83.32s4.23-16.67,2.84-19.32C200,68,203.46,72.44,203.48,75.94Z"/></g><g class="cls-17"><path class="cls-5" d="M211.19,67.36a9.56,9.56,0,0,1,.55,1.61,10.79,10.79,0,0,1,.31,1.68,11.49,11.49,0,0,1-.1,3.46,10.43,10.43,0,0,1-1.19,3.31,10.75,10.75,0,0,1-2.25,2.72,12.05,12.05,0,0,1-1.4,1.07,16.28,16.28,0,0,1-1.52.85c-.52.26-1.06.46-1.59.67-.27.11-.55.18-.82.27l-.82.24a24.13,24.13,0,0,1-6.7.69l0-.37A48.66,48.66,0,0,0,202,82l.75-.28c.25-.1.51-.18.75-.29l.72-.33a7.86,7.86,0,0,0,.71-.36,5.76,5.76,0,0,0,.69-.38l.67-.41a14.36,14.36,0,0,0,1.23-1,10.1,10.1,0,0,0,3.22-5.16,13.13,13.13,0,0,0,.42-3.14,15.87,15.87,0,0,0-.28-3.22Z"/><path class="cls-5" d="M211,67.25a27,27,0,0,1,3.91.4,30.34,30.34,0,0,1,3.85.92A24.06,24.06,0,0,1,222.48,70a15.62,15.62,0,0,1,3.38,2.24,10.55,10.55,0,0,1,2.56,3.28,8.71,8.71,0,0,1,.83,4.09c0,.35-.05.69-.09,1s-.1.67-.19,1-.19.66-.28,1l-.18.48a4.52,4.52,0,0,1-.18.47,16.65,16.65,0,0,1-2,3.43l-.32-.19a23.26,23.26,0,0,0,1.4-3.56,3.47,3.47,0,0,0,.13-.46l.12-.45c.06-.31.13-.61.16-.92s.08-.61.11-.91,0-.61,0-.91a8.76,8.76,0,0,0-.23-1.78,6.89,6.89,0,0,0-.64-1.65,9.68,9.68,0,0,0-2.23-2.8,17.18,17.18,0,0,0-3.05-2.1,29.16,29.16,0,0,0-3.45-1.58A52.31,52.31,0,0,0,211,67.59Z"/><path class="cls-5" d="M211.08,67.27a17.68,17.68,0,0,1,2.82,1.87,19,19,0,0,1,2.46,2.37,14.84,14.84,0,0,1,1.94,2.86,11.48,11.48,0,0,1,1.11,3.35,9.9,9.9,0,0,1-.08,3.56,10.48,10.48,0,0,1-1.28,3.28,15.82,15.82,0,0,1-4.68,4.91l-.25-.29A22.54,22.54,0,0,0,216.91,84a10.58,10.58,0,0,0,1-2.94,9.75,9.75,0,0,0,0-3.05A11.57,11.57,0,0,0,217,75a16.74,16.74,0,0,0-1.63-2.72,24.39,24.39,0,0,0-2.08-2.48,30,30,0,0,0-2.39-2.25Z"/><path class="cls-5" d="M211.67,67.34a19.08,19.08,0,0,1,3.33,1,20,20,0,0,1,3.15,1.54A16.22,16.22,0,0,1,221,72a11.82,11.82,0,0,1,2.27,2.83,9.32,9.32,0,0,1,1.18,3.49A9.88,9.88,0,0,1,224.2,82l-.12.44-.14.43c-.05.14-.1.28-.16.42s-.1.28-.16.42a15.6,15.6,0,0,1-.8,1.58,16.88,16.88,0,0,1-2.08,2.81l-.3-.22a29.52,29.52,0,0,0,1.53-3l.16-.38.15-.39c.1-.26.18-.52.27-.78a15.17,15.17,0,0,0,.39-1.58,9.38,9.38,0,0,0,.05-3.17,8.48,8.48,0,0,0-1-2.94,14.92,14.92,0,0,0-4.48-4.65,33.41,33.41,0,0,0-5.9-3.26Z"/><path class="cls-5" d="M211.36,67.64a11.61,11.61,0,0,1,1.22,1.21,15.76,15.76,0,0,1,1.06,1.35,12.77,12.77,0,0,1,1.56,3.11,9.59,9.59,0,0,1,.5,3.54,8.83,8.83,0,0,1-.92,3.49l-.21.4a1.87,1.87,0,0,1-.22.39l-.5.75a11.5,11.5,0,0,1-1.16,1.34,13.06,13.06,0,0,1-1.31,1.17c-.11.1-.23.18-.35.27l-.35.25c-.24.16-.47.34-.72.49a23.93,23.93,0,0,1-6.23,2.72l-.14-.35a44.87,44.87,0,0,0,5.64-3.44c.22-.15.42-.33.63-.5l.32-.25a3.73,3.73,0,0,0,.3-.26,13.4,13.4,0,0,0,1.14-1.12,14.25,14.25,0,0,0,1-1.2l.42-.66a2.17,2.17,0,0,0,.19-.33l.18-.34a8.14,8.14,0,0,0,.83-2.92,9.27,9.27,0,0,0-.25-3.09,14.71,14.71,0,0,0-1.14-3,18.28,18.28,0,0,0-1.75-2.78Z"/><path class="cls-11" d="M233.3,89.38c0,9.37-2.77,17-20.06,17s-20.06-7.59-20.06-17S213.84,72.73,211,67.9C208.64,63.76,233.3,80,233.3,89.38Z"/><path class="cls-12" d="M211.19,67.36a9.56,9.56,0,0,1,.55,1.61,12.1,12.1,0,0,1,.31,1.68,11.49,11.49,0,0,1-.1,3.46,10.43,10.43,0,0,1-1.19,3.31,11,11,0,0,1-2.25,2.73,13.19,13.19,0,0,1-1.4,1.06,16.28,16.28,0,0,1-1.52.85,14.52,14.52,0,0,1-1.59.67c-.27.11-.55.18-.82.27l-.82.24a23.76,23.76,0,0,1-6.7.69l0-.37A48.66,48.66,0,0,0,202,82l.75-.28c.25-.1.51-.18.75-.29l.72-.33c.25-.1.47-.24.71-.36a6.66,6.66,0,0,0,.69-.38l.67-.41a14.36,14.36,0,0,0,1.23-1,10.28,10.28,0,0,0,2-2.32,10.56,10.56,0,0,0,1.22-2.84,13.65,13.65,0,0,0,.42-3.14,15.87,15.87,0,0,0-.28-3.22Z"/><path class="cls-12" d="M211,67.25a27.13,27.13,0,0,1,3.91.4,30.34,30.34,0,0,1,3.85.92A24.47,24.47,0,0,1,222.48,70a15.62,15.62,0,0,1,3.38,2.24,10.55,10.55,0,0,1,2.56,3.28,8.71,8.71,0,0,1,.83,4.09c0,.35-.05.7-.09,1a8,8,0,0,1-.2,1,10.09,10.09,0,0,1-.28,1l-.17.48a4.52,4.52,0,0,1-.18.47,16.65,16.65,0,0,1-2,3.43l-.32-.19a23.26,23.26,0,0,0,1.4-3.56,3.47,3.47,0,0,0,.13-.46l.12-.45c.06-.31.13-.61.16-.92s.08-.61.11-.91,0-.61,0-.91a8.76,8.76,0,0,0-.23-1.78,7.05,7.05,0,0,0-.64-1.65,9.68,9.68,0,0,0-2.23-2.8,16.9,16.9,0,0,0-3.06-2.1,28.3,28.3,0,0,0-3.44-1.58A52.7,52.7,0,0,0,211,67.59Z"/><path class="cls-12" d="M211.08,67.27a17.68,17.68,0,0,1,2.82,1.87,18.28,18.28,0,0,1,2.45,2.37,14.44,14.44,0,0,1,2,2.86,11.55,11.55,0,0,1,1.11,3.36,9.91,9.91,0,0,1-.08,3.56,10.67,10.67,0,0,1-1.28,3.27,15.73,15.73,0,0,1-4.69,4.91l-.24-.28A22.59,22.59,0,0,0,216.91,84a10.58,10.58,0,0,0,1-2.94,9.75,9.75,0,0,0,0-3.05A11.57,11.57,0,0,0,217,75a16.74,16.74,0,0,0-1.63-2.72,24.39,24.39,0,0,0-2.08-2.48,31.78,31.78,0,0,0-2.39-2.25Z"/><path class="cls-12" d="M211.67,67.34a19.08,19.08,0,0,1,3.33,1,20.86,20.86,0,0,1,3.15,1.54A16.22,16.22,0,0,1,221,72a11.82,11.82,0,0,1,2.27,2.83,9.32,9.32,0,0,1,1.18,3.49A9.86,9.86,0,0,1,224.2,82l-.12.44-.14.43c-.05.14-.1.28-.16.42s-.1.28-.16.42a15.6,15.6,0,0,1-.8,1.58,16.88,16.88,0,0,1-2.08,2.81l-.3-.22a29.52,29.52,0,0,0,1.53-3l.16-.38.14-.39a8,8,0,0,0,.27-.78,13.06,13.06,0,0,0,.4-1.58,9.65,9.65,0,0,0,.05-3.17,8.48,8.48,0,0,0-1-2.94,14.92,14.92,0,0,0-4.48-4.65,33.77,33.77,0,0,0-5.9-3.26Z"/><path class="cls-12" d="M211.36,67.64a11.61,11.61,0,0,1,1.22,1.21,13.91,13.91,0,0,1,1,1.35,12.45,12.45,0,0,1,1.57,3.11,9.59,9.59,0,0,1,.5,3.54,8.83,8.83,0,0,1-.92,3.49l-.21.4a3.61,3.61,0,0,1-.22.39l-.5.76a13.48,13.48,0,0,1-1.16,1.33,13.06,13.06,0,0,1-1.31,1.17c-.11.1-.23.18-.35.27l-.35.25c-.24.16-.47.34-.72.49a23.93,23.93,0,0,1-6.23,2.72l-.14-.35a46,46,0,0,0,5.64-3.43c.22-.16.42-.34.63-.51l.32-.25a3.73,3.73,0,0,0,.3-.26,13.4,13.4,0,0,0,1.14-1.12,14.25,14.25,0,0,0,1-1.2l.42-.65a2.27,2.27,0,0,0,.19-.34l.18-.34a8.29,8.29,0,0,0,.83-2.92,9.27,9.27,0,0,0-.25-3.09,14.71,14.71,0,0,0-1.14-3,18.28,18.28,0,0,0-1.75-2.78Z"/></g><g class="cls-13"><path class="cls-14" d="M233.11,90v.63h0a2.62,2.62,0,0,1,0,.28c0,.22,0,.43,0,.64s0,.27,0,.41v0l0,.45,0,.43s0,.06,0,.09l0,.34v.14c0,.14,0,.27-.05.41,0,.36-.09.71-.14,1l-.06.35c-.06.33-.13.65-.2,1,0,.13-.07.26-.1.38a4141846352051.52,4141846352051.52,0,0,1-.16.58l-.05.17-.12.37s0,0,0,0A.78.78,0,0,1,232,98l-.06.18-.06.14h0s0,0,0,.06l-.12.29,0,0a2.29,2.29,0,0,1-.1.23l-.09.2v0c0,.07-.07.15-.11.22s-.12.25-.19.37l-.15.27-.12.21a2.39,2.39,0,0,1-.13.21h0l-.12.2c0,.06-.09.13-.14.2l-.06.09-.13.18c-.12.17-.25.33-.38.48l-.17.21-.06.07a1.29,1.29,0,0,1-.16.17,9.25,9.25,0,0,1-.7.7,1.07,1.07,0,0,1-.16.14l-.11.1-.18.16-.24.18-.06,0-.17.13-.1.07c-.14.11-.29.21-.44.31l-.4.26-.19.11-.21.12-.31.17c-.32.17-.65.33-1,.49l-.36.15a3,3,0,0,1-.36.14l-.28.11-.23.09-.63.21-.2.06-.4.12-.28.08-.27.07-.41.11-.42.09-.36.08-.12,0-.34.07h-.05l-.41.08-.49.08-.5.08-.25,0-.26,0-.51.06h-.08l-.3,0h-.16l-.4,0-.15,0-.5,0-.36,0h-.83l-.3,0h-4.3l-.29,0h-.25l-.58,0-.35,0-.5,0-.42,0-.3,0-.3,0-.6-.07-.25,0-.25,0-.5-.08-.5-.08-.41-.08-.58-.11-.5-.11-.61-.16-.27-.07-.28-.08c-.14,0-.27-.08-.41-.12l-.2-.06-.62-.21-.24-.09-.28-.11-.36-.14-.35-.15-.37-.18-.27-.13-.05,0-.28-.15h0a3.07,3.07,0,0,1-.31-.17l-.21-.12-.6-.37-.22-.15-.21-.16-.11-.08-.14-.1-.09-.07-.23-.18-.47-.41-.14-.13c-.19-.18-.37-.37-.55-.56l-.12-.14-.1-.1a.1.1,0,0,0,0,0l-.13-.16c-.13-.15-.25-.31-.37-.48l-.13-.18-.07-.09c-.07-.12-.15-.23-.22-.34l-.09-.14-.1-.17a7.77,7.77,0,0,1-.48-.9c-.1-.19-.19-.4-.28-.6,0,0,0,0,0,0l-.12-.29a.14.14,0,0,1,0-.06l-.06-.15c-.05-.12-.09-.24-.13-.36l-.12-.37-.05-.17-.06-.2,0-.17a1.6,1.6,0,0,1-.05-.21c0-.12-.07-.25-.1-.38s0-.13,0-.19l-.06-.25v0h0v-.34h0l-.46-3.23h0s.1-.08.1-.11h0c0-.26-.05-.43-.05-.45a.46.46,0,0,0,.1.07h0v0c4.62,10,21.56,11.51,29.58,5.65s4.23-16.66,2.84-19.31C229.65,82.09,233.09,86.54,233.11,90Z"/></g><path class="cls-4" d="M272.33,65.41V77c-3.87,5.57-13.7,11.11-36.32,13.31-6.21.6-13.39.95-21.67,1h-2c-8.37,0-15.62-.37-21.88-1-22.73-2.21-32.5-7.8-36.3-13.4l0,0,.11-9.74v-1l0-2.48v-.06s0-.06,0-.09h0l.06-.32c.29,2.48,2.12,10.53,13.45,17l1,.56c8.64,4.63,22.43,8.33,44.43,8.33S249,85.34,257.7,80.71l1-.55c10.71-6.09,13-13.58,13.5-16.51,0,.19.05.39.07.58h0A11.46,11.46,0,0,1,272.33,65.41Z"/><path class="cls-5" d="M272.33,65.87V78.5c-4.94,7.1-19.54,14.16-58,14.29h-2c-38.81-.11-53.37-7.25-58.2-14.41V65.1l.16-1.55c0,.23.1,10.48,13.51,18.14,8.56,4.89,22.55,8.89,45.42,8.89s36.86-4,45.46-8.87c11.37-6.47,13.29-14.59,13.6-17.08C272.34,65,272.33,65.48,272.33,65.87Z"/><path class="cls-18" d="M272.33,65.46v33c0,5-3,9.71-8.28,13.72-5.5,4.2-13.45,7.66-23,10a118.82,118.82,0,0,1-27.85,3.16c-17.32,0-32.9-3.39-43.71-8.78h0c-9.55-4.77-15.37-11.11-15.37-18.07V65.46a12.47,12.47,0,0,0,.12,1.73,16,16,0,0,0,4.19,8.36,33.36,33.36,0,0,0,8.1,6.38c10.65,6.23,27.18,10.27,45.79,10.39h2C230.74,92.19,245.5,89,256,84c1.37-.66,2.67-1.34,3.89-2.06a38.46,38.46,0,0,0,4.13-2.75C269.31,75.17,272.33,70.48,272.33,65.46Z"/><g class="cls-19"><g class="cls-20"><path class="cls-21" d="M213.24,102.27h-.89c-18.06-.12-34.8-3.92-45.93-10.43-7.8-4.56-12.32-9.73-13-15-.08-.57-.12-1.7-.12-1.75a.28.28,0,1,1,.55,0s0,1.15.12,1.7c.7,5,5.12,10.07,12.78,14.54,11,6.46,27.67,10.23,45.65,10.35h.06a.48.48,0,0,0,.12,0c.55,0,1.06,0,1.59,0h.21c18.57-.15,35.13-3.92,45.43-10.34s12.81-15.65,12.83-15.74a.28.28,0,0,1,.34-.2.26.26,0,0,1,.2.33c0,.1-2.47,9.47-13.07,16.08-10.39,6.47-27.06,10.28-45.73,10.43h-1.1Z"/><path class="cls-21" d="M213.24,111.56h-.89c-18.06-.12-34.8-3.92-45.93-10.42-7.8-4.57-12.32-9.74-13-15-.08-.57-.12-1.7-.12-1.75a.28.28,0,1,1,.55,0s0,1.15.12,1.7c.7,5,5.12,10.07,12.78,14.54,11,6.46,27.67,10.23,45.65,10.36h2c18.57-.15,35.13-3.92,45.43-10.34S272.58,85,272.6,84.91a.28.28,0,0,1,.34-.2.27.27,0,0,1,.2.33c0,.1-2.47,9.47-13.07,16.08-10.39,6.48-27.06,10.28-45.73,10.43h-1.1Z"/><path class="cls-21" d="M213.24,119.75h-.89c-18.06-.12-34.8-3.92-45.93-10.43-7.8-4.56-12.32-9.73-13-14.95-.08-.57-.12-1.7-.12-1.75a.28.28,0,1,1,.55,0s0,1.15.12,1.7c.7,5,5.12,10.07,12.78,14.54,11,6.46,27.67,10.23,45.65,10.35h.18c.52,0,1,0,1.5,0h.3c18.57-.15,35.13-3.92,45.43-10.34A29.35,29.35,0,0,0,272.6,92.49a.28.28,0,0,1,.34-.2.26.26,0,0,1,.2.33,29.89,29.89,0,0,1-13.07,16.7c-10.39,6.47-27.06,10.27-45.73,10.43h-1.1Z"/></g></g><g class="cls-22"><path class="cls-7" d="M272.33,65.46v33c0,5-3,9.71-8.28,13.72-5.5,4.2-13.45,7.66-23,10C261,113.73,256,84,256,84c1.37-.66,2.67-1.34,3.89-2.06a38.46,38.46,0,0,0,4.13-2.75C269.31,75.17,272.33,70.48,272.33,65.46Z"/></g><g class="cls-23"><path class="cls-4" d="M169.52,116.48c-9.55-4.77-15.37-11.11-15.37-18.07V65.46a12.47,12.47,0,0,0,.12,1.73,16,16,0,0,0,4.19,8.36C158.72,88.73,160.53,110.79,169.52,116.48Z"/></g><ellipse class="cls-24" cx="200.52" cy="104.96" rx="1.77" ry="1.69"/><ellipse class="cls-24" cx="226.58" cy="104.96" rx="1.77" ry="1.69"/><path class="cls-24" d="M213.7,108.86a8.41,8.41,0,0,1-4.82-1.42.5.5,0,0,1-.09-.72.56.56,0,0,1,.76-.09,7.48,7.48,0,0,0,4.15,1.2,8,8,0,0,0,4.24-1.2.55.55,0,0,1,.75.1.5.5,0,0,1-.1.72A9,9,0,0,1,213.7,108.86Z"/><ellipse class="cls-24" cx="171.92" cy="78.34" rx="1.37" ry="1.3"/><ellipse class="cls-24" cx="192.03" cy="78.34" rx="1.37" ry="1.3"/><path class="cls-24" d="M182.09,81.35a6.45,6.45,0,0,1-3.72-1.1.38.38,0,0,1-.07-.55.45.45,0,0,1,.59-.07,5.67,5.67,0,0,0,3.2.93,6.07,6.07,0,0,0,3.27-.93.42.42,0,0,1,.58.08.37.37,0,0,1-.08.55A6.78,6.78,0,0,1,182.09,81.35Z"/><ellipse class="cls-24" cx="233.69" cy="80.36" rx="1.37" ry="1.3"/><ellipse class="cls-24" cx="253.8" cy="80.36" rx="1.37" ry="1.3"/><path class="cls-24" d="M243.86,83.37a6.54,6.54,0,0,1-3.72-1.1.38.38,0,0,1-.06-.56.42.42,0,0,1,.58-.06,5.81,5.81,0,0,0,3.2.92,6.07,6.07,0,0,0,3.27-.93.45.45,0,0,1,.59.08.39.39,0,0,1-.08.56A6.89,6.89,0,0,1,243.86,83.37Z"/><rect class="cls-25" y="0.25" width="300" height="165"/></g></g></svg>