<svg xmlns="http://www.w3.org/2000/svg" xmlns:xlink="http://www.w3.org/1999/xlink" viewBox="0 0 300 165"><defs><style>.cls-1{isolation:isolate;}.cls-2{fill:#fce5cd;}.cls-3{fill:#f7cda9;}.cls-4{fill:#fff2e9;}.cls-5{fill:#302b2b;}.cls-6{opacity:0.52;}.cls-10,.cls-14,.cls-6,.cls-9{mix-blend-mode:soft-light;}.cls-7{fill:#ffe8d9;}.cls-8{fill:#ffc76c;}.cls-9{opacity:0.49;}.cls-10{opacity:0.95;}.cls-11{fill:#205b2f;}.cls-12{fill:#fff;}.cls-13{fill:#00922b;}.cls-15{fill:url(#linear-gradient);}</style><linearGradient id="linear-gradient" x1="150.37" y1="168.37" x2="149.66" y2="1.92" gradientUnits="userSpaceOnUse"><stop offset="0.03" stop-color="#591c16"/><stop offset="0.22" stop-color="#5f241d" stop-opacity="0.96"/><stop offset="0.38" stop-color="#733c33" stop-opacity="0.84"/><stop offset="0.53" stop-color="#936459" stop-opacity="0.64"/><stop offset="0.68" stop-color="#c09d8d" stop-opacity="0.36"/><stop offset="0.82" stop-color="#fae5cf" stop-opacity="0"/></linearGradient></defs><g class="cls-1"><g id="Layer_1" data-name="Layer 1"><rect class="cls-2" x="-0.27" y="-0.15" width="300" height="165"/><ellipse class="cls-3" cx="214.71" cy="63.91" rx="59.86" ry="18"/><path class="cls-4" d="M273,68.09c0,3.87-5.72,7.4-15.1,10.07-10.72,3-26.25,5-43.51,5-32.37,0-58.61-6.73-58.61-15,0-2.76,2.89-5.34,7.93-7.56,10.16-4.46,29.05-7.47,50.68-7.47C246.78,53.06,273,59.79,273,68.09Z"/><path class="cls-5" d="M155.76,68.54a12.24,12.24,0,0,1-1.69-4.3,4.07,4.07,0,0,1,0-.61,4,4,0,0,1,0-.6,5.75,5.75,0,0,1,.22-1.17,7.64,7.64,0,0,1,1-2.14,13.83,13.83,0,0,1,3.24-3.28A28.27,28.27,0,0,1,162.39,54a55.65,55.65,0,0,1,8.4-3.43c2.87-.93,5.8-1.7,8.74-2.35a149.67,149.67,0,0,1,17.87-2.72q9-.84,18-.83t18.06.84a144.42,144.42,0,0,1,17.88,2.78,88.55,88.55,0,0,1,8.75,2.42,48.6,48.6,0,0,1,8.4,3.62A23.6,23.6,0,0,1,272.37,57a13.58,13.58,0,0,1,1.68,1.71,9.6,9.6,0,0,1,1.32,2.07,7.19,7.19,0,0,1,.62,2.47c0,.11,0,.22,0,.33s0,.21,0,.32,0,.4,0,.6c-.05.39-.1.78-.18,1.17a12.59,12.59,0,0,1-.63,2.27,6.79,6.79,0,0,1-.52,1.09,3.91,3.91,0,0,1-.78,1l-.68-.59a7,7,0,0,0,.66-1.92c.15-.69.26-1.4.35-2.12.05-.35.09-.71.12-1.06,0-.18,0-.36,0-.52s0-.32,0-.49a5.42,5.42,0,0,0-.47-1.87,9.81,9.81,0,0,0-2.56-3.22,22.33,22.33,0,0,0-3.56-2.47,48,48,0,0,0-8.11-3.52A86.7,86.7,0,0,0,251,49.84,142.09,142.09,0,0,0,233.35,47c-5.95-.59-11.93-.87-17.91-.92s-12,.17-17.93.68a147.31,147.31,0,0,0-17.75,2.55c-2.92.61-5.82,1.34-8.67,2.22a53.9,53.9,0,0,0-8.29,3.27,26.38,26.38,0,0,0-3.79,2.3,13.21,13.21,0,0,0-3.1,3,6.93,6.93,0,0,0-.94,1.91,5.88,5.88,0,0,0-.21,1,4.53,4.53,0,0,0,0,.52,4.73,4.73,0,0,0,0,.52,10.46,10.46,0,0,0,.57,2.09,10.1,10.1,0,0,0,1,2Z"/><rect class="cls-5" x="196.65" y="113.11" width="38.01" height="7.2" rx="2"/><path class="cls-5" d="M275.16,63.6c0,29.82-27,54-60.39,54s-60.4-24.17-60.4-54c0,10.05,27,18.21,60.4,18.21S275.16,73.65,275.16,63.6Z"/><g class="cls-6"><path d="M196.62,116.53s8.64.9,18,.9a196.43,196.43,0,0,0,19.84-1.25A66.7,66.7,0,0,1,196.62,116.53Z"/></g><circle class="cls-7" cx="202.61" cy="96.7" r="1.65"/><circle class="cls-7" cx="226.85" cy="96.7" r="1.65"/><path class="cls-8" d="M246.37,67.36a4.09,4.09,0,0,1-4.18,3.26c-.89-.14-1.61-1-3-2.58-1.93-2.23-1.89-2.84-3.49-4.63-2-2.18-2.92-2.25-2.91-3.13a3,3,0,0,1,1.49-2.08c1.28-.89,3-.68,4.91-.91,1.08-.13,1.81,1.09,2.93,2.49l1.13,1.46C245.53,64.22,246.68,65.71,246.37,67.36Z"/><path class="cls-7" d="M214.87,100.52a7.63,7.63,0,0,1-4.48-1.39.51.51,0,0,1-.08-.71.5.5,0,0,1,.7-.08,6.73,6.73,0,0,0,3.86,1.17,7.08,7.08,0,0,0,3.94-1.18.52.52,0,0,1,.71.1.5.5,0,0,1-.1.7A7.93,7.93,0,0,1,214.87,100.52Z"/><g class="cls-9"><path d="M246.37,67.36a4.09,4.09,0,0,1-4.18,3.26c-.89-.14-1.61-1-3-2.58-1.93-2.23-1.89-2.84-3.49-4.63-2-2.18-2.92-2.25-2.91-3.13a3,3,0,0,1,1.49-2.08h0s3.14,5.53,7.84,1.58l1.13,1.46C245.53,64.22,246.68,65.71,246.37,67.36Z"/></g><g class="cls-10"><ellipse cx="217.45" cy="70.35" rx="6.46" ry="37.07" transform="translate(139.45 285.18) rotate(-87.97)"/></g><path class="cls-11" d="M230.7,73.45h13.35l6.11-6.2h-4.88V58.4s-10.48,7.88-10.77,8.36-9.07-.83-9.07-.83l-2.55,2.39h-5S218.2,73,219.59,73,230.7,73.45,230.7,73.45Z"/><g class="cls-9"><path class="cls-12" d="M154.85,65.93S165.74,89,247.57,79.27C247.7,79.25,166.22,98.32,154.85,65.93Z"/></g><path class="cls-13" d="M255.31,63.6l-.76,3.89-18.14,4.62-55.73-2.37-6.05-6.14,10-9.21,8.53,7.67s10.34.9,9.77,1.54,8.18,2.33,8.18,2.33l11.07-7.26,1.69-1.11L230,64l1,1.1,2.28-1.47,2.91,2.33Z"/><path class="cls-8" d="M219.11,61.36c-.16,1.85-1.83,3.1-5.16,5.61-2.63,2-3.94,3-5.52,3-3.35.11-6.42-3.28-5.94-5.08.25-1,1.28-.73,4-2.49a15.85,15.85,0,0,0,1.39-1,36,36,0,0,1,3.7-2.93c2-1.32,3-2,4-1.87s1.53,1,2.19,2.06C218.28,59.5,219.19,60.43,219.11,61.36Z"/><g class="cls-9"><path d="M219.11,61.36c-.16,1.85-1.83,3.1-5.16,5.61-2.63,2-3.94,3-5.52,3-3.35.11-6.42-3.28-5.94-5.08.25-1,1.28-.73,4-2.49a15.85,15.85,0,0,0,1.39-1c3.87,1.73,10.52-2.76,10.52-2.76A4.52,4.52,0,0,1,219.11,61.36Z"/></g><polygon class="cls-11" points="187.12 72.11 185.07 64.73 193.17 54.39 197.89 65.92 208.47 63.91 212.92 68.76 212.06 72.11 187.12 72.11"/><polygon class="cls-11" points="215.05 72.95 216.44 67.58 212.42 60.54 219.87 64.09 224.7 64.75 226.34 73.29 215.05 72.95"/><path class="cls-8" d="M224.63,70.32c-1,1.27-2.79,1.4-6.4,1.67-2.84.21-4.26.31-5.43-.39a5.76,5.76,0,0,1-2.52-5,2.22,2.22,0,0,1,.57-1.45c.63-.57,1.28.07,4.11.08,2.3,0,2.72-.42,5.54-.46,2.07,0,3.12,0,3.79.51a3.14,3.14,0,0,1,1,2h0A4.1,4.1,0,0,1,224.63,70.32Z"/><g class="cls-9"><path d="M224.63,70.32c-1,1.27-2.79,1.4-6.4,1.67-2.84.21-4.26.31-5.43-.39a5.76,5.76,0,0,1-2.52-5,5.74,5.74,0,0,0,1.77,1.26c1,.44,4.61-1.61,5.43-1.26a49.89,49.89,0,0,0,5.29.94,4.57,4.57,0,0,0,2.56-.3h0A4.1,4.1,0,0,1,224.63,70.32Z"/></g><path class="cls-11" d="M221.32,69.74c.49-.48,7.18-2.25,7.18-2.25v5.8Z"/><polygon class="cls-13" points="201.76 69.74 199 73.45 206.38 74.13 210.7 75.38 220.47 74.63 228.5 74.58 224.91 71.51 220.75 67.48 208.28 69.74 202.61 67.48 201.76 69.74"/><path class="cls-8" d="M209.57,71.27c0,2.08-5.06,4.81-9.23,3.69-2-.52-3.26-2-5.87-4.86a35.52,35.52,0,0,1-4.53-5.87c-.44-.85-.4-1,0-1.68a8.73,8.73,0,0,1,6-4c1.29-.11,2.33,1.18,4.36,3.19,2.78,2.74,2.72,3.51,5,5.7a22.64,22.64,0,0,0,2.9,2.35C209.15,70.37,209.57,70.66,209.57,71.27Z"/><path class="cls-8" d="M235.55,68.57c.49,1.32-1.1,2.46-3,4h0c-.62.49-1.33,1-2.14,1.64-2.63,2-3.94,3-5.52,3-3.35.11-6.42-3.29-5.94-5.09.17-.63.68-.74,1.82-1.27A18.46,18.46,0,0,0,223,69.63c2.24-1.44,2.38-2.11,5.09-3.91,2-1.33,3.13-2.38,4-1.87C233.56,64.73,234.56,65.9,235.55,68.57Z"/><g class="cls-9"><path d="M209.57,71.27c0,2.08-5.06,4.81-9.23,3.69-2-.52-3.26-2-5.87-4.86A29,29,0,0,1,190.35,65c2.4,1.22,13.11,6.62,15,6.48a3.92,3.92,0,0,0,3-1.67C209.15,70.37,209.57,70.66,209.57,71.27Z"/></g><g class="cls-9"><path d="M232.53,72.55c-.62.49-1.33,1-2.14,1.64-2.63,2-3.94,3-5.52,3-3.35.11-6.42-3.29-5.94-5.09.17-.63.68-.74,1.82-1.27C220.75,70.84,221.44,78.52,232.53,72.55Z"/></g><g class="cls-14"><ellipse class="cls-12" cx="231.64" cy="65.5" rx="1.02" ry="0.98" transform="translate(15.92 172.32) rotate(-42.13)"/></g><g class="cls-14"><ellipse class="cls-12" cx="213.4" cy="58.49" rx="0.57" ry="0.54" transform="translate(15.9 158.27) rotate(-42.13)"/></g><g class="cls-14"><ellipse class="cls-12" cx="211.56" cy="65.71" rx="0.57" ry="0.54" transform="translate(10.59 158.9) rotate(-42.13)"/></g><g class="cls-14"><ellipse class="cls-12" cx="215.04" cy="66.88" rx="0.89" ry="0.62" transform="translate(-8.96 90.16) rotate(-23.21)"/></g><g class="cls-14"><ellipse class="cls-12" cx="238.98" cy="58.39" rx="1.02" ry="0.66" transform="translate(-6.96 52.72) rotate(-12.41)"/></g><g class="cls-14"><ellipse class="cls-12" cx="222.88" cy="65.77" rx="0.66" ry="1.02" transform="translate(122.14 275.17) rotate(-80.75)"/></g><g class="cls-14"><ellipse class="cls-12" cx="215.49" cy="57.88" rx="0.66" ry="1.02" transform="translate(123.72 261.27) rotate(-80.75)"/></g><g class="cls-14"><ellipse class="cls-12" cx="194.25" cy="61.01" rx="0.71" ry="0.68" transform="translate(9.27 146.07) rotate(-42.13)"/></g><g class="cls-14"><ellipse class="cls-12" cx="196.21" cy="60.07" rx="0.83" ry="1.29" transform="translate(105.38 244.07) rotate(-80.75)"/></g><g class="cls-14"><ellipse class="cls-12" cx="233.63" cy="67.88" rx="0.67" ry="1.56" transform="translate(-2.35 8.7) rotate(-2.12)"/></g><g class="cls-14"><ellipse class="cls-12" cx="203.94" cy="68.04" rx="0.67" ry="1.56" transform="translate(1.81 141.3) rotate(-38.37)"/></g><g class="cls-14"><polygon class="cls-12" points="229.99 63.97 222.17 58.67 223.86 57.56 229.99 63.97"/></g><g class="cls-14"><polygon class="cls-12" points="236.23 65.92 254.85 65.92 255.31 63.6 236.23 65.92"/></g><g class="cls-14"><polygon class="cls-12" points="245.28 58.4 240.4 62.1 245.28 60.25 245.28 58.4"/></g><g class="cls-14"><path class="cls-12" d="M211.56,69.15c1.36-.39,8.55-1.59,8.81-1.66s1.8,1.36,1.8,1.36Z"/></g><g class="cls-14"><polygon class="cls-12" points="212.42 60.54 217.4 62.91 213.4 62.26 212.42 60.54"/></g><g class="cls-14"><polygon class="cls-12" points="178.46 60.07 187.1 56.62 184.62 54.39 178.46 60.07"/></g><g class="cls-14"><polygon class="cls-12" points="189.27 59.37 194.08 56.62 193.17 54.39 189.27 59.37"/></g><g class="cls-10"><path d="M257.92,78.16c-10.72,3-26.25,5-43.51,5-32.37,0-58.61-6.73-58.61-15,0-2.76,2.89-5.34,7.93-7.56,0,0,5.57,22,86.43,17.89C252.91,78.28,255.49,78.19,257.92,78.16Z"/></g><rect class="cls-15" width="300" height="165"/></g></g></svg>