<svg xmlns="http://www.w3.org/2000/svg" xmlns:xlink="http://www.w3.org/1999/xlink" viewBox="0 0 300 165.5"><defs><style>.cls-1{isolation:isolate;}.cls-2{fill:#fce5cd;}.cls-3{fill:#edc094;}.cls-4{fill:#af4622;}.cls-5{opacity:0.52;}.cls-12,.cls-5,.cls-6{mix-blend-mode:soft-light;}.cls-6{opacity:0.49;}.cls-7{fill:#fff;}.cls-8{fill:#e5ac53;}.cls-9{fill:#d6882b;}.cls-10{fill:#c47e22;}.cls-11{fill:#00922b;}.cls-13{fill:#3f240f;}.cls-14{fill:url(#linear-gradient);}</style><linearGradient id="linear-gradient" x1="150.37" y1="168.62" x2="149.66" y2="2.17" gradientUnits="userSpaceOnUse"><stop offset="0.03" stop-color="#591c16"/><stop offset="0.22" stop-color="#5f241d" stop-opacity="0.96"/><stop offset="0.38" stop-color="#733c33" stop-opacity="0.84"/><stop offset="0.53" stop-color="#936459" stop-opacity="0.64"/><stop offset="0.68" stop-color="#c09d8d" stop-opacity="0.36"/><stop offset="0.82" stop-color="#fae5cf" stop-opacity="0"/></linearGradient></defs><g class="cls-1"><g id="Layer_1" data-name="Layer 1"><rect class="cls-2" y="0.25" width="300" height="165"/><ellipse class="cls-3" cx="208.56" cy="88.9" rx="69.57" ry="5.27"/><path class="cls-4" d="M140.26,90.51a3.81,3.81,0,0,1-1.19-.36,3.57,3.57,0,0,1-.56-.33,2,2,0,0,1-.28-.24,1.53,1.53,0,0,1-.28-.37.93.93,0,0,1-.1-.38.9.9,0,0,1,.05-.34,1.39,1.39,0,0,1,.27-.47,2.64,2.64,0,0,1,.61-.46,7.25,7.25,0,0,1,1.16-.5,21.37,21.37,0,0,1,2.28-.61c.76-.17,1.52-.31,2.28-.45,3.05-.51,6.1-.86,9.16-1.16,6.11-.6,12.24-1,18.36-1.3,12.25-.6,24.51-.85,36.77-.89q9.19,0,18.39.16c6.13.12,12.26.3,18.39.59s12.25.67,18.37,1.25c3.06.31,6.12.65,9.18,1.17.76.14,1.53.28,2.29.46a17.23,17.23,0,0,1,2.32.66c.2.07.4.16.6.25a4,4,0,0,1,.64.38,2.48,2.48,0,0,1,.35.32,1.6,1.6,0,0,1,.32.6,1.19,1.19,0,0,1,0,.42s0,.07,0,.11l0,.07a.57.57,0,0,1,0,.14,1.13,1.13,0,0,1-.08.22c0,.07-.07.13-.1.19a2.81,2.81,0,0,1-1.06,1A2.71,2.71,0,0,1,277,91l-.26-.88a5.23,5.23,0,0,0,.72-.66,3.05,3.05,0,0,0,.45-.65.25.25,0,0,0,0-.07s0,0,0,0h0v.11a.2.2,0,0,1,0,.07.32.32,0,0,0,0,.1l-.08-.07a3.4,3.4,0,0,0-.81-.39A16.09,16.09,0,0,0,275,88c-.72-.16-1.46-.3-2.21-.43-3-.51-6-.85-9-1.15-6.08-.58-12.18-1-18.29-1.24-12.22-.57-24.46-.81-36.7-.83s-24.48.14-36.7.66c-6.11.27-12.22.62-18.31,1.17-3,.28-6.07.61-9.07,1.1-.75.12-1.49.26-2.23.42a18.82,18.82,0,0,0-2.15.56,7.1,7.1,0,0,0-1,.4,1.25,1.25,0,0,0-.31.22s0,0,0,0a.22.22,0,0,0,0-.06.28.28,0,0,0,0-.11s0,0,.06.09l.15.15.39.33c.27.21.57.42.87.64Z"/><rect class="cls-4" x="175.91" y="100.76" width="67.54" height="6.97" rx="2.05"/><path class="cls-4" d="M278.82,88.8c0,8.73-7.49,15.81-70.19,15.81-65.09,0-70.18-7.08-70.18-15.81,0,3,31.42,5.33,70.18,5.33S278.82,91.75,278.82,88.8Z"/><g class="cls-5"><path d="M175.85,102.55s15.36,1,32,1,35.26-1.45,35.26-1.45S213.09,109.39,175.85,102.55Z"/></g><g class="cls-6"><path class="cls-7" d="M139,89.48s12.66,6.76,107.75,3.91C246.91,93.39,152.21,99,139,89.48Z"/></g><path class="cls-8" d="M225.75,69.77a17.21,17.21,0,0,1-1.29,6c-1.52,3.54-4.51,6.34-9.75,7.65-.85.21-1.71.42-2.56.61-9.91,2.29-19.44,3.52-20.59,4.09s-.78,4.06-.17,4.56c.17.14-1.91.21-5,.22H184.9c-8.13,0-21.07-.31-21.67-.55-.81-.31-8.67-6.08-7.51-9.92a2.8,2.8,0,0,1,.71-1.17s11.29-7.53,14.63-8.48c2.39-.68,21.92-7.42,33.37-11.15h0a81.94,81.94,0,0,1,8.22-2.46c1.84,0,11.08-5.06,12.6,3.76.06.35.11.7.16,1.05h0A30.29,30.29,0,0,1,225.75,69.77Z"/><g class="cls-6"><path class="cls-7" d="M225.41,64c-2.7-7.07-20.61-2.45-21-2.35a81.94,81.94,0,0,1,8.22-2.46c1.84,0,11.08-5.06,12.6,3.76C225.31,63.33,225.36,63.68,225.41,64Z"/></g><g class="cls-6"><path d="M225.75,69.77a17.21,17.21,0,0,1-1.29,6c-2.55,1.88-7.14,5-12.31,8.26-9.91,2.29-19.44,3.52-20.59,4.09s-.78,4.06-.17,4.56c.17.14-1.91.21-5,.22l-.58-1.57-1.06,0c-.69-8.94,1.89-10.24,3.06-10.83C190.13,79.36,225.75,69.77,225.75,69.77Z"/></g><path class="cls-9" d="M222.72,59.86a4.42,4.42,0,0,0-1.51-.78,6.46,6.46,0,0,0-2.42-.2,8.6,8.6,0,0,0-5.84,3.9c-2.6,3.47-3.55,8.59-2.93,10.92a5.65,5.65,0,0,0,2.65,3.51c3.65,1.7,10.16-2.6,11.76-8.19C225.55,65.12,224.16,61,222.72,59.86Z"/><path class="cls-8" d="M265.22,77.73a3.64,3.64,0,0,1-.46,1.76c-1.43,2.73-5.76,9.36-18.67,10.63-.18,0-.46.09-.82.18h0c-1.45.38-4.26,1.29-7.61,2.41h0c-9.27,3.13-22.71,8-23.44,8-.5,0-4.39.38-9,.38-5.12,0-11.11-.46-14.29-2.35-6.06-3.59-7.3-13.77-2.71-16.46,4.34-2.54,44.25-12.25,47.16-12.83,2.65-.53,4.82-1.3,7.43-1.06q.39,0,.78.09c3,.49,16.9,4.87,18.65,5.61C263.55,74.64,265.19,75.92,265.22,77.73Z"/><g class="cls-6"><path d="M265.22,77.73a3.64,3.64,0,0,1-.46,1.76c-1.43,2.73-5.76,9.36-18.67,10.63-.18,0-.46.09-.82.18h0l-.26,0S258.88,81,265.22,77.73Z"/></g><path class="cls-10" d="M243.67,90.76s18.11-11.89,18.7-11.11S260.52,86.18,243.67,90.76Z"/><path class="cls-9" d="M209.61,98.53c-2.57,2.09-5.92,2.28-10.54,1.51-4.36-.73-7.59-1.28-9.79-4.15-2.89-3.79-1.8-8.71-1.5-9.62.56-1.69,1.87-3,4.51-4a14.78,14.78,0,0,1,8.1-.75c2.1.32,6.22.36,11.29,6.22C214.12,90.61,212.82,95.91,209.61,98.53Z"/><g class="cls-6"><path d="M186.38,93H184.9c-8.13,0-21.07-.31-21.67-.55-.81-.31-8.67-6.08-7.51-9.92,2.76,1.48,9.16,8.4,9.16,8.4l19.86.47,1.06,0Z"/></g><path class="cls-10" d="M185.46,90.27s-18.91.57-19.89,0-8-6.81-8.38-6.81,5,7.48,6.41,7.93,19.71.45,21.27.65S185.46,90.27,185.46,90.27Z"/><g class="cls-6"><path class="cls-7" d="M265.22,77.73s-1-2.27-1.83-2.37-5.8.88-8.28,0c-2.25-.8-10.77-6-12.33-7q.39,0,.78.09c3,.49,16.9,4.87,18.65,5.61C263.55,74.64,265.19,75.92,265.22,77.73Z"/></g><g class="cls-6"><path class="cls-7" d="M210.62,86.63s2.31,2,2.22,3.67c1.58,1.31,31.54-8.22,31.81-9s-.27-1-1-1S211,85.53,210.62,86.63Z"/></g><g class="cls-6"><path class="cls-7" d="M210.19,69a12.7,12.7,0,0,0-.36,3.48c-.6.63-26.52,7.43-27.1,7.43s-.59-.88,0-1.51S210.19,69,210.19,69Z"/></g><g class="cls-6"><path d="M237.62,92.72c-9.27,3.13-22.71,8-23.44,8-.5,0-4.39.38-9,.38C205.19,101.07,220.21,98.09,237.62,92.72Z"/></g><path class="cls-11" d="M232.49,75.46a1,1,0,0,1-.72.5,1.05,1.05,0,0,0-.75.52c-.35.66.21,1.26-.06,2a2,2,0,0,1-2.56,1.08c-.89-.54-.54-2.1-1.53-2.64-.64-.36-1.11.13-1.53-.34s-.1-.85-.4-2-.73-1.28-.68-2a1.64,1.64,0,0,1,1-1.43c.57-.15.74.55,1.53.68a1.27,1.27,0,0,0,.27,0h0c.86,0,1.34-.9,2-.56.47.24.31.74.85,1.22.79.68,1.49,0,2.16.61A2.18,2.18,0,0,1,232.49,75.46Z"/><path class="cls-11" d="M221.89,78.45c-.65-.34-.95-1.81-1.65-2.12-.45-.21-.56.32-.93,0s-.31-.74-.82-1.71-.8-1-1-1.66a1.8,1.8,0,0,1,.07-1.47c.27-.24.57.36,1,.33.62,0,.56-1.11,1-.91.33.14.4.62.84,1h0a.87.87,0,0,0,.27.14h0c.42.11.61-.36,1.07,0a3.28,3.28,0,0,1,.95,2,.71.71,0,0,1-.24.59.69.69,0,0,0-.24.6c0,.67.51,1.11.6,1.86C223,77.92,222.49,78.75,221.89,78.45Z"/><path class="cls-11" d="M220.84,74.56a7.85,7.85,0,0,0,8.53-4.86l-.52-.55s-1.52,5.25-8.2,4.67C220.31,74.78,220.84,74.56,220.84,74.56Z"/><path class="cls-11" d="M200.05,65.11c-.14.41-.43.06-.68.4-.39.52,0,1.72-.35,2.23s-1.07.08-1.36-.65,0-1.11-.31-1.61a.58.58,0,0,0-.42-.35.58.58,0,0,1-.42-.34,2.79,2.79,0,0,1-.1-1.82c.19-.46.52-.19.79-.45h0a.51.51,0,0,0,.14-.21h0c.2-.43,0-.81.23-1.05s.68.47,1.15.24h0c.34-.18.32-.73.61-.66s.54.55.65,1-.06.69,0,1.63S200.16,64.76,200.05,65.11Z"/><path class="cls-11" d="M198.21,64.45a6.62,6.62,0,0,1-8.27-.11l.17-.63s3.25,3.26,7.94.12C198.69,64.4,198.21,64.45,198.21,64.45Z"/><g class="cls-12"><path class="cls-7" d="M232.49,75.46a1,1,0,0,1-.72.5c.49-2.09-4.49-4-4.73-4,.86,0,1.34-.9,2-.56.47.24.31.74.85,1.22.79.68,1.49,0,2.16.61A2.18,2.18,0,0,1,232.49,75.46Z"/></g><g class="cls-12"><path class="cls-7" d="M222.81,73.94a.71.71,0,0,1-.24.59s0-.11,0-.19A3.37,3.37,0,0,0,220.79,72c.42.11.61-.36,1.07,0A3.28,3.28,0,0,1,222.81,73.94Z"/></g><g class="cls-12"><path class="cls-7" d="M200,63.52c-.29-2.39-1.1-2.08-1.22-2,.34-.18.32-.73.61-.66s.54.55.65,1S199.94,62.58,200,63.52Z"/></g><circle class="cls-13" cx="193.3" cy="93.19" r="0.87"/><circle class="cls-13" cx="206.03" cy="93.19" r="0.87"/><path class="cls-13" d="M199.74,95.28a4.07,4.07,0,0,1-2.41-.75.35.35,0,0,1,.43-.54,3.43,3.43,0,0,0,2,.6,3.7,3.7,0,0,0,2-.6.34.34,0,1,1,.42.54A4.29,4.29,0,0,1,199.74,95.28Z"/><circle class="cls-13" cx="214.06" cy="66.63" r="0.59" transform="translate(-8.7 41.37) rotate(-10.82)"/><circle class="cls-13" cx="222.59" cy="65" r="0.59" transform="translate(-8.25 42.94) rotate(-10.82)"/><path class="cls-13" d="M218.09,67.37a2.79,2.79,0,0,1-1.21-.26.33.33,0,0,1-.14-.46.35.35,0,0,1,.46-.15,2.15,2.15,0,0,0,1.33.14,2.32,2.32,0,0,0,1.22-.63.34.34,0,0,1,.51.46,3.07,3.07,0,0,1-1.6.85A4,4,0,0,1,218.09,67.37Z"/><rect class="cls-14" y="0.25" width="300" height="165"/></g></g></svg>