<svg xmlns="http://www.w3.org/2000/svg" xmlns:xlink="http://www.w3.org/1999/xlink" viewBox="0 0 300 165"><defs><style>.cls-1{isolation:isolate;}.cls-2{fill:#fce5cd;}.cls-3{fill:#ccc8c6;}.cls-4{opacity:0.7;}.cls-4,.cls-5{mix-blend-mode:soft-light;}.cls-5{opacity:0.84;}.cls-6{fill:#fff;}.cls-7{fill:#e09b5c;}.cls-8{fill:#ffc76c;}.cls-9{fill:#3f240f;}.cls-10{fill:url(#linear-gradient);}</style><linearGradient id="linear-gradient" x1="150.37" y1="168.37" x2="149.66" y2="1.92" gradientUnits="userSpaceOnUse"><stop offset="0.03" stop-color="#591c16"/><stop offset="0.22" stop-color="#5f241d" stop-opacity="0.96"/><stop offset="0.38" stop-color="#733c33" stop-opacity="0.84"/><stop offset="0.53" stop-color="#936459" stop-opacity="0.64"/><stop offset="0.68" stop-color="#c09d8d" stop-opacity="0.36"/><stop offset="0.82" stop-color="#fae5cf" stop-opacity="0"/></linearGradient></defs><g class="cls-1"><g id="Layer_1" data-name="Layer 1"><rect class="cls-2" x="-0.27" y="-0.15" width="300" height="165"/><path class="cls-3" d="M215.37,57.72S214.2,71,212.7,72.93a1.8,1.8,0,0,1-.19.21,6.43,6.43,0,0,1-1.45,1h0c-3.85,2.06-13.09,4.76-20.16,4.76-14.94,0-22.06-3-24.62-6.75-1-1.43-1.66-10.43-1.83-13,0-.43-.05-.68-.05-.68l50.68-.72Z"/><g class="cls-4"><path d="M211.05,74.11c-3.85,2.06-13.09,4.76-20.16,4.76-14.94,0-22.06-3-24.62-6.75-1-1.43-1.66-10.43-1.83-13,2.16.91,4.33,1.91,4.33,1.91s1.13,9.43,3.14,11.09,10.91,5.06,16.67,5.32S210.8,74.17,211.05,74.11Z"/></g><g class="cls-5"><path class="cls-6" d="M215.37,57.72S214.2,71,212.7,72.93a1.8,1.8,0,0,1-.19.21,74.6,74.6,0,0,0-.83-7.51c-.46-1.94-2.42-2.07-2.77-2.41l6.16-5.5Z"/></g><path class="cls-7" d="M217.82,57.06c-.56,1.31-1.68,1.24-2.75,2.75s-.69,2.27-1.68,3.38-2,.48-3.69,1.68c-1.5,1.07-1.54,1.95-2.88,2.75-1.62,1-2.94,0-5.56.5s-2.63,1.77-5.18,2.25-3.7-.92-7.07-1.06-3.91,1.36-6.25.44c-1.83-.73-2.3-1.69-4.18-2.19-2.1-.56-2.44.54-4.13-.25-1.38-.65-1.27-1.36-2.87-2-1.33-.53-1.92-.43-2.63-1.06-.94-.85-.78-1.48-1.68-2.5s-1.36-.89-2.88-1.75c-1.8-1-2.67-3.92-2-5.88.29-.82.63-.83,1.5-2.56,1-1.88.64-2.05,1.13-2.62,1.5-1.77,3.75-1.07,6.25-2.19,1.52-.69,1.48-1.59,2.81-2.44,1.77-1.13,2.87,0,6.06-.56a8.62,8.62,0,0,0,2.33-.77,6.28,6.28,0,0,1,3.23-1.1c2.29-.09,3.12.44,5.63.62,3.52.25,3.33-1.24,6.56-.87,2.25.25,2.12,1.23,5.37,1.81,2.38.42,2.88,0,4.31.62,2,.92,2.23,1.91,4.25,3.13,2.56,1.53,3.84.61,4.81,2.06.48.7.22,1.22.16,2.3a7.75,7.75,0,0,0,.16,2C217.38,55.68,218.21,56.17,217.82,57.06Z"/><g class="cls-4"><path d="M212.05,56c0,5.31-9.47,9.62-21.16,9.62S169.73,61.32,169.73,56c0-4,5.46-7.49,13.2-8.92h0a44.41,44.41,0,0,1,8-.7C202.58,46.39,212.05,50.69,212.05,56Z"/></g><path class="cls-8" d="M212.07,55.31c0,5.32-9.48,9.63-21.18,9.63s-21.19-4.31-21.19-9.63c0-4,5.47-7.49,13.22-8.92h0a44.52,44.52,0,0,1,8-.7C202.59,45.69,212.07,50,212.07,55.31Z"/><g class="cls-4"><path d="M212.07,55.31c-1.75,2.27-8.37,1.62-7.81-.36S200.07,51.73,195,52s-5.94-1-6.25-2.87-3.94-2.27-5.78-2.76h0a44.52,44.52,0,0,1,8-.7C202.59,45.69,212.07,50,212.07,55.31Z"/></g><g class="cls-5"><ellipse class="cls-6" cx="177.76" cy="52.66" rx="4.22" ry="1.89" transform="translate(-2.52 95.94) rotate(-30)"/></g><g class="cls-5"><path class="cls-6" d="M216.79,51.55a5.05,5.05,0,0,1-1.42-1.17c-1.4-1.75-7.68-4.44-12.74-5.93S182.47,43,182.47,43h0a6.28,6.28,0,0,1,3.23-1.1c2.29-.09,3.12.44,5.63.62,3.52.25,3.33-1.24,6.56-.87,2.25.25,2.12,1.23,5.37,1.81,2.38.42,2.88,0,4.31.62,2,.92,2.23,1.91,4.25,3.13,2.56,1.53,3.84.61,4.81,2.06C217.11,50,216.85,50.47,216.79,51.55Z"/></g><circle class="cls-9" cx="185.46" cy="57.23" r="0.97"/><circle class="cls-9" cx="196.86" cy="57.23" r="0.97"/><path class="cls-9" d="M190.76,59.63a4.56,4.56,0,0,1-2.73-.85.44.44,0,0,1-.07-.63.45.45,0,0,1,.63-.07,3.78,3.78,0,0,0,2.17.66,4,4,0,0,0,2.23-.67.47.47,0,0,1,.63.09.46.46,0,0,1-.09.63A4.91,4.91,0,0,1,190.76,59.63Z"/><path class="cls-3" d="M271.45,66.55s-1.17,13.24-2.67,15.22l-.19.21a7,7,0,0,1-1.46,1h0C263.28,85,254,87.71,247,87.71c-14.94,0-22.06-3-24.62-6.75-1-1.44-1.66-10.44-1.83-13,0-.43-.05-.68-.05-.68l50.68-.71Z"/><g class="cls-4"><path d="M267.13,83C263.28,85,254,87.71,247,87.71c-14.94,0-22.06-3-24.62-6.75-1-1.44-1.66-10.44-1.83-13,2.16.91,4.33,1.92,4.33,1.92S226,79.29,228,81,238.9,86,244.66,86.28,266.88,83,267.13,83Z"/></g><g class="cls-5"><path class="cls-6" d="M271.45,66.55s-1.17,13.24-2.67,15.22l-.19.21a74.6,74.6,0,0,0-.83-7.51c-.46-2-2.42-2.07-2.77-2.42l6.16-5.49Z"/></g><path class="cls-7" d="M273.9,65.9c-.57,1.31-1.68,1.23-2.75,2.75s-.69,2.26-1.69,3.37-2,.49-3.68,1.69c-1.5,1.06-1.54,1.94-2.88,2.75-1.62,1-2.94,0-5.56.5s-2.63,1.77-5.19,2.25-3.69-.93-7.06-1.07c-3.52-.14-3.91,1.37-6.25.44-1.83-.73-2.3-1.68-4.18-2.19-2.1-.55-2.44.54-4.13-.25-1.38-.64-1.27-1.36-2.87-2-1.33-.52-1.93-.43-2.63-1.06-.95-.85-.79-1.48-1.69-2.5s-1.35-.89-2.87-1.75c-1.8-1-2.67-3.92-2-5.87.29-.83.63-.83,1.5-2.56s.64-2,1.13-2.63c1.5-1.76,3.75-1.06,6.24-2.19,1.53-.68,1.49-1.59,2.82-2.43,1.77-1.14,2.87,0,6.06-.56a8.58,8.58,0,0,0,2.33-.78,6.34,6.34,0,0,1,3.23-1.1c2.29-.08,3.12.45,5.62.62,3.53.25,3.34-1.23,6.57-.87,2.25.25,2.12,1.24,5.37,1.81,2.38.42,2.88,0,4.31.63,2,.92,2.23,1.91,4.25,3.12,2.56,1.54,3.84.62,4.81,2.06.48.71.22,1.23.16,2.3a7.28,7.28,0,0,0,.16,1.95C273.46,64.51,274.29,65,273.9,65.9Z"/><g class="cls-4"><path d="M268.13,64.84c0,5.32-9.48,9.63-21.16,9.63s-21.16-4.31-21.16-9.63c0-4,5.46-7.49,13.2-8.92h0a44.41,44.41,0,0,1,8-.7C258.65,55.22,268.13,59.53,268.13,64.84Z"/></g><path class="cls-8" d="M268.15,64.15c0,5.31-9.48,9.62-21.18,9.62s-21.19-4.31-21.19-9.62c0-4,5.47-7.49,13.22-8.92h0a43.6,43.6,0,0,1,8-.71C258.67,54.52,268.15,58.83,268.15,64.15Z"/><g class="cls-4"><path d="M268.15,64.15c-1.75,2.27-8.37,1.61-7.81-.36s-4.19-3.23-9.31-2.93-5.94-1-6.25-2.87-3.94-2.27-5.78-2.76h0a43.6,43.6,0,0,1,8-.71C258.67,54.52,268.15,58.83,268.15,64.15Z"/></g><g class="cls-5"><ellipse class="cls-6" cx="233.84" cy="61.5" rx="4.22" ry="1.89" transform="matrix(0.87, -0.5, 0.5, 0.87, 0.58, 125.16)"/></g><g class="cls-5"><path class="cls-6" d="M272.87,60.38a4.89,4.89,0,0,1-1.42-1.17c-1.4-1.75-7.68-4.44-12.74-5.92s-20.16-1.48-20.16-1.48h0a6.34,6.34,0,0,1,3.23-1.1c2.29-.08,3.12.45,5.62.62,3.53.25,3.34-1.23,6.57-.87,2.25.25,2.12,1.24,5.37,1.81,2.38.42,2.88,0,4.31.63,2,.92,2.23,1.91,4.25,3.12,2.56,1.54,3.84.62,4.81,2.06C273.19,58.79,272.93,59.31,272.87,60.38Z"/></g><circle class="cls-9" cx="241.53" cy="66.07" r="0.97"/><circle class="cls-9" cx="252.94" cy="66.07" r="0.97"/><path class="cls-9" d="M246.84,68.47a4.64,4.64,0,0,1-2.73-.85A.44.44,0,0,1,244,67a.43.43,0,0,1,.62-.07,3.91,3.91,0,0,0,2.18.65,4,4,0,0,0,2.23-.66.45.45,0,0,1,.54.71A4.83,4.83,0,0,1,246.84,68.47Z"/><path class="cls-3" d="M255.62,92.4s-1.72,19.43-3.92,22.32a2.53,2.53,0,0,1-.28.31,9.7,9.7,0,0,1-2.13,1.42h0c-5.65,3-19.21,7-29.58,7-21.91,0-32.37-4.4-36.12-9.9-1.44-2.1-2.43-15.31-2.69-19.08,0-.63-.06-1-.06-1l74.34-1Z"/><g class="cls-4"><path d="M249.29,116.45c-5.65,3-19.21,7-29.58,7-21.91,0-32.37-4.4-36.12-9.9-1.44-2.1-2.43-15.31-2.69-19.08,3.17,1.34,6.35,2.81,6.35,2.81s1.67,13.83,4.61,16.26,16,7.43,24.46,7.81S248.92,116.53,249.29,116.45Z"/></g><g class="cls-5"><path class="cls-6" d="M255.62,92.4s-1.72,19.43-3.92,22.32a2.53,2.53,0,0,1-.28.31,108.91,108.91,0,0,0-1.21-11c-.68-2.85-3.55-3-4.06-3.55l9-8.06Z"/></g><path class="cls-7" d="M259.22,91.44c-.83,1.92-2.47,1.81-4,4s-1,3.33-2.48,5-2.93.72-5.41,2.48c-2.19,1.55-2.26,2.85-4.22,4-2.38,1.44-4.31,0-8.15.73s-3.87,2.6-7.61,3.3-5.42-1.36-10.36-1.55c-5.16-.21-5.75,2-9.17.64-2.69-1.07-3.38-2.48-6.14-3.21-3.08-.82-3.57.79-6.05-.37-2-1-1.87-2-4.22-2.93-1.95-.78-2.82-.64-3.85-1.56-1.39-1.25-1.16-2.17-2.48-3.67s-2-1.31-4.21-2.56c-2.65-1.5-3.93-5.76-2.94-8.62.42-1.22.92-1.22,2.2-3.76,1.4-2.76.93-3,1.65-3.85,2.2-2.59,5.5-1.56,9.17-3.21,2.24-1,2.18-2.33,4.13-3.58,2.6-1.66,4.21.06,8.89-.82a12.19,12.19,0,0,0,3.42-1.14c1.5-.76,2.4-1.53,4.74-1.61,3.35-.13,4.57.66,8.25.91,5.16.37,4.9-1.81,9.62-1.28,3.31.37,3.12,1.82,7.89,2.66,3.49.62,4.22,0,6.32.92,2.95,1.34,3.27,2.8,6.24,4.58,3.75,2.26,5.62.9,7.06,3,.69,1,.31,1.79.23,3.36a11.3,11.3,0,0,0,.23,2.87C258.57,89.41,259.78,90.13,259.22,91.44Z"/><g class="cls-4"><path d="M250.75,89.89c0,7.8-13.9,14.12-31,14.12s-31.05-6.32-31.05-14.12c0-5.92,8-11,19.37-13.08h0a64.32,64.32,0,0,1,11.68-1C236.85,75.77,250.75,82.1,250.75,89.89Z"/></g><path class="cls-8" d="M250.79,88.87c0,7.8-13.92,14.12-31.08,14.12s-31.08-6.32-31.08-14.12c0-5.92,8-11,19.39-13.09h0a65.28,65.28,0,0,1,11.69-1C236.87,74.75,250.79,81.07,250.79,88.87Z"/><g class="cls-4"><path d="M250.79,88.87c-2.57,3.33-12.29,2.37-11.46-.53s-6.15-4.73-13.66-4.29-8.71-1.41-9.17-4.21-5.78-3.34-8.48-4.06h0a65.28,65.28,0,0,1,11.69-1C236.87,74.75,250.79,81.07,250.79,88.87Z"/></g><g class="cls-5"><ellipse class="cls-6" cx="200.45" cy="84.98" rx="6.19" ry="2.77" transform="translate(-15.64 111.61) rotate(-30)"/></g><g class="cls-5"><path class="cls-6" d="M257.71,83.34a7.23,7.23,0,0,1-2.09-1.71c-2.05-2.57-11.26-6.52-18.69-8.69s-29.57-2.17-29.57-2.17h0c1.5-.76,2.4-1.53,4.74-1.61,3.35-.13,4.57.66,8.25.91,5.16.37,4.9-1.81,9.62-1.28,3.31.37,3.12,1.82,7.89,2.66,3.49.62,4.22,0,6.32.92,2.95,1.34,3.27,2.8,6.24,4.58,3.75,2.26,5.62.9,7.06,3C258.17,81,257.79,81.77,257.71,83.34Z"/></g><circle class="cls-9" cx="211.74" cy="91.69" r="1.43"/><circle class="cls-9" cx="228.46" cy="91.69" r="1.43"/><path class="cls-9" d="M219.52,95a6.63,6.63,0,0,1-3.88-1.2.46.46,0,0,1-.07-.63.44.44,0,0,1,.63-.07h0a5.78,5.78,0,0,0,3.32,1,6.11,6.11,0,0,0,3.39-1,.45.45,0,0,1,.55.71A6.92,6.92,0,0,1,219.52,95Z"/><rect class="cls-10" width="300" height="165"/></g></g></svg>