<svg xmlns="http://www.w3.org/2000/svg" xmlns:xlink="http://www.w3.org/1999/xlink" viewBox="0 0 300 165.5"><defs><style>.cls-1{isolation:isolate;}.cls-2{fill:#fce5cd;}.cls-3{fill:#edc094;}.cls-4{fill:#42563b;}.cls-5{fill:#302b2b;}.cls-6{fill:#c66b4f;}.cls-7{opacity:0.31;}.cls-10,.cls-11,.cls-7,.cls-8{mix-blend-mode:soft-light;}.cls-8{opacity:0.52;}.cls-9{fill:#ef9354;}.cls-10{opacity:0.24;}.cls-11{opacity:0.49;}.cls-12{fill:#fff;}.cls-13{fill:#f7cda9;}.cls-14{fill:#ce3f0d;}.cls-15{fill:#ffe8d9;}.cls-16{fill:url(#linear-gradient);}</style><linearGradient id="linear-gradient" x1="150.37" y1="168.62" x2="149.66" y2="2.17" gradientUnits="userSpaceOnUse"><stop offset="0.03" stop-color="#591c16"/><stop offset="0.22" stop-color="#5f241d" stop-opacity="0.96"/><stop offset="0.38" stop-color="#733c33" stop-opacity="0.84"/><stop offset="0.53" stop-color="#936459" stop-opacity="0.64"/><stop offset="0.68" stop-color="#c09d8d" stop-opacity="0.36"/><stop offset="0.82" stop-color="#fae5cf" stop-opacity="0"/></linearGradient></defs><g class="cls-1"><g id="Layer_1" data-name="Layer 1"><rect class="cls-2" y="0.25" width="300" height="165"/><ellipse class="cls-3" cx="206.72" cy="98.38" rx="73.32" ry="5.55"/><path class="cls-4" d="M134.74,100.07a3.75,3.75,0,0,1-1.26-.38,3.27,3.27,0,0,1-.59-.35,2,2,0,0,1-.29-.24,2,2,0,0,1-.29-.39.91.91,0,0,1-.11-.4,1.3,1.3,0,0,1,.05-.36,1.27,1.27,0,0,1,.29-.49,2.67,2.67,0,0,1,.64-.49,7.09,7.09,0,0,1,1.22-.52,21.37,21.37,0,0,1,2.4-.65c.8-.18,1.61-.33,2.41-.47,3.21-.54,6.43-.91,9.65-1.23,6.44-.63,12.89-1,19.35-1.36,12.91-.63,25.83-.9,38.75-.95q9.69,0,19.38.18c6.46.13,12.92.31,19.38.62s12.91.7,19.36,1.32c3.23.32,6.45.68,9.67,1.23.81.14,1.61.3,2.42.48a19.1,19.1,0,0,1,2.44.7,6.77,6.77,0,0,1,.64.27,3.91,3.91,0,0,1,.66.39,2.25,2.25,0,0,1,.37.34,1.55,1.55,0,0,1,.34.63,1.29,1.29,0,0,1,0,.44s0,.08,0,.11l0,.08a.66.66,0,0,1,0,.15.92.92,0,0,1-.09.23,1.24,1.24,0,0,1-.1.2,3,3,0,0,1-1.12,1.1,2.76,2.76,0,0,1-1.41.37l-.26-.92a6.39,6.39,0,0,0,.75-.69,2.77,2.77,0,0,0,.47-.7.21.21,0,0,0,0-.07l0,0h0a0,0,0,0,0,0,0v.08s0,.05,0,.07.05.11.05.1l-.08-.07A4.05,4.05,0,0,0,279,98a18.32,18.32,0,0,0-2.21-.62c-.76-.18-1.54-.33-2.33-.46-3.14-.54-6.34-.9-9.53-1.21-6.41-.61-12.84-1-19.28-1.3-12.87-.6-25.77-.86-38.67-.88s-25.8.14-38.68.69c-6.44.29-12.88.65-19.29,1.24-3.21.3-6.41.64-9.56,1.16-.79.13-1.58.27-2.35.43a22.15,22.15,0,0,0-2.27.6,6.26,6.26,0,0,0-1,.42,1.41,1.41,0,0,0-.33.24s0,0,0,0,0,0,0-.06a.24.24,0,0,0,0-.12s0,0,.06.1l.16.16c.12.11.26.22.41.34s.6.44.92.67Z"/><rect class="cls-5" x="248.3" y="99.26" width="3.25" height="17.5" rx="1.63" transform="translate(131.58 353.2) rotate(-87.61)"/><path class="cls-6" d="M227.78,53.49l-.31,5.15-1.28,21.94a4.07,4.07,0,0,1-4.3,3.82l-32.63-1.91a4.07,4.07,0,0,1-3.83-4.3l.11-1.78L187,51.11a4.07,4.07,0,0,1,4.3-3.83L224,49.19A4.08,4.08,0,0,1,227.78,53.49Z"/><g class="cls-7"><path d="M227.78,53.49l-.31,5.15-1.28,21.94a4.07,4.07,0,0,1-4.3,3.82l-32.63-1.91a4.07,4.07,0,0,1-3.83-4.3l.11-1.78L187,51.11S204.81,73.33,227.78,53.49Z"/></g><path class="cls-6" d="M193.78,93.25l-32.36,4.57a4.07,4.07,0,0,1-4.61-3.46l-3.07-21.75L153,67.5a4.06,4.06,0,0,1,3.46-4.6l32.36-4.58a4.07,4.07,0,0,1,4.6,3.46L197,86.88l.25,1.76A4.08,4.08,0,0,1,193.78,93.25Z"/><g class="cls-8"><path d="M241.17,107.56s4,.57,8.26.75,9.15-.18,9.15-.18A31.23,31.23,0,0,1,241.17,107.56Z"/></g><rect class="cls-4" x="172.3" y="110.88" width="71.18" height="7.35" rx="2.15"/><g class="cls-7"><path d="M193.78,93.25l-32.36,4.57a4.07,4.07,0,0,1-4.61-3.46l-3.07-21.75h0S160.46,90.53,196.13,87l.86-.08.25,1.76A4.08,4.08,0,0,1,193.78,93.25Z"/></g><path class="cls-9" d="M184.82,100.35l-4,5.62-.25.36a3.28,3.28,0,0,1-2.62,1.27,4.11,4.11,0,0,1-.86-.07,3.88,3.88,0,0,1-1.16-.43l-.17-.1h0l-.3-.17h0l-35-19.55-1.76-1a3.16,3.16,0,0,1-1.59-2,2.43,2.43,0,0,1,.4-2l1.89-2.64h0l.39-.55h0l2-2.79a3.63,3.63,0,0,1,4.63-.78L179.5,94h0l4.11,2.3A2.75,2.75,0,0,1,184.82,100.35Z"/><g class="cls-10"><path d="M180.8,106l-.25.36a3.28,3.28,0,0,1-2.62,1.27,4.11,4.11,0,0,1-.86-.07,3.88,3.88,0,0,1-1.16-.43l-.17-.1h0l-.3-.17h0l-35-19.55-1.76-1a3.16,3.16,0,0,1-1.59-2,2.43,2.43,0,0,1,.4-2l1.89-2.64c-.07.12-1.43,2.81-.94,3.75a23.66,23.66,0,0,0,3.3,2.2h0c1.42.87,3.23,2,5.26,3.16,9.35,5.56,23.59,13.73,28.05,16.2.72.4,1.19.65,1.34.72a7.3,7.3,0,0,0,1.29.44,4.53,4.53,0,0,0,.9.12A9.68,9.68,0,0,0,180.8,106Z"/></g><g class="cls-10"><ellipse cx="181.31" cy="101.44" rx="4.88" ry="1.96" transform="translate(-9.26 184.17) rotate(-52.69)"/></g><g class="cls-11"><path class="cls-12" d="M179.51,94c-.4-.2-25.87-12.9-31.16-15.15s-8.64.21-8.64.21h0l2-2.79a3.63,3.63,0,0,1,4.63-.78L179.51,94Z"/></g><g class="cls-10"><path d="M180.91,100.75l-2.06,4.75-.33.74-.37.84-.17.41a.54.54,0,0,0,0,.11,1.59,1.59,0,0,1-.13.22l-.06.1a3.4,3.4,0,0,1-.23.3l-.08.09-.09.09-.09.08-.06.06-.09.07a2.82,2.82,0,0,1-.36.24.41.41,0,0,1-.11.07l-.11.06-.12,0a2.75,2.75,0,0,1-.36.15l-.25.07-.13,0-.13,0-.08,0a4.11,4.11,0,0,1-1.84-.11L132.8,96.64a2.76,2.76,0,0,1-2-3.69l1.3-3h0l.27-.61s2.59-3,8-2.09l-1.76-1a3.16,3.16,0,0,1-1.59-2,3.92,3.92,0,0,1,1.07.17l3.58,1.1h0l32.69,10.07h0l4.5,1.38A3.13,3.13,0,0,1,181,98.88,2.43,2.43,0,0,1,180.91,100.75Z"/><g class="cls-10"><path d="M178.15,107.08l-.17.41a3.62,3.62,0,0,1-4.37,1.72L132.8,96.64a2.76,2.76,0,0,1-2-3.69l1.3-3c0,.13-.81,3-.13,3.86s40.18,13.57,41.75,13.88A6,6,0,0,0,178.15,107.08Z"/></g><g class="cls-10"><ellipse cx="177.7" cy="102.55" rx="4.88" ry="1.96" transform="translate(9.1 219.46) rotate(-64.73)"/></g><g class="cls-11"><path d="M174.37,95.67c-.91-.24-17.56-4.53-27.43-6.91-2.74-.66-5-1.17-6.17-1.41l-.39-.07-1.76-1a3.16,3.16,0,0,1-1.59-2,3.92,3.92,0,0,1,1.07.17l3.58,1.1h0Z"/></g></g><path class="cls-6" d="M220,96l32.36,4.57a4.06,4.06,0,0,0,4.6-3.46L260,75.3l.72-5.1a4.07,4.07,0,0,0-3.46-4.61L224.91,61a4.09,4.09,0,0,0-4.61,3.46l-3.54,25.1-.25,1.76A4.07,4.07,0,0,0,220,96Z"/><g class="cls-7"><path d="M220,96l32.36,4.57a4.06,4.06,0,0,0,4.6-3.46L260,75.3h0s-6.73,17.93-42.39,14.36l-.86-.08-.25,1.76A4.07,4.07,0,0,0,220,96Z"/></g><path class="cls-9" d="M178.35,101.73l-2.76,6.33-.18.4a3.61,3.61,0,0,1-4.36,1.73L130.24,97.62a2.77,2.77,0,0,1-2-3.69l1.3-3h0l.27-.61h0l1.37-3.15a3.62,3.62,0,0,1,4.37-1.72l36.3,11.18h0l4.5,1.39A2.75,2.75,0,0,1,178.35,101.73Z"/><g class="cls-10"><path d="M175.59,108.06l-.18.4a3.61,3.61,0,0,1-4.36,1.73L130.24,97.62a2.77,2.77,0,0,1-2-3.69l1.3-3c0,.13-.82,3-.13,3.86s40.18,13.57,41.75,13.88A6.09,6.09,0,0,0,175.59,108.06Z"/></g><g class="cls-10"><ellipse cx="175.14" cy="103.52" rx="4.88" ry="1.96" transform="translate(6.75 217.7) rotate(-64.73)"/></g><g class="cls-11"><path class="cls-12" d="M171.84,96.65c-.43-.11-28-7.22-33.63-8.32s-8.41,2-8.41,2h0l1.37-3.15a3.62,3.62,0,0,1,4.37-1.72l36.3,11.18Z"/></g><path class="cls-9" d="M227.77,101.25l4,5.62.26.36a3.28,3.28,0,0,0,2.62,1.27,4.22,4.22,0,0,0,.86-.07,3.88,3.88,0,0,0,1.16-.43l.17-.1h0l.31-.17h0l35.05-19.55,1.76-1a3.16,3.16,0,0,0,1.59-2,2.5,2.5,0,0,0-.4-2l-1.89-2.63h0l-.39-.55h0l-2-2.79a3.64,3.64,0,0,0-4.63-.78L233.1,94.92h0L229,97.23A2.76,2.76,0,0,0,227.77,101.25Z"/><g class="cls-10"><path d="M231.79,106.87l.26.36a3.28,3.28,0,0,0,2.62,1.27,4.22,4.22,0,0,0,.86-.07,3.88,3.88,0,0,0,1.16-.43l.17-.1h0l.31-.17h0l35.05-19.55,1.76-1a3.16,3.16,0,0,0,1.59-2,2.5,2.5,0,0,0-.4-2l-1.89-2.63c.06.12,1.43,2.8.94,3.75a24.43,24.43,0,0,1-3.3,2.2h0c-1.42.87-3.22,2-5.25,3.16-9.35,5.56-23.59,13.73-28.05,16.2-.73.4-1.2.65-1.34.71a6.5,6.5,0,0,1-1.3.45,4.34,4.34,0,0,1-.9.12A9.74,9.74,0,0,1,231.79,106.87Z"/></g><g class="cls-10"><ellipse cx="231.29" cy="102.34" rx="1.96" ry="4.88" transform="matrix(0.8, -0.61, 0.61, 0.8, -14.71, 161.11)"/></g><g class="cls-11"><path class="cls-12" d="M233.09,94.93c.39-.2,25.86-12.9,31.15-15.15s8.65.21,8.65.21h0l-2-2.79a3.63,3.63,0,0,0-4.63-.78L233.09,94.93Z"/></g><g class="cls-10"><path d="M231.68,101.65l2.07,4.75.32.74.37.84.18.41,0,.11.12.22.07.1a2.17,2.17,0,0,0,.23.3l.08.09.09.09.09.08.06.05.09.08a2.25,2.25,0,0,0,.36.24l.11.06a.24.24,0,0,0,.11.06l.12.06a3,3,0,0,0,.36.15l.25.07a.53.53,0,0,0,.12,0l.14,0,.08,0a4.12,4.12,0,0,0,1.84-.11L279.8,97.54a2.75,2.75,0,0,0,2-3.69l-1.29-3h0l-.27-.61s-2.6-3-8-2.09l1.76-1a3.16,3.16,0,0,0,1.59-2,3.92,3.92,0,0,0-1.07.17l-3.58,1.1h0L238.23,96.57h0L233.69,98a3.11,3.11,0,0,0-2.06,1.82A2.48,2.48,0,0,0,231.68,101.65Z"/><g class="cls-10"><path d="M234.44,108l.18.41a3.62,3.62,0,0,0,4.37,1.72L279.8,97.54a2.75,2.75,0,0,0,2-3.69l-1.29-3c0,.13.81,3,.13,3.86s-40.18,13.57-41.76,13.88A6.11,6.11,0,0,1,234.44,108Z"/></g><g class="cls-10"><ellipse cx="234.9" cy="103.45" rx="1.96" ry="4.88" transform="translate(-21.68 110.19) rotate(-25.27)"/></g><g class="cls-11"><path d="M238.23,96.57c.9-.24,17.56-4.53,27.43-6.91,2.74-.66,5-1.17,6.17-1.41l.39-.07,1.76-1a3.16,3.16,0,0,0,1.59-2,3.92,3.92,0,0,0-1.07.17l-3.58,1.1h0Z"/></g></g><path class="cls-9" d="M234.24,102.63,237,109l.18.4a3.63,3.63,0,0,0,4.37,1.73l40.81-12.57a2.76,2.76,0,0,0,2-3.69l-1.29-3h0l-.27-.61h0l-1.38-3.15a3.6,3.6,0,0,0-4.36-1.72l-36.3,11.18h0l-4.5,1.39A2.76,2.76,0,0,0,234.24,102.63Z"/><g class="cls-10"><path d="M237,109l.18.4a3.63,3.63,0,0,0,4.37,1.73l40.81-12.57a2.76,2.76,0,0,0,2-3.69l-1.29-3c0,.13.81,3,.13,3.86S243,109.29,241.44,109.6A6.1,6.1,0,0,1,237,109Z"/></g><g class="cls-10"><ellipse cx="237.46" cy="104.42" rx="1.96" ry="4.88" transform="translate(-21.85 111.37) rotate(-25.27)"/></g><g class="cls-11"><path class="cls-12" d="M240.76,97.55c.43-.11,28-7.22,33.63-8.32s8.41,2,8.41,2h0l-1.38-3.15a3.6,3.6,0,0,0-4.36-1.72l-36.3,11.18Z"/></g><ellipse class="cls-13" cx="206.64" cy="85.86" rx="27.55" ry="8.13" transform="translate(-1.71 4.23) rotate(-1.17)"/><path class="cls-14" d="M233.82,88.35c.09,4.49-12.17,8.38-27.38,8.69s-26.67-4.13-26.76-8.62a3.62,3.62,0,0,1,1.77-2.91h0c3.74-2.79,13.06-4.49,24.65-4.73,11.31-.23,21.06,1.58,25.36,4.37h0C233,86.12,233.79,87.2,233.82,88.35Z"/><path class="cls-5" d="M179.4,88.62a4.42,4.42,0,0,1-.54-1,4.61,4.61,0,0,1-.34-1.07,3.18,3.18,0,0,1,.56-2.23,6.58,6.58,0,0,1,1.53-1.58,12.26,12.26,0,0,1,1.8-1.16,25.28,25.28,0,0,1,3.86-1.67c1.32-.46,2.66-.84,4-1.18a69.44,69.44,0,0,1,8.21-1.43c2.75-.33,5.52-.52,8.3-.59s5.55,0,8.33.17a68.56,68.56,0,0,1,8.29,1c1.37.28,2.74.6,4.09,1a25.41,25.41,0,0,1,4,1.57,11.91,11.91,0,0,1,1.88,1.2A5.83,5.83,0,0,1,235,83.58a3.57,3.57,0,0,1,.39,1.31,4.28,4.28,0,0,1-.09,1.23,4.68,4.68,0,0,1-.35,1.1,2.71,2.71,0,0,1-.78,1l-.74-.62c0-.23.06-.53.09-.83l.06-.92c0-.15,0-.31,0-.46a1.41,1.41,0,0,0,0-.2c0-.06,0-.11,0-.17a1.86,1.86,0,0,0-.2-.66,4,4,0,0,0-1.09-1.26,10.28,10.28,0,0,0-1.59-1A21.6,21.6,0,0,0,227,80.63a39.43,39.43,0,0,0-3.92-1A66,66,0,0,0,215,78.52c-2.71-.22-5.44-.3-8.18-.29s-5.46.16-8.18.43a68.89,68.89,0,0,0-8.08,1.26c-1.33.29-2.65.63-3.94,1a25.58,25.58,0,0,0-3.76,1.49,12.6,12.6,0,0,0-1.7,1,6,6,0,0,0-1.38,1.33,3.09,3.09,0,0,0-.41.81,3,3,0,0,0-.09.43,1.48,1.48,0,0,0,0,.21v.21a4,4,0,0,0,.26.9,4.51,4.51,0,0,0,.43.85Z"/><path class="cls-14" d="M234,82c0,.36-.06.86-.14,1.58,0,.15,0,.32-.06.49-.09.7-.2,1.58-.36,2.7a2.91,2.91,0,0,1,0,.31l0,.23h0l0,.2c-.21,1.54-.33,2.34-.39,2.56a5.43,5.43,0,0,1-.25.62,12.89,12.89,0,0,1-4.54,5.16c-3.92,2.71-21,3.69-44.1,1.32-1.34-1.39-5.09-5.59-5.16-10.34v-.07c0-.32,0-.65,0-1,0-.12,0-.25.05-.41a7.71,7.71,0,0,1,.56-2.21,2.71,2.71,0,0,1,1.21-1.35,3,3,0,0,1,2.14.08,3.47,3.47,0,0,0,.45.06,1.5,1.5,0,0,0,.71-.14,1.34,1.34,0,0,0,.56-.42,1.65,1.65,0,0,0,.22-.36c.66-1.39.12-4,1.7-6.32a6.48,6.48,0,0,1,1-1.13h0a10.14,10.14,0,0,1,6.91-2.17,7.67,7.67,0,0,1,3.31,1.09,3.91,3.91,0,0,0,1.64.23,5.56,5.56,0,0,0,1.91-.4c1.53-.61,2.74-1.72,5.85-2.24a7.64,7.64,0,0,1,3.14,0,10,10,0,0,1,3.14,1.49,11.87,11.87,0,0,1,1.76,1.24h0a2.63,2.63,0,0,0,.88.57,4.08,4.08,0,0,0,2.93,0,3.92,3.92,0,0,1,2.69,0,5.36,5.36,0,0,1,1.35.9c.42.31,1.06.76,2.12,1.41a9.13,9.13,0,0,0,1.81,1,4.41,4.41,0,0,0,2.51,0,2.89,2.89,0,0,1,1.46,0,4.13,4.13,0,0,1,2.35,2.44A10,10,0,0,1,234,81,3.32,3.32,0,0,1,234,82Z"/><g class="cls-8"><path d="M234,82c0,.74-.18,2.06-.56,4.77-.28,2-.42,3-.49,3.3a12,12,0,0,1-4.79,5.78c-3.92,2.71-21,3.69-44.1,1.32-1.43-1.49-5.65-6.22-5.12-11.39a8.71,8.71,0,0,1,.61-2.62c20.55,10.69,30.49,11.23,54.23-1Z"/></g><path class="cls-5" d="M234.46,85.15c.27,13.47-12,24.64-27.3,25s-28-10.36-28.29-23.83c.09,4.55,12.61,8,28,7.66S234.55,89.69,234.46,85.15Z"/><g class="cls-11"><path class="cls-12" d="M179.11,87.33s5.23,10.32,42.79,5.16C222,92.48,184.64,101.86,179.11,87.33Z"/></g><circle class="cls-15" cx="197.55" cy="81.45" r="1.22"/><circle class="cls-15" cx="215.38" cy="80.34" r="1.22"/><path class="cls-15" d="M206.37,83.88a5.73,5.73,0,0,1-3.09-.86.54.54,0,1,1,.62-.88,4.78,4.78,0,0,0,2.79.65,5.14,5.14,0,0,0,2.74-1,.54.54,0,1,1,.71.81,6,6,0,0,1-3.39,1.27Z"/><path class="cls-4" d="M280.76,98.28a10.06,10.06,0,0,1-.87,4.38c-1.41,3-4.89,5.7-12.7,7.78-10.48,2.79-28.78,4.5-60.4,4.5-68.6,0-74-7.46-74-16.66,0,3.1,33.12,5.62,74,5.62,18.87,0,36.08-.54,49.15-1.42,13.67-.93,22.8-2.23,24.52-3.69A.7.7,0,0,0,280.76,98.28Z"/><g class="cls-8"><path d="M172.25,112.77s16.18,1.1,33.7,1.1,37.16-1.53,37.16-1.53S211.49,120,172.25,112.77Z"/></g><g class="cls-11"><path class="cls-12" d="M133.41,99s13.34,7.12,113.56,4.11C247.13,103.11,147.33,109,133.41,99Z"/></g><g class="cls-8"><path class="cls-12" d="M194.51,71.39a7.67,7.67,0,0,1,3.31,1.09c-5.93.37-10.1,1.06-10.22,1.08A10.14,10.14,0,0,1,194.51,71.39Z"/></g><g class="cls-8"><path class="cls-12" d="M213.5,71.56a11.87,11.87,0,0,1,1.76,1.24,91.75,91.75,0,0,0-13.89-.49c1.53-.61,2.74-1.72,5.85-2.24a7.64,7.64,0,0,1,3.14,0A10,10,0,0,1,213.5,71.56Z"/></g><g class="cls-8"><path class="cls-12" d="M221.76,73.37a5.36,5.36,0,0,1,1.35.9c-1.31-.36-2.66-.66-4-.9A3.92,3.92,0,0,1,221.76,73.37Z"/></g><g class="cls-8"><path class="cls-12" d="M233.36,79.12a22.33,22.33,0,0,0-3.81-2.44,2.89,2.89,0,0,1,1.46,0A4.13,4.13,0,0,1,233.36,79.12Z"/></g><g class="cls-11"><ellipse class="cls-12" cx="250.59" cy="68.11" rx="2.34" ry="6.39" transform="translate(152.39 308.51) rotate(-82.99)"/></g><g class="cls-11"><ellipse class="cls-12" cx="218.57" cy="52.46" rx="2.34" ry="6.39" transform="matrix(0.08, -1, 1, 0.08, 149.11, 266.24)"/></g><g class="cls-11"><ellipse class="cls-12" cx="209.94" cy="54.8" rx="1.42" ry="3.87" transform="translate(138.82 259.79) rotate(-85.5)"/></g><g class="cls-11"><ellipse class="cls-12" cx="188" cy="62.35" rx="1.42" ry="3.87" transform="translate(111.07 244.87) rotate(-85.5)"/></g><rect class="cls-16" y="0.25" width="300" height="165"/></g></g></svg>