<svg xmlns="http://www.w3.org/2000/svg" xmlns:xlink="http://www.w3.org/1999/xlink" viewBox="0 0 300 165.5"><defs><style>.cls-1{isolation:isolate;}.cls-2{fill:#fce5cd;}.cls-3{fill:none;}.cls-4{fill:#3f562b;}.cls-5{fill:#5b773d;}.cls-6{opacity:0.46;}.cls-10,.cls-11,.cls-12,.cls-18,.cls-19,.cls-6{mix-blend-mode:soft-light;}.cls-7{fill:#f7cda9;}.cls-8{fill:#e56e15;}.cls-9{fill:#302b2b;}.cls-10{opacity:0.58;}.cls-11{opacity:0.52;}.cls-12{opacity:0.49;}.cls-13{fill:#fff;}.cls-14{fill:#ffe8d9;}.cls-15{fill:#ce5f13;}.cls-16{fill:#f4a56e;}.cls-17{fill:#84471e;}.cls-18{opacity:0.24;}.cls-19{opacity:0.29;}.cls-20{fill:url(#linear-gradient);}</style><linearGradient id="linear-gradient" x1="150.37" y1="168.62" x2="149.66" y2="2.17" gradientUnits="userSpaceOnUse"><stop offset="0.03" stop-color="#591c16"/><stop offset="0.22" stop-color="#5f241d" stop-opacity="0.96"/><stop offset="0.38" stop-color="#733c33" stop-opacity="0.84"/><stop offset="0.53" stop-color="#936459" stop-opacity="0.64"/><stop offset="0.68" stop-color="#c09d8d" stop-opacity="0.36"/><stop offset="0.82" stop-color="#fae5cf" stop-opacity="0"/></linearGradient></defs><g class="cls-1"><g id="Layer_1" data-name="Layer 1"><rect class="cls-2" y="0.25" width="300" height="165"/><path class="cls-3" d="M276,75.84a4.67,4.67,0,0,1-.56,1.52l-.2.34-.69,1.16-.53.9h0l-.66,1.12-5.28,8.93L267.44,91l-.19.32-.65,1.1-6,10.18-.51.86-.16.27-.48.82-7.18,12.15-.2.35-.46.78-.18.3-1.77,3a4.46,4.46,0,0,1-5.91,1.7l-91.33-47.9a4.52,4.52,0,0,1-1.22-7l.73-.79,0,0,.15-.15.22-.24,2.1-2.29a16.72,16.72,0,0,1-1.21-1.92l1.68-1.83-.1,0h.14l.68-.73.2-.22.89-1,.05,0,0,0,1-1.1,4-4.29-2.59-.93h1.47l1.51.52,1.1-1.19,1.9-2,.15-.17c.94,0,1.9,0,2.88,0l1.47-1.6.37-.41,1.18-1.27.41-.45,1.84-2A4.44,4.44,0,0,1,178,42.39l57.73,17.25.51.15,4.58,1.37-.76-3.1-1.3-5.26.59.37,14.58,9h0L263,67.79,266.63,70l1.16.72h0l1.25.77.46.29Z"/><path class="cls-4" d="M276,75.84a4.67,4.67,0,0,1-.56,1.52l-.2.34-.69,1.16-.53.9h0l-.66,1.12-5.28,8.93L267.44,91l-.19.32-.65,1.1-6,10.18-.51.86-.16.27-.48.82-7.18,12.15-.2.35-.46.78-.18.3-1.77,3a4.46,4.46,0,0,1-5.91,1.7l-91.33-47.9a4.52,4.52,0,0,1-1.22-7l.73-.79,0,0,.15-.15.22-.24,2.1-2.29L156.55,62l0,0,.45-.49.37-.4.32-.35.3-.32,1-1.06.06-.07,0,0,1-1.14,2.78-3h0l.35-.39.47-.51.19-.21.39-.43,1.84-2,1.85-2,.14-.16,1.47-1.6.37-.41,1.18-1.27.41-.45,1.84-2A4.44,4.44,0,0,1,178,42.39l57.73,17.25.51.15,4.58,1.37.55.16,1.37.41h0l2.26.68,3.62,1.08h0L263,67.79l4.51,1.35.57.17,3,.9.62.19,1.17.35A4.5,4.5,0,0,1,276,75.84Z"/><path class="cls-5" d="M252.26,116.66l-.2.35-.46.78-25.89-13.18h0l-8.06-4.1L192.31,87.6h0l-3.79-1.93-1.87-1h0l-2.17-1.11-16.67-8.49-8.48-4.33L151.94,67l.15-.15.22-.24,7.29,3.65,9.87,4.94h0l15.25,7.63.84.42h0l6.15,3.07h0l3.73,1.87h0l23.17,11.6,8.18,4.09Z"/><path class="cls-5" d="M256.85,101.06l3.74,1.5-.51.86-.16.27-2.6-1.06L248,98.79h0l-8-3.29L231,91.85l-18-7.39-.79-.32-3.59-1.48h0L182,71.73l-5-2.07-5.79-2.37L157,61.48l-2.16-.89-.1,0h.14l1.33.06,1.16.47,15.64,6.29,4.66,1.88L182,71l11.54,4.63,2.83,1.15.13,0,35.64,14.32,9,3.6,6.41,2.58Z"/><g class="cls-6"><ellipse cx="170.65" cy="71.26" rx="11.4" ry="3.98"/></g><path class="cls-5" d="M255.61,85.45l12.5,4.36L267.44,91l-13.12-4.68-2.12-.76L245,82.93,243,82.24l-12.3-4.39h0l-1.59-.57h0l-14.44-5.16h0l-1.86-.67h0l-.27-.1h0l-8.27-2.95-.35-.13L200,66.88l-1.42-.51-7.17-2.56-6.64-2.37-2-.71-2.82-1h0l-1.85-.66-8.85-3.17L163.94,54l-.27-.1h0l-1-.35h0l-.94-.34-2.59-.93h1.47l1.51.52,2.2.77,5.82,2,9.31,3.25,1.65.58h0l2.52.89,1.41.49L191.28,63l7.16,2.51,1.42.49,4.76,1.67.19.06.26.09.81.29h0l2,.69,2.72.95h0L217.05,72h0l14.58,5.09h0l1.76.62h0l9.23,3.22,3.56,1.25,5.6,2h0Z"/><path class="cls-5" d="M275.27,77.7l-.69,1.16L268.76,77l-4.93-1.56-.61-.2L259,73.93l-11.35-3.59-9.07-2.87-11.66-3.7-.09,0-2.17-.69h0l-20.88-6.61h0L171.18,46.1l.41-.45,66.64,20.6,9,2.8,13.06,4,4.25,1.31.61.19h0l4.55,1.4Z"/><ellipse class="cls-7" cx="168.66" cy="55.08" rx="5.52" ry="17.27" transform="translate(105.87 221.03) rotate(-87.36)"/><path class="cls-8" d="M185.55,57.92c-.11,3-7.93,5.16-17.46,4.73s-16.51-3.92-16.39-7a2.47,2.47,0,0,1,1.22-1.9h0c2.45-1.73,8.34-2.49,15.6-2.16,7.08.32,13.1,2,15.69,4h0A2.89,2.89,0,0,1,185.55,57.92Z"/><path class="cls-9" d="M185.42,57.54h0v0a1.73,1.73,0,0,0,.25-.53,4.18,4.18,0,0,0,.15-.61,4.44,4.44,0,0,0,.08-.61,2.83,2.83,0,0,0,0-.29,2.47,2.47,0,0,0-.06-.29,2.86,2.86,0,0,0-.63-1,6.16,6.16,0,0,0-.95-.81A12,12,0,0,0,182,52.19a22.8,22.8,0,0,0-2.4-.85,39.1,39.1,0,0,0-5-1.09c-1.69-.25-3.4-.42-5.1-.51s-3.42-.09-5.13,0a41,41,0,0,0-5.08.52c-.84.14-1.68.31-2.49.53a17.22,17.22,0,0,0-2.39.81,9.65,9.65,0,0,0-1.11.57,5.35,5.35,0,0,0-1,.72,2.46,2.46,0,0,0-.62.91.61.61,0,0,0,0,.13.5.5,0,0,0,0,.13,1.06,1.06,0,0,0,0,.24,4.18,4.18,0,0,0,.09.55l-.09-.16h0l.11.26v-.06a.19.19,0,0,0,0-.07l0,.14h0v-.1c0,.24.09.48.12.73l-.34.2a1.27,1.27,0,0,1-.28-.34,1.76,1.76,0,0,1-.19-.39V55h0l0,.14,0-.11.1.21h0l-.09-.15h0a2.3,2.3,0,0,1-.14-.72,2.36,2.36,0,0,1,0-.39c0-.13.06-.26.1-.38a3.15,3.15,0,0,1,.81-1.2,6.17,6.17,0,0,1,1.1-.82,12.05,12.05,0,0,1,1.19-.6,17.44,17.44,0,0,1,2.5-.83c.84-.22,1.7-.39,2.55-.53a42.87,42.87,0,0,1,5.17-.5c.87,0,1.73,0,2.6,0s1.73,0,2.59.1c1.72.11,3.45.3,5.15.58a36.73,36.73,0,0,1,5.06,1.17,24.69,24.69,0,0,1,2.44.9,13.18,13.18,0,0,1,2.29,1.27,5.89,5.89,0,0,1,1,.88,3,3,0,0,1,.69,1.17,2.05,2.05,0,0,1,.07.34c0,.12,0,.23,0,.35a6.73,6.73,0,0,1-.1.67,5.63,5.63,0,0,1-.18.64,2,2,0,0,1-.32.61v0l0,0Z"/><g class="cls-10"><path d="M185.55,57.92c-.11,3-7.93,5.16-17.46,4.73s-16.51-3.92-16.39-7a2.47,2.47,0,0,1,1.22-1.9s-.34,1.56.7,2.12S167.3,62,182.79,58.14c1.78-.39,1.91-2.07,1.43-2.48A2.89,2.89,0,0,1,185.55,57.92Z"/></g><path class="cls-9" d="M172.85,72.59l-9.17-.42a.93.93,0,0,1-.86-1l0-.28a.91.91,0,0,1,.92-.92l9.18.41a.93.93,0,0,1,.85,1v.29A.93.93,0,0,1,172.85,72.59Z"/><path class="cls-9" d="M186.08,55.81a15.83,15.83,0,0,1-1,5c-.08.22-.17.43-.27.65a16.55,16.55,0,0,1-5.9,7.07c-.38.26-.77.51-1.18.74s-.51.28-.78.41a17.11,17.11,0,0,1-3.24,1.25,17.89,17.89,0,0,1-3.62.6,15.25,15.25,0,0,1-2,0,16.73,16.73,0,0,1-1.75-.16h0a17.92,17.92,0,0,1-3.38-.81,19.33,19.33,0,0,1-2.47-1.06,17.69,17.69,0,0,1-6-5.16,16.72,16.72,0,0,1-1.21-1.92,15.91,15.91,0,0,1-1.92-8.17,1.8,1.8,0,0,0,.11.68l0,0a2.34,2.34,0,0,0,.3.56,5.77,5.77,0,0,0,1.73,1.53l.1.06.37.22a18.86,18.86,0,0,0,2.85,1.23c.72.24,1.5.47,2.32.68a44.25,44.25,0,0,0,6.76,1.13c.85.09,1.73.15,2.62.19a49.81,49.81,0,0,0,7.65-.22,32.51,32.51,0,0,0,3.85-.64c.4-.09.79-.19,1.15-.3s.85-.26,1.23-.4h0a7.82,7.82,0,0,0,3.07-1.81,2.31,2.31,0,0,0,.63-1.28v0A.09.09,0,0,0,186.08,55.81Z"/><g class="cls-11"><path d="M162.82,71s2.48.39,5.18.51a51.55,51.55,0,0,0,5.73-.12A18.12,18.12,0,0,1,162.82,71Z"/></g><g class="cls-12"><path class="cls-13" d="M151.39,54.92s2.86,7.21,26.55,5.3C178,60.21,154.28,65,151.39,54.92Z"/></g><ellipse class="cls-14" cx="163" cy="54.27" rx="0.76" ry="0.83"/><ellipse class="cls-14" cx="174.19" cy="54.27" rx="0.76" ry="0.83"/><path class="cls-14" d="M168.66,56.38a3.57,3.57,0,0,1-2.22-.75A.45.45,0,1,1,167,55a2.78,2.78,0,0,0,1.64.53,2.87,2.87,0,0,0,1.68-.54.45.45,0,0,1,.57.7A3.8,3.8,0,0,1,168.66,56.38Z"/><path class="cls-8" d="M199.79,76.38l-4.06.53a1.91,1.91,0,0,1-2.19-1.36l-3.22-17.92h0l-.15-.83a1.54,1.54,0,0,1,.87-1.61l.22-.11h0a2.61,2.61,0,0,1,.5-.12l.8-.1.78-.1h0l2.48-.32A1.9,1.9,0,0,1,198,55.79l3.37,18.74A1.68,1.68,0,0,1,199.79,76.38Z"/><path class="cls-15" d="M224.11,82.49l-2.79,2.56a2.17,2.17,0,0,1-2.71.09L202.16,72.28a1.45,1.45,0,0,1-.11-2.29l2.79-2.56.12-.1a1.92,1.92,0,0,1,.26-.17,2.25,2.25,0,0,1,1.63-.17,1.92,1.92,0,0,1,.7.35L213,71.61h0l.05,0h0l.33.26L224,80.19A1.46,1.46,0,0,1,224.11,82.49Z"/><path class="cls-8" d="M229,66.19l-1.64,3.53-.1.23a2.05,2.05,0,0,1-2.49.92l-22.86-7.6a1.56,1.56,0,0,1-1.09-2.1l.77-1.66h0l.16-.35h0l.82-1.75a2,2,0,0,1,2.48-.92l20.33,6.75h0l2.52.84A1.56,1.56,0,0,1,229,66.19Z"/><path class="cls-8" d="M213,85.34l-1.36,4.26A2.11,2.11,0,0,1,209.23,91l-23.64-4.68a1.6,1.6,0,0,1-1.3-2.07l1.36-4.26A2.11,2.11,0,0,1,188,78.59l.48.09.86.17h0l22.29,4.42a1.58,1.58,0,0,1,.54.19,1.62,1.62,0,0,1,.8,1A1.65,1.65,0,0,1,213,85.34Z"/><polygon class="cls-16" points="242.7 66.81 242.23 66.93 241.06 62.22 240.8 61.16 240.03 58.06 238.74 52.8 237.06 46.03 237.54 45.92 239.33 53.17 240.58 58.22 241.35 61.32 241.53 62.08 242.7 66.81"/><rect class="cls-16" x="271.67" y="59.22" width="0.49" height="21.52" transform="translate(184.14 -196.72) rotate(57.35)"/><path class="cls-17" d="M256,106.87l-2.79.83a2.47,2.47,0,0,1-3.08-1.66L238.06,65.7a2.48,2.48,0,0,1,1.67-3.08l2.79-.84a2.48,2.48,0,0,1,3.08,1.66l1.14,3.84h0l10.93,36.51a1.79,1.79,0,0,1,.09.46A2.48,2.48,0,0,1,256,106.87Z"/><g class="cls-18"><path d="M224.11,82.49l-2.79,2.56a2.17,2.17,0,0,1-2.71.09L202.16,72.28a1.45,1.45,0,0,1-.11-2.29l2.79-2.56.12-.1.26-.17c-.07.08-2.07,2.71-2.43,3.17s-.4.49.25,1.22c1.05,1.2,3.09,3.1,4,3.1s2.16-2.26,3-2.65c.59-.3,2,0,3.46-.08L224,80.19A1.46,1.46,0,0,1,224.11,82.49Z"/></g><path class="cls-8" d="M234.07,77.64l-22.32,1.42a1.84,1.84,0,0,1-2.05-1.5l-.31-3.47a1.65,1.65,0,0,1,1.32-1.67,2.12,2.12,0,0,1,.45-.07l6.37-.41h0l13.68-.87h0l.7,0,1.57-.1a1.85,1.85,0,0,1,2.05,1.5l.31,3.47A1.74,1.74,0,0,1,234.07,77.64Z"/><g class="cls-18"><path d="M227.31,69.72l-.1.23a2.05,2.05,0,0,1-2.49.92l-22.86-7.6a1.56,1.56,0,0,1-1.09-2.1l.77-1.66c0,.07-.49,1.7-.12,2.18S223.91,69.84,224.8,70A3.4,3.4,0,0,0,227.31,69.72Z"/></g><g class="cls-18"><ellipse cx="227.11" cy="67.16" rx="2.75" ry="1.11" transform="translate(65.58 240.36) rotate(-63.47)"/></g><g class="cls-18"><ellipse cx="221.9" cy="82.49" rx="2.75" ry="1.11" transform="translate(1.16 168.04) rotate(-41.58)"/></g><g class="cls-18"><path d="M234.07,77.64l-22.32,1.42a1.84,1.84,0,0,1-2.05-1.5l-.31-3.47a1.65,1.65,0,0,1,1.32-1.67,5.62,5.62,0,0,0-.46.86,3.7,3.7,0,0,0-.19,1,12.5,12.5,0,0,0,.32,3,2.4,2.4,0,0,0,2,1c1.08,0,19.5-1.05,20.11-1.36s1.5-.9,1.55-1.69a5,5,0,0,0-.6-2.82,3.86,3.86,0,0,0-1.57-1.4l1.57-.1a1.85,1.85,0,0,1,2.05,1.5l.31,3.47A1.74,1.74,0,0,1,234.07,77.64Z"/></g><g class="cls-18"><path d="M199.79,76.38l-4.06.53a9.25,9.25,0,0,0,3.66-1.67c.23-.2.25-1,.35-1.57S197.18,58.44,197,57.13a2,2,0,0,0-1.44-1.84,11.49,11.49,0,0,0-2.21-.54l2.48-.32A1.9,1.9,0,0,1,198,55.79l3.37,18.74A1.68,1.68,0,0,1,199.79,76.38Z"/></g><g class="cls-18"><path d="M213,85.34l-1.36,4.26A2.11,2.11,0,0,1,209.23,91l-23.64-4.68a1.6,1.6,0,0,1-1.3-2.07l1.36-4.26A2.11,2.11,0,0,1,188,78.59l.48.09h0s-.48,0-1.16.79-2.22,3-1.8,3.8a4.65,4.65,0,0,0,2.48,2.3c1,.19,19,4.12,19.76,4.12s2.65,0,3-.69a24.76,24.76,0,0,0,1.88-3.43c.14-.44.23-.83.29-1.11A1.65,1.65,0,0,1,213,85.34Z"/></g><g class="cls-12"><path class="cls-13" d="M225.34,63.24c-.25-.07-15.7-4.42-18.87-5.11s-4.77,1-4.77,1h0l.82-1.75a2,2,0,0,1,2.48-.92l20.33,6.75Z"/></g><g class="cls-12"><path class="cls-13" d="M232.66,75.73c.2-.39-.29-1.77-.39-2.16s-.59-.69-1.23-.93-13.32-.69-13.51-.7l13.68-.87h0C234.37,73.18,233.35,75.44,232.66,75.73Z"/></g><g class="cls-12"><path class="cls-13" d="M196.62,59.51c-.27-1.48-1.3-3.23-1.89-3.43a10,10,0,0,0-3.09.34c-.72.15-1.29,1.17-1.32,1.21l-.15-.83a1.54,1.54,0,0,1,.87-1.61l.22-.11h0a3.07,3.07,0,0,1,1.3-.22,5.79,5.79,0,0,1,3.72,1.82C196.69,57.26,196.89,61,196.62,59.51Z"/></g><g class="cls-19"><path class="cls-13" d="M256,106.87l-2.79.83a2.47,2.47,0,0,1-3.08-1.66L238.06,65.7a2.48,2.48,0,0,1,1.67-3.08l2.79-.84a2.48,2.48,0,0,1,3.08,1.66l1.14,3.84c-.05-.08-1.71-2.65-2.48-2.65s-3.17.49-3.45,1.32,10.13,37.69,11.11,38.48,3.93,1.57,4.92.78a4.65,4.65,0,0,0,.92-1A2.48,2.48,0,0,1,256,106.87Z"/></g><g class="cls-12"><path class="cls-13" d="M213.07,71.66c-.32-.19-5.52-3.12-6.35-3.49a2.49,2.49,0,0,0-2,.32,2.25,2.25,0,0,1,2.15-1.5,1.92,1.92,0,0,1,.7.35L213,71.61h0Z"/></g><g class="cls-18"><path d="M246.47,93.78s-.24-1,3-2.82,4.44.27,4.44.27l-1.71-5.71s-7.76,2.3-7.66,2.65S246.47,93.78,246.47,93.78Z"/></g><g class="cls-12"><path class="cls-13" d="M208.49,88.21a4.73,4.73,0,0,0,.89-2.23c.21-1.35-.4-1.4-1.48-1.89S189.84,79,189.38,78.85l22.29,4.42a1.58,1.58,0,0,1,.54.19C212.52,87.61,208.3,88.49,208.49,88.21Z"/></g><path class="cls-17" d="M268.87,77l-46.56,29.83a2.43,2.43,0,0,1-1.71.36h0a2.39,2.39,0,0,1-1.7-1.11l-1.58-2.45a2.48,2.48,0,0,1,.75-3.42l46.56-29.83a2.48,2.48,0,0,1,3.42.75l1.57,2.45A2.48,2.48,0,0,1,268.87,77Z"/><g class="cls-19"><path class="cls-13" d="M268.87,77s-.65-4-2.41-4.36S219.79,99.91,219.3,101s-.69,3.88,0,4.69c.37.44.89,1,1.3,1.46a2.39,2.39,0,0,1-1.7-1.11l-1.58-2.45a2.48,2.48,0,0,1,.75-3.42l46.56-29.83a2.48,2.48,0,0,1,3.42.75l1.57,2.45A2.48,2.48,0,0,1,268.87,77Z"/></g><g class="cls-18"><path d="M227.09,95.51c.44.95,1.35,3.51,3.07,4.91.12.1.21-.06.15-.25a10.92,10.92,0,0,0-3.16-4.79C227.09,95.32,227.05,95.42,227.09,95.51Z"/></g><g class="cls-18"><path d="M233.19,91.38c.44,1,1.35,3.51,3.06,4.91.12.1.21-.06.15-.25a11,11,0,0,0-3.15-4.79C233.19,91.2,233.14,91.29,233.19,91.38Z"/></g><g class="cls-18"><path d="M240.46,86.67c.44,1,1.35,3.5,3.07,4.91.11.09.2-.06.14-.25a11,11,0,0,0-3.15-4.8C240.46,86.48,240.42,86.57,240.46,86.67Z"/></g><g class="cls-18"><path d="M249.61,100.7c1-.21,3.72-.52,5.48-1.87.12-.1,0-.22-.22-.2a11.07,11.07,0,0,0-5.38,2C249.43,100.66,249.51,100.72,249.61,100.7Z"/></g><g class="cls-18"><path d="M248,95.1c1-.21,3.72-.52,5.47-1.88.12-.09,0-.21-.21-.19a10.92,10.92,0,0,0-5.38,2C247.85,95.06,247.94,95.12,248,95.1Z"/></g><g class="cls-18"><path d="M243.52,78.69c1-.21,3.72-.52,5.47-1.88.12-.09,0-.21-.21-.2a11,11,0,0,0-5.38,2C243.33,78.65,243.42,78.71,243.52,78.69Z"/></g><g class="cls-18"><path d="M242.24,73.78c1-.22,3.72-.52,5.48-1.88.12-.09,0-.22-.22-.2a11,11,0,0,0-5.38,2C242.06,73.74,242.14,73.8,242.24,73.78Z"/></g><g class="cls-18"><path d="M240.67,69c1-.21,3.72-.52,5.47-1.88.12-.09,0-.21-.21-.19a10.92,10.92,0,0,0-5.38,2C240.48,68.92,240.57,69,240.67,69Z"/></g><g class="cls-18"><path d="M245.86,83.23c.44,1,1.35,3.5,3.07,4.91.12.09.21-.06.15-.25a11,11,0,0,0-3.16-4.8C245.86,83,245.82,83.13,245.86,83.23Z"/></g><g class="cls-18"><path d="M254.51,77.82c.44,1,1.35,3.51,3.07,4.91.12.1.21-.06.14-.25a10.84,10.84,0,0,0-3.15-4.79C254.51,77.63,254.47,77.73,254.51,77.82Z"/></g><g class="cls-18"><path d="M259.52,74.58c.44,1,1.35,3.51,3.07,4.91.12.1.21-.06.15-.25a11,11,0,0,0-3.16-4.8C259.52,74.39,259.48,74.49,259.52,74.58Z"/></g><rect class="cls-20" y="0.25" width="300" height="165"/></g></g></svg>