<svg id="Layer_1" data-name="Layer 1" xmlns="http://www.w3.org/2000/svg" xmlns:xlink="http://www.w3.org/1999/xlink" viewBox="0 0 300 165"><defs><style>.cls-1{fill:#fce5cd;}.cls-2{fill:#ffb448;}.cls-3{fill:#7a4918;}.cls-4{opacity:0.35;}.cls-5{fill:#fff;}.cls-6{opacity:0.36;}.cls-7{fill:#dd7b4a;}.cls-8{fill:#3f240f;}.cls-9{fill:url(#linear-gradient);}</style><linearGradient id="linear-gradient" x1="150.37" y1="168.37" x2="149.66" y2="1.92" gradientUnits="userSpaceOnUse"><stop offset="0.03" stop-color="#591c16"/><stop offset="0.22" stop-color="#5f241d" stop-opacity="0.96"/><stop offset="0.38" stop-color="#733c33" stop-opacity="0.84"/><stop offset="0.53" stop-color="#936459" stop-opacity="0.64"/><stop offset="0.68" stop-color="#c09d8d" stop-opacity="0.36"/><stop offset="0.82" stop-color="#fae5cf" stop-opacity="0"/></linearGradient></defs><rect class="cls-1" x="-0.27" y="-0.15" width="300" height="165"/><path class="cls-2" d="M195.3,110.12a18.26,18.26,0,0,1-5.06-.65c-2.52-.73-4.16-2-4.76-3.83-1.32-4-.88-12.34-.63-15.77,0,0,0-.18,0-.25-.93.33-2.78,1-5.05,1.74l-.07,0h0c-6.46,2.15-14.86,4.71-18.32,4.71a3.92,3.92,0,0,1-1.06-.12l-.83-.23c-3.42-.93-7.3-2-6.6-8.95.39-4,5.37-12.74,11.56-20.44,4.6-5.7,13.76-15.61,23.45-17.82a42.52,42.52,0,0,1,7.24-1c.85-.05,1.71-.08,2.56-.08,7.68,0,14.92,1.89,20.39,5.33a22,22,0,0,1,10.71,16.94c.68,7.14-2.77,15.4-10,23.9a84.77,84.77,0,0,1-13,12.26,28.8,28.8,0,0,1-5.57,3.6A17.2,17.2,0,0,1,195.3,110.12Z"/><path class="cls-3" d="M197.74,47.9c14.31,0,29.21,6.72,30.66,21.87.78,8.23-4,16.64-9.88,23.56a84.58,84.58,0,0,1-12.94,12.2,29.1,29.1,0,0,1-5.45,3.53,16.67,16.67,0,0,1-4.83.62,18.24,18.24,0,0,1-4.94-.63c-2.1-.61-3.84-1.72-4.45-3.55-1.33-4-.82-12.75-.61-15.61h0c0-.59.07-.92.07-.92s-2.39.86-5.7,2h0c-5.9,2-14.75,4.72-18.25,4.72a3.51,3.51,0,0,1-.94-.11c-3.73-1.06-7.82-1.6-7.11-8.71S171.68,52.7,188,49a43.94,43.94,0,0,1,7.16-1c.84,0,1.69-.07,2.54-.07m0-.89v0c-.86,0-1.73,0-2.59.07a43.34,43.34,0,0,0-7.31,1c-9.82,2.24-19.06,12.22-23.69,18-6.25,7.76-11.26,16.64-11.66,20.67-.33,3.25.28,5.56,1.85,7.09a11.19,11.19,0,0,0,5.08,2.34l.82.23a4.38,4.38,0,0,0,1.18.14c3.51,0,11.91-2.56,18.4-4.72h0l.14,0,4.42-1.52c-.26,3.68-.62,11.62.68,15.52.64,1.92,2.39,3.35,5.06,4.12a19.15,19.15,0,0,0,5.18.66,17.43,17.43,0,0,0,5.11-.66,29.21,29.21,0,0,0,5.7-3.66A85.41,85.41,0,0,0,219.2,93.9a50.46,50.46,0,0,0,7.56-11.49,24.89,24.89,0,0,0,2.52-12.73A22.37,22.37,0,0,0,218.37,52.4C212.83,48.92,205.5,47,197.74,47Z"/><g class="cls-4"><path class="cls-5" d="M218.52,93.33c1.24-38-20.47-44.65-23.32-45.36,15-.84,31.67,5.75,33.2,21.8C229.18,78,224.39,86.41,218.52,93.33Z"/></g><g class="cls-6"><path d="M185.3,89.89c0-.59.07-.92.07-.92C185.36,89.29,185.33,89.6,185.3,89.89Z"/></g><path class="cls-7" d="M190.89,70.61S185.73,81,185.37,89c0,0-2.39.86-5.7,2,1.63-5.21,4-12.81,4.81-14.82C185.73,73,187.33,70.22,190.89,70.61Z"/><path class="cls-7" d="M205.58,105.53a29.1,29.1,0,0,1-5.45,3.53,19.38,19.38,0,0,1-9.77,0,4,4,0,0,1,.53-3.25C192.8,103.3,200.69,104.67,205.58,105.53Z"/><path class="cls-3" d="M185,89.41a.44.44,0,0,1-.44-.36c-.92-4.62,3.15-13.43,5.1-17.66l.45-1c1.34-3-2.76-6.05-2.8-6.09a.44.44,0,0,1-.09-.62.44.44,0,0,1,.62-.09c.19.14,4.72,3.55,3.07,7.17-.12.27-.27.6-.44,1-1.77,3.83-5.91,12.78-5,17.12a.44.44,0,0,1-.35.52Z"/><path class="cls-2" d="M258.61,127.62a20,20,0,0,1-2.53-.19,136.7,136.7,0,0,1-13.67-2.11c-17.23-3.63-28.91-10.27-36.76-20.89a16.67,16.67,0,0,1-2.18-4c-1.25-3.31-2.27-9.13,0-18.08A55,55,0,0,1,206.68,73l.1-.21.23,0a14.15,14.15,0,0,0,3.93-1.38c.76-.4,1.88-1.18,3.44-2.26,2.91-2,7.3-5,13.56-8.55A11.75,11.75,0,0,1,233.73,59c4.84,0,9.18,2.93,12.78,5.8l1.14.92a21.12,21.12,0,0,0,2.73,2c1.88,1,9.26,11.91,15.59,22.14,3,4.91,12.94,21.21,12.57,24.49-.65,5.91-4,6.55-5.44,6.55a6,6,0,0,1-1-.09c-2.25-.39-8-1.59-10.39-2.1,1.17,1.78,2.79,4.86,1.68,6.94C262.7,127,261.09,127.62,258.61,127.62Z"/><path class="cls-3" d="M233.73,59.42c4.87,0,9.29,3.15,12.51,5.71a35.89,35.89,0,0,0,3.93,3c3.35,1.82,28.47,41.39,27.93,46.19-.47,4.28-2.5,6.16-5,6.16a6,6,0,0,1-.93-.08c-2.91-.51-11.49-2.34-11.49-2.34s.21.26.5.7c1.45,2.14,5.05,8.42-2.57,8.42a19.51,19.51,0,0,1-2.47-.18,136.57,136.57,0,0,1-13.64-2.11c-19-4-29.63-11.43-36.49-20.71a16.33,16.33,0,0,1-2.12-3.94c-4.31-11.4,3.19-27.07,3.19-27.07a14.08,14.08,0,0,0,4.07-1.43c2.21-1.16,7.39-5.42,17-10.81a11.28,11.28,0,0,1,5.57-1.5m0-.89h0a12.11,12.11,0,0,0-6,1.61,160.71,160.71,0,0,0-13.6,8.58c-1.55,1.07-2.67,1.84-3.39,2.22A13.56,13.56,0,0,1,207,72.28l-.47.07-.21.42A56,56,0,0,0,203,82.2a42.45,42.45,0,0,0-1.33,9,24.28,24.28,0,0,0,1.38,9.39,16.82,16.82,0,0,0,2.24,4.14c7.92,10.72,19.68,17.41,37,21.06A136.91,136.91,0,0,0,256,127.88a20.63,20.63,0,0,0,2.58.18c2.66,0,4.39-.74,5.17-2.19,1-2,0-4.61-1.16-6.5,2.74.57,7.38,1.54,9.4,1.89a5.79,5.79,0,0,0,1.08.1,5.09,5.09,0,0,0,3.93-1.78,9.29,9.29,0,0,0,2-5.17c.09-.84-.2-2.74-3.77-9.5-2.19-4.14-5.34-9.57-8.87-15.28-3.34-5.4-6.75-10.62-9.6-14.71-4.76-6.82-5.81-7.39-6.16-7.58a22.59,22.59,0,0,1-2.66-2l-1.14-.92c-3.67-2.92-8.09-5.91-13.06-5.91Z"/><g class="cls-4"><path class="cls-5" d="M241.4,89a7.39,7.39,0,0,0,0,8.53c3,4.83,19.28,20.57,19.28,20.57v-2Z"/></g><path class="cls-2" d="M261.75,118.23c-2.67-6.41-17.6-26-20.35-29.28s0-7.81,0-7.81"/><path class="cls-3" d="M261.34,118.4c-2.6-6.23-17.15-25.38-20.28-29.17a6.22,6.22,0,0,1-1.12-5.53A10,10,0,0,1,241,80.9l.76.47a9.1,9.1,0,0,0-1,2.55,5.29,5.29,0,0,0,.94,4.74c2.26,2.73,17.66,22.78,20.42,29.39Z"/><path class="cls-7" d="M256.14,127c-5-.53-5.51-.5-8.53-1-12.27-4.8-19.73-24-19.73-24,9.75,10.05,28,15.41,33.3,16.79C262.77,121.09,266.93,128.39,256.14,127Z"/><path class="cls-5" d="M240.33,110.82s-6.32,14.85-5.92,20.6c.09.28,11.78,2.36,13.91,2.36.36.36-1.87-2.72,4.22-18C247.48,113.54,240.33,110.82,240.33,110.82Z"/><path class="cls-3" d="M248.36,134.16a.36.36,0,0,1-.14,0c-1.25,0-4.76-.58-7.68-1.08-1.63-.29-3.15-.57-4.29-.81-2.08-.42-2.11-.5-2.18-.73v-.08c-.17-2.43.78-6.67,2.83-12.59,1.51-4.4,3.1-8.14,3.12-8.17l.13-.32.32.12c.07,0,7.21,2.76,12.23,5l.31.14-.13.32c-1.54,3.87-5,13.34-4.18,17.68a.42.42,0,0,1-.16.51A.32.32,0,0,1,248.36,134.16Zm-13.61-3a130.53,130.53,0,0,0,13.19,2.23c-.29-2.07,0-6.9,4.15-17.43-4.36-1.92-10.15-4.16-11.56-4.71C239.63,113.42,234.55,125.92,234.75,131.18Z"/><path class="cls-2" d="M207.08,73.16s9.51,34.05,54.67,45.07"/><path class="cls-3" d="M261.64,118.66a89,89,0,0,1-27.73-11.75,73,73,0,0,1-16.78-15.07c-8-9.85-10.46-18.48-10.48-18.56l.85-.24c0,.08,2.46,8.57,10.35,18.28a72.17,72.17,0,0,0,16.57,14.86,87.72,87.72,0,0,0,27.43,11.61Z"/><g class="cls-4"><path class="cls-5" d="M246.24,65.13c-6.6-.52-19.84.78-38.11,14-2.31,10.18-3.26,9.39-4.24,21.07-4.31-11.4,3.19-27.07,3.19-27.07a14.08,14.08,0,0,0,4.07-1.43c2.21-1.16,7.39-5.42,17-10.81C235.15,57,241.82,61.62,246.24,65.13Z"/></g><circle class="cls-8" cx="220.66" cy="81.17" r="1.04"/><circle class="cls-8" cx="232.87" cy="81.17" r="1.04"/><path class="cls-8" d="M226.34,83.8a5,5,0,0,1-3-.93.53.53,0,0,1-.08-.75A.52.52,0,0,1,224,82a4.07,4.07,0,0,0,2.3.69,4.28,4.28,0,0,0,2.36-.7.53.53,0,0,1,.64.85A5.23,5.23,0,0,1,226.34,83.8Z"/><circle class="cls-8" cx="160.99" cy="85.33" r="0.94"/><circle class="cls-8" cx="171.98" cy="85.33" r="0.94"/><path class="cls-8" d="M166.11,87.75a4.49,4.49,0,0,1-2.7-.85.54.54,0,0,1-.09-.75.55.55,0,0,1,.75-.08,3.63,3.63,0,0,0,2,.61,3.69,3.69,0,0,0,2.08-.62.54.54,0,0,1,.75.11.53.53,0,0,1-.1.74A4.77,4.77,0,0,1,166.11,87.75Z"/><rect class="cls-9" width="300" height="165"/></svg>