<svg xmlns="http://www.w3.org/2000/svg" xmlns:xlink="http://www.w3.org/1999/xlink" viewBox="0 0 300 165.5"><defs><style>.cls-1{isolation:isolate;}.cls-2{fill:#fce5cd;}.cls-3{fill:#f2cead;}.cls-4{fill:#5e583b;}.cls-5{fill:#009245;}.cls-6{fill:#97ddb7;}.cls-7{fill:#f7b93c;}.cls-8{fill:#f7d497;}.cls-9{fill:#c1272d;}.cls-10{fill:#ef6771;}.cls-11{opacity:0.52;}.cls-11,.cls-13,.cls-16{mix-blend-mode:soft-light;}.cls-12{fill:#ffe8d9;}.cls-13{opacity:0.49;}.cls-14{fill:#fff;}.cls-15{fill:#405629;}.cls-17{fill:url(#linear-gradient);}</style><linearGradient id="linear-gradient" x1="150.37" y1="168.62" x2="149.66" y2="2.17" gradientUnits="userSpaceOnUse"><stop offset="0.03" stop-color="#591c16"/><stop offset="0.22" stop-color="#5f241d" stop-opacity="0.96"/><stop offset="0.38" stop-color="#733c33" stop-opacity="0.84"/><stop offset="0.53" stop-color="#936459" stop-opacity="0.64"/><stop offset="0.68" stop-color="#c09d8d" stop-opacity="0.36"/><stop offset="0.82" stop-color="#fae5cf" stop-opacity="0"/></linearGradient></defs><g class="cls-1"><g id="Layer_1" data-name="Layer 1"><rect class="cls-2" y="0.25" width="300" height="165"/><ellipse class="cls-3" cx="205.39" cy="65.54" rx="72.86" ry="16.65"/><path class="cls-4" d="M133.67,69.91a9.75,9.75,0,0,1-1.48-2.29,8.92,8.92,0,0,1-.49-1.28,4.8,4.8,0,0,1-.15-.7,2.33,2.33,0,0,1,0-.38c0-.12,0-.24,0-.36a5.36,5.36,0,0,1,1-2.64,10.16,10.16,0,0,1,1.89-2A23.19,23.19,0,0,1,139,57.49a50.35,50.35,0,0,1,4.89-2A94.67,94.67,0,0,1,154,52.59c3.42-.78,6.86-1.43,10.31-2,6.91-1.09,13.88-1.83,20.85-2.32s14-.72,21-.74,14,.21,21,.68,13.94,1.2,20.87,2.3c3.46.55,6.91,1.2,10.33,2a87.16,87.16,0,0,1,10.16,2.95,44.21,44.21,0,0,1,4.91,2.14,18.74,18.74,0,0,1,4.53,3.15,7.94,7.94,0,0,1,1.72,2.44,5.35,5.35,0,0,1,.41,1.56c0,.13,0,.27,0,.41s0,.28,0,.4-.05.5-.09.73a10.7,10.7,0,0,1-.78,2.7,7.5,7.5,0,0,1-.71,1.26,4,4,0,0,1-1.09,1.07l-.73-.82a7.13,7.13,0,0,0,.86-2.11,17.49,17.49,0,0,0,.44-2.38c0-.19,0-.39.05-.57a2.26,2.26,0,0,0,0-.25c0-.08,0-.16,0-.24a3.68,3.68,0,0,0-.25-1,6,6,0,0,0-1.28-1.81,17,17,0,0,0-4-2.8,40.73,40.73,0,0,0-4.67-2,85.34,85.34,0,0,0-9.9-2.92c-3.37-.8-6.77-1.45-10.2-2-6.85-1.12-13.76-1.87-20.69-2.37s-13.89-.74-20.84-.79-13.92.14-20.86.56-13.87,1.1-20.74,2.13c-3.44.52-6.86,1.11-10.25,1.85a93.36,93.36,0,0,0-10,2.72,47.47,47.47,0,0,0-4.8,1.91A21.86,21.86,0,0,0,135,61a8.79,8.79,0,0,0-1.74,1.76A4.41,4.41,0,0,0,132.4,65a2.71,2.71,0,0,0,0,.29,1.27,1.27,0,0,0,0,.27,3.15,3.15,0,0,0,.12.58,7.34,7.34,0,0,0,.42,1.16,8.9,8.9,0,0,0,1.31,2.11Z"/><ellipse class="cls-5" cx="263.03" cy="67.41" rx="8.18" ry="13.05" transform="translate(108.53 290.7) rotate(-69.69)"/><ellipse class="cls-6" cx="263.03" cy="67.41" rx="7.55" ry="12.04" transform="translate(108.53 290.7) rotate(-69.69)"/><ellipse class="cls-7" cx="209.82" cy="57.93" rx="6.52" ry="13.67" transform="translate(145.66 265.93) rotate(-88.29)"/><ellipse class="cls-8" cx="209.82" cy="57.93" rx="6.01" ry="12.61" transform="translate(145.66 265.93) rotate(-88.29)"/><ellipse class="cls-7" cx="258.12" cy="65.32" rx="7.03" ry="13.67" transform="translate(147.18 307.36) rotate(-79.58)"/><ellipse class="cls-8" cx="258.12" cy="65.32" rx="6.49" ry="12.61" transform="translate(147.18 307.36) rotate(-79.58)"/><ellipse class="cls-9" cx="251.82" cy="63.44" rx="7.56" ry="13" transform="translate(115.91 284.72) rotate(-72.58)"/><ellipse class="cls-10" cx="251.82" cy="63.44" rx="6.98" ry="11.99" transform="translate(115.91 284.72) rotate(-72.58)"/><ellipse class="cls-5" cx="246" cy="63.13" rx="7.7" ry="12.99" transform="translate(118.51 282.78) rotate(-74.26)"/><ellipse class="cls-6" cx="246" cy="63.13" rx="7.11" ry="11.99" transform="translate(118.51 282.78) rotate(-74.26)"/><ellipse class="cls-7" cx="242.19" cy="60.63" rx="6.52" ry="13.67" transform="translate(138.88 287.91) rotate(-79.61)"/><ellipse class="cls-8" cx="242.19" cy="60.63" rx="6.01" ry="12.61" transform="translate(138.88 287.91) rotate(-79.61)"/><ellipse class="cls-9" cx="236.15" cy="60.23" rx="7.14" ry="12.23" transform="translate(147.99 287.43) rotate(-83.1)"/><ellipse class="cls-10" cx="236.15" cy="60.23" rx="6.59" ry="11.29" transform="translate(147.99 287.43) rotate(-83.1)"/><ellipse class="cls-7" cx="229.57" cy="59.48" rx="6.52" ry="13.66" transform="translate(149.08 282.55) rotate(-84.68)"/><ellipse class="cls-8" cx="229.57" cy="59.48" rx="6.02" ry="12.6" transform="translate(149.08 282.55) rotate(-84.68)"/><ellipse class="cls-5" cx="222.36" cy="58.68" rx="6.65" ry="11.39" transform="translate(145.58 275.45) rotate(-85.28)"/><ellipse class="cls-6" cx="222.36" cy="58.68" rx="6.13" ry="10.51" transform="translate(145.58 275.45) rotate(-85.28)"/><ellipse class="cls-9" cx="216.63" cy="57.93" rx="6.56" ry="13.66" transform="translate(140.7 268.93) rotate(-85.18)"/><ellipse class="cls-10" cx="216.63" cy="57.93" rx="6.05" ry="12.61" transform="translate(140.7 268.93) rotate(-85.18)"/><ellipse class="cls-7" cx="208.71" cy="58.21" rx="13.67" ry="6.52"/><ellipse class="cls-8" cx="208.71" cy="58.21" rx="12.61" ry="6.01"/><ellipse class="cls-9" cx="199.38" cy="58.21" rx="13.66" ry="6.56" transform="translate(-2.85 10.84) rotate(-3.09)"/><ellipse class="cls-10" cx="199.38" cy="58.21" rx="12.6" ry="6.05" transform="translate(-2.85 10.84) rotate(-3.09)"/><ellipse class="cls-5" cx="196.16" cy="58.58" rx="11.39" ry="6.65" transform="translate(-2.77 10.25) rotate(-2.97)"/><ellipse class="cls-6" cx="196.16" cy="58.58" rx="10.51" ry="6.13" transform="translate(-2.77 10.25) rotate(-2.97)"/><ellipse class="cls-7" cx="188.93" cy="59.17" rx="13.66" ry="6.52" transform="translate(-3.33 11.94) rotate(-3.59)"/><ellipse class="cls-8" cx="188.93" cy="59.17" rx="12.6" ry="6.02" transform="matrix(1, -0.06, 0.06, 1, -3.33, 11.94)"/><ellipse class="cls-9" cx="182.32" cy="59.72" rx="12.23" ry="7.14" transform="translate(-4.63 16.62) rotate(-5.15)"/><ellipse class="cls-10" cx="182.32" cy="59.72" rx="11.29" ry="6.59" transform="translate(-4.63 16.62) rotate(-5.15)"/><ellipse class="cls-7" cx="176.28" cy="59.95" rx="13.67" ry="6.52" transform="translate(-7.02 27.24) rotate(-8.67)"/><ellipse class="cls-8" cx="176.28" cy="59.95" rx="12.61" ry="6.01" transform="translate(-7.02 27.24) rotate(-8.67)"/><ellipse class="cls-5" cx="172.4" cy="62.33" rx="12.99" ry="7.71" transform="translate(-9.96 43.56) rotate(-14)"/><ellipse class="cls-6" cx="172.4" cy="62.33" rx="11.98" ry="7.11" transform="translate(-9.96 43.56) rotate(-14)"/><ellipse class="cls-9" cx="166.68" cy="62.18" rx="12.99" ry="7.88" transform="translate(-10.59 47.29) rotate(-15.66)"/><ellipse class="cls-10" cx="166.68" cy="62.18" rx="11.98" ry="7.27" transform="translate(-10.59 47.29) rotate(-15.66)"/><ellipse class="cls-7" cx="160.25" cy="63.14" rx="13.67" ry="8.07" transform="translate(-7.43 23.78) rotate(-8.29)"/><ellipse class="cls-8" cx="160.25" cy="63.14" rx="12.61" ry="7.45" transform="translate(-7.43 23.78) rotate(-8.29)"/><ellipse class="cls-5" cx="154.05" cy="65.22" rx="12.99" ry="8.9" transform="translate(-11.28 39.69) rotate(-14.17)"/><ellipse class="cls-6" cx="154.05" cy="65.22" rx="11.98" ry="8.21" transform="translate(-11.28 39.69) rotate(-14.17)"/><ellipse class="cls-9" cx="147.25" cy="67.41" rx="12.99" ry="9.08" transform="translate(-13.24 45.69) rotate(-16.89)"/><ellipse class="cls-10" cx="147.25" cy="67.41" rx="11.99" ry="8.38" transform="translate(-13.24 45.69) rotate(-16.89)"/><ellipse class="cls-7" cx="189.71" cy="67.76" rx="11.44" ry="5.42" transform="translate(-8.96 34.42) rotate(-10.13)"/><ellipse class="cls-8" cx="189.71" cy="67.76" rx="10.56" ry="5" transform="translate(-8.96 34.42) rotate(-10.13)"/><ellipse class="cls-5" cx="179.35" cy="69.59" rx="9.55" ry="5.52" transform="translate(-11.27 43.65) rotate(-13.46)"/><ellipse class="cls-6" cx="179.35" cy="69.59" rx="8.81" ry="5.09" transform="translate(-11.27 43.65) rotate(-13.46)"/><ellipse class="cls-9" cx="184.06" cy="68.55" rx="11.46" ry="5.45" transform="translate(-10.79 43.87) rotate(-13.21)"/><ellipse class="cls-10" cx="184.06" cy="68.55" rx="10.57" ry="5.03" transform="translate(-10.79 43.87) rotate(-13.21)"/><ellipse class="cls-7" cx="190.65" cy="67.87" rx="11.43" ry="5.43" transform="translate(-7.91 28.77) rotate(-8.46)"/><ellipse class="cls-8" cx="190.65" cy="67.87" rx="10.55" ry="5.01" transform="matrix(0.99, -0.15, 0.15, 0.99, -7.91, 28.77)"/><ellipse class="cls-9" cx="198.38" cy="66.78" rx="5.48" ry="11.4" transform="translate(129.96 264.61) rotate(-89.53)"/><ellipse class="cls-10" cx="198.38" cy="66.78" rx="5.05" ry="10.52" transform="translate(129.96 264.61) rotate(-89.53)"/><ellipse class="cls-5" cx="201.08" cy="66.72" rx="9.5" ry="5.55" transform="translate(-1.73 5.47) rotate(-1.55)"/><ellipse class="cls-6" cx="201.08" cy="66.72" rx="8.77" ry="5.12" transform="translate(-1.73 5.47) rotate(-1.55)"/><ellipse class="cls-7" cx="207.12" cy="66.37" rx="11.4" ry="5.45" transform="translate(-0.83 2.64) rotate(-0.73)"/><ellipse class="cls-8" cx="207.12" cy="66.37" rx="10.51" ry="5.02" transform="translate(-0.83 2.64) rotate(-0.73)"/><ellipse class="cls-9" cx="212.64" cy="66.07" rx="5.95" ry="10.22" transform="translate(119.88 268.5) rotate(-82.64)"/><ellipse class="cls-10" cx="212.64" cy="66.07" rx="5.49" ry="9.43" transform="translate(119.88 268.5) rotate(-82.64)"/><ellipse class="cls-7" cx="218.16" cy="66.07" rx="5.45" ry="11.39" transform="translate(133.03 277.52) rotate(-84.92)"/><ellipse class="cls-8" cx="218.16" cy="66.07" rx="5.03" ry="10.51" transform="translate(133.03 277.52) rotate(-84.92)"/><ellipse class="cls-7" cx="225.76" cy="72.56" rx="11.44" ry="5.42" transform="translate(-9.24 40.84) rotate(-10.13)"/><ellipse class="cls-8" cx="225.76" cy="72.56" rx="10.56" ry="5" transform="translate(-9.24 40.84) rotate(-10.13)"/><ellipse class="cls-5" cx="236.12" cy="70.74" rx="9.55" ry="5.52" transform="translate(-9.98 56.89) rotate(-13.46)"/><ellipse class="cls-6" cx="236.12" cy="70.74" rx="8.81" ry="5.09" transform="translate(-9.98 56.89) rotate(-13.46)"/><ellipse class="cls-9" cx="231.4" cy="71.78" rx="11.46" ry="5.45" transform="translate(-10.28 54.78) rotate(-13.21)"/><ellipse class="cls-10" cx="231.4" cy="71.78" rx="10.57" ry="5.03" transform="translate(-10.28 54.78) rotate(-13.21)"/><ellipse class="cls-7" cx="224.82" cy="72.46" rx="11.43" ry="5.43" transform="translate(-8.21 33.85) rotate(-8.46)"/><ellipse class="cls-8" cx="224.82" cy="72.46" rx="10.55" ry="5.01" transform="translate(-8.21 33.85) rotate(-8.46)"/><ellipse class="cls-9" cx="217.08" cy="73.54" rx="5.48" ry="11.4" transform="matrix(0.01, -1, 1, 0.01, 141.75, 290.01)"/><ellipse class="cls-10" cx="217.08" cy="73.54" rx="5.05" ry="10.52" transform="translate(141.75 290.01) rotate(-89.53)"/><ellipse class="cls-5" cx="214.38" cy="73.6" rx="9.5" ry="5.55" transform="translate(-1.91 5.83) rotate(-1.55)"/><ellipse class="cls-6" cx="214.38" cy="73.6" rx="8.77" ry="5.12" transform="translate(-1.91 5.83) rotate(-1.55)"/><ellipse class="cls-7" cx="208.34" cy="73.95" rx="11.4" ry="5.45" transform="translate(-0.92 2.66) rotate(-0.73)"/><ellipse class="cls-8" cx="208.34" cy="73.95" rx="10.51" ry="5.02" transform="translate(-0.92 2.66) rotate(-0.73)"/><ellipse class="cls-9" cx="202.82" cy="74.26" rx="5.95" ry="10.22" transform="translate(103.19 265.89) rotate(-82.64)"/><ellipse class="cls-10" cx="202.82" cy="74.26" rx="5.49" ry="9.43" transform="matrix(0.13, -0.99, 0.99, 0.13, 103.19, 265.89)"/><ellipse class="cls-7" cx="197.3" cy="74.26" rx="5.45" ry="11.39" transform="translate(105.87 264.21) rotate(-84.92)"/><ellipse class="cls-8" cx="197.3" cy="74.26" rx="5.03" ry="10.51" transform="translate(105.87 264.21) rotate(-84.92)"/><ellipse class="cls-7" cx="200.25" cy="82.02" rx="6.51" ry="13.67" transform="matrix(0.07, -1, 1, 0.07, 103.56, 275.61)"/><ellipse class="cls-8" cx="200.25" cy="82.02" rx="6.01" ry="12.62" transform="translate(103.56 275.61) rotate(-85.73)"/><ellipse class="cls-5" cx="147.39" cy="70.3" rx="8.15" ry="13.09" transform="translate(25.3 178.75) rotate(-67.11)"/><ellipse class="cls-6" cx="147.39" cy="70.3" rx="7.52" ry="12.08" transform="translate(25.3 178.75) rotate(-67.11)"/><ellipse class="cls-7" cx="152.4" cy="72.61" rx="7.02" ry="13.7" transform="translate(47.41 204.81) rotate(-77.02)"/><ellipse class="cls-8" cx="152.4" cy="72.61" rx="6.48" ry="12.64" transform="translate(47.41 204.81) rotate(-77.02)"/><ellipse class="cls-7" cx="168" cy="77.96" rx="6.5" ry="13.69" transform="translate(54.45 224.28) rotate(-77.08)"/><ellipse class="cls-8" cx="168" cy="77.96" rx="6" ry="12.64" transform="translate(54.45 224.28) rotate(-77.08)"/><ellipse class="cls-9" cx="158.64" cy="74.76" rx="7.54" ry="13.03" transform="translate(34.17 198.29) rotate(-70.02)"/><ellipse class="cls-10" cx="158.64" cy="74.76" rx="6.96" ry="12.02" transform="translate(34.17 198.29) rotate(-70.02)"/><ellipse class="cls-5" cx="164.27" cy="75.31" rx="7.68" ry="13.03" transform="translate(41.11 207.54) rotate(-71.66)"/><ellipse class="cls-6" cx="164.27" cy="75.31" rx="7.09" ry="12.02" transform="translate(41.11 207.54) rotate(-71.66)"/><ellipse class="cls-9" cx="174.01" cy="78.62" rx="7.13" ry="12.25" transform="matrix(0.17, -0.99, 0.99, 0.17, 67.59, 237.16)"/><ellipse class="cls-10" cx="174.01" cy="78.62" rx="6.58" ry="11.3" transform="translate(67.59 237.16) rotate(-80.44)"/><ellipse class="cls-7" cx="180.57" cy="79.65" rx="6.51" ry="13.67" transform="translate(76.96 247.61) rotate(-82.13)"/><ellipse class="cls-8" cx="180.57" cy="79.65" rx="6.01" ry="12.62" transform="translate(76.96 247.61) rotate(-82.13)"/><ellipse class="cls-5" cx="187.75" cy="80.75" rx="6.64" ry="11.4" transform="translate(83.53 256.55) rotate(-82.61)"/><ellipse class="cls-6" cx="187.75" cy="80.75" rx="6.13" ry="10.52" transform="translate(83.53 256.55) rotate(-82.61)"/><ellipse class="cls-9" cx="193.44" cy="81.73" rx="6.55" ry="13.68" transform="translate(87.56 263.08) rotate(-82.62)"/><ellipse class="cls-10" cx="193.44" cy="81.73" rx="6.05" ry="12.62" transform="matrix(0.13, -0.99, 0.99, 0.13, 87.56, 263.08)"/><ellipse class="cls-7" cx="201.37" cy="81.78" rx="6.52" ry="13.67" transform="translate(110.6 279.26) rotate(-87.42)"/><ellipse class="cls-8" cx="201.37" cy="81.78" rx="6.01" ry="12.61" transform="translate(110.6 279.26) rotate(-87.42)"/><ellipse class="cls-9" cx="210.7" cy="82.18" rx="13.66" ry="6.56" transform="matrix(1, -0.01, 0.01, 1, -0.75, 1.94)"/><ellipse class="cls-10" cx="210.7" cy="82.18" rx="12.6" ry="6.06" transform="translate(-0.75 1.94) rotate(-0.53)"/><ellipse class="cls-5" cx="213.93" cy="81.94" rx="11.38" ry="6.65" transform="translate(-0.42 1.1) rotate(-0.29)"/><ellipse class="cls-6" cx="213.93" cy="81.94" rx="10.5" ry="6.14" transform="translate(-0.42 1.1) rotate(-0.29)"/><ellipse class="cls-7" cx="221.17" cy="81.66" rx="13.65" ry="6.52" transform="translate(-1.43 3.97) rotate(-1.03)"/><ellipse class="cls-8" cx="221.17" cy="81.66" rx="12.6" ry="6.02" transform="translate(-1.43 3.97) rotate(-1.03)"/><ellipse class="cls-9" cx="227.79" cy="81.38" rx="12.22" ry="7.14" transform="matrix(1, -0.04, 0.04, 1, -3.31, 9.93)"/><ellipse class="cls-10" cx="227.79" cy="81.38" rx="11.28" ry="6.59" transform="translate(-3.31 9.93) rotate(-2.48)"/><ellipse class="cls-7" cx="233.83" cy="81.41" rx="13.65" ry="6.53" transform="translate(-7.34 25.37) rotate(-6.12)"/><ellipse class="cls-8" cx="233.83" cy="81.41" rx="12.59" ry="6.02" transform="translate(-7.34 25.37) rotate(-6.12)"/><ellipse class="cls-5" cx="237.79" cy="79.19" rx="12.96" ry="7.72" transform="translate(-10.94 48.39) rotate(-11.36)"/><ellipse class="cls-6" cx="237.79" cy="79.19" rx="11.96" ry="7.12" transform="translate(-10.94 48.39) rotate(-11.36)"/><ellipse class="cls-9" cx="243.5" cy="79.59" rx="12.96" ry="7.89" transform="translate(-11.67 56.87) rotate(-13.01)"/><ellipse class="cls-10" cx="243.5" cy="79.59" rx="11.96" ry="7.28" transform="translate(-11.67 56.87) rotate(-13.01)"/><ellipse class="cls-7" cx="249.96" cy="78.9" rx="13.65" ry="8.08" transform="translate(-6.53 24.86) rotate(-5.62)"/><ellipse class="cls-8" cx="249.96" cy="78.9" rx="12.6" ry="7.45" transform="translate(-6.53 24.86) rotate(-5.62)"/><ellipse class="cls-5" cx="256.55" cy="79.59" rx="12.96" ry="8.92" transform="translate(-10.65 52.12) rotate(-11.37)"/><ellipse class="cls-6" cx="256.55" cy="79.59" rx="11.96" ry="8.23" transform="translate(-10.65 52.12) rotate(-11.37)"/><ellipse class="cls-9" cx="264.06" cy="78.62" rx="11.63" ry="7.84" transform="translate(-11.2 66.87) rotate(-14.14)"/><ellipse class="cls-10" cx="264.06" cy="78.62" rx="10.73" ry="7.23" transform="translate(-11.2 66.87) rotate(-14.14)"/><rect class="cls-4" x="183.41" y="110.63" width="46.27" height="7.33" rx="2.45"/><path class="cls-4" d="M279,65.24c0,27.59-32.91,50-73.51,50S132,92.83,132,65.24c0,9.31,32.91,16.85,73.51,16.85S279,74.55,279,65.24Z"/><g class="cls-11"><path d="M183.37,112.75A210.24,210.24,0,0,0,205.28,114a212,212,0,0,0,24.16-1.72S208.89,120.85,183.37,112.75Z"/></g><ellipse class="cls-12" cx="189.81" cy="95.18" rx="2.13" ry="2.27"/><ellipse class="cls-12" cx="221.12" cy="95.18" rx="2.13" ry="2.27"/><path class="cls-12" d="M205.64,100.36a9.38,9.38,0,0,1-5.78-1.91.62.62,0,0,1-.07-.87.61.61,0,0,1,.86-.07,8.34,8.34,0,0,0,5,1.62,8.7,8.7,0,0,0,5.1-1.63.62.62,0,0,1,.77,1A9.86,9.86,0,0,1,205.64,100.36Z"/><g class="cls-13"><path class="cls-14" d="M132.53,67.4s13.26,21.35,112.86,12.34C245.55,79.72,146.36,97.36,132.53,67.4Z"/></g><path class="cls-15" d="M232.09,62a10.81,10.81,0,0,1-1.28,1.52h0c-4.88,4.89-12,2.81-12,2.81l-37,7.31.23-.79,36.48-7.35C220.42,62.89,223.45,61.45,232.09,62Z"/><g class="cls-16"><path class="cls-14" d="M232.09,62a10.81,10.81,0,0,1-1.28,1.52c-.49-2.09-11.12.64-11.12.64h0C221.24,62.93,224.7,61.35,232.09,62Z"/></g><g class="cls-16"><polygon class="cls-14" points="181.99 73.11 218.74 65.93 218.54 65.52 182.06 72.87 181.99 73.11"/></g><rect class="cls-17" y="0.25" width="300" height="165"/></g></g></svg>