<svg xmlns="http://www.w3.org/2000/svg" xmlns:xlink="http://www.w3.org/1999/xlink" viewBox="0 0 300 165.5"><defs><style>.cls-1{isolation:isolate;}.cls-2{fill:#fce5cd;}.cls-3{fill:#f2cead;}.cls-4{fill:#96b3cc;}.cls-5{fill:#ffc98f;}.cls-6{opacity:0.44;}.cls-10,.cls-6,.cls-8{mix-blend-mode:soft-light;}.cls-7{fill:#f15763;}.cls-8{opacity:0.52;}.cls-9{fill:#ffe8d9;}.cls-10{opacity:0.49;}.cls-11{fill:#fff;}.cls-12{fill:url(#linear-gradient);}</style><linearGradient id="linear-gradient" x1="150.37" y1="168.62" x2="149.66" y2="2.17" gradientUnits="userSpaceOnUse"><stop offset="0.03" stop-color="#591c16"/><stop offset="0.22" stop-color="#5f241d" stop-opacity="0.96"/><stop offset="0.38" stop-color="#733c33" stop-opacity="0.84"/><stop offset="0.53" stop-color="#936459" stop-opacity="0.64"/><stop offset="0.68" stop-color="#c09d8d" stop-opacity="0.36"/><stop offset="0.82" stop-color="#fae5cf" stop-opacity="0"/></linearGradient></defs><g class="cls-1"><g id="Layer_1" data-name="Layer 1"><rect class="cls-2" y="0.25" width="300" height="165"/><ellipse class="cls-3" cx="224.07" cy="102.69" rx="51.69" ry="10.46"/><path class="cls-4" d="M173.21,105.47a6,6,0,0,1-1.11-1.55,4,4,0,0,1-.36-.91,2.81,2.81,0,0,1-.08-.53,2.84,2.84,0,0,1,.06-.51,3.6,3.6,0,0,1,1-1.72,8,8,0,0,1,1.47-1.2,19.43,19.43,0,0,1,3.31-1.68c1.14-.46,2.31-.85,3.48-1.21,2.35-.71,4.73-1.26,7.13-1.74s4.81-.88,7.22-1.22c4.84-.67,9.7-1.12,14.57-1.42s9.75-.44,14.63-.46,9.76.12,14.63.4,9.74.73,14.58,1.39c2.43.34,4.84.73,7.25,1.21a71.73,71.73,0,0,1,7.15,1.77,34.84,34.84,0,0,1,3.5,1.26c.57.25,1.14.52,1.7.82a12.52,12.52,0,0,1,1.64,1,6.06,6.06,0,0,1,1.44,1.46,3.42,3.42,0,0,1,.48,1,2.36,2.36,0,0,1,.11.59c0,.1,0,.2,0,.31s0,.19,0,.28a6.2,6.2,0,0,1-.2,1,6.12,6.12,0,0,1-.35.93,4.68,4.68,0,0,1-.53.88,2.7,2.7,0,0,1-.82.71l-.47-.61a4.58,4.58,0,0,0,.62-1.44,9.14,9.14,0,0,0,.31-1.61,1.09,1.09,0,0,0,0-.18v-.15a1.59,1.59,0,0,0-.06-.3,2,2,0,0,0-.29-.62,4.71,4.71,0,0,0-1.11-1.12,14.85,14.85,0,0,0-3-1.69,35.44,35.44,0,0,0-3.36-1.23,71.87,71.87,0,0,0-7-1.77c-2.36-.48-4.75-.87-7.15-1.21a219.9,219.9,0,0,0-29-1.92q-7.29,0-14.57.33c-4.84.26-9.69.67-14.5,1.29-2.4.31-4.8.67-7.19,1.12s-4.75,1-7.07,1.64c-1.16.33-2.31.71-3.43,1.14a19.48,19.48,0,0,0-3.21,1.57,7.68,7.68,0,0,0-1.37,1.08,3,3,0,0,0-.84,1.4,1.74,1.74,0,0,0-.05.39,1.64,1.64,0,0,0,.05.37,3.46,3.46,0,0,0,.3.79,5.64,5.64,0,0,0,1,1.43Z"/><path class="cls-5" d="M268.76,112.51c-4.44,13.8-70,19.17-85.9,1.88a14.8,14.8,0,0,1-4.2-8.7A13.6,13.6,0,0,1,180,99a22,22,0,0,1,10.41-10.24c10.05-4.84,18.41.2,25.78-5.64,3.12-2.47,2.57-4.12,6.23-6.59.68-.45,8.32-5.34,16.23-3.76,9.59,1.92,11.9,11.82,21.87,17.28a15.44,15.44,0,0,1,3.62,2.59c1.69,1.65,3,3.75,3.92,8C268.22,101.43,269.89,109,268.76,112.51Z"/><g class="cls-6"><path d="M268.76,112.51c-4.44,13.8-70,19.17-85.9,1.88a14.8,14.8,0,0,1-4.2-8.7A13.6,13.6,0,0,1,180,99s42,21.26,88.06,1.63C268.22,101.43,269.89,109,268.76,112.51Z"/></g><path class="cls-7" d="M219.56,110.92c0,2.55-.65,4.78-1.83,6.08-2.89,3.2-13.25-.16-17.11-6a23.52,23.52,0,0,1-3.44-15h0a18,18,0,0,1,.28-1.93s-29.23-36.35-31.78-41.56,2.81-4.72,4.41-3.27,29.78,42.69,29.78,42.69,10.35-.37,16.22,7.61A19.38,19.38,0,0,1,219.56,110.92Z"/><path class="cls-7" d="M253.22,77.77a8.85,8.85,0,0,1-.18,4.52c-1.44,5-8.65,25.94-9.37,26.67s-1.8,0-1.44-.73c.48-1,3.52-11.53,5.5-18.68,1-3.58,1.71-6.3,1.71-6.54,0-.72-.73-.72-1.45-.72-.39,0-2.91,6.88-5.31,13.33-2,5.42-3.94,10.53-4.43,11-1.07.93-1.07.21-1.07-.51,0-.28,1.25-4.07,2.75-8.59,2.29-6.89,5.18-15.48,5.18-15.92,0-.72-.72-1.44-1.44-.72-.52.52-5.44,11.33-8.48,17.73-1.22,2.56-2.13,4.41-2.33,4.62-.49.48-1.44.72-1.44,0,0-.21.72-2.23,1.78-5,2.62-6.92,7.28-18.65,8.31-20.19,1.44-2.16,5-5,7.2-4.32,0,0,15.14-42.53,17.3-44s3.61-1.44,3.61,1.44-18.13,43.41-18.13,43.41A6.73,6.73,0,0,1,253.22,77.77Z"/><g class="cls-6"><path d="M219.56,110.92c0,2.55-.65,4.78-1.83,6.08-2.89,3.2-13.25-.16-17.11-6a23.52,23.52,0,0,1-3.44-15C197.21,96.83,202,115.76,219.56,110.92Z"/></g><rect class="cls-4" x="210.07" y="132.18" width="32.82" height="4.6" rx="1.73"/><path class="cls-4" d="M276.28,102.51c0,17.32-23.35,31.37-52.16,31.37S172,119.83,172,102.51c0,5.84,23.35,10.58,52.15,10.58S276.28,108.35,276.28,102.51Z"/><g class="cls-8"><path d="M210.05,133.51s7.46.78,15.54.78a169.62,169.62,0,0,0,17.14-1.08A57.6,57.6,0,0,1,210.05,133.51Z"/></g><circle class="cls-9" cx="215.22" cy="122.47" r="1.43"/><circle class="cls-9" cx="236.15" cy="122.47" r="1.43"/><path class="cls-9" d="M225.81,125.77a6.54,6.54,0,0,1-3.87-1.2.43.43,0,1,1,.54-.68,5.75,5.75,0,0,0,3.33,1,6,6,0,0,0,3.4-1,.44.44,0,0,1,.61.09.43.43,0,0,1-.08.61A7,7,0,0,1,225.81,125.77Z"/><g class="cls-10"><path class="cls-11" d="M172.38,103.86s9.41,13.41,80.07,7.75C252.56,111.6,182.2,122.69,172.38,103.86Z"/></g><g class="cls-6"><path d="M233.2,98.15a5.81,5.81,0,0,0,2,.42c-1.22,2.56-2.13,4.41-2.33,4.62-.49.48-1.44.72-1.44,0C231.42,103,232.14,101,233.2,98.15Z"/></g><g class="cls-6"><path d="M242.68,95.62c-2,5.42-3.94,10.53-4.43,11-1.07.93-1.07.21-1.07-.51,0-.28,1.25-4.07,2.75-8.59A14.65,14.65,0,0,0,242.68,95.62Z"/></g><g class="cls-6"><path d="M253,82.29c-1.44,5-8.65,25.94-9.37,26.67s-1.8,0-1.44-.73c.48-1,3.52-11.53,5.5-18.68a61,61,0,0,0,5.49-11.78A8.85,8.85,0,0,1,253,82.29Z"/></g><rect class="cls-12" y="0.25" width="300" height="165"/></g></g></svg>