<svg xmlns="http://www.w3.org/2000/svg" xmlns:xlink="http://www.w3.org/1999/xlink" viewBox="0 0 300 165.5"><defs><style>.cls-1{isolation:isolate;}.cls-2{fill:#fce5cd;}.cls-3{fill:#edc094;}.cls-4{fill:#f15763;}.cls-5{fill:#a3a3a3;}.cls-6{opacity:0.44;}.cls-6,.cls-7,.cls-8{mix-blend-mode:soft-light;}.cls-7{opacity:0.52;}.cls-8{opacity:0.49;}.cls-9{fill:#fff;}.cls-10{fill:#f9edf1;}.cls-11{fill:url(#linear-gradient);}</style><linearGradient id="linear-gradient" x1="150.37" y1="168.62" x2="149.66" y2="2.17" gradientUnits="userSpaceOnUse"><stop offset="0.03" stop-color="#591c16"/><stop offset="0.22" stop-color="#5f241d" stop-opacity="0.96"/><stop offset="0.38" stop-color="#733c33" stop-opacity="0.84"/><stop offset="0.53" stop-color="#936459" stop-opacity="0.64"/><stop offset="0.68" stop-color="#c09d8d" stop-opacity="0.36"/><stop offset="0.82" stop-color="#fae5cf" stop-opacity="0"/></linearGradient></defs><g class="cls-1"><g id="Layer_1" data-name="Layer 1"><rect class="cls-2" y="0.25" width="300" height="165"/><ellipse class="cls-3" cx="212.14" cy="101.89" rx="67.25" ry="5.09"/><path class="cls-4" d="M146.09,103.49a3.2,3.2,0,0,1-1.17-.33,2.81,2.81,0,0,1-.55-.32,2.76,2.76,0,0,1-.27-.23,1.25,1.25,0,0,1-.29-.38,1,1,0,0,1-.11-.4A1.15,1.15,0,0,1,144,101a2.83,2.83,0,0,1,.6-.46,7.73,7.73,0,0,1,1.13-.49,22.84,22.84,0,0,1,2.22-.6c.73-.16,1.47-.3,2.21-.43,3-.5,5.9-.83,8.86-1.13,5.91-.58,11.83-.95,17.75-1.26,11.84-.58,23.7-.83,35.55-.88q8.89,0,17.78.16c5.93.11,11.86.28,17.78.56s11.85.65,17.77,1.22c3,.29,5.91.62,8.88,1.13.74.13,1.48.27,2.22.44a18.33,18.33,0,0,1,2.26.64l.59.25a3.64,3.64,0,0,1,.63.38,2.58,2.58,0,0,1,.36.33,1.55,1.55,0,0,1,.33.62,1.33,1.33,0,0,1,0,.45.45.45,0,0,1,0,.11l0,.07a.66.66,0,0,1,0,.15,1.83,1.83,0,0,1-.18.42,2.77,2.77,0,0,1-1.07,1,2.45,2.45,0,0,1-1.33.32l-.29-1a5.68,5.68,0,0,0,.65-.66,2.64,2.64,0,0,0,.4-.61s0,0,0-.06v0s0,0,0,0h0v.13s0,.06,0,.08.06.14.07.14,0,0-.06,0a3,3,0,0,0-.76-.37,16.33,16.33,0,0,0-2-.57q-1-.24-2.13-.42c-2.87-.49-5.8-.82-8.74-1.11-5.87-.56-11.77-.91-17.67-1.19-11.81-.55-23.64-.79-35.47-.81s-23.66.12-35.48.62c-5.91.26-11.81.59-17.69,1.12-2.94.28-5.87.59-8.76,1.06-.73.12-1.45.25-2.16.4a19.61,19.61,0,0,0-2.07.54,5.93,5.93,0,0,0-.91.38,1.73,1.73,0,0,0-.28.2s0,0,0,0a.2.2,0,0,0,0-.09.37.37,0,0,0,0-.14.23.23,0,0,0,.05.07l.13.14.36.31.82.64Z"/><path class="cls-5" d="M276.12,96.91c0,18.56-27.12,20.26-61.63,20.26S151,114.72,151.17,96.91a33,33,0,0,1,.44-5.2c3.23-19.72,23.57-33.62,50.45-36.54a98.91,98.91,0,0,1,10.74-.57,101.19,101.19,0,0,1,11.11.6c27.73,3.08,49.64,17.57,52,38A32.08,32.08,0,0,1,276.12,96.91Z"/><g class="cls-6"><path d="M276.12,96.91c0,18.56-27.12,20.26-61.63,20.26S151,114.72,151.17,96.91a33,33,0,0,1,.44-5.2C157,94,211,115.91,275.91,93.22A32.08,32.08,0,0,1,276.12,96.91Z"/></g><rect class="cls-4" x="180.57" y="113.36" width="65.29" height="6.74" rx="2.25"/><path class="cls-4" d="M280.06,101.8c0,8.44-7.24,15.28-67.85,15.28-62.93,0-67.85-6.84-67.85-15.28,0,2.85,30.37,5.16,67.85,5.16S280.06,104.65,280.06,101.8Z"/><g class="cls-7"><path d="M180.52,115.09s14.85,1,30.91,1,34.09-1.41,34.09-1.41S216.52,121.71,180.52,115.09Z"/></g><g class="cls-6"><path d="M213.08,60.06c-11.59,0-11-4.89-11-4.89a98.91,98.91,0,0,1,10.74-.57,101.19,101.19,0,0,1,11.11.6C224,55.64,224.1,60.06,213.08,60.06Z"/></g><g class="cls-8"><path class="cls-9" d="M144.89,102.46s12.24,6.53,104.17,3.78C249.21,106.23,157.66,111.63,144.89,102.46Z"/></g><path class="cls-5" d="M205.07,55.92s-4.51-6.34-4.53-8.67,25.07-2.39,25.07-.57-4.33,9.24-4.33,9.24a23.65,23.65,0,0,1-8.3,1.5A20.28,20.28,0,0,1,205.07,55.92Z"/><g class="cls-6"><ellipse class="cls-9" cx="239.41" cy="67.08" rx="6.06" ry="12.25" transform="translate(111.27 280.14) rotate(-74.63)"/></g><g class="cls-6"><ellipse class="cls-9" cx="249.07" cy="77.59" rx="2.36" ry="5.64" transform="translate(108.24 297.19) rotate(-74.63)"/></g><g class="cls-6"><ellipse class="cls-9" cx="217.56" cy="49.74" rx="4.47" ry="1.65"/></g><circle class="cls-10" cx="195.63" cy="87.51" r="2.47"/><circle class="cls-10" cx="231.82" cy="87.51" r="2.47"/><path class="cls-10" d="M213.93,93a11.19,11.19,0,0,1-6.58-2,.57.57,0,1,1,.71-.89h0a10.1,10.1,0,0,0,5.87,1.8,10.74,10.74,0,0,0,6-1.8.56.56,0,1,1,.68.9A11.75,11.75,0,0,1,213.93,93Z"/><rect class="cls-11" y="0.25" width="300" height="165"/></g></g></svg>