<svg xmlns="http://www.w3.org/2000/svg" xmlns:xlink="http://www.w3.org/1999/xlink" viewBox="0 0 300 165.5"><defs><style>.cls-1{isolation:isolate;}.cls-2{fill:#fce5cd;}.cls-3{fill:#96b3cc;}.cls-4{opacity:0.49;}.cls-4,.cls-7{mix-blend-mode:soft-light;}.cls-5{fill:#fff;}.cls-6{fill:#f15763;}.cls-7{opacity:0.44;}.cls-8{fill:#f9edf1;}.cls-9{fill:url(#linear-gradient);}</style><linearGradient id="linear-gradient" x1="150.37" y1="168.62" x2="149.66" y2="2.17" gradientUnits="userSpaceOnUse"><stop offset="0.03" stop-color="#591c16"/><stop offset="0.22" stop-color="#5f241d" stop-opacity="0.96"/><stop offset="0.38" stop-color="#733c33" stop-opacity="0.84"/><stop offset="0.53" stop-color="#936459" stop-opacity="0.64"/><stop offset="0.68" stop-color="#c09d8d" stop-opacity="0.36"/><stop offset="0.82" stop-color="#fae5cf" stop-opacity="0"/></linearGradient></defs><g class="cls-1"><g id="Layer_1" data-name="Layer 1"><rect class="cls-2" y="0.25" width="300" height="165"/><circle class="cls-3" cx="226.63" cy="82.75" r="54.33"/><g class="cls-4"><circle class="cls-5" cx="226.63" cy="82.75" r="44.13"/></g><path class="cls-6" d="M222.59,110.74a9,9,0,0,1-1.73,5.75c-2.73,3-12.52-.16-16.17-5.7a22.23,22.23,0,0,1-3.25-14.13h0a15.11,15.11,0,0,1,.27-1.83s-27.62-34.34-30-39.26,2.65-4.46,4.16-3.09S204,92.81,204,92.81s9.78-.35,15.32,7.19A18.35,18.35,0,0,1,222.59,110.74Z"/><path class="cls-6" d="M254.38,79.42a8.31,8.31,0,0,1-.17,4.27c-1.36,4.77-8.17,24.51-8.85,25.2s-1.7,0-1.36-.69c.45-.9,3.33-10.89,5.19-17.65.94-3.38,1.62-6,1.62-6.18,0-.68-.68-.68-1.36-.68-.37,0-2.76,6.51-5,12.59-1.91,5.13-3.73,10-4.19,10.36-1,.88-1,.2-1-.48,0-.27,1.18-3.85,2.6-8.12,2.16-6.51,4.89-14.62,4.89-15,0-.68-.68-1.36-1.36-.68-.49.48-5.14,10.7-8,16.74-1.15,2.42-2,4.17-2.2,4.37-.46.45-1.37.68-1.37,0,0-.2.69-2.11,1.69-4.77,2.47-6.53,6.88-17.62,7.85-19.07,1.36-2,4.76-4.76,6.81-4.08,0,0,14.3-40.18,16.34-41.54s3.41-1.36,3.41,1.36-17.13,41-17.13,41A6.36,6.36,0,0,1,254.38,79.42Z"/><g class="cls-7"><path d="M222.59,110.74a9,9,0,0,1-1.73,5.75c-2.73,3-12.52-.16-16.17-5.7a22.23,22.23,0,0,1-3.25-14.13C201.47,97.43,206,115.31,222.59,110.74Z"/></g><g class="cls-7"><path d="M235.47,98.67a5.28,5.28,0,0,0,1.88.4c-1.15,2.42-2,4.17-2.2,4.37-.46.45-1.37.68-1.37,0C233.78,103.24,234.47,101.33,235.47,98.67Z"/></g><g class="cls-7"><path d="M244.43,96.28c-1.91,5.13-3.73,10-4.19,10.36-1,.88-1,.2-1-.48,0-.27,1.18-3.85,2.6-8.12A13.56,13.56,0,0,0,244.43,96.28Z"/></g><g class="cls-7"><path d="M254.21,83.69c-1.36,4.77-8.17,24.51-8.85,25.2s-1.7,0-1.36-.69c.45-.9,3.33-10.89,5.19-17.65a57.38,57.38,0,0,0,5.19-11.13A8.31,8.31,0,0,1,254.21,83.69Z"/></g><circle class="cls-8" cx="213.76" cy="64.5" r="1.79"/><circle class="cls-8" cx="240.04" cy="64.5" r="1.79"/><path class="cls-8" d="M227.05,68.51A8,8,0,0,1,222.27,67a.41.41,0,0,1,.52-.64h0a7.3,7.3,0,0,0,4.26,1.3,7.86,7.86,0,0,0,4.36-1.3.41.41,0,1,1,.49.65A8.43,8.43,0,0,1,227.05,68.51Z"/><rect class="cls-9" y="0.25" width="300" height="165"/></g></g></svg>