<svg xmlns="http://www.w3.org/2000/svg" xmlns:xlink="http://www.w3.org/1999/xlink" viewBox="0 0 300 165.5"><defs><style>.cls-1{isolation:isolate;}.cls-2{fill:#fce5cd;}.cls-3{fill:#969390;}.cls-4{opacity:0.73;}.cls-10,.cls-11,.cls-16,.cls-17,.cls-18,.cls-19,.cls-4,.cls-6{mix-blend-mode:soft-light;}.cls-5{fill:#efbb60;}.cls-6{opacity:0.62;}.cls-7{fill:#fff;}.cls-8{fill:#f2ac5f;}.cls-9{fill:#f7e8d7;}.cls-11{opacity:0.9;}.cls-12{fill:#3f240f;}.cls-13{fill:#edc094;}.cls-14{fill:#587575;}.cls-15{fill:#984d18;}.cls-16{opacity:0.23;}.cls-17{opacity:0.59;}.cls-18{opacity:0.52;}.cls-19{opacity:0.49;}.cls-20{fill:url(#linear-gradient);}</style><linearGradient id="linear-gradient" x1="150.37" y1="168.62" x2="149.66" y2="2.17" gradientUnits="userSpaceOnUse"><stop offset="0.03" stop-color="#591c16"/><stop offset="0.22" stop-color="#5f241d" stop-opacity="0.96"/><stop offset="0.38" stop-color="#733c33" stop-opacity="0.84"/><stop offset="0.53" stop-color="#936459" stop-opacity="0.64"/><stop offset="0.68" stop-color="#c09d8d" stop-opacity="0.36"/><stop offset="0.82" stop-color="#fae5cf" stop-opacity="0"/></linearGradient></defs><g class="cls-1"><g id="Layer_1" data-name="Layer 1"><rect class="cls-2" y="0.25" width="300" height="165"/><path class="cls-3" d="M173.91,54l9.77,45.1c.8,3.66,10.32,4.71,21.27,2.34s19.19-7.27,18.39-10.94l-9.77-45.1Z"/><g class="cls-4"><path d="M174.6,57.22l9.08,41.91c.8,3.66,10.32,4.71,21.27,2.34s19.19-7.27,18.39-10.94l-.63-2.93C188,113,174.63,57,174.63,57Z"/></g><path class="cls-5" d="M176.1,55l9.16,42.23a1.74,1.74,0,0,0,.17.5c1.44,2.76,9.63,3.39,19,1.36s16.56-6,16.73-9.11a1.83,1.83,0,0,0,0-.52L212,47.21Z"/><g class="cls-6"><path class="cls-7" d="M180.55,75.5l4.71,21.71a1.74,1.74,0,0,0,.17.5c1.44,2.76,9.63,3.39,19,1.36s16.56-6,16.73-9.11a1.83,1.83,0,0,0,0-.52l-1.71-7.89-.06.06c-2.07,2.35-15.81,6.78-24.49,7.09s-14.25-13.28-14.25-13.28Z"/></g><path class="cls-8" d="M221.12,89.44a1.83,1.83,0,0,1,0,.52h.07Z"/><path class="cls-8" d="M185.26,97.21l.11.51h.06A1.74,1.74,0,0,1,185.26,97.21Z"/><g class="cls-6"><path d="M176.1,55l4.13,19.07c3.87-12.82,18-14.81,22.79-15.67S215,61,215,61l-3-13.77Z"/></g><path class="cls-3" d="M220.55,77.73l.13.58,0,.23.8,3.63L231,80.1a1.15,1.15,0,0,0,.89-1.37l-5.27-24.29a1.15,1.15,0,0,0-1.37-.88l-9.51,2.06.86,4,.13,0L222,58.4a1.15,1.15,0,0,1,1.35.89l3.48,16.06a1.16,1.16,0,0,1-.91,1.38l-5.31,1Z"/><path class="cls-9" d="M175.18,57.08c1.54.47,2.35-1.27,4.27-.61a3.06,3.06,0,0,1,2.31,1.92c.63,1.56-.38,3.16-.3,6.17A10.6,10.6,0,0,0,182.9,70a2.81,2.81,0,0,0,2.9.63A3.51,3.51,0,0,0,187,67.88a52.92,52.92,0,0,0-.49-5.47c-.17-1.91-.49-2.63-.52-3.57,0-.7-.45-1.28.83-1.34.57,0,1.24,2.3,1.42,5a7.08,7.08,0,0,0,.64,3.34c.39.67,1.54.22,1.93-.28a4.4,4.4,0,0,0,.83-2.53c-.1-2.35-.79-2.83-.57-4.19s1.14-2.1,3-3.49a14.71,14.71,0,0,1,5.51-2.87c2.62-.68,2.68.14,5.13-.59,2.82-.85,2.87-2,5.14-2.17,2.09-.17,3.21.69,3.93-.22s.27-2.85.1-3.49a8.91,8.91,0,0,0-1.56-3.2,7.61,7.61,0,0,0-2.63-2.21c-2.49-1.22-3.45.41-5.94-.72-2.06-.93-2.34-2.46-4.2-4.24-2.89-2.79-7-2.23-10.39-1-4.2,1.59-4.28,4.35-9.53,6.22-1.67.59-2.29.33-3.62,1.21a9.4,9.4,0,0,0-4.34,7.47v.41c0,.27,0,.55.06.82C172,53.51,173.4,56.53,175.18,57.08Z"/><g class="cls-10"><path d="M184.59,94.12l.67,3.09a1.74,1.74,0,0,0,.17.5c1.44,2.76,9.63,3.39,19,1.36s16.56-6,16.73-9.11a1.83,1.83,0,0,0,0-.52l-.62-2.87c-1.46,1.62-14.32,15-35.73,7.62Z"/></g><g class="cls-11"><path d="M175.18,57.08c1.54.47,2.35-1.27,4.27-.61a3.06,3.06,0,0,1,2.31,1.92c.63,1.56-.38,3.16-.3,6.17A10.6,10.6,0,0,0,182.9,70a2.81,2.81,0,0,0,2.9.63A3.51,3.51,0,0,0,187,67.88a52.92,52.92,0,0,0-.49-5.47c-.17-1.91-.49-2.63-.52-3.57,0-.7-.45-1.28.83-1.34.57,0,1.24,2.3,1.42,5a7.08,7.08,0,0,0,.64,3.34c.39.67,1.54.22,1.93-.28a4.4,4.4,0,0,0,.83-2.53c-.1-2.35-.79-2.83-.57-4.19s1.14-2.1,3-3.49a14.71,14.71,0,0,1,5.51-2.87c2.62-.68,2.68.14,5.13-.59,2.82-.85,2.87-2,5.14-2.17,2.09-.17,3.21.69,3.93-.22s.27-2.85.1-3.49a8.91,8.91,0,0,0-1.56-3.2S180,62.82,172.2,51.45c-.17-.26-.34-.49-.5-.69C172,53.51,173.4,56.53,175.18,57.08Z"/></g><g class="cls-6"><path class="cls-7" d="M171.64,49.53c16.84-16.7,27.88-13.94,27.88-13.94-2.89-2.79-7-2.23-10.39-1-4.2,1.59-4.28,4.35-9.53,6.22-1.67.59-2.29.33-3.62,1.21A9.4,9.4,0,0,0,171.64,49.53Z"/></g><g class="cls-10"><rect class="cls-7" x="208.07" y="55.57" width="4.89" height="16.87" rx="2.45" transform="translate(429.81 81.97) rotate(167.77)"/></g><g class="cls-10"><rect class="cls-7" x="204.98" y="64.82" width="3.37" height="9.89" rx="1.69" transform="matrix(-0.98, 0.21, -0.21, -0.98, 423.42, 94.16)"/></g><g class="cls-4"><path d="M221.28,81l.25,1.16L231,80.1a1.15,1.15,0,0,0,.89-1.37L228,60.56c.06.25,3.06,17.3,2.72,17.72a2.33,2.33,0,0,1-1.43,1Z"/></g><g class="cls-6"><path class="cls-7" d="M220.73,78.54h0c.12,0,4.49-.89,5.32-1.15a2.39,2.39,0,0,0,1.41-.91c.34-.42-.82-1.77-.82-1.77l.14.64a1.16,1.16,0,0,1-.91,1.38l-5.31,1,.12.58v0Z"/></g><g class="cls-6"><path class="cls-7" d="M215.77,55.62l.43,1.11,8.4-1.82a2.91,2.91,0,0,1,2.26.57l0,0-.23-1a1.15,1.15,0,0,0-1.37-.88Z"/></g><g class="cls-4"><path d="M216.76,59.54,222,58.4a1.15,1.15,0,0,1,1.35.89l.1.44s-.22-2.18-1-2L216.68,59Z"/></g><g class="cls-10"><ellipse class="cls-7" cx="183.07" cy="43.5" rx="4.09" ry="2.07" transform="translate(1.83 94.08) rotate(-28.96)"/></g><path class="cls-3" d="M182.48,68.9v46.15c0,3.75-9.08,6.79-20.29,6.79s-20.28-3-20.28-6.79V68.9Z"/><g class="cls-4"><path d="M182.48,72.17v42.88c0,3.75-9.08,6.79-20.29,6.79s-20.28-3-20.28-6.79v-3c39.29,17.46,40.49-40.12,40.49-40.12Z"/></g><path class="cls-5" d="M180.54,70.3v43.21a1.81,1.81,0,0,1-.07.52c-.82,3-8.69,5.36-18.28,5.36S144.74,117,143.92,114a1.81,1.81,0,0,1-.07-.52V70.3Z"/><g class="cls-6"><path class="cls-7" d="M180.54,91.29v22.22a1.81,1.81,0,0,1-.07.52c-.82,3-8.69,5.36-18.28,5.36S144.74,117,143.92,114a1.81,1.81,0,0,1-.07-.52v-8.07l.07,0c2.51,1.87,16.88,3.29,25.44,1.75s11.11-16,11.11-16Z"/></g><path class="cls-8" d="M143.85,113.51a1.81,1.81,0,0,0,.07.52h-.07Z"/><path class="cls-8" d="M180.54,113.51V114h-.07A1.81,1.81,0,0,0,180.54,113.51Z"/><g class="cls-6"><path d="M180.54,70.3V89.81C174.05,78.1,159.79,79.15,155,79.32s-11.11,5.07-11.11,5.07V70.3Z"/></g><path class="cls-3" d="M141.92,102v4.55h-9.73a1.16,1.16,0,0,1-1.16-1.16V80.48a1.16,1.16,0,0,1,1.16-1.16h9.73v4.05h-.14l-5.31,0a1.15,1.15,0,0,0-1.13,1.16v16.43a1.14,1.14,0,0,0,1.18,1.15l5.4-.14Z"/><path class="cls-9" d="M181.89,72.15c-1.41.79-2.57-.74-4.3.31a3.1,3.1,0,0,0-1.86,2.37c-.28,1.66,1.05,3,1.61,6a10.68,10.68,0,0,1-.26,5.66,2.82,2.82,0,0,1-2.7,1.23,3.58,3.58,0,0,1-1.77-2.46,51.93,51.93,0,0,1-.67-5.46c-.25-1.9-.09-2.67-.25-3.6-.13-.69.16-1.33-1.1-1.13-.57.09-.72,2.52-.34,5.15a7,7,0,0,1,.09,3.39c-.24.74-1.46.54-1.94.14a4.23,4.23,0,0,1-1.35-2.3c-.41-2.31.17-2.93-.34-4.22s-1.56-1.81-3.63-2.78a14.73,14.73,0,0,0-6-1.64c-2.71-.11-2.59.71-5.15.51-2.93-.23-3.22-1.32-5.48-1-2.07.28-3,1.35-3.88.62s-.87-2.73-.84-3.39a9,9,0,0,1,.85-3.46,7.54,7.54,0,0,1,2.1-2.72c2.18-1.71,3.45-.32,5.65-1.95,1.82-1.35,1.77-2.9,3.21-5,2.24-3.34,6.38-3.67,9.95-3.14,4.44.66,5.11,3.34,10.63,4.06,1.76.23,2.31-.16,3.8.41A9.45,9.45,0,0,1,183.75,64c0,.13.06.27.08.4s.09.54.12.82C184.24,68,183.51,71.25,181.89,72.15Z"/><g class="cls-10"><path d="M180.54,110.35v3.16a1.81,1.81,0,0,1-.07.52c-.82,3-8.69,5.36-18.28,5.36S144.74,117,143.92,114a1.81,1.81,0,0,1-.07-.52v-2.93c1.76,1.27,17.17,11.61,36.52-.13Z"/></g><g class="cls-11"><path d="M181.89,72.15c-1.41.79-2.57-.74-4.3.31a3.1,3.1,0,0,0-1.86,2.37c-.28,1.66,1.05,3,1.61,6a10.68,10.68,0,0,1-.26,5.66,2.82,2.82,0,0,1-2.7,1.23,3.58,3.58,0,0,1-1.77-2.46,51.93,51.93,0,0,1-.67-5.46c-.25-1.9-.09-2.67-.25-3.6-.13-.69.16-1.33-1.1-1.13-.57.09-.72,2.52-.34,5.15a7,7,0,0,1,.09,3.39c-.24.74-1.46.54-1.94.14a4.23,4.23,0,0,1-1.35-2.3c-.41-2.31.17-2.93-.34-4.22s-1.56-1.81-3.63-2.78a14.73,14.73,0,0,0-6-1.64c-2.71-.11-2.59.71-5.15.51-2.93-.23-3.22-1.32-5.48-1-2.07.28-3,1.35-3.88.62s-.87-2.73-.84-3.39a9,9,0,0,1,.85-3.46s35.81,12.77,41,0c.11-.29.23-.54.34-.77C184.24,68,183.51,71.25,181.89,72.15Z"/></g><g class="cls-6"><path class="cls-7" d="M183.75,64c-20-12.76-30.2-7.72-30.2-7.72,2.24-3.34,6.38-3.67,9.95-3.14,4.44.66,5.11,3.34,10.63,4.06,1.76.23,2.31-.16,3.8.41A9.45,9.45,0,0,1,183.75,64Z"/></g><g class="cls-10"><rect class="cls-7" x="146.38" y="77.97" width="4.89" height="16.87" rx="2.45"/></g><g class="cls-10"><rect class="cls-7" x="152.11" y="86.27" width="3.37" height="9.89" rx="1.69"/></g><g class="cls-4"><path d="M141.91,105.31v1.19h-9.73a1.16,1.16,0,0,1-1.16-1.16V86.74c0,.26.68,17.55,1.1,17.89a2.31,2.31,0,0,0,1.61.68Z"/></g><g class="cls-6"><path class="cls-7" d="M141.92,102.78h0c-.13,0-4.58.08-5.45,0a2.47,2.47,0,0,1-1.57-.59c-.42-.34.43-1.91.43-1.91v.66a1.14,1.14,0,0,0,1.18,1.15l5.4-.14v.83Z"/></g><g class="cls-6"><path class="cls-7" d="M141.91,79.32l-.18,1.18h-8.6a3,3,0,0,0-2.09,1l0,0v-1a1.16,1.16,0,0,1,1.16-1.16Z"/></g><g class="cls-4"><path d="M141.77,83.37l-5.31,0a1.15,1.15,0,0,0-1.13,1.16V85s-.26-2.18.5-2.18h5.9Z"/></g><g class="cls-10"><ellipse class="cls-7" cx="171.31" cy="60.55" rx="2.07" ry="4.09" transform="translate(64 207.17) rotate(-73.27)"/></g><circle class="cls-12" cx="151.1" cy="101.88" r="1.4"/><circle class="cls-12" cx="169" cy="101.88" r="1.4"/><path class="cls-12" d="M160.12,105.22a6.53,6.53,0,0,1-3.86-1.2.53.53,0,0,1-.08-.74.53.53,0,0,1,.74-.09,5.49,5.49,0,0,0,3.2,1,5.88,5.88,0,0,0,3.28-1,.53.53,0,0,1,.63.84A6.93,6.93,0,0,1,160.12,105.22Z"/><ellipse class="cls-13" cx="223.96" cy="116.17" rx="54.37" ry="4.4"/><path class="cls-14" d="M170.54,117.58a2.66,2.66,0,0,1-1-.28,2.33,2.33,0,0,1-.45-.27l-.22-.19a1.18,1.18,0,0,1-.23-.29,1.16,1.16,0,0,1-.11-.27s0-.06,0-.1v-.1s0-.1,0-.15a1.23,1.23,0,0,1,.2-.46,1.83,1.83,0,0,1,.5-.45,4.65,4.65,0,0,1,.93-.45A15.38,15.38,0,0,1,172,114c.6-.14,1.19-.26,1.79-.37,2.39-.44,4.78-.74,7.18-1,4.79-.51,9.58-.84,14.38-1.1,9.6-.51,19.21-.73,28.81-.78q7.22,0,14.41.14c4.81.1,9.61.24,14.41.49s9.6.56,14.4,1.06c2.4.25,4.8.54,7.2,1,.6.11,1.2.24,1.81.39a12.56,12.56,0,0,1,1.84.58,5.4,5.4,0,0,1,.49.23,3.17,3.17,0,0,1,.54.38,1.81,1.81,0,0,1,.3.35,1.31,1.31,0,0,1,.11,1.18l-.08.18-.08.15a2.34,2.34,0,0,1-.88.86,2,2,0,0,1-1.11.28l-.28-.9a5.37,5.37,0,0,0,.47-.56,2.84,2.84,0,0,0,.28-.49l0,0s0,0,0,0,0,0,0,.11a.4.4,0,0,0,.06.21s0,0,0,0a1.38,1.38,0,0,0-.2-.13l-.32-.15a11.26,11.26,0,0,0-1.58-.5c-.56-.14-1.14-.25-1.71-.36-2.32-.43-4.69-.72-7.06-1-4.75-.48-9.53-.79-14.31-1-9.56-.48-19.14-.7-28.73-.72s-19.17.11-28.74.54c-4.78.22-9.56.51-14.32,1-2.37.24-4.75.51-7.08.92-.58.1-1.16.22-1.73.35a13.92,13.92,0,0,0-1.66.47,3.41,3.41,0,0,0-.69.32.74.74,0,0,0-.17.14s0,0,0,0a.08.08,0,0,0,0,0s0-.07,0-.09a.14.14,0,0,0,0-.06l0,.07.1.12.27.26.63.55Z"/><path class="cls-15" d="M252.35,121a3.54,3.54,0,0,1-.29.75c-.93,1.74-3.22,2.4-5.44,1.91-18.27-4.1-30.56-3.77-41.13,1.29a4.67,4.67,0,0,1-3.54.17,5,5,0,0,1-3-2.58,5.45,5.45,0,0,1-.49-2.19,7.7,7.7,0,0,1,.23-2,6.92,6.92,0,0,1,.49-1.35,4,4,0,0,1,1.59-1.65,55.84,55.84,0,0,1,11.28-4.8,56.78,56.78,0,0,1,11.57-2.3,51.09,51.09,0,0,1,26.24,4.43,4,4,0,0,1,2.23,2.48,10.93,10.93,0,0,1,.35,1.84c0,.13,0,.26,0,.39A12,12,0,0,1,252.35,121Z"/><path class="cls-15" d="M261.21,101.63A8.19,8.19,0,0,1,261,103c-.83,3.08-4.43,4.77-7.67,3.68l-.17,0a96.93,96.93,0,0,0-17.27-4.75c-16.81-2.85-27.94,1.22-39,6.51a6.35,6.35,0,0,1-4.84.24,7.29,7.29,0,0,1-4.1-3c-1.26-2.22-.41-4.78.37-6.36A5.45,5.45,0,0,1,190.45,97a77,77,0,0,1,16.37-6.85l1-.29A77.73,77.73,0,0,1,225.39,87a69.51,69.51,0,0,1,27.48,4.34c1.57.59,3.16,1.24,4.76,2a5.48,5.48,0,0,1,3,3.38A12.7,12.7,0,0,1,261.21,101.63Z"/><g class="cls-16"><path d="M253.72,116.38a2.51,2.51,0,0,1-.8.75l-.49-.16c0,.13,0,.26,0,.39-2.47,1.06-7.72.36-17.11-1.37-5.88-1.09-10.58-2-14.12-2.67-13.67.67-22.15,6.15-22.8,7a7.7,7.7,0,0,1,.23-2,6.92,6.92,0,0,1,.49-1.35,4,4,0,0,1,1.59-1.65,55.84,55.84,0,0,1,11.28-4.8c.54,0,1.07,0,1.61,0,1.2-.86,5.06-1.75,10-2.32,11.11-1.31,27.54-1,30.17,4.62C253.84,113,254.72,114.93,253.72,116.38Z"/></g><g class="cls-16"><path d="M261.21,101.63A8.19,8.19,0,0,1,261,103c-.83,3.08-4.43,4.77-7.67,3.68l-.17,0a96.93,96.93,0,0,0-17.27-4.75c-16.81-2.85-27.94,1.22-39,6.51a6.35,6.35,0,0,1-4.84.24,7.29,7.29,0,0,1-4.1-3C195.15,101.43,226.43,85.79,261.21,101.63Z"/></g><path class="cls-15" d="M264.81,114.32c-.92,3.43-5,5.29-8.58,4-.75-.27-1.49-.54-2.23-.79l-1.08-.37-.49-.16c-14.28-4.77-25.27-5.65-34.67-4.38a69.45,69.45,0,0,0-19.08,5.73l-1.53.7c-.86.39-1.72.79-2.57,1.2a6.91,6.91,0,0,1-5.3.26,8.34,8.34,0,0,1-4.23-2.91h0c-1.75-2.51-.76-5.54.15-7.37a6,6,0,0,1,2.39-2.48h0c6-3.43,30-15.7,58.84-9a76.9,76.9,0,0,1,14.73,5,6,6,0,0,1,3.33,3.71A12.64,12.64,0,0,1,264.81,114.32Z"/><g class="cls-16"><path class="cls-7" d="M255.71,103.86a.85.85,0,0,1,.93-1.25,8.08,8.08,0,0,1,2.13.66c1.88.87,3.64,2.6,3.27,3.22s-2.42.27-3.89-.45A6.21,6.21,0,0,1,255.71,103.86Z"/></g><g class="cls-16"><path class="cls-7" d="M251.1,113.65c-.64-.39-.55-1,.16-1.05a10.42,10.42,0,0,1,2.12.17c2,.36,4.35,1.36,4.35,1.86s-1.9.55-3.49.25A9.84,9.84,0,0,1,251.1,113.65Z"/></g><g class="cls-17"><path class="cls-7" d="M259.25,115.13c-.39,0-.56-.41-.29-.64a4.24,4.24,0,0,1,.9-.58c.94-.43,2.2-.6,2.37-.31s-.58.91-1.32,1.24A3.72,3.72,0,0,1,259.25,115.13Z"/></g><g class="cls-16"><path class="cls-7" d="M246.43,98.69c-.3,1.54-2.46,2.18-8,.9-18.33-4.27-50.4,8-50.85,8.12C193.56,104.28,217.59,92,246.43,98.69Z"/></g><g class="cls-16"><path d="M231.51,94.09C218.29,91,211.37,92.65,209.26,92s-1.45-2.16-1.45-2.16A77.73,77.73,0,0,1,225.39,87l1.15.25S244.74,97.16,231.51,94.09Z"/></g><g class="cls-16"><path d="M256.94,108.81a30.46,30.46,0,0,1-4,2.11,2.69,2.69,0,0,1-1.28.29c-6.22.09-14-3.67-15.47-6.19-.88-1.53,0-8,0-8l14.24.32a45.13,45.13,0,0,1,3,6.93c2.13-1.24,4-2.16,4-2.16S258.47,107.47,256.94,108.81Z"/></g><path class="cls-15" d="M256.62,105.05a7.44,7.44,0,0,1-4.67,4.76c-2.9,1-6.55,1.12-11.31-3.92a6.92,6.92,0,0,1-1.89-4.61c-.18-8.5-19.66-10-24.65-10.3a7.78,7.78,0,0,1-1.45-.19,7,7,0,0,1-1.34-.43c-7.75-3.28-7.17-11.89,1-15.78,5.42-2.58,25.89-.25,37.39,9h0C255.94,88.58,259.54,95.64,256.62,105.05Z"/><g class="cls-16"><path class="cls-7" d="M217.92,81.49c-.29,1.58.82,5.46-.57,7.62s-4.69,1.68-4.69,1.68h0a7,7,0,0,1-1.34-.43c-7.75-3.28-7.17-11.89,1-15.78,5.42-2.58,25.89-.25,37.39,9-19-10.24-26.95-6.79-28.37-6.53S218.26,79.64,217.92,81.49Z"/></g><g class="cls-16"><path class="cls-7" d="M252.57,95.43a1.12,1.12,0,0,1,2-.22,8.06,8.06,0,0,1,1,2.25c.62,2.22.3,5-.59,5.19s-2.15-1.77-2.6-3.53A6.41,6.41,0,0,1,252.57,95.43Z"/></g><g class="cls-16"><path class="cls-7" d="M203.72,118.08a1.43,1.43,0,0,1,1.76.34,4.11,4.11,0,0,1,.64,1.43c.28,1.33-.33,2.72-1.15,2.6s-1.71-1.44-1.89-2.48A2.1,2.1,0,0,1,203.72,118.08Z"/></g><g class="cls-16"><path class="cls-7" d="M202.12,121.94c.1-.25.69-.34,1-.16a2.64,2.64,0,0,1,.65.6c.44.62.45,1.44,0,1.54a2.06,2.06,0,0,1-1.51-.9A1.13,1.13,0,0,1,202.12,121.94Z"/></g><g class="cls-16"><path d="M198.68,118.32l-1.53.7c-.86.39-1.72.79-2.57,1.2a6.91,6.91,0,0,1-5.3.26,8.34,8.34,0,0,1-4.23-2.91A17,17,0,0,0,198.68,118.32Z"/></g><ellipse class="cls-12" cx="199.7" cy="110.61" rx="1.54" ry="1.41"/><ellipse class="cls-12" cx="218.74" cy="105.8" rx="1.54" ry="1.41"/><path class="cls-12" d="M208.24,111.67a7.11,7.11,0,0,1-2.38-.37.53.53,0,0,1-.3-.69.53.53,0,0,1,.68-.3,6.75,6.75,0,0,0,3.75.09,6.44,6.44,0,0,0,3.23-1.85.52.52,0,0,1,.74-.06.51.51,0,0,1,.07.74,7.51,7.51,0,0,1-3.78,2.19A8,8,0,0,1,208.24,111.67Z"/><rect class="cls-14" x="198.44" y="126.09" width="52.79" height="5.83" rx="2.09"/><path class="cls-14" d="M278.87,116.1c0,7.29-5.85,13.21-54.85,13.21-50.88,0-54.86-5.92-54.86-13.21,0,2.46,24.56,4.45,54.86,4.45S278.87,118.56,278.87,116.1Z"/><g class="cls-18"><path d="M198.4,127.59s12,.88,25,.88S251,127.25,251,127.25,227.5,133.3,198.4,127.59Z"/></g><g class="cls-19"><path class="cls-7" d="M169.59,116.67s9.9,5.64,84.22,3.26C253.93,119.93,179.92,124.59,169.59,116.67Z"/></g><rect class="cls-20" y="0.25" width="300" height="165"/></g></g></svg>