<svg xmlns="http://www.w3.org/2000/svg" xmlns:xlink="http://www.w3.org/1999/xlink" viewBox="0 0 300 165.5"><defs><style>.cls-1{isolation:isolate;}.cls-2{fill:#fce5cd;}.cls-3{fill:#f3c860;}.cls-4{opacity:0.4;mix-blend-mode:soft-light;}.cls-5{fill:#cc8758;}.cls-6{fill:#61912d;}.cls-7{fill:#c83f09;}.cls-8{fill:#f1e3e3;}.cls-9{fill:#d6aa83;}.cls-10{fill:#fff;}.cls-11{fill:#3f240f;}.cls-12{fill:url(#linear-gradient);}</style><linearGradient id="linear-gradient" x1="150.37" y1="168.62" x2="149.66" y2="2.17" gradientUnits="userSpaceOnUse"><stop offset="0.03" stop-color="#591c16"/><stop offset="0.22" stop-color="#5f241d" stop-opacity="0.96"/><stop offset="0.38" stop-color="#733c33" stop-opacity="0.84"/><stop offset="0.53" stop-color="#936459" stop-opacity="0.64"/><stop offset="0.68" stop-color="#c09d8d" stop-opacity="0.36"/><stop offset="0.82" stop-color="#fae5cf" stop-opacity="0"/></linearGradient></defs><g class="cls-1"><g id="Layer_1" data-name="Layer 1"><rect class="cls-2" y="0.25" width="300" height="165"/><path class="cls-3" d="M259.48,65.5a7.64,7.64,0,0,1-1.82,3.78C255.09,72.1,232,80.15,213.89,86.11l-.94.31-3.31,1.09-1.66.54-4,1.28c-6.64,2.12-11.37,3.58-12.08,3.75-2.63.66-22.41,6.34-27.66,4.78S148.7,87.77,147.47,86a15.4,15.4,0,0,1-2.39-9.68c3.12-27,22.64-34.16,35.77-35.91,1-.13,2-.24,2.88-.31.69-.06,1.35-.1,2-.13h0a48.61,48.61,0,0,1,7.23.11h.79l.33,0h1.42l.6,0h.3l.32,0h.38l.57,0H198l.33,0c1.23,0,2.64.1,4.15.17l1.13.05,2.59.13.44,0,3,.16,1.11.07H211l1.18.07,2.36.16,1.17.08,1.34.1,1.95.15,1.33.12,1.27.11,1.14.11.42,0,2.93.33.29,0,.31,0,.24,0H227l.51.07h.05l.54.09h0l.5.09.26,0,.31,0,.2.05.39.08.2,0,.42.1h.07l.53.13.57.15.55.15h0l.54.15h0l.49.15.18.06.34.1.29.1.36.12c.36.12.73.24,1.08.37l.54.2.51.2.08,0,.49.19.52.21.49.2,1.45.64.45.21c.71.32,1.4.66,2.07,1l.48.25.48.25.42.22c.65.35,1.28.7,1.9,1.06l.45.26.44.26.86.51.42.26,2,1.29.7.46.37.25.31.21,1.09.73.61.42,1.51,1.06.46.31.71.5A10.2,10.2,0,0,1,259.44,62,9.6,9.6,0,0,1,259.48,65.5Z"/><g class="cls-4"><path d="M163.59,94.11s-19.71-8.81-14.06-24.58,16.27-3.6,16.27-3.6L178,82.86Z"/></g><path class="cls-5" d="M171.14,77c-.57,2.31-2.55,4.35-4,5.76l-.19.19c-.48.48-1,1-1.47,1.41a8.11,8.11,0,0,1-4.26,2.29c-5.36.77-11.91-5.85-12.91-12.54,0-.33-.09-.67-.11-1s0-.6,0-.89a10.45,10.45,0,0,1,.15-1.6,14.73,14.73,0,0,1,.69-2.66,22.94,22.94,0,0,1,1.11-2.56c.44-.9.88-1.78,1.33-2.55.85-1.45,1.78-2.54,3-2.77a2.22,2.22,0,0,1,1.09.06c1.59.5,3.13,2.86,7.44,6.83,5.7,5.25,7.93,5.65,8.2,8.22v.07A5.09,5.09,0,0,1,171.14,77Z"/><g class="cls-4"><path d="M178.1,67.9a7.37,7.37,0,0,1-.41,1.88c-.95,2.78-3.42,5.33-6.55,7.17a19.66,19.66,0,0,1-12.68,2.72c-.36-.06-.71-.13-1.06-.22a16.81,16.81,0,0,1-4.84-2.15,31,31,0,0,1-2.73-2c-.51-.41-1-.82-1.48-1.22,0-.33-.09-.67-.11-1s0-.6,0-.89a10.45,10.45,0,0,1,.15-1.6c-1.43-1.36-2.44-2.71-2.44-4.2a52.83,52.83,0,0,1,5.57-3.57c1.09-.68,2.33-1.47,3.71-2.42l.42-.29c7.47-5.19,8.54-7.62,11.67-7.2,3.67.48,6.19,4.34,7.8,6.92.05.09.11.18.17.27.43.7.87,1.41,1.27,2.13A9.88,9.88,0,0,1,178.1,67.9Z"/></g><path class="cls-6" d="M158.06,82.63c-.63,1.05-1.71,2.91-1,4.2a2.1,2.1,0,0,0,2,1c1.1-.16,1.41-1.52,2.22-2.62,2.33-3.16,6.68-1.29,8.75-3.93,1.46-1.87,1.27-5.36-.22-6.4C167.3,73.16,160.82,78,158.06,82.63Z"/><path class="cls-7" d="M151.83,67.4S159.7,37,180.39,44.14C180.37,44.31,151.83,67.4,151.83,67.4Z"/><path class="cls-5" d="M177.69,69.78a17.31,17.31,0,0,1-6.42,5.36,19.27,19.27,0,0,1-11.57,2.12c-.36-.06-.72-.13-1.06-.22a16.43,16.43,0,0,1-4.84-2.15,29.43,29.43,0,0,1-2.74-2c-1-.78-1.89-1.54-2.69-2.3-1.43-1.36-2.44-2.71-2.44-4.2v-.15c.12-2.64,3.33-3.32,10.51-8.25,7.86-5.39,8.9-7.92,12.09-7.49,3.67.48,6.19,4.34,7.8,6.92.06.09.12.18.17.27.44.71.88,1.41,1.28,2.13a9.87,9.87,0,0,1,1.55,5.69A8.9,8.9,0,0,1,177.69,69.78Z"/><path class="cls-6" d="M153.28,72.55a1.19,1.19,0,0,1-1.21-.24c-1.06-1-1.25-1.65-1.18-2.15.15-1.1,1.57-1.26,1.82-2.52s-1.05-1.86-.89-3.14c.19-1.59,2.47-3,3.4-2.52s0,2,.76,5.53c.3,1.35.56,1.72.39,2.43C156,71.23,154.64,72,153.28,72.55Z"/><g class="cls-4"><path d="M159.7,77.26c-.47-3.67,1-7.7,3.52-8.86C166.36,67,170,68,173,66.66c3.1-1.38-.18-4.09,2.74-8.45a7.14,7.14,0,0,1,.61-.81c.06.09.12.18.17.27.44.71.88,1.41,1.28,2.13a9.87,9.87,0,0,1,1.55,5.69C178.76,72.4,168.14,78.65,159.7,77.26Z"/></g><path class="cls-5" d="M172.05,87.12c-3.88-.82-7.93-2.09-9.71-5.59-2.1-4.1-.59-10.32,2.64-11.81s6.81-.42,9.77-1.74-.18-4.09,2.73-8.45c2.68-4,8.13-4.59,17.69-5.45,11.08-1,16.62-1.5,20.23,1.54,6,5,6.38,16.73,2,24.15C208.5,94.77,181.79,89.16,172.05,87.12Z"/><path class="cls-7" d="M177.66,76.76a4.22,4.22,0,0,0-2.84-1.54c-2.27-.08-2.95,2.57-7.12,5.93-2.64,2.13-3.74,2.18-5.11,4.24-.6.89-2,3-1.29,4.74.83,2,4.07,2.51,5.92,2.31C171.9,91.92,175.82,85.54,177.66,76.76Z"/><g class="cls-4"><path d="M257.76,65.14A7.55,7.55,0,0,1,256,68.92c-1.63,1.79-11.51,5.68-23.13,9.81-8.79,3.12-18.57,6.37-26.55,9-8.67,2.81-15.21,4.83-16.05,5-2.63.65-22.42,6.33-27.66,4.77a68.14,68.14,0,0,1,6.23-14.93c.32-.57.65-1.15,1-1.73,5.79-9.66,15.53-20.3,30.92-22.29l2.13-.27c26.63-3.09,47.11,1,53.85,6a9.2,9.2,0,0,1,1.07.9Z"/></g><path class="cls-3" d="M259.48,65.5a7.64,7.64,0,0,1-1.82,3.78C256,71.07,246.15,75,234.53,79.09c-8.79,3.12-18.57,6.37-26.55,9-8.67,2.8-15.21,4.83-16,5-2.63.66-22.41,6.34-27.66,4.78a68.14,68.14,0,0,1,6.23-14.93c.32-.57.65-1.15,1-1.74,5.79-9.65,15.54-20.3,30.92-22.29l2.13-.26c26.63-3.1,47.11,1,53.85,6a10.29,10.29,0,0,1,1.08.9Z"/><path class="cls-8" d="M185.14,42.87a8.92,8.92,0,0,0-3.91-.61c-2.15.23-4.94,1.51-5,3.09s2.74,3.09,4.68,3.57c1.62.41,1.51,1.13,1.59,1.46.12.54-1.36.73-3.68,1.49-4.77,1.56-6.66,1-7.09,2.05-.69,1.67,3.07,5.42,7.33,6.91.94.32,6.7,2.33,10-.92,1.31-1.29.54-2.78,1.87-3.77,2.06-1.54,5,.67,5.95-.43s-1.54-5.37-3.73-7.76A18.37,18.37,0,0,0,185.14,42.87Z"/><path class="cls-6" d="M190.22,49.89a1.44,1.44,0,0,1,.67-1.35c1.47-.93,2.36-.92,2.92-.68,1.25.54,1,2.27,2.37,3s2.52-.64,4,0c1.79.76,2.72,3.91,1.83,4.84s-2.36-.71-6.75-.94c-1.7-.09-2.22.09-3-.35C190.85,53.57,190.36,51.66,190.22,49.89Z"/><path class="cls-6" d="M183.48,47.62c-.77-1.29-2.44-2.42-3.76-2-1.63.48-1.4,2.92-2.93,3.32s-2.24-1.65-4.42-1.78c-1.84-.11-4,1.18-4.3,2.69-.47,2.35,3.43,5.77,6.4,5.36,2.22-.3,3.07-2.64,5.71-2.53,1.31.06,1.76.66,2.52.3C184,52.32,184.61,49.55,183.48,47.62Z"/><g class="cls-4"><path d="M256,65.57a7.55,7.55,0,0,1-1.81,3.78c-2.59,2.84-26.28,12-44.51,18.16-1.95.66-3.84,1.29-5.64,1.87a.43.43,0,0,1,0,0c2.32-12.66.74-23.49-3-30.62A37.32,37.32,0,0,0,195,50.22a41.68,41.68,0,0,0-8.33-6.8,38.08,38.08,0,0,0-5.79-3c1-.13,2-.24,2.88-.31.69-.06,1.35-.1,2-.13h0c2.32,0,3.72.18,3.72.18s21.77.61,33.71,2.15C235.75,44,247,52.42,251.74,55.68A10.09,10.09,0,0,1,256,65.57Z"/></g><path class="cls-9" d="M259.48,65.5a7.64,7.64,0,0,1-1.82,3.78C255.09,72.1,232,80.15,213.89,86.11l-.94.31-3.31,1.09-1.66.54h0c.3-1.61.52-3.17.68-4.68,1.11-10.39-.86-18.49-4.11-24.72a40.59,40.59,0,0,0-20.82-18.51c.69-.06,1.35-.1,2-.13h0a48.61,48.61,0,0,1,7.23.11h.79l.33,0h1.42l.6,0h.3l.32,0h.38l.57,0H198l.33,0c1.23,0,2.64.1,4.15.17l1.13.05,2.59.13.44,0,3,.16,1.11.07H211l1.18.07,2.36.16,1.17.08,1.34.1,1.95.15,1.33.12,1.27.11,1.14.11.42,0c1,.11,2,.21,2.93.33l.29,0,.31,0,.24,0H227l.51.07h.05l.54.09h0l.5.09.26,0,.31,0,.2.05.39.08.2,0,.42.1h.07l.53.13.57.15.55.15h0l.54.15h0l.49.15.18.06.34.1.29.1.36.12c.36.12.73.24,1.08.37l.54.2.51.2.08,0,.49.19.52.21.49.2,1.45.64.45.21c.71.32,1.4.66,2.07,1l.48.25.48.25.42.22c.65.35,1.28.7,1.9,1.06l.45.26.44.26.86.51.42.26,2,1.29.7.46.37.25.31.21,1.09.73.61.42,1.51,1.06.46.31.71.5A10.2,10.2,0,0,1,259.44,62,9.6,9.6,0,0,1,259.48,65.5Z"/><g class="cls-4"><path d="M259.48,65.5a7.64,7.64,0,0,1-1.82,3.78C255.09,72.1,232,80.15,213.89,86.11l-.94.31c-1.71.57-3.38,1.11-5,1.62h0c-8.67,2.8-15.21,4.82-16.05,5-2.63.65-22.42,6.31-27.66,4.74a68,68,0,0,1,6.24-14.92c.32-.57.65-1.15,1-1.73,0,.15.89,10.7,7.86,9.79,2.78-.37,15.21-3.63,29.3-7.59,21.42-6,46.67-13.64,47.71-15.15A56.19,56.19,0,0,0,259.44,62,9.6,9.6,0,0,1,259.48,65.5Z"/></g><g class="cls-4"><ellipse class="cls-10" cx="194.08" cy="65.76" rx="5.23" ry="2.79" transform="translate(-10.63 56.57) rotate(-16.15)"/></g><g class="cls-4"><ellipse class="cls-10" cx="212.17" cy="52.7" rx="2.79" ry="5.23" transform="translate(135.45 257.42) rotate(-83.4)"/></g><g class="cls-4"><ellipse class="cls-10" cx="165.41" cy="55.14" rx="3.75" ry="2" transform="translate(-6.61 83.61) rotate(-27.83)"/></g><g class="cls-4"><ellipse class="cls-10" cx="173.06" cy="45.26" rx="2.29" ry="1.22" transform="matrix(0.99, -0.13, 0.13, 0.99, -4.43, 22.98)"/></g><g class="cls-4"><ellipse class="cls-10" cx="189.1" cy="71.22" rx="3.22" ry="1.55" transform="translate(-12.35 55.4) rotate(-16.15)"/></g><g class="cls-4"><path d="M209.51,59.36c1.87,4.43,5.13,12.44,3.89,16.28,3.27.69,3.91-12,12.2-12.54s23-1.17,24-.7,1.73-2-.26-2.72S208.36,56.64,209.51,59.36Z"/></g><g class="cls-4"><path class="cls-10" d="M247.09,55.94c-4.09-5.7-48.75-15.52-49.43-15.67,7,.27,20.2.88,28.7,1.94l.31,0,.24,0c5,.76,17.07,7.73,18.7,9.28S251.21,61.67,247.09,55.94Z"/></g><path class="cls-3" d="M286.24,72a7.63,7.63,0,0,1-.9,4.09c-1.85,3.34-22.44,16.51-38.68,26.51l-.84.51-3,1.82-1.5.91L237.78,108c-6,3.61-10.23,6.12-10.87,6.45-2.41,1.24-20.35,11.35-25.81,11s-17.48-6.21-19.09-7.62a15.46,15.46,0,0,1-4.56-8.86c-3.2-26.95,14.12-38.47,26.49-43.21.95-.36,1.86-.69,2.74-1,.65-.22,1.28-.41,1.89-.59h0a48.07,48.07,0,0,1,7.06-1.56l.13,0h.06l.26-.06.12,0,.2,0,.32-.07.16,0,.15,0,.17,0,.35-.07.29-.05.28-.06.59-.12L219,62l.32-.06.37-.08.56-.11.31-.06.32-.06,4.09-.8,1.1-.21,2.55-.47.44-.08,3-.54,1.09-.19.22,0,1.17-.21,2.33-.39,1.16-.19,1.33-.22,1.93-.3,1.32-.2,1.26-.18,1.13-.16.43,0c1-.14,2-.26,2.92-.36l.29,0,.31,0,.24,0h.06l.51,0h.05l.56,0h0l.5,0h3l.57,0h0l.55,0h0l.52,0h.18l.36,0,.31,0,.37,0c.38,0,.76.07,1.14.12l.57.07.54.07h.08l.52.07.57.09.51.08,1.56.28.49.1c.76.16,1.51.32,2.25.5l.52.13.52.13.46.12,2.1.59.49.15.49.15.95.3.47.16c.8.26,1.56.52,2.29.78l.79.29.41.15.36.13,1.22.46.7.27,1.71.68.52.2.8.31a10.19,10.19,0,0,1,5.56,5.3A9.55,9.55,0,0,1,286.24,72Z"/><g class="cls-4"><path d="M199.57,122s-21.21-4-19.36-20.67,15-7.26,15-7.26L211,107.75Z"/></g><path class="cls-5" d="M203,103.59c0,2.38-1.48,4.82-2.53,6.53l-.13.22c-.36.58-.72,1.16-1.11,1.71a8.14,8.14,0,0,1-3.61,3.22c-5,2-12.95-2.94-15.46-9.21-.13-.32-.24-.64-.34-1s-.16-.57-.23-.85a12.85,12.85,0,0,1-.23-1.6,15.37,15.37,0,0,1,.06-2.74,24.82,24.82,0,0,1,.49-2.75c.22-1,.44-1.93.7-2.79.49-1.61,1.15-2.89,2.32-3.4a2.16,2.16,0,0,1,1.08-.19c1.66.12,3.7,2.06,8.81,4.92,6.76,3.79,9,3.67,9.89,6.11l0,.06A5.33,5.33,0,0,1,203,103.59Z"/><g class="cls-4"><path d="M207.62,93.17a7.32,7.32,0,0,1,0,1.93c-.29,2.92-2.1,6-4.71,8.49a19.72,19.72,0,0,1-11.71,5.58c-.36,0-.72,0-1.08,0a16.48,16.48,0,0,1-5.21-1,30.82,30.82,0,0,1-3.13-1.33l-1.71-.84c-.13-.32-.24-.64-.34-1s-.16-.57-.23-.85a12.85,12.85,0,0,1-.23-1.6c-1.7-1-3-2.07-3.34-3.52a54.66,54.66,0,0,1,4.59-4.76c.91-.91,1.93-2,3.05-3.21.12-.13.23-.26.35-.38,6.07-6.78,6.54-9.39,9.68-9.71,3.68-.38,7,2.8,9.19,4.93l.23.22c.58.59,1.18,1.17,1.73,1.78A10,10,0,0,1,207.62,93.17Z"/></g><path class="cls-6" d="M191.54,112.15c-.37,1.17-1,3.22,0,4.3a2.09,2.09,0,0,0,2.14.54c1-.41,1-1.8,1.55-3,1.54-3.62,6.2-2.81,7.6-5.85,1-2.16,0-5.51-1.69-6.18C198.34,100.8,193.16,107,191.54,112.15Z"/><path class="cls-7" d="M182,98.77s.64-31.35,22.4-29.24C204.37,69.71,182,98.77,182,98.77Z"/><path class="cls-5" d="M207.66,95.1a17.4,17.4,0,0,1-5,6.71,19.37,19.37,0,0,1-10.78,4.73c-.36,0-.72,0-1.08,0a16.47,16.47,0,0,1-5.2-1,28.68,28.68,0,0,1-3.13-1.33c-1.12-.54-2.2-1.06-3.16-1.62-1.7-1-3-2.07-3.34-3.52l0-.14c-.5-2.6,2.46-4,8.32-10.46,6.39-7.06,6.82-9.76,10-10.09,3.68-.37,7,2.8,9.19,4.93.08.08.16.15.23.23.59.58,1.18,1.17,1.73,1.77a9.9,9.9,0,0,1,2.83,5.17A8.89,8.89,0,0,1,207.66,95.1Z"/><path class="cls-6" d="M184.55,103.44a1.19,1.19,0,0,1-1.23.06c-1.25-.69-1.6-1.33-1.65-1.83-.11-1.1,1.24-1.59,1.19-2.88s-1.45-1.55-1.6-2.84c-.17-1.59,1.72-3.51,2.73-3.24s.44,2,2,5.2c.61,1.25,1,1.55.94,2.28C186.93,101.52,185.76,102.63,184.55,103.44Z"/><g class="cls-4"><path d="M191.88,106.54c-1.3-3.46-.8-7.72,1.38-9.43,2.72-2.14,6.53-2,9.1-4s-1.12-3.94.7-8.86a9.7,9.7,0,0,1,.41-.93c.08.08.16.15.23.23.59.58,1.18,1.17,1.73,1.77a9.9,9.9,0,0,1,2.83,5.17C209.3,97.4,200.42,105.94,191.88,106.54Z"/></g><path class="cls-5" d="M206.19,113.27c-4,.11-8.2-.19-10.75-3.18-3-3.51-3-9.91-.16-12.11s6.52-2,9.1-4-1.12-3.93.7-8.85c1.67-4.54,6.85-6.35,15.95-9.4,10.55-3.53,15.83-5.3,20-3.18,7,3.52,10.09,14.8,7.53,23C243.41,112.29,216.14,113,206.19,113.27Z"/><path class="cls-7" d="M209.24,101.9a4.2,4.2,0,0,0-3.12-.84c-2.23.45-2.27,3.18-5.55,7.42-2.07,2.68-3.13,3-4,5.3-.38,1-1.27,3.4-.16,4.91,1.26,1.71,4.55,1.51,6.29.88C207.15,118,209.49,110.87,209.24,101.9Z"/><g class="cls-4"><path d="M284.49,72.06a7.67,7.67,0,0,1-.9,4.1c-1.17,2.12-9.88,8.19-20.23,14.89-7.83,5.07-16.59,10.5-23.76,14.86-7.78,4.74-13.68,8.22-14.44,8.62-2.41,1.24-20.35,11.35-25.8,11a68,68,0,0,1,2.6-16c.17-.63.37-1.27.57-1.92C205.92,97,213,84.34,227.45,78.85l2-.75c25.19-9.18,46.08-9.89,53.78-6.66a9.71,9.71,0,0,1,1.25.62Z"/></g><path class="cls-3" d="M286.24,72a7.63,7.63,0,0,1-.9,4.09c-1.17,2.12-9.88,8.19-20.23,14.89-7.83,5.07-16.59,10.5-23.76,14.86-7.78,4.74-13.68,8.22-14.44,8.62-2.41,1.24-20.35,11.35-25.81,11a68.67,68.67,0,0,1,2.6-16c.18-.63.37-1.27.58-1.92,3.39-10.74,10.41-23.35,24.92-28.84l2-.75c25.19-9.17,46.08-9.88,53.77-6.66a8.56,8.56,0,0,1,1.25.62Z"/><path class="cls-8" d="M208.68,67.2a8.94,8.94,0,0,0-4,.31c-2,.73-4.45,2.61-4.13,4.16S204,74,206,74.06c1.66,0,1.73.75,1.88,1,.24.5-1.15,1-3.24,2.3-4.28,2.63-6.25,2.51-6.42,3.64-.28,1.78,4.24,4.56,8.73,5,1,.1,7.05.72,9.51-3.2,1-1.56-.12-2.83.94-4.1,1.65-2,5-.51,5.69-1.8.75-1.45-2.74-4.87-5.42-6.69A18.23,18.23,0,0,0,208.68,67.2Z"/><path class="cls-6" d="M215.24,72.85a1.48,1.48,0,0,1,.34-1.47c1.22-1.24,2.09-1.44,2.69-1.33,1.34.24,1.46,2,3,2.35s2.32-1.19,3.88-.93c1.92.32,3.55,3.17,2.9,4.28-.57,1-2.46-.15-6.78.64-1.67.31-2.14.61-3,.36C216.71,76.29,215.79,74.54,215.24,72.85Z"/><path class="cls-6" d="M208.16,72.21c-1-1.09-2.93-1.79-4.12-1.11-1.48.86-.69,3.18-2.08,3.92s-2.56-1.09-4.71-.72c-1.82.32-3.62,2.08-3.56,3.62.08,2.39,4.67,4.82,7.46,3.74,2.09-.82,2.38-3.29,5-3.79,1.29-.24,1.87.24,2.52-.3C209.77,76.65,209.71,73.82,208.16,72.21Z"/><g class="cls-4"><path d="M282.83,72.9a7.53,7.53,0,0,1-.89,4.09c-1.86,3.36-22.79,17.74-39.09,28-1.75,1.1-3.45,2.15-5.06,3.13a.07.07,0,0,0,0,0c-.67-12.85-4.71-23-10-29.1A37.94,37.94,0,0,0,220,72.07a41.87,41.87,0,0,0-9.68-4.68,37.81,37.81,0,0,0-6.33-1.56c.95-.36,1.86-.69,2.74-1,.65-.22,1.28-.41,1.89-.59h0c2.26-.51,3.66-.68,3.66-.68s21.32-4.45,33.29-5.71c12.64-1.34,25.56,4.29,30.91,6.37A10.09,10.09,0,0,1,282.83,72.9Z"/></g><path class="cls-9" d="M286.24,72a7.63,7.63,0,0,1-.9,4.09c-1.85,3.34-22.44,16.51-38.68,26.51l-.84.51-3,1.82-1.5.91h0c-.08-1.63-.23-3.2-.42-4.71-1.33-10.36-5.12-17.79-9.72-23.1a40.56,40.56,0,0,0-24.53-13.19c.65-.22,1.28-.41,1.89-.59h0a48.07,48.07,0,0,1,7.06-1.56l.13,0h.06l.26-.06.12,0,.2,0,.32-.07.16,0,.15,0,.17,0,.35-.07.29-.05.28-.06.59-.12L219,62l.32-.06.37-.08.56-.11.31-.06.32-.06,4.09-.8,1.1-.21,2.55-.47.44-.08,3-.54,1.09-.19.22,0,1.17-.21,2.33-.39,1.16-.19,1.33-.22,1.93-.3,1.32-.2,1.26-.18,1.13-.16.43,0c1-.14,2-.26,2.92-.36l.29,0,.31,0,.24,0h.06l.51,0h.05l.56,0h0l.5,0h3l.57,0h0l.55,0h0l.52,0h.18l.36,0,.31,0,.37,0c.38,0,.76.07,1.14.12l.57.07.54.07h.08l.52.07.57.09.51.08,1.56.28.49.1c.76.16,1.51.32,2.25.5l.52.13.52.13.46.12,2.1.59.49.15.49.15.95.3.47.16c.8.26,1.56.52,2.29.78l.79.29.41.15.36.13,1.22.46.7.27,1.71.68.52.2.8.31a10.19,10.19,0,0,1,5.56,5.3A9.55,9.55,0,0,1,286.24,72Z"/><g class="cls-4"><path d="M286.24,72a7.63,7.63,0,0,1-.9,4.09c-1.85,3.34-22.44,16.51-38.68,26.51l-.84.51-4.47,2.73h0c-7.79,4.73-13.69,8.21-14.46,8.6-2.41,1.24-20.35,11.34-25.81,11a68.4,68.4,0,0,1,2.61-16c.18-.63.38-1.27.58-1.92,0,.15,3.34,10.21,9.91,7.71,2.62-1,14-7,26.75-14.16,19.44-10.81,42.24-24.07,42.91-25.78a56.36,56.36,0,0,0,1.56-6.71A9.55,9.55,0,0,1,286.24,72Z"/></g><g class="cls-4"><ellipse class="cls-10" cx="222.68" cy="87.4" rx="5.23" ry="2.79" transform="translate(-14.15 121.09) rotate(-29.53)"/></g><g class="cls-4"><ellipse class="cls-10" cx="237.26" cy="70.51" rx="5.23" ry="2.79" transform="translate(-6.67 28.51) rotate(-6.78)"/></g><g class="cls-4"><ellipse class="cls-10" cx="192.33" cy="83.7" rx="3.75" ry="2" transform="translate(-7.5 147.44) rotate(-41.21)"/></g><g class="cls-4"><ellipse class="cls-10" cx="197.48" cy="72.31" rx="2.29" ry="1.22" transform="translate(-12.8 75.13) rotate(-20.88)"/></g><g class="cls-4"><ellipse class="cls-10" cx="219.09" cy="93.86" rx="3.22" ry="1.55" transform="translate(-17.81 120.16) rotate(-29.53)"/></g><g class="cls-4"><path d="M236.2,77.6c2.85,3.88,7.87,10.91,7.55,14.94,3.34-.08,1-12.57,9-15s22.13-6.46,23.2-6.23,1.21-2.38-.88-2.58S234.45,75.22,236.2,77.6Z"/></g><g class="cls-4"><path class="cls-10" d="M272,65.58c-5.3-4.6-51-3.82-51.71-3.81,6.86-1.36,19.85-3.82,28.37-4.75l.31,0,.24,0c5.08-.42,18.39,3.57,20.34,4.7S277.3,70.21,272,65.58Z"/></g><circle class="cls-11" cx="211.36" cy="108.67" r="1.83"/><circle class="cls-11" cx="232.1" cy="97.72" r="1.83"/><path class="cls-11" d="M219.7,107.85a5.25,5.25,0,0,1-1-.08.47.47,0,0,1-.38-.55.48.48,0,0,1,.56-.38,7.54,7.54,0,0,0,4.44-.86,8,8,0,0,0,3.29-3.23.47.47,0,1,1,.86.4,9,9,0,0,1-7.76,4.7Z"/><rect class="cls-12" y="0.25" width="300" height="165"/></g></g></svg>