<svg xmlns="http://www.w3.org/2000/svg" xmlns:xlink="http://www.w3.org/1999/xlink" viewBox="0 0 300 165"><defs><style>.cls-1{isolation:isolate;}.cls-2{fill:#fce5cd;}.cls-3{fill:#f9dca0;}.cls-4{opacity:0.52;}.cls-10,.cls-4,.cls-5,.cls-6{mix-blend-mode:soft-light;}.cls-5{opacity:0.81;}.cls-6{opacity:0.48;}.cls-7{fill:#ff9a08;}.cls-8{fill:#fff;}.cls-9{fill:#e5884a;}.cls-10{opacity:0.58;}.cls-11{fill:#3f240f;}.cls-12{fill:url(#linear-gradient);}</style><linearGradient id="linear-gradient" x1="150.37" y1="168.37" x2="149.66" y2="1.92" gradientUnits="userSpaceOnUse"><stop offset="0.03" stop-color="#591c16"/><stop offset="0.22" stop-color="#5f241d" stop-opacity="0.96"/><stop offset="0.38" stop-color="#733c33" stop-opacity="0.84"/><stop offset="0.53" stop-color="#936459" stop-opacity="0.64"/><stop offset="0.68" stop-color="#c09d8d" stop-opacity="0.36"/><stop offset="0.82" stop-color="#fae5cf" stop-opacity="0"/></linearGradient></defs><g class="cls-1"><g id="Layer_1" data-name="Layer 1"><rect class="cls-2" x="-0.27" y="-0.15" width="300" height="165"/><path class="cls-3" d="M271.8,91.84V128a2.51,2.51,0,0,1-2.9,2.48L168.6,114.32a2.5,2.5,0,0,1-2.1-2.47c0-1.61,0-4,0-6.95v-.83c0-3.41,0-7.41,0-11.51V75.49c0-2.17,0-4.08,0-5.62a2.5,2.5,0,0,1,3-2.44l34.91,7.64L267,88.76h0l2.85.62A2.5,2.5,0,0,1,271.8,91.84Z"/><path class="cls-3" d="M271.8,96v36.16a2.5,2.5,0,0,1-2.9,2.47L168.6,118.51a2.5,2.5,0,0,1-2.1-2.47c0-1.61,0-4,0-7v-.82c0-3.41,0-7.41,0-11.51V79.67c0-2.16,0-4.07,0-5.61a2.5,2.5,0,0,1,3-2.44l34.91,7.64L267,93h0l2.85.63A2.5,2.5,0,0,1,271.8,96Z"/><g class="cls-4"><ellipse cx="235.99" cy="123.5" rx="1.65" ry="6.05" transform="translate(92.18 347.7) rotate(-84.95)"/></g><g class="cls-5"><path d="M271.8,124.86V132a2.51,2.51,0,0,1-2.9,2.48L168.6,118.34a2.51,2.51,0,0,1-2.1-2.48c0-1.61,0-4,0-7v-.83l1.76,1.09s-1.18,5.46,0,6.38S264.3,132.17,265.87,132s4.64-1.63,4.85-4.47S271.8,124.86,271.8,124.86Z"/></g><g class="cls-4"><ellipse cx="258.84" cy="125.95" rx="1.65" ry="6.05" transform="translate(110.59 372.69) rotate(-84.95)"/></g><g class="cls-6"><path d="M271.8,119.13v8.71a13.64,13.64,0,0,1-8,.18c-5.81-1.67-6.36-6.67-10.82-6.61-3.39,0-5.23,3-7.85,1.79-1.73-.79-1.6-2.38-3.31-2.86-2.68-.75-5.7,2.42-6.1,2.86-2.8,3-2,5.54-4,6.43-2.35,1-6.26-1.13-6.62-3.39-.29-1.76,1.66-2.93,1-4.47a2.89,2.89,0,0,0-2.61-1.61c-2,0-2.56,2.44-4.19,2.32s-2.9-2.86-3.31-4.29-.12-2-.35-3c-.69-3.21-5-6-8.9-6.08-4.14,0-7.61,3-8.54,3.76a24.75,24.75,0,0,1-2.62,2.14A12.92,12.92,0,0,1,191,117.3c-1.43.25-2.67-.23-10.81-5.9-2.94-2.05-3.58-2.55-4.88-2.68-2.82-.3-3.79,1.6-6.63,1.25a7.19,7.19,0,0,1-2.24-.68v-5.51c5.08-1.36,20.39-1.56,38-.37,22.83,1.56,49.49,5.48,62.53,12.28h0a26.35,26.35,0,0,1,3.95,2.48A4.76,4.76,0,0,1,271.8,119.13Z"/></g><path class="cls-7" d="M165.23,103.31c-.39.22-1.49.84-1.57,1.79-.14,1.54,2.41,3.6,5.06,3.93,2.84.35,3.81-1.55,6.63-1.25,1.3.14,1.94.63,4.88,2.68,8.14,5.67,9.38,6.15,10.81,5.9a12.75,12.75,0,0,0,4.54-2.33,24.75,24.75,0,0,0,2.62-2.14c.93-.81,4.4-3.81,8.54-3.75,3.94,0,8.21,2.86,8.9,6.07.23,1.08-.09,1.55.35,3s1.62,4.18,3.31,4.29,2.17-2.32,4.19-2.32a2.89,2.89,0,0,1,2.61,1.61c.62,1.54-1.33,2.71-1,4.47.36,2.26,4.27,4.43,6.62,3.39,2-.89,1.22-3.42,4-6.43.4-.44,3.42-3.61,6.1-2.86,1.71.48,1.58,2.07,3.31,2.86,2.63,1.18,4.46-1.75,7.85-1.79,4.46-.06,5,4.94,10.82,6.62,4.59,1.32,10.07-.12,10.64-2.33.46-1.81-2.24-6.56-3.49-7.53C251.93,102.53,172.5,99.21,165.23,103.31Z"/><g class="cls-4"><ellipse class="cls-8" cx="228.12" cy="124.22" rx="2.04" ry="1.3" transform="translate(39.94 303.27) rotate(-72.15)"/></g><path class="cls-3" d="M271.8,109.6v11.25L166.49,104.9c0-3.59,0-7.9,0-12.34l2.69.44,101.76,16.46Z"/><path class="cls-9" d="M166.47,71.4V64.29a2.53,2.53,0,0,1,1-2C173.18,57.81,203,34.75,213,31.83a3.29,3.29,0,0,1,2.94.55c9,7,48.54,43.76,55,49.73a2.77,2.77,0,0,1,.88,2v5.25Z"/><g class="cls-4"><ellipse class="cls-8" cx="181.05" cy="103.27" rx="2.25" ry="6.83" transform="translate(53.77 268.32) rotate(-82.06)"/></g><g class="cls-4"><ellipse class="cls-8" cx="241.75" cy="109.2" rx="2.25" ry="6.83" transform="translate(100.21 333.55) rotate(-82.06)"/></g><g class="cls-10"><path d="M271.8,109.7v11.15L166.49,104.9c0-3.59,0-7.9,0-12.34l2.69.44s-1.12,6.85,0,8.62.76,2.64,3,3,92.8,14.13,94.37,14,3.14-.87,3.49-2.61.87-6.49.87-6.49Z"/></g><g class="cls-6"><path d="M167,90.38l-3,9.24a12.31,12.31,0,0,0,7.57,2.66c6.11,0,8.33-5.13,12.56-3.7,3.21,1.08,4,4.75,6.86,4.3,1.92-.3,2.34-2,4.13-2,2.8,0,4.59,4.32,4.83,4.91,1.64,4,0,6.49,1.62,8.06,1.88,1.82,6.35.71,7.47-1.58.87-1.77-.58-3.61.53-5.06a2.9,2.9,0,0,1,3-.91c1.92.62,1.6,3.37,3.19,3.75s3.74-2.14,4.62-3.53.79-2,1.37-3.12c1.75-3.2,6.79-4.87,10.55-3.73,4,1.21,6.24,5.46,6.85,6.61a24,24,0,0,0,1.76,3.08,12.15,12.15,0,0,0,3.52,3.85c1.28.71,2.63.58,12.31-2.94,3.49-1.27,4.27-1.6,5.56-1.35,2.78.55,3.07,2.86,5.89,3.36a6.69,6.69,0,0,0,2.36,0l1.88-5.85c-4.37-3-18.87-7.91-36-12-22.26-5.35-49-9.36-63.71-6.14h0a25.8,25.8,0,0,0-4.61,1.42A5.2,5.2,0,0,0,167,90.38Z"/></g><path class="cls-7" d="M273.87,106.26a3,3,0,0,1,.89,2.38c-.4,1.68-3.54,3.09-6.16,2.62-2.82-.5-3.11-2.81-5.88-3.36-1.29-.25-2.08.08-5.57,1.35-9.68,3.53-11,3.65-12.31,3s-2.53-2.43-3.52-3.86a24,24,0,0,1-1.76-3.08c-.61-1.14-2.89-5.39-6.85-6.6-3.76-1.15-8.8.52-10.55,3.72-.58,1.08-.44,1.67-1.37,3.12s-3,3.93-4.62,3.54-1.27-3.13-3.19-3.75a2.91,2.91,0,0,0-3,.9c-1.11,1.46.34,3.29-.53,5.07-1.12,2.29-5.59,3.39-7.47,1.57-1.62-1.57,0-4-1.62-8.06-.23-.59-2-4.88-4.83-4.91-1.79,0-2.21,1.72-4.13,2-2.9.46-3.65-3.21-6.86-4.3-4.23-1.43-6.45,3.7-12.56,3.7-4.83,0-9.55-3.21-9.33-5.72.18-2.07,4.37-6.29,5.89-6.93C191.61,78.85,268.35,99.68,273.87,106.26Z"/><g class="cls-4"><ellipse class="cls-8" cx="206.87" cy="109.18" rx="2.26" ry="1.31" transform="translate(84.99 308.83) rotate(-86.42)"/></g><path class="cls-3" d="M271.74,97v11.25l-105.31-16c0-3.58,0-7.9,0-12.33l2.68.43L270.87,96.9Z"/><g class="cls-10"><path d="M271.74,97.14v11.15l-105.31-16c0-3.58,0-7.9,0-12.33l2.68.43s-1.11,6.85,0,8.62.77,2.64,3,3,92.8,14.13,94.37,14,3.13-.87,3.48-2.61.88-6.49.88-6.49Z"/></g><g class="cls-6"><path d="M271.8,93.3V103a12.32,12.32,0,0,1-8,.2c-5.81-1.87-6.36-7.43-10.82-7.37-3.39,0-5.23,3.32-7.85,2-1.73-.87-1.6-2.65-3.31-3.19-2.68-.83-5.7,2.71-6.1,3.19-2.8,3.36-2,6.18-4,7.18-2.35,1.15-6.26-1.26-6.62-3.79-.29-2,1.66-3.26,1-5a2.89,2.89,0,0,0-2.61-1.8c-2,0-2.56,2.72-4.19,2.6s-2.9-3.19-3.31-4.79-.12-2.19-.35-3.39c-.69-3.58-5-6.71-8.9-6.77-4.14-.07-7.61,3.28-8.54,4.18a24.73,24.73,0,0,1-2.62,2.39c-1.38,1.06-3,2.29-4.54,2.59s-2.67-.25-10.81-6.57c-2.94-2.28-3.58-2.84-4.88-3-2.82-.33-3.79,1.78-6.63,1.39a6.59,6.59,0,0,1-2.24-.75V76.18c5.08-1.52,20.39-1.74,38-.41,22.83,1.74,49.49,6.11,62.53,13.69h0a26.79,26.79,0,0,1,3.95,2.76A5.5,5.5,0,0,1,271.8,93.3Z"/></g><path class="cls-7" d="M165.23,75.66c-.39.24-1.49.93-1.57,2-.14,1.72,2.41,4,5.06,4.39,2.84.38,3.81-1.73,6.63-1.4,1.3.15,1.94.71,4.88,3,8.14,6.32,9.38,6.86,10.81,6.58a12.57,12.57,0,0,0,4.54-2.59,27.12,27.12,0,0,0,2.62-2.39c.93-.91,4.4-4.26,8.54-4.19,3.94.06,8.21,3.2,8.9,6.78.23,1.2-.09,1.72.35,3.39s1.62,4.65,3.31,4.78,2.17-2.59,4.19-2.59a2.89,2.89,0,0,1,2.61,1.79c.62,1.72-1.33,3-1,5,.36,2.53,4.27,5,6.62,3.79,2-1,1.22-3.82,4-7.17.4-.49,3.42-4,6.1-3.19,1.71.53,1.58,2.31,3.31,3.19,2.63,1.32,4.46-2,7.85-2,4.46-.06,5,5.51,10.82,7.38,4.59,1.48,10.07-.13,10.64-2.59.46-2-2.24-7.32-3.49-8.4C251.93,74.79,172.5,71.09,165.23,75.66Z"/><g class="cls-4"><ellipse class="cls-8" cx="228.12" cy="98.98" rx="2.26" ry="1.31" transform="translate(75.95 295.64) rotate(-75.72)"/></g><g class="cls-4"><ellipse class="cls-8" cx="250.48" cy="112.83" rx="1.6" ry="3.23" transform="translate(104.14 345.33) rotate(-82.06)"/></g><path class="cls-3" d="M271.8,85.93v4.62a1.12,1.12,0,0,1-1.31,1.1L244.38,87.2l-77-13.13a1.12,1.12,0,0,1-.93-1.11V66.61a1.12,1.12,0,0,1,.44-.89l.12-.09.2-.15s0,0,0,0l.14-.11.06,0,.15-.11,0,0,.16-.13.94-.71.24-.18.5-.39.27-.2,2-1.5.17-.13.18-.13.51-.39,1.15-.86.71-.53,1.11-.83.38-.28L178.45,57l.69-.51.68-.5.47-.34,1.45-1,1.8-1.3,2.13-1.52.5-.35c2.38-1.69,4.82-3.38,7.23-5l.95-.63.54-.37.86-.57.93-.61.74-.48.5-.32.49-.32,1-.64.89-.56.05,0,.48-.3c1.14-.7,2.25-1.37,3.31-2l1.2-.68,1.27-.7.41-.21,1.17-.6.3-.15.5-.25.65-.3h0l.62-.27.1,0c.09,0,.19-.08.28-.12l.32-.13.31-.11.3-.11.26-.09.05,0,.2-.06.33-.1.2-.05.55-.13.21,0a1.24,1.24,0,0,1,.27,0,1.07,1.07,0,0,1,.69.19c.39.27.91.66,1.53,1.15l.29.23,1.37,1.1.5.41.38.32h0c4.23,3.48,10.73,9.06,17.76,15.18,3.32,2.89,6.77,5.91,10.15,8.87l1.15,1,3.67,3.23.69.6,8.37,7.39.55.49.93.82.46.41,8.12,7.2.2.17,1,.88A1.11,1.11,0,0,1,271.8,85.93Z"/><g class="cls-4"><ellipse cx="190.57" cy="63.58" rx="1.65" ry="4.94" transform="translate(86.46 235.4) rotate(-77.24)"/></g><g class="cls-4"><ellipse cx="174.42" cy="90.19" rx="1.65" ry="6.05" transform="translate(69.22 255.99) rotate(-84.95)"/></g><g class="cls-4"><ellipse cx="179.71" cy="87.49" rx="1.65" ry="3.14" transform="translate(76.74 258.8) rotate(-84.95)"/></g><g class="cls-4"><ellipse cx="214.41" cy="60.17" rx="1.65" ry="2.91" transform="translate(108.36 255.99) rotate(-77.24)"/></g><g class="cls-4"><ellipse cx="250.52" cy="74.82" rx="1.65" ry="2.91" transform="translate(122.2 302.62) rotate(-77.24)"/></g><g class="cls-4"><ellipse cx="222.87" cy="59.7" rx="1.65" ry="7.11" transform="translate(84.51 244.34) rotate(-68.15)"/></g><g class="cls-4"><path d="M271.8,85.42v5.13a1.12,1.12,0,0,1-1.31,1.1L244.38,87.2l-77-13.13a1.12,1.12,0,0,1-.93-1.11v-6.9l.44-.34.12-.09.2-.15s0,0,0,0l.14-.11.06,0,.15-.11,0,0,.16-.13.94-.71.24-.18.5-.39.27-.2,2-1.5.17-.13.18-.13.51-.39,1.15-.86.71-.53,1.11-.83.38-.28L178.45,57l.69-.51.68-.5.47-.34,1.45-1,1.8-1.3,2.13-1.52.5-.35c2.38-1.69,4.82-3.38,7.23-5l.95-.63.54-.37.86-.57.93-.61.74-.48.5-.32.49-.32,1-.64.89-.56.05,0,.48-.3c1.14-.7,2.25-1.37,3.31-2l1.2-.68,1.27-.7.41-.21,1.17-.6.3-.15.5-.25.65-.3h0l.62-.27.1,0c.09,0,.19-.08.28-.12l.32-.13.31-.11.3-.11.26-.09.05,0,.2-.06.33-.1.2-.05.55-.13.21,0a1.24,1.24,0,0,1,.27,0,2.36,2.36,0,0,1,.37,0l.32.21c.39.27.91.66,1.53,1.15l.29.23,1.37,1.1.5.41.38.32c-.14,0-5.11-1.36-9.06,1.74s-35.24,23-34.89,24.07,2.12,3.21,17.81,6.14l.2,0,52.75,9.7s15.23,3,16.63,0c.89-1.9-23.54-24.58-25.68-26.51h0c3.32,2.89,6.77,5.91,10.15,8.87l1.15,1,3.67,3.23.69.6,8.37,7.39.55.49.93.82.46.41,8.12,7.2.2.17,1,.88Z"/></g><circle class="cls-11" cx="203.54" cy="63.01" r="2.09"/><circle class="cls-11" cx="233.99" cy="67.26" r="2.09"/><path class="cls-11" d="M219.71,69.94a10.33,10.33,0,0,1-1.43-.1,9.48,9.48,0,0,1-5.32-2.5.52.52,0,0,1,0-.74.53.53,0,0,1,.74,0h0a8.62,8.62,0,0,0,4.71,2.19,9.19,9.19,0,0,0,5.23-.81.52.52,0,1,1,.51.91A9.73,9.73,0,0,1,219.71,69.94Z"/><rect class="cls-12" width="300" height="165"/></g></g></svg>