<svg xmlns="http://www.w3.org/2000/svg" xmlns:xlink="http://www.w3.org/1999/xlink" viewBox="0 0 300 165.5"><defs><style>.cls-1{isolation:isolate;}.cls-2{fill:#fce5cd;}.cls-3{fill:#f2cead;}.cls-4{fill:#914343;}.cls-5{fill:#6d4326;}.cls-6{opacity:0.33;}.cls-14,.cls-15,.cls-17,.cls-6,.cls-9{mix-blend-mode:soft-light;}.cls-7{fill:#547739;}.cls-8{fill:#ba3a3a;}.cls-9{opacity:0.52;}.cls-10{fill:#ffe8d9;}.cls-11{fill:#ffd9ab;}.cls-12{fill:#8e6955;}.cls-13{fill:#a56647;}.cls-14{opacity:0.71;}.cls-15{opacity:0.49;}.cls-16{fill:#fff;}.cls-17{opacity:0.9;}.cls-18{fill:url(#linear-gradient);}</style><linearGradient id="linear-gradient" x1="150.37" y1="168.62" x2="149.66" y2="2.17" gradientUnits="userSpaceOnUse"><stop offset="0.03" stop-color="#591c16"/><stop offset="0.22" stop-color="#5f241d" stop-opacity="0.96"/><stop offset="0.38" stop-color="#733c33" stop-opacity="0.84"/><stop offset="0.53" stop-color="#936459" stop-opacity="0.64"/><stop offset="0.68" stop-color="#c09d8d" stop-opacity="0.36"/><stop offset="0.82" stop-color="#fae5cf" stop-opacity="0"/></linearGradient></defs><g class="cls-1"><g id="Layer_1" data-name="Layer 1"><rect class="cls-2" y="0.25" width="300" height="165"/><ellipse class="cls-3" cx="210.82" cy="77.64" rx="61.77" ry="12.5"/><path class="cls-4" d="M150,81a7.36,7.36,0,0,1-1.33-1.86,5.38,5.38,0,0,1-.42-1.08,2.13,2.13,0,0,1-.09-.63,3.18,3.18,0,0,1,.06-.62,4.51,4.51,0,0,1,1.17-2,9.58,9.58,0,0,1,1.76-1.43,22.63,22.63,0,0,1,4-2,43.55,43.55,0,0,1,4.16-1.45c2.8-.85,5.65-1.52,8.51-2.09s5.75-1,8.64-1.45c5.78-.8,11.59-1.34,17.41-1.7s11.64-.53,17.47-.55,11.67.14,17.49.48,11.64.87,17.43,1.66c2.89.4,5.78.87,8.65,1.44a82.72,82.72,0,0,1,8.55,2.12,40.16,40.16,0,0,1,4.18,1.51c.69.3,1.37.62,2,1a16.27,16.27,0,0,1,1.95,1.23,7.74,7.74,0,0,1,1.72,1.75,4.36,4.36,0,0,1,.58,1.23,3.21,3.21,0,0,1,.13.7c0,.12,0,.24,0,.37l0,.33A6.33,6.33,0,0,1,273.8,79a7.51,7.51,0,0,1-.41,1.12,5.47,5.47,0,0,1-.64,1,3.2,3.2,0,0,1-1,.85l-.57-.73A5.48,5.48,0,0,0,272,79.6a13,13,0,0,0,.37-1.92c0-.08,0-.15,0-.22a1.15,1.15,0,0,0,0-.18,1.51,1.51,0,0,0-.06-.36,2.62,2.62,0,0,0-.35-.74,5.82,5.82,0,0,0-1.33-1.34,17.66,17.66,0,0,0-3.62-2,42.63,42.63,0,0,0-4-1.47,85.38,85.38,0,0,0-8.37-2.11q-4.26-.85-8.56-1.45a264.43,264.43,0,0,0-34.69-2.3c-5.8,0-11.61.1-17.4.4s-11.58.8-17.33,1.54c-2.88.38-5.74.81-8.59,1.34s-5.68,1.16-8.45,2c-1.39.4-2.76.84-4.1,1.37A23.11,23.11,0,0,0,151.63,74,9,9,0,0,0,150,75.26a3.61,3.61,0,0,0-1,1.67,2.42,2.42,0,0,0-.05.47,1.75,1.75,0,0,0,.05.44,5,5,0,0,0,.36,1,6.48,6.48,0,0,0,1.16,1.7Z"/><path class="cls-5" d="M256.82,77.83c-1.64,1.09-4.61,1-8,.17a49,49,0,0,1-15.53-7.18l-.59-.43c-.37-.29-.73-.57-1.06-.85a6.11,6.11,0,0,1-2.05-6.24,12.89,12.89,0,0,1,1.26-3,9.71,9.71,0,0,1,.8-1.17,8.75,8.75,0,0,1,1.85-1.73c7.6-5.24,24.43,1.29,26.55,10.77a1.06,1.06,0,0,1,0,.19C260.7,71.42,259.93,75.75,256.82,77.83Z"/><g class="cls-6"><path d="M258.21,76.59a10.73,10.73,0,0,1,0,6.49,6.18,6.18,0,0,1-5.09,4.34c-8.31,1.34-24.19-1.07-26.58-6-1.41-2.93-.45-6.4,1.22-8.82a60.45,60.45,0,0,1-21.66-.69c-2.46-.64-4.15-2.29-4.38-4.29a7.89,7.89,0,0,1,1.67-6.08,13.76,13.76,0,0,1,6.18-3.84c7.15-1.86,16.52-1.09,21.22,2.59a9.71,9.71,0,0,1,.8-1.17A9.55,9.55,0,0,1,234,61.2a8.06,8.06,0,0,1,1.74,4.89,1.43,1.43,0,0,0,1.61,1.44,25.62,25.62,0,0,1,15.43,3.11,3.11,3.11,0,0,0,3.34-.11c1.25-.85,2.56-1.67,3.87-2.4a1.06,1.06,0,0,1,0,.19A10.17,10.17,0,0,1,258.21,76.59Z"/></g><path class="cls-5" d="M275.85,72.92c-.26,2.9-2.33,5.8-5.18,8.17a24.54,24.54,0,0,1-8.45,4.52,17.17,17.17,0,0,1-3.19.64,10.16,10.16,0,0,1-4.46-.42l-.39-.15a7.61,7.61,0,0,1-3.93-4.09,4.3,4.3,0,0,1-.12-3.14,5.61,5.61,0,0,1,1.26-2.1,32.08,32.08,0,0,1,3.89-3.44h0c5.61-4.3,13.6-8.32,16.86-7C275,67.06,276.08,70.37,275.85,72.92Z"/><g class="cls-6"><path d="M254.57,85.83l-4.44-7.38a5.61,5.61,0,0,1,1.26-2.1,32.08,32.08,0,0,1,3.89-3.44h0s6.54,5.13,6.44,7.72,9.09,0,9.09,0l-.14.46-8.45,4.52-3.19.65Z"/></g><path class="cls-5" d="M232.68,70.39s0,0,0,0a6.79,6.79,0,0,1-2.86,1.73h0c-6.05,2.19-18.56,2-25.36.24-2.46-.64-4.16-2.29-4.38-4.29a9.21,9.21,0,0,1,0-1.9A7.41,7.41,0,0,1,201.7,62c1.67-2,4.54-3.48,7.91-4.36,7.15-1.86,16.52-1.09,21.22,2.59a9.31,9.31,0,0,1,1.48,1.46,8.42,8.42,0,0,1,1.59,3.42A6.08,6.08,0,0,1,232.68,70.39Z"/><path class="cls-5" d="M256.61,84.66a5.38,5.38,0,0,1-.64,1.47,6.18,6.18,0,0,1-4.3,2.75,37.47,37.47,0,0,1-7.89.28A46.89,46.89,0,0,1,231.94,87c-3-1-5.34-2.37-6.13-4a8.36,8.36,0,0,1,.55-7.54h0a10.86,10.86,0,0,1,1.52-2.15A9.38,9.38,0,0,1,229.37,72c.29-.21.59-.4.91-.59,7.76-4.5,22.55-1.26,26,6.22A10.1,10.1,0,0,1,256.61,84.66Z"/><g class="cls-6"><path d="M232.68,70.39s0,0,0,0a6.79,6.79,0,0,1-2.86,1.73h0c-6.05,2.19-18.56,2-25.36.24-2.46-.64-4.16-2.29-4.38-4.29a9.21,9.21,0,0,1,0-1.9c14.67,8.72,33.9-1.07,33.9-1.07A6.08,6.08,0,0,1,232.68,70.39Z"/></g><path class="cls-7" d="M219.91,96.56c-3.69,6.28-19.37,4-50.72-.52-3.95-.57-11.67-1.79-14.72-7.1a23.3,23.3,0,0,1-2.4-7.43c-.08-.51-.14-1-.19-1.57a18.81,18.81,0,0,1,0-4.28,1.43,1.43,0,0,1,0-.22c1.34-6.58,16.43-13.66,29.25-10.21,8.67,2.33,13.87,8.82,22,8.82a19.84,19.84,0,0,1,6.23.87,20.6,20.6,0,0,1,7.27,4.15C220.84,83.22,222.78,91.66,219.91,96.56Z"/><g class="cls-6"><path d="M206.75,84.91s-7.27-.12-8.4,0-1.64,2.79-4.57,2.15c-2.77-.6-37.84-6.17-41.71-6.79-.08-.51-.14-1-.19-1.57a18.9,18.9,0,0,1,0-4.29l1.29-1.08,13.81-5.21,39.12,12.17Z"/></g><path class="cls-8" d="M201,82.21c-4-1.11-6.95-1.95-7.76-4.36-1.27-3.77,3.31-9.38,6.81-9.26,2.33.08,2.91,2.65,5.45,2.59s3.05-2.73,6-3.27c2.63-.48,5.32,1.09,6.81,2.73,2.74,3,3,8,.95,10.75C215.7,86.25,206.12,83.63,201,82.21Z"/><g class="cls-6"><path d="M256,86.13a6.18,6.18,0,0,1-4.3,2.75,37.47,37.47,0,0,1-7.89.28A46.89,46.89,0,0,1,231.94,87l-5.11-7.27s-.28-2.23-.47-4.29h0a10.86,10.86,0,0,1,1.52-2.15A9.38,9.38,0,0,1,229.37,72s11.14,2.38,16.5,11.56C247.63,86.57,254.41,86.29,256,86.13Z"/></g><path class="cls-5" d="M241.59,87.07A7.52,7.52,0,0,1,237,93.8c-9.37,4.22-28.82,6.42-33.21,1.34a10.08,10.08,0,0,1-2-8.21,13.38,13.38,0,0,1,1.34-4.19c5.61-10.73,28.39-12.9,35.79-4A10.33,10.33,0,0,1,240.39,81,14,14,0,0,1,241.59,87.07Z"/><g class="cls-6"><path d="M241.59,87.07A7.52,7.52,0,0,1,237,93.8c-9.37,4.22-28.82,6.42-33.21,1.34a10.08,10.08,0,0,1-2-8.21A55.15,55.15,0,0,0,240.39,81,14,14,0,0,1,241.59,87.07Z"/></g><rect class="cls-4" x="192.19" y="111.49" width="39.22" height="5.5" rx="2.06"/><path class="cls-4" d="M273.2,77.42c0,20.7-27.9,37.49-62.31,37.49s-62.32-16.79-62.32-37.49c0,7,27.9,12.64,62.32,12.64S273.2,84.4,273.2,77.42Z"/><g class="cls-9"><path d="M192.16,113.08s8.92.94,18.57.94a201.06,201.06,0,0,0,20.48-1.3A68.72,68.72,0,0,1,192.16,113.08Z"/></g><circle class="cls-10" cx="198.34" cy="99.89" r="1.7"/><path class="cls-11" d="M193.31,84.84l-46-9.6a1.2,1.2,0,0,1-.82-1.78c4.66-8.89,13.93-16.37,25.15-20.22q1.43-.5,2.88-.9c.66-.19,1.34-.36,2-.52a2.21,2.21,0,0,1,1.26,0,1.25,1.25,0,0,1,.84.85l.35.59.6,1h0l12.2,21,1.36,2.33.69,1.2L195,80.92l1.12,1.92C196.45,84.05,194.74,85.26,193.31,84.84Z"/><path class="cls-12" d="M193.92,85.1a2.37,2.37,0,0,1-.65-.09l-46-9.6a1.51,1.51,0,0,1-1-.83,1.38,1.38,0,0,1,.08-1.2,39.08,39.08,0,0,1,10.16-12.06,50.48,50.48,0,0,1,15.08-8.25c1-.33,1.93-.63,2.89-.9.66-.18,1.34-.36,2-.52a2.4,2.4,0,0,1,1.36.06,1.42,1.42,0,0,1,.94.94L196.3,82.8a1.58,1.58,0,0,1-.53,1.55A2.71,2.71,0,0,1,193.92,85.1ZM177.06,51.93a2.39,2.39,0,0,0-.53.06c-.67.16-1.35.33-2,.52-1,.26-1.92.56-2.87.89a50.14,50.14,0,0,0-15,8.19,38.87,38.87,0,0,0-10.06,12,1,1,0,0,0-.07.9,1.14,1.14,0,0,0,.78.64l46,9.59a2.32,2.32,0,0,0,2.17-.57,1.29,1.29,0,0,0,.44-1.19L178.42,52.76a1.07,1.07,0,0,0-.73-.73A1.85,1.85,0,0,0,177.06,51.93Z"/><path class="cls-13" d="M178.36,57.15c-2.76,1.12-5.5,2.31-8.15,3.69a45.46,45.46,0,0,0-7.46,4.82c-2.18,1.76-4.68,3.92-4.95,6.9a4.16,4.16,0,0,0,1.4,3.64,3.22,3.22,0,0,0,3.43.51A6.5,6.5,0,0,0,165.1,74a37.55,37.55,0,0,1,2.34-3.51,30.19,30.19,0,0,1,2.91-3.28,25.36,25.36,0,0,1,3.32-2.8,4.08,4.08,0,0,1,2-.86,1.89,1.89,0,0,1,1.53.59,3.1,3.1,0,0,1,.58,2.94,8.09,8.09,0,0,1-2.42,3.28,10.73,10.73,0,0,0-2.58,3.19,3.6,3.6,0,0,0-.38,1.88,1.29,1.29,0,0,0,1.19,1.2,6.06,6.06,0,0,0,4-1.32c.94-.67,2.09-2,3.39-1.45a1,1,0,0,1,.53.46,1.49,1.49,0,0,1,0,1,2.63,2.63,0,0,0-.1,1.87,1,1,0,0,0,1.21.65c.31-.12.17-.62-.14-.5-.49.18-.74-.56-.71-.93.05-.71.49-1.34.3-2.07A1.56,1.56,0,0,0,181,73.34a2.36,2.36,0,0,0-1.69.18,9,9,0,0,0-1.68,1.19,8.25,8.25,0,0,1-1.86,1.09,4.76,4.76,0,0,1-2,.36.74.74,0,0,1-.67-.45,1.61,1.61,0,0,1-.06-.84A6.31,6.31,0,0,1,175,71.48a18.33,18.33,0,0,0,2.72-3,4.15,4.15,0,0,0,.58-3.32,2.68,2.68,0,0,0-2.12-2.08c-1.48-.21-2.78.85-3.86,1.71a28.5,28.5,0,0,0-3.14,2.87,31.43,31.43,0,0,0-2.72,3.27c-.42.58-.81,1.17-1.19,1.77s-.66,1.1-1,1.64a4.11,4.11,0,0,1-2.66,2.13,3,3,0,0,1-2.93-1.71,4.64,4.64,0,0,1,.16-4.09,11.17,11.17,0,0,1,2.69-3.31,39.87,39.87,0,0,1,7.08-5.07,73.21,73.21,0,0,1,7.87-3.82l2-.83c.3-.12.17-.62-.14-.5Z"/><circle class="cls-10" cx="223.36" cy="99.89" r="1.7"/><path class="cls-10" d="M211,103.83a7.79,7.79,0,0,1-4.62-1.43.52.52,0,0,1-.09-.73.51.51,0,0,1,.73-.08h0a6.94,6.94,0,0,0,4,1.21,7.34,7.34,0,0,0,4.07-1.22.52.52,0,0,1,.63.83A8.37,8.37,0,0,1,211,103.83Z"/><g class="cls-14"><path d="M193.19,80.46a2.44,2.44,0,0,1-3,.88l-33.53-15a1.05,1.05,0,0,1-.48-1.73C160.52,59.32,167,55,174.48,52.34c.66-.19,1.34-.36,2-.52a2.21,2.21,0,0,1,1.26,0,53.47,53.47,0,0,1,8.1-2.27c1.05-.14,2.1-.24,3.15-.32s1.82.42,1.87,1.12l0,.56,0,.32,2,24.83.12,1.52.06.78.13,1.52A1.07,1.07,0,0,1,193.19,80.46Z"/></g><path class="cls-11" d="M196.81,79.85a2.19,2.19,0,0,1-1.8,1.07,2.38,2.38,0,0,1-1.18-.17l-.64-.29L160.3,65.72a1.06,1.06,0,0,1-.48-1.74c4.25-5.17,10.57-9.4,17.93-12.11a53.47,53.47,0,0,1,8.1-2.27q.89-.18,1.8-.33c1.65-.27,3.31-.46,5-.58,1-.07,1.82.42,1.87,1.11l.09,1.06v.08l2.26,27.73.06.67A1,1,0,0,1,196.81,79.85Z"/><path class="cls-12" d="M194.76,81.11a2.39,2.39,0,0,1-1-.21l-.64-.28L160.23,65.87a1.39,1.39,0,0,1-.84-.91,1.26,1.26,0,0,1,.3-1.09c4.2-5.12,10.6-9.43,18-12.16a53.89,53.89,0,0,1,8.12-2.28l1.81-.33c1.66-.27,3.34-.47,5-.58,1.11-.08,2,.47,2.06,1.27l2.41,29.54a1.17,1.17,0,0,1-.11.6A2.39,2.39,0,0,1,195,81.1Zm-1.95-32.25h-.18c-1.63.11-3.3.3-4.95.57l-1.8.33A54.39,54.39,0,0,0,177.81,52c-7.35,2.71-13.69,7-17.85,12.06a.91.91,0,0,0-.23.79,1.06,1.06,0,0,0,.64.68l33.53,15a2.2,2.2,0,0,0,1.1.16,2,2,0,0,0,1.66-1h0a.8.8,0,0,0,.07-.43l0-.66-2.36-28.87C194.28,49.26,193.63,48.86,192.81,48.86Z"/><g class="cls-15"><path class="cls-16" d="M149.05,79s11.25,16,95.68,9.26C244.87,88.29,160.79,101.53,149.05,79Z"/></g><g class="cls-14"><path d="M200,52.32,197.9,78.81a1.06,1.06,0,0,1-.16.45l-.89-.59.06.67a1,1,0,0,1-.1.51,2.34,2.34,0,0,1-1.84-.24l-27.5-18.16a1,1,0,0,1-.16-1.61c6.43-5.65,16.29-9,26.75-9h.52c.38,0,.75,0,1.13,0,.95,0,1.89.09,2.84.17S200.09,51.69,200,52.32Z"/></g><path class="cls-11" d="M203.33,52.32l-2.14,26.49c-.09,1-1.86,1.5-2.93.8l-.52-.35-.89-.59L170.76,61.45a1,1,0,0,1-.17-1.61c5.87-5.15,14.58-8.37,24-8.9l1.12,0c.54,0,1.09,0,1.64,0,1.5,0,3,.07,4.49.2C202.73,51.15,203.38,51.69,203.33,52.32Z"/><path class="cls-12" d="M199.46,80.11a2.34,2.34,0,0,1-1.29-.36l-1.41-.93L170.67,61.59a1.23,1.23,0,0,1-.61-.94,1.12,1.12,0,0,1,.42-.94c5.87-5.15,14.65-8.42,24.1-9l1.12,0q.8,0,1.65,0c1.5,0,3,.07,4.5.21,1,.09,1.71.72,1.65,1.44h0l-2.14,26.49a1.3,1.3,0,0,1-.82,1.05A2.51,2.51,0,0,1,199.46,80.11ZM197.35,51c-.56,0-1.11,0-1.64,0l-1.11,0c-9.37.53-18.08,3.76-23.89,8.86a.78.78,0,0,0-.31.65.91.91,0,0,0,.46.68l27.5,18.16a2.14,2.14,0,0,0,2,.1,1,1,0,0,0,.63-.77l2.14-26.49c0-.52-.55-1-1.34-1.06C200.34,51.1,198.83,51,197.35,51Z"/><g class="cls-15"><ellipse class="cls-16" cx="220.51" cy="59.25" rx="2.86" ry="1.62"/></g><g class="cls-15"><ellipse class="cls-16" cx="225.36" cy="76.05" rx="3.5" ry="1.99"/></g><g class="cls-15"><ellipse class="cls-16" cx="230.15" cy="77.6" rx="1.37" ry="0.78"/></g><g class="cls-15"><ellipse class="cls-16" cx="241.09" cy="57.57" rx="1.24" ry="3.16" transform="translate(165.13 293.52) rotate(-85.59)"/></g><g class="cls-15"><ellipse class="cls-16" cx="270.73" cy="67.71" rx="1.24" ry="2.16" transform="translate(182.38 332.42) rotate(-85.59)"/></g><g class="cls-15"><ellipse class="cls-16" cx="251.82" cy="75.92" rx="1.24" ry="3.16" transform="translate(38.82 230.22) rotate(-52.7)"/></g><g class="cls-17"><ellipse class="cls-16" cx="215.11" cy="70.54" rx="1.24" ry="2.28" transform="translate(28.64 198.9) rotate(-52.7)"/></g><path class="cls-13" d="M200.76,55.81c-5.18-.3-10.48-.33-15.52,1.06-2.18.6-4.64,1.49-5.57,3.75a3.33,3.33,0,0,0,.16,3,2.63,2.63,0,0,0,2.52,1.36,7.26,7.26,0,0,0,3.17-1.5,26,26,0,0,1,3.17-1.78,24.59,24.59,0,0,1,3.4-1.31c.59-.18,1.18-.34,1.78-.47a7.86,7.86,0,0,1,1.66-.26A2.2,2.2,0,0,1,197,60a1.63,1.63,0,0,1,.53,1.12,2.76,2.76,0,0,1-1.23,2.41c-1.75,1.26-4.18,1.23-5.74,2.81a2.49,2.49,0,0,0-.77,1.35,1.18,1.18,0,0,0,.85,1.22,5.61,5.61,0,0,0,3.46.22,5,5,0,0,1,2-.26,1.14,1.14,0,0,1,1,.88c.05.49-.44.87-.72,1.21a1.48,1.48,0,0,0-.35,1.17.81.81,0,0,0,.74.75c.33,0,.33-.49,0-.52s-.25-.61-.16-.81c.19-.41.62-.69.84-1.1a1.49,1.49,0,0,0-1.24-2.09,4.52,4.52,0,0,0-1.86.2,7.27,7.27,0,0,1-1.8.22,4.11,4.11,0,0,1-1.65-.35c-.22-.1-.48-.23-.52-.49a1,1,0,0,1,.22-.74A4.73,4.73,0,0,1,193,65.53a24.73,24.73,0,0,0,3-1.15,3.76,3.76,0,0,0,1.92-2.15,2.47,2.47,0,0,0-.42-2.44,3.13,3.13,0,0,0-2.88-.6,21.52,21.52,0,0,0-3.44.91,27.78,27.78,0,0,0-6.33,3.17c-.91.61-2,1.37-3.19,1.1a2.39,2.39,0,0,1-1.69-2,3.51,3.51,0,0,1,1-2.77,7.29,7.29,0,0,1,2.93-1.74c4.78-1.68,10-1.8,15-1.59l1.87.09c.34,0,.34-.5,0-.52Z"/><rect class="cls-18" y="0.25" width="300" height="165"/></g></g></svg>