<svg xmlns="http://www.w3.org/2000/svg" xmlns:xlink="http://www.w3.org/1999/xlink" viewBox="0 0 300 165.5"><defs><style>.cls-1{isolation:isolate;}.cls-2{fill:#fce5cd;}.cls-3{fill:#ffc81a;}.cls-4{fill:#ebefb4;}.cls-5{fill:#9b4e23;}.cls-6{opacity:0.51;}.cls-13,.cls-6,.cls-9{mix-blend-mode:multiply;}.cls-7{fill:#009245;}.cls-8{fill:#efb167;}.cls-9{opacity:0.9;}.cls-10{opacity:0.72;}.cls-10,.cls-14{mix-blend-mode:soft-light;}.cls-11{fill:#ffe3c7;}.cls-12{fill:#c1272d;}.cls-13{opacity:0.39;}.cls-14{opacity:0.97;}.cls-15{fill:#fff;}.cls-16{fill:#731;}.cls-17{fill:url(#linear-gradient);}</style><linearGradient id="linear-gradient" x1="150.37" y1="168.62" x2="149.66" y2="2.17" gradientUnits="userSpaceOnUse"><stop offset="0.03" stop-color="#591c16"/><stop offset="0.22" stop-color="#5f241d" stop-opacity="0.96"/><stop offset="0.38" stop-color="#733c33" stop-opacity="0.84"/><stop offset="0.53" stop-color="#936459" stop-opacity="0.64"/><stop offset="0.68" stop-color="#c09d8d" stop-opacity="0.36"/><stop offset="0.82" stop-color="#fae5cf" stop-opacity="0"/></linearGradient></defs><g class="cls-1"><g id="Layer_1" data-name="Layer 1"><rect class="cls-2" y="0.25" width="300" height="165"/><path class="cls-3" d="M269.29,87.08l-112.47.59a1.22,1.22,0,0,0-1.09.78,2.5,2.5,0,0,1-1.2,1.2l-.49.23c-.84.4-.64,1.92.27,1.94H270.56c.9,0,1.35-1.3.78-2.12l-.8-1.14A1.38,1.38,0,0,0,269.29,87.08Z"/><path class="cls-4" d="M269.8,104.29a2.59,2.59,0,0,1-2.61,2.61H158a2.6,2.6,0,0,1-1.69-.76c-.1-.11-.2-.22-.29-.34a2.62,2.62,0,0,1-.47-1.51,2.56,2.56,0,0,1,.07-.62,2.71,2.71,0,0,1,.4-.88,2.66,2.66,0,0,1,1.56-1.05h0a2.78,2.78,0,0,1,.58-.06H267.43a2.61,2.61,0,0,1,1.61.75,3.37,3.37,0,0,1,.29.35,2.71,2.71,0,0,1,.4.88A2.56,2.56,0,0,1,269.8,104.29Z"/><path class="cls-5" d="M274.06,110.67v2.21a4.79,4.79,0,0,1-1.43,3.42,5,5,0,0,1-3.55,1.46H156.28a5,5,0,0,1-3.55-1.46,4.79,4.79,0,0,1-1.43-3.42v-2.21a4.93,4.93,0,0,1,5-4.88h112.8A4.93,4.93,0,0,1,274.06,110.67Z"/><g class="cls-6"><path class="cls-3" d="M152.41,113.67a7.08,7.08,0,0,0,3.21-2c.89-1,1.4-2.13,2.21-3.11,2.22-2.69,4.66,2.55,6,3.74,2.15,1.83,4.48.56,6.37-1a23.33,23.33,0,0,1,4-2.64,3.41,3.41,0,0,1,2.37-.54,2.69,2.69,0,0,1,1.45,1.29,30.81,30.81,0,0,0,2,3.19,10.32,10.32,0,0,0,3,2.5c1.9,1.07,4.81,1.93,6.81.64,1.08-.69,1.4-1.89,1.85-3a6.38,6.38,0,0,1,2.44-2.94,6.81,6.81,0,0,1,3.43-1.14,9,9,0,0,1,4,1,5.43,5.43,0,0,0,3.93.42c1.38-.49,1.73-1.57,2.07-2.88.43-1.66,2.56-2.42,4.07-2.76a9.06,9.06,0,0,1,5,.38c.75.27,1.08-.93.33-1.2a10.17,10.17,0,0,0-8,.45,4.57,4.57,0,0,0-2.6,2.66c-.19.64-.2,1.39-.74,1.86a2.6,2.6,0,0,1-2,.43c-1.46-.2-2.71-1.14-4.14-1.47a7.83,7.83,0,0,0-3.44,0,8,8,0,0,0-5.33,4.19c-.58,1.23-.76,2.79-2.29,3.21a6.46,6.46,0,0,1-4.09-.61,9.67,9.67,0,0,1-3.16-2.36,27.73,27.73,0,0,1-2.11-3.35,3.69,3.69,0,0,0-2.62-1.86c-1.4-.14-2.78.68-3.94,1.37a39.94,39.94,0,0,0-3.61,2.62c-1.18.88-2.63,1.65-4,.66-2-1.49-3.07-5.51-6.27-4.87-1.45.29-2.08,1.62-2.8,2.75a6.9,6.9,0,0,1-3.74,3.09.62.62,0,0,0,.33,1.2Z"/></g><g class="cls-6"><path class="cls-3" d="M215.91,104.56a6.57,6.57,0,0,0,3.77,4.88,7.67,7.67,0,0,0,7-.48,9.33,9.33,0,0,0,2.64-2.33,15.57,15.57,0,0,0,1-1.44,2.07,2.07,0,0,1,.67-.74c.63-.3.73.34.87.78a39.26,39.26,0,0,0,1.31,4.11,2.32,2.32,0,0,0,2.45,1.38,10.43,10.43,0,0,0,3.68-.87c1.36-.59,2.53-1.5,4.06-1.59a8.92,8.92,0,0,1,2.3.21c.7.14,1.76.21,2.26.77a5,5,0,0,1,.61,1.73,16.56,16.56,0,0,0,.68,1.9c.83,2,2.49,4.54,5,4.21a9.74,9.74,0,0,0,5.75-3.55,13.72,13.72,0,0,0,2-3.22,14.93,14.93,0,0,0,.64-1.73c.11-.37.16-.86.51-1.07a1.35,1.35,0,0,1,1,0c1.42.35,2.6,1.22,4.12,1.25a3.71,3.71,0,0,0,3.1-1.46c.49-.64-.59-1.26-1.07-.63-1.74,2.27-4.65-.47-6.7-.49a1.89,1.89,0,0,0-1.91,1.32,22.8,22.8,0,0,1-1.25,3.24,10.57,10.57,0,0,1-4.63,4.56,5.07,5.07,0,0,1-1.77.55,2.53,2.53,0,0,1-2-1A9.05,9.05,0,0,1,250,111.6a12.78,12.78,0,0,0-1.08-3.06c-.65-.93-1.95-1.07-3-1.27a8.7,8.7,0,0,0-3.93-.06,21.25,21.25,0,0,0-3.25,1.51,9.13,9.13,0,0,1-1.86.58,4.16,4.16,0,0,1-2,.12c-.66-.25-.78-1.07-1-1.68l-.67-2.17c-.29-.93-.48-2.18-1.6-2.41a2.28,2.28,0,0,0-2.27,1.17,11.24,11.24,0,0,1-2.72,3.18,6.91,6.91,0,0,1-4,1.32,5.52,5.52,0,0,1-5.52-4.6c-.12-.79-1.32-.45-1.21.33Z"/></g><path class="cls-7" d="M211.41,99.09c-2.76.1-5.86.26-7.93,1.32-2.86,1.47,1.1,5.48,3.18,5.88,1.71.33-.31-2.49,3.83-2.68,4-.19,4.84.92,5,1.07,1.82,1.87,1.91,3.79,4.64,4.23s7.23-1.2,8.69-3.06c1-1.3.8-2.14,1.95-2.43,1.78-.45,3,6.7,4.33,6.61,1.76-.12,5.21-8.43,3.95-9.91C237.34,98.11,228.7,98.44,211.41,99.09Z"/><path class="cls-8" d="M273.6,81.09a2.21,2.21,0,0,1-2,1.5H154.22a2.21,2.21,0,0,1-2-1.5,3.37,3.37,0,0,1-.22-1.47c2.21-27.88,34.87-44.18,60.79-44.18h.2c25.92,0,58.58,16.3,60.79,44.18A3.37,3.37,0,0,1,273.6,81.09Z"/><path class="cls-7" d="M243.15,100.21c-2.74.21-5.84.5-7.82,2.21-2.73,2.36-2.23,6.51-.12,7.11,1.74.49,3.29-1.8,7.42-2.17s4.93,1.38,5.09,1.61c2,2.93,2.25,6,5,6.6s7.13-2,8.43-5c.9-2.07.61-3.39,1.73-3.87,1.75-.74,4.31,1.73,5.68,1.56,1.75-.22,3.72-4.59,2.33-6.91C269,98.24,260.41,98.9,243.15,100.21Z"/><path class="cls-7" d="M206.16,102.79c-2.34,1.17-6.25-2-9-2.21-13.63-1-21.88-1.66-25.67-.33-2.08-1-4.74.16-10.13-.32-3.77-.34-4.92-1.15-6.89,0a9,9,0,0,0-3.44,4.24c-1.29,2.91-1.83,7.33-.41,8.48.9.72,2.31-.08,3-.5,3.12-1.79,3.13-5.07,4.86-5.49,2.45-.59,3.91,5.33,7.09,6.24,1.32.37,3.39-2.67,6.18-4.37,2.3-1.4,3-2.24,5.62-1.42,1.15.36,1.67,3.17,2.89,4.91,1.78,2.56,4.52,4.57,7.28,3.92s3-3.67,5-6.59c.16-.24,1.1-2,5.08-1.62s5.68,2.67,7.43,2.17C207.22,109.3,208.15,101.8,206.16,102.79Z"/><path class="cls-5" d="M273.31,95.8v2.26a5,5,0,0,1-1.84,3.87h0a5,5,0,0,1-2.88,1.11H155.29a5,5,0,0,1-2.85-1.08,3.7,3.7,0,0,1-.42-.37,5,5,0,0,1-1.47-3.53V95.8a5,5,0,0,1,5-5H268.33A5,5,0,0,1,273.31,95.8Z"/><g class="cls-6"><path class="cls-3" d="M191.2,99.9l-.61.54c6,.8,11.78-2.94,17.84-2.88,2.23,0,4.43.56,6.66.65a31.44,31.44,0,0,0,7.09-.78c2.9-.56,5.87-1.2,8.36-2.81a8.9,8.9,0,0,1,2.05-1.17c1.39-.44,2.87.08,4.31.26,2.53.31,5-.44,7.52-1,5.53-1.33,15.87-1.8,15.87-1.8a1.14,1.14,0,0,1,.86-.1,6.33,6.33,0,0,0,1.39.1,51.16,51.16,0,0,0-6.67-.09c-18.39.56-36.56.37-54.8,2.76a19.71,19.71,0,0,0-4.64,1,10.18,10.18,0,0,0-5.63,5.58"/></g><path class="cls-3" d="M155.52,89.32a126.91,126.91,0,0,1,15.56,5.49c8.13,3.49,17.74,5.49,19.61,5.49,3.74,0,15.16-4.18,18.61-4.13,9.58.14,23.71-3.71,23.71-3.71l26.28-2.89Z"/><g class="cls-9"><path class="cls-3" d="M159.19,90.34l10.65,0,10.61,0,10.65,0,10.65,0,5.33,0a19.27,19.27,0,0,0,2.52,0,2.12,2.12,0,0,0,1.74-1.14,1.47,1.47,0,0,0,.08-1c-.18-.54-1-.31-.86.24s-.55,1-1.05,1.07a7.24,7.24,0,0,1-1.14,0h-1.29l-5.17,0-10.34,0-10.4,0-10.34,0-10.35,0h-1.29a.45.45,0,0,0,0,.89Z"/></g><rect class="cls-4" x="157.41" y="84.47" width="53.48" height="5.22" rx="2.61"/><path class="cls-8" d="M274.06,120.22v7.31a2.39,2.39,0,0,1-.2,1,2.48,2.48,0,0,1-2.25,1.5H153.75a2.47,2.47,0,0,1-2.26-1.5,2.57,2.57,0,0,1-.19-1v-7.31a2.45,2.45,0,0,1,2.45-2.46H271.61A2.46,2.46,0,0,1,274.06,120.22Z"/><g class="cls-9"><path class="cls-3" d="M160.51,91.24A111.15,111.15,0,0,0,172,96.09a110.77,110.77,0,0,0,12,3.5c1.14.26,2.29.52,3.44.73a13.32,13.32,0,0,0,3.67.27c.34,0,.35-.56,0-.53a20.9,20.9,0,0,1-6.32-.84q-3-.68-6-1.52a109.34,109.34,0,0,1-11.66-4c-2.14-.89-4.26-1.85-6.34-2.87-.31-.15-.58.31-.27.46Z"/></g><path class="cls-4" d="M211.87,56.34c-.11-.58.11-.86.45-.92s.67.11.78.69a1.64,1.64,0,0,1-.41,1.27A1.57,1.57,0,0,1,211.87,56.34Z"/><path class="cls-4" d="M202.66,60.81c0,.59-.26.82-.61.82s-.63-.23-.63-.82a1.61,1.61,0,0,1,.63-1.17A1.51,1.51,0,0,1,202.66,60.81Z"/><path class="cls-4" d="M199.6,59c-.16.57-.48.73-.81.63s-.55-.39-.39-1a1.66,1.66,0,0,1,.92-1A1.51,1.51,0,0,1,199.6,59Z"/><path class="cls-4" d="M195,64.11c.55.23.67.56.54.88s-.46.5-1,.28a1.59,1.59,0,0,1-.84-1A1.53,1.53,0,0,1,195,64.11Z"/><path class="cls-4" d="M186.2,52.32c0,.6-.27.83-.61.83s-.64-.23-.64-.83a1.6,1.6,0,0,1,.64-1.16A1.54,1.54,0,0,1,186.2,52.32Z"/><path class="cls-4" d="M253.94,65.53c.59.09.78.39.73.73s-.33.6-.92.51a1.65,1.65,0,0,1-1.06-.81A1.54,1.54,0,0,1,253.94,65.53Z"/><path class="cls-4" d="M162,63.05c0,.59-.27.83-.61.83s-.64-.24-.64-.83a1.63,1.63,0,0,1,.64-1.17A1.53,1.53,0,0,1,162,63.05Z"/><path class="cls-4" d="M244.25,76.75c-.56.2-.87,0-1-.3s0-.68.57-.88a1.65,1.65,0,0,1,1.31.2A1.52,1.52,0,0,1,244.25,76.75Z"/><path class="cls-4" d="M221.65,61.41c.12.58-.09.87-.42,1s-.67-.1-.8-.67a1.6,1.6,0,0,1,.36-1.28A1.51,1.51,0,0,1,221.65,61.41Z"/><path class="cls-4" d="M218.2,62.76c.59,0,.82.31.8.65s-.26.62-.85.6a1.65,1.65,0,0,1-1.14-.68A1.53,1.53,0,0,1,218.2,62.76Z"/><path class="cls-4" d="M241.42,57.47c-.58-.11-.76-.42-.7-.75s.35-.58.94-.47a1.58,1.58,0,0,1,1,.84A1.49,1.49,0,0,1,241.42,57.47Z"/><path class="cls-4" d="M248.45,49c.47.35.51.7.3,1s-.56.37-1,0a1.6,1.6,0,0,1-.57-1.2A1.54,1.54,0,0,1,248.45,49Z"/><path class="cls-4" d="M221.12,47.19c-.55-.21-.68-.54-.56-.87s.45-.51,1-.3a1.63,1.63,0,0,1,.87,1A1.54,1.54,0,0,1,221.12,47.19Z"/><path class="cls-4" d="M226.63,44.69c.14.58-.06.87-.4,1s-.67-.08-.81-.66a1.59,1.59,0,0,1,.35-1.28A1.51,1.51,0,0,1,226.63,44.69Z"/><path class="cls-4" d="M181.26,47.54c.59,0,.83.27.83.61s-.24.64-.83.64a1.6,1.6,0,0,1-1.17-.64A1.57,1.57,0,0,1,181.26,47.54Z"/><path class="cls-4" d="M201.06,43.94c-.13.58-.44.75-.77.68s-.58-.36-.45-.94a1.59,1.59,0,0,1,.86-1A1.52,1.52,0,0,1,201.06,43.94Z"/><g class="cls-10"><path class="cls-11" d="M271.39,82.59h-4.12c-12.72-50.89-68.85-45.65-68.85-45.65l14.36-1.5c25.92,0,58.58,16.3,60.79,44.18C273.69,81.21,272.68,82.59,271.39,82.59Z"/></g><g class="cls-10"><path class="cls-11" d="M274.06,120.22v7.31c0,1-.3,2.46-3.54,2.53V122c0-2.49-1.5-2.24-1.5-2.24l-117.24-1,0,0a2.45,2.45,0,0,1,1.95-1H271.61A2.46,2.46,0,0,1,274.06,120.22Z"/></g><g class="cls-9"><path class="cls-3" d="M271.52,103.79l-120.26-.12h0l1.19-1.94v0h.73c1.05,0,2.54,0,4.4,0h0c8.6,0,25.15.05,43.22,0h0c25,0,52.81-.07,66.6-.09h4.79C270.52,101.8,271.44,103.47,271.52,103.79Z"/></g><g class="cls-6"><path class="cls-3" d="M272.63,116.27a5,5,0,0,1-3.55,1.49H156.28a5,5,0,0,1-3.55-1.49Z"/></g><g class="cls-9"><path class="cls-3" d="M219.55,90.38l20.27.11L260,90.6l5.63,0a14.84,14.84,0,0,0,5.27-.52.45.45,0,0,0,.31-.55.44.44,0,0,0-.54-.31,12.94,12.94,0,0,1-4.63.49l-5,0-10-.06-20.07-.11-11.37-.06a.45.45,0,0,0,0,.89Z"/></g><rect class="cls-4" x="217.98" y="86.96" width="53.48" height="2.73" rx="1.36"/><path class="cls-12" d="M269.8,85.08a2.61,2.61,0,0,1-2.61,2.61h-109a2.59,2.59,0,0,1-2.61-2.61,2.62,2.62,0,0,1,2.61-2.61h109a2.58,2.58,0,0,1,1.85.77l.09.1A2.57,2.57,0,0,1,269.8,85.08Z"/><g class="cls-13"><path class="cls-12" d="M269.13,83.34H156.23a2.56,2.56,0,0,1,1.94-.87h109a2.58,2.58,0,0,1,1.85.77Z"/></g><g class="cls-14"><path class="cls-15" d="M232.23,83.34l36.42.17a.45.45,0,1,1,0,.9h0l-36.42-.82a.11.11,0,0,1-.11-.12A.12.12,0,0,1,232.23,83.34Z"/></g><g class="cls-14"><path class="cls-15" d="M248.19,90.82l20.47.18a.45.45,0,0,1,0,.89h0l-20.45-.83a.12.12,0,0,1-.12-.12A.14.14,0,0,1,248.19,90.82Z"/></g><g class="cls-6"><path class="cls-3" d="M273.35,81.09a2.21,2.21,0,0,1-2,1.5H154a2.21,2.21,0,0,1-2-1.5Z"/></g><g class="cls-6"><path class="cls-3" d="M273.86,128.49a2.48,2.48,0,0,1-2.25,1.5H153.75a2.47,2.47,0,0,1-2.26-1.5Z"/></g><circle class="cls-16" cx="198.59" cy="73.48" r="1.62"/><circle class="cls-16" cx="227.27" cy="73.73" r="1.62"/><path class="cls-5" d="M213.68,75.62A12.29,12.29,0,0,1,207,73.83a.28.28,0,0,1-.07-.38.26.26,0,0,1,.37-.06,12,12,0,0,0,6.34,1.7,9.34,9.34,0,0,0,5.81-1.68.27.27,0,0,1,.38,0,.28.28,0,0,1,0,.38A9.67,9.67,0,0,1,213.68,75.62Z"/><rect class="cls-17" y="0.25" width="300" height="165"/></g></g></svg>