<svg xmlns="http://www.w3.org/2000/svg" xmlns:xlink="http://www.w3.org/1999/xlink" viewBox="0 0 300 165.5"><defs><style>.cls-1{isolation:isolate;}.cls-2{fill:#3f240f;}.cls-3{fill:#fce5cd;}.cls-4{fill:#edc094;}.cls-5{fill:#3f562b;}.cls-6{fill:#f4d1bd;}.cls-7{fill:#d87b4c;}.cls-8{opacity:0.35;}.cls-13,.cls-15,.cls-18,.cls-19,.cls-8{mix-blend-mode:soft-light;}.cls-9{fill:#9b4e23;}.cls-10{opacity:0.72;}.cls-11{fill:#ce673a;}.cls-12{fill:#ffe8d9;}.cls-13{opacity:0.74;}.cls-14{fill:#fff;}.cls-16{fill:#ffa81d;}.cls-17{fill:#2e4f15;}.cls-18{opacity:0.52;}.cls-19{opacity:0.49;}.cls-20{fill:url(#linear-gradient);}</style><linearGradient id="linear-gradient" x1="150.37" y1="168.62" x2="149.66" y2="2.17" gradientUnits="userSpaceOnUse"><stop offset="0.03" stop-color="#591c16"/><stop offset="0.22" stop-color="#5f241d" stop-opacity="0.96"/><stop offset="0.38" stop-color="#733c33" stop-opacity="0.84"/><stop offset="0.53" stop-color="#936459" stop-opacity="0.64"/><stop offset="0.68" stop-color="#c09d8d" stop-opacity="0.36"/><stop offset="0.82" stop-color="#fae5cf" stop-opacity="0"/></linearGradient></defs><g class="cls-1"><g id="Layer_1" data-name="Layer 1"><circle class="cls-2" cx="258.35" cy="81.91" r="1.33"/><circle class="cls-2" cx="275.36" cy="81.91" r="1.33"/><path class="cls-2" d="M266.92,84.92a6,6,0,0,1-3.57-1.11.34.34,0,0,1-.05-.48.35.35,0,0,1,.48-.06,5.41,5.41,0,0,0,3.14,1,5.7,5.7,0,0,0,3.21-1,.33.33,0,0,1,.48.07.34.34,0,0,1-.06.48A6.42,6.42,0,0,1,266.92,84.92Z"/><rect class="cls-3" y="0.25" width="300" height="165"/><ellipse class="cls-4" cx="200.14" cy="87.88" rx="74.91" ry="5.67"/><path class="cls-5" d="M126.58,89.61a4.51,4.51,0,0,1-1.28-.39,4.05,4.05,0,0,1-.59-.36,2.21,2.21,0,0,1-.3-.25,1.54,1.54,0,0,1-.3-.4,1.07,1.07,0,0,1-.11-.4,1.38,1.38,0,0,1,0-.37,1.28,1.28,0,0,1,.3-.49,2.77,2.77,0,0,1,.65-.5,7.7,7.7,0,0,1,1.24-.53,25,25,0,0,1,2.46-.67c.82-.18,1.63-.33,2.45-.47,3.28-.56,6.57-.93,9.86-1.26,6.59-.64,13.18-1.06,19.77-1.39,13.2-.65,26.4-.92,39.6-1q9.9,0,19.8.17c6.6.13,13.21.32,19.8.64s13.2.72,19.79,1.35c3.29.32,6.58.69,9.88,1.26.82.14,1.64.3,2.47.49a19.85,19.85,0,0,1,2.49.71c.22.08.43.17.65.27a5,5,0,0,1,.68.4,2.93,2.93,0,0,1,.37.35,1.44,1.44,0,0,1,.34.63,1.38,1.38,0,0,1,0,.45s0,.08,0,.11v.08a1.13,1.13,0,0,0,0,.15,1.33,1.33,0,0,1-.1.24,1.24,1.24,0,0,1-.1.2,3.06,3.06,0,0,1-1.14,1.12,3,3,0,0,1-1.43.39l-.27-.93a6.78,6.78,0,0,0,.77-.7,2.88,2.88,0,0,0,.49-.72.13.13,0,0,0,0-.07.08.08,0,0,0,0-.06h0v0a.09.09,0,0,0,0,.07.22.22,0,0,0,0,.08c0,.08.05.1,0,.1l-.08-.08a4.51,4.51,0,0,0-.88-.43,19.16,19.16,0,0,0-2.26-.64c-.79-.18-1.58-.33-2.38-.47-3.21-.55-6.48-.91-9.75-1.23-6.54-.63-13.12-1-19.69-1.33-13.16-.62-26.34-.88-39.52-.9s-26.36.15-39.53.71c-6.58.29-13.15.67-19.71,1.26-3.27.31-6.54.66-9.77,1.19-.8.13-1.61.28-2.4.45a21.31,21.31,0,0,0-2.32.61,5.69,5.69,0,0,0-1,.43,1.5,1.5,0,0,0-.34.24s0,0,0,0v-.07a.16.16,0,0,0,0-.11.58.58,0,0,0,.08.1l.16.17.41.35c.3.23.62.45,1,.68Z"/><rect class="cls-5" x="164.97" y="100.65" width="72.73" height="7.51" rx="2.16"/><path class="cls-6" d="M264.27,87.29C264.27,97.73,235.74,99,200,99s-65.09-1.29-65.09-11.73,30.21-15.57,65.92-15.57S264.27,76.85,264.27,87.29Z"/><path class="cls-7" d="M152.2,75.51a12.6,12.6,0,0,0-7.12,2.19c-.78.57-3,2.24-3.29,4.93-.08.79-.22,2.15.55,2.74,1.25,1,3.44-1.23,8.22-2.19,2.36-.47,4.29-.86,4.93,0,1.4,1.87-5.4,6.74-4.11,12.33a7.15,7.15,0,0,0,2.47,3.84c3.11,2.6,8.61,2.74,11,.27s.26-6.31,3.29-12.05c.36-.68,2.46-1.65,2.74.54.46,3.71-2.05,5.12-1.37,6.85s3.61,2.82,5.2,1.92c2.19-1.23.07-5.33,2.74-8.49,2.1-2.49,5.71-2.67,7.13-2.74,3.88-.2,4.89,1.48,8.49,2.19,6.72,1.32,8.69-3.46,17.53-3.29,3.82.08,8.81,1.07,9.32,3.29.44,1.91-2.71,3.53-2.19,6.3a5.37,5.37,0,0,0,2.19,3c3.08,2.56,8.7,4,10.69,1.91s-1.57-6.44,1.09-11a6.17,6.17,0,0,1,2.74-2.74c2.87-1.24,5.44,1.17,7.4-.27,1.28-.94.7-2.34,1.92-3,1.61-.89,4.88.3,6,2.46,1.92,3.63-3.35,7.7-1.65,10.69,1.48,2.59,7.57,3.29,10.41.55,3.27-3.16.78-9.42-1.09-12.33a15.71,15.71,0,0,0-6.3-5.48C230.31,67.71,162.39,75.39,152.2,75.51Z"/><g class="cls-8"><path d="M249.2,78c1,3.18-21.86,5.75-48.25,5.75s-48.47-3.52-48.47-6.85,22.07-5.21,48.47-5.21S247.68,73,249.2,78Z"/></g><ellipse class="cls-9" cx="199.58" cy="75.78" rx="47.79" ry="6.03"/><ellipse class="cls-9" cx="199.58" cy="75.16" rx="47.79" ry="6.03"/><ellipse class="cls-9" cx="199.58" cy="74.53" rx="47.79" ry="6.03"/><ellipse class="cls-9" cx="199.58" cy="73.91" rx="47.79" ry="6.03"/><ellipse class="cls-9" cx="199.58" cy="73.28" rx="47.79" ry="6.03"/><ellipse class="cls-9" cx="199.58" cy="72.65" rx="47.79" ry="6.03"/><ellipse class="cls-9" cx="199.58" cy="72.03" rx="47.79" ry="6.03"/><ellipse class="cls-9" cx="199.58" cy="71.4" rx="47.79" ry="6.03"/><g class="cls-10"><path class="cls-11" d="M173.58,67.84c-1.68-.38-7.27-1.73-11.51,1.09-.24.16-3.41,2.32-3,4.39.33,1.71,2.76,1.64,3.29,3.56S160.55,80,161,82.63a4.56,4.56,0,0,0,1.92,3c2,1.12,4.85-.54,7.12-1.92,4.26-2.58,4-4.07,7.13-5.75a17.37,17.37,0,0,1,9.31-1.65c5.32.23,6.48,2.15,10.14,2.19,5.69.07,5.53-4.64,11.51-6,8.23-1.91,15.18,5.09,21.1,2.19a6.23,6.23,0,0,1,3.28-.82A7.38,7.38,0,0,1,238,77.15c1,1.57.69,2.43,1.65,3a4,4,0,0,0,4.93-1.37c1.22-2.15-1.27-5.74-3-7.4-4.47-4.25-11.38-2.88-19.18-2.19C213.18,70,188.22,71.14,173.58,67.84Z"/></g><path class="cls-12" d="M229.18,71.62a11.14,11.14,0,0,1-2.86,3.32h0a17.69,17.69,0,0,1-2.76,1.85c-6.94,3.66-15.33-.64-19.38-1.66s-4.8-1.93-7.06-2.58h0c-.18,0-.36-.1-.56-.14h0c-.36-.09-.77-.17-1.22-.24-4.31-.71-8.07,1.26-12.7,2h0a18.92,18.92,0,0,1-5.09.17c-4.7-.48-9.3-3.53-9.1-5.81.08-.93,1-1.72,3.15-2.64h0a65,65,0,0,1,6.92-2.24c10.56-3,16.35-4.58,21.6-4.87.57,0,1.13-.05,1.69-.05,11.43,0,27.2,3.93,28,10.19A4.72,4.72,0,0,1,229.18,71.62Z"/><g class="cls-13"><path class="cls-14" d="M229.18,71.62c-3.44-9.54-29.09-12.84-29.09-12.84h0c.57,0,1.13-.05,1.69-.05,11.43,0,27.2,3.93,28,10.19A4.72,4.72,0,0,1,229.18,71.62Z"/></g><g class="cls-15"><path d="M189.36,63.62S189,66.8,197,67.49s13-1.28,13.12-3.29S189.36,63.62,189.36,63.62Z"/></g><path class="cls-16" d="M209.69,64.86a2.25,2.25,0,0,1-1.33.7c-5.78,1-9.53,2.39-17.41-.3a2.42,2.42,0,0,1-1.59-1.64,3.94,3.94,0,0,1,0-2.18,3.23,3.23,0,0,1,.56-1.08,5.84,5.84,0,0,1,2.05-1.52c4.82-2.32,14.67-2,17.3,1.32C210.22,61.41,210.75,63.68,209.69,64.86Z"/><g class="cls-13"><path class="cls-14" d="M208.36,65.56c1.63-7.07-12.4-6.85-16.43-6.72,4.82-2.32,14.67-2,17.3,1.32C210.51,61.76,211,65.08,208.36,65.56Z"/></g><g class="cls-8"><path d="M209.69,64.86a2.25,2.25,0,0,1-1.33.7c-5.78,1-9.53,2.39-17.41-.3a2.42,2.42,0,0,1-1.59-1.64,3.94,3.94,0,0,1,0-2.18s2.5,6.19,20.34,3.42Z"/></g><g class="cls-15"><path d="M226.31,75a17.69,17.69,0,0,1-2.76,1.85c-6.94,3.66-15.33-.64-19.38-1.66s-4.8-1.93-7.06-2.58C200.86,73.52,221.59,78.61,226.31,75Z"/></g><g class="cls-15"><path d="M182.61,74.16a18.92,18.92,0,0,1-5.09.17c-4.7-.48-9.3-3.53-9.1-5.81.08-.93,1-1.72,3.15-2.64h0S165.88,72.07,182.61,74.16Z"/></g><g class="cls-15"><path class="cls-14" d="M200.81,58.73c-.46.14-.95.52-.9.87s1,.52,2.4,1.12c2.05.89,2.41,1.74,3.1,1.57a1.84,1.84,0,0,0,.71-2.67c-.48-.48-1.13,0-2.94-.43C202,58.91,201.51,58.52,200.81,58.73Z"/></g><polygon class="cls-17" points="202.33 63.85 205.71 67.9 206.63 67.53 203.1 63.84 202.33 63.85"/><polygon class="cls-17" points="180.58 64.7 183.79 64.32 183.79 64.65 180.58 65.07 180.58 64.7"/><polygon class="cls-17" points="189.92 66.23 190.19 66.23 190.4 67.28 189.94 67.29 189.92 66.23"/><polygon class="cls-17" points="195.37 60.63 196.9 59.97 196.91 60.6 195.37 60.63"/><polygon class="cls-17" points="216.03 62.72 214.72 64.77 215.39 64.76 216.63 62.68 216.03 62.72"/><polygon class="cls-17" points="216.65 64.08 217.78 65.64 217.43 63.61 216.65 64.08"/><polygon class="cls-17" points="188.96 67.02 189.14 67.3 188.09 68.7 187.77 68.52 188.96 67.02"/><polygon class="cls-17" points="194.76 61.03 195.39 62.16 195.09 62.36 194.4 61.04 194.76 61.03"/><path class="cls-5" d="M275.79,87.78c0,9.4-8.07,17-75.58,17-70.1,0-75.58-7.62-75.58-17,0,3.17,33.84,5.74,75.58,5.74S275.79,91,275.79,87.78Z"/><g class="cls-18"><path d="M164.91,102.58s16.54,1.13,34.44,1.13,38-1.56,38-1.56S205,110,164.91,102.58Z"/></g><g class="cls-19"><path class="cls-14" d="M125.22,88.51s13.64,7.28,116,4.21C241.42,92.71,139.45,98.72,125.22,88.51Z"/></g><rect class="cls-20" y="0.25" width="300" height="165"/></g></g></svg>