<svg xmlns="http://www.w3.org/2000/svg" xmlns:xlink="http://www.w3.org/1999/xlink" viewBox="0 0 300 165.5"><defs><style>.cls-1{isolation:isolate;}.cls-2{fill:#fce5cd;}.cls-3{fill:#eddfca;}.cls-4{fill:#8b583e;}.cls-5{fill:#bf3c22;}.cls-6{opacity:0.71;}.cls-6,.cls-8{mix-blend-mode:soft-light;}.cls-7{fill:#1c2316;}.cls-8{opacity:0.32;}.cls-9{fill:#fff;}.cls-10{fill:#ffe8d9;}.cls-11{fill:url(#linear-gradient);}</style><linearGradient id="linear-gradient" x1="150.37" y1="168.62" x2="149.66" y2="2.17" gradientUnits="userSpaceOnUse"><stop offset="0.03" stop-color="#591c16"/><stop offset="0.22" stop-color="#5f241d" stop-opacity="0.96"/><stop offset="0.38" stop-color="#733c33" stop-opacity="0.84"/><stop offset="0.53" stop-color="#936459" stop-opacity="0.64"/><stop offset="0.68" stop-color="#c09d8d" stop-opacity="0.36"/><stop offset="0.82" stop-color="#fae5cf" stop-opacity="0"/></linearGradient></defs><g class="cls-1"><g id="Layer_1" data-name="Layer 1"><rect class="cls-2" y="0.25" width="300" height="165"/><path class="cls-3" d="M241.33,106.34c-9.34-.2-15.8-8.82-17.13-11.18S212.92,56.53,212.92,53c0-1.54.06-2.79.15-3.82.42-4.91,1.61-4.85,1.18-6.55,0,0,38.87-1.3,55.78,22.24a39.33,39.33,0,0,1,3.91,6.78C282.45,109,250.66,106.55,241.33,106.34Z"/><path d="M246.5,106.6c-1.48,0-2.82,0-4-.07l-1.22,0a18.72,18.72,0,0,1-11.66-4.82,26.64,26.64,0,0,1-5.6-6.44c-.7-1.24-3.62-11.34-6.15-20.67S212.76,54.89,212.76,53c0-1.43.05-2.72.15-3.83a16,16,0,0,1,1-4.69,2.53,2.53,0,0,0,.21-1.81l0-.19h.2a97.61,97.61,0,0,1,21.58,2.3,73.26,73.26,0,0,1,18.42,6.55A45.4,45.4,0,0,1,270.16,64.8a40.07,40.07,0,0,1,3.92,6.82v0c2.67,11.73,1.59,20.65-3.22,26.51C264.73,105.64,253.88,106.6,246.5,106.6ZM214.45,42.81a3,3,0,0,1-.26,1.81,15.54,15.54,0,0,0-1,4.6c-.09,1.11-.14,2.39-.14,3.81,0,1.83,2.76,12.7,5.13,21.45,2.9,10.69,5.53,19.55,6.13,20.61a26.12,26.12,0,0,0,5.52,6.35,18.37,18.37,0,0,0,11.47,4.74l1.22,0c6.75.19,20.8.6,28.08-8.26,4.74-5.78,5.8-14.6,3.16-26.23A39.21,39.21,0,0,0,269.9,65a45,45,0,0,0-15.79-13.36,72.62,72.62,0,0,0-18.34-6.52A98.11,98.11,0,0,0,214.45,42.81Z"/><path class="cls-4" d="M273.52,78.24c-.51,9.34-1.15,12.06-7.07,15.18-5.64,3-11.08,5.23-21.12,4.72,0,0-14.57,1.74-17.85-7.8s-12.66-32-14.23-40c-.07-.39-.14-.78-.18-1.17.42-4.91,1.61-4.85,1.18-6.55,0,0,38.87-1.3,55.78,22.24A46.34,46.34,0,0,1,273.42,76h0A11.87,11.87,0,0,1,273.52,78.24Z"/><path class="cls-5" d="M274.55,76.4c-.51,9.33-1.16,12-7.08,15.17-5.64,3-11.07,5.23-21.12,4.72,0,0-14.56,1.74-17.84-7.79s-12.67-32-14.23-40S217.43,34.15,225,32.2c6.48-1.66,12.51-2.88,14.13-3.2l.43-.08c8.62-1,16,2.67,19.08,9.13,2.85,6,14.5,25.78,15.79,36.08h0A12.68,12.68,0,0,1,274.55,76.4Z"/><g class="cls-6"><path class="cls-7" d="M264.36,47.38l7.29,17a1.29,1.29,0,0,1-1,1.78c-7.37,1.3-37.72,6.67-41.05,7.3-3.8.72-3.9,1.13-4.62,3.08s-2,16.1-2,16.1l-6-18.87s-.72-11.54,0-13.82a7.44,7.44,0,0,1,5-5.35c2.54-.79,31.06-7,39.24-8.76A2.72,2.72,0,0,1,264.36,47.38Z"/></g><path class="cls-7" d="M264.15,46.25l7.3,17a1.3,1.3,0,0,1-1,1.78c-7.36,1.3-37.72,6.68-41.05,7.31-3.79.71-3.9,1.12-4.61,3.07s-1.95,16.1-1.95,16.1L216.82,72.6s-.72-11.54,0-13.82a7.44,7.44,0,0,1,5-5.35c2.55-.79,31.07-7,39.25-8.76A2.71,2.71,0,0,1,264.15,46.25Z"/><g class="cls-8"><path class="cls-9" d="M274.45,74.13h0c-.72,6.24-2.77,7.8-4,9.33s-8.82,4.52-8.62,4.31,4.11-1.85,6.26-3.79,3.28-5.23,3.46-9.44-11.15-25.22-17.2-35.07A23.45,23.45,0,0,0,239.15,29l.43-.08c8.62-1,16,2.67,19.08,9.13C261.51,44,273.16,63.83,274.45,74.13Z"/></g><path class="cls-10" d="M226.12,44.31a.45.45,0,0,1-.16,0,.47.47,0,0,1-.28-.6,4.26,4.26,0,0,1,2.6-2.51,4.09,4.09,0,0,1,3.45.89.47.47,0,0,1-.61.71h0a3.22,3.22,0,0,0-2.6-.69,3.37,3.37,0,0,0-2,1.92A.47.47,0,0,1,226.12,44.31Z"/><path class="cls-10" d="M241.26,40.27a.57.57,0,0,1-.18,0,.47.47,0,0,1-.25-.62,4.69,4.69,0,0,1,2.83-2.55,4.45,4.45,0,0,1,3.68.81.47.47,0,1,1-.58.73A3.62,3.62,0,0,0,243.9,38a3.71,3.71,0,0,0-2.2,2A.47.47,0,0,1,241.26,40.27Z"/><path class="cls-10" d="M239.79,43.47a2,2,0,0,1-3.89.87c-.23-1.07.67-1,1.74-1.23S239.55,42.4,239.79,43.47Z"/><path class="cls-3" d="M199.18,136.49c-9.33-.21-15.79-8.82-17.12-11.18s-11.28-38.63-11.28-42.13c0-1.54.05-2.79.14-3.82.43-4.91,1.61-4.86,1.19-6.55,0,0,38.86-1.3,55.78,22.23a39.39,39.39,0,0,1,3.9,6.79C240.3,139.16,208.51,136.69,199.18,136.49Z"/><path d="M204.35,136.75c-1.48,0-2.82,0-3.95-.07l-1.22,0a18.67,18.67,0,0,1-11.66-4.82,26.4,26.4,0,0,1-5.6-6.44c-.7-1.24-3.63-11.34-6.16-20.68-2.48-9.19-5.14-19.67-5.14-21.53,0-1.44,0-2.73.14-3.84a15.83,15.83,0,0,1,1-4.68,2.64,2.64,0,0,0,.21-1.81l-.05-.19h.19A97.71,97.71,0,0,1,193.69,75a73.4,73.4,0,0,1,18.42,6.55A45.35,45.35,0,0,1,228,95a38.69,38.69,0,0,1,3.92,6.81v0c2.68,11.74,1.6,20.66-3.21,26.51C222.58,135.79,211.73,136.75,204.35,136.75ZM172.3,73a2.91,2.91,0,0,1-.26,1.81,15.57,15.57,0,0,0-1,4.6c-.1,1.1-.15,2.38-.15,3.81,0,1.83,2.77,12.7,5.14,21.45,2.89,10.69,5.52,19.54,6.12,20.6a26,26,0,0,0,5.53,6.36,18.34,18.34,0,0,0,11.46,4.74l1.23,0c6.75.2,20.79.61,28.07-8.25,4.75-5.78,5.81-14.6,3.16-26.23a38.79,38.79,0,0,0-3.88-6.74A45,45,0,0,0,212,81.78a72.91,72.91,0,0,0-18.34-6.52A97.48,97.48,0,0,0,172.3,73Z"/><path class="cls-4" d="M231.38,108.39c-.51,9.33-1.16,12.06-7.08,15.18-5.64,3-11.07,5.23-21.12,4.72,0,0-14.56,1.74-17.84-7.8s-12.67-32-14.23-40c-.08-.4-.14-.79-.19-1.17.43-4.91,1.61-4.86,1.19-6.55,0,0,38.86-1.3,55.78,22.23a47.47,47.47,0,0,1,3.39,11.09h0A12.76,12.76,0,0,1,231.38,108.39Z"/><path class="cls-5" d="M232.4,106.55c-.51,9.33-1.15,12-7.07,15.17-5.64,3-11.08,5.23-21.13,4.72,0,0-14.56,1.74-17.84-7.79s-12.66-32-14.23-40,3.16-14.38,10.75-16.33c6.47-1.66,12.5-2.88,14.13-3.2l.43-.08c8.61-1,16,2.66,19.07,9.12,2.85,6,14.5,25.79,15.79,36.09h0A11.94,11.94,0,0,1,232.4,106.55Z"/><g class="cls-6"><path class="cls-7" d="M222.21,77.52l7.29,17a1.29,1.29,0,0,1-1,1.78c-7.36,1.3-37.72,6.67-41,7.3-3.79.72-3.9,1.13-4.61,3.08s-1.95,16.1-1.95,16.1l-6.05-18.87s-.72-11.54,0-13.82a7.45,7.45,0,0,1,5-5.36c2.55-.79,31.07-7,39.25-8.75A2.69,2.69,0,0,1,222.21,77.52Z"/></g><path class="cls-7" d="M222,76.4l7.29,17a1.29,1.29,0,0,1-1,1.78c-7.37,1.3-37.72,6.67-41.06,7.3-3.79.72-3.89,1.13-4.61,3.08s-1.95,16.1-1.95,16.1l-6.05-18.87s-.72-11.54,0-13.82a7.44,7.44,0,0,1,5-5.35c2.54-.79,31.06-7,39.24-8.76A2.72,2.72,0,0,1,222,76.4Z"/><g class="cls-8"><path class="cls-9" d="M232.3,104.28h0c-.72,6.25-2.77,7.8-4,9.34s-8.82,4.51-8.61,4.31,4.1-1.85,6.25-3.8,3.29-5.23,3.47-9.44S218.25,79.47,212.2,69.63A23.42,23.42,0,0,0,197,59.15l.43-.08c8.61-1,16,2.66,19.07,9.12C219.36,74.18,231,94,232.3,104.28Z"/></g><path class="cls-10" d="M184,74.46a.51.51,0,0,1-.17,0,.47.47,0,0,1-.27-.61,4.25,4.25,0,0,1,2.59-2.5,4.12,4.12,0,0,1,3.46.88.47.47,0,0,1,0,.67.48.48,0,0,1-.67,0,3.2,3.2,0,0,0-2.6-.69,3.34,3.34,0,0,0-2,1.92A.47.47,0,0,1,184,74.46Z"/><path class="cls-10" d="M199.12,70.42a.43.43,0,0,1-.19,0,.47.47,0,0,1-.25-.61,4.72,4.72,0,0,1,2.83-2.55,4.5,4.5,0,0,1,3.69.81.46.46,0,0,1,.07.66.47.47,0,0,1-.66.07,3.55,3.55,0,0,0-2.85-.63,3.8,3.8,0,0,0-2.21,2A.48.48,0,0,1,199.12,70.42Z"/><path class="cls-10" d="M197.65,73.62a2,2,0,0,1-3.89.87c-.24-1.07.66-1,1.73-1.23S197.41,72.55,197.65,73.62Z"/><rect class="cls-11" y="0.25" width="300" height="165"/></g></g></svg>