<svg xmlns="http://www.w3.org/2000/svg" xmlns:xlink="http://www.w3.org/1999/xlink" viewBox="0 0 300 165.5"><defs><style>.cls-1{isolation:isolate;}.cls-2{fill:#fce5cd;}.cls-3{opacity:0.54;}.cls-10,.cls-3,.cls-8{mix-blend-mode:soft-light;}.cls-4{fill:#fff;}.cls-5{fill:#f5af64;}.cls-6{fill:#cb473a;}.cls-7{fill:#af644b;}.cls-8{opacity:0.24;}.cls-9{fill:#fcc15b;}.cls-11{fill:#3f240f;}.cls-12{fill:url(#linear-gradient);}</style><linearGradient id="linear-gradient" x1="150.37" y1="168.62" x2="149.66" y2="2.17" gradientUnits="userSpaceOnUse"><stop offset="0.03" stop-color="#591c16"/><stop offset="0.22" stop-color="#5f241d" stop-opacity="0.96"/><stop offset="0.38" stop-color="#733c33" stop-opacity="0.84"/><stop offset="0.53" stop-color="#936459" stop-opacity="0.64"/><stop offset="0.68" stop-color="#c09d8d" stop-opacity="0.36"/><stop offset="0.82" stop-color="#fae5cf" stop-opacity="0"/></linearGradient></defs><g class="cls-1"><g id="Layer_1" data-name="Layer 1"><rect class="cls-2" y="0.25" width="300" height="165"/><g class="cls-3"><ellipse class="cls-4" cx="162.52" cy="98.59" rx="2.92" ry="1.78" transform="translate(31.13 235.95) rotate(-77.51)"/></g><path class="cls-5" d="M178.57,91.87c-5.53.66-8.66-9.86-5.08-14.13a12.27,12.27,0,0,1,5.69-3.5c12.24-4.08,17.08,5.53,57.51-23.79,11.15-8,15.14.07,15.14.07s-5.32,29.37-6.63,29.39C244.11,79.92,195.06,89.87,178.57,91.87Z"/><path class="cls-6" d="M177,87.68a7.17,7.17,0,0,1,.11-4.57c.58-1,3-.68,3.7-.59,6.89.84,17-3.11,23.76-4.77,19.55-4.81,39.26-29,45-22.8.93,1,2.49.76,2.8,1.71C255.05,64.88,183.74,95.42,177,87.68Z"/><g class="cls-3"><path d="M177.63,89.71a7.19,7.19,0,0,1,.12-4.57c.58-1,3-.68,3.7-.59,6.89.85,17-3.11,23.76-4.77,19.54-4.81,39.25-29,45-22.8.93,1,2.48.76,2.79,1.72C255.68,66.91,184.38,97.45,177.63,89.71Z"/></g><path class="cls-7" d="M275.9,59.16c-.77,9.24-38,61.53-104.42,57.35a13.07,13.07,0,0,1-7.85-3.27,17.32,17.32,0,0,1-4.77-6.36h0c-3.28-8.08,3.64-15.19,7.22-17.39a5,5,0,0,1,1.5-.68,158.62,158.62,0,0,0,28.06-5.53c17-5,38.93-14.73,57.31-33.65,1-1.07,2.06-2.16,3.07-3.28,7.32-8.14,14.74-2.9,18.09,4.19.21.44.4.9.58,1.35A16.93,16.93,0,0,1,275.9,59.16Z"/><g class="cls-8"><path d="M275.9,59.16c-.77,9.24-38,61.53-104.42,57.35a13.13,13.13,0,0,1-7.85-3.27,17.32,17.32,0,0,1-4.77-6.36c.12.13,4.84,5.62,8.72,3s3.17-13.86,14.14-13.47,58.78,3.11,93-44.57A16.93,16.93,0,0,1,275.9,59.16Z"/></g><path class="cls-5" d="M187.41,123.28a10.84,10.84,0,0,1-3.86-.73,18.4,18.4,0,0,1-4-2.09c-10-7.12,0-19.79,8.65-19.17,18.22,1.3,57.69-4.14,76.38-27.9.22-.27.44-.54.68-.79,3.8-3.95,7.35-3.61,9.73-1.16a12.16,12.16,0,0,1,3,8.13C278.26,94.11,265.11,123.86,187.41,123.28Z"/><g class="cls-3"><path d="M173.33,96.05c-.36-1.8,6.75-5.11,12.56-6.8,10.66-3.1,12.6.47,20.67-2.36s6.82-6.63,16.23-9.94c7-2.47,9.37-.92,13.34-4.19,4.43-3.64,3.23-7,8.11-10.2,3.66-2.41,5.76-1.47,9.42-4.19,3-2.22,2.59-6.26,5.5-7.06.26-.07,1.52-.42,2,.13,1,1.21-2.15,6.47-6.8,9.42-4.3,2.72-5.5.69-8.38,3.14-3.64,3.11-2.63,7.17-7.58,11a15,15,0,0,1-2.38,1.5c-4.94,2.47-7.92.34-13.06,2.42a16.58,16.58,0,0,0-4.19,2.5c-2.77,2.3-3.17,4.26-6.13,6.3a15.19,15.19,0,0,1-3.29,1.67c-6.47,2.56-10.5.17-19.62,1.57-4.75.73-7.13,1.09-9.08,2.91-1.47,1.36-2.52,3.25-4.53,3.37C175,97.3,173.49,96.81,173.33,96.05Z"/></g><g class="cls-3"><path class="cls-4" d="M195.71,86.11c-2.33,2-24.11,5.43-27.35,4.81a3.38,3.38,0,0,1-2.28-1.44,5,5,0,0,1,1.5-.68,158.62,158.62,0,0,0,28.06-5.53C196.7,83.51,197.48,84.55,195.71,86.11Z"/></g><path class="cls-9" d="M173.33,94.48c-.36-1.8,6.75-5.11,12.56-6.8,10.66-3.1,12.6.47,20.67-2.36s6.82-6.63,16.23-9.94c7-2.47,9.37-.92,13.34-4.19,4.43-3.64,3.23-7,8.11-10.2,3.66-2.41,5.76-1.47,9.42-4.19,3-2.22,2.59-6.26,5.5-7.06.26-.07,1.52-.42,2,.13,1,1.21-2.15,6.47-6.8,9.42-4.3,2.72-5.5.69-8.38,3.14-3.64,3.11-2.63,7.17-7.58,11a15,15,0,0,1-2.38,1.5c-4.94,2.47-7.92.34-13.06,2.42a16.58,16.58,0,0,0-4.19,2.5c-2.77,2.3-3.17,4.26-6.13,6.3a15.19,15.19,0,0,1-3.29,1.67c-6.47,2.56-10.5.17-19.62,1.57-4.75.73-7.13,1.09-9.08,2.91-1.47,1.36-2.52,3.25-4.53,3.37C175,95.73,173.49,95.24,173.33,94.48Z"/><g class="cls-3"><path d="M185.63,123.26a20.56,20.56,0,0,1-6-2.8c97.12.41,95.44-49,95.44-49a12.16,12.16,0,0,1,3,8.13C278.26,94.22,264.91,124.31,185.63,123.26Z"/></g><g class="cls-3"><path class="cls-4" d="M274.11,50.53h0c-7.31-10-17.75-3.47-21.15-.9,1-1.07,2.06-2.16,3.07-3.28C263.34,38.2,270.76,43.44,274.11,50.53Z"/></g><g class="cls-10"><path class="cls-4" d="M262,81.28s-13.09,11.08-21.17,13.5c-5.49,1-3.23,4.42,0,3.73s21.94-12.33,23.32-15.08S263.08,80.37,262,81.28Z"/></g><g class="cls-10"><path class="cls-4" d="M203.94,71.52S194,75,188.82,74.63c-3.37-.62-2.82,1.83-.82,2.14s15.31-2.27,16.71-3.55S204.75,71.23,203.94,71.52Z"/></g><circle class="cls-11" cx="189.52" cy="110.36" r="1.99"/><circle class="cls-11" cx="215.03" cy="110.36" r="1.99"/><path class="cls-11" d="M202.38,114.91a9.07,9.07,0,0,1-5.37-1.66.55.55,0,1,1,.69-.86,8.2,8.2,0,0,0,4.68,1.42,8.7,8.7,0,0,0,4.79-1.43.55.55,0,0,1,.77.1.56.56,0,0,1-.11.78A9.65,9.65,0,0,1,202.38,114.91Z"/><rect class="cls-12" y="0.25" width="300" height="165"/></g></g></svg>