<svg xmlns="http://www.w3.org/2000/svg" xmlns:xlink="http://www.w3.org/1999/xlink" viewBox="0 0 300 165"><defs><style>.cls-1{isolation:isolate;}.cls-2{fill:#fce5cd;}.cls-3{fill:#474849;}.cls-4{fill:#ffc76c;}.cls-5{fill:#c1272d;}.cls-6{fill:#ffe8d9;}.cls-7{fill:#54422e;}.cls-8{opacity:0.36;}.cls-11,.cls-13,.cls-15,.cls-8{mix-blend-mode:soft-light;}.cls-9{fill:#ef8c48;}.cls-10{fill:#cc4e2b;}.cls-11{opacity:0.43;}.cls-12{fill:#487233;}.cls-14{fill:#fff;}.cls-15{opacity:0.44;}.cls-16{fill:url(#linear-gradient);}</style><linearGradient id="linear-gradient" x1="150.37" y1="168.37" x2="149.66" y2="1.92" gradientUnits="userSpaceOnUse"><stop offset="0.03" stop-color="#591c16"/><stop offset="0.22" stop-color="#5f241d" stop-opacity="0.96"/><stop offset="0.38" stop-color="#733c33" stop-opacity="0.84"/><stop offset="0.53" stop-color="#936459" stop-opacity="0.64"/><stop offset="0.68" stop-color="#c09d8d" stop-opacity="0.36"/><stop offset="0.82" stop-color="#fae5cf" stop-opacity="0"/></linearGradient></defs><g class="cls-1"><g id="Layer_1" data-name="Layer 1"><rect class="cls-2" x="-0.27" y="-0.15" width="300" height="165"/><path class="cls-3" d="M271.7,82.5A55.77,55.77,0,1,1,204.08,28h0a55.84,55.84,0,0,1,67.48,50.47C271.66,79.79,271.7,81.14,271.7,82.5Z"/><path class="cls-4" d="M267.31,82.5a51.4,51.4,0,0,1-44.93,51,52.69,52.69,0,0,1-6.45.4,51.38,51.38,0,0,1-2-102.72c.67,0,1.35,0,2,0A51.38,51.38,0,0,1,267.31,82.5Z"/><path class="cls-5" d="M267.31,82.5a51.4,51.4,0,0,1-44.93,51c4.47-4.07,12-12.64,12-24.28,0-19.6-31.94-29.07-31.94-49,0-13.67,7.73-24.54,11.5-29,.67,0,1.35,0,2,0A51.38,51.38,0,0,1,267.31,82.5Z"/><path class="cls-3" d="M219.86,137.5l-1.43-2.1a39,39,0,0,0,7.38-7.05c3.32-4.08,7.28-10.66,7.28-18.81,0-9.2-7.51-16.07-15.46-23.35S201.14,71.1,201.14,60.53c0-9.64,3.78-17.87,7-23.07a49.33,49.33,0,0,1,7-9.1l1.77,1.81a48.43,48.43,0,0,0-6.6,8.67c-3,4.91-6.54,12.67-6.54,21.69,0,9.45,7.61,16.42,15.66,23.79s16.28,14.9,16.28,25.22c0,7.07-2.73,14.15-7.89,20.47A41.48,41.48,0,0,1,219.86,137.5Zm-3-107.33-.89-.91.89.91Z"/><path class="cls-3" d="M268.07,98.22a1.27,1.27,0,0,1-.48-2.44l10.87-4.46v-17L267.2,70a1.26,1.26,0,1,1,.91-2.36l12.08,4.63a1.27,1.27,0,0,1,.81,1.19v18.7a1.25,1.25,0,0,1-.79,1.17l-11.66,4.78A1.18,1.18,0,0,1,268.07,98.22Z"/><path class="cls-3" d="M163.72,97.71a1.36,1.36,0,0,1-.48-.09l-11.66-4.78a1.27,1.27,0,0,1-.79-1.18V73a1.26,1.26,0,0,1,.81-1.18l12.08-4.64a1.27,1.27,0,0,1,.91,2.37l-11.27,4.32v17l10.88,4.46a1.27,1.27,0,0,1-.48,2.44Z"/><circle class="cls-6" cx="221.09" cy="55.49" r="1.58"/><circle class="cls-6" cx="239.97" cy="55.49" r="1.58"/><path class="cls-6" d="M230.6,59.18a7.37,7.37,0,0,1-4.32-1.34.52.52,0,0,1-.07-.72.51.51,0,0,1,.71-.08,6.36,6.36,0,0,0,3.68,1.12A6.8,6.8,0,0,0,234.37,57a.51.51,0,0,1,.71.09.5.5,0,0,1-.1.71A7.62,7.62,0,0,1,230.6,59.18Z"/><circle class="cls-7" cx="194.16" cy="111.49" r="1.71"/><circle class="cls-7" cx="215.87" cy="111.49" r="1.71"/><path class="cls-7" d="M205.16,115.43a7.8,7.8,0,0,1-4.63-1.44.5.5,0,0,1-.08-.71.51.51,0,0,1,.71-.08,7,7,0,0,0,4,1.22,7.32,7.32,0,0,0,4.09-1.23.52.52,0,0,1,.71.1.51.51,0,0,1-.1.71A8.22,8.22,0,0,1,205.16,115.43Z"/><g class="cls-8"><path d="M246.92,74.19c-.34-1.75,1.49-4.11,3.52-4.42,2.25-.35,4.11,1.94,5.48,3.63,3.62,4.45,5.32,10.78,4,11.58s-3.3-4.42-10.32-8.26C248.57,76.17,247.17,75.49,246.92,74.19Z"/></g><path class="cls-9" d="M246.63,72.87c-.35-1.75,1.48-4.11,3.51-4.42,2.26-.35,4.12,1.94,5.49,3.63,3.61,4.45,5.32,10.78,4,11.58s-3.3-4.42-10.32-8.26C248.28,74.85,246.88,74.17,246.63,72.87Z"/><g class="cls-8"><path d="M185.24,69c.17-1-1.84-2.55-3.85-2.92-2.25-.41-3.85.76-5,1.63-3.14,2.28-4.22,5.84-2.82,6.43s2.83-2.29,9.35-3.9C183.8,70,185.11,69.77,185.24,69Z"/></g><path class="cls-9" d="M185.4,68.28c.18-1-1.83-2.55-3.85-2.92-2.24-.41-3.85.76-5,1.63-3.13,2.28-4.22,5.84-2.81,6.44s2.83-2.29,9.35-3.91C184,69.3,185.27,69,185.4,68.28Z"/><g class="cls-8"><path d="M251.32,113.48c.17-1-1.84-2.55-3.85-2.92-2.24-.41-3.85.76-5,1.62-3.14,2.29-4.22,5.85-2.82,6.44s2.83-2.29,9.35-3.9C249.88,114.49,251.19,114.22,251.32,113.48Z"/></g><path class="cls-9" d="M251.48,112.73c.18-1-1.83-2.55-3.85-2.92-2.24-.41-3.85.76-5,1.63-3.14,2.28-4.23,5.84-2.82,6.43s2.83-2.29,9.35-3.9C250.05,113.74,251.36,113.47,251.48,112.73Z"/><g class="cls-8"><path d="M190.41,96.53c-1.46-1.47-.59-5.68,1.52-6.76.78-.4,1.1-.06,3.55-.17,3.05-.14,3.45-.7,4.4-.34,2.52,1,3.74,6.44,2,7.94-.92.8-1.93-.16-6.09-.33C192.22,96.71,191.24,97.36,190.41,96.53Z"/></g><path class="cls-10" d="M189.91,95.68c-1.47-1.47-.59-5.67,1.52-6.76.77-.39,1.09-.06,3.55-.17,3-.13,3.44-.7,4.39-.33,2.53,1,3.74,6.44,2,7.94-.91.8-1.93-.16-6.09-.34C191.71,95.87,190.74,96.51,189.91,95.68Z"/><g class="cls-8"><path d="M184.14,53.52c-.93-1.33.31-4.43,2.08-5,.65-.2.84.11,2.74.35,2.36.31,2.74-.06,3.42.34,1.8,1.08,2,5.45.48,6.37-.81.48-1.46-.39-4.62-1.09C185.5,53.91,184.66,54.27,184.14,53.52Z"/></g><path class="cls-10" d="M183.86,52.8c-.92-1.32.32-4.43,2.09-5,.64-.2.84.1,2.74.35,2.35.31,2.73-.07,3.41.33,1.81,1.08,2,5.45.48,6.37-.8.49-1.46-.39-4.62-1.08C185.22,53.19,184.39,53.55,183.86,52.8Z"/><g class="cls-8"><path d="M241.28,82.5c-1.46-1.47-.59-5.68,1.52-6.76.78-.4,1.1-.06,3.55-.17,3.05-.14,3.45-.7,4.4-.34,2.52,1,3.74,6.44,2,8-.92.79-1.93-.16-6.09-.34C243.09,82.68,242.11,83.33,241.28,82.5Z"/></g><g class="cls-11"><path d="M179.26,91.8a5.51,5.51,0,0,1-5.75-3.72c-.4-1.69.89-2.15,1-4.23.27-4.36-5.16-6.4-4.4-9.8a4.33,4.33,0,0,1,2.71-2.87,4.73,4.73,0,0,1,4.56.84c1.18,1,.72,1.7,2,3.38,1.63,2.09,2.95,1.78,3.38,3.21.49,1.68-1.15,2.68-.51,4.4.43,1.14,1.29,1.07,1.69,2C184.82,87,182.81,91.37,179.26,91.8Z"/></g><path class="cls-12" d="M178.75,91A5.49,5.49,0,0,1,173,87.23c-.41-1.69.88-2.14,1-4.22.27-4.37-5.16-6.41-4.39-9.81a4.32,4.32,0,0,1,2.7-2.87,4.75,4.75,0,0,1,4.56.85c1.18,1,.72,1.69,2,3.38,1.63,2.09,3,1.78,3.38,3.21.5,1.67-1.14,2.67-.51,4.39.43,1.15,1.29,1.07,1.69,2C184.31,86.17,182.3,90.52,178.75,91Z"/><g class="cls-11"><path d="M202.87,124.52a4,4,0,0,0,2.91,4c1.24.23,1.52-.72,3-.89,3.14-.36,4.83,3.49,7.26,2.8a3.12,3.12,0,0,0,2-2.06,3.45,3.45,0,0,0-.78-3.27c-.76-.82-1.26-.46-2.53-1.34-1.57-1.1-1.4-2.07-2.45-2.32-1.23-.3-1.89.93-3.16.53-.84-.26-.82-.89-1.53-1.14C206.11,120.32,203,121.94,202.87,124.52Z"/></g><path class="cls-12" d="M202.83,123.67a4,4,0,0,0,2.91,4c1.23.22,1.51-.73,3-.9,3.15-.36,4.83,3.49,7.26,2.8a3.16,3.16,0,0,0,2-2.06,3.46,3.46,0,0,0-.79-3.27c-.75-.82-1.25-.45-2.52-1.34-1.58-1.1-1.4-2.07-2.45-2.32-1.23-.29-1.9.93-3.16.53-.85-.26-.83-.89-1.54-1.14C206.07,119.47,203,121.09,202.83,123.67Z"/><path class="cls-4" d="M240.78,81.65c-1.47-1.47-.59-5.67,1.52-6.76.77-.39,1.09,0,3.55-.16,3-.14,3.44-.7,4.39-.34,2.53,1,3.74,6.44,2,7.94-.91.8-1.93-.16-6.09-.34C242.58,81.84,241.61,82.49,240.78,81.65Z"/><g class="cls-8"><path d="M244.66,99.74c.1.27,0,2,1.52,2a3,3,0,0,0,1.86-.85c2.61-2.45,4-12.43,2.88-12.67-.52-.11-1.75,2.8-4.23,8.62C246.06,98.36,245,98.79,244.66,99.74Z"/></g><path class="cls-12" d="M244.33,98.39c.09.27,0,2,1.52,2a3,3,0,0,0,1.86-.84c2.6-2.45,4-12.44,2.87-12.68-.51-.1-1.75,2.81-4.23,8.62C245.72,97,244.7,97.44,244.33,98.39Z"/><g class="cls-13"><ellipse class="cls-14" cx="250.66" cy="70.67" rx="1.61" ry="1.01"/></g><g class="cls-13"><ellipse class="cls-14" cx="249.65" cy="76.42" rx="1.61" ry="1.01"/></g><g class="cls-13"><ellipse class="cls-14" cx="246.99" cy="98.38" rx="1.61" ry="0.74" transform="translate(19.13 235.36) rotate(-52.73)"/></g><g class="cls-13"><ellipse class="cls-14" cx="245.81" cy="111.4" rx="1.61" ry="0.74" transform="translate(-21.06 71.25) rotate(-15.82)"/></g><g class="cls-13"><ellipse class="cls-14" cx="199.27" cy="90.41" rx="0.74" ry="1.61" transform="translate(-1.67 177.05) rotate(-47.73)"/></g><g class="cls-13"><ellipse class="cls-14" cx="206.03" cy="121.56" rx="1.61" ry="0.74" transform="translate(-33.18 119.3) rotate(-30)"/></g><g class="cls-13"><ellipse class="cls-14" cx="173.17" cy="71.94" rx="1.61" ry="0.74" transform="translate(-13.06 49.95) rotate(-15.82)"/></g><g class="cls-13"><ellipse class="cls-14" cx="180.1" cy="66.54" rx="1.61" ry="0.74" transform="translate(-11.32 51.63) rotate(-15.82)"/></g><g class="cls-13"><ellipse class="cls-14" cx="186" cy="49.46" rx="1.27" ry="0.74" transform="translate(6.24 118.22) rotate(-35.82)"/></g><g class="cls-13"><ellipse class="cls-14" cx="222.73" cy="37.54" rx="2.35" ry="6.11" transform="translate(165.78 256.11) rotate(-84.96)"/></g><g class="cls-13"><ellipse class="cls-14" cx="222.71" cy="102.24" rx="3.42" ry="5.5" transform="translate(-17.71 149.7) rotate(-35.82)"/></g><g class="cls-15"><path class="cls-14" d="M271.56,78.46C249.86,27.79,204.42,28,204.08,28a55.84,55.84,0,0,1,67.48,50.47Z"/></g><rect class="cls-16" width="300" height="165"/></g></g></svg>