<svg xmlns="http://www.w3.org/2000/svg" xmlns:xlink="http://www.w3.org/1999/xlink" viewBox="0 0 300 165.5"><defs><style>.cls-1{isolation:isolate;}.cls-2{fill:#fce5cd;}.cls-3{fill:#d6b396;}.cls-4{fill:#f7e6d7;}.cls-5{fill:#ce6734;}.cls-6{fill:#009245;}.cls-7{opacity:0.27;}.cls-11,.cls-13,.cls-15,.cls-17,.cls-7,.cls-8{mix-blend-mode:soft-light;}.cls-8{opacity:0.58;}.cls-9{fill:#ea9942;}.cls-10{fill:#dd2a22;}.cls-11{opacity:0.74;}.cls-12{fill:#fff;}.cls-13{opacity:0.61;}.cls-14{fill:#ff791f;}.cls-15{opacity:0.52;}.cls-16{fill:#5e5046;}.cls-17{opacity:0.49;}.cls-18{fill:url(#linear-gradient);}</style><linearGradient id="linear-gradient" x1="150.37" y1="168.62" x2="149.66" y2="2.17" gradientUnits="userSpaceOnUse"><stop offset="0.03" stop-color="#591c16"/><stop offset="0.22" stop-color="#5f241d" stop-opacity="0.96"/><stop offset="0.38" stop-color="#733c33" stop-opacity="0.84"/><stop offset="0.53" stop-color="#936459" stop-opacity="0.64"/><stop offset="0.68" stop-color="#c09d8d" stop-opacity="0.36"/><stop offset="0.82" stop-color="#fae5cf" stop-opacity="0"/></linearGradient></defs><g class="cls-1"><g id="Layer_1" data-name="Layer 1"><rect class="cls-2" y="0.25" width="300" height="165"/><path class="cls-3" d="M277.55,70.7c.27,8-27.25,11.69-60.85,11.69s-60.43-5.25-60.86-11.69C155.36,63.37,183.09,59,216.7,59S277.33,64.24,277.55,70.7Z"/><path class="cls-4" d="M157.33,75.77a6.89,6.89,0,0,1,.84-3.65,7.55,7.55,0,0,1,4-3c2.14-.74,3.18-.17,5.31-.3,4-.26,4.21-2.54,10.31-4.68,2.51-.89,5.86-2,8-.55.87.59.72,1,1.8,1.94,1.84,1.53,4.11,1.69,6.08,1.83,3.13.22,5.74.4,7.62-1.16s1.81-3.52,3.71-3.89a15.46,15.46,0,0,0,2.11-.18c1.44-.34,1.5-.84,2.5-1,1.21-.17,1.57.51,3.33.79a13.21,13.21,0,0,0,2.81-.06,12.18,12.18,0,0,1,5.64,1.36c.73.36,3.59,1.78,4.48,3.87,1.74,4.09-4.37,10.15-8,13-2,1.53-8.42,6.07-22,7C176,88.37,157.73,80.82,157.33,75.77Z"/><ellipse class="cls-4" cx="216.7" cy="74.48" rx="58.83" ry="11.31"/><path class="cls-5" d="M221.68,63.21c1.06-1.15,6.63-1.21,9-.7,3.15.68,3.51.73,5.62,1.31,3.37.92,4.45-.13,9.39-.21,2.76,0,5.63.47,11.38,1.5a94.4,94.4,0,0,1,10.08,2.6,12.82,12.82,0,0,1,2.31,1c2.13,1.16,5,3.54,4.46,4.93-.75,2.11-2.56.46-6.08,1.13s-6,4.67-7.89,6.53c-4.36,4.31-11.41,3.95-16.56,4-24.06.08-37.25,8.55-40.91,3.14-1.54-2.26-.92-6.24,1-7.66,2.54-1.87,7.08,1,10.37-1.64.91-.72.54-.92,1.72-1.92,2.54-2.12,4.7-1.6,5.77-3.42.61-1,.05-1.48.86-2.6s1.86-1.06,2.31-2-.26-1-.5-3C223.9,64.7,220.92,64,221.68,63.21Z"/><path class="cls-6" d="M225.92,82.32l-1.18-.11a5.38,5.38,0,0,1-2.38-.79,4.17,4.17,0,0,1-1.49-1.55l-1.43-3h0l-.23-.49c0-.08,0-.16.15-.14l3.56.72a4.59,4.59,0,0,1,3.32,3.14,2.82,2.82,0,0,1,.07.31l.22,1.44A.5.5,0,0,1,225.92,82.32Z"/><path class="cls-6" d="M269.73,77.6a4.89,4.89,0,0,1-1.49,2.12l-1.44,1.16a.65.65,0,0,1-.95-.26l-.64-1.22a5.33,5.33,0,0,1,.05-5.29l2.69-3.8.09-.12a.15.15,0,0,1,.25,0l1.52,3.93A5.71,5.71,0,0,1,269.73,77.6Z"/><g class="cls-7"><path d="M266.27,72.67s1.19,0,1.45.19a2.1,2.1,0,0,1,.51,1.62c0,.83,0,3,0,3l-.73.13Z"/></g><g class="cls-8"><polygon points="254.32 76.35 254.12 80.37 255.39 80.33 254.32 76.35"/></g><path class="cls-9" d="M156.82,73.81a6.8,6.8,0,0,1-1.31-1.74,4.86,4.86,0,0,1-.42-1,2.21,2.21,0,0,1-.09-.59,2.69,2.69,0,0,1,.06-.57A4.05,4.05,0,0,1,156.21,68,9.78,9.78,0,0,1,158,66.62a23.67,23.67,0,0,1,3.9-1.87c1.34-.52,2.71-1,4.09-1.35,2.77-.8,5.57-1.42,8.39-2s5.66-1,8.51-1.35c5.69-.75,11.42-1.25,17.15-1.59s11.47-.5,17.22-.51,11.49.13,17.22.44,11.47.81,17.17,1.56c2.85.37,5.7.81,8.52,1.34s5.65,1.16,8.43,2c1.39.41,2.76.87,4.12,1.42.67.28,1.34.57,2,.91a14.73,14.73,0,0,1,1.93,1.16,7.28,7.28,0,0,1,1.69,1.64,3.7,3.7,0,0,1,.57,1.14,3,3,0,0,1,.13.66c0,.11,0,.22,0,.34s0,.22,0,.31a5.75,5.75,0,0,1-.23,1.11,6.72,6.72,0,0,1-.41,1,4.94,4.94,0,0,1-.63,1,3.13,3.13,0,0,1-1,.79l-.56-.68a5.17,5.17,0,0,0,.74-1.61,10.43,10.43,0,0,0,.36-1.8,1.41,1.41,0,0,0,0-.2,1,1,0,0,0,0-.17,2.21,2.21,0,0,0-.06-.34,2.5,2.5,0,0,0-.35-.69,5.61,5.61,0,0,0-1.31-1.25A17.55,17.55,0,0,0,272,66.19a39.16,39.16,0,0,0-3.95-1.38c-2.69-.8-5.46-1.43-8.24-2s-5.61-1-8.43-1.36a274.52,274.52,0,0,0-34.17-2.15q-8.58,0-17.15.38c-5.71.29-11.41.74-17.07,1.44-2.83.35-5.66.75-8.46,1.25s-5.59,1.08-8.33,1.83c-1.36.37-2.71.79-4,1.28a22.1,22.1,0,0,0-3.78,1.76,9,9,0,0,0-1.62,1.2,3.33,3.33,0,0,0-1,1.56,1.67,1.67,0,0,0-.06.44,2.18,2.18,0,0,0,.05.42,5.37,5.37,0,0,0,.35.88,6.27,6.27,0,0,0,1.15,1.59Z"/><path class="cls-10" d="M268,74.34v3A1.67,1.67,0,0,1,266.52,79l-9.83,1.64a1.82,1.82,0,0,1-1.3-.28,1.6,1.6,0,0,1-.71-1.12l-.35-2.48a1.54,1.54,0,0,1,.3-1.16,1.65,1.65,0,0,1,.73-.57l2.7-1.11h0l4.12-1.68a1.77,1.77,0,0,1,1-.11l3.34.63A1.66,1.66,0,0,1,268,74.34Z"/><g class="cls-11"><path class="cls-12" d="M226.24,80.07a5.66,5.66,0,0,1-.52-.59c-1.8-2.26-6.51-3.13-6.51-3.13s0-.16.15-.14l3.56.72A4.59,4.59,0,0,1,226.24,80.07Z"/></g><g class="cls-13"><path d="M223.31,80.85c.46.09-.17.33-.81.53l-.08,0-.06,0a4.17,4.17,0,0,1-1.49-1.55l-1.42-3a17.8,17.8,0,0,0,2,2.87,1.07,1.07,0,0,0,.87.35,9.4,9.4,0,0,0,2.08-.39C225.45,79.35,224.24,80.23,223.31,80.85Z"/></g><g class="cls-13"><path d="M235.25,69.56a1.62,1.62,0,0,0,1.24,1.53c1.25.34,8.56,1.57,8.56,1.57l-1-1.43Z"/></g><path class="cls-14" d="M245.05,81.91c0,1.33-21.88,4-24.72,2.12-.77-.51.67-2.74,1.39-3.22,1.43-1,2.9-.88,3.95-2a9.86,9.86,0,0,0,1.3-1.92,3.25,3.25,0,0,1,1.26-1.2c.9-.47,3.39.22,4.72,1a5.27,5.27,0,0,0,2.77.77c1.71.09,1.57-.15,2.26,0,1.85.43,2.13,2,4.34,3.34C244,81.83,245,80.57,245.05,81.91Z"/><path class="cls-10" d="M246.23,67.75l-.29,3.11a1.39,1.39,0,0,1-1.62,1.19l-7.92-1.4a1.41,1.41,0,0,1-1.15-1.38V66.7a1.39,1.39,0,0,1,1.12-1.37l1.46-.29h0l1.23-.25a1.44,1.44,0,0,1,.82.09l5.35,1.54.11,0A1.22,1.22,0,0,1,246.23,67.75Z"/><g class="cls-11"><path class="cls-12" d="M269.73,77.6a.89.89,0,0,1-.17-.81c.28-1.68-1.61-6.48-1.61-6.48l.09-.12a.15.15,0,0,1,.25,0l1.52,3.93A5.71,5.71,0,0,1,269.73,77.6Z"/></g><g class="cls-8"><path d="M255.39,80.33a1.6,1.6,0,0,1-.71-1.12l-.35-2.48a1.54,1.54,0,0,1,.3-1.16s.47,4.41,1.62,4.37C256.79,79.92,256.18,80.12,255.39,80.33Z"/></g><path class="cls-9" d="M234.94,107.52H200.37a2,2,0,0,1-2-1.94V104.3a2,2,0,0,1,2-1.93h34.57a2,2,0,0,1,2,1.93v1.28A2,2,0,0,1,234.94,107.52Z"/><path class="cls-9" d="M278.15,70.49c0,19.38-27.49,35.08-61.39,35.08s-61.4-15.7-61.4-35.08c0,6.53,27.49,11.83,61.4,11.83S278.15,77,278.15,70.49Z"/><g class="cls-15"><path d="M198.31,103.86s8.79.87,18.3.87,20.17-1.2,20.17-1.2A71.14,71.14,0,0,1,198.31,103.86Z"/></g><ellipse class="cls-16" cx="204.4" cy="91.52" rx="1.68" ry="1.59"/><ellipse class="cls-16" cx="229.04" cy="91.52" rx="1.68" ry="1.59"/><path class="cls-16" d="M216.86,95.21a7.93,7.93,0,0,1-4.56-1.35.47.47,0,0,1-.08-.68.54.54,0,0,1,.72-.08,7,7,0,0,0,3.92,1.14,7.5,7.5,0,0,0,4-1.14.54.54,0,0,1,.72.09.47.47,0,0,1-.1.68A8.36,8.36,0,0,1,216.86,95.21Z"/><g class="cls-13"><path d="M242.74,67s-.7,1.41.24,2.19a9.88,9.88,0,0,0,2.35,1.07l.26-.36-2.42-2.23Z"/></g><g class="cls-13"><path d="M257.46,70s.36.66-2.26,1.13-2.55,0-2.55,0l.66-.91,4.08-.22"/></g><g class="cls-11"><path class="cls-12" d="M245.24,66.42a2.48,2.48,0,0,1-2.12-.15A16.12,16.12,0,0,0,237.84,65l1.23-.25a1.44,1.44,0,0,1,.82.09Z"/></g><g class="cls-17"><path class="cls-12" d="M155.84,72s11.08,15,94.26,8.67C250.23,80.66,167.4,93.05,155.84,72Z"/></g><path class="cls-14" d="M257.46,70c-.06.23-.5.43-1.19.56a18.88,18.88,0,0,1-3.62.27c-4.05,0-9.27-.85-9.85-2.87a2.91,2.91,0,0,1,.91-2.5,9.17,9.17,0,0,1,2.79-2.12h0a9.31,9.31,0,0,1,2-.72c.65-.15,4.18-.24,5.84,1.27s1.93,3.13,2.5,4.54A8.44,8.44,0,0,1,257.46,70Z"/><g class="cls-7"><path d="M252.65,70.82c-4.05,0-9.27-.85-9.85-2.87a2.91,2.91,0,0,1,.91-2.5s-.37,4.64,7.51,5.25Z"/></g><g class="cls-13"><path d="M244,75a9.63,9.63,0,0,0,3.31.64c1.7,0,4.61-1.11,5-2.06S244,75,244,75Z"/></g><g class="cls-11"><path class="cls-12" d="M257.46,70c-.06.23-.5.43-1.19.56a.14.14,0,0,1,0-.06c-2.49-9.13-9.75-7.16-9.75-7.16h0a9.31,9.31,0,0,1,2-.72c.65-.15,4.18-.24,5.84,1.27s1.93,3.13,2.5,4.54A8.44,8.44,0,0,1,257.46,70Z"/></g><path class="cls-6" d="M256.66,66l-1,2.39h0l-1.13,2.72a7.8,7.8,0,0,1-4.44,3.65,8.26,8.26,0,0,1-2.9.42l-2.81-.1a.86.86,0,0,1-.84-1.07l.18-.69h0l.28-1a7.07,7.07,0,0,1,2.23-3.53h0a7.63,7.63,0,0,1,3.07-1.59l7.11-1.44A.2.2,0,0,1,256.66,66Z"/><g class="cls-11"><path class="cls-12" d="M256.66,66l-1,2.39c1-2.31-9.2.31-9.42.37a7.63,7.63,0,0,1,3.07-1.59l7.11-1.44A.2.2,0,0,1,256.66,66Z"/></g><g class="cls-7"><path d="M250.1,74.8a8.26,8.26,0,0,1-2.9.42l-2.81-.1a.86.86,0,0,1-.84-1.07l.18-.69h0S244.48,75.5,250.1,74.8Z"/></g><g class="cls-11"><path class="cls-12" d="M235.83,66.36a.77.77,0,0,0,0,.68c0,.1.12.33.29.35s.13,0,.47-.26a2.09,2.09,0,0,1,.7-.27,1.58,1.58,0,0,1,.92.11c.36.11.62.18,1.15.3a4.81,4.81,0,0,0,1,.2A13.88,13.88,0,0,0,238,66.6C236.3,66.12,236,66.2,235.83,66.36Z"/></g><g class="cls-11"><path class="cls-12" d="M268,74.34v.88a2.17,2.17,0,0,0-1.26-1.92,29,29,0,0,0-4-.76c-.38,0-4.41,1.27-4.66,1.35l4.12-1.68a1.77,1.77,0,0,1,1-.11l3.34.63A1.66,1.66,0,0,1,268,74.34Z"/></g><g class="cls-11"><path class="cls-12" d="M242.32,80.83a22.18,22.18,0,0,1-4-2.47c-.64-.47-1.81-.1-2.38,0a10.32,10.32,0,0,1-4.84-1.44,4.45,4.45,0,0,0-4.13,0,3.25,3.25,0,0,1,1.26-1.2c.9-.47,3.39.22,4.72,1a5.27,5.27,0,0,0,2.77.77c1.71.09,1.57-.15,2.26,0C239.83,77.92,240.11,79.51,242.32,80.83Z"/></g><rect class="cls-18" y="0.25" width="300" height="165"/></g></g></svg>