<svg xmlns="http://www.w3.org/2000/svg" xmlns:xlink="http://www.w3.org/1999/xlink" viewBox="0 0 300 165.5"><defs><style>.cls-1{isolation:isolate;}.cls-2{fill:#fce5cd;}.cls-3{fill:none;}.cls-4{fill:#3f562b;}.cls-5{opacity:0.44;}.cls-16,.cls-17,.cls-5,.cls-6,.cls-7{mix-blend-mode:soft-light;}.cls-6{opacity:0.29;}.cls-7{opacity:0.24;}.cls-8{fill:#5b773d;}.cls-9{fill:#f4a56e;}.cls-10{fill:#84471e;}.cls-11{fill:#fff;}.cls-12{fill:#d65e29;}.cls-13{fill:#f2ba3d;}.cls-14{fill:#324926;}.cls-15{fill:#8dce76;}.cls-16{opacity:0.74;}.cls-18{fill:#00922b;}.cls-19{fill:#3f240f;}.cls-20{fill:url(#linear-gradient);}</style><linearGradient id="linear-gradient" x1="150.37" y1="168.62" x2="149.66" y2="2.17" gradientUnits="userSpaceOnUse"><stop offset="0.03" stop-color="#591c16"/><stop offset="0.22" stop-color="#5f241d" stop-opacity="0.96"/><stop offset="0.38" stop-color="#733c33" stop-opacity="0.84"/><stop offset="0.53" stop-color="#936459" stop-opacity="0.64"/><stop offset="0.68" stop-color="#c09d8d" stop-opacity="0.36"/><stop offset="0.82" stop-color="#fae5cf" stop-opacity="0"/></linearGradient></defs><g class="cls-1"><g id="Layer_1" data-name="Layer 1"><rect class="cls-2" y="0.25" width="300" height="165"/><path class="cls-3" d="M279.3,90.81a3.86,3.86,0,0,1-.7,1.5l-.25.33-.85,1.15-.66.89h0L276,95.79l-6.56,8.84-.84,1.13-.23.31-.81,1.1-7.47,10.07-.64.85-.19.27-.61.81-8.91,12h0l-.25.34-.57.77-.22.3-2.21,3a5.54,5.54,0,0,1-3.15,2,6.86,6.86,0,0,1-4.19-.31L125.61,89.86c-3.25-1.35-4-4.81-1.52-7l.91-.78,0,0,.18-.15.27-.24h0l2.61-2.26,2.66-2.31,0,0,.56-.49.46-.4.4-.34.38-.32,1.2-1.05.08-.07,0,0,1.3-1.13,3.46-3,0,0,.44-.38.59-.51.23-.2.49-.42,2.27-2,2.31-2,.18-.15L147,63l.47-.39L149,61.38l.51-.44,2.29-2a6.47,6.47,0,0,1,5.58-1.26h.07l2,.48.31.07.73.17.09,0h0l1.8.42h0l.53.13.41.1.5.12.26.06,1.48.35.89.21,5.42,1.29h0l3.69.88.66.15.5.12.73.18,1.3.31,1.4.33.5.12h0l1.46.34,3,.72.65.16.54.12,2.14.51,2.18.52,2.57.61,14.74,3.5,2.08.5L217.49,72l1.88.45,9.8,2.33.63.15,5.7,1.35-.95-3.07L232.94,68l.74.36,18.12,8.91h0l2.34,1.15,2.16,1.06,1.59.78,4.72,2.32.49.24,2.65,1.3,1.71.85.15.07,1.45.71h0l1.55.77.58.28Z"/><path class="cls-4" d="M279.3,90.81a3.86,3.86,0,0,1-.7,1.5l-.25.33-.85,1.15-.66.89h0L276,95.79l-6.56,8.84-.84,1.13-.23.31-.81,1.1-7.47,10.07-.64.85-.19.27-.61.81-8.91,12h0l-.25.34-.57.77-.22.3-2.21,3a5.54,5.54,0,0,1-3.15,2,6.86,6.86,0,0,1-4.19-.31L125.61,89.86c-3.25-1.35-4-4.81-1.52-7l.91-.78,0,0,.18-.15.27-.24h0l2.61-2.26,2.66-2.31,0,0,.56-.49.46-.4.4-.34.38-.32,1.2-1.05.08-.07,0,0,1.3-1.13,3.46-3,0,0,.44-.38.59-.51.23-.2.49-.42,2.27-2,2.31-2,.18-.15L147,63l.47-.39L149,61.38l.51-.44,2.29-2a6.47,6.47,0,0,1,5.58-1.26h.07l2,.48.31.07.73.17.09,0h0l1.8.42h0l.53.13.41.1.5.12.26.06,1.48.35.89.21,5.42,1.29h0l3.69.88.66.15.5.12.73.18,1.3.31,1.4.33.5.12h0l1.46.34,3,.72.65.16.54.12,2.14.51,2.18.52,2.57.61,14.74,3.5,2.08.5L217.49,72l1.88.45,9.8,2.33.63.15,5.7,1.35.68.16,1.71.41h0l2.81.66,4.51,1.07h0l3.51.83,1.57.37,1,.25,2.37.56,2.58.62h0l6.46,1.53.06,0,.3.07,2.28.54,1.06.25,2.27.54.72.17,3.75.9.78.18,1.45.35C278.21,86.43,279.77,88.66,279.3,90.81Z"/><g class="cls-5"><path d="M163.88,55.26l-.06.42-.1.64h0l-.29,1.8-.11.69,0,.3-.05.32-.05.36-.09.56-.42-.05.06-.44.09-.52.05-.33,0-.2.21-1.34.19-1.18.14-.9.08-.48A2,2,0,0,1,163.88,55.26Z"/><path d="M166.4,59.85l-.22,2h0L165.85,65l0,.18-.05.48h0l-.09.82-.05.49,0,.22-.71,6.6h0l-.41,3.91-.53,5h0l-1.16,10.87a1.69,1.69,0,0,1-.08.39,2.26,2.26,0,0,1-2.29,1.54l-2.53-.15A2,2,0,0,1,156,93.43a1.3,1.3,0,0,1,0-.34l.21-2,.42-3.9.07-.63.43-4.06h0v-.14l.07-.6.24-2.3.08-.71.13-1.24.2-1.86.41-3.87h0l.18-1.64h0l.2-1.93.06-.52.39-3.7h0l0-.48,0-.15.38-3.56.05-.51.11-1v-.11a2.15,2.15,0,0,1,.5-1.15,2.64,2.64,0,0,1,.51-.43,2.43,2.43,0,0,1,1.36-.35l1.21.07.43,0,.59,0a1.93,1.93,0,0,1,0,.34l-.24,2.19,0,.41,1.48.35Z"/><g class="cls-6"><path d="M164.31,56.35a1.93,1.93,0,0,1,0,.34l-.24,2.19-.4-.05-.35,0h-.43a3.17,3.17,0,0,0-.56.07h0a1,1,0,0,0-.49.26.16.16,0,0,0,0,.06,3.72,3.72,0,0,0-.17.74c-.07.32-.14.74-.22,1.23,0,.12,0,.25,0,.38-.09.54-.18,1.15-.28,1.83l-.06.41c0,.11,0,.23-.05.35l0,.27c0,.33-.1.67-.14,1l0,.28c-.08.6-.17,1.23-.25,1.88,0,.24-.07.5-.1.75l-.06.48c0,.26-.07.53-.11.8,0,.1,0,.2,0,.3s-.05.43-.08.64l-.24,2-.15,1.21h0l-.24,2-.21,1.77v.09c-.06.56-.13,1.11-.19,1.66-.09.78-.18,1.55-.26,2.3l0,.2c0,.26-.06.51-.08.76,0,.42-.09.83-.14,1.24,0,.12,0,.24,0,.36-.09.87-.17,1.7-.25,2.47,0,.26-.05.51-.07.75,0,.43-.08.83-.11,1.22,0,.14,0,.27,0,.41a24.69,24.69,0,0,0-.15,3.35.3.3,0,0,0,0,.09,4.29,4.29,0,0,0,1.11,1.11,3.55,3.55,0,0,0,2.59.92,4.35,4.35,0,0,0,1.07-.49,2.26,2.26,0,0,1-2.29,1.54l-2.53-.15A2,2,0,0,1,156,93.43a1.3,1.3,0,0,1,0-.34l.21-2,.42-3.9.07-.63.43-4.06h0v-.14l.07-.6.24-2.3.08-.71.13-1.24.2-1.86.41-3.87.18-1.64.2-1.93.06-.52.39-3.7h0l0-.48,0-.15.38-3.56.05-.51.11-1v-.11a2.15,2.15,0,0,1,.5-1.15,2.64,2.64,0,0,1,.51-.43,2.43,2.43,0,0,1,1.36-.35l1.21.07.43,0Z"/></g><g class="cls-6"><path d="M166.4,59.85l-.22,2a11.37,11.37,0,0,0-.67-2.23Z"/></g><g class="cls-7"><path d="M157.12,82.47s.12-.81,3.36-1.34S164,82.62,164,82.62l.53-5s-7-.43-7.06-.13S157.12,82.47,157.12,82.47Z"/></g><g class="cls-7"><path d="M157.34,88.77a11.81,11.81,0,0,0,5,.11c.13,0,.06-.17-.1-.21a10,10,0,0,0-5,0C157.21,88.69,157.25,88.76,157.34,88.77Z"/></g><g class="cls-7"><path d="M157.94,84a12,12,0,0,0,5,.11c.13,0,.06-.17-.1-.22a10.1,10.1,0,0,0-5,0C157.81,83.87,157.85,83.94,157.94,84Z"/></g><g class="cls-7"><path d="M159.77,69.85a12,12,0,0,0,5,.11c.13,0,.07-.17-.1-.22a10.05,10.05,0,0,0-5,0C159.64,69.77,159.68,69.84,159.77,69.85Z"/></g><g class="cls-7"><path d="M160.38,65.65a12,12,0,0,0,5,.11c.13,0,.06-.18-.1-.22a10.1,10.1,0,0,0-5,0C160.25,65.56,160.29,65.64,160.38,65.65Z"/></g><g class="cls-7"><path d="M160.72,61.44a12,12,0,0,0,5,.11c.13,0,.06-.17-.1-.22a10.1,10.1,0,0,0-5,0C160.59,61.36,160.63,61.43,160.72,61.44Z"/></g></g><path class="cls-8" d="M249.76,131.19l-.26.34-.57.77-32.19-13h0l-10-4.05-31.5-12.77h0l-4.72-1.91-2.32-1h0l-2.7-1.09-20.72-8.4-10.54-4.28L125,82.08l.18-.15.27-.24,9.07,3.61,12.27,4.89h0l18.95,7.55,1.05.42h0l7.64,3h0l4.64,1.85h0l28.8,11.48,10.17,4Z"/><path class="cls-8" d="M260.11,117.24l-.64.85-.19.27L256,117.3l-11.62-3.79h0l-10-3.26-11-3.6L201,99.33,200,99l-4.46-1.45h0L162.37,86.74l-6.27-2-7.2-2.35c-8-2.61-14.18-4.63-17.54-5.74l.46-.4,19.45,6.23,5.8,1.85L162.43,86l14.34,4.59,3.52,1.13.16.05,44.31,14.17,11.14,3.57,8,2.55,11.6,3.7Z"/><path class="cls-8" d="M269.46,104.63l-.84,1.13-16.31-4.63-2.63-.75-9-2.56-2.41-.68L223,92.79h0l-2-.56-18-5.1h0l-2.32-.67h0l-.34-.09h0l-10.29-2.93-.43-.12-4.84-1.38-1.77-.5-8.91-2.54-8.26-2.34-2.46-.71-3.52-1h0l-2.3-.66-11-3.13L140,69.17l.49-.42,7.23,2L159.25,74l2.05.57h0l3.14.88,1.75.48,7.74,2.16,8.9,2.47,1.76.49,5.93,1.65.22.06.33.09,1,.28h0l2.47.69,3.38.94h0L206,87h0l18.12,5h0l2.19.6h0l11.47,3.19,4.43,1.24,7,1.93h0l4.77,1.33Z"/><g class="cls-5"><polygon points="180.6 63.23 179.37 63.9 178.18 64.55 177.71 64.8 176.89 65.25 176.62 65.39 176.41 65.11 176.81 64.89 177.85 64.33 177.97 64.27 179.19 63.6 180.1 63.11 180.6 63.23"/><path d="M179.2,67.54,141.6,92.72a1.92,1.92,0,0,1-1.38.29h0a2,2,0,0,1-1.38-1l-.52-.86-.75-1.25a2.19,2.19,0,0,1,.61-2.92L144,83.09l.58-.39,4.41-3,.6-.4,5.29-3.54h0l.6-.41,3.75-2.51.6-.4,6.34-4.25.59-.39,3.47-2.32.6-.4,4.53-3,.11-.08.27-.18a2,2,0,0,1,1.05-.33l.14.23.32-.17a1.88,1.88,0,0,1,.43.16l-.58.31.26.43,1.3.31.49.82.18.3.44.72A2.19,2.19,0,0,1,179.2,67.54Z"/><g class="cls-6"><path d="M179.2,67.54a9.15,9.15,0,0,0-1-3l-.21-.29-.09-.09a1.28,1.28,0,0,0-.62-.38,1.49,1.49,0,0,0-.7.22c-.81.36-2.22,1.13-4,2.2l-.45.26-.39.23-.52.31c-.89.53-1.85,1.1-2.86,1.72l-.38.23-.39.24-.56.35c-1.82,1.12-3.78,2.34-5.78,3.6l-.32.2-.39.24-.6.38-3.14,2-.28.18-.4.25-.6.38-4.71,3-.22.15-.41.26-.61.4h0c-1.37.89-2.66,1.74-3.83,2.52l-.16.1-.42.28-.62.42a49.22,49.22,0,0,0-5.32,3.78,7,7,0,0,0-.27,3.36,1.62,1.62,0,0,0,.26.66c.3.37.73.88,1.06,1.26a2,2,0,0,1-1.38-1l-.52-.86-.75-1.25a2.19,2.19,0,0,1,.61-2.92L144,83.09l.58-.39,4.41-3,.6-.4,5.29-3.54h0l.6-.41,3.75-2.51.6-.4,6.34-4.25.59-.39,3.47-2.32.6-.4,4.53-3,.11-.08.27-.18a2,2,0,0,1,1.05-.33l.14.23.32-.17a1.88,1.88,0,0,1,.43.16l-.58.31.26.43,1.3.31.49.82.18.3.44.72A2.19,2.19,0,0,1,179.2,67.54Z"/></g><g class="cls-7"><path d="M145.47,83.1c.35.82,1.08,3,2.47,4.23.09.08.17,0,.12-.21A9.6,9.6,0,0,0,145.51,83S145.43,83,145.47,83.1Z"/></g><g class="cls-7"><path d="M150.39,79.61a11.44,11.44,0,0,0,2.47,4.24c.09.08.17-.06.12-.22a9.59,9.59,0,0,0-2.54-4.13C150.39,79.45,150.35,79.53,150.39,79.61Z"/></g><g class="cls-7"><path d="M156.26,75.63c.36.82,1.09,3,2.47,4.24.1.08.17-.06.12-.22a9.49,9.49,0,0,0-2.54-4.13C156.26,75.47,156.23,75.55,156.26,75.63Z"/></g><g class="cls-7"><path d="M160.63,72.73c.35.82,1.08,3,2.47,4.23.09.09.17,0,.12-.21a9.71,9.71,0,0,0-2.54-4.14C160.63,72.57,160.59,72.65,160.63,72.73Z"/></g><g class="cls-7"><path d="M167.61,68.17c.36.82,1.09,3,2.47,4.23.1.09.17-.05.12-.21a9.49,9.49,0,0,0-2.54-4.13S167.58,68.09,167.61,68.17Z"/></g><g class="cls-7"><path d="M171.66,65.43a11.59,11.59,0,0,0,2.47,4.24c.1.08.17,0,.12-.22a9.59,9.59,0,0,0-2.54-4.13C171.66,65.27,171.62,65.35,171.66,65.43Z"/></g></g><path class="cls-8" d="M278.35,92.64l-.85,1.15L270.27,92l-6.13-1.54-.76-.2-5.24-1.31L244,85.36l-11.27-2.84-14.5-3.65-.11,0-2.7-.68h0l-26-6.54h0L149,61.38l.51-.44,82.85,20.38,11.24,2.77,16.23,4,5.28,1.3.77.18h0L271.48,91Z"/><polygon class="cls-9" points="160.85 58.49 160.43 58.45 161.06 54.44 161.2 53.53 161.62 50.9 162.33 46.42 163.24 40.66 163.66 40.71 162.69 46.88 162.01 51.18 161.59 53.82 161.49 54.46 160.85 58.49"/><path class="cls-10" d="M164.31,56.69l-.24,2.19,0,.41L164,60h0l-.11,1-.08.75-.27,2.6-.07.64,0,.21-.09.76-.09.9-.2,1.86h0l-.07.69-.08.75,0,.31-.19,1.72-.27,2.57-.08.71,0,.31-.18,1.72,0,.2-.14,1.37-.18,1.65h0l0,.29-.27,2.53-.08.72-.43,4.12-.08.7-.27,2.52a1.61,1.61,0,0,1-.08.38,2.2,2.2,0,0,1-1.43,1.43,2.45,2.45,0,0,1-.86.12L156,93.43l-.29,0a2,2,0,0,1-1.93-2.17l.76-7.18.37-3.45h0l0-.14.38-3.56,0-.35.1-.94,0-.16,0-.14.2-1.92h0l.16-1.53h0l.91-8.5.06-.61.54-5,.15-1.41a2.24,2.24,0,0,1,2.37-1.93l1.21.08.43,0,.89,0a2.17,2.17,0,0,1,1.13.4,2,2,0,0,1,.37.35,1.87,1.87,0,0,1,.43,1.09A1.93,1.93,0,0,1,164.31,56.69Z"/><g class="cls-6"><path class="cls-11" d="M164.31,56.69l-.24,2.19,0,.41L164,60s-.07-.36-.18-.79c0-.13-.06-.26-.1-.4s-.15-.48-.24-.71a3.27,3.27,0,0,0-.33-.65.61.61,0,0,0-.27-.24,7.47,7.47,0,0,0-1.74-.28h-.43l-.45,0a1.05,1.05,0,0,0-.6.28,3.74,3.74,0,0,0-.22.91c-.06.3-.12.68-.19,1.12l-.06.38c-.15,1-.32,2.14-.51,3.5,0,.13,0,.25,0,.38l0,.24v0c-.17,1.2-.34,2.52-.52,3.9,0,.1,0,.2,0,.31-.1.83-.21,1.68-.32,2.55-.06.54-.13,1.08-.2,1.62h0l-.24,2-.15,1.32,0,.2c0,.15,0,.3,0,.45s-.07.6-.1.9c-.09.73-.17,1.46-.25,2.17h0c0,.11,0,.22,0,.33-.08.76-.16,1.49-.24,2.2l0,.37c0,.24-.05.47-.08.71-.14,1.38-.26,2.64-.36,3.72l0,.41a16.68,16.68,0,0,0-.13,3.45,3.6,3.6,0,0,0,.47.57,6.55,6.55,0,0,0,1.73,1.19,2.21,2.21,0,0,0,1.5.26A4.18,4.18,0,0,0,160.5,92a2.2,2.2,0,0,1-1.43,1.43,2.45,2.45,0,0,1-.86.12L156,93.43l-.29,0a2,2,0,0,1-1.93-2.17l.76-7.18.37-3.45h0l0-.14.38-3.56,0-.35.1-.94,0-.16,0-.14.2-1.92h0l.16-1.53h0l.91-8.5.06-.61.54-5,.15-1.41a2.24,2.24,0,0,1,2.37-1.93l1.21.08.43,0,.89,0a2.17,2.17,0,0,1,1.13.4,2,2,0,0,1,.37.35,1.87,1.87,0,0,1,.43,1.09A1.93,1.93,0,0,1,164.31,56.69Z"/></g><g class="cls-7"><path d="M154.89,80.61s.12-.81,3.36-1.33,3.49,1.48,3.49,1.48l.53-4.94s-7-.44-7.06-.14S154.89,80.61,154.89,80.61Z"/></g><g class="cls-7"><path d="M155.11,86.92a11.85,11.85,0,0,0,5,.1c.13,0,.07-.17-.1-.21a10.1,10.1,0,0,0-5,0C155,86.83,155,86.91,155.11,86.92Z"/></g><g class="cls-7"><path d="M155.71,82.1a12.06,12.06,0,0,0,5,.1c.12,0,.06-.17-.11-.21a10,10,0,0,0-5,0C155.58,82,155.63,82.08,155.71,82.1Z"/></g><g class="cls-7"><path d="M157.54,68a11.86,11.86,0,0,0,5.05.11c.12,0,.06-.17-.11-.21a10,10,0,0,0-5,0C157.41,67.91,157.46,68,157.54,68Z"/></g><g class="cls-7"><path d="M158.15,63.79a12,12,0,0,0,5,.11c.12,0,.06-.17-.11-.22a10.06,10.06,0,0,0-5,0C158,63.71,158.07,63.78,158.15,63.79Z"/></g><g class="cls-7"><path d="M158.49,59.58a11.82,11.82,0,0,0,5,.11c.13,0,.07-.17-.1-.21a10,10,0,0,0-5,0C158.36,59.5,158.4,59.57,158.49,59.58Z"/></g><polygon class="cls-9" points="189.15 55.52 177.72 61.73 177.14 62.04 176.67 62.3 175.95 62.69 174.39 63.54 174.18 63.26 175.74 62.41 176.17 62.17 176.97 61.74 177.28 61.57 188.94 55.23 189.15 55.52"/><path class="cls-10" d="M177.88,64.17a.78.78,0,0,0,0,.16,2.57,2.57,0,0,1-.15.47h0a2.06,2.06,0,0,1-.74.89l-3.34,2.23-.6.41-3.45,2.31-.61.41-6.34,4.24-.6.4-3.75,2.51-.6.4-5.3,3.55-.6.4-4.39,2.94-.61.41-7.41,5a1.86,1.86,0,0,1-.47.23,1.9,1.9,0,0,1-.58.09l-.33,0h0a2,2,0,0,1-1.38-1l-1.26-2.11a2.19,2.19,0,0,1,.6-2.93l35.87-24h0L173.55,60a1.94,1.94,0,0,1,2.76.67l.52.86.14.23.17.3.26.43.18.29A2.3,2.3,0,0,1,177.88,64.17Z"/><g class="cls-6"><path class="cls-11" d="M177.88,64.17a.78.78,0,0,0,0,.16,2.57,2.57,0,0,1-.15.47h0a2.06,2.06,0,0,1-.74.89s0-.17-.08-.45c0-.1,0-.22-.08-.35s-.15-.57-.25-.88a6.13,6.13,0,0,0-.61-1.32l-.21-.28a2,2,0,0,0-.34-.31,1.12,1.12,0,0,0-.37-.17c-.29-.07-2.08.87-4.73,2.42l-.45.26c-1.13.67-2.4,1.43-3.77,2.27l-.37.23c-2.09,1.27-4.38,2.7-6.74,4.18l-.32.2c-1.37.86-2.75,1.74-4.12,2.62l-.29.18L148.54,78l-.23.15c-1.75,1.14-3.39,2.21-4.85,3.18l-.16.11a65.28,65.28,0,0,0-6.36,4.47c-.4.92-.56,3.32,0,4,.29.38.72.88,1.05,1.27a2,2,0,0,1-1.38-1l-1.26-2.11a2.19,2.19,0,0,1,.6-2.93l35.87-24h0L173.55,60a1.94,1.94,0,0,1,2.76.67l.52.86.14.23.17.3.26.43.18.29A2.3,2.3,0,0,1,177.88,64.17Z"/></g><g class="cls-7"><path d="M143.24,81.24a11.59,11.59,0,0,0,2.47,4.24c.09.08.17-.06.12-.22a9.59,9.59,0,0,0-2.54-4.13S143.2,81.16,143.24,81.24Z"/></g><g class="cls-7"><path d="M148.16,77.76A11.56,11.56,0,0,0,150.63,82c.1.08.17,0,.12-.21a9.71,9.71,0,0,0-2.54-4.14C148.16,77.6,148.13,77.68,148.16,77.76Z"/></g><g class="cls-7"><path d="M154,73.77c.36.83,1.09,3,2.48,4.24.09.08.16-.05.11-.22a9.53,9.53,0,0,0-2.54-4.13C154,73.61,154,73.7,154,73.77Z"/></g><g class="cls-7"><path d="M158.4,70.87a11.59,11.59,0,0,0,2.47,4.24c.09.08.17,0,.12-.22a9.59,9.59,0,0,0-2.54-4.13C158.4,70.71,158.36,70.79,158.4,70.87Z"/></g><g class="cls-7"><path d="M165.38,66.31c.36.82,1.09,3,2.48,4.24.09.08.16,0,.11-.22a9.4,9.4,0,0,0-2.54-4.13C165.38,66.15,165.35,66.23,165.38,66.31Z"/></g><g class="cls-7"><path d="M169.43,63.58c.36.82,1.09,3,2.47,4.23.1.08.17,0,.12-.21a9.61,9.61,0,0,0-2.54-4.14S169.4,63.5,169.43,63.58Z"/></g><g class="cls-5"><path d="M195.84,82.41c-2.71,7-22.19,8.5-28.17.87A10.35,10.35,0,0,1,165.5,77a11,11,0,0,1,.29-2.21c.67-2.83,2.44-5.3,4.05-5.27,1.84,0,2,3.27,4.44,3.68,2,.35,4.05-1.57,6.39-3.79,3-2.83,3.17-4.26,4.66-4.44a3.22,3.22,0,0,1,2.18.64,17.74,17.74,0,0,1,3.89,4.56C194,74.06,197.24,78.79,195.84,82.41Z"/></g><g class="cls-5"><path d="M195.84,82.41c-2.71,7-22.19,8.5-28.17.87A10.35,10.35,0,0,1,165.5,77a11,11,0,0,1,.29-2.21h0s11.59,16.89,21.72-9.17h0a17.74,17.74,0,0,1,3.89,4.56C194,74.06,197.24,78.79,195.84,82.41Z"/></g><g class="cls-5"><path d="M225.4,96.85a5.48,5.48,0,0,1-.28,1.44c0,.12-.08.24-.13.36-.87,2.13-3.06,4-6.15,5.39q-.74.33-1.53.63a31.52,31.52,0,0,1-3.69,1.1c-1.13.27-2.33.49-3.57.66-.69.09-1.39.17-2.11.23-1,.09-1.95.14-3,.17-1.27,0-2.57,0-3.89-.06l-1.29-.08-.93-.09c-.85-.08-1.68-.18-2.5-.31a42.67,42.67,0,0,1-5-1h0a30.54,30.54,0,0,1-8.11-3.36,15.85,15.85,0,0,1-3-2.37,7,7,0,0,1-2.31-5.2,5.87,5.87,0,0,1,.62-2.26v0l.29-.78,1.06-2.94.67-1.83,1.89-5.2.28-.77,3.53-9.71.27-.74,1.31-3.59.16-.45.35-1,2.75-7.59.11-.28,6.9-19,2.47-6.77a3.77,3.77,0,0,1,2.6-1.62l.15,0a9.36,9.36,0,0,1,2-.18,7.31,7.31,0,0,1,1.73.22s0,0,0,.07L217.49,72l1.88.45,1.5,6.06.27,1.08L224.21,92l.29,1.19.11.42A6,6,0,0,1,225.4,96.85Z"/></g><g class="cls-5"><path d="M225.4,96.85a5.48,5.48,0,0,1-.28,1.44c0,.12-.08.24-.13.36-.87,2.13-3.06,4-6.15,5.39q-.74.33-1.53.63a31.52,31.52,0,0,1-3.69,1.1c-1.13.27-2.33.49-3.57.66-.69.09-1.39.17-2.11.23-1,.09-1.95.14-3,.17-1.27,0-2.57,0-3.89-.06l-1.29-.08-.93-.09c-.85-.08-1.68-.18-2.5-.31a42.67,42.67,0,0,1-5-1c1.63-.14,3.13-.34,4.53-.59,1-.18,2-.39,2.87-.62h0l.8-.21a31.82,31.82,0,0,0,6.85-2.72l1.18-.67a40,40,0,0,0,4-2.85c.42-.31.4-3.35.11-8,0-.34,0-.68-.07-1-.22-3.28-.56-7.26-1-11.59l-.09-1c-.18-1.87-.38-3.8-.58-5.76-1.62-15.92-3.81-34.08-4.61-40.6a7.31,7.31,0,0,1,1.73.22s0,0,0,.07L217.49,72l1.88.45,1.5,6.06.27,1.08L224.21,92l.29,1.19.11.42A6,6,0,0,1,225.4,96.85Z"/></g><g class="cls-5"><ellipse cx="252.35" cy="93.24" rx="17.23" ry="11.65" transform="translate(-15.03 122.93) rotate(-26.61)"/></g><g class="cls-5"><ellipse cx="251.98" cy="92.87" rx="15.48" ry="10.47" transform="translate(-14.9 122.72) rotate(-26.61)"/></g><g class="cls-5"><ellipse cx="254.02" cy="98.06" rx="17.23" ry="11.65" transform="matrix(0.98, -0.17, 0.17, 0.98, -13.21, 45.81)"/></g><g class="cls-5"><ellipse cx="253.77" cy="97.6" rx="15.48" ry="10.47" transform="translate(-13.13 45.76) rotate(-10.04)"/></g><g class="cls-5"><path d="M240.79,104.67c-.18,1.75-2,2.19-3.62,3.84h0A7.42,7.42,0,0,0,236,110c-1.56,2.77-.16,4.36-1,6.43-3,7.12-25.24,2.14-32.79-.26-1.41-.45-3.71-1.25-4.42-3.19s.28-4.65,1.85-6.17a3.94,3.94,0,0,1,2-1.12c2.11-.36,3.3,2,8,2.73a4.25,4.25,0,0,0,2.27,0c2.2-.93,1.19-4.21,3.44-7.08a9,9,0,0,1,8.11-3.08,6.08,6.08,0,0,1,4.07,2.13c.75,1.06.4,1.67,1,2.1,1.71,1.29,5.39-3.43,8.89-2.41A4.84,4.84,0,0,1,240.79,104.67Z"/></g><g class="cls-5"><path d="M203.23,29.83h0l-20,72.07c-3.45-2.15-5.45-4.8-5.31-7.57a5.87,5.87,0,0,1,.62-2.26l22-60.62A3.77,3.77,0,0,1,203.23,29.83Z"/></g><g class="cls-5"><path d="M236,110c-1.56,2.77-.16,4.36-1,6.43-3,7.12-25.24,2.14-32.79-.26-1.41-.45-3.71-1.25-4.42-3.19s.28-4.65,1.85-6.17a20.6,20.6,0,0,0,13.59,7.33c9,1.11,23.68-5.54,23.94-5.66A7.42,7.42,0,0,0,236,110Z"/></g><g class="cls-5"><ellipse cx="218.79" cy="101.36" rx="2.6" ry="1.25" transform="translate(-22.23 108.75) rotate(-26.61)"/></g><g class="cls-5"><ellipse cx="247.76" cy="93.16" rx="4.62" ry="2.22" transform="translate(-15.48 120.86) rotate(-26.61)"/></g><g class="cls-5"><ellipse cx="254.63" cy="83.47" rx="3.95" ry="1.76" transform="translate(-10.65 45.69) rotate(-10.04)"/></g><g class="cls-5"><ellipse cx="169.05" cy="71.88" rx="1.8" ry="1.29" transform="translate(31.73 193.9) rotate(-64.66)"/></g><path class="cls-12" d="M193.61,80.56c-2.7,7-22.19,8.5-28.17.86a9.82,9.82,0,0,1-1.88-8.48c.68-2.84,2.44-5.3,4.05-5.28,1.84,0,2,3.27,4.44,3.69,2,.35,4.06-1.58,6.4-3.8,3-2.82,3.16-4.25,4.65-4.44a3.18,3.18,0,0,1,2.18.65,17.5,17.5,0,0,1,3.89,4.55C191.8,72.2,195,76.94,193.61,80.56Z"/><g class="cls-5"><path d="M193.61,80.56c-2.7,7-22.19,8.5-28.17.86a9.82,9.82,0,0,1-1.88-8.48h0s11.59,16.88,21.72-9.18h0a17.5,17.5,0,0,1,3.89,4.55C191.8,72.2,195,76.94,193.61,80.56Z"/></g><path class="cls-13" d="M223.17,95a5.36,5.36,0,0,1-.41,1.79,6.5,6.5,0,0,1-.8,1.42,9.38,9.38,0,0,1-1.47,1.58,16.64,16.64,0,0,1-4.09,2.49c-.43.19-.89.37-1.36.54-.2.08-.41.16-.63.23s-.68.23-1,.33c-.63.2-1.29.37-2,.53a42.18,42.18,0,0,1-8.63,1.06c-1.27,0-2.58,0-3.9-.06l-1.28-.08c-.57,0-1.12-.1-1.67-.16a46.24,46.24,0,0,1-6.75-1.26h0a33.79,33.79,0,0,1-5.72-2.08A21.47,21.47,0,0,1,181,100c-.26-.16-.52-.33-.77-.51-3-2-4.67-4.5-4.53-7.06a5.14,5.14,0,0,1,.23-1.29,5.34,5.34,0,0,1,.28-.76l.1-.2.8-2.2.57-1.55,2.15-5.93.27-.75,1.14-3.12,2.37-6.53.27-.72L185.54,65l.18-.5.1-.28,1.72-4.71.18-.49,1.21-3.33.1-.29,9.37-25.76A3.79,3.79,0,0,1,201,28a8.94,8.94,0,0,1,2.14-.22c2,0,3.78.72,4,2.08,0,0,0,0,0,.07L217.49,72,219,78l.27,1.07,3.06,12.41.07.27a8.19,8.19,0,0,1,.44,1A5.64,5.64,0,0,1,223.17,95Z"/><g class="cls-5"><path d="M223.17,95a5.36,5.36,0,0,1-.41,1.79,6.5,6.5,0,0,1-.8,1.42,9.38,9.38,0,0,1-1.47,1.58,16.64,16.64,0,0,1-4.09,2.49c-.43.19-.89.37-1.36.54-.2.08-.41.16-.63.23s-.68.23-1,.33c-.63.2-1.29.37-2,.53a42.18,42.18,0,0,1-8.63,1.06c-1.27,0-2.58,0-3.9-.06l-1.28-.08c-.57,0-1.12-.1-1.67-.16a46.24,46.24,0,0,1-6.75-1.26A39.32,39.32,0,0,0,202.85,100c.44-.2.85-.42,1.25-.63a35,35,0,0,0,5.24-3.57c.38-.28.4-2.82.18-6.78,0-.33,0-.67-.06-1-.19-3.18-.52-7.15-.92-11.53l-.09-1c-.18-1.85-.37-3.77-.56-5.74-1.5-14.8-3.54-31.93-4.51-39.92l-.24-2c2,0,3.78.72,4,2.08,0,0,0,0,0,.07L217.49,72,219,78l.27,1.07,3.06,12.41.07.27a8.19,8.19,0,0,1,.44,1A5.64,5.64,0,0,1,223.17,95Z"/></g><ellipse class="cls-14" cx="250.12" cy="91.38" rx="17.23" ry="11.65" transform="translate(-14.43 121.73) rotate(-26.61)"/><ellipse class="cls-15" cx="249.75" cy="91.01" rx="15.48" ry="10.47" transform="translate(-14.31 121.53) rotate(-26.61)"/><ellipse class="cls-14" cx="251.8" cy="96.21" rx="17.23" ry="11.65" transform="translate(-12.92 45.39) rotate(-10.04)"/><ellipse class="cls-15" cx="251.55" cy="95.75" rx="15.48" ry="10.47" transform="translate(-12.84 45.34) rotate(-10.04)"/><path class="cls-10" d="M238.56,102.81c-.18,1.75-2,2.19-3.62,3.84h0a7.43,7.43,0,0,0-1.13,1.51c-1.56,2.77-.16,4.36-1,6.44-3,7.11-25.24,2.14-32.78-.26-1.42-.45-3.71-1.26-4.43-3.2s.28-4.64,1.86-6.16a3.93,3.93,0,0,1,2-1.13c2.11-.36,3.3,2,8,2.73a4.12,4.12,0,0,0,2.27,0c2.2-.92,1.2-4.21,3.44-7.08a9,9,0,0,1,8.11-3.08,6.12,6.12,0,0,1,4.07,2.13c.75,1.07.4,1.67,1,2.11,1.71,1.28,5.39-3.43,8.89-2.42A4.85,4.85,0,0,1,238.56,102.81Z"/><g class="cls-16"><path class="cls-11" d="M201,28h0L181,100c-3.44-2.14-5.45-4.79-5.3-7.57a5.6,5.6,0,0,1,.61-2.25L198.4,29.59A3.79,3.79,0,0,1,201,28Z"/></g><g class="cls-5"><path d="M233.8,108.17c-1.56,2.77-.16,4.36-1,6.44-3,7.11-25.24,2.14-32.78-.26-1.42-.45-3.71-1.26-4.43-3.2s.28-4.64,1.86-6.16A20.61,20.61,0,0,0,211,112.32c9,1.1,23.67-5.54,23.93-5.66A7.43,7.43,0,0,0,233.8,108.17Z"/></g><g class="cls-16"><ellipse class="cls-11" cx="216.56" cy="99.5" rx="2.6" ry="1.25" transform="translate(-21.63 107.56) rotate(-26.61)"/></g><g class="cls-16"><ellipse class="cls-11" cx="245.53" cy="91.3" rx="4.62" ry="2.22" transform="translate(-14.89 119.67) rotate(-26.61)"/></g><g class="cls-16"><ellipse class="cls-11" cx="252.4" cy="81.61" rx="3.95" ry="1.76" transform="translate(-10.37 45.27) rotate(-10.04)"/></g><g class="cls-16"><ellipse class="cls-11" cx="166.82" cy="70.03" rx="1.8" ry="1.29" transform="translate(32.13 190.83) rotate(-64.66)"/></g><g class="cls-5"><path d="M180.84,101.52a2,2,0,0,1-1.27-.45,2.2,2.2,0,0,0-1.31-.46c-1.25,0-1.75.78-3.12.89-1.68.12-3.62-.89-3.45-1.89s2.78-1.47,2.91-2.64c.08-.76-1-1-.57-1.58s1.2-.48,2.69-1.28,1.41-1.27,2.49-1.54a4,4,0,0,1,2.84.25c.62.46-.31.94.06,1.74a.9.9,0,0,0,.17.26h0c.66.8,2.3.85,2.26,1.61,0,.54-.91.62-1.24,1.35-.48,1,1.08,1.38.6,2.29A4,4,0,0,1,180.84,101.52Z"/><path d="M168.82,93c0-.76,2.05-1.72,2-2.51,0-.52-.89-.37-.63-.88s.91-.63,2-1.55,1-1.21,1.82-1.68a4.12,4.12,0,0,1,2.27-.6c.55.13-.14.69.23,1.11.5.57,2.08,0,2.13.57,0,.37-.66.65-.84,1.22h0a.53.53,0,0,0,0,.32h0c.12.45,1,.4.74,1a4.49,4.49,0,0,1-2.28,1.77,1.87,1.87,0,0,1-1.06,0,1.77,1.77,0,0,0-1.08.05c-1,.32-1.31,1-2.38,1.41C170.43,93.85,168.78,93.71,168.82,93Z"/><path d="M174,90.25s2.57,6.13,13.38,5.72l.46-.75s-9,1-12.87-5.48C173.23,89.86,174,90.25,174,90.25Z"/><g class="cls-17"><path d="M180.84,101.52a2,2,0,0,1-1.27-.45c3.51-.5,2.84-6,2.71-6.25.66.8,2.3.85,2.26,1.61,0,.54-.91.62-1.24,1.35-.48,1,1.08,1.38.6,2.29A4,4,0,0,1,180.84,101.52Z"/></g><g class="cls-17"><path d="M176.27,91.8a1.87,1.87,0,0,1-1.06,0,2.26,2.26,0,0,1,.26-.11A3.49,3.49,0,0,0,177.81,89c.12.45,1,.4.74,1A4.49,4.49,0,0,1,176.27,91.8Z"/></g></g><path class="cls-18" d="M180.47,100a2,2,0,0,1-1.27-.45,2.08,2.08,0,0,0-1.31-.46c-1.25,0-1.75.78-3.12.88-1.68.13-3.63-.89-3.45-1.88s2.78-1.48,2.91-2.64c.08-.77-1-1-.57-1.59s1.2-.47,2.69-1.27,1.4-1.27,2.49-1.54a4,4,0,0,1,2.83.24c.63.47-.3.94.07,1.74a1,1,0,0,0,.16.26h0c.66.79,2.3.84,2.26,1.6,0,.55-.91.63-1.24,1.35-.48,1,1.08,1.39.6,2.29A4,4,0,0,1,180.47,100Z"/><path class="cls-18" d="M168.45,91.53c0-.76,2.05-1.71,2-2.51,0-.52-.89-.37-.63-.87s.91-.64,2-1.56,1-1.21,1.82-1.67a4.1,4.1,0,0,1,2.27-.61c.54.14-.14.7.23,1.12s2.08,0,2.13.56c0,.37-.66.66-.85,1.22,0,0,0,0,0,0a.57.57,0,0,0,0,.31h0c.13.45,1,.41.75,1a4.38,4.38,0,0,1-2.28,1.77,1.71,1.71,0,0,1-1.06,0,1.87,1.87,0,0,0-1.08.06c-1,.32-1.31,1-2.38,1.41C170.06,92.36,168.41,92.23,168.45,91.53Z"/><path class="cls-18" d="M173.58,88.77s2.57,6.13,13.38,5.71l.46-.74s-9,1-12.87-5.49C172.85,88.37,173.58,88.77,173.58,88.77Z"/><g class="cls-17"><path class="cls-11" d="M180.47,100a2,2,0,0,1-1.27-.45c3.51-.51,2.84-6,2.71-6.25.66.79,2.3.84,2.26,1.6,0,.55-.91.63-1.24,1.35-.48,1,1.08,1.39.6,2.29A4,4,0,0,1,180.47,100Z"/></g><g class="cls-17"><path class="cls-11" d="M175.9,90.31a1.71,1.71,0,0,1-1.06,0l.26-.11a3.44,3.44,0,0,0,2.33-2.72c.13.45,1,.41.75,1A4.38,4.38,0,0,1,175.9,90.31Z"/></g><circle class="cls-19" cx="188.97" cy="82.64" r="1.57"/><circle class="cls-19" cx="212.02" cy="82.64" r="1.57"/><path class="cls-19" d="M200.63,86.35A7.37,7.37,0,0,1,196.31,85a.55.55,0,0,1-.08-.78.56.56,0,0,1,.78-.09,6.32,6.32,0,0,0,3.62,1.1,6.66,6.66,0,0,0,3.7-1.11.56.56,0,0,1,.78.11A.55.55,0,0,1,205,85,7.72,7.72,0,0,1,200.63,86.35Z"/><rect class="cls-20" y="0.25" width="300" height="165"/></g></g></svg>