<svg xmlns="http://www.w3.org/2000/svg" xmlns:xlink="http://www.w3.org/1999/xlink" viewBox="0 0 300 165.5"><defs><style>.cls-1{isolation:isolate;}.cls-2{fill:#fce5cd;}.cls-3{fill:#969390;}.cls-4{opacity:0.73;}.cls-10,.cls-11,.cls-4,.cls-6{mix-blend-mode:soft-light;}.cls-5{fill:#efbb60;}.cls-6{opacity:0.62;}.cls-7{fill:#fff;}.cls-8{fill:#f2ac5f;}.cls-9{fill:#f7e8d7;}.cls-11{opacity:0.9;}.cls-12{fill:#3f240f;}.cls-13{fill:url(#linear-gradient);}</style><linearGradient id="linear-gradient" x1="150.37" y1="168.62" x2="149.66" y2="2.17" gradientUnits="userSpaceOnUse"><stop offset="0.03" stop-color="#591c16"/><stop offset="0.22" stop-color="#5f241d" stop-opacity="0.96"/><stop offset="0.38" stop-color="#733c33" stop-opacity="0.84"/><stop offset="0.53" stop-color="#936459" stop-opacity="0.64"/><stop offset="0.68" stop-color="#c09d8d" stop-opacity="0.36"/><stop offset="0.82" stop-color="#fae5cf" stop-opacity="0"/></linearGradient></defs><g class="cls-1"><g id="Layer_1" data-name="Layer 1"><rect class="cls-2" y="0.25" width="300" height="165"/><path class="cls-3" d="M213.62,55.2,225,107.66c.92,4.26,12,5.48,24.74,2.72s22.31-8.45,21.39-12.72L259.75,45.2Z"/><g class="cls-4"><path d="M214.42,58.92,225,107.66c.92,4.26,12,5.48,24.74,2.72s22.31-8.45,21.39-12.72l-.74-3.41C230,123.79,214.46,58.62,214.46,58.62Z"/></g><path class="cls-5" d="M216.17,56.31l10.64,49.13a2.78,2.78,0,0,0,.21.57c1.68,3.21,11.2,3.95,22.1,1.59s19.27-7,19.46-10.6a2.1,2.1,0,0,0-.05-.61L257.89,47.27Z"/><g class="cls-6"><path class="cls-7" d="M221.34,80.18l5.47,25.26a2.78,2.78,0,0,0,.21.57c1.68,3.21,11.2,3.95,22.1,1.59s19.27-7,19.46-10.6a2.1,2.1,0,0,0-.05-.61l-2-9.18-.07.07c-2.4,2.74-18.38,7.89-28.49,8.26S221.4,80.09,221.4,80.09Z"/></g><path class="cls-8" d="M268.53,96.39a2.1,2.1,0,0,1,.05.61h.08Z"/><path class="cls-8" d="M226.81,105.44l.13.59.08,0A2.78,2.78,0,0,1,226.81,105.44Z"/><g class="cls-6"><path d="M216.17,56.31,221,78.48c4.5-14.9,21-17.22,26.5-18.22s13.89,3,13.89,3l-3.47-16Z"/></g><path class="cls-3" d="M267.87,82.78l.15.66.06.27.93,4.23,11.06-2.41a1.36,1.36,0,0,0,1-1.6L275,55.68a1.34,1.34,0,0,0-1.6-1l-11.05,2.4,1,4.6.15,0,6-1.34a1.34,1.34,0,0,1,1.57,1L275.12,80a1.34,1.34,0,0,1-1.06,1.6l-6.18,1.17Z"/><path class="cls-9" d="M215.09,58.74c1.8.56,2.74-1.47,5-.7a3.59,3.59,0,0,1,2.69,2.23c.74,1.82-.45,3.68-.35,7.18,0,1.58.32,4.44,1.68,6.37a3.24,3.24,0,0,0,3.37.72c.69-.33,1.4-1.87,1.41-3.23a60.49,60.49,0,0,0-.58-6.36c-.19-2.23-.56-3.06-.6-4.16,0-.81-.52-1.48,1-1.56.66,0,1.44,2.69,1.65,5.77.11,1.57,0,2.68.74,3.88.45.78,1.79.26,2.24-.32a5.1,5.1,0,0,0,1-3c-.11-2.73-.92-3.29-.66-4.88s1.33-2.43,3.44-4a17.36,17.36,0,0,1,6.41-3.35c3.05-.79,3.12.18,6-.68,3.28-1,3.34-2.3,6-2.52,2.43-.2,3.73.8,4.57-.25s.31-3.32.12-4.07a10.49,10.49,0,0,0-1.82-3.72,8.85,8.85,0,0,0-3.06-2.57c-2.89-1.41-4,.48-6.9-.83-2.4-1.08-2.73-2.86-4.89-4.94-3.37-3.24-8.16-2.6-12.09-1.11-4.89,1.84-5,5-11.08,7.23-1.94.69-2.67.38-4.22,1.4-.65.43-4.94,3.29-5,8.7v.48c0,.31,0,.63.07.95C211.4,54.59,213,58.11,215.09,58.74Z"/><g class="cls-10"><path d="M226,101.84l.78,3.6a2.78,2.78,0,0,0,.21.57c1.68,3.21,11.2,3.95,22.1,1.59s19.27-7,19.46-10.6a2.1,2.1,0,0,0-.05-.61l-.72-3.33c-1.69,1.88-16.66,17.43-41.56,8.85Z"/></g><g class="cls-11"><path d="M215.09,58.74c1.8.56,2.74-1.47,5-.7a3.59,3.59,0,0,1,2.69,2.23c.74,1.82-.45,3.68-.35,7.18,0,1.58.32,4.44,1.68,6.37a3.24,3.24,0,0,0,3.37.72c.69-.33,1.4-1.87,1.41-3.23a60.49,60.49,0,0,0-.58-6.36c-.19-2.23-.56-3.06-.6-4.16,0-.81-.52-1.48,1-1.56.66,0,1.44,2.69,1.65,5.77.11,1.57,0,2.68.74,3.88.45.78,1.79.26,2.24-.32a5.1,5.1,0,0,0,1-3c-.11-2.73-.92-3.29-.66-4.88s1.33-2.43,3.44-4a17.36,17.36,0,0,1,6.41-3.35c3.05-.79,3.12.18,6-.68,3.28-1,3.34-2.3,6-2.52,2.43-.2,3.73.8,4.57-.25s.31-3.32.12-4.07a10.49,10.49,0,0,0-1.82-3.72S220.69,65.43,211.63,52.2c-.2-.3-.4-.57-.58-.8C211.4,54.59,213,58.11,215.09,58.74Z"/></g><g class="cls-6"><path class="cls-7" d="M211,50c19.59-19.43,32.43-16.22,32.43-16.22-3.37-3.24-8.16-2.6-12.09-1.11-4.89,1.84-5,5-11.08,7.23-1.94.69-2.67.38-4.22,1.4C215.37,41.7,211.08,44.56,211,50Z"/></g><g class="cls-10"><rect class="cls-7" x="253.35" y="56.99" width="5.69" height="19.63" rx="2.85" transform="translate(520.73 77.83) rotate(167.77)"/></g><g class="cls-10"><rect class="cls-7" x="249.76" y="67.75" width="3.93" height="11.51" rx="1.96" transform="translate(513.3 92.02) rotate(167.77)"/></g><g class="cls-4"><path d="M268.72,86.59l.29,1.35,11.06-2.41a1.36,1.36,0,0,0,1-1.6L276.52,62.8c.06.29,3.55,20.12,3.16,20.61A2.78,2.78,0,0,1,278,84.58Z"/></g><g class="cls-6"><path class="cls-7" d="M268.08,83.71h0c.14,0,5.23-1,6.19-1.34a2.76,2.76,0,0,0,1.64-1.06c.39-.49-1-2.06-1-2.06l.16.75a1.34,1.34,0,0,1-1.06,1.6l-6.18,1.17.14.67v0Z"/></g><g class="cls-6"><path class="cls-7" d="M262.32,57.05l.49,1.29,9.77-2.11a3.45,3.45,0,0,1,2.64.66v0L275,55.68a1.34,1.34,0,0,0-1.6-1Z"/></g><g class="cls-4"><path d="M263.46,61.62l6-1.34a1.34,1.34,0,0,1,1.57,1l.12.51s-.25-2.53-1.12-2.35l-6.7,1.45Z"/></g><g class="cls-10"><ellipse class="cls-7" cx="224.27" cy="42.95" rx="4.76" ry="2.4" transform="translate(7.25 113.96) rotate(-28.96)"/></g><path class="cls-3" d="M223.59,72.5v53.68c0,4.37-10.57,7.9-23.6,7.9s-23.6-3.53-23.6-7.9V72.5Z"/><g class="cls-4"><path d="M223.59,76.31v49.87c0,4.37-10.57,7.9-23.6,7.9s-23.6-3.53-23.6-7.9v-3.49C222.1,143,223.49,76,223.49,76Z"/></g><path class="cls-5" d="M221.33,74.13V124.4a2.47,2.47,0,0,1-.08.6c-1,3.49-10.11,6.23-21.26,6.23s-20.31-2.74-21.26-6.23a2.08,2.08,0,0,1-.09-.6V74.13Z"/><g class="cls-6"><path class="cls-7" d="M221.33,98.55V124.4a2.47,2.47,0,0,1-.08.6c-1,3.49-10.11,6.23-21.26,6.23s-20.31-2.74-21.26-6.23a2.08,2.08,0,0,1-.09-.6V115a.47.47,0,0,1,.09.06c2.93,2.16,19.64,3.81,29.59,2s12.93-18.61,12.93-18.61Z"/></g><path class="cls-8" d="M178.64,124.4a2.08,2.08,0,0,0,.09.6h-.09Z"/><path class="cls-8" d="M221.33,124.4v.6h-.08A2.47,2.47,0,0,0,221.33,124.4Z"/><g class="cls-6"><path d="M221.33,74.13V96.82c-7.55-13.61-24.14-12.39-29.76-12.2s-12.93,5.9-12.93,5.9V74.13Z"/></g><path class="cls-3" d="M176.41,111v5.28H165.07a1.34,1.34,0,0,1-1.34-1.34V86a1.35,1.35,0,0,1,1.34-1.35h11.32v4.71h-.16l-6.18,0a1.34,1.34,0,0,0-1.32,1.34v19.12a1.34,1.34,0,0,0,1.38,1.34l6.29-.16Z"/><path class="cls-9" d="M222.9,76.28c-1.64.92-3-.86-5,.36a3.6,3.6,0,0,0-2.16,2.75c-.34,1.94,1.21,3.51,1.86,6.94a12.43,12.43,0,0,1-.29,6.59,3.27,3.27,0,0,1-3.14,1.42c-.75-.18-1.77-1.53-2.06-2.86a58.93,58.93,0,0,1-.79-6.34C211,82.92,211.22,82,211,81c-.15-.8.19-1.56-1.28-1.32-.65.11-.83,2.93-.39,6,.23,1.55.53,2.62.1,3.95-.28.85-1.7.62-2.26.16a5.09,5.09,0,0,1-1.57-2.68c-.47-2.69.2-3.41-.39-4.9S203.43,80,201,78.91a17.19,17.19,0,0,0-7-1.91c-3.15-.13-3,.83-6,.6-3.42-.27-3.76-1.55-6.38-1.2-2.41.32-3.48,1.57-4.52.72s-1-3.18-1-4a10.45,10.45,0,0,1,1-4A8.7,8.7,0,0,1,179.63,66c2.53-2,4-.38,6.57-2.28,2.11-1.56,2.05-3.37,3.73-5.86,2.61-3.88,7.43-4.27,11.58-3.65,5.17.77,5.94,3.89,12.36,4.73,2,.26,2.69-.2,4.42.47.72.28,5.53,2.17,6.77,7.44,0,.15.07.3.1.46.06.31.1.63.14,1C225.63,71.44,224.78,75.23,222.9,76.28Z"/><g class="cls-10"><path d="M221.33,120.72v3.68a2.47,2.47,0,0,1-.08.6c-1,3.49-10.11,6.23-21.26,6.23s-20.31-2.74-21.26-6.23a2.08,2.08,0,0,1-.09-.6V121c2.06,1.48,20,13.51,42.5-.14Z"/></g><g class="cls-11"><path d="M222.9,76.28c-1.64.92-3-.86-5,.36a3.6,3.6,0,0,0-2.16,2.75c-.34,1.94,1.21,3.51,1.86,6.94a12.43,12.43,0,0,1-.29,6.59,3.27,3.27,0,0,1-3.14,1.42c-.75-.18-1.77-1.53-2.06-2.86a58.93,58.93,0,0,1-.79-6.34C211,82.92,211.22,82,211,81c-.15-.8.19-1.56-1.28-1.32-.65.11-.83,2.93-.39,6,.23,1.55.53,2.62.1,3.95-.28.85-1.7.62-2.26.16a5.09,5.09,0,0,1-1.57-2.68c-.47-2.69.2-3.41-.39-4.9S203.43,80,201,78.91a17.19,17.19,0,0,0-7-1.91c-3.15-.13-3,.83-6,.6-3.42-.27-3.76-1.55-6.38-1.2-2.41.32-3.48,1.57-4.52.72s-1-3.18-1-4a10.45,10.45,0,0,1,1-4s41.65,14.85,47.71,0c.13-.33.27-.63.4-.9C225.63,71.44,224.78,75.23,222.9,76.28Z"/></g><g class="cls-6"><path class="cls-7" d="M225.06,66.84c-23.26-14.85-35.13-9-35.13-9,2.61-3.88,7.43-4.27,11.58-3.65,5.17.77,5.94,3.89,12.36,4.73,2,.26,2.69-.2,4.42.47C219,59.68,223.82,61.57,225.06,66.84Z"/></g><g class="cls-10"><rect class="cls-7" x="181.59" y="83.05" width="5.69" height="19.63" rx="2.85"/></g><g class="cls-10"><rect class="cls-7" x="188.26" y="92.71" width="3.93" height="11.51" rx="1.96"/></g><g class="cls-4"><path d="M176.39,114.86v1.37H165.07a1.34,1.34,0,0,1-1.34-1.34V93.26c0,.29.78,20.41,1.27,20.8a2.73,2.73,0,0,0,1.87.8C167.75,114.85,176.39,114.86,176.39,114.86Z"/></g><g class="cls-6"><path class="cls-7" d="M176.41,111.91h0c-.14,0-5.33.09-6.33,0a2.81,2.81,0,0,1-1.83-.69c-.49-.39.49-2.22.49-2.22v.77a1.34,1.34,0,0,0,1.38,1.34l6.29-.16v1Z"/></g><g class="cls-6"><path class="cls-7" d="M176.39,84.62,176.18,86h-10a3.42,3.42,0,0,0-2.43,1.2l0,0V86a1.35,1.35,0,0,1,1.34-1.35Z"/></g><g class="cls-4"><path d="M176.23,89.33l-6.18,0a1.34,1.34,0,0,0-1.32,1.34v.53s-.29-2.53.59-2.53h6.86Z"/></g><g class="cls-10"><ellipse class="cls-7" cx="210.59" cy="62.79" rx="2.4" ry="4.76" transform="translate(89.83 246.38) rotate(-73.27)"/></g><circle class="cls-12" cx="185.1" cy="110.22" r="1.85"/><circle class="cls-12" cx="208.84" cy="110.22" r="1.85"/><path class="cls-12" d="M197.07,114.42a8.48,8.48,0,0,1-5-1.54.48.48,0,1,1,.6-.75,7.65,7.65,0,0,0,4.38,1.33,8,8,0,0,0,4.47-1.34.49.49,0,0,1,.59.77A9,9,0,0,1,197.07,114.42Z"/><circle class="cls-12" cx="235.98" cy="87.54" r="1.68"/><circle class="cls-12" cx="257.04" cy="82.97" r="1.68"/><path class="cls-12" d="M245.67,89.2a7.13,7.13,0,0,1-3-.61.48.48,0,0,1,.43-.86,6.76,6.76,0,0,0,4.11.34,7.22,7.22,0,0,0,3.69-2,.48.48,0,1,1,.73.63A8.08,8.08,0,0,1,247.41,89,8,8,0,0,1,245.67,89.2Z"/><rect class="cls-13" y="0.25" width="300" height="165"/></g></g></svg>