<svg xmlns="http://www.w3.org/2000/svg" xmlns:xlink="http://www.w3.org/1999/xlink" viewBox="0 0 300 165.5"><defs><style>.cls-1{isolation:isolate;}.cls-2{fill:#fce5cd;}.cls-3{fill:#edc094;}.cls-4{fill:#688978;}.cls-5{fill:#f7b93c;}.cls-6{opacity:0.36;}.cls-16,.cls-6{mix-blend-mode:multiply;}.cls-7{fill:#9b4e23;}.cls-8{opacity:0.61;}.cls-9{fill:#aa5a2e;}.cls-10{opacity:0.52;}.cls-10,.cls-12,.cls-14,.cls-18,.cls-19,.cls-20,.cls-21{mix-blend-mode:soft-light;}.cls-11{fill:#ffe8d9;}.cls-12{opacity:0.49;}.cls-13{fill:#fff;}.cls-14{opacity:0.55;}.cls-15{fill:#ffe3c7;}.cls-16{opacity:0.5;}.cls-17{fill:#911b0f;}.cls-18{opacity:0.71;}.cls-19{opacity:0.44;}.cls-20{opacity:0.48;}.cls-22{fill:url(#linear-gradient);}</style><linearGradient id="linear-gradient" x1="150.37" y1="168.62" x2="149.66" y2="2.17" gradientUnits="userSpaceOnUse"><stop offset="0.03" stop-color="#591c16"/><stop offset="0.22" stop-color="#5f241d" stop-opacity="0.96"/><stop offset="0.38" stop-color="#733c33" stop-opacity="0.84"/><stop offset="0.53" stop-color="#936459" stop-opacity="0.64"/><stop offset="0.68" stop-color="#c09d8d" stop-opacity="0.36"/><stop offset="0.82" stop-color="#fae5cf" stop-opacity="0"/></linearGradient></defs><g class="cls-1"><g id="Layer_1" data-name="Layer 1"><rect class="cls-2" y="0.25" width="300" height="165"/><ellipse class="cls-3" cx="214.8" cy="85.84" rx="63.28" ry="11.26"/><path class="cls-4" d="M152.72,88.88a6.4,6.4,0,0,1-.8-.85,6.51,6.51,0,0,1-.64-1,3.8,3.8,0,0,1-.43-1.13,1.87,1.87,0,0,1,0-.34c0-.11,0-.22,0-.32a2.58,2.58,0,0,1,.17-.62,3.75,3.75,0,0,1,.65-1,6.41,6.41,0,0,1,.84-.81,12.16,12.16,0,0,1,1.91-1.23,28.82,28.82,0,0,1,4.11-1.72c1.4-.48,2.81-.89,4.24-1.26,2.85-.74,5.73-1.32,8.63-1.82s5.8-.92,8.71-1.28c5.82-.7,11.67-1.17,17.53-1.49s11.72-.48,17.58-.5,11.74.12,17.6.41,11.71.76,17.54,1.44c2.92.35,5.83.75,8.74,1.25s5.79,1.07,8.66,1.82c1.43.38,2.86.8,4.27,1.3a25.49,25.49,0,0,1,4.15,1.86,9.71,9.71,0,0,1,1.93,1.46,4.66,4.66,0,0,1,.8,1.08,3.09,3.09,0,0,1,.4,1.44,3.58,3.58,0,0,1-.06.7,6,6,0,0,1-.13.61,6.1,6.1,0,0,1-.44,1.14,4.64,4.64,0,0,1-.69,1,3,3,0,0,1-1,.8l-.54-.78a5.26,5.26,0,0,0,.79-1.67c.09-.31.17-.63.23-1,0-.16.06-.32.08-.47a3.28,3.28,0,0,0,0-.39,2.1,2.1,0,0,0-.7-1.33,7.69,7.69,0,0,0-1.56-1.18,22.25,22.25,0,0,0-3.84-1.73c-1.34-.49-2.73-.9-4.12-1.27-2.8-.75-5.65-1.33-8.51-1.83s-5.75-.91-8.64-1.27a308.9,308.9,0,0,0-34.95-2c-5.84,0-11.68.07-17.51.34S186,76,180.23,76.67c-2.9.32-5.79.7-8.67,1.16s-5.74,1-8.57,1.69c-1.41.35-2.81.74-4.19,1.19a26.78,26.78,0,0,0-4,1.62,11,11,0,0,0-1.8,1.11,4,4,0,0,0-1.27,1.5,1.84,1.84,0,0,0-.13.44,1.79,1.79,0,0,0,0,.23.69.69,0,0,0,0,.2,3.17,3.17,0,0,0,.34.91,5.91,5.91,0,0,0,1.24,1.64Z"/><path class="cls-5" d="M271.21,91c-26.38,14.58-107,7.56-107,7.56v0a15.92,15.92,0,0,1-5-5.34,35.77,35.77,0,0,1-2-4.41c-1.59-4.36-1.15-7.23.22-10.92,3.31-8.94,13.5-17.7,22.15-20.88,9.31-3.43,25.9-5.92,36.36,1.76,8.43,6.19,6.87,16.87,18,21,1.72.65,7.92,2.44,11.33,2.15,6.27-.54,7.72-5.67,11.82-8.12,5.45-3.26,14.32.16,16.9,4.45C276.3,82.3,273.3,87.84,271.21,91Z"/><g class="cls-6"><path class="cls-7" d="M271.21,91c-26.38,14.58-102.8,9-107,7.56s0,0,0,0c1,3.35-6-6-7.06-9.75C157.11,88.77,199.46,102.24,271.21,91Z"/></g><g class="cls-8"><path class="cls-9" d="M160.32,96.31c-1.11-5.91-1.42-14.6,3.42-22.42A27.91,27.91,0,0,1,173,64.82a37,37,0,0,1,12.16-4.71c8.72-1.74,17.68-.54,24,3.2,4.2,2.49,5.89,5.32,7.69,8.31,2,3.31,4.06,6.74,9.86,9.95,3.62,2,16.12,8.15,24.83,3.19a23.13,23.13,0,0,0,2.87-2,15.24,15.24,0,0,1,7.54-3.7c3.76-.59,6.49-.08,8.11,1.52,2.95,2.92,2.2,9.29-1.74,14.82l-.57-.41A17.82,17.82,0,0,0,271,86.81c.26-2.47-.28-4.51-1.52-5.75-1.45-1.43-4-1.87-7.5-1.32a14.66,14.66,0,0,0-7.21,3.56,25,25,0,0,1-3,2.08,16.27,16.27,0,0,1-8.13,2c-7.32,0-14.73-3.68-17.4-5.16-6-3.3-8.08-6.81-10.13-10.21-1.75-2.91-3.4-5.66-7.44-8.06-6.13-3.66-14.9-4.82-23.45-3.11a36.39,36.39,0,0,0-11.93,4.61,27.29,27.29,0,0,0-9,8.84c-4.72,7.63-4.41,16.13-3.32,21.91Z"/></g><g class="cls-8"><path class="cls-9" d="M165.47,98.65c-.42-1.38-3.87-13.79,4.33-23.56a23.25,23.25,0,0,1,12.53-7.6,28,28,0,0,1,12.46-.15c6.49,1.47,12.85,3.55,19.37,12.74,3.69,5.2,5.64,6.37,9.17,8.48l.55.33c2.57,1.58,15.82,9.12,24.18,3,.7-.52,1.34-1.07,2-1.66a24,24,0,0,1,8-5c2.29-.87,6.56-2.49,8.52-.64s1,6.77-2.43,12.16l-.59-.39c3.14-4.93,4.21-9.66,2.53-11.25s-5.79,0-7.78.78a23.37,23.37,0,0,0-7.79,4.83c-.69.6-1.34,1.16-2.06,1.69a13.66,13.66,0,0,1-8.26,2.49c-7.32,0-14.82-4.29-16.71-5.44l-.55-.33c-3.61-2.17-5.6-3.36-9.38-8.68-6.38-9-12.6-11-18.94-12.45a27.55,27.55,0,0,0-12.15.14,22.65,22.65,0,0,0-12.15,7.36,22.89,22.89,0,0,0-5.22,14.66,28.82,28.82,0,0,0,1,8.24Z"/></g><g class="cls-8"><path class="cls-9" d="M237.29,100.34l-.57,0c-7.85-.63-13.47-2.79-20-6.07-8.42-4.23-12.6-9-16-12.93-3.92-4.51-6.75-7.78-14-7.78-3.33,0-9.87,2.32-14.25,8.71-5,7.32-3.41,15.34-2.79,17.62l-.68.19c-.64-2.36-2.31-10.64,2.88-18.21,4.07-5.92,10.54-9,14.84-9,7.6,0,10.67,3.54,14.56,8,3.31,3.82,7.44,8.59,15.74,12.76,6.45,3.24,12,5.37,19.73,6,4.08.33,9.88-3.29,15.5-6.8l1-.59c5.62-3.51,9-3.37,10.19-2.08.87.92,1.19,3.24-2.25,9.12l-.62-.36c2.44-4.17,3.32-7.26,2.36-8.27-.22-.23-2.36-2.13-9.31,2.19l-1,.59C247.18,96.82,241.54,100.34,237.29,100.34Z"/></g><g class="cls-8"><path class="cls-9" d="M219.32,101.56c-7.26-.93-12.4-2.18-16.18-4s-6.33-4.25-7.51-7.44c-2.44-6.56-3.7-8.63-7.4-9.72a9.07,9.07,0,0,0-6.94,1.29,16.63,16.63,0,0,0-5.78,5.65c-3.39,5.64-1.65,11.65-1,13.35l-.67.24c-.64-1.78-2.46-8,1.1-14,2.76-4.59,8.71-8.67,13.52-7.25,4.18,1.23,5.54,3.9,7.86,10.15,1.12,3,3.46,5.31,7.15,7s8.78,3,16,3.89Z"/></g><g class="cls-8"><path class="cls-9" d="M199.58,102.77a7.88,7.88,0,0,1-5.27-1.65c-1.76-1.49-2.3-3.13-2.93-5a23.51,23.51,0,0,0-1.59-3.94,8.43,8.43,0,0,0-5.52-3.76,4.35,4.35,0,0,0-3.69.67c-2.46,2.06-3.84,8.29-.3,13l-.57.42c-3.84-5.11-2.32-11.68.42-14a5,5,0,0,1,4.28-.82,9.06,9.06,0,0,1,6,4.12,25,25,0,0,1,1.64,4c.62,1.88,1.11,3.35,2.71,4.72,2,1.74,5.45,2,10.14.64l.19.68A20.81,20.81,0,0,1,199.58,102.77Z"/></g><rect class="cls-4" x="195.71" y="115.9" width="40.18" height="6.85" rx="2.12"/><path class="cls-4" d="M278.7,85.64c0,18.65-28.58,33.76-63.84,33.76S151,104.29,151,85.64C151,91.93,179.6,97,214.86,97S278.7,91.93,278.7,85.64Z"/><g class="cls-10"><path d="M195.68,117.53s9.13,1,19,1a207.93,207.93,0,0,0,21-1.32A70.53,70.53,0,0,1,195.68,117.53Z"/></g><circle class="cls-11" cx="202.01" cy="107.57" r="1.75"/><circle class="cls-11" cx="227.63" cy="107.57" r="1.75"/><path class="cls-11" d="M215,111.61a8,8,0,0,1-4.74-1.48.52.52,0,0,1-.08-.74.53.53,0,0,1,.74-.09,7.11,7.11,0,0,0,4.08,1.24,7.47,7.47,0,0,0,4.17-1.25.53.53,0,0,1,.64.85A8.41,8.41,0,0,1,215,111.61Z"/><g class="cls-12"><path class="cls-13" d="M151.52,87.1s11.52,14.43,98,8.34C249.67,95.43,163.54,107.35,151.52,87.1Z"/></g><path class="cls-5" d="M243.93,84.46a24,24,0,0,1-7.48-1.18A22.54,22.54,0,0,1,224.38,73a.35.35,0,1,1,.61-.35,21.87,21.87,0,0,0,11.69,9.94,23.16,23.16,0,0,0,11.21.81c2.92-.54,6.92-2,9.3-5.63,2.86-4.39,2.69-9.55.76-11.43-1.63-1.59-4.15-1-7.07-.41-3.23.69-6.88,1.48-10.07-.61A11.88,11.88,0,0,1,236,57.17a4.34,4.34,0,0,1,.83-3.56c1.89-1.92,6.39.31,11.59,2.9,5.88,2.92,12.55,6.24,15.93,3.63a8.2,8.2,0,0,0,2.82-5.27,4.9,4.9,0,0,0-.76-3.63c-1.57-2-6.07-2.38-10.89.44a.35.35,0,0,1-.48-.13.36.36,0,0,1,.12-.48,14.53,14.53,0,0,1,7-2.12A5.89,5.89,0,0,1,267,50.8a5.55,5.55,0,0,1,.9,4.15,8.77,8.77,0,0,1-3.09,5.75,5.66,5.66,0,0,1-3.58,1.09c-3.76,0-8.64-2.43-13.09-4.64-4.75-2.37-9.24-4.6-10.78-3a3.8,3.8,0,0,0-.63,3,11.11,11.11,0,0,0,4.47,7.64c2.95,1.94,6.3,1.21,9.54.51,3-.65,5.81-1.26,7.72.6,2.65,2.58,1.78,8.57-.66,12.33s-6.71,5.37-9.78,5.93A22.77,22.77,0,0,1,243.93,84.46Z"/><path class="cls-5" d="M227.52,78.53l-.71,0c.55-10.07-1.25-16.53-5.33-19.19-1.76-1.15-3.3-1-5.42-.79a24.59,24.59,0,0,1-9.37-.58,49.21,49.21,0,0,1-9.31-3.43,30.16,30.16,0,0,0-10-3.13c-3.65-.45-9.77-1.21-15.56,2.09-7.82,4.45-10,15.26-10.63,19.7v.07l-.71-.09v-.07c.61-4.55,2.89-15.62,11-20.23,6-3.41,12.26-2.63,16-2.17a30.93,30.93,0,0,1,10.18,3.18,47.56,47.56,0,0,0,9.19,3.39,23.86,23.86,0,0,0,9.13.56c2.18-.21,3.91-.38,5.87.9C226.18,61.52,228.08,68.18,227.52,78.53Z"/><path class="cls-7" d="M219,53.44a2.12,2.12,0,0,1,0,.44,5.23,5.23,0,0,1-1.94,2.4A6.63,6.63,0,0,1,213.85,58a4.41,4.41,0,0,1-2.68-.07c-1.5-.63-1.66-1.14-3.38-2.81l-1.37-1.3c-.85-.81-1.34-1.37-1.39-2.05s.85-.87,1.54-2.28a6.8,6.8,0,0,0,.54-2.73,1,1,0,0,1,.38-.68,6.17,6.17,0,0,1,2.16-1.15,4.44,4.44,0,0,1,.6,0,8.54,8.54,0,0,1,1.47.26c1.31.27,1.29-.82,1.84-.87.19,0,.86-.06,2.41,1,1.71,1.21,2.67,1.89,2.79,3s-.36,1.43-.19,2.77A24,24,0,0,1,219,53.44Z"/><g class="cls-14"><path class="cls-15" d="M219,53.44a2.12,2.12,0,0,1,0,.44c-1.51-4.86-6-7.7-8.72-9a8.54,8.54,0,0,1,1.47.26c1.31.27,1.29-.82,1.84-.87.19,0,.86-.06,2.41,1,1.71,1.21,2.67,1.89,2.79,3s-.36,1.43-.19,2.77A24,24,0,0,1,219,53.44Z"/></g><g class="cls-16"><path class="cls-7" d="M206.42,53.77c-.85-.81-1.34-1.37-1.39-2.05s.85-.87,1.54-2.28a6.8,6.8,0,0,0,.54-2.73l.37-.65a14,14,0,0,0,5,9C215.79,57.78,209.91,55.46,206.42,53.77Z"/></g><path class="cls-17" d="M236.57,84.18a57.18,57.18,0,0,1-10.11-2.3,18.66,18.66,0,0,1-10.29-7.27c-4.34-4.56-5.2-6.31-8.86-8.87s-9-2.55-18.8-2.48c-6.44,0-14.44.24-14.9-2.66-.5-3.27,9.42-7.18,10.11-7.45a41.57,41.57,0,0,1,11-2.66,26.56,26.56,0,0,1,15.81,3c2.34,1.35,1.37,1.35,14.36,15.25,4.82,5.16,7,7.38,9,8.71a13.6,13.6,0,0,0,2.2,1.22,17.58,17.58,0,0,0,4.3,1.35h0c5.86,1,9.7-1.6,12,.43C255.2,83,244.91,85.43,236.57,84.18Z"/><g class="cls-18"><path class="cls-15" d="M233.83,77.46c-5.89-2.57-13.29-6.57-16.77-11.9-2.8-4-5.47-11.5-22.37-15.07a26.56,26.56,0,0,1,15.81,3c2.34,1.35,1.37,1.35,14.36,15.25C229.68,73.91,231.89,76.13,233.83,77.46Z"/></g><path class="cls-7" d="M232.56,70.72l0,0c-.22.52-.73.79-1.64,1.53-1.14.93-1.13,1.45-1.85,1.6a4.75,4.75,0,0,1-1.87.11c-.5-.18-.2.17-1.07-.47a1.68,1.68,0,0,0-.38-.22c-.64-.26-1.13,0-1.47-.11-.14,0-.61-.23-1.35-1.49s-1.25-2.17-1-3,.7-.88,1-1.87.17-1.1.46-1.81l.12-.23a3.71,3.71,0,0,1,2.16-1.12,6.34,6.34,0,0,1,1.17-.25,4.59,4.59,0,0,1,1.58.09,3.44,3.44,0,0,1,1.84.9c.84.92.79,1.32,1.46,3S232.83,70,232.56,70.72Z"/><g class="cls-19"><path class="cls-15" d="M232.56,70.72l0,0c-.81-3.1-4.31-6.18-5.71-7.28a4.59,4.59,0,0,1,1.58.09,3.44,3.44,0,0,1,1.84.9c.84.92.79,1.32,1.46,3S232.83,70,232.56,70.72Z"/></g><path class="cls-7" d="M247.5,79.5a5.44,5.44,0,0,1-1.92,2.32,6.81,6.81,0,0,1-3.18,1.67l-.18,0a4.17,4.17,0,0,1-2.5-.11c-1.5-.62-1.66-1.13-3.38-2.8s-2.69-2.37-2.76-3.36c0-.77.52-1.06,1.21-2.47a6.51,6.51,0,0,0,.56-1.59h0c.17-.76.2-1.27.7-1.63a6.09,6.09,0,0,1,2.16-1.14c.69-.06.71.61,2.06.23l.37-.12c.77-.3,1-.7,1.48-.75.18,0,.85,0,2.41,1s2.66,1.9,2.78,3-.36,1.42-.19,2.76c.15,1.15.4,1.41.44,2.41A2.33,2.33,0,0,1,247.5,79.5Z"/><g class="cls-20"><path class="cls-15" d="M247.5,79.5c-2.37-6.14-5.28-8-6.86-9,.77-.3,1-.7,1.48-.75.18,0,.85,0,2.41,1s2.66,1.9,2.78,3-.36,1.42-.19,2.76c.15,1.15.4,1.41.44,2.41A2.33,2.33,0,0,1,247.5,79.5Z"/></g><path class="cls-7" d="M208,50.31a11,11,0,0,1-.48,2.5,2.23,2.23,0,0,1-.23.52,4.68,4.68,0,0,1-.61.71h0c-.24.22-.6.49-1.34,1.05-1.36,1-.3,1.91-.71,2.48-.14.2-.66.86-3,1.42-2.58.62-4,1-5.14.18-1.27-.89-1.06-1.53-2.48-2.48l-.19-.13a20.14,20.14,0,0,1-2.47-1.47c-1.1-.89-1.08-2.61-1.07-4.26a8.92,8.92,0,0,1,.79-3.9,5.48,5.48,0,0,1,.28-.53,6.25,6.25,0,0,1,1.78-2.17,0,0,0,0,1,0,0l.13-.09c.12-.07.25-.15.38-.21a7.09,7.09,0,0,1,1.06-.44c1.17-.38,2.06-.25,4.44-.45,2.92-.24,4.5-.59,5.5.18.77.6.12,1.53.88,3.37C206.47,48.84,208.12,49.1,208,50.31Z"/><g class="cls-12"><path class="cls-15" d="M208,50.31a11,11,0,0,1-.48,2.5c-1-6.42-10.2-8.77-12.83-9.32,1.17-.38,2.06-.25,4.44-.45,2.92-.24,4.5-.59,5.5.18.77.6.12,1.53.88,3.37C206.47,48.84,208.12,49.1,208,50.31Z"/></g><g class="cls-16"><path class="cls-7" d="M194,56.34a1,1,0,0,1-.19.23,20.14,20.14,0,0,1-2.47-1.47c-1.1-.89-1.08-2.61-1.07-4.26a8.92,8.92,0,0,1,.79-3.9S190.82,53.15,194,56.34Z"/></g><g class="cls-16"><path class="cls-7" d="M225.72,73.32c-.64-.26-1.13,0-1.47-.11-.14,0-.61-.23-1.35-1.49s-1.25-2.17-1-3,.7-.88,1-1.87.17-1.1.46-1.81l.12-.23.27-.3S222.78,70.09,225.72,73.32Z"/></g><g class="cls-16"><path class="cls-7" d="M242.22,83.52a4.17,4.17,0,0,1-2.5-.11c-1.5-.62-1.66-1.13-3.38-2.8s-2.69-2.37-2.76-3.36c0-.77.52-1.06,1.21-2.47a6.51,6.51,0,0,0,.56-1.59C235.35,73.28,235.38,79.14,242.22,83.52Z"/></g><g class="cls-21"><path class="cls-15" d="M240.34,80h0Z"/></g><path class="cls-17" d="M187.32,63.27s10.23,0,10.59,2.47,2.66,1.77,3.9,1.42,5-1.78,7.45.18-.36-4.26-.36-4.26-9.75-2.13-10.46-1.95S187.32,63.27,187.32,63.27Z"/><rect class="cls-22" y="0.25" width="300" height="165"/></g></g></svg>