<svg xmlns="http://www.w3.org/2000/svg" xmlns:xlink="http://www.w3.org/1999/xlink" viewBox="0 0 300 165.5"><defs><style>.cls-1{fill:none;}.cls-2{isolation:isolate;}.cls-3{fill:#fce5cd;}.cls-4{fill:#edc094;}.cls-5{fill:#893210;}.cls-6{fill:#cc635e;}.cls-7{fill:#f3bda2;}.cls-8{fill:#2e4f15;}.cls-9{opacity:0.47;}.cls-16,.cls-18,.cls-20,.cls-22,.cls-9{mix-blend-mode:soft-light;}.cls-10{fill:#bbf9bf;}.cls-11{clip-path:url(#clip-path);}.cls-12{fill:#eda52f;}.cls-13{fill:#db8509;}.cls-14{fill:#ffa81d;}.cls-15{fill:#ddbd97;}.cls-16{opacity:0.74;}.cls-17{fill:#fff;}.cls-18{opacity:0.43;}.cls-19{fill:#911b0f;}.cls-20{opacity:0.52;}.cls-21{fill:#ffe8d9;}.cls-22{opacity:0.49;}.cls-23{fill:#2e7915;}.cls-24{fill:url(#linear-gradient);}</style><clipPath id="clip-path"><path class="cls-1" d="M146.71,82.9c-1-2-3.32-6.83-1.46-11.54,1-2.41,2.78-4.23,6-6.24,3.69-2.34,15.76-10,29.79-6.48,8.06,2,7.76,5.43,17.51,8.36,4.81,1.45,9.58,2,19.33,1.77,20.2-.53,26.8-8.82,37.09-4.24,1.43.63,6.29,2.87,8.51,7.77a16.33,16.33,0,0,1,.61,9.78c-3.25,13.41-47.22,32.85-87.3,21.44C158.6,98.35,149.82,89.3,146.71,82.9Z"/></clipPath><linearGradient id="linear-gradient" x1="150.37" y1="168.79" x2="149.66" y2="2.33" gradientUnits="userSpaceOnUse"><stop offset="0.03" stop-color="#591c16"/><stop offset="0.22" stop-color="#5f241d" stop-opacity="0.96"/><stop offset="0.38" stop-color="#733c33" stop-opacity="0.84"/><stop offset="0.53" stop-color="#936459" stop-opacity="0.64"/><stop offset="0.68" stop-color="#c09d8d" stop-opacity="0.36"/><stop offset="0.82" stop-color="#fae5cf" stop-opacity="0"/></linearGradient></defs><g class="cls-2"><g id="Layer_1" data-name="Layer 1"><rect class="cls-3" y="0.42" width="300" height="165"/><ellipse class="cls-4" cx="204.53" cy="73.36" rx="61.47" ry="20.02"/><path class="cls-5" d="M144,78.49a11.83,11.83,0,0,1-1-2.19,13.08,13.08,0,0,1-.65-2.32,6.17,6.17,0,0,1-.08-.62c0-.1,0-.21,0-.31v-.31a8.27,8.27,0,0,1,.15-1.23,8.55,8.55,0,0,1,.85-2.31,14,14,0,0,1,3.1-3.7,26.89,26.89,0,0,1,3.89-2.76,51.51,51.51,0,0,1,8.62-3.94,89.87,89.87,0,0,1,9.07-2.7A139.53,139.53,0,0,1,186.5,53,188.23,188.23,0,0,1,205.35,52a180,180,0,0,1,18.85,1,135.51,135.51,0,0,1,18.62,3.22,82.6,82.6,0,0,1,9.07,2.8c1.49.56,3,1.17,4.39,1.86a37.69,37.69,0,0,1,4.21,2.33,22.08,22.08,0,0,1,3.81,3,13.49,13.49,0,0,1,1.59,1.93A9.71,9.71,0,0,1,267,70.5a7.77,7.77,0,0,1,.42,2.59,12.45,12.45,0,0,1-.09,1.25c-.05.41-.11.81-.19,1.21a14.49,14.49,0,0,1-.64,2.36,9,9,0,0,1-.51,1.15,4.52,4.52,0,0,1-.77,1.07l-.72-.57a5.72,5.72,0,0,0,.39-1c.1-.34.19-.7.27-1.06.15-.73.26-1.48.36-2.23.05-.37.08-.75.12-1.12s.06-.76.06-1.1a6.17,6.17,0,0,0-.33-2,9.71,9.71,0,0,0-2.33-3.59,20.56,20.56,0,0,0-3.51-2.82,35.52,35.52,0,0,0-4-2.24c-1.38-.67-2.81-1.27-4.25-1.83a82.29,82.29,0,0,0-8.88-2.77A132.94,132.94,0,0,0,224,54.54a185,185,0,0,0-18.69-1.07,182.57,182.57,0,0,0-18.71.79,138.57,138.57,0,0,0-18.48,2.94,89.53,89.53,0,0,0-9,2.56,50.44,50.44,0,0,0-8.5,3.77,25,25,0,0,0-3.79,2.62,12.94,12.94,0,0,0-3,3.44,7.49,7.49,0,0,0-.81,2.07,6.92,6.92,0,0,0-.15,1.1V73a2.44,2.44,0,0,0,0,.27,5.14,5.14,0,0,0,.06.55,13.63,13.63,0,0,0,.59,2.21,11,11,0,0,0,.95,2.06Z"/><ellipse class="cls-6" cx="244.89" cy="62.15" rx="20.61" ry="21.62" transform="translate(59.64 233.96) rotate(-57.08)"/><ellipse class="cls-7" cx="244.86" cy="62.39" rx="17.83" ry="18.71" transform="translate(59.43 234.04) rotate(-57.08)"/><ellipse class="cls-6" cx="244.86" cy="62.39" rx="15.64" ry="16.41" transform="translate(59.43 234.04) rotate(-57.08)"/><ellipse class="cls-7" cx="244.89" cy="62.15" rx="12.2" ry="12.8" transform="matrix(0.54, -0.84, 0.84, 0.54, 59.64, 233.96)"/><ellipse class="cls-6" cx="244.86" cy="62.39" rx="9.93" ry="10.42" transform="translate(59.43 234.04) rotate(-57.08)"/><ellipse class="cls-7" cx="244.69" cy="62.72" rx="6.62" ry="6.95" transform="translate(59.08 234.05) rotate(-57.08)"/><ellipse class="cls-6" cx="244.69" cy="62.72" rx="4.89" ry="5.13" transform="translate(59.08 234.05) rotate(-57.08)"/><path class="cls-8" d="M225.27,53.26s-2.69.92-7.08,2.5l-1.51.55-3.48,3.51L203.11,70c-17.52,6.62-44.39,2.81-55.64,10.68,0,0,2.67-41.95,7.32-49.68.06-.09.11-.18.17-.26l.21-.26c1,.47,2,1,3.2,1.48h0c1.72.75,3.66,1.53,5.76,2.34h0c16.21,6.19,42.26,13.69,54.44,17.09l2,.55C223.52,52.79,225.27,53.26,225.27,53.26Z"/><g class="cls-9"><path class="cls-10" d="M220.55,52l-2.36,3.8-2.28,3.67-2.71.39-3.26.47L155,30.75h0a.12.12,0,0,1,0-.19h0a.6.6,0,0,1,.7,0A29.91,29.91,0,0,0,158.37,32h0c1.66.78,3.6,1.56,5.76,2.34h0c16.21,6.19,42.26,13.69,54.44,17.09Z"/></g><path class="cls-6" d="M240.33,69.17a26.44,26.44,0,0,1-1.24,4.27c-4,10.54-16.4,15.64-27.67,11.38S194.27,68.57,198.28,58c2.89-7.59,8.48-13,16.77-13.37h0a27.47,27.47,0,0,1,10.9,2C238.43,51.35,242.15,60.08,240.33,69.17Z"/><ellipse class="cls-7" cx="218.73" cy="65.96" rx="17.67" ry="18.87" transform="translate(82.97 249.71) rotate(-70.32)"/><ellipse class="cls-6" cx="218.73" cy="65.96" rx="15.51" ry="16.55" transform="translate(82.97 249.71) rotate(-70.32)"/><ellipse class="cls-7" cx="218.68" cy="65.73" rx="12.09" ry="12.91" transform="translate(83.15 249.51) rotate(-70.32)"/><ellipse class="cls-6" cx="218.73" cy="65.96" rx="9.84" ry="10.51" transform="translate(82.97 249.71) rotate(-70.32)"/><ellipse class="cls-7" cx="218.69" cy="66.32" rx="6.56" ry="7.01" transform="translate(82.6 249.91) rotate(-70.32)"/><ellipse class="cls-6" cx="218.69" cy="66.32" rx="4.85" ry="5.18" transform="translate(82.6 249.91) rotate(-70.32)"/><g class="cls-11"><path class="cls-12" d="M146.71,82.9c-1-2-3.32-6.83-1.46-11.54,1-2.41,2.78-4.23,6-6.24,3.69-2.34,15.76-10,29.79-6.48,8.06,2,7.76,5.43,17.51,8.36,4.81,1.45,9.58,2,19.33,1.77,20.2-.53,26.8-8.82,37.09-4.24,1.43.63,6.29,2.87,8.51,7.77a16.33,16.33,0,0,1,.61,9.78c-3.25,13.41-47.22,32.85-87.3,21.44C158.6,98.35,149.82,89.3,146.71,82.9Z"/><path class="cls-13" d="M146,81.49a13.14,13.14,0,0,1,5.15-12,23.09,23.09,0,0,1,7.16-3.2c1.29-.41,2.59-.8,3.86-1.28s2.52-1.07,3.75-1.66c2.4-1.16,4.88-2.31,7.6-2.25a16.88,16.88,0,0,1,7.7,2.55c1.17.65,2.31,1.35,3.44,2.06s2.2,1.4,3.24,2.18a16.53,16.53,0,0,1,4.94,5.55,22,22,0,0,1,1.48,4c.39,1.41.78,2.83,1.07,4.26a12.64,12.64,0,0,1,.2,4.42,20.25,20.25,0,0,1-1.19,4.17c-.27.68-.55,1.35-.83,2A.51.51,0,0,0,194,93a.53.53,0,0,0,.64-.36c1.17-2.8,2.34-5.71,2.15-8.8a24.71,24.71,0,0,0-.88-4.66c-.37-1.42-.74-2.85-1.25-4.23a15.2,15.2,0,0,0-2-3.75A17.1,17.1,0,0,0,190,68.3a45.5,45.5,0,0,0-6.62-4.56,24.45,24.45,0,0,0-7.85-3.43,11.9,11.9,0,0,0-4.25,0,18,18,0,0,0-4,1.31c-1.29.57-2.53,1.21-3.81,1.79a33.44,33.44,0,0,1-3.88,1.44,38.11,38.11,0,0,0-7.73,3,14.32,14.32,0,0,0-7,12.21,15.07,15.07,0,0,0,.14,1.77.51.51,0,0,0,.63.36.53.53,0,0,0,.36-.64Z"/><path class="cls-13" d="M147,87.39a28.48,28.48,0,0,1,1.72-6.81,11.74,11.74,0,0,1,1.82-2.94,20.86,20.86,0,0,1,2.64-2.51A20.56,20.56,0,0,1,159,71.22c1.24-.44,2.55-.61,3.82-.94s2.44-.77,3.63-1.22a53.35,53.35,0,0,1,7.2-2.5,12,12,0,0,1,7.25.34,19.46,19.46,0,0,1,5.53,4.1,17.41,17.41,0,0,1,2.39,2.54,9.12,9.12,0,0,1,1.42,3.29c.29,1.25.5,2.53.67,3.8a20.7,20.7,0,0,1,.19,4,10.29,10.29,0,0,1-2.19,6,7.82,7.82,0,0,1-1.18,1.12.54.54,0,0,0,0,.74.55.55,0,0,0,.74,0,10,10,0,0,0,3.39-5.8,21.7,21.7,0,0,0-.23-8.15,17.86,17.86,0,0,0-.95-3.81,10.38,10.38,0,0,0-2.08-3.09c-.84-.9-1.76-1.73-2.68-2.56a22.4,22.4,0,0,0-2.87-2.25,11,11,0,0,0-3.47-1.47,12.83,12.83,0,0,0-3.81-.21,27.83,27.83,0,0,0-7.57,2.08c-1.21.47-2.43,1-3.67,1.39a33.05,33.05,0,0,1-3.9,1.06A12.83,12.83,0,0,0,157,71a23.15,23.15,0,0,0-3.11,2.18,21.87,21.87,0,0,0-5.29,5.31,20.17,20.17,0,0,0-2.33,6.88l-.3,1.73a.52.52,0,0,0,1,.27Z"/><path class="cls-13" d="M169.19,91.15c.42-3.9,2.69-8.1,6.51-9.49a8.33,8.33,0,0,1,3.24-.46,11,11,0,0,1,3.36.69,4.63,4.63,0,0,1,2.26,1.8,5.43,5.43,0,0,1,.78,2.59c.14,2.51-1.19,4.82-2.41,7a.52.52,0,0,0,.89.52c1.22-2.12,2.5-4.39,2.56-6.9a6,6,0,0,0-2.84-5.51,9.81,9.81,0,0,0-3.47-1.07,10.09,10.09,0,0,0-3.91.15,9.88,9.88,0,0,0-5.09,3.44,13.84,13.84,0,0,0-2.91,7.28c0,.27.25.51.51.51a.53.53,0,0,0,.52-.51Z"/><path class="cls-13" d="M195.47,90.22A16.69,16.69,0,0,1,198,88a13,13,0,0,1,3.25-1.79,4,4,0,0,1,2.81-.19,4.3,4.3,0,0,1,1.71,1.89c.5.87.91,1.78,1.41,2.64a6.34,6.34,0,0,0,.8,1.12,4.85,4.85,0,0,0,1.25.9,11,11,0,0,0,3.35,1.07c1.33.24,2.63.58,4,.81a20.5,20.5,0,0,0,8,.06,9.75,9.75,0,0,0,6.33-4.38c.77-1.13,1.4-2.35,2.14-3.5a12.21,12.21,0,0,1,2.88-3.2,32.49,32.49,0,0,1,3.94-2.52A18.91,18.91,0,0,1,244.1,79a14,14,0,0,1,13.55,4,11.21,11.21,0,0,1,1.09,1.38c.37.55,1.27,0,.89-.52a14.85,14.85,0,0,0-13.32-6.24A19.21,19.21,0,0,0,238,80.77a22.17,22.17,0,0,0-3.87,2.8A15.69,15.69,0,0,0,231.54,87a26.63,26.63,0,0,1-2.27,3.54,8.79,8.79,0,0,1-3.08,2.36,14.71,14.71,0,0,1-7.75.82,35.2,35.2,0,0,1-3.93-.71c-1.21-.28-2.49-.41-3.67-.81a8,8,0,0,1-1.73-.87,3.15,3.15,0,0,1-.71-.74A25.9,25.9,0,0,1,207,88a7.87,7.87,0,0,0-1.74-2.41,3.52,3.52,0,0,0-2.77-.72c-2.48.31-4.78,1.92-6.6,3.54-.39.35-.77.72-1.13,1.11s.28,1.22.73.73Z"/><path class="cls-13" d="M196.6,86a5.16,5.16,0,0,1,1.9-3,6.8,6.8,0,0,1,3.39-1.6,6,6,0,0,1,3.67.7,12.66,12.66,0,0,1,2.95,2.85,14.64,14.64,0,0,0,6.63,4.48,9.64,9.64,0,0,0,7.8-.86c2.3-1.45,3.56-4,5.26-6a25.29,25.29,0,0,1,5.7-5,26.59,26.59,0,0,1,14.67-4.25,16.41,16.41,0,0,1,8.07,2A8.83,8.83,0,0,1,261,81.09a6.59,6.59,0,0,1,0,1.83.52.52,0,0,0,.52.52.54.54,0,0,0,.52-.52,8.7,8.7,0,0,0-2.86-7.08,13.88,13.88,0,0,0-7.73-3.4A27.4,27.4,0,0,0,229.15,80a25.92,25.92,0,0,0-2.62,3A37.42,37.42,0,0,1,224,86.24a7.61,7.61,0,0,1-3.35,2.17,9,9,0,0,1-4.09.24,12.78,12.78,0,0,1-7-4.09,21.92,21.92,0,0,0-3-3.08,6.74,6.74,0,0,0-3.81-1.22,7.76,7.76,0,0,0-6.64,3.92,5.09,5.09,0,0,0-.58,1.79c0,.27.27.51.52.51a.53.53,0,0,0,.52-.51Z"/><path class="cls-13" d="M196.09,80.33a5,5,0,0,1,4.15-2.9,11.58,11.58,0,0,1,6,.9c2.13.91,3.65,2.6,5.39,4a10.21,10.21,0,0,0,2.92,1.79,6.25,6.25,0,0,0,3.85.11c2.88-.8,4.82-3.13,6.7-5.29a30,30,0,0,1,6.14-5.38,29.35,29.35,0,0,1,7.31-3.41,39,39,0,0,1,9-1.44l2.12-.14a10,10,0,0,1,1.34,0,14,14,0,0,1,3.22.88,31.4,31.4,0,0,1,3.59,1.64l3.8,1.92,2,1c.59.3,1.11-.59.52-.89l-4.06-2c-1.3-.66-2.59-1.37-3.92-2a25.62,25.62,0,0,0-3.5-1.26,8.6,8.6,0,0,0-2.94-.31,62.92,62.92,0,0,0-9.39,1.06,30.32,30.32,0,0,0-7.75,3,29.32,29.32,0,0,0-6.6,4.9c-2.06,2-3.69,4.66-6.26,6.11a6.08,6.08,0,0,1-4,.84,7.15,7.15,0,0,1-3-1.43c-1.88-1.43-3.41-3.3-5.57-4.34A13,13,0,0,0,201,76.33a6.74,6.74,0,0,0-5.24,2.45,5.77,5.77,0,0,0-.67,1.28c-.23.62.77.89,1,.27Z"/><path class="cls-13" d="M194.62,76c3-3.25,8-2.86,11.67-1.11,2.25,1.06,4.35,2.44,6.77,3.09a9.18,9.18,0,0,0,3.61.29,9.44,9.44,0,0,0,3.26-1.13,44.24,44.24,0,0,0,5.58-4.26,38.75,38.75,0,0,1,5.85-3.79,33.2,33.2,0,0,1,6.36-2.53,27.39,27.39,0,0,1,7.14-1.1c5.28,0,10.33,2,15.1,4.07l1.76.78a.54.54,0,0,0,.71-.19.52.52,0,0,0-.19-.71c-4.87-2.14-9.87-4.38-15.23-4.89a25.1,25.1,0,0,0-7.58.56,32.85,32.85,0,0,0-6.68,2.19,37.76,37.76,0,0,0-6.08,3.48c-1,.68-1.93,1.41-2.86,2.18s-1.79,1.53-2.74,2.23a8.86,8.86,0,0,1-6.56,2.07c-2.5-.35-4.73-1.7-6.94-2.85-3.77-2-8.83-2.89-12.5-.16a7.84,7.84,0,0,0-1.18,1c-.45.48.27,1.21.73.73Z"/><path class="cls-13" d="M238.72,90.53a6.8,6.8,0,0,1,4-4.91,10.13,10.13,0,0,1,3.49-.91,9.34,9.34,0,0,1,3.17.24,4.72,4.72,0,0,1,2.7,1.74.53.53,0,0,0,.71.19.52.52,0,0,0,.18-.71c-1.36-2-3.91-2.61-6.2-2.52a10.2,10.2,0,0,0-7.17,3,7.13,7.13,0,0,0-1.85,3.64.54.54,0,0,0,.36.64.53.53,0,0,0,.64-.36Z"/><path class="cls-13" d="M193.13,72a1.29,1.29,0,0,1,.1-.55,1.39,1.39,0,0,1,.1-.26l.19-.33a4.75,4.75,0,0,1,1-1,3.39,3.39,0,0,1,1.24-.63,5.37,5.37,0,0,1,2,0,17.22,17.22,0,0,1,2,.43l2.06.56q2,.57,4,1.26a35.79,35.79,0,0,0,7.76,2.28,12.75,12.75,0,0,0,7-1.32,19.91,19.91,0,0,0,5.63-4.28l.57-.63a.54.54,0,0,0,0-.73.52.52,0,0,0-.73,0,20,20,0,0,1-5.41,4.45,12,12,0,0,1-6.73,1.51c-2.69-.22-5.21-1.35-7.72-2.23-1.36-.48-2.73-.9-4.12-1.29a31.55,31.55,0,0,0-4.16-1,5.26,5.26,0,0,0-3.65.59,4.87,4.87,0,0,0-2.05,2.51,2.38,2.38,0,0,0-.1.75.52.52,0,0,0,1,0Z"/></g><path class="cls-3" d="M167.1,87.34a9.89,9.89,0,0,1-7.17,5.2h0l-.56.11c-6,1-12.33-3.42-13.63-11.31a27.12,27.12,0,0,1,.41-9.48h0c.07-.32.15-.64.23-1,1.1-4.29,3.29-8.1,6.93-8.85,5-1,9.26,3.46,11.92,8.18a24.94,24.94,0,0,1,2.88,7.54C168.69,81.47,168.4,84.77,167.1,87.34Z"/><ellipse class="cls-14" cx="157.54" cy="81.86" rx="7.47" ry="8.32" transform="translate(-16.69 47.76) rotate(-16.38)"/><path class="cls-3" d="M169.3,65c-6.3,2.79-5.35,14.91-3.1,20.44,3,7.44,10.22,10.45,15.81,8.18,6.94-2.81,8.09-9.16,5.23-16.36C185.37,72.59,176.74,61.74,169.3,65Z"/><ellipse class="cls-14" cx="177.83" cy="83.5" rx="7.44" ry="8.36" transform="translate(-17.69 102.63) rotate(-30.74)"/><path class="cls-15" d="M165.31,70.38s-1.49,11.67,1.79,17C163,83.53,163.11,76.46,165.31,70.38Z"/><path class="cls-15" d="M159.93,92.54h0l-.56.11c-6,1-12.33-3.42-13.63-11.31a27.12,27.12,0,0,1,.41-9.48h0c.15-.61.23-1,.23-1S145.8,91.5,159.93,92.54Z"/><g class="cls-16"><path class="cls-17" d="M155.67,73.7s6.64,1.82,8.23,6.65C163.92,73.25,157.75,73.67,155.67,73.7Z"/></g><g class="cls-16"><path class="cls-17" d="M175.65,75.5s6.91.54,9.8,9.34C185.55,76.68,177.94,74.65,175.65,75.5Z"/></g><g class="cls-18"><path d="M150,82.07c-.1-.18,1.11,8.52,8.8,8C159,90,153.45,88.94,150,82.07Z"/></g><g class="cls-18"><path d="M170.27,83.66c-.09-.19,1.11,8.51,8.8,8C179.2,91.62,173.69,90.53,170.27,83.66Z"/></g><rect class="cls-19" x="185.99" y="129.78" width="39.03" height="5.3" rx="2.05"/><path class="cls-19" d="M266.6,73c0,33.18-27.76,60.07-62,60.07s-62-26.89-62-60.07c0,11.19,27.76,20.26,62,20.26S266.6,84.2,266.6,73Z"/><g class="cls-20"><path d="M186.47,130.32s8.88.9,18.48.9a182.09,182.09,0,0,0,19.36-1.2S208,136.17,186.47,130.32Z"/></g><ellipse class="cls-21" cx="192.11" cy="108.59" rx="1.7" ry="1.64"/><ellipse class="cls-21" cx="217" cy="108.59" rx="1.7" ry="1.64"/><path class="cls-21" d="M204.7,112.41a8,8,0,0,1-4.6-1.38.52.52,0,0,1,.63-.82,7.08,7.08,0,0,0,4,1.17,7.43,7.43,0,0,0,4.05-1.18.52.52,0,1,1,.61.83A8.26,8.26,0,0,1,204.7,112.41Z"/><g class="cls-22"><path class="cls-17" d="M143.06,75.6s11.19,25.68,95.21,14.84C238.41,90.42,154.74,111.64,143.06,75.6Z"/></g><path class="cls-23" d="M213.1,77.17a1.11,1.11,0,0,1-.44.86,2.24,2.24,0,0,1-1.45.49c-1.05,0-1.9-.61-1.9-1.35a1.33,1.33,0,0,1,.95-1.16,2.37,2.37,0,0,1,1-.18C212.25,75.83,213.1,76.43,213.1,77.17Z"/><g class="cls-9"><path class="cls-10" d="M213.1,77.17a1.11,1.11,0,0,1-.44.86h0a3,3,0,0,0-2.4-2,2.37,2.37,0,0,1,1-.18C212.25,75.83,213.1,76.43,213.1,77.17Z"/></g><path class="cls-23" d="M219.93,83.23l-.28.12-.53.23a.84.84,0,0,1-1.11-.4l-2-4.29a.81.81,0,0,1,.42-1.08l.81-.36a.82.82,0,0,1,.26-.06.83.83,0,0,1,.85.47l2,4.29A.8.8,0,0,1,219.93,83.23Z"/><g class="cls-9"><path class="cls-10" d="M219.93,83.23l-.28.12c.14-.94-1.51-4.58-2.16-6a.83.83,0,0,1,.85.47l2,4.29A.8.8,0,0,1,219.93,83.23Z"/></g><path class="cls-23" d="M231.74,70.18h0a.8.8,0,0,1-.57.83.71.71,0,0,1-.21,0l-2.61.18a.84.84,0,0,1-.9-.76h0a.83.83,0,0,1,.79-.87l1.81-.12.8,0A.83.83,0,0,1,231.74,70.18Z"/><g class="cls-9"><path class="cls-10" d="M231.74,70.18h0a.8.8,0,0,1-.57.83c-.4-.49-.82-1.09-1.12-1.54l.8,0A.83.83,0,0,1,231.74,70.18Z"/></g><path class="cls-23" d="M245.11,76.55l-.38,1.13L244.29,79a.84.84,0,0,1-1,.52h0a.81.81,0,0,1-.54-1L243.5,76a.81.81,0,0,1,.21-.33.85.85,0,0,1,.85-.19h0A.82.82,0,0,1,245.11,76.55Z"/><g class="cls-9"><path class="cls-10" d="M245.11,76.55l-.38,1.13a4.81,4.81,0,0,0-1-2,.85.85,0,0,1,.85-.19h0A.82.82,0,0,1,245.11,76.55Z"/></g><path class="cls-23" d="M248.54,81.55a.83.83,0,0,1-.61.79h0a.84.84,0,0,1-1-.56l-.72-2.44a.79.79,0,0,1,.13-.7.82.82,0,0,1,.45-.31h0a.85.85,0,0,1,1,.56l.71,2.44A.78.78,0,0,1,248.54,81.55Z"/><g class="cls-9"><path class="cls-10" d="M248.54,81.55a12.05,12.05,0,0,0-2.24-2.91.82.82,0,0,1,.45-.31h0a.85.85,0,0,1,1,.56l.71,2.44A.78.78,0,0,1,248.54,81.55Z"/></g><path class="cls-23" d="M192.65,67.89H190a.82.82,0,0,1-.84-.81h0a.83.83,0,0,1,.83-.82h2.62a.86.86,0,0,1,.39.09.82.82,0,0,1,.45.73h0A.82.82,0,0,1,192.65,67.89Z"/><g class="cls-9"><path class="cls-10" d="M192.65,67.89h-1.22A4.79,4.79,0,0,0,193,66.34a.82.82,0,0,1,.45.73h0A.82.82,0,0,1,192.65,67.89Z"/></g><path class="cls-23" d="M188.82,72.61a.87.87,0,0,1-1-.32h0a.79.79,0,0,1,.23-1.13l2.17-1.41a.84.84,0,0,1,.72-.1.82.82,0,0,1,.44.32h0a.8.8,0,0,1-.23,1.13L189,72.51Z"/><g class="cls-9"><path class="cls-10" d="M188.82,72.61a12.32,12.32,0,0,0,2.15-3,.82.82,0,0,1,.44.32h0a.8.8,0,0,1-.23,1.13L189,72.51Z"/></g><path class="cls-23" d="M248.24,71.84a1.32,1.32,0,0,1-.27.79,1.91,1.91,0,0,1-1.54.71,1.68,1.68,0,0,1-1.81-1.5,1.43,1.43,0,0,1,.7-1.18,2,2,0,0,1,1.11-.32A1.68,1.68,0,0,1,248.24,71.84Z"/><g class="cls-9"><path class="cls-10" d="M248.24,71.84a1.32,1.32,0,0,1-.27.79,5.67,5.67,0,0,0-2.65-2,2,2,0,0,1,1.11-.32A1.68,1.68,0,0,1,248.24,71.84Z"/></g><g class="cls-20"><path d="M201.39,52.15s-4.23,20.39,28.25,15.35c-17.23,2.67-27.56.5-27.56.5L197,66.52S195.7,60.5,201.39,52.15Z"/></g><g class="cls-20"><path d="M228.73,47.82s11.11,4.09,12,16.73c.13-.1,15.84-6.06,22.94,8.46A67.81,67.81,0,0,0,258,63.46c-1.42-1.75-7-4.13-14-3A24.48,24.48,0,0,0,228.73,47.82Z"/></g><rect class="cls-24" y="0.42" width="300" height="165"/></g></g></svg>