<svg id="Layer_1" data-name="Layer 1" xmlns="http://www.w3.org/2000/svg" xmlns:xlink="http://www.w3.org/1999/xlink" viewBox="0 0 300 165"><defs><style>.cls-1{fill:#fce5cd;}.cls-2{fill:#474849;}.cls-3{fill:#ffc76c;}.cls-4{fill:#54422e;}.cls-5{fill:#779b62;}.cls-6{fill:#487233;}.cls-7{fill:#c1272d;}.cls-8{fill:#b780b6;}.cls-9{fill:url(#linear-gradient);}</style><linearGradient id="linear-gradient" x1="150.37" y1="168.37" x2="149.66" y2="1.92" gradientUnits="userSpaceOnUse"><stop offset="0.03" stop-color="#591c16"/><stop offset="0.22" stop-color="#5f241d" stop-opacity="0.96"/><stop offset="0.38" stop-color="#733c33" stop-opacity="0.84"/><stop offset="0.53" stop-color="#936459" stop-opacity="0.64"/><stop offset="0.68" stop-color="#c09d8d" stop-opacity="0.36"/><stop offset="0.82" stop-color="#fae5cf" stop-opacity="0"/></linearGradient></defs><rect class="cls-1" x="-0.27" y="-0.15" width="300" height="165"/><circle class="cls-2" cx="210.01" cy="83.2" r="60.99"/><path class="cls-1" d="M210,141a57.74,57.74,0,1,1,22.54-4.55A57.58,57.58,0,0,1,210,141Zm0-114.3A56.25,56.25,0,1,0,232,31.09,56,56,0,0,0,210,26.66Z"/><path class="cls-1" d="M210,107.62a24.74,24.74,0,1,1,24.73-24.73A24.76,24.76,0,0,1,210,107.62Zm0-47.93a23.2,23.2,0,1,0,23.2,23.2A23.23,23.23,0,0,0,210,59.69Z"/><circle class="cls-3" cx="210.01" cy="82.89" r="19.05"/><circle class="cls-4" cx="200.14" cy="85.37" r="1.55"/><circle class="cls-4" cx="219.88" cy="85.37" r="1.55"/><path class="cls-4" d="M210.14,89a7.1,7.1,0,0,1-4.21-1.31.47.47,0,0,1-.08-.65.46.46,0,0,1,.65-.07,6.39,6.39,0,0,0,3.64,1.1,6.77,6.77,0,0,0,3.72-1.11.46.46,0,0,1,.55.74A7.5,7.5,0,0,1,210.14,89Z"/><path class="cls-5" d="M237.28,117.16a5.6,5.6,0,0,1-1.8-7.18,5.59,5.59,0,0,1,6.28-9.14,5.58,5.58,0,0,1,9.14,6.27,5.59,5.59,0,0,1-6.27,9.15A5.61,5.61,0,0,1,237.28,117.16Zm4.24-14.78a4.14,4.14,0,0,0-4.68,6.83l.6.41-.41.59a4.14,4.14,0,1,0,6.82,4.69l.41-.6.6.41a4.14,4.14,0,1,0,4.68-6.82l-.59-.41.41-.6a4.14,4.14,0,0,0-6.83-4.69l-.41.6Z"/><path class="cls-6" d="M236.5,118.3a6.28,6.28,0,0,1-2-8.14,6.28,6.28,0,0,1,7.06-10.29,6.28,6.28,0,0,1,10.29,7.06,6.28,6.28,0,0,1-7.06,10.29A6.28,6.28,0,0,1,236.5,118.3Zm4.85-16.88a4.83,4.83,0,0,0-5.47,8l.6.41-.41.59a4.83,4.83,0,1,0,8,5.47l.41-.6.6.41a4.83,4.83,0,1,0,5.46-8l-.59-.41.41-.6a4.83,4.83,0,0,0-8-5.46l-.41.59Z"/><rect class="cls-1" x="208.78" y="113" width="2.46" height="21.2" rx="1.03"/><rect class="cls-1" x="208.93" y="31.58" width="2.46" height="21.2" rx="1.03"/><rect class="cls-1" x="189.88" y="36.19" width="2.46" height="21.2" rx="1.03" transform="matrix(0.87, -0.5, 0.5, 0.87, 2.21, 101.82)"/><path class="cls-7" d="M181.59,76.23a5.28,5.28,0,0,1-2.51.92c-1.67.1-2.11-1.48-5.34-3.52-5.78-3.64-9.82-2-11.56-5.16-1.07-1.94-.45-4.17-.1-5.44a10.93,10.93,0,0,1,3.17-5.1A6.83,6.83,0,0,1,168,56.41c1.45-.38,2.41,0,14.15,7.64,1.94,1.27,2.92,1.93,3.38,3.22C186.62,70.22,184.37,74.39,181.59,76.23Z"/><path class="cls-1" d="M181.59,76.23h0c3.69-3.9,2.61-6.39,1.53-8.54s-5.37,0-8.82-3.84-9.05-5.91-9.05-5.91A6.83,6.83,0,0,1,168,56.41c1.45-.38,2.41,0,14.15,7.64,1.94,1.27,2.92,1.93,3.38,3.22C186.62,70.22,184.37,74.39,181.59,76.23Z"/><path class="cls-1" d="M162.15,63c.29.42.6.83.93,1.22a9.82,9.82,0,0,0,1,1.09,6.29,6.29,0,0,0,1.21.85,2.87,2.87,0,0,0,.66.27,5.77,5.77,0,0,0,.72.16c1,.17,2,.19,3.07.34a7.51,7.51,0,0,1,1.57.39,4.06,4.06,0,0,1,1.41.89l.14.15.14.16.06.07,0,.07.12.12a4.3,4.3,0,0,0,.57.44,11.94,11.94,0,0,0,1.3.76c.45.22.92.43,1.39.63s1,.38,1.43.56c1,.36,1.94.68,2.93,1l.75.19.75.17c.5.11,1,.21,1.52.28l-.52,1.67c-1.9-.93-3.81-1.71-5.72-2.54-.48-.2-1-.42-1.42-.64s-.95-.45-1.41-.69a14.89,14.89,0,0,1-1.37-.81,4.34,4.34,0,0,1-.64-.51l-.15-.16-.08-.08-.06-.08-.11-.14-.12-.13a3.47,3.47,0,0,0-1.19-.74,6.79,6.79,0,0,0-1.43-.35c-1-.15-2-.18-3.08-.38a5.38,5.38,0,0,1-.79-.2,4.64,4.64,0,0,1-.75-.34,6.24,6.24,0,0,1-1.26-1,10.1,10.1,0,0,1-1.8-2.57Z"/><path class="cls-7" d="M231.28,104.64a5.17,5.17,0,0,1,2.64.39c1.51.72,1.14,2.31,3,5.64,3.33,6,7.66,6.46,7.68,10.08,0,2.22-1.61,3.88-2.53,4.82a10.92,10.92,0,0,1-5.23,3,6.88,6.88,0,0,1-3.16,0c-1.46-.37-2.13-1.12-8.76-13.5-1.09-2-1.63-3.09-1.42-4.44C224,107.5,228,104.91,231.28,104.64Z"/><path class="cls-1" d="M231.28,104.64h0c-5.11,1.65-5.35,4.36-5.44,6.76s4.72,2.58,5.9,7.6,5.1,9.53,5.1,9.53a6.88,6.88,0,0,1-3.16,0c-1.46-.37-2.13-1.12-8.76-13.5-1.09-2-1.63-3.09-1.42-4.44C224,107.5,228,104.91,231.28,104.64Z"/><path class="cls-1" d="M242,125.57a12.94,12.94,0,0,0-.22-1.52,9,9,0,0,0-.41-1.46,6.27,6.27,0,0,0-.64-1.33,4.15,4.15,0,0,0-.46-.56c-.17-.16-.36-.33-.55-.48-.79-.62-1.69-1.13-2.53-1.77a7.62,7.62,0,0,1-1.19-1.09,3.87,3.87,0,0,1-.81-1.46l-.06-.2,0-.21,0-.09a.22.22,0,0,0,0-.08s0-.11,0-.16a4.77,4.77,0,0,0-.28-.67,14.11,14.11,0,0,0-.78-1.28c-.29-.42-.6-.83-.92-1.23s-.65-.79-1-1.17c-.67-.78-1.38-1.52-2.12-2.24l-.56-.53-.58-.51c-.39-.33-.79-.67-1.2-1l1.25-1.22c1.22,1.73,2.52,3.33,3.81,5,.32.41.63.83.94,1.25s.61.84.9,1.28a13.18,13.18,0,0,1,.81,1.36,5.92,5.92,0,0,1,.32.77q0,.09.06.21s0,.07,0,.11l0,.09,0,.18.05.17a3.43,3.43,0,0,0,.68,1.22,6.86,6.86,0,0,0,1.09,1c.8.61,1.7,1.14,2.52,1.82a5.12,5.12,0,0,1,.59.55,4,4,0,0,1,.5.66,6.4,6.4,0,0,1,.63,1.48,10.32,10.32,0,0,1,.35,3.12Z"/><path class="cls-7" d="M249.85,52.53a4.23,4.23,0,0,0-1.28-2c-1.13-.92-2.29.08-5.69,0-6.07-.11-8-3.39-11-1.84-1.82.94-2.58,3-3,4.12a10.38,10.38,0,0,0-.53,5.5,5.93,5.93,0,0,0,1.15,2.55c.82,1,1.69,1.24,14.18,1.25,2.06,0,3.11,0,4.14-.77C250.16,59.66,250.83,55.33,249.85,52.53Z"/><path class="cls-1" d="M249.85,52.53h0c.5,4.84-1.62,6.2-3.55,7.31s-3.81-2.7-8.33-1.48a22.57,22.57,0,0,1-9.63,0,5.93,5.93,0,0,0,1.15,2.55c.82,1,1.69,1.24,14.18,1.25,2.06,0,3.11,0,4.14-.77C250.16,59.66,250.83,55.33,249.85,52.53Z"/><path class="cls-1" d="M228.84,52.79a9.29,9.29,0,0,1,2.56-1.06,5.63,5.63,0,0,1,1.42-.16,3.74,3.74,0,0,1,.74.09,5.1,5.1,0,0,1,.69.24c.88.36,1.64.87,2.44,1.26a5.61,5.61,0,0,0,1.21.47,3,3,0,0,0,1.22,0l.3-.07.17-.06.19,0a3.08,3.08,0,0,1,.73-.08,11,11,0,0,1,1.41.05c.47,0,.92.1,1.38.17l1.37.22c1.81.33,3.6.68,5.48.9l-.51,1.68c-.4-.21-.82-.4-1.24-.57s-.85-.34-1.28-.49a26.79,26.79,0,0,0-2.61-.76,24.41,24.41,0,0,0-2.66-.5,9.82,9.82,0,0,0-1.32-.07,3,3,0,0,0-.62.06l-.15,0-.15,0a2.22,2.22,0,0,1-.37.09,3.56,3.56,0,0,1-1.49,0,6.61,6.61,0,0,1-1.35-.51c-.84-.42-1.59-.94-2.39-1.3a4.92,4.92,0,0,0-.6-.23,3,3,0,0,0-.62-.1,5.21,5.21,0,0,0-1.3.07,8.43,8.43,0,0,0-1.3.3,10.72,10.72,0,0,0-1.28.44Z"/><path class="cls-7" d="M259,63.7a5,5,0,0,0-1.47-2.26c-1.31-1.06-2.65.09-6.56,0-7-.12-9.27-3.91-12.68-2.13-2.09,1.1-3,3.43-3.48,4.76a12.05,12.05,0,0,0-.61,6.34,6.78,6.78,0,0,0,1.33,3c1,1.17,1.94,1.42,16.34,1.43,2.38,0,3.59,0,4.77-.89C259.36,71.92,260.14,66.93,259,63.7Z"/><path class="cls-1" d="M259,63.7h0c.58,5.58-1.87,7.15-4.09,8.43s-4.39-3.11-9.61-1.71a25.94,25.94,0,0,1-11.1,0,6.78,6.78,0,0,0,1.33,3c1,1.17,1.94,1.42,16.34,1.43,2.38,0,3.59,0,4.77-.89C259.36,71.92,260.14,66.93,259,63.7Z"/><path class="cls-1" d="M234.79,64a11.09,11.09,0,0,1,3-1.2,6.27,6.27,0,0,1,1.63-.18,4,4,0,0,1,.83.11A5.63,5.63,0,0,1,241,63c1,.42,1.89,1,2.81,1.47a6.9,6.9,0,0,0,1.41.53,3.29,3.29,0,0,0,1.43,0A2.14,2.14,0,0,0,247,65l.2-.06.21-.05a5.05,5.05,0,0,1,.84-.1,14.42,14.42,0,0,1,1.62.07c.54.05,1.06.12,1.59.2l1.57.26c2.09.38,4.15.81,6.3,1.11l-.52,1.68c-.46-.24-.95-.44-1.44-.64l-.73-.28-.75-.26c-1-.33-2-.62-3-.85a30.07,30.07,0,0,0-3.07-.57,13.36,13.36,0,0,0-1.54-.08,4.18,4.18,0,0,0-.72.08l-.17,0-.18.06-.42.11a4.05,4.05,0,0,1-1.7-.05,7.1,7.1,0,0,1-1.54-.58c-1-.48-1.84-1.08-2.76-1.5a6.61,6.61,0,0,0-.7-.26,4.33,4.33,0,0,0-.72-.12,5.9,5.9,0,0,0-1.51.09,11,11,0,0,0-1.51.35,15.13,15.13,0,0,0-1.47.53Z"/><path class="cls-8" d="M237.74,50.34a12.42,12.42,0,0,1-1,2.19,11.49,11.49,0,0,1-1.41,1.91,12,12,0,0,1-3.76,2.78,12.75,12.75,0,0,1-9,.7,12.09,12.09,0,0,1-7.08-5.58A12,12,0,0,1,214,47.92a12.25,12.25,0,0,1,2.36-9.11A12.39,12.39,0,0,1,227.27,34a13.06,13.06,0,0,1,2.48.46,12.1,12.1,0,0,1,4.43,2.4,12.63,12.63,0,0,1,3.56,13.53Zm-1.92-.58a10.41,10.41,0,0,0,.3-2,9.36,9.36,0,0,0-.1-2,10,10,0,0,0-1.34-3.66,10.75,10.75,0,0,0-5.88-4.61,10.11,10.11,0,0,0-3.75-.46,10.24,10.24,0,0,0-9.51,10.71,10.38,10.38,0,0,0,5.31,8.56,10.66,10.66,0,0,0,2,.85,10.07,10.07,0,0,0,4.22.41,10.47,10.47,0,0,0,2.08-.48,10.11,10.11,0,0,0,1.91-.9,10.72,10.72,0,0,0,3-2.79,10.49,10.49,0,0,0,1.05-1.76A10.09,10.09,0,0,0,235.82,49.76Z"/><path class="cls-1" d="M226.13,58.3a12.11,12.11,0,0,1-3.57-.55,10.37,10.37,0,0,1-6.48-5.15,11,11,0,0,1-.48-8.34,9.81,9.81,0,0,1,13.09-7,11.3,11.3,0,0,1,6.73,5,10.18,10.18,0,0,1,.71,8.23l-.29-.09.29.09a11,11,0,0,1-5.19,6.61A10.23,10.23,0,0,1,226.13,58.3Zm-1.12-21a8.86,8.86,0,0,0-4.17,1,9.94,9.94,0,0,0-4.65,6.13,10.4,10.4,0,0,0,.44,7.88,9.75,9.75,0,0,0,6.11,4.85,9.8,9.8,0,0,0,12.8-6.82h0a9.58,9.58,0,0,0-.65-7.74,10.73,10.73,0,0,0-6.38-4.75A12,12,0,0,0,225,37.31Z"/><path class="cls-7" d="M190.4,129.58c-4,1.61-11.54-3.12-11.72-8.09-.05-1.43.64-2.74,2.06-4.42.58-.68,1.26-1.41,2.07-2.25.52-.53,1.08-1.11,1.7-1.73,0,0,0,0,.05,0,2.21-2.25,3.68-3.74,5.14-4.56a5.79,5.79,0,0,1,2.26-.74c3.52-.38,7.51,1.89,8.4,4.52a2.84,2.84,0,0,1,.16.7c.19,1.59-.93,2.37-2.92,4.94-.34.43-.7.92-1.09,1.48a31.35,31.35,0,0,0-2.34,3.87c-.63,1.24-1,2.28-1.38,3.13C192.12,128.06,191.7,129.06,190.4,129.58Z"/><path class="cls-1" d="M190.4,129.58c-4,1.61-11.54-3.12-11.72-8.09-.05-1.43.64-2.74,2.06-4.42,1.85,2.18,1.86,6.11,5.29,7.69a26.94,26.94,0,0,0,3.18.85c1.59.39,2.74.6,3.58.77C192.12,128.06,191.7,129.06,190.4,129.58Z"/><path class="cls-1" d="M197.4,118.13a4.52,4.52,0,0,0-3.23-1.41,15,15,0,0,1-9.87-3.41l.42-.45a14.46,14.46,0,0,0,9.4,3.25,5.11,5.11,0,0,1,3.69,1.56Z"/><path class="cls-1" d="M200.26,112.55a6.42,6.42,0,0,0-2.46-.24,8.38,8.38,0,0,1-2.36-.17c-1.08-.28-3.07-1.42-5.91-3.41l.35-.5c2.74,1.91,4.71,3.06,5.72,3.31a7.68,7.68,0,0,0,2.19.15,7.2,7.2,0,0,1,2.68.28Z"/><path class="cls-1" d="M193.93,123.45c-1.11-1.35-3.2-2.53-6.22-3.52-.85-.28-2.58-1.93-5.13-4.91l.46-.4c3.25,3.79,4.44,4.59,4.86,4.73,3.13,1,5.32,2.27,6.5,3.71Z"/><path class="cls-7" d="M259.71,96.89c4-1.54,6.34-10.14,3.09-13.9-.94-1.09-2.33-1.57-4.52-1.84-.88-.11-1.89-.18-3-.24l-2.43-.12h-.07c-3.15-.14-5.24-.24-6.87.16a5.73,5.73,0,0,0-2.15,1c-2.85,2.1-4.23,6.49-3.1,9a3.46,3.46,0,0,0,.36.62c.94,1.3,2.3,1.11,5.5,1.64.55.09,1.15.2,1.81.34a32.13,32.13,0,0,1,4.35,1.25,34.09,34.09,0,0,1,3.14,1.36C257.41,96.94,258.4,97.39,259.71,96.89Z"/><path class="cls-1" d="M259.71,96.89c4-1.54,6.34-10.14,3.09-13.9-.94-1.09-2.33-1.57-4.52-1.84.13,2.85,2.79,5.75,1.35,9.23a26.74,26.74,0,0,1-1.75,2.79c-.91,1.36-1.6,2.3-2.1,3C257.41,96.94,258.4,97.39,259.71,96.89Z"/><path class="cls-1" d="M246.78,93.25l-.61-.06a5.07,5.07,0,0,1,1.65-3.65,14.47,14.47,0,0,0,4.68-8.78l.62.06A14.94,14.94,0,0,1,248.2,90,4.54,4.54,0,0,0,246.78,93.25Z"/><path class="cls-1" d="M240.9,91.11l-.55-.29a7.06,7.06,0,0,1,1.78-2,7.62,7.62,0,0,0,1.5-1.6,24.15,24.15,0,0,0,1.94-6.31l.6.13c-.73,3.38-1.41,5.58-2,6.52a8.36,8.36,0,0,1-1.62,1.72A6.47,6.47,0,0,0,240.9,91.11Z"/><path class="cls-1" d="M252.33,94.83c-.1-1.86.65-4.26,2.25-7.14.21-.39.55-1.78.35-6.77l.61,0c.16,3.92,0,6.31-.42,7.1-1.54,2.77-2.27,5.06-2.17,6.8Z"/><path class="cls-7" d="M172,114.24c-4.3.07-9.65-7-8-11.75.47-1.36,1.58-2.33,3.51-3.39.78-.43,1.69-.87,2.74-1.36l2.21-1,.06,0c2.87-1.3,4.77-2.17,6.44-2.41a5.91,5.91,0,0,1,2.37.12c3.42.9,6.34,4.46,6.22,7.23a3.29,3.29,0,0,1-.1.71c-.39,1.56-1.72,1.89-4.49,3.57-.48.28-1,.61-1.56,1a31.17,31.17,0,0,0-3.57,2.77c-1,.94-1.78,1.75-2.41,2.43C174.16,113.44,173.42,114.22,172,114.24Z"/><path class="cls-1" d="M172,114.24c-4.3.07-9.65-7-8-11.75.47-1.36,1.58-2.33,3.51-3.39.94,2.69-.45,6.37,2.18,9.07a27.1,27.1,0,0,0,2.66,1.94c1.35.93,2.35,1.54,3.07,2C174.16,113.44,173.42,114.22,172,114.24Z"/><path class="cls-1" d="M182.65,106.06a4.47,4.47,0,0,0-2.5-2.47,15,15,0,0,1-8-6.72l.55-.28a14.45,14.45,0,0,0,7.61,6.41,5,5,0,0,1,2.89,2.77Z"/><path class="cls-1" d="M187.32,101.88a6.43,6.43,0,0,0-2.2-1.11,8.27,8.27,0,0,1-2.14-1c-.92-.65-2.37-2.44-4.31-5.31l.51-.34a23.92,23.92,0,0,0,4.15,5.14,7.67,7.67,0,0,0,2,.93,7,7,0,0,1,2.4,1.22Z"/><path class="cls-1" d="M177.51,109.78c-.56-1.65-2.09-3.51-4.55-5.51-.7-.57-1.72-2.73-3-6.43l.58-.2c1.67,4.7,2.5,5.87,2.84,6.15,2.55,2.08,4.15,4,4.74,5.8Z"/><path class="cls-5" d="M170.61,88.8a5.59,5.59,0,0,1-6.12-4.17,5.59,5.59,0,0,1-1.39-11,5.59,5.59,0,0,1,11-1.39,5.59,5.59,0,0,1,1.39,11A5.58,5.58,0,0,1,170.61,88.8ZM164,74.94a4.14,4.14,0,0,0,1,8.21l.72-.09.09.72a4.14,4.14,0,0,0,8.21-1l-.09-.72.72-.09a4.14,4.14,0,1,0-1-8.21l-.72.09-.09-.72a4.14,4.14,0,1,0-8.21,1l.09.72Z"/><path class="cls-6" d="M170.78,90.17a6.28,6.28,0,0,1-6.89-4.76A6.28,6.28,0,0,1,162.32,73a6.28,6.28,0,0,1,12.38-1.57,6.28,6.28,0,0,1,1.57,12.38A6.3,6.3,0,0,1,170.78,90.17Zm-7.6-15.83a4.83,4.83,0,0,0,1.21,9.58l.72-.09.09.72a4.83,4.83,0,0,0,9.58-1.21l-.09-.72.72-.09A4.83,4.83,0,0,0,174.2,73l-.72.09-.09-.72a4.83,4.83,0,0,0-9.58,1.21l.09.72Z"/><rect class="cls-9" width="300" height="165"/></svg>