<svg xmlns="http://www.w3.org/2000/svg" xmlns:xlink="http://www.w3.org/1999/xlink" viewBox="0 0 300 165.5"><defs><style>.cls-1{isolation:isolate;}.cls-2{fill:#fce5cd;}.cls-3{fill:#838483;}.cls-4{opacity:0.53;}.cls-10,.cls-4{mix-blend-mode:multiply;}.cls-5{fill:#823b17;}.cls-6{fill:#9b4e23;}.cls-7{fill:#8daf66;}.cls-8{fill:#c1272d;}.cls-9{fill:#c46627;}.cls-10{opacity:0.38;}.cls-11{opacity:0.74;mix-blend-mode:soft-light;}.cls-12{fill:#fff;}.cls-13{fill:#ffa81d;}.cls-14{fill:#2e4f15;}.cls-15{fill:#ffe8d9;}.cls-16{fill:url(#linear-gradient);}</style><linearGradient id="linear-gradient" x1="150.37" y1="168.12" x2="149.66" y2="1.67" gradientUnits="userSpaceOnUse"><stop offset="0.03" stop-color="#591c16"/><stop offset="0.22" stop-color="#5f241d" stop-opacity="0.96"/><stop offset="0.38" stop-color="#733c33" stop-opacity="0.84"/><stop offset="0.53" stop-color="#936459" stop-opacity="0.64"/><stop offset="0.68" stop-color="#c09d8d" stop-opacity="0.36"/><stop offset="0.82" stop-color="#fae5cf" stop-opacity="0"/></linearGradient></defs><g class="cls-1"><g id="Layer_1" data-name="Layer 1"><rect class="cls-2" y="-0.25" width="300" height="165"/><path class="cls-3" d="M256.81,27l-7.9,5-4.41,2.79a.75.75,0,0,1-.6.1l-.61-.14a.76.76,0,0,1-.25-1.4L256,25.7a.83.83,0,0,1,.58-.09l.12,0a.77.77,0,0,1,.15,1.36Z"/><g class="cls-4"><path d="M256.81,27l-7.9,5-.61-.16,8.81-5.75A.75.75,0,0,1,256.81,27Z"/></g><path class="cls-5" d="M251.51,48.79a13.27,13.27,0,0,1-3,4.09,13.59,13.59,0,0,1-3.31,2.26,16.13,16.13,0,0,1-10.87.93,20.53,20.53,0,0,1-9.77-5.71c-4.69-4.84-6.48-11.19-5.26-16.6a13.47,13.47,0,0,1,1.75-4.28,12.57,12.57,0,0,1,2.22-2.69c4.46-4.15,11.19-4.77,17.21-2.17a20.92,20.92,0,0,1,6.74,4.68C252.79,35,254.28,42.89,251.51,48.79Z"/><g class="cls-4"><path class="cls-6" d="M245.22,55.14a16.13,16.13,0,0,1-10.87.93l-15-22.31a13.47,13.47,0,0,1,1.75-4.28c3-.14,10.69-1,19,7C246.72,42.86,246.41,50.37,245.22,55.14Z"/></g><path class="cls-7" d="M241.9,56a13.14,13.14,0,0,1-2.76,3.62,13.55,13.55,0,0,1-3,2.14A15.4,15.4,0,0,1,228,63.3a20.06,20.06,0,0,1-12.82-6.19c-7-7.21-7.55-17.76-1.29-23.58l.35-.31a13.74,13.74,0,0,1,3.86-2.35,17.18,17.18,0,0,1,13.39.67h0a20.85,20.85,0,0,1,6.34,4.51C243.55,41.93,245,50.05,241.9,56Z"/><g class="cls-4"><path class="cls-6" d="M236.09,61.76A15.4,15.4,0,0,1,228,63.3L214.25,33.22a13.74,13.74,0,0,1,3.86-2.35c2.87.35,10,2.13,16.68,11C240.71,49.78,238.2,57.66,236.09,61.76Z"/></g><path class="cls-8" d="M233.84,61a9.83,9.83,0,0,1-2.56,1.72c-.33.16-.68.3-1,.43a14.63,14.63,0,0,1-8.95-.05l-.85-.27A23.35,23.35,0,0,1,211.5,57c-5.78-6-7.66-13.77-5.08-19.11.08-.16.15-.32.24-.47a9.86,9.86,0,0,1,1.83-2.4l.1-.1h0c3.87-3.6,10.14-3.67,16-.75a24.12,24.12,0,0,1,6.4,4.75c4,4.18,6.17,9.26,6.21,13.76A11,11,0,0,1,233.84,61Z"/><g class="cls-4"><path class="cls-6" d="M230.33,63.09l-.08,0a14.63,14.63,0,0,1-8.95-.05l-1-.34a65.43,65.43,0,0,1-5.4-6c-.14-.24-5.71-12.72-8.46-18.88.08-.16.15-.32.24-.47a9.86,9.86,0,0,1,1.83-2.4l.1-.1a28.86,28.86,0,0,1,17.5,10.36A20.35,20.35,0,0,1,230.33,63.09Z"/></g><path class="cls-6" d="M224.76,67.55c-6.25,5.81-17.4,4.25-24.88-3.49s-8.49-18.73-2.23-24.54c4.19-3.89,10.57-4.48,16.57-2.12a23.75,23.75,0,0,1,8.32,5.6c5.44,5.63,7.45,13,5.75,18.79A12.64,12.64,0,0,1,224.76,67.55Z"/><path class="cls-9" d="M219.08,72.07a9.41,9.41,0,0,1-2.74,1.75,13.87,13.87,0,0,1-9.18.11,63.92,63.92,0,0,1-6.85-7.06c-.16-.25-6.78-14.34-9.33-19.76a9.07,9.07,0,0,1,1.46-2l.3-.3c3.09-2.86,7.89-3.27,12.81-1.57a25.52,25.52,0,0,1,9.8,6.41c4.06,4.21,6.38,9.19,6.72,13.61A10.51,10.51,0,0,1,219.08,72.07Z"/><g class="cls-4"><path class="cls-6" d="M216.34,73.82a13.87,13.87,0,0,1-9.18.11,63.92,63.92,0,0,1-6.85-7.06c-.16-.25-6.78-14.34-9.33-19.76a9.07,9.07,0,0,1,1.46-2A28.05,28.05,0,0,1,211.08,55C216.58,61.68,217.26,69.43,216.34,73.82Z"/></g><path class="cls-7" d="M209.78,78.14a12.22,12.22,0,0,1-3.39,2.23,15.17,15.17,0,0,1-7.69,1.12,60.07,60.07,0,0,1-8.3-8.24c-.2-.32-10.31-21.86-10.31-21.86a11.39,11.39,0,0,1,1.78-2.09c3.72-3.46,9.23-4.24,14.71-2.64a24.49,24.49,0,0,1,10.58,6.53c5.42,5.6,7.61,12.78,6.26,18.58A12.45,12.45,0,0,1,209.78,78.14Z"/><g class="cls-4"><path class="cls-6" d="M206.39,80.37a15.17,15.17,0,0,1-7.69,1.12,60.07,60.07,0,0,1-8.3-8.24c-.2-.32-10.31-21.86-10.31-21.86a28.13,28.13,0,0,1,21.08,10C206.74,68.15,207.36,76,206.39,80.37Z"/></g><path class="cls-5" d="M199.77,85.93a13.69,13.69,0,0,1-5.85,3.18c-6.65,1.75-15-.87-21.24-7.28-7.83-8.09-9.33-19.3-3.68-25.76a12.27,12.27,0,0,1,.94-1c4.66-4.34,11.92-4.79,18.69-1.82A26.91,26.91,0,0,1,197,59.19c6.1,6.31,8.35,14.5,6.38,20.87A13.2,13.2,0,0,1,199.77,85.93Z"/><g class="cls-4"><path class="cls-6" d="M193.92,89.11c-6.65,1.75-15-.87-21.24-7.28-7.83-8.09-9.33-19.3-3.68-25.76,0,0-10.6,22.07,24.91,33Z"/></g><path class="cls-3" d="M180.5,74.88l-26.76,15.8h0l-.34.2a.94.94,0,0,1-1.21-.22l-.61-.74a1,1,0,0,1,.28-1.58l.38-.21,27.2-15.39a1,1,0,0,1,1.19.19l.12.13a1.2,1.2,0,0,1,.32.78A1.13,1.13,0,0,1,180.5,74.88Z"/><g class="cls-10"><path d="M180.5,74.88l-26.76,15.8h0l-.34.2a.94.94,0,0,1-1.21-.22l-.61-.74a1,1,0,0,1,.28-1.58l.38-.21a5.32,5.32,0,0,0,.12,1.49.65.65,0,0,0,.95.39l27.76-16.18h0A1.13,1.13,0,0,1,180.5,74.88Z"/></g><g class="cls-4"><polygon points="153.74 90.68 153.4 90.88 153.74 90.68 153.74 90.68"/></g><g class="cls-11"><path class="cls-12" d="M203.42,80.06h0c-.24-16.55-14.79-26.77-14.79-26.77h0A26.91,26.91,0,0,1,197,59.19C203.14,65.5,205.39,73.69,203.42,80.06Z"/></g><g class="cls-11"><path class="cls-12" d="M213.42,71.77c-3.81-19.7-16.27-24.88-16.84-25.11a24.49,24.49,0,0,1,10.58,6.53C212.58,58.79,214.77,66,213.42,71.77Z"/></g><g class="cls-11"><path class="cls-12" d="M222.07,63.29h0a34,34,0,0,0-16.52-20,25.52,25.52,0,0,1,9.8,6.41C219.41,53.89,221.73,58.87,222.07,63.29Z"/></g><g class="cls-11"><path class="cls-12" d="M228.29,61.79h0C226.38,46,214.22,37.4,214.22,37.4a23.75,23.75,0,0,1,8.32,5.6C228,48.63,230,56,228.29,61.79Z"/></g><g class="cls-11"><path class="cls-12" d="M237.16,52.65c-3.32-10.93-12.61-18.51-12.61-18.51h0a24.12,24.12,0,0,1,6.4,4.75C235,43.07,237.12,48.15,237.16,52.65Z"/></g><g class="cls-11"><path class="cls-12" d="M241.9,56l0,0a25.58,25.58,0,0,0-10.36-24.5,20.85,20.85,0,0,1,6.34,4.51C243.55,41.93,245,50.05,241.9,56Z"/></g><g class="cls-11"><path class="cls-12" d="M251.51,48.79c1.83-14.33-10.28-23.62-11-24.17a20.92,20.92,0,0,1,6.74,4.68,22.28,22.28,0,0,1,1.69,2C253.06,36.75,254,43.54,251.51,48.79Z"/></g><path class="cls-3" d="M269.37,39.61l-6.26,8.58L259.62,53a.94.94,0,0,1-.6.36l-.7.1a.87.87,0,0,1-.84-1.38l10.45-13.45a.94.94,0,0,1,.58-.34h.14a.87.87,0,0,1,.67.31A.85.85,0,0,1,269.37,39.61Z"/><g class="cls-4"><path d="M269.37,39.61l-6.26,8.58-.71.08,6.92-9.72A.85.85,0,0,1,269.37,39.61Z"/></g><path class="cls-5" d="M272.8,64.79a15.1,15.1,0,0,1-4,9.31,18.17,18.17,0,0,1-11.09,5.48,23.17,23.17,0,0,1-12.67-2c-6.95-3.16-11.48-9.12-12.43-15.34a15.62,15.62,0,0,1,.07-5.24,15.33,15.33,0,0,1,1.23-3.76c3-6.22,9.84-9.66,17.27-9.42A23.84,23.84,0,0,1,260.22,46C268.45,49.75,273.28,57.42,272.8,64.79Z"/><g class="cls-4"><path class="cls-6" d="M268.79,74.1a18.17,18.17,0,0,1-11.09,5.48L232.6,62.27a15.62,15.62,0,0,1,.07-5.24c3.13-1.39,10.89-5.45,23-.49C265.28,60.52,268.07,68.57,268.79,74.1Z"/></g><path class="cls-8" d="M265.64,76.39a14.82,14.82,0,0,1-1.4,5,15.31,15.31,0,0,1-2.33,3.51,17.3,17.3,0,0,1-7.89,5,22.76,22.76,0,0,1-16.1-1.22C227.58,83.91,222.6,73,226.79,64.28l.24-.48a15.55,15.55,0,0,1,3.11-4.07,19.41,19.41,0,0,1,14.4-4.85h0A23.9,23.9,0,0,1,253.11,57C261.56,60.86,266.43,68.84,265.64,76.39Z"/><g class="cls-4"><path class="cls-6" d="M261.91,84.86a17.3,17.3,0,0,1-7.89,5l-27-26a15.55,15.55,0,0,1,3.11-4.07c3.17-.82,11.47-1.92,22.15,4.69C261.81,70.32,262.43,79.67,261.91,84.86Z"/></g><path class="cls-13" d="M259.21,85a11.3,11.3,0,0,1-2,2.88,10.65,10.65,0,0,1-.91.87,16.55,16.55,0,0,1-9.46,3.66l-1,.07A26.36,26.36,0,0,1,234,90c-8.57-3.91-13.79-11.37-13.28-18.07a5.9,5.9,0,0,1,.06-.59,11,11,0,0,1,.94-3.29,1,1,0,0,1,.07-.15h0c2.59-5.39,9.18-8.07,16.52-7.39A27.22,27.22,0,0,1,247,62.87c6,2.73,10.35,7.21,12.26,11.94A12.5,12.5,0,0,1,259.21,85Z"/><g class="cls-4"><path class="cls-6" d="M256.38,88.66l-.07.07a16.55,16.55,0,0,1-9.46,3.66l-1.22.07a73.43,73.43,0,0,1-8.18-4.1c-.26-.19-11.31-11-16.76-16.42a5.9,5.9,0,0,1,.06-.59,11,11,0,0,1,.94-3.29,1,1,0,0,1,.07-.15,32.73,32.73,0,0,1,22.75,3.68C252.14,76,255.18,82,256.38,88.66Z"/></g><path class="cls-6" d="M252.35,95.67c-4.19,8.73-16.6,11.7-27.7,6.64s-16.72-16.25-12.53-25c2.81-5.84,9.3-9.1,16.61-9.1a26.92,26.92,0,0,1,11.1,2.46c8.07,3.68,13.24,10.59,13.85,17.44A14.3,14.3,0,0,1,252.35,95.67Z"/><path class="cls-14" d="M248.23,102.8a10.43,10.43,0,0,1-2.17,3,15.66,15.66,0,0,1-9.65,3.93,72.16,72.16,0,0,1-10.14-4.61c-.28-.2-13.1-12.33-18-17a10.42,10.42,0,0,1,.72-2.68l.2-.44c2.07-4.3,7-6.73,12.87-7a29,29,0,0,1,13,2.71c6,2.75,10.54,7,12.73,11.58C249.48,95.87,249.77,99.59,248.23,102.8Z"/><g class="cls-4"><path class="cls-6" d="M246.06,105.77a15.66,15.66,0,0,1-9.65,3.93,72.16,72.16,0,0,1-10.14-4.61c-.28-.2-13.1-12.33-18-17a10.42,10.42,0,0,1,.72-2.68,31.82,31.82,0,0,1,23.77,2.7C241.28,92.87,245.21,100.77,246.06,105.77Z"/></g><path class="cls-8" d="M240.93,113.06a13.67,13.67,0,0,1-2.65,3.76,17.23,17.23,0,0,1-7.66,4.37,68.43,68.43,0,0,1-12.17-5.26c-.34-.26-19.94-18.8-19.94-18.8a13.32,13.32,0,0,1,1-2.94c2.49-5.19,8-8.3,14.42-8.88a27.58,27.58,0,0,1,13.87,2.51c8,3.66,13.33,10.33,14.3,17A14,14,0,0,1,240.93,113.06Z"/><g class="cls-4"><path class="cls-6" d="M238.28,116.82a17.23,17.23,0,0,1-7.66,4.37,68.43,68.43,0,0,1-12.17-5.26c-.34-.26-19.94-18.8-19.94-18.8A31.89,31.89,0,0,1,224.9,99C233.59,103.78,237.5,111.83,238.28,116.82Z"/></g><path class="cls-5" d="M233.6,125.43a15.54,15.54,0,0,1-4.86,5.78c-6.29,4.6-16.24,5.31-25.43,1.12-11.61-5.29-17.84-16.5-14.56-25.66.17-.48.37-1,.59-1.42,3.13-6.51,10.6-10,19-9.65a30.14,30.14,0,0,1,11.32,2.75c9.05,4.12,14.82,11.84,15.39,19.37A15.15,15.15,0,0,1,233.6,125.43Z"/><g class="cls-4"><path class="cls-6" d="M228.74,131.21c-6.29,4.6-16.24,5.31-25.43,1.12-11.61-5.29-17.84-16.5-14.56-25.66,0,0-2,27.68,40,24.54Z"/></g><path class="cls-3" d="M208.68,121.76,187,149.51h0l-.27.34a1.08,1.08,0,0,1-1.37.28l-.95-.53a1.19,1.19,0,0,1-.36-1.79l.31-.37,22.32-27.52a1.13,1.13,0,0,1,1.35-.29l.18.09a1.34,1.34,0,0,1,.48,2Z"/><g class="cls-10"><path d="M208.68,121.76,187,149.52h0l-.27.34a1.08,1.08,0,0,1-1.37.28l-.95-.53a1.19,1.19,0,0,1-.36-1.79l.31-.37a6.28,6.28,0,0,0,.75,1.51.73.73,0,0,0,1.16,0l22.59-28.57h0A1.33,1.33,0,0,1,208.68,121.76Z"/></g><g class="cls-4"><polygon points="186.99 149.52 186.72 149.86 186.99 149.52 186.99 149.52"/></g><g class="cls-11"><path class="cls-12" d="M235,117.72h0c-7.11-17.37-26.7-22.12-26.7-22.12h0a30.14,30.14,0,0,1,11.32,2.75C228.68,102.47,234.45,110.19,235,117.72Z"/></g><g class="cls-11"><path class="cls-12" d="M242.12,104.83C230,85.62,214.65,85.31,214,85.31a27.58,27.58,0,0,1,13.87,2.51C235.86,91.48,241.15,98.15,242.12,104.83Z"/></g><g class="cls-11"><path class="cls-12" d="M247.74,92.3h0A38.53,38.53,0,0,0,222,78a29,29,0,0,1,13,2.71C241,83.47,245.55,87.77,247.74,92.3Z"/></g><g class="cls-11"><path class="cls-12" d="M253.68,88.13h0c-8.57-15.91-25-19.91-25-19.91a26.92,26.92,0,0,1,11.1,2.46C247.9,74.37,253.07,81.28,253.68,88.13Z"/></g><g class="cls-11"><path class="cls-12" d="M259.26,74.81c-8-10.15-21-14.3-21-14.3h0A27.22,27.22,0,0,1,247,62.87C253,65.6,257.35,70.08,259.26,74.81Z"/></g><g class="cls-11"><path class="cls-12" d="M265.64,76.39v0a29,29,0,0,0-21.09-21.56A23.9,23.9,0,0,1,253.11,57C261.56,60.86,266.43,68.84,265.64,76.39Z"/></g><g class="cls-11"><path class="cls-12" d="M272.8,64.79c-4-15.87-20.64-20.66-21.63-20.94A23.84,23.84,0,0,1,260.22,46a24.71,24.71,0,0,1,2.6,1.38C269.45,51.44,273.23,58.23,272.8,64.79Z"/></g><circle class="cls-15" cx="215.17" cy="121.06" r="1.53"/><circle class="cls-15" cx="228.15" cy="121.06" r="1.53"/><path class="cls-15" d="M221.82,125.11a2.8,2.8,0,0,1-3-2.49.53.53,0,1,1,1.05-.08c0,.16.18,1.52,2,1.52s2-1.36,2-1.52a.53.53,0,0,1,.57-.48.52.52,0,0,1,.48.56A2.8,2.8,0,0,1,221.82,125.11Z"/><circle class="cls-15" cx="173.12" cy="63.1" r="1.07"/><circle class="cls-15" cx="182.19" cy="63.1" r="1.07"/><path class="cls-15" d="M177.76,65.92a1.93,1.93,0,0,1-2.1-1.73.35.35,0,0,1,.33-.37.35.35,0,0,1,.37.32,1.45,1.45,0,0,0,2.8,0,.36.36,0,0,1,.38-.33.34.34,0,0,1,.32.37A1.93,1.93,0,0,1,177.76,65.92Z"/><rect class="cls-16" y="-0.25" width="300" height="165"/></g></g></svg>