<svg xmlns="http://www.w3.org/2000/svg" xmlns:xlink="http://www.w3.org/1999/xlink" viewBox="0 0 300 165.5"><defs><style>.cls-1{isolation:isolate;}.cls-2{fill:#fce5cd;}.cls-3{fill:#a8a094;}.cls-4{fill:#302b2b;}.cls-5{fill:#eab692;}.cls-6{fill:#f99116;}.cls-7{fill:#598434;}.cls-8{fill:#af6a25;}.cls-9{opacity:0.27;}.cls-11,.cls-13,.cls-14,.cls-16,.cls-17,.cls-19,.cls-9{mix-blend-mode:soft-light;}.cls-10{fill:#a02b18;}.cls-11{opacity:0.52;}.cls-12{fill:#ffe8d9;}.cls-13{opacity:0.71;}.cls-14{opacity:0.49;}.cls-15{fill:#fff;}.cls-16{opacity:0.74;}.cls-18{fill:#ffa81d;}.cls-19{opacity:0.35;}.cls-20{fill:#2e4f15;}.cls-21{fill:url(#linear-gradient);}</style><linearGradient id="linear-gradient" x1="150.37" y1="168.62" x2="149.66" y2="2.17" gradientUnits="userSpaceOnUse"><stop offset="0.03" stop-color="#591c16"/><stop offset="0.22" stop-color="#5f241d" stop-opacity="0.96"/><stop offset="0.38" stop-color="#733c33" stop-opacity="0.84"/><stop offset="0.53" stop-color="#936459" stop-opacity="0.64"/><stop offset="0.68" stop-color="#c09d8d" stop-opacity="0.36"/><stop offset="0.82" stop-color="#fae5cf" stop-opacity="0"/></linearGradient></defs><g class="cls-1"><g id="Layer_1" data-name="Layer 1"><rect class="cls-2" y="0.25" width="300" height="165"/><path class="cls-3" d="M272.55,64.59c1.21,13.89-27.25,17.27-60.86,17.27s-61.14-7.73-61.14-17.27,27.54-17.28,61.14-17.28S271.71,55.08,272.55,64.59Z"/><path class="cls-4" d="M151.78,69.05c-.21-.29-.46-.58-.69-.89a5.2,5.2,0,0,1-.62-1,6.86,6.86,0,0,1-.46-2.34c0-.19,0-.38,0-.58a6,6,0,0,1,0-.61,5.94,5.94,0,0,1,.27-1.18,7.68,7.68,0,0,1,1.13-2.09,14.51,14.51,0,0,1,3.42-3.13,31.57,31.57,0,0,1,4-2.28,59.77,59.77,0,0,1,8.53-3.23c2.91-.88,5.86-1.6,8.83-2.22a160.8,160.8,0,0,1,18-2.57c6-.53,12.09-.78,18.15-.79s12.12.24,18.16.77a154.4,154.4,0,0,1,18,2.61c3,.62,5.94,1.36,8.85,2.26a54.27,54.27,0,0,1,8.55,3.38,26.12,26.12,0,0,1,4,2.46,15.78,15.78,0,0,1,1.78,1.6,9.81,9.81,0,0,1,1.48,2,6.8,6.8,0,0,1,.8,2.45,4.87,4.87,0,0,1,0,.66c0,.22,0,.43,0,.63a11.75,11.75,0,0,1-.17,1.19,12.6,12.6,0,0,1-.64,2.29,8.6,8.6,0,0,1-.54,1.1,4.24,4.24,0,0,1-.82,1l-.67-.61A7,7,0,0,0,271.8,68a21.34,21.34,0,0,0,.37-2.12c0-.36.08-.72.1-1.06a5.23,5.23,0,0,0,0-1,4.93,4.93,0,0,0-.6-1.83,10.42,10.42,0,0,0-2.8-3.07,25,25,0,0,0-3.7-2.32,53,53,0,0,0-8.27-3.3c-2.85-.9-5.76-1.63-8.7-2.26a154.31,154.31,0,0,0-17.82-2.64c-6-.56-12-.83-18-.87s-12.05.16-18.05.64a158.29,158.29,0,0,0-17.88,2.4c-3,.58-5.88,1.26-8.76,2.09a58.18,58.18,0,0,0-8.43,3.08,29.57,29.57,0,0,0-3.9,2.16,14.25,14.25,0,0,0-3.27,2.91,7.16,7.16,0,0,0-1,1.86,6.32,6.32,0,0,0-.25,1,4.73,4.73,0,0,0,0,.53c0,.17,0,.36,0,.54a6.31,6.31,0,0,0,.38,2.1,4.36,4.36,0,0,0,.52.91c.21.29.46.58.68.9Z"/><ellipse class="cls-5" cx="211.73" cy="72.03" rx="53" ry="20.28" transform="translate(-1.21 3.65) rotate(-0.99)"/><polygon class="cls-6" points="203.73 61.82 188.01 86.01 233.81 85.22 219.87 62.16 203.73 61.82"/><polygon class="cls-7" points="197.64 64.81 202.74 66.11 185.77 97.73 154.14 81.09 197.64 64.81"/><path class="cls-8" d="M209.68,50.32S176.55,51,165,61.14L175.26,63l34.59-2.5Z"/><g class="cls-9"><polygon points="193.7 60.85 166.75 59.78 164.98 61.15 193.35 61.69 193.7 60.85"/></g><path class="cls-7" d="M254.73,59.6l-10.22,2.21L209.85,60.5l-.17-10.18s4.76-.06,11.33.39h0c9.85.68,23.73,2.52,31.68,7.45A19.5,19.5,0,0,1,254.73,59.6Z"/><g class="cls-9"><polygon points="225.85 60.15 252.75 58.16 254.56 59.46 226.22 60.98 225.85 60.15"/></g><polygon class="cls-8" points="219.32 62.17 214.27 63.64 232.31 94.66 263.35 76.95 219.32 62.17"/><path class="cls-10" d="M194.28,61.55l-24.74-.94a14.49,14.49,0,0,0-11.86,5.31c-2.42,3-3.89,7.31-1.35,13.06C162,91.93,194.28,61.55,194.28,61.55Z"/><path class="cls-10" d="M265.7,77.1C260.44,90.24,227.16,61,227.16,61l24.7-1.79a15.17,15.17,0,0,1,3.09.1,14.33,14.33,0,0,1,8.95,4.81,11.7,11.7,0,0,1,2.79,5.79h0A13.56,13.56,0,0,1,265.7,77.1Z"/><g class="cls-9"><path d="M231.9,75.19a7.46,7.46,0,0,1-3.65.82,23.71,23.71,0,0,1-5.5-.79l4.76,6.06-2.33,1.12-4.62-8a9.53,9.53,0,0,1-2.79-1.67l-.25-3.55S238,64.11,238.72,66,241.39,70.36,231.9,75.19Z"/></g><rect class="cls-4" x="193.34" y="112.49" width="38.64" height="6.91" rx="2.03"/><g class="cls-9"><path d="M202.51,66.53,200.63,70l-6.92,12.91L192,83l7.12-12.38a42.47,42.47,0,0,1-4.63,1.46c-2.48.58-8.45-.46-10-2.62s13.13-4.62,13.13-4.62l4,1.41Z"/></g><g class="cls-9"><path d="M186,68.1,169.39,79l3-.67a100,100,0,0,0,14-9.94C192.35,63.11,186,68.1,186,68.1Z"/></g><g class="cls-9"><path d="M236.7,67.86l16.92,10.32-3-.57a99.16,99.16,0,0,1-14.38-9.45C230.14,63.09,236.7,67.86,236.7,67.86Z"/></g><path class="cls-4" d="M273.76,64.28a42.9,42.9,0,0,1-.27,4.83,44.06,44.06,0,0,1-3.74,13.46c-.1.22-.2.45-.31.67l0,0c-9.14,19.22-31.7,32.83-57.67,32.83-33.9,0-61.39-23.2-61.39-51.83,0,9.66,27.49,17.48,61.39,17.48,15.65,0,30.07-1.66,41.05-4.41,1.22-.3,2.4-.62,3.53-.95h0l.33-.1,1.8-.55,1.48-.5,1.19-.43c1.37-.5,2.64-1,3.8-1.58l.31-.14c3.33-1.6,5.79-3.35,7.18-5.22A6,6,0,0,0,273.76,64.28Z"/><g class="cls-11"><path d="M193.31,115.09s8.78.87,18.29.87,20.18-1.2,20.18-1.2A71.61,71.61,0,0,1,193.31,115.09Z"/></g><circle class="cls-12" cx="199.4" cy="94.72" r="1.68"/><circle class="cls-12" cx="224.04" cy="94.72" r="1.68"/><path class="cls-12" d="M211.86,98.6a7.78,7.78,0,0,1-4.56-1.41.52.52,0,0,1-.08-.72.51.51,0,0,1,.72-.08,6.86,6.86,0,0,0,3.92,1.19,7.26,7.26,0,0,0,4-1.2.51.51,0,0,1,.62.81A8.12,8.12,0,0,1,211.86,98.6Z"/><g class="cls-13"><path d="M202.51,66.53c1.75.61,3.52,1.22,4.45,1.51-1.2,0-3.65,1-6.33,2Z"/></g><g class="cls-13"><path d="M207,68a1.15,1.15,0,0,1,.57.08C207.79,68.26,207.53,68.21,207,68Z"/></g><g class="cls-14"><path class="cls-15" d="M150.84,66.52s11.08,22.15,94.26,12.8C245.23,79.31,162.4,97.62,150.84,66.52Z"/></g><g class="cls-16"><path class="cls-15" d="M229.24,54.07c-.43.13-.89.48-.84.81s.93.49,2.25,1.06c1.92.83,2.26,1.63,2.92,1.46a1.72,1.72,0,0,0,.66-2.5c-.46-.45-1.06,0-2.77-.4C230.36,54.23,229.9,53.87,229.24,54.07Z"/></g><g class="cls-16"><path class="cls-15" d="M253,60.45c-.53.59.12,2.45,1.25,3.42.91.79,1.59.54,2.35,1.46s.48,1.72,1.15,2.07a2,2,0,0,0,2.31-.79c.62-1.1-.57-2.67-1-3.27C257.21,60.92,253.76,59.62,253,60.45Z"/></g><g class="cls-16"><path class="cls-15" d="M199.65,52.32a23.81,23.81,0,0,1,3.59-.76c1.4-.19,3.27-.43,3.53.17.16.39-.39,1-.61,1.19-1.37,1.42-4.2,2-5.7.64A2.88,2.88,0,0,1,199.65,52.32Z"/></g><g class="cls-16"><path class="cls-15" d="M252.69,58.16l-4.43.33c-.91-3.38-26.84-7.71-27.25-7.78C230.86,51.39,244.74,53.23,252.69,58.16Z"/></g><g class="cls-16"><path class="cls-15" d="M266.69,69.89c-1.17-5.68-9.79-9.74-11.74-10.6a14.33,14.33,0,0,1,8.95,4.81A11.7,11.7,0,0,1,266.69,69.89Z"/></g><path class="cls-12" d="M238.19,68.5a10.34,10.34,0,0,1-2.68,3.12h0a16.38,16.38,0,0,1-2.59,1.73c-6.51,3.44-14.39-.59-18.19-1.55s-4.51-1.82-6.62-2.42h0l-.52-.14h0c-.34-.08-.72-.16-1.15-.23-4-.66-7.57,1.19-11.92,1.87h0a17.81,17.81,0,0,1-4.77.16c-4.41-.45-8.73-3.32-8.55-5.45.08-.87.9-1.62,3-2.48h0a59.41,59.41,0,0,1,6.5-2.1c9.91-2.78,15.35-4.31,20.27-4.58.53,0,1.06,0,1.59,0,10.73,0,25.53,3.69,26.24,9.56A4.37,4.37,0,0,1,238.19,68.5Z"/><g class="cls-16"><path class="cls-15" d="M238.19,68.5c-3.22-9-27.29-12-27.29-12h0c.53,0,1.06,0,1.59,0,10.73,0,25.53,3.69,26.24,9.56A4.37,4.37,0,0,1,238.19,68.5Z"/></g><g class="cls-17"><path d="M200.82,61s-.32,3,7.15,3.63,12.24-1.2,12.31-3.09S200.82,61,200.82,61Z"/></g><path class="cls-18" d="M219.9,62.16a2.09,2.09,0,0,1-1.24.65c-5.43,1-8.95,2.25-16.34-.28a2.24,2.24,0,0,1-1.5-1.53,3.67,3.67,0,0,1,0-2,2.91,2.91,0,0,1,.53-1,5.31,5.31,0,0,1,1.92-1.43c4.52-2.18,13.77-1.87,16.24,1.24C220.4,58.92,220.89,61.06,219.9,62.16Z"/><g class="cls-16"><path class="cls-15" d="M218.66,62.81c1.52-6.63-11.65-6.42-15.43-6.3,4.52-2.18,13.77-1.87,16.24,1.24C220.67,59.25,221.14,62.37,218.66,62.81Z"/></g><g class="cls-19"><path d="M219.9,62.16a2.09,2.09,0,0,1-1.24.65c-5.43,1-8.95,2.25-16.34-.28a2.24,2.24,0,0,1-1.5-1.53,3.67,3.67,0,0,1,0-2s2.35,5.81,19.09,3.21Z"/></g><g class="cls-17"><path d="M235.5,71.63a16.38,16.38,0,0,1-2.59,1.73c-6.51,3.44-14.39-.59-18.19-1.55s-4.51-1.82-6.62-2.42C211.62,70.29,231.07,75.06,235.5,71.63Z"/></g><g class="cls-17"><path d="M194.48,70.89a17.81,17.81,0,0,1-4.77.16c-4.41-.45-8.73-3.32-8.55-5.45.08-.87.9-1.62,3-2.48h0S178.79,68.93,194.48,70.89Z"/></g><g class="cls-17"><path class="cls-15" d="M211.56,56.41c-.43.13-.89.48-.84.81s.94.49,2.26,1.06c1.92.83,2.26,1.63,2.91,1.46a1.72,1.72,0,0,0,.67-2.5c-.46-.45-1.07,0-2.77-.4C212.68,56.57,212.23,56.21,211.56,56.41Z"/></g><polygon class="cls-20" points="213 61.21 216.16 65.02 217.03 64.66 213.71 61.2 213 61.21"/><polygon class="cls-20" points="192.57 62.02 195.59 61.65 195.6 61.96 192.58 62.36 192.57 62.02"/><polygon class="cls-20" points="201.34 63.45 201.6 63.45 201.8 64.43 201.36 64.44 201.34 63.45"/><polygon class="cls-20" points="206.46 58.19 207.89 57.57 207.9 58.16 206.46 58.19"/><polygon class="cls-20" points="225.85 60.15 224.62 62.08 225.25 62.07 226.41 60.11 225.85 60.15"/><polygon class="cls-20" points="226.43 61.43 227.49 62.89 227.16 60.98 226.43 61.43"/><polygon class="cls-20" points="230.12 69.27 232.98 68.32 233.26 68.77 230.13 69.84 230.12 69.27"/><polygon class="cls-20" points="200.44 64.19 200.62 64.45 199.63 65.76 199.33 65.6 200.44 64.19"/><polygon class="cls-20" points="205.89 58.57 206.48 59.63 206.2 59.81 205.55 58.57 205.89 58.57"/><rect class="cls-21" y="0.25" width="300" height="165"/></g></g></svg>