<svg xmlns="http://www.w3.org/2000/svg" xmlns:xlink="http://www.w3.org/1999/xlink" viewBox="0 0 300 165.5"><defs><style>.cls-1{isolation:isolate;}.cls-2{fill:#fce5cd;}.cls-3{fill:#c1272d;}.cls-4{fill:#ffa81d;}.cls-5{fill:#edc094;}.cls-6{fill:#af4622;}.cls-7{fill:#00922b;}.cls-10,.cls-12,.cls-15,.cls-16,.cls-18,.cls-8{mix-blend-mode:soft-light;}.cls-9{fill:#fff;}.cls-10{opacity:0.52;}.cls-11{fill:#f9e4d2;}.cls-12{opacity:0.49;}.cls-13{fill:#72461e;}.cls-14{fill:#633c1c;}.cls-15{opacity:0.16;}.cls-16{opacity:0.09;}.cls-17{fill:#e5a25e;}.cls-18{opacity:0.23;}.cls-19{fill:#3f240f;}.cls-20{fill:url(#linear-gradient);}</style><linearGradient id="linear-gradient" x1="150.37" y1="168.79" x2="149.66" y2="2.33" gradientUnits="userSpaceOnUse"><stop offset="0.03" stop-color="#591c16"/><stop offset="0.22" stop-color="#5f241d" stop-opacity="0.96"/><stop offset="0.38" stop-color="#733c33" stop-opacity="0.84"/><stop offset="0.53" stop-color="#936459" stop-opacity="0.64"/><stop offset="0.68" stop-color="#c09d8d" stop-opacity="0.36"/><stop offset="0.82" stop-color="#fae5cf" stop-opacity="0"/></linearGradient></defs><g class="cls-1"><g id="Layer_1" data-name="Layer 1"><rect class="cls-2" y="0.42" width="300" height="165"/><path class="cls-3" d="M250.6,87.46c0,6.21-4.7,11.25-10.51,11.25s-10.51-5-10.51-11.25a11.18,11.18,0,0,1,7.54-10.8,9.76,9.76,0,0,1,3-.46,10.57,10.57,0,0,1,9.9,7.47A11.81,11.81,0,0,1,250.6,87.46Z"/><path class="cls-4" d="M255.94,94.14s14.87-1.6,13.95-20.4a1.16,1.16,0,0,0-.76,0s2,16.51-13.41,19.42C255.58,93.08,255.94,94.14,255.94,94.14Z"/><ellipse class="cls-5" cx="201.9" cy="90.84" rx="70.85" ry="5.75"/><path class="cls-6" d="M132.34,92.6a3.73,3.73,0,0,1-1.21-.39,2.92,2.92,0,0,1-.57-.37,1.62,1.62,0,0,1-.28-.25,1.8,1.8,0,0,1-.29-.4,1.23,1.23,0,0,1-.1-.42.92.92,0,0,1,.05-.38,1.31,1.31,0,0,1,.28-.5,2.46,2.46,0,0,1,.61-.51,6.48,6.48,0,0,1,1.18-.54,20.4,20.4,0,0,1,2.33-.67c.77-.19,1.55-.34,2.32-.49,3.11-.56,6.22-.94,9.33-1.27,6.22-.65,12.46-1.07,18.7-1.41,12.47-.65,25-.93,37.44-1q9.38,0,18.73.18c6.25.13,12.49.32,18.73.64s12.48.73,18.71,1.37c3.12.33,6.23.7,9.34,1.28.78.14,1.56.3,2.34.49a20.43,20.43,0,0,1,2.36.72c.2.08.41.18.61.28a4.05,4.05,0,0,1,.65.41,2.9,2.9,0,0,1,.36.35,1.64,1.64,0,0,1,.32.65,1.47,1.47,0,0,1,0,.47s0,.08,0,.11v.08s0,.11,0,.15-.06.18-.09.25a1.24,1.24,0,0,1-.1.2A3,3,0,0,1,273,92.79a2.54,2.54,0,0,1-1.36.39l-.26-1a7,7,0,0,0,.72-.72,2.64,2.64,0,0,0,.46-.72l0-.07a.13.13,0,0,0,0,0h0v.12a.15.15,0,0,0,0,.07.43.43,0,0,0,0,.11l-.07-.07a4.22,4.22,0,0,0-.83-.43,15.26,15.26,0,0,0-2.14-.65q-1.11-.27-2.25-.48c-3-.55-6.12-.92-9.21-1.25-6.19-.63-12.4-1-18.63-1.34-12.44-.63-24.9-.89-37.37-.92s-24.93.16-37.38.73c-6.22.29-12.44.67-18.64,1.27-3.09.31-6.19.67-9.24,1.2-.76.13-1.52.28-2.27.45a22.08,22.08,0,0,0-2.19.62,5.79,5.79,0,0,0-1,.44,1.14,1.14,0,0,0-.32.24s0,0,0,0a.15.15,0,0,0,0-.07.35.35,0,0,0,0-.12s0,.05.06.1l.16.17a4.57,4.57,0,0,0,.39.35c.28.24.58.46.88.7Z"/><path class="cls-7" d="M272.87,88.22a16.89,16.89,0,0,1-.4,2.74,20.28,20.28,0,0,1-3.28,7.15c-5.49-4-16.39-4.89-28.12-1.76a52.21,52.21,0,0,0-15.76,7c-.3-.6-.65-1.24-1.07-1.91-.32-.5-.68-1-1.1-1.56-3.34-4.34-6.17-4.67-7.87-7a6.92,6.92,0,0,1-1-2,11,11,0,0,1-.37-1.58,10.67,10.67,0,0,1,.7-6.11,4.26,4.26,0,0,1,1-1.33c2.07-1.77,4.76.29,7.19-.21h0a2.77,2.77,0,0,0,.72-.24h0a3.52,3.52,0,0,0,.79-.51h0c1.65-1.41,1.32-3.43,2.34-5.08a4,4,0,0,1,1-1.09,5.72,5.72,0,0,1,6.1-.26c2,1.12,1.95,2.74,4.53,6.55,1.67,2.48,3.21,4.75,4.81,5.62h0a2.67,2.67,0,0,0,1.53.37A2.09,2.09,0,0,0,246,86.3h0c.92-.93,1.83-2.83,4.21-5.81,1.06-1.34,2-2.5,2.85-3.48a15.68,15.68,0,0,1,2.39-2.3,4.49,4.49,0,0,1,2.84-1c2.13,0,4.51,1.81,5.95,4.15a9.25,9.25,0,0,1,1,2.15c.49,1.58.34,2.82,1.18,3.33,1.06.65,2.36-.64,3.58-1.19a1.69,1.69,0,0,1,1.46-.12C273.21,82.84,272.9,87.66,272.87,88.22Z"/><g class="cls-8"><path class="cls-9" d="M246,86.3c-2.31,3.22-6.82.88-8-2.61a12.7,12.7,0,0,0-10.31-9,5.72,5.72,0,0,1,6.1-.26c2,1.12,1.95,2.74,4.53,6.55,1.67,2.48,3.21,4.75,4.81,5.62h0a2.67,2.67,0,0,0,1.53.37A2.09,2.09,0,0,0,246,86.3Z"/></g><g class="cls-8"><path class="cls-9" d="M270,82.12a4.32,4.32,0,0,1-1.78,1.12c-3.25,1.24-3.16,1-4.54-2.13-.83-5.61-8.21-6.41-8.21-6.41a4.56,4.56,0,0,1,2.84-1c2.13,0,4.51,1.82,5.95,4.16a9.45,9.45,0,0,1,1,2.15c.49,1.59.34,2.82,1.18,3.33C267.47,84,268.77,82.67,270,82.12Z"/></g><g class="cls-10"><path d="M272.87,88.22a16.89,16.89,0,0,1-.4,2.74,20.28,20.28,0,0,1-3.28,7.15c-5.49-4-16.39-4.89-28.12-1.76a52.21,52.21,0,0,0-15.76,7c-.3-.6-.65-1.24-1.07-1.91-.32-.5-.68-1-1.1-1.56-3.34-4.34-6.17-4.67-7.87-7a6.92,6.92,0,0,1-1-2C224.28,96.73,272.87,88.22,272.87,88.22Z"/></g><path class="cls-11" d="M135.6,97.16c-2.72-3.3-3.62-9.11-1.39-12.54,2.37-3.66,6.55-1.78,19.39-3.93A199.53,199.53,0,0,0,173.69,76a81.75,81.75,0,0,1,9.78-2.24c10.29-1.73,11.8,0,12.23.74,1.07,1.84-.89,3.88.18,5.43,1.46,2.13,5.82-.74,11.53-.37,6.35.41,12.74,2,17,5.8,5.09,4.61,8,11.24,7.16,14-1.42,4.66-16.28-.17-46,.94-10.94.41-21.92-.76-32.85,0C145.73,100.82,139.27,101.59,135.6,97.16Z"/><path class="cls-4" d="M226.07,78.31s13.66-6.51,21.56,10.32A1.27,1.27,0,0,1,247,89s-5.92-15.41-20.64-9.76C226.25,79.43,226.07,78.31,226.07,78.31Z"/><path class="cls-6" d="M235.34,111.38H170.73a2.17,2.17,0,0,1-2.09-2.23V106a2.17,2.17,0,0,1,2.09-2.23h64.61a2.16,2.16,0,0,1,2.08,2.23v3.14A2.16,2.16,0,0,1,235.34,111.38Z"/><path class="cls-6" d="M273.45,90.74c0,9.52-7.63,17.24-71.48,17.24-66.29,0-71.48-7.72-71.48-17.24,0,3.21,32,5.81,71.48,5.81S273.45,94,273.45,90.74Z"/><g class="cls-10"><path d="M168.59,105.73s15.64,1.15,32.57,1.15,35.9-1.59,35.9-1.59S206.51,113.2,168.59,105.73Z"/></g><g class="cls-12"><path class="cls-9" d="M131.06,91.48S144,98.85,240.79,95.74C241,95.74,144.51,101.83,131.06,91.48Z"/></g><polygon class="cls-13" points="214.1 77.3 239.19 72.81 239.19 75.06 214.1 78.99 214.1 77.3"/><path class="cls-14" d="M216.51,62.94c.09,4.32-4.52,6.55-9.2,8.81a45.72,45.72,0,0,1-8.53,2.83c-6.68,1.82-6.35,1-8.5,2.08-5.44,2.69-5.06,6.56-10,7.75-2.45.59-2.63-.35-6.23.4a14.12,14.12,0,0,0-7.24,3.51q-.17.15-.3.3a11.55,11.55,0,0,0-1.53,2l-.58.88c-3.56,5.22-11.17,9.24-15.22,5.78-.69-.59-2-2-2.79-5.66,0-.24-.1-.5-.14-.76s.15-.69.24-1a22.63,22.63,0,0,1,4.73-9.72,14.59,14.59,0,0,1,5.06-3.69c1.17-.53,2.45-1,3.9-1.47,4.55-1.58,6-1.06,10.48-2.9a31.07,31.07,0,0,0,3.6-1.73c.65-.37,1.34-.81,2.07-1.31a19.07,19.07,0,0,0,4.39-4.17,6.21,6.21,0,0,1,2.12-1.6c2.22-1.07,2.35-.06,10.26-1.05,3.59-.45,4.58-.78,5.59-1.4,2.36-1.44,2.26-2.84,4.6-4.55,1.44-1.06,4.08-3,7.21-1.75a8.84,8.84,0,0,1,3.07,2.17A10,10,0,0,1,216.51,62.94Z"/><g class="cls-15"><path d="M216.79,64.28c.08,3.87-4,5.88-8.25,7.9a41,41,0,0,1-7.65,2.54c-6,1.63-5.7.92-7.63,1.87-4.88,2.41-4.53,5.88-8.95,6.94-2.2.53-2.36-.31-5.59.37a12.71,12.71,0,0,0-6.5,3.14l-.26.28c-7.09,1.13-13.55,2.12-18.05,2.71-7.51,1-9.55.83.08-1.61.87-.21,1.84-.41,2.89-.71,61.71-17.31,57.29-29,57.29-29A9,9,0,0,1,216.79,64.28Z"/></g><g class="cls-16"><path d="M216.51,62.94c.09,4.32-4.52,6.55-9.2,8.81a45.72,45.72,0,0,1-8.53,2.83c-6.68,1.82-6.35,1-8.5,2.08-5.44,2.69-5.06,6.56-10,7.75-2.45.59-2.63-.35-6.23.4a14.12,14.12,0,0,0-7.24,3.51A11.63,11.63,0,0,0,165,90.64l-15.27.83s11.85-5,25.13-10.58c-.52-3,.76-11.35,1.49-11.85a19.07,19.07,0,0,0,4.39-4.17c-.4,2.81-2.15,10.32-1.57,11.57.28.6.66,1.47,1,2.22,14.54-6.18,29.16-12.47,30.78-13.49,3.31-2.08,2.67-8.48,2.67-8.48A10,10,0,0,1,216.51,62.94Z"/></g><path class="cls-17" d="M218.68,83.52c-2.26,3-5.76,3.11-7.67,3.14-3.1,0-3.77-1.19-6.74-.9-1.28.12-2.38.48-6,2.4-1.07.56-2,1.08-2.77,1.53-5.09,3-5.09,3.71-7.38,4.15a6.66,6.66,0,0,1-2.57.07,20.67,20.67,0,0,0-6.61-.77A32.22,32.22,0,0,0,172,94.21c-5.14,1.28-6.24,2.68-11.34,4.26-3.27,1-5.74,1.78-8.65,1.68-2.41-.09-7.26-.84-12.91-6.19-1.57-4-1.06-6.3-.71-7.31a7.52,7.52,0,0,1,3.76-4.07c3.78-2,9.39-2.24,13.56-.8a16.33,16.33,0,0,0,4,1.17c1,.12,4,.38,8.65-1.68A14,14,0,0,0,172,79.05a8.55,8.55,0,0,1,2.37-1.43c2.8-1.15,4.6-.68,6.66-.18a14.64,14.64,0,0,0,6.82.33c2.58-.48,1.85-.94,9.06-3.69A55.29,55.29,0,0,1,206.42,71c5.58-1.09,11.09-2.16,13.32,1.55a7.43,7.43,0,0,1,.94,3.06h0A12,12,0,0,1,218.68,83.52Z"/><g class="cls-10"><path d="M218.68,83.52c-2.26,3-5.76,3.11-7.67,3.14-3.1,0-3.77-1.19-6.74-.9-1.28.12-2.38.48-6,2.4-7.92,4.23-7.5,5.17-10.15,5.68-3.34.65-3.55-.92-9.18-.7A32.22,32.22,0,0,0,172,94.21c-5.14,1.28-6.24,2.68-11.34,4.26-3.27,1-5.74,1.78-8.65,1.68-2.41-.09-7.26-.84-12.91-6.19-1.57-4-1.06-6.3-.71-7.31a7.52,7.52,0,0,1,3.76-4.07s-1.13,9.24,2.26,10.26S213.5,83,215.61,82.08s5-6.33,5.07-6.46A12,12,0,0,1,218.68,83.52Z"/></g><g class="cls-8"><ellipse class="cls-9" cx="209.17" cy="56.31" rx="2.92" ry="0.94"/></g><g class="cls-8"><ellipse class="cls-9" cx="170.02" cy="74.04" rx="2.95" ry="0.93" transform="translate(-15.4 71.42) rotate(-22.72)"/></g><g class="cls-8"><ellipse class="cls-9" cx="214.31" cy="73.68" rx="3.23" ry="1.93"/></g><g class="cls-18"><path d="M155.65,79.15c-1,.77-3,1-4.41,1a14.59,14.59,0,0,1,5.06-3.69A2.84,2.84,0,0,1,155.65,79.15Z"/></g><g class="cls-18"><path d="M195.53,89.1v.59c-5.09,3-5.09,3.71-7.38,4.15a6.66,6.66,0,0,1-2.57.07,9.14,9.14,0,0,1,2.65-2.26C189.67,91.07,195.53,89.1,195.53,89.1Z"/></g><g class="cls-18"><path d="M181.06,81.44c-1.18.24-.91,1.69-2.17,0S172,79.05,172,79.05a8.55,8.55,0,0,1,2.37-1.43c2.8-1.15,4.6-.68,6.66-.18C181.09,77.52,182.24,81.2,181.06,81.44Z"/></g><ellipse class="cls-19" cx="181.42" cy="82.85" rx="1.45" ry="1.55"/><ellipse class="cls-19" cx="202.4" cy="79.07" rx="1.45" ry="1.55"/><path class="cls-19" d="M191.4,84.49a5.92,5.92,0,0,1-2.85-.69.39.39,0,0,1-.14-.51.34.34,0,0,1,.48-.14,5.58,5.58,0,0,0,3.56.49,6.26,6.26,0,0,0,3.3-1.73.33.33,0,0,1,.49,0,.4.4,0,0,1,0,.53,6.82,6.82,0,0,1-3.69,2A6.07,6.07,0,0,1,191.4,84.49Z"/><rect class="cls-20" y="0.42" width="300" height="165"/></g></g></svg>