<svg xmlns="http://www.w3.org/2000/svg" xmlns:xlink="http://www.w3.org/1999/xlink" viewBox="0 0 300 165.5"><defs><style>.cls-1{isolation:isolate;}.cls-2{fill:#fce5cd;}.cls-3{fill:#ffc81a;}.cls-4{fill:#c1272d;}.cls-5{fill:#009245;}.cls-6{fill:#f4af25;}.cls-7{opacity:0.47;}.cls-7,.cls-9{mix-blend-mode:soft-light;}.cls-8{fill:#fff;}.cls-9{opacity:0.87;}.cls-10{fill:#3f240f;}.cls-11{opacity:0.18;mix-blend-mode:multiply;}.cls-12{fill:#9b4e23;}.cls-13{fill:url(#linear-gradient);}</style><linearGradient id="linear-gradient" x1="150.37" y1="168.62" x2="149.66" y2="2.17" gradientUnits="userSpaceOnUse"><stop offset="0.03" stop-color="#591c16"/><stop offset="0.22" stop-color="#5f241d" stop-opacity="0.96"/><stop offset="0.38" stop-color="#733c33" stop-opacity="0.84"/><stop offset="0.53" stop-color="#936459" stop-opacity="0.64"/><stop offset="0.68" stop-color="#c09d8d" stop-opacity="0.36"/><stop offset="0.82" stop-color="#fae5cf" stop-opacity="0"/></linearGradient></defs><g class="cls-1"><g id="Layer_1" data-name="Layer 1"><rect class="cls-2" y="0.25" width="300" height="165"/><path class="cls-3" d="M212.27,74.79c1.53,2.52-.06,5.87-2.87,6l-13.29.74-13.29.75c-2.81.16-4.73-3-3.45-5.67l6-12.67,6-12.66a3.54,3.54,0,0,1,6.32-.35L205,62.87Z"/><ellipse class="cls-4" cx="165.7" cy="95.73" rx="18.5" ry="19.76"/><path class="cls-3" d="M182.24,90.87a4,4,0,0,1-1.93,6.44l-13,3-13,3c-2.75.64-5.12-2.14-4.26-5l4-13.54,4.05-13.53a3.56,3.56,0,0,1,6.19-1.44l8.95,10.51Z"/><path class="cls-3" d="M272.61,90.08a4,4,0,0,1-2.31,6.3l-13.16,2.11L244,100.61c-2.78.44-5-2.49-3.95-5.29l4.87-13.23,4.86-13.23a3.55,3.55,0,0,1,6.26-1L264.32,79Z"/><ellipse class="cls-4" cx="180.41" cy="76.01" rx="18.5" ry="19.76"/><ellipse class="cls-4" cx="214.42" cy="70.52" rx="18.5" ry="19.76"/><ellipse class="cls-4" cx="234.68" cy="73.26" rx="18.5" ry="19.76"/><ellipse class="cls-4" cx="251.42" cy="93.49" rx="18.5" ry="19.76"/><path class="cls-3" d="M224.19,87.3A3.57,3.57,0,0,1,218,85.77l-3.87-13.59-3.88-13.59c-.82-2.88,1.58-5.62,4.32-4.94l13,3.21,13,3.21a4,4,0,0,1,1.84,6.47l-9.08,10.38Z"/><path class="cls-5" d="M151.76,112c-.31,0-4.21-.7-5.71-3.65-.93-1.83-.45-8.93.85-10.2,1.64-1.6,4.22,1.1,7.59-.26a8.06,8.06,0,0,0,4.66-6.28c.34-3.38-2.4-4.16-3.43-8.9-.13-.6-1.57-7.61,2.2-10.73,2-1.66,5.23-2.43,6.87-1,1.28,1.08.67,2.7,2,3.67,1.74,1.3,5.51.29,6.37-1.84,1-2.47-2.75-4.48-2.45-8.63a8.33,8.33,0,0,1,4.65-6.55c8.58-3.66,10,1.73,15,1.8,3.79.06,3.34-2.4,5.61-5.53,3.28-4.52,13.78-3.7,15.44.26,1.72,4.12-1.77,4.38,0,7.4,1.13,1.88.29,3.3,3.58,1.31,4.65-2.81,2.89-9.22,6.83-10.74,3.31-1.28,8,.53,9.06,3.4,1.32,3.46.69,5.5,3.77,6.82,3.94,1.67,4.22-1.7,7.78-3.41,3.73-1.78,11,3.37,11,7.85,0,3-3.28,3.7-4.41,9.16-.3,1.47-.87,4.4.74,6.55.25.33,1.4,1.88,2.94,1.83,2.6-.1,2.88-4.71,5.88-5.5,2.3-.6,5.38,1.28,6.37,3.67s-.58,3.69.49,7.06a16.06,16.06,0,0,0,2,3.67c2.31,3.7,3.16,3.78,3.92,5.49,1.35,3.07.74,13.38-1.46,15.43-2.82,2.63-7.94.87-9.07.53C253.55,112.35,224.85,109.94,151.76,112Z"/><path class="cls-6" d="M262,116.32H155.63a6.28,6.28,0,0,1-6-7.28A55.92,55.92,0,0,1,152,98.75q.74-2.23,1.64-4.38A57.73,57.73,0,0,1,164.48,77.7a59.78,59.78,0,0,1,19.66-14,61.07,61.07,0,0,1,24.69-5.17A60.34,60.34,0,0,1,253.18,77.7,57.87,57.87,0,0,1,264,94.43c.59,1.42,1.14,2.85,1.62,4.32A55.92,55.92,0,0,1,268,109,6.28,6.28,0,0,1,262,116.32Z"/><g class="cls-7"><polygon class="cls-8" points="164.48 77.7 164.48 77.7 164.48 77.7 164.48 77.7"/></g><g class="cls-7"><path class="cls-8" d="M253.18,77.7h0c-46.85-33.85-88.48-.18-88.7,0a60.91,60.91,0,0,1,88.7,0Z"/></g><g class="cls-9"><path class="cls-8" d="M224.82,71.71l-.15-.07a.94.94,0,0,1-.3-.21,1.21,1.21,0,0,1-.36-1c.18-.74.25-.6.45-.84a1,1,0,0,1,.25-.17l.14-.06.12,0,.16,0,.14,0,.16,0,.26,0,.47,0c.31,0,.6,0,.9,0a14.59,14.59,0,0,1,1.75.16,17.26,17.26,0,0,1,3.43.87,21,21,0,0,1,6.22,3.61l.13.11A3.31,3.31,0,1,1,234.36,79a3.17,3.17,0,0,1-.7-.81,15.67,15.67,0,0,0-3.53-4,13.91,13.91,0,0,0-2.32-1.49c-.41-.2-.84-.39-1.27-.55-.22-.08-.43-.16-.65-.22l-.3-.08-.13,0h0s0,0,0,0l.12,0,.1,0,.14-.06a1.26,1.26,0,0,0,.24-.16c.19-.25.27-.11.45-.84,0-.79-.25-.84-.37-1a1.38,1.38,0,0,0-.28-.22.94.94,0,0,0-.15-.06,1.25,1.25,0,0,1-.9,2.34Z"/></g><ellipse class="cls-10" cx="193.38" cy="95.73" rx="2.1" ry="2.25"/><ellipse class="cls-10" cx="224.28" cy="95.73" rx="2.1" ry="2.25"/><path class="cls-10" d="M209,100.73a9.19,9.19,0,0,1-5.62-1.86.48.48,0,0,1,.62-.73h0a8.29,8.29,0,0,0,5,1.63,8.92,8.92,0,0,0,5.12-1.63.47.47,0,0,1,.67.07.47.47,0,0,1-.07.66A9.62,9.62,0,0,1,209,100.73Z"/><g class="cls-11"><path class="cls-12" d="M262,116.32H155.63a6.28,6.28,0,0,1-6-7.28A55.92,55.92,0,0,1,152,98.75s23.93,10.34,57,10.34,56.6-10.34,56.6-10.34A55.92,55.92,0,0,1,268,109,6.28,6.28,0,0,1,262,116.32Z"/></g><rect class="cls-13" y="0.25" width="300" height="165"/></g></g></svg>