<svg xmlns="http://www.w3.org/2000/svg" xmlns:xlink="http://www.w3.org/1999/xlink" viewBox="0 0 300 165.5"><defs><style>.cls-1{isolation:isolate;}.cls-2{fill:#fce5cd;}.cls-3{fill:#edc094;}.cls-4{fill:#aa4b4b;}.cls-5{fill:#009245;}.cls-6{fill:#167541;}.cls-7{fill:#ff791f;}.cls-8{fill:#f7b93c;}.cls-9{opacity:0.61;}.cls-10{fill:#aa5a2e;}.cls-11{opacity:0.36;mix-blend-mode:multiply;}.cls-12{fill:#9b4e23;}.cls-13{fill:#916140;}.cls-14{opacity:0.52;}.cls-14,.cls-16,.cls-18,.cls-20{mix-blend-mode:soft-light;}.cls-15{fill:#ffe8d9;}.cls-16{opacity:0.49;}.cls-17{fill:#fff;}.cls-19{fill:#ffe3c7;}.cls-20{opacity:0.69;}.cls-21{fill:url(#linear-gradient);}</style><linearGradient id="linear-gradient" x1="150.37" y1="168.62" x2="149.66" y2="2.17" gradientUnits="userSpaceOnUse"><stop offset="0.03" stop-color="#591c16"/><stop offset="0.22" stop-color="#5f241d" stop-opacity="0.96"/><stop offset="0.38" stop-color="#733c33" stop-opacity="0.84"/><stop offset="0.53" stop-color="#936459" stop-opacity="0.64"/><stop offset="0.68" stop-color="#c09d8d" stop-opacity="0.36"/><stop offset="0.82" stop-color="#fae5cf" stop-opacity="0"/></linearGradient></defs><g class="cls-1"><g id="Layer_1" data-name="Layer 1"><rect class="cls-2" y="0.25" width="300" height="165"/><ellipse class="cls-3" cx="209.73" cy="82.74" rx="65.99" ry="11.74"/><path class="cls-4" d="M145,85.91a5.8,5.8,0,0,1-.83-.89,7.58,7.58,0,0,1-.67-1,4.26,4.26,0,0,1-.45-1.18,2.19,2.19,0,0,1,0-.36,2,2,0,0,1,0-.34,2.74,2.74,0,0,1,.17-.64,4.09,4.09,0,0,1,.67-1.08,6.42,6.42,0,0,1,.89-.84,11.72,11.72,0,0,1,2-1.28A30.21,30.21,0,0,1,151,76.5c1.46-.5,2.93-.93,4.42-1.31,3-.77,6-1.38,9-1.9s6.05-1,9.09-1.33c6.07-.73,12.17-1.23,18.28-1.56s12.22-.5,18.34-.52,12.24.12,18.35.43,12.21.79,18.3,1.5q4.56.54,9.11,1.3c3,.52,6,1.12,9,1.91,1.49.39,3,.83,4.45,1.35a25.64,25.64,0,0,1,4.33,1.94,9.85,9.85,0,0,1,2,1.52,5.16,5.16,0,0,1,.85,1.12,3.39,3.39,0,0,1,.41,1.51,3.91,3.91,0,0,1-.06.73c0,.22-.09.42-.14.63a7.14,7.14,0,0,1-.46,1.19,5.16,5.16,0,0,1-.71,1.1,3.23,3.23,0,0,1-1.09.83l-.56-.81a5.42,5.42,0,0,0,.81-1.75c.1-.32.18-.65.25-1,0-.17.06-.33.08-.49a2.24,2.24,0,0,0,0-.41,2.17,2.17,0,0,0-.72-1.38,7.92,7.92,0,0,0-1.63-1.23,23.94,23.94,0,0,0-4-1.82c-1.4-.5-2.84-.93-4.3-1.32-2.91-.77-5.88-1.38-8.87-1.91s-6-1-9-1.32a323.46,323.46,0,0,0-36.44-2.1q-9.14,0-18.27.36c-6.08.28-12.16.72-18.21,1.4-3,.33-6.05.72-9.05,1.2s-6,1.05-8.94,1.77c-1.47.37-2.93.77-4.36,1.24a28.72,28.72,0,0,0-4.18,1.68,12.26,12.26,0,0,0-1.87,1.17A4.09,4.09,0,0,0,144,81.8a2,2,0,0,0-.14.46,2,2,0,0,0,0,.23,1.62,1.62,0,0,0,0,.22,3.44,3.44,0,0,0,.35,1,6.45,6.45,0,0,0,1.3,1.71Z"/><path class="cls-5" d="M201.28,66.29c.43,1.54-1.47,2.8-2.31,3.31s-1.2,2.06-1.33,2.56a1,1,0,0,1,0,.15s1.91,4.53,1.42,4.92-3.94,1.61-4.5,1.29-1.93-3.7-2.13-4.19l0,0a5.53,5.53,0,0,1-2-.37c-1.28-.74-4.41,1.37-5.14.35-1.09-1.53.48-2.8.94-3.51s-.37-2.11-.22-2.8a7,7,0,0,1,3.67-4.11c1.06-.3,3.22,1.41,5.5,0C196.37,63.09,200.66,64.09,201.28,66.29Z"/><path class="cls-6" d="M199,77.23c-.5.4-3.94,1.61-4.5,1.29s-1.93-3.7-2.13-4.19l5.25-2.17a1,1,0,0,1,0,.15S199.51,76.84,199,77.23Z"/><path class="cls-6" d="M192.39,74.33s-2.22-4.18-3.57-4.13,1.58-.82,2.36-.11,1.66,2.45,2,2.6,3-3.92,2-5.54,1.83.55,1.64,1.17a10.1,10.1,0,0,0-.62,2.15c0,.38,1.45-1.2,1.45-1.2a3.21,3.21,0,0,0,0,3"/><ellipse class="cls-7" cx="263.11" cy="70.49" rx="8.52" ry="7.03"/><rect class="cls-4" x="189.82" y="114.09" width="41.91" height="7.14" rx="2.21"/><path class="cls-8" d="M152.23,88.11C179.74,103.31,263.85,96,263.85,96h0a16.69,16.69,0,0,0,5.26-5.57,37.29,37.29,0,0,0,2.1-4.6c1.65-4.55,1.2-7.54-.23-11.39-3.45-9.33-14.08-18.46-23.11-21.78-9.7-3.57-27-6.18-37.91,1.84-8.79,6.45-7.17,17.59-18.76,21.94-1.8.67-8.27,2.54-11.82,2.24-6.54-.56-8.05-5.91-12.33-8.47-5.68-3.39-14.94.17-17.62,4.64C146.92,79,150,84.83,152.23,88.11Z"/><g class="cls-9"><path class="cls-10" d="M267.88,93.66l-.73-.14c1.14-6,1.46-14.9-3.46-22.86a28.66,28.66,0,0,0-9.39-9.22,38.12,38.12,0,0,0-12.44-4.81c-8.92-1.78-18.07-.56-24.46,3.24-4.21,2.51-5.94,5.38-7.76,8.42-2.13,3.54-4.33,7.2-10.56,10.64-3.86,2.14-17.2,8.69-26.62,3.33a24.78,24.78,0,0,1-3.08-2.17,15.31,15.31,0,0,0-7.52-3.71c-3.69-.58-6.32-.11-7.82,1.38-1.3,1.28-1.87,3.41-1.6,6a18.45,18.45,0,0,0,3.49,8.51l-.61.43c-4.1-5.77-4.88-12.41-1.81-15.46C155.2,75.57,158,75,162,75.65c3.67.58,5.8,2.25,7.86,3.86a24.73,24.73,0,0,0,3,2.1c4.09,2.33,9.47,2.59,16,.78a48.15,48.15,0,0,0,9.93-4.11c6.06-3.34,8.21-6.92,10.28-10.37,1.88-3.12,3.65-6.07,8-8.67,6.55-3.9,15.89-5.15,25-3.33a38.82,38.82,0,0,1,12.68,4.9,29.35,29.35,0,0,1,9.63,9.46C269.36,78.44,269,87.49,267.88,93.66Z"/></g><g class="cls-9"><path class="cls-10" d="M262.51,96.1l-.71-.22a29.66,29.66,0,0,0,1.07-8.59,23.14,23.14,0,0,0-18.11-23,28.85,28.85,0,0,0-12.67-.15c-6.62,1.5-13.11,3.62-19.76,13-3.94,5.55-6,6.79-9.78,9l-.58.34c-2.75,1.69-16.93,9.76-26,3.08-.75-.55-1.43-1.14-2.14-1.76a24.52,24.52,0,0,0-8.12-5c-2.09-.79-6.42-2.44-8.13-.82s-.63,6.59,2.65,11.74l-.62.4C156,88.54,155,83.44,157,81.48s6.5-.24,8.9.66a25.06,25.06,0,0,1,8.34,5.17c.71.61,1.37,1.19,2.1,1.72,8.73,6.4,22.54-1.47,25.22-3.11l.58-.35c3.68-2.2,5.71-3.41,9.56-8.84,6.8-9.59,13.43-11.75,20.2-13.28a28.92,28.92,0,0,1,13,.16A24.28,24.28,0,0,1,258,71.53C266.55,81.72,263,94.66,262.51,96.1Z"/></g><g class="cls-9"><path class="cls-10" d="M187.6,97.86c-4.43,0-10.31-3.67-16-7.22l-1-.62c-7.24-4.51-9.47-2.52-9.7-2.28-1,1.05-.09,4.27,2.45,8.62l-.64.37c-3.59-6.13-3.26-8.55-2.35-9.5,1.29-1.35,4.76-1.49,10.64,2.16l1,.62c5.86,3.65,11.91,7.43,16.17,7.09,8-.64,13.84-2.87,20.57-6.25,8.66-4.35,13-9.32,16.43-13.31,4-4.67,7.25-8.37,15.18-8.37,4.48,0,11.23,3.24,15.47,9.41,5.42,7.9,3.68,16.53,3,19l-.71-.2c.64-2.38,2.33-10.74-2.91-18.37-4.57-6.67-11.39-9.09-14.86-9.09-7.59,0-10.54,3.41-14.62,8.12-3.51,4-7.87,9.07-16.66,13.48-6.8,3.42-12.67,5.67-20.85,6.33Z"/></g><g class="cls-9"><path class="cls-10" d="M206.35,99.13l-.1-.73c7.5-1,12.79-2.25,16.66-4.06s6.29-4.22,7.46-7.36c2.42-6.51,3.84-9.29,8.19-10.58,5-1.48,11.23,2.78,14.11,7.56,3.71,6.17,1.81,12.71,1.14,14.56l-.7-.25c.64-1.78,2.46-8-1.08-13.93a17.32,17.32,0,0,0-6-5.89c-2.58-1.48-5.15-2-7.24-1.34-3.85,1.14-5.17,3.3-7.71,10.13-1.24,3.33-3.8,5.87-7.84,7.77S213.92,98.17,206.35,99.13Z"/></g><g class="cls-9"><path class="cls-10" d="M226.94,100.4a21.47,21.47,0,0,1-5.76-.91l.2-.71c4.88,1.37,8.44,1.15,10.57-.67,1.68-1.42,2.18-3,2.83-4.92A26.12,26.12,0,0,1,236.49,89a9.51,9.51,0,0,1,6.27-4.3,5.28,5.28,0,0,1,4.46.86c2.86,2.38,4.44,9.24.43,14.57l-.59-.45c2.45-3.25,3.57-10.31-.31-13.55a4.55,4.55,0,0,0-3.85-.7,8.86,8.86,0,0,0-5.76,3.92,25.06,25.06,0,0,0-1.66,4.11c-.65,2-1.22,3.69-3,5.25A8.21,8.21,0,0,1,226.94,100.4Z"/></g><path class="cls-8" d="M180.64,81.32c-5.7,0-11.41-2-14.41-6.58-2.55-3.92-3.46-10.17-.69-12.86,2-1.94,4.93-1.3,8.05-.62,3.38.73,6.87,1.49,9.94-.53a11.62,11.62,0,0,0,4.67-8,4,4,0,0,0-.66-3.12c-1.6-1.62-6.28.71-11.24,3.17C170,56,162.81,59.52,158.91,56.52a9.17,9.17,0,0,1-3.22-6,5.79,5.79,0,0,1,.94-4.33,6.06,6.06,0,0,1,5-1.93,15.07,15.07,0,0,1,7.29,2.21.37.37,0,0,1-.37.63c-5-2.94-9.72-2.54-11.36-.46a5.11,5.11,0,0,0-.79,3.79,8.54,8.54,0,0,0,2.94,5.49c3.53,2.73,10.48-.73,16.61-3.78,5.43-2.7,10.12-5,12.1-3a4.59,4.59,0,0,1,.86,3.72,12.39,12.39,0,0,1-5,8.51c-3.33,2.18-7.14,1.36-10.51.63-3-.66-5.67-1.23-7.38.43-2,2-2.18,7.34.8,11.93,2.49,3.83,6.65,5.3,9.7,5.86a24.14,24.14,0,0,0,11.69-.84A22.74,22.74,0,0,0,200.43,69a.37.37,0,0,1,.51-.14.38.38,0,0,1,.13.51,23.56,23.56,0,0,1-12.59,10.71A24.91,24.91,0,0,1,180.64,81.32Z"/><path class="cls-8" d="M197.79,75.11c-.58-10.78,1.41-17.74,5.9-20.67,2.06-1.34,3.86-1.16,6.13-.94a25.2,25.2,0,0,0,9.52-.59,49.63,49.63,0,0,0,9.58-3.53,32.43,32.43,0,0,1,10.62-3.32c3.91-.49,10.44-1.3,16.69,2.26,8.45,4.81,10.83,16.36,11.46,21.1v.07l-.73.1,0-.08c-.61-4.63-2.93-15.9-11.08-20.54-6-3.44-12.42-2.65-16.23-2.18a31.6,31.6,0,0,0-10.41,3.26,50.92,50.92,0,0,1-9.71,3.58,25.78,25.78,0,0,1-9.77.61c-2.22-.22-3.82-.38-5.65.82-4.26,2.78-6.14,9.51-5.57,20Z"/><g class="cls-11"><path class="cls-12" d="M251.84,70.32a12.09,12.09,0,0,0-3.9-.74c-2,0-4.18.34-5.79-.82-1.13-.8-1.81-2.28-3.15-2.62a4.21,4.21,0,0,0-1.46,0l-2,.23a10.13,10.13,0,0,1-.63-3.09c-.11-2.8,1.07-6.83,3.83-7.7,3.21-1,6.86,2.81,7.51,3.53,1.22,1.34,1,1.72,2.59,3.65,2.49,3,3.86,3,4.13,4.33A4.29,4.29,0,0,1,251.84,70.32Z"/></g><g class="cls-11"><path class="cls-12" d="M194.87,86.81c-.39-2.79.37-6.92,3-8,3.09-1.33,7.11,2.09,7.84,2.74,1.35,1.21,1.13,1.61,2.94,3.37,2.78,2.69,4.15,2.59,4.55,3.89.74,2.36-2.57,6.67-6.54,7.49C201.43,97.33,195.64,92.2,194.87,86.81Z"/></g><path class="cls-13" d="M193.76,86.07c-.39-2.78.37-6.92,3-8,3.09-1.33,7.11,2.1,7.84,2.74,1.35,1.21,1.13,1.61,2.94,3.37,2.78,2.69,4.15,2.59,4.55,3.89.74,2.36-2.57,6.67-6.54,7.49C200.32,96.59,194.53,91.46,193.76,86.07Z"/><path class="cls-13" d="M251.83,69.26a12.09,12.09,0,0,0-3.9-.74c-2,0-4.17.34-5.79-.82-1.13-.8-1.81-2.28-3.15-2.62a4.21,4.21,0,0,0-1.46,0c-.67.07-1.33.14-2,.23a10.13,10.13,0,0,1-.63-3.09c-.11-2.8,1.07-6.84,3.83-7.7,3.21-1,6.86,2.81,7.51,3.53,1.23,1.34,1,1.72,2.59,3.65,2.49,3,3.86,3,4.13,4.33A4.29,4.29,0,0,1,251.83,69.26Z"/><g class="cls-11"><path class="cls-12" d="M150,76a1.25,1.25,0,0,0,1.37.31,14.59,14.59,0,0,1,2.79-.78c1.79-.32,3.81-.37,5.2-1.39,1-.71,1.49-1.82,2.68-2.25a5.37,5.37,0,0,1,1.32-.23l.71,0a1.57,1.57,0,0,0,1.44-1.31,6.31,6.31,0,0,0,.05-1c-.09-1.93-1.43-4.51-4-4.7-3-.22-6,2.91-6.59,3.49-1,1.09-.76,1.31-2.1,2.87-2.06,2.37-3.31,2.6-3.46,3.54A1.8,1.8,0,0,0,150,76Z"/></g><path class="cls-13" d="M150,74.72a1.23,1.23,0,0,0,1.37.3,14.57,14.57,0,0,1,2.79-.77c1.79-.32,3.81-.37,5.2-1.4,1-.71,1.49-1.81,2.68-2.24a5.37,5.37,0,0,1,1.32-.23l.71-.06a1.56,1.56,0,0,0,1.44-1.3,6.37,6.37,0,0,0,.05-1c-.09-1.93-1.43-4.5-4-4.69-3-.22-6,2.9-6.59,3.49-1,1.09-.76,1.31-2.1,2.86-2.06,2.38-3.31,2.6-3.46,3.55A1.81,1.81,0,0,0,150,74.72Z"/><g class="cls-11"><ellipse class="cls-12" cx="192.47" cy="92.87" rx="9.42" ry="7.77" transform="translate(-21.04 83.82) rotate(-23.33)"/></g><ellipse class="cls-7" cx="191.17" cy="92.5" rx="9.42" ry="7.77" transform="translate(-21 83.28) rotate(-23.33)"/><g class="cls-11"><path class="cls-12" d="M226.46,59a1,1,0,0,1-.65,1.38,6.55,6.55,0,0,0-.78.28,38.71,38.71,0,0,0-6.15,3.72,52.68,52.68,0,0,0-6.35,4.11,1.51,1.51,0,0,1-2.08-.09,6.31,6.31,0,0,1-1.29-2c-1.7-3.94.79-8.8,5.57-10.86s10-.54,11.73,3.4Z"/></g><g class="cls-11"><path class="cls-12" d="M233.17,89.19c0,1.2-1.64,1.71-2.36,1.91s-1.29,1.25-1.49,1.58l-.06.1s.44,3.67,0,3.85-3.17.34-3.51,0-.63-3.08-.67-3.47v0a4.09,4.09,0,0,1-1.33-.66c-.77-.81-3.48.07-3.79-.81-.48-1.34.93-1.94,1.4-2.35s.18-1.6.42-2.07A5.25,5.25,0,0,1,225.28,85c.83,0,2,1.68,4,1.13C230.28,85.85,233.18,87.47,233.17,89.19Z"/><path class="cls-12" d="M229.26,96.63c-.43.19-3.17.34-3.51,0s-.63-3.08-.67-3.47l4.24-.48-.06.1S229.7,96.45,229.26,96.63Z"/><path class="cls-12" d="M225.08,93.16s-.75-3.48-1.73-3.73,1.31-.26,1.73.41.69,2.12.9,2.29,3-2.2,2.59-3.59,1.2.77.94,1.18a8.71,8.71,0,0,0-.9,1.43c0,.28,1.3-.56,1.3-.56a2.44,2.44,0,0,0-.65,2.19"/></g><path class="cls-7" d="M226.83,58.07a1,1,0,0,1-.65,1.38c-.27.08-.53.18-.78.28a40.25,40.25,0,0,0-6.15,3.72,52.74,52.74,0,0,0-6.35,4.12,1.52,1.52,0,0,1-2.08-.1,6.39,6.39,0,0,1-1.29-1.94c-1.7-3.94.79-8.81,5.57-10.87s10-.54,11.73,3.4Z"/><path class="cls-5" d="M232.61,88.45c0,1.2-1.64,1.71-2.35,1.91s-1.29,1.25-1.49,1.58l-.06.1s.44,3.67,0,3.85-3.18.34-3.52,0a15,15,0,0,1-.67-3.47v0a4.3,4.3,0,0,1-1.34-.67c-.77-.81-3.47.07-3.79-.81-.47-1.34.93-1.94,1.41-2.35s.17-1.6.42-2.07a5.23,5.23,0,0,1,3.51-2.21c.82,0,2,1.68,4,1.13C229.73,85.11,232.62,86.73,232.61,88.45Z"/><path class="cls-6" d="M228.71,95.89c-.44.19-3.18.34-3.52,0a15,15,0,0,1-.67-3.47l4.25-.48-.06.1S229.15,95.71,228.71,95.89Z"/><path class="cls-6" d="M224.52,92.42s-.74-3.48-1.72-3.73,1.3-.26,1.72.41.7,2.12.91,2.29,3-2.2,2.59-3.59,1.2.77.93,1.18a8,8,0,0,0-.89,1.43c0,.28,1.3-.56,1.3-.56a2.41,2.41,0,0,0-.65,2.19"/><path class="cls-5" d="M158.34,83.12c1.15.35,1.17,2.07,1.15,2.81s.82,1.59,1.08,1.88l.08.08s3.64.64,3.69,1.12-.59,3.14-1,3.36a15,15,0,0,1-3.52-.35h-.05a4.13,4.13,0,0,1-1,1.08c-1,.51-.93,3.35-1.87,3.4-1.41.07-1.58-1.45-1.84-2s-1.49-.63-1.86-1a5.28,5.28,0,0,1-1.11-4c.24-.79,2.2-1.46,2.24-3.49C154.31,84.92,156.69,82.62,158.34,83.12Z"/><path class="cls-6" d="M164.34,89c0,.47-.59,3.14-1,3.36a15,15,0,0,1-3.52-.35l.76-4.21.08.08S164.29,88.53,164.34,89Z"/><path class="cls-6" d="M159.81,92s-3.55-.3-4.07.57.12-1.33.89-1.53,2.23-.06,2.46-.21-1.25-3.51-2.7-3.51,1.09-.93,1.41-.56a7.84,7.84,0,0,0,1.11,1.27c.25.12-.17-1.41-.17-1.41a2.39,2.39,0,0,0,1.91,1.25"/><g class="cls-11"><path class="cls-12" d="M152,88.59c27.51,15.2,107.22,9.36,111.63,7.88s0,0,0,0c-1,3.49,6.24-6.21,7.36-10.16C271.05,86.27,226.87,100.32,152,88.59Z"/></g><g class="cls-11"><path class="cls-12" d="M258.18,75a1.07,1.07,0,0,1-1.26,1.08l-.79-.13a16.13,16.13,0,0,1-2.31-.38,4.24,4.24,0,0,1-.5-.18,3,3,0,0,1-1.39-1.12c-.07-.11-.12-.22-.18-.32a1.37,1.37,0,0,0-.4-.46,1.44,1.44,0,0,0-.85-.11l-.73.06h0a5.14,5.14,0,0,0-2,.52,7.14,7.14,0,0,0-.64.43l-.06,0c-.19.15-.38.3-.59.44A25.07,25.07,0,0,1,243,76.4a12.12,12.12,0,0,0-1.13.59,5.4,5.4,0,0,1-.74-2.48c.25-.63,3.88-2.71,4.39-3h0l.06,0h0a6,6,0,0,1,.13-2.23c.65-1.55-2.17-4.76-1.14-5.72,1.56-1.45,3.22.14,4.08.54s2.31-.71,3.11-.65a7.92,7.92,0,0,1,5.14,3.53c.49,1.14-1.12,3.81.81,6.17A3.41,3.41,0,0,1,258.18,75Z"/><path class="cls-12" d="M245.5,71.51l1.65,2.89h0c-.21.16-.42.33-.65.48A25.07,25.07,0,0,1,243,76.4a12.12,12.12,0,0,0-1.13.59,5.4,5.4,0,0,1-.74-2.48C241.36,73.88,245,71.8,245.5,71.51Z"/><path class="cls-12" d="M250.08,69.53c-.68,1-2.5,2.23-2.62,2.62-.05.19,1,.82,2.31,1.3a5.14,5.14,0,0,0-2,.52,7.14,7.14,0,0,0-.64.43l-.06,0-1.59-2.93h0l.06,0c.52-.37,4.29-3.16,4.06-4.56S250.77,68.56,250.08,69.53Z"/><path class="cls-12" d="M253.32,75.4a3,3,0,0,1-1.39-1.12c-.07-.11-.12-.22-.18-.32a2.86,2.86,0,0,0,2.21-.38C255.37,72.41,254.17,74.7,253.32,75.4Z"/></g><path class="cls-4" d="M276.37,82.53c0,19.45-29.81,35.22-66.58,35.22S143.21,102,143.21,82.53c0,6.56,29.81,11.88,66.58,11.88S276.37,89.09,276.37,82.53Z"/><g class="cls-14"><path d="M189.78,115.79s9.53,1,19.85,1a216.11,216.11,0,0,0,21.87-1.38S212.89,122.28,189.78,115.79Z"/></g><circle class="cls-15" cx="196.39" cy="105.4" r="1.82"/><circle class="cls-15" cx="223.11" cy="105.4" r="1.82"/><path class="cls-15" d="M209.9,109.61a8.42,8.42,0,0,1-4.94-1.53.56.56,0,0,1,.69-.87h0a7.44,7.44,0,0,0,4.25,1.29,7.89,7.89,0,0,0,4.35-1.3.56.56,0,0,1,.78.11.55.55,0,0,1-.11.77A8.74,8.74,0,0,1,209.9,109.61Z"/><g class="cls-16"><path class="cls-17" d="M143.73,84.05s12,15,102.22,8.7C246.1,92.74,156.26,105.18,143.73,84.05Z"/></g><g class="cls-18"><path class="cls-19" d="M236.37,76.68h0Z"/></g><path class="cls-5" d="M258.17,73.94A1.07,1.07,0,0,1,256.91,75l-.79-.13a14.86,14.86,0,0,1-2.31-.39,4.2,4.2,0,0,1-.5-.17,3,3,0,0,1-1.39-1.12c-.07-.11-.12-.22-.18-.32a1.27,1.27,0,0,0-.4-.46,1.44,1.44,0,0,0-.85-.11l-.73,0h0a5.15,5.15,0,0,0-2,.53,7.14,7.14,0,0,0-.64.43l-.06,0c-.19.15-.38.3-.59.44A25.07,25.07,0,0,1,243,75.34c-.39.17-.76.38-1.13.58a5.34,5.34,0,0,1-.74-2.47c.25-.63,3.88-2.71,4.39-3h0l.06,0h0a6,6,0,0,1,.13-2.23c.65-1.55-2.17-4.76-1.14-5.72,1.56-1.45,3.22.14,4.08.54s2.32-.71,3.11-.65a7.88,7.88,0,0,1,5.14,3.53c.49,1.14-1.12,3.81.81,6.17A3.32,3.32,0,0,1,258.17,73.94Z"/><path class="cls-6" d="M245.49,70.45l1.65,2.89h0c-.21.16-.42.33-.65.48A25.07,25.07,0,0,1,243,75.34c-.39.17-.76.38-1.13.58a5.34,5.34,0,0,1-.74-2.47C241.35,72.82,245,70.74,245.49,70.45Z"/><path class="cls-6" d="M250.07,68.47c-.68,1-2.5,2.23-2.62,2.62,0,.19,1,.82,2.31,1.29a5.15,5.15,0,0,0-2,.53,7.14,7.14,0,0,0-.64.43l-.06,0-1.59-2.93h0l.06,0c.52-.38,4.29-3.16,4.06-4.56S250.76,67.5,250.07,68.47Z"/><path class="cls-6" d="M253.31,74.34a3,3,0,0,1-1.39-1.12c-.07-.11-.12-.22-.18-.32a2.9,2.9,0,0,0,2.22-.38C255.36,71.35,254.16,73.64,253.31,74.34Z"/><g class="cls-20"><ellipse class="cls-17" cx="219.39" cy="55.32" rx="2.5" ry="1.11"/></g><g class="cls-20"><ellipse class="cls-17" cx="198.49" cy="79.22" rx="1.76" ry="0.78"/></g><g class="cls-20"><ellipse class="cls-17" cx="161.13" cy="64.98" rx="1.76" ry="0.78"/></g><g class="cls-20"><ellipse class="cls-17" cx="189.36" cy="65.07" rx="1.11" ry="0.55" transform="translate(-8.86 93.31) rotate(-27.07)"/></g><g class="cls-20"><ellipse class="cls-17" cx="157.37" cy="84.11" rx="1.11" ry="0.55" transform="translate(-21.04 80.83) rotate(-27.07)"/></g><g class="cls-20"><ellipse class="cls-17" cx="194.46" cy="68.33" rx="0.84" ry="0.55" transform="translate(57.62 222.47) rotate(-67.76)"/></g><g class="cls-20"><ellipse class="cls-17" cx="196.37" cy="87.16" rx="0.97" ry="1.76" transform="translate(33.74 227.56) rotate(-64.74)"/></g><g class="cls-20"><ellipse class="cls-17" cx="241.03" cy="56.43" rx="1.11" ry="2.5" transform="translate(113.14 268.38) rotate(-72.07)"/></g><g class="cls-20"><ellipse class="cls-17" cx="229.9" cy="86.63" rx="0.69" ry="1.55" transform="translate(76.71 278.7) rotate(-72.07)"/></g><g class="cls-20"><ellipse class="cls-17" cx="255.12" cy="65.74" rx="1.01" ry="1.04" transform="translate(41.2 219.52) rotate(-50.16)"/></g><rect class="cls-21" y="0.25" width="300" height="165"/></g></g></svg>