<svg xmlns="http://www.w3.org/2000/svg" xmlns:xlink="http://www.w3.org/1999/xlink" viewBox="0 0 300 165.5"><defs><style>.cls-1{isolation:isolate;}.cls-2{fill:#fce5cd;}.cls-3{fill:#edc094;}.cls-4{fill:#28668c;}.cls-5{fill:#efb87b;}.cls-6{opacity:0.45;}.cls-10,.cls-13,.cls-14,.cls-6,.cls-7{mix-blend-mode:soft-light;}.cls-7{opacity:0.9;}.cls-8{fill:#bf4e34;}.cls-9{fill:#00922b;}.cls-11{fill:#fff;}.cls-12{fill:#ea9649;}.cls-13{opacity:0.52;}.cls-14{opacity:0.49;}.cls-15{fill:#c79966;}.cls-16{fill:#7f4b28;}.cls-17{opacity:0.58;}.cls-18{fill:#ffe8d9;}.cls-19{fill:url(#linear-gradient);}</style><linearGradient id="linear-gradient" x1="150.37" y1="168.62" x2="149.66" y2="2.17" gradientUnits="userSpaceOnUse"><stop offset="0.03" stop-color="#591c16"/><stop offset="0.22" stop-color="#5f241d" stop-opacity="0.96"/><stop offset="0.38" stop-color="#733c33" stop-opacity="0.84"/><stop offset="0.53" stop-color="#936459" stop-opacity="0.64"/><stop offset="0.68" stop-color="#c09d8d" stop-opacity="0.36"/><stop offset="0.82" stop-color="#fae5cf" stop-opacity="0"/></linearGradient></defs><g class="cls-1"><g id="Layer_1" data-name="Layer 1"><rect class="cls-2" y="0.25" width="300" height="165"/><ellipse class="cls-3" cx="211.21" cy="100.98" rx="70.25" ry="5.32"/><path class="cls-4" d="M142.24,102.6a3.87,3.87,0,0,1-1.2-.36,4.76,4.76,0,0,1-.57-.34,2.76,2.76,0,0,1-.27-.23,1.69,1.69,0,0,1-.28-.37.86.86,0,0,1-.11-.39,1.21,1.21,0,0,1,.05-.34,1.25,1.25,0,0,1,.28-.46,2.44,2.44,0,0,1,.61-.47,6.77,6.77,0,0,1,1.16-.5,22,22,0,0,1,2.31-.62c.77-.17,1.53-.32,2.3-.45,3.08-.52,6.16-.87,9.25-1.18,6.17-.6,12.35-1,18.54-1.3,12.37-.61,24.75-.86,37.13-.9q9.28,0,18.57.16c6.19.12,12.38.3,18.56.6s12.38.67,18.56,1.26c3.09.31,6.17.65,9.26,1.18.77.14,1.55.29,2.32.46a19.71,19.71,0,0,1,2.34.67,5.18,5.18,0,0,1,.6.26,3.88,3.88,0,0,1,.64.37,2,2,0,0,1,.35.32,1.47,1.47,0,0,1,.32.6,1.23,1.23,0,0,1,0,.43.34.34,0,0,1,0,.1v.07s0,.11,0,.14-.06.16-.09.22a1.24,1.24,0,0,1-.1.2,2.81,2.81,0,0,1-2.41,1.41l-.25-.87a6.8,6.8,0,0,0,.72-.66,2.77,2.77,0,0,0,.46-.67s0,0,0-.07,0,0,0-.05h0s0,0,0,0v.07a.2.2,0,0,1,0,.07c0,.08.05.1,0,.09l-.07-.06a3.77,3.77,0,0,0-.83-.41,18.74,18.74,0,0,0-2.12-.6c-.73-.17-1.48-.31-2.23-.44-3-.51-6.07-.86-9.14-1.16-6.13-.58-12.3-1-18.47-1.25-12.33-.57-24.69-.82-37.05-.84s-24.72.14-37.07.67c-6.17.27-12.34.62-18.48,1.18-3.07.29-6.14.62-9.16,1.11-.76.13-1.51.27-2.25.43a19.35,19.35,0,0,0-2.18.57,6,6,0,0,0-1,.4,1.4,1.4,0,0,0-.32.23s0,0,0,0,0,0,0-.06a.19.19,0,0,0,0-.1.54.54,0,0,0,.07.09l.15.16c.12.11.25.21.39.32s.58.43.88.65Z"/><rect class="cls-4" x="178.23" y="112.96" width="68.2" height="7.04" rx="2.03"/><path class="cls-5" d="M266.79,100.29a4.43,4.43,0,0,1-.29,1.54,4.73,4.73,0,0,1-.33.68c-.92,1.49-5.85,1.15-13.77,4.19-13.5,5.18-11.92,3.52-14.66,4.21-7.07,1.78-13.36,1.27-25.93.26-2.92-.23-4.34-.4-5.9-.62h0c-2.14-.31-4.56-.69-11.51-1.46l-.77-.08c-6.13-.65-10.67-.84-14.27-1h0c-5.85-.23-9.2-.33-12.84-2-1.88-.89-6.71-1.78-9.67-3.39-1.34-.72-2.3-1.59-2.43-2.67a.88.88,0,0,1,0-.16,4.15,4.15,0,0,1,.54-2.16,6.72,6.72,0,0,1,.67-1l0,0a14.82,14.82,0,0,1,3.12-2.66l.28-.19a72,72,0,0,1,14.47-7l1.23-.43c1.36-.45,2.63-.82,3.75-1.07.5-.12,1-.22,1.49-.32a56.8,56.8,0,0,1,20.1-.34c8.28,1.08,16.95,2.83,31.23,1.24,5.88-.65,10-1,13.92-.59l.34,0a29.91,29.91,0,0,1,6.64,1.53,31.23,31.23,0,0,1,11.19,7.55h0l.2.21C265.53,96.63,266.81,98.72,266.79,100.29Z"/><g class="cls-6"><path d="M266.79,100.29a4.29,4.29,0,0,1-.62,2.22c-.92,1.48-5.85,1.15-13.76,4.18-13.51,5.19-11.93,3.53-14.67,4.22-7.07,1.78-13.36,1.27-25.93.26-6.93-.56-5.4-.76-17.42-2.08-16.71-1.83-21.27-1.87-27.89-3.1-3.33-.62-11.95-2.63-12.12-6.22a4.15,4.15,0,0,1,.54-2.16c.36-.54.6-.88.67-1l0,0C163.3,101.45,184,123.16,266.79,100.29Z"/></g><g class="cls-7"><path d="M228.38,84.66l-2.31,8.92-.42,1.64a2.25,2.25,0,0,1-2.73,1.6l-7.7-2a2.23,2.23,0,0,1-1.61-2.72l.6-2.3h0l2.13-8.26a2.25,2.25,0,0,1,2.73-1.61l7.7,2A2.24,2.24,0,0,1,228.38,84.66Z"/></g><g class="cls-7"><path d="M210.73,93.77,202.1,97l-1.59.59a2.24,2.24,0,0,1-2.88-1.32L197.17,95h0l-2.31-6.21a2.24,2.24,0,0,1,1.31-2.88l2.22-.83h0l8-3a2.24,2.24,0,0,1,2.88,1.32l2.37,6.37.4,1.08A2.24,2.24,0,0,1,210.73,93.77Z"/></g><g class="cls-7"><path d="M245.89,81.72h0v0c0,.3,0,.59-.09.88s0,.31-.07.46,0,.15,0,.22,0,.16-.05.24l-.09.41-.12.45a2,2,0,0,1-.07.26l-.15.51.34,0a26,26,0,0,1-1.1,3.3c-1.09,2.75-.92,3.28-1.46,3.47a14.86,14.86,0,0,1-11.15-.92c-7.44-3.7-11-2.63-14.07-2.74-7.06-.24-13.23,2.06-14.43,3.11-.23.19-.44.39-.64.57s-.28.27-.41.41l-.17.16c-2.9,3-3.07,4.94-6.46,6.53a10.17,10.17,0,0,1-2.19.76,16,16,0,0,1-3.8.29c-1.39,0-3-.16-5-.32-6-.48-7.88-2-9.69-4.75-.46-.69-.84-1.34-1.16-1.94a1.3,1.3,0,0,1-.08-.17,8.37,8.37,0,0,1-1.13-3c.05-.19.11-.35.16-.51.62-1.83,1.22-2.08,1.92-3.21a10.29,10.29,0,0,0,1-2.31c.35-1,1-2.26,1.77-4.22h0l.2-.51c.4-1,.85-2.22,1.32-3.68.71-2.18,1.34-3.14,1.47-5.3a12.14,12.14,0,0,0,0-1.23,9.06,9.06,0,0,1-.07-2.06,3,3,0,0,1,.08-.36c.57-2.35,2.75-3.73,3.83-4.39a13.35,13.35,0,0,1,1.54-.8c3-1.32,5.71-1.14,8.88-1.57,8.54-1.17,8-5.14,16.08-6,2.22-.25,9-1,13,2.92,1.63,1.61,1.3,2.55,2.92,3.47,3.28,1.87,6.12-1.09,11,.37,1.54.46,3.57,1.46,4.19,2.59a3.18,3.18,0,0,1-1.16.94l1.35-.2a1.08,1.08,0,0,1,0,.19c-.26,1-2,1.72-5.91,3.41h0l-.45.2c-6.17,2.7-8.43,4-9.24,4.62a2.2,2.2,0,0,0-.21.19l-.08.09A.55.55,0,0,0,226,73v0a.67.67,0,0,0,.21.37,3.45,3.45,0,0,0,1.2.66h0a10.37,10.37,0,0,0,1.24.35,16.73,16.73,0,0,0,3.37.4,10.88,10.88,0,0,0,4-.55c3.07-1.19,3.94-1,5.2-.23.4.22.83.49,1.38.78,1.91,1,2.53,3.29,2.92,4.75a8.79,8.79,0,0,1,.22,1,8.43,8.43,0,0,1,.11.86h0v.07h0C245.88,81.58,245.89,81.65,245.89,81.72Z"/></g><path class="cls-8" d="M228.38,83.38l-2.31,8.92-.42,1.64a2.23,2.23,0,0,1-2.73,1.6l-7.7-2a2.23,2.23,0,0,1-1.61-2.72l.6-2.29h0l2.13-8.27a2.25,2.25,0,0,1,2.73-1.61l7.7,2A2.24,2.24,0,0,1,228.38,83.38Z"/><g class="cls-6"><path d="M226.07,92.3l-.42,1.64a2.23,2.23,0,0,1-2.73,1.6l-7.7-2a2.23,2.23,0,0,1-1.61-2.72l.6-2.29h0S215.37,94.51,226.07,92.3Z"/></g><path class="cls-8" d="M210.73,92.49,202.1,95.7l-1.59.59A2.24,2.24,0,0,1,197.63,95l-.46-1.24h0l-2.31-6.21a2.24,2.24,0,0,1,1.31-2.88l2.22-.82h0l8-3a2.24,2.24,0,0,1,2.88,1.32l2.37,6.38.4,1.07A2.24,2.24,0,0,1,210.73,92.49Z"/><path class="cls-9" d="M233.28,106.5a.75.75,0,0,1-.56-.21.74.74,0,0,0-.57-.22c-.53,0-.7.51-1.27.61s-1.57-.38-1.54-1,1.1-.94,1.1-1.62c0-.44-.46-.52-.31-.89s.48-.31,1.07-.82.53-.78,1-1a1.3,1.3,0,0,1,1.21,0c.28.25-.09.55.1,1a.67.67,0,0,0,.09.14h0c.31.44,1,.41,1,.85s-.35.39-.46.82c-.15.61.52.75.37,1.29A1.57,1.57,0,0,1,233.28,106.5Z"/><path class="cls-9" d="M227.83,102c0-.44.78-1.06.73-1.51,0-.3-.39-.19-.3-.49s.35-.39.76-1,.36-.73.69-1a1.4,1.4,0,0,1,.93-.43c.23.06,0,.41.15.64s.87-.07.91.25-.24.39-.29.73h0a.54.54,0,0,0,0,.18h0c.08.25.43.2.36.56a2.06,2.06,0,0,1-.87,1.09.53.53,0,0,1-.44.06.63.63,0,0,0-.46.07c-.4.22-.5.61-.93.9S227.84,102.43,227.83,102Z"/><path class="cls-9" d="M229.85,100.26s1.37,3.44,5.9,2.83l.15-.45a5.19,5.19,0,0,1-5.66-2.71C229.53,100.06,229.85,100.26,229.85,100.26Z"/><g class="cls-10"><path class="cls-11" d="M233.28,106.5a.75.75,0,0,1-.56-.21c1.46-.41.92-3.55.85-3.69.31.44,1,.41,1,.85s-.35.39-.46.82c-.15.61.52.75.37,1.29A1.57,1.57,0,0,1,233.28,106.5Z"/></g><g class="cls-10"><path class="cls-11" d="M230.9,101.07a.53.53,0,0,1-.44.06l.1-.07a2,2,0,0,0,.85-1.64c.08.25.43.2.36.56A2.06,2.06,0,0,1,230.9,101.07Z"/></g><path class="cls-12" d="M228.39,98.08v8.1a2.24,2.24,0,0,1-2.4,2.23l-11.44-.87-7.66-.59a2.23,2.23,0,0,1-2.06-2.22v-5a2.22,2.22,0,0,1,1.32-2l11.09-4.92a2.19,2.19,0,0,1,1.74,0L227,96A2.23,2.23,0,0,1,228.39,98.08Z"/><g class="cls-6"><path d="M214.55,107.54l-7.66-.59a2.23,2.23,0,0,1-2.06-2.22v-5s4.35,6.12,7.64,6.49A2.41,2.41,0,0,1,214.55,107.54Z"/></g><g class="cls-6"><path d="M227.16,98.32l-7.92,3.6a.12.12,0,0,0,.07.23c2.06-.47,6.15-1.32,6.69-.79.72.7,1.47,3.6,1.47,3.6S228.33,98.59,227.16,98.32Z"/></g><path class="cls-4" d="M282.15,100.89c0,8.81-7.56,16-70.87,16-65.73,0-70.87-7.15-70.87-16,0,3,31.73,5.38,70.87,5.38S282.15,103.86,282.15,100.89Z"/><g class="cls-13"><path d="M178.18,114.77s15.51,1.06,32.29,1.06,35.6-1.47,35.6-1.47S215.78,121.68,178.18,114.77Z"/></g><g class="cls-14"><path class="cls-11" d="M141,101.57s12.79,6.83,108.81,4C249.93,105.51,154.3,111.15,141,101.57Z"/></g><g class="cls-10"><ellipse class="cls-11" cx="250.32" cy="90.68" rx="2.87" ry="4.25" transform="translate(54.58 271.15) rotate(-62.59)"/></g><path class="cls-15" d="M267.29,69.53c-8.18-2.26-19.58.23-27.58,2.66-3.29,1-6,2-7.69,2.64-1.16.45-1.83.73-1.83.73l-1.54-1.13L227,73.24l-.68-.5-.18-.13-2.72-2,3.35-1.76,7.07-3.72,4.93-.74,1.94-.3,1.35-.2c9-1.34,22.18-3.27,22.66-3.15a3.39,3.39,0,0,1,.85.52C267.19,62.54,270.08,65.86,267.29,69.53Z"/><g class="cls-10"><path class="cls-11" d="M265.58,61.28c-2.18.33-11.33,1.7-13.09,1.86L242,64.1l-1.56.15-1.7.16,1.94-.3,1.35-.2c9-1.34,22.18-3.27,22.66-3.15A3.39,3.39,0,0,1,265.58,61.28Z"/></g><g class="cls-6"><path d="M225.59,69.05s27.81-4.27,29.82-3.54,0,1.19,0,1.19l-30.9,7.11-1.08-3.18Z"/></g><g class="cls-6"><path d="M210.73,92.49,202.1,95.7l-1.59.59A2.24,2.24,0,0,1,197.63,95l-.46-1.24.62.1c7.06,1.27,13.86-5.29,13.86-5.29l.4,1.07A2.24,2.24,0,0,1,210.73,92.49Z"/></g><path class="cls-16" d="M245.91,81.09c0,.21,0,.42,0,.63h0v0c0,.3,0,.59-.09.88s0,.31-.07.46,0,.15,0,.22,0,.16-.05.24l-.09.41-.12.45a2,2,0,0,1-.07.26l-.15.51c-.21.63-.43,1.22-.64,1.75l-.12.31c-.07.17-.13.33-.19.49a24.41,24.41,0,0,1-1,2.81h0a.72.72,0,0,1-.25.16,14.82,14.82,0,0,1-10.27-.51l-.2-.09c-.23-.1-.46-.2-.68-.32-7.44-3.7-11-2.63-14.07-2.74-7.06-.24-13.23,2.06-14.43,3.11l-.38.33-.18.17-.24.23-.41.4-.15.16c-.26.27-.5.53-.72.79l-.16.18h0l-.07.09-.07.08h0c-.27.33-.51.64-.73.94l-.27.35c-.21.29-.41.57-.62.84l-.13.18a1.71,1.71,0,0,1-.11.14l-.24.31c-.18.22-.37.44-.57.65l-.1.09c-.13.13-.26.26-.4.38l-.1.09-.22.18-.12.09-.12.09-.12.08-.12.09-.13.09-.14.08a8,8,0,0,1-1.06.57,1.59,1.59,0,0,1-.27.12l-.28.13-.16.06c-.28.11-.56.2-.84.28l-.13,0-.18,0h0l-.22,0-.07,0-.14,0-.26,0-.22,0-.12,0-.32,0-.52.06-.29,0h-.08l-.27,0c-.44,0-.9,0-1.39,0l-1,0h-.37l-.34,0H188l-1.3-.09-.28,0-.33,0h-.05l-.29,0-1.07-.09c-6-.48-7.88-2-9.69-4.75l-.22-.34-.22-.35-.1-.16c-.11-.18-.21-.35-.3-.52l0,0-.14-.25-.27-.51c0-.08-.09-.16-.12-.24a13.74,13.74,0,0,1-.82-1.94,1.31,1.31,0,0,1-.05-.15.29.29,0,0,1,0-.09,1.41,1.41,0,0,1-.09-.53s0-.1,0-.15l.09-.27a6.8,6.8,0,0,1,.35-.9.37.37,0,0,1,0-.11,1.17,1.17,0,0,1,.05-.11l.09-.17a.56.56,0,0,1,.05-.08.59.59,0,0,1,0-.08l.09-.14a6.68,6.68,0,0,1,.6-.82l.09-.12a8,8,0,0,0,.79-1.2c.07-.13.14-.28.21-.43v0a1.3,1.3,0,0,1,.08-.17c0-.1.09-.21.13-.32a2.49,2.49,0,0,0,.11-.29,1.34,1.34,0,0,0,.07-.18c0-.15.11-.31.16-.47.35-1,1-2.26,1.77-4.22h0c.45-1.11,1-2.48,1.52-4.19.71-2.16,1.34-3.13,1.46-5.25,0,0,0,0,0,0a10.51,10.51,0,0,0-.08-2,4.42,4.42,0,0,1,.08-1.64c.57-2.35,2.75-3.73,3.83-4.39a13.35,13.35,0,0,1,1.54-.8c3-1.32,5.71-1.14,8.88-1.57,8.54-1.17,8-5.14,16.08-6,2.22-.25,9-1,13,2.92,1.63,1.61,1.3,2.55,2.92,3.47,3.28,1.87,6.12-1.09,11,.37,1.85.56,4.42,1.89,4.38,3.29a1,1,0,0,1-.19.58,3.18,3.18,0,0,1-1.16.94l-.24.14c-1,.55-2.6,1.21-4.8,2.18-1.45.63-2.68,1.19-3.73,1.67h0c-5.76,2.68-6,3.27-6,3.63v0a.19.19,0,0,0,0,.07.13.13,0,0,0,0,.08l0,.06a.79.79,0,0,0,.12.15l.07.07.06,0,0,0,.09.06.22.14.09,0a7.42,7.42,0,0,0,1.16.45l.13,0q.35.1.72.18a14.85,14.85,0,0,0,1.6.26l.86.08h.29a15.42,15.42,0,0,0,2.36,0l.47,0h0l.46-.08.44-.1.41-.11A3.54,3.54,0,0,0,236,73l.28-.1.77-.28.41-.13.11,0,.36-.1.53-.11h.06l.28,0,.48,0h.16l.23,0h0l.15,0,.17,0,.17,0a2.19,2.19,0,0,1,.33.12l.05,0,.24.12c.37.18.75.42,1.21.68l.21.12.34.18c1.91,1,2.53,3.29,2.92,4.75a9.75,9.75,0,0,1,.33,1.85h0v.07h0C245.9,80.52,245.91,80.8,245.91,81.09Z"/><g class="cls-17"><path class="cls-15" d="M202.7,90.76c-3.47,3.26-3.43,5.4-7,7.09a10.17,10.17,0,0,1-2.19.76l-3.8.29c-1.39,0-3-.16-5-.32-6-.48-7.88-2-9.69-4.75s-2.45-4.85-2.37-5.11c1-3.27,1.85-2.27,3.1-6,.35-1,1-2.26,1.77-4.22h0c.45-1.11,1-2.48,1.52-4.19.71-2.17,1.34-3.14,1.47-5.3.1-1.88-.31-2.38,0-3.65.57-2.35,2.75-3.73,3.83-4.39a13.35,13.35,0,0,1,1.54-.8c1.55.49,2.91,1.27,2.94,2.44.09,2.75-7,14.81-4.84,18.65s7.79,9.22,10.93,9.45C196.69,90.81,200.1,90.79,202.7,90.76Z"/></g><g class="cls-6"><path d="M245.87,80.2l0-.21,0,.16h0Z"/></g><g class="cls-6"><path d="M242.62,73.55s-8.41,3.29-12.43,2c-3.7-1.18-4.15-3.44-4.19-3.79.22,1.38,6.79,2.5,10,1.23C240.07,71.44,240.3,72.34,242.62,73.55Z"/></g><g class="cls-6"><path d="M265.09,62c-.47.18-.39,1.46-.36,1.83.13,1.95,1.33,4,2,3.84s.82-1.7.55-2.93C266.94,63.21,265.66,61.83,265.09,62Z"/></g><g class="cls-10"><ellipse class="cls-11" cx="219.05" cy="56.1" rx="1.55" ry="3.32" transform="translate(68.41 224.74) rotate(-62.59)"/></g><g class="cls-10"><ellipse class="cls-11" cx="224.05" cy="97.23" rx="1.28" ry="0.88" transform="translate(-20.19 96.85) rotate(-23.37)"/></g><g class="cls-10"><ellipse class="cls-11" cx="221.68" cy="97.19" rx="0.66" ry="0.45" transform="translate(-20.37 95.91) rotate(-23.37)"/></g><g class="cls-10"><ellipse class="cls-11" cx="213.68" cy="55.34" rx="1.07" ry="1.51" transform="translate(66.18 219.55) rotate(-62.59)"/></g><g class="cls-6"><path d="M245.91,81.09c0,.21,0,.42,0,.63h0v0c0,.3,0,.59-.09.88s0,.31-.07.46,0,.15,0,.22,0,.16-.05.24l-.09.41-.12.45a2,2,0,0,1-.07.26l-.15.51c-.21.63-.43,1.22-.64,1.75l-.12.31c-.07.17-.13.33-.19.49-.73,2-.65,2.49-1,2.81h0l-.25.16c-2.08,1-6.06,1.3-10.27-.51l-.2-.09c-.23-.1-.46-.2-.68-.32-7.44-3.7-11-2.63-14.07-2.74-7.06-.24-13.23,2.06-14.43,3.11l-.38.33-.18.17-.24.23-.41.4-.15.16c-.26.27-.5.53-.72.79l-.16.18h0l-.07.09-.07.08c-.27.33-.51.64-.73.94l-.27.35c-.21.29-.41.57-.62.84l-.13.18a1.71,1.71,0,0,1-.11.14l-.24.31c-.18.22-.37.44-.57.65l-.1.09a4.83,4.83,0,0,1-.4.38l-.1.09-.22.18-.12.09-.12.09-.12.08-.12.09-.13.09-.14.08a8,8,0,0,1-1.06.57,1.59,1.59,0,0,1-.27.12l-.28.13-.16.06c-.28.11-.56.2-.84.28l-.13,0-.18,0h0l-.22,0-.07,0-.14,0-.26,0-.22,0-.12,0-.32,0-.52.06-.29,0h-.08l-.27,0c-.44,0-.9,0-1.39,0l-1,0h-.37l-.34,0H188l-1.3-.09-.28,0-.33,0h-.05l-.29,0-1.07-.09c-6-.48-7.88-2-9.69-4.75l-.22-.34-.22-.35-.1-.16c-.11-.18-.21-.35-.3-.52l0,0-.14-.25-.27-.51c0-.08-.09-.16-.12-.24a13.74,13.74,0,0,1-.82-1.94,1.31,1.31,0,0,1-.05-.15.29.29,0,0,1,0-.09,1.41,1.41,0,0,1-.09-.53s0-.1,0-.15l.09-.27a6.8,6.8,0,0,1,.35-.9.37.37,0,0,1,0-.11,1.17,1.17,0,0,1,.05-.11l.09-.17a.56.56,0,0,1,.05-.08.59.59,0,0,1,0-.08l.09-.14a6.68,6.68,0,0,1,.6-.82l.09-.12a8,8,0,0,0,.79-1.2c.07-.13.14-.28.21-.43v0a1.3,1.3,0,0,1,.08-.17c0-.1.09-.21.13-.32a2.49,2.49,0,0,0,.11-.29,1.34,1.34,0,0,0,.07-.18c0-.15.11-.31.16-.47.35-1,1-2.26,1.77-4.22,0,0,.07.31.2.77A29.35,29.35,0,0,0,180,84.89c2.29,4.28,6.3,8.31,12.41,3.46a24.15,24.15,0,0,1,7.69-3.8c12.49-3.93,30.56-2.48,32-.73,1.66,2,12.46-1.29,13.7-3.25a.64.64,0,0,0,.12-.34C245.9,80.52,245.91,80.8,245.91,81.09Z"/></g><path class="cls-9" d="M208.1,51.12a1.74,1.74,0,0,1-.42,1.34,1.81,1.81,0,0,0-.43,1.39c.15,1.24,1.31,1.58,1.65,2.91.41,1.63-.67,3.76-2.05,3.78s-2.4-2.45-4-2.35c-1,.07-1.17,1.17-2.06.89s-.82-1.1-2.11-2.41-1.93-1.14-2.44-2.16a3.07,3.07,0,0,1-.09-2.85c.54-.71,1.32.11,2.35-.41a1.48,1.48,0,0,0,.32-.21h0c1-.81.81-2.45,1.84-2.55.74-.08,1,.77,2,1,1.48.27,1.72-1.34,3-1A3.7,3.7,0,0,1,208.1,51.12Z"/><path class="cls-9" d="M198.36,64.7c-1,.11-2.62-1.69-3.69-1.51-.7.12-.37,1-1.09.79s-1-.77-2.39-1.67-1.78-.72-2.53-1.45a3.28,3.28,0,0,1-1.15-2.13c.1-.57,1,0,1.48-.46.68-.59-.3-2.05.45-2.21.49-.1,1,.52,1.77.59h0a.9.9,0,0,0,.42,0h0c.58-.21.4-1,1.25-.93a4.9,4.9,0,0,1,2.72,1.89,1.28,1.28,0,0,1,.22,1,1.41,1.41,0,0,0,.24,1.06c.58.92,1.51,1.09,2.25,2.07C199.25,62.94,199.3,64.6,198.36,64.7Z"/><path class="cls-9" d="M193.87,60.18s7.92-3.77,5.78-14.37l-1.07-.31s2.66,8.71-5.54,13.81C193.45,61,193.87,60.18,193.87,60.18Z"/><g class="cls-10"><path class="cls-11" d="M208.1,51.12a1.74,1.74,0,0,1-.42,1.34c-1.19-3.37-8.53-1.61-8.84-1.43,1-.81.81-2.45,1.84-2.55.74-.08,1,.77,2,1,1.48.27,1.72-1.34,3-1A3.7,3.7,0,0,1,208.1,51.12Z"/></g><g class="cls-10"><path class="cls-11" d="M195.62,57.57a1.28,1.28,0,0,1,.22,1l-.18-.24a4.7,4.7,0,0,0-4-1.76c.58-.21.4-1,1.25-.93A4.9,4.9,0,0,1,195.62,57.57Z"/></g><ellipse class="cls-18" cx="199.78" cy="71.76" rx="1.47" ry="1.36"/><ellipse class="cls-18" cx="216.27" cy="71.76" rx="1.47" ry="1.36"/><path class="cls-18" d="M208.36,75.47a6.9,6.9,0,0,1-3.91-1.12.35.35,0,0,1-.07-.48.34.34,0,0,1,.47-.07,6.35,6.35,0,0,0,3.51,1,6.71,6.71,0,0,0,3.58-1,.35.35,0,0,1,.48.08.34.34,0,0,1-.09.47A7.26,7.26,0,0,1,208.36,75.47Z"/><rect class="cls-19" y="0.25" width="300" height="165"/></g></g></svg>