<svg id="Layer_1" data-name="Layer 1" xmlns="http://www.w3.org/2000/svg" xmlns:xlink="http://www.w3.org/1999/xlink" viewBox="0 0 300 165"><defs><style>.cls-1{fill:none;}.cls-2{fill:#fce5cd;}.cls-3{fill:#fff;}.cls-4{opacity:0.38;}.cls-5{fill:#b3b3b3;}.cls-6{clip-path:url(#clip-path);}.cls-7{fill:#f28033;}.cls-8{clip-path:url(#clip-path-2);}.cls-9{opacity:0.35;}.cls-10{fill:#3f240f;}.cls-11{fill:url(#linear-gradient);}</style><clipPath id="clip-path"><path class="cls-1" d="M189.45,65.43s-.32,5.26,3.8,3.6,16.44-10.8,26-8.66,37.15,3.74,46,23.88c1.66,4.12,6.38,7.49,9.13,4.22s4.14-8.14,4.52-9.2-.66-6.63-2.41-9.76-14.4-23-35.26-27.53-32.44-3-39.54,1S189.5,49.89,189.45,65.43Z"/></clipPath><clipPath id="clip-path-2"><path class="cls-1" d="M247.19,112.5s-1.18,5.42-4.88,2.55-13.59-15.68-23.93-16.26-38.78-6.86-53.55,11c-2.87,3.7-8.62,5.76-10.48,1.66s-1.86-9.45-1.95-10.64,2.58-6.54,5.25-9.21,21.21-19.19,43.7-17.83,33.79,6.27,39.84,12.38S251.61,96.71,247.19,112.5Z"/></clipPath><linearGradient id="linear-gradient" x1="150.37" y1="168.37" x2="149.66" y2="1.92" gradientUnits="userSpaceOnUse"><stop offset="0.03" stop-color="#591c16"/><stop offset="0.22" stop-color="#5f241d" stop-opacity="0.96"/><stop offset="0.38" stop-color="#733c33" stop-opacity="0.84"/><stop offset="0.53" stop-color="#936459" stop-opacity="0.64"/><stop offset="0.68" stop-color="#c09d8d" stop-opacity="0.36"/><stop offset="0.82" stop-color="#fae5cf" stop-opacity="0"/></linearGradient></defs><rect class="cls-2" x="-0.27" y="-0.15" width="300" height="165"/><path class="cls-3" d="M198.8,64.13s-2.29,3.83,3.65,17.93a6.75,6.75,0,0,0,4.4,3.26c1.85.44,19.79-1.17,26.13.73s16,4.73,19.38,5.65,8.33.9,11-.57,8.6-11.62,8.6-11.62L243.19,54.23,207.67,57.4Z"/><g class="cls-4"><path class="cls-5" d="M198.36,68.28s11.61-5.48,17.33-5,18,2,25.33,5,19.11,16.28,21.31,17.87,7.86,3.33,7.86,3.33l-1.84-13.1L242.86,56.94c-.05,0-33.06-6.94-33.06-6.94l-13.54,4.23Z"/></g><g class="cls-6"><path class="cls-7" d="M189.45,65.43s-.32,5.26,3.8,3.6,16.44-10.8,26-8.66,37.15,3.74,46,23.88c1.66,4.12,6.38,7.49,9.13,4.22s4.14-8.14,4.52-9.2-.66-6.63-2.41-9.76-14.4-23-35.26-27.53-32.44-3-39.54,1S189.5,49.89,189.45,65.43Z"/><path class="cls-3" d="M195.79,69.41,195,69c4-7.71,7.89-16.32,7.54-17.4-.42-1.25-5.81-5-9.11-7.14l.51-.79s2.2,1.4,4.43,3C203,50,203.28,51,203.39,51.27,204.06,53.24,197.18,66.72,195.79,69.41Z"/><path class="cls-3" d="M205.47,68.22l-.74-.59c4.33-5.41,11.09-14.7,10.85-16.6S208,44,203.5,41.15l.5-.8c1.24.77,12.13,7.62,12.51,10.56S206.64,66.75,205.47,68.22Z"/><path class="cls-3" d="M217.21,66.74l-.62-.7s3.41-3,6.73-6.37c5.73-5.8,6.54-7.9,6.51-8.63-.09-2.35-9.72-9.23-15.77-13l.49-.8c1.65,1,16.08,10.17,16.22,13.78S218.61,65.51,217.21,66.74Z"/><path class="cls-3" d="M230.91,68.45l-.58-.74c.1-.08,10-7.93,11.7-11.2,1.18-2.27-6.44-12.2-11.52-17.92l.7-.63s3.39,3.83,6.49,8c6.41,8.62,5.47,10.41,5.16,11C241.06,60.39,231.33,68.12,230.91,68.45Z"/><path class="cls-3" d="M237.27,72.2l-.3-.89c.12,0,12.24-4.22,15.14-8.25,2.33-3.24-5.67-18.64-9-24.3l.82-.47c1.24,2.13,12,21,8.9,25.32S237.78,72,237.27,72.2Z"/><path class="cls-3" d="M245.9,76.43l-.14-.93c8.93-1.34,18.49-3.4,19.05-4.53s-2.77-14-6.24-25.45l.91-.28c1.21,4,7.21,24.06,6.17,26.15S250.28,75.78,245.9,76.43Z"/><path class="cls-3" d="M255.82,84.28h0l0-.94h.16c5.41-.19,14.18-1.1,15.22-2.77s0-15.29-1-24l.94-.11c.26,2.24,2.49,22,.87,24.57-.27.44-1.1,1.77-8.81,2.66C259.55,84.14,256.1,84.27,255.82,84.28Z"/></g><path class="cls-3" d="M239,105.53s1.57,4.44-7.47,17.8a7.08,7.08,0,0,1-5.23,2.47c-2,.07-16.46-2-23.44-2-6.25.08-21.3-1.08-25-.82s-8.81-.79-11.23-2.84-6.5-13.8-6.5-13.8L195.1,86.15l36.1,10.59Z"/><g class="cls-4"><path class="cls-5" d="M163.4,114.56a84.36,84.36,0,0,1,13.72-10.15c7.75-4.38,23.75-5.39,36.72-2.53s23.6,11,23.6,11l6.21-8.3-41.2-22.52-29.3,4.09-17.93,16.4Z"/></g><g class="cls-8"><path class="cls-7" d="M247.19,112.5s-1.18,5.42-4.88,2.55-13.59-15.68-23.93-16.26-38.78-6.86-53.55,11c-2.87,3.7-8.62,5.76-10.48,1.66s-1.86-9.45-1.95-10.64,2.58-6.54,5.25-9.21,21.21-19.19,43.7-17.83,33.79,6.27,39.84,12.38S251.61,96.71,247.19,112.5Z"/><path class="cls-3" d="M239.62,114.71l1-.2c-1.83-9-3.32-18.84-2.66-19.83.79-1.15,7.35-3.45,11.3-4.63l-.29-1s-2.64.8-5.36,1.78c-5.64,2-6.27,2.95-6.47,3.25C235.87,95.92,239,111.59,239.62,114.71Z"/><path class="cls-3" d="M230.13,110.72l.92-.38c-2.83-6.73-7-18.11-6.24-20s9.67-5,15.09-6.57l-.27-1c-1.48.43-14.5,4.25-15.73,7.13S229.37,108.9,230.13,110.72Z"/><path class="cls-3" d="M218.64,105.86l.84-.54s-2.6-4-5-8.4c-4.15-7.53-4.37-9.89-4.13-10.63.76-2.35,12.52-6.58,19.75-8.68l-.28-1c-2,.57-19.24,5.71-20.42,9.33S217.57,104.2,218.64,105.86Z"/><path class="cls-3" d="M204.24,103.66l.81-.59c-.08-.1-7.87-10.92-8.66-14.73-.55-2.64,10-10.53,16.83-14.88l-.53-.84c-.05,0-4.54,2.91-8.88,6.24-9,6.9-8.54,9-8.4,9.68C196.25,92.56,203.92,103.2,204.24,103.66Z"/><path class="cls-3" d="M196.71,105.63l.56-.81c-.11-.08-11.21-7.8-13-12.72-1.43-4,11.11-17.29,16.07-22.1l-.7-.71c-1.87,1.81-18.22,17.87-16.3,23.15S196.24,105.31,196.71,105.63Z"/><path class="cls-3" d="M186.73,107.46l.41-.91c-8.67-3.92-17.79-8.75-18-10.06S176,83,182.75,72.44l-.84-.54c-2.38,3.71-14.23,22.35-13.78,24.77S182.48,105.54,186.73,107.46Z"/><path class="cls-3" d="M174.41,112.58h0l.3-.94-.16-.06c-5.43-1.74-14.08-5.19-14.65-7.18s4.39-15.52,7.9-24L166.9,80c-.91,2.21-8.83,21.6-7.94,24.7.15.52.61,2.11,8.19,5.23C170.67,111.37,174.14,112.49,174.41,112.58Z"/></g><g class="cls-9"><ellipse class="cls-3" cx="260.31" cy="57.46" rx="3.03" ry="6.74" transform="matrix(0.61, -0.8, 0.8, 0.61, 56.79, 229.63)"/></g><g class="cls-9"><ellipse class="cls-3" cx="227.16" cy="85.38" rx="3.72" ry="8.25" transform="translate(73.71 273.37) rotate(-71.37)"/></g><g class="cls-9"><ellipse class="cls-3" cx="269.11" cy="64.79" rx="1.5" ry="1.63" transform="translate(54.43 239.51) rotate(-52.68)"/></g><circle class="cls-10" cx="187.11" cy="113.52" r="1.9"/><circle class="cls-10" cx="209.41" cy="113.52" r="1.9"/><path class="cls-10" d="M197.48,117.84a8.59,8.59,0,0,1-5.11-1.59.51.51,0,0,1-.08-.71.52.52,0,0,1,.71-.08,7.72,7.72,0,0,0,4.48,1.37,8.3,8.3,0,0,0,4.59-1.37.51.51,0,0,1,.71.09.52.52,0,0,1-.1.71A9.1,9.1,0,0,1,197.48,117.84Z"/><rect class="cls-11" width="300" height="165"/></svg>