<svg id="Layer_1" data-name="Layer 1" xmlns="http://www.w3.org/2000/svg" xmlns:xlink="http://www.w3.org/1999/xlink" viewBox="0 0 300 165"><defs><style>.cls-1{fill:#fce5cd;}.cls-2{fill:#fff;}.cls-3{opacity:0.1;}.cls-4{fill:#487233;}.cls-5{fill:#e0af82;}.cls-6{fill:url(#linear-gradient);}</style><linearGradient id="linear-gradient" x1="150.37" y1="168.37" x2="149.66" y2="1.92" gradientUnits="userSpaceOnUse"><stop offset="0.03" stop-color="#591c16"/><stop offset="0.22" stop-color="#5f241d" stop-opacity="0.96"/><stop offset="0.38" stop-color="#733c33" stop-opacity="0.84"/><stop offset="0.53" stop-color="#936459" stop-opacity="0.64"/><stop offset="0.68" stop-color="#c09d8d" stop-opacity="0.36"/><stop offset="0.82" stop-color="#fae5cf" stop-opacity="0"/></linearGradient></defs><rect class="cls-1" x="-0.27" y="-0.15" width="300" height="165"/><path class="cls-2" d="M277.72,90.69a13.94,13.94,0,0,1-12,13.75,59.09,59.09,0,0,1-10.7-.31c-2.46-.23-5.23-.57-8.24-1A149.17,149.17,0,0,1,232,100c-8.3-2.2-14.08-4.84-18-7.42a27.68,27.68,0,0,1-2.67-2,14.72,14.72,0,0,1-3.77-4.47c-1.92-3.84-1.54-8.41.13-13.11h0c4.59-12.94,18.93-26.91,21.89-29.78,4.23-4.12,9.05-8.28,13.63-8.71,3.06-.28,6.29.88,9.49,3.1h0C265.64,46.53,278.11,72.63,277.72,90.69Z"/><path d="M263,104.84c-1.94,0-4.6-.12-7.91-.44-2.67-.25-5.44-.61-8.26-1.06A146.49,146.49,0,0,1,232,100.21c-7.51-2-13.59-4.5-18.06-7.46a28.68,28.68,0,0,1-2.7-2,15.3,15.3,0,0,1-3.83-4.56c-1.79-3.57-1.75-8,.1-13.28h0v0c3-8.39,10.78-19,22-29.89a56.1,56.1,0,0,1,6.72-5.76,15.15,15.15,0,0,1,7.08-3c3-.28,6.25.78,9.66,3.15h0c6.2,4.32,12.59,12.79,17.53,23.25S278.17,82.09,278,90.7h0a14.23,14.23,0,0,1-12.2,14A24.25,24.25,0,0,1,263,104.84ZM208,73l0,0c-1.82,5.11-1.86,9.46-.14,12.9a14.77,14.77,0,0,0,3.7,4.39,30.69,30.69,0,0,0,2.64,2c4.43,2.92,10.45,5.41,17.91,7.39a145.9,145.9,0,0,0,14.75,3.12c2.81.45,5.58.8,8.23,1.06a59.66,59.66,0,0,0,10.64.31,13.71,13.71,0,0,0,11.72-13.5c.38-17.7-11.92-43.9-24.83-52.88h0c-3.3-2.29-6.43-3.32-9.3-3-4.5.42-9.34,4.6-13.48,8.63C218.72,54.18,211,64.71,208,73Z"/><g class="cls-3"><path d="M277.72,90.69a13.94,13.94,0,0,1-12,13.75,59.09,59.09,0,0,1-10.7-.31c-2.46-.23-5.23-.57-8.24-1A149.17,149.17,0,0,1,232,100c-8.3-2.2-14.08-4.84-18-7.42a27.68,27.68,0,0,1-2.67-2,14.72,14.72,0,0,1-3.77-4.47c-1.92-3.84-1.54-8.41.13-13.11,1.06,11.9,15.3,17.2,30.17,20.3s26.54-.54,30-8.9-15-46.52-15.17-46.8h0C265.64,46.53,278.11,72.63,277.72,90.69Z"/></g><path d="M255.06,104.13c-2.46-.23-5.23-.57-8.24-1A149.17,149.17,0,0,1,232,100c-8.3-2.2-14.08-4.84-18-7.42-.49-4.08,4.8-18.11,9.52-26A3.9,3.9,0,0,1,228,64.74a71.51,71.51,0,0,0,26.25,2.52,2,2,0,0,1,2.16,2.41C255.25,75.53,253,89.91,255.06,104.13Z"/><circle class="cls-2" cx="227.69" cy="83.05" r="1.05"/><circle class="cls-2" cx="243" cy="85.19" r="1.05"/><path class="cls-2" d="M235.82,86.81a4.89,4.89,0,0,1-.75,0,5,5,0,0,1-2.84-1.34.54.54,0,0,1,.78-.74,4.12,4.12,0,0,0,2.21,1,4.32,4.32,0,0,0,2.46-.38.54.54,0,1,1,.52.94A5.14,5.14,0,0,1,235.82,86.81Z"/><polygon class="cls-4" points="244.14 60.8 243.04 61.43 240.64 57.33 241.74 56.71 244.14 60.8"/><path class="cls-2" d="M257.64,106.45a15.72,15.72,0,0,1-13.45,15.48,67.4,67.4,0,0,1-12-.35c-2.76-.27-5.88-.65-9.27-1.19a166.61,166.61,0,0,1-16.62-3.52c-9.33-2.48-15.84-5.45-20.23-8.35a32.08,32.08,0,0,1-3-2.23,16.55,16.55,0,0,1-4.24-5c-2.16-4.33-1.73-9.46.15-14.75h0C184.11,72,200.24,56.25,203.56,53c4.75-4.63,10.18-9.3,15.33-9.78,3.44-.33,7.07,1,10.67,3.48h0C244.05,56.79,258.07,86.15,257.64,106.45Z"/><path d="M241,122.33c-2.18,0-5.16-.13-8.89-.49-3-.28-6.12-.68-9.29-1.19a166.43,166.43,0,0,1-16.65-3.52c-8.45-2.24-15.28-5.06-20.31-8.38a32.7,32.7,0,0,1-3-2.26,17,17,0,0,1-4.3-5.11c-2-4-2-9,.12-14.92h0v0C182,77,190.8,65.06,203.37,52.82a63.72,63.72,0,0,1,7.55-6.48,17,17,0,0,1,8-3.38c3.37-.32,7,.87,10.85,3.53h0c7,4.85,14.16,14.38,19.71,26.13s8.67,24.16,8.47,33.83h0a16,16,0,0,1-13.69,15.73A27.65,27.65,0,0,1,241,122.33ZM179.21,86.56l0,0c-2.05,5.76-2.1,10.66-.16,14.54a16.54,16.54,0,0,0,4.17,4.94,32.07,32.07,0,0,0,3,2.22c5,3.28,11.76,6.08,20.15,8.31a165.25,165.25,0,0,0,16.59,3.51c3.17.5,6.28.9,9.26,1.19a67.94,67.94,0,0,0,12,.35,15.45,15.45,0,0,0,13.22-15.21c.2-9.59-2.86-21.83-8.41-33.59s-12.64-21.12-19.53-25.92h0c-3.71-2.58-7.24-3.74-10.48-3.44-5.07.48-10.52,5.18-15.18,9.72C191.25,65.38,182.54,77.22,179.21,86.56Z"/><g class="cls-3"><path d="M257.64,106.45a15.72,15.72,0,0,1-13.45,15.48,67.4,67.4,0,0,1-12-.35c-2.76-.27-5.88-.65-9.27-1.19a166.61,166.61,0,0,1-16.62-3.52c-9.33-2.48-15.84-5.45-20.23-8.35a32.08,32.08,0,0,1-3-2.23,16.55,16.55,0,0,1-4.24-5c-2.16-4.33-1.73-9.46.15-14.75,1.19,13.38,17.21,19.35,33.94,22.84s29.84-.61,33.73-10S229.7,47,229.55,46.7h0C244.05,56.79,258.07,86.15,257.64,106.45Z"/></g><path d="M232.15,121.58c-2.76-.27-5.88-.65-9.27-1.19a166.61,166.61,0,0,1-16.62-3.52c-9.33-2.48-15.84-5.45-20.23-8.35-.54-4.58,5.4-20.36,10.72-29.3a4.38,4.38,0,0,1,5-2,80.54,80.54,0,0,0,29.52,2.84,2.26,2.26,0,0,1,2.43,2.71C232.36,89.4,229.8,105.57,232.15,121.58Z"/><circle class="cls-2" cx="201.37" cy="97.87" r="1.18"/><circle class="cls-2" cx="218.59" cy="100.27" r="1.18"/><path class="cls-2" d="M210.51,102a6.38,6.38,0,0,1-.84-.06,5.68,5.68,0,0,1-3.15-1.49.54.54,0,0,1,.78-.74,4.68,4.68,0,0,0,2.52,1.16,5,5,0,0,0,2.81-.42.54.54,0,0,1,.53.94A6,6,0,0,1,210.51,102Z"/><rect class="cls-4" x="205.49" y="59.37" width="1.7" height="6.42" transform="matrix(1, 0.09, -0.09, 1, 6.07, -17.33)"/><path class="cls-2" d="M231.25,122.59a16.36,16.36,0,0,1-14,16.11,69.56,69.56,0,0,1-12.53-.37c-2.88-.27-6.13-.67-9.65-1.23a174.28,174.28,0,0,1-17.3-3.67c-9.72-2.58-16.49-5.67-21.06-8.68a35.17,35.17,0,0,1-3.12-2.33,17.44,17.44,0,0,1-4.42-5.23c-2.24-4.51-1.8-9.85.16-15.36h0C154.71,86.69,171.5,70.33,175,67c5-4.83,10.6-9.69,16-10.19,3.58-.34,7.36,1,11.1,3.63h0C217.11,70.9,231.7,101.45,231.25,122.59Z"/><path d="M214,139.11c-2.26,0-5.37-.14-9.26-.51-3.11-.3-6.36-.71-9.66-1.24a173.85,173.85,0,0,1-17.33-3.67c-8.79-2.33-15.9-5.27-21.13-8.72a33.24,33.24,0,0,1-3.16-2.34,18,18,0,0,1-4.48-5.32c-2.08-4.18-2-9.4.13-15.52h0l0-.05c3.48-9.81,12.6-22.22,25.69-35A64,64,0,0,1,182.63,60c3.06-2.13,5.77-3.29,8.26-3.52,3.51-.33,7.3.91,11.29,3.68h0c7.25,5,14.73,15,20.51,27.19s9,25.14,8.81,35.21h0A16.63,16.63,0,0,1,217.28,139,29.39,29.39,0,0,1,214,139.11ZM149.6,101.88l0,0c-2.13,6-2.19,11.1-.16,15.15a17,17,0,0,0,4.34,5.14,31.63,31.63,0,0,0,3.1,2.31c5.18,3.42,12.24,6.33,21,8.65a172.66,172.66,0,0,0,17.27,3.66c3.29.52,6.53.94,9.64,1.23a69.1,69.1,0,0,0,12.46.37A16.09,16.09,0,0,0,231,122.59c.21-10-3-22.73-8.76-35s-13.15-22-20.33-27l0,0c-3.87-2.69-7.54-3.89-10.92-3.57-5.28.49-10.95,5.39-15.8,10.11C162.13,79.83,153.07,92.16,149.6,101.88Z"/><g class="cls-3"><path d="M231.25,122.59a16.36,16.36,0,0,1-14,16.11,69.56,69.56,0,0,1-12.53-.37c-2.88-.27-6.13-.67-9.65-1.23a174.28,174.28,0,0,1-17.3-3.67c-9.72-2.58-16.49-5.67-21.06-8.68a35.17,35.17,0,0,1-3.12-2.33,17.44,17.44,0,0,1-4.42-5.23c-2.24-4.51-1.8-9.85.16-15.36,1.24,13.93,17.92,20.14,35.33,23.77s31.06-.62,35.11-10.42S202.16,60.72,202,60.4h0C217.11,70.9,231.7,101.45,231.25,122.59Z"/></g><path d="M204.72,138.33c-2.88-.27-6.13-.67-9.65-1.23a174.28,174.28,0,0,1-17.3-3.67c-9.72-2.58-16.49-5.67-21.06-8.68-.56-4.78,5.62-21.2,11.16-30.5a4.53,4.53,0,0,1,5.2-2,83.93,83.93,0,0,0,30.73,3A2.35,2.35,0,0,1,206.33,98C204.93,104.84,202.27,121.68,204.72,138.33Z"/><circle class="cls-2" cx="172.68" cy="113.65" r="1.23"/><circle class="cls-2" cx="190.6" cy="116.15" r="1.23"/><path class="cls-2" d="M182.19,118a6.55,6.55,0,0,1-.86-.06,5.82,5.82,0,0,1-3.27-1.54.53.53,0,0,1,0-.76.55.55,0,0,1,.76,0,4.88,4.88,0,0,0,2.63,1.22,5.15,5.15,0,0,0,2.94-.45.54.54,0,0,1,.73.21.53.53,0,0,1-.2.73A6.08,6.08,0,0,1,182.19,118Z"/><ellipse class="cls-5" cx="187.92" cy="62.31" rx="0.72" ry="1.35" transform="translate(2.05 130.49) rotate(-38.49)"/><ellipse class="cls-5" cx="232.6" cy="58.37" rx="0.72" ry="1.35" transform="translate(14.21 157.44) rotate(-38.49)"/><ellipse class="cls-5" cx="238.52" cy="51.55" rx="0.72" ry="1.35" transform="translate(19.74 159.65) rotate(-38.49)"/><ellipse class="cls-5" cx="246.05" cy="37.73" rx="0.72" ry="1.35" transform="translate(29.98 161.33) rotate(-38.49)"/><ellipse class="cls-5" cx="204.07" cy="75.59" rx="0.72" ry="1.35" transform="translate(-2.71 143.43) rotate(-38.49)"/><ellipse class="cls-5" cx="215.37" cy="46.7" rx="0.72" ry="1.35" transform="translate(17.73 144.19) rotate(-38.49)"/><ellipse class="cls-5" cx="224.88" cy="47.24" rx="0.72" ry="1.35" transform="translate(19.46 150.22) rotate(-38.49)"/><ellipse class="cls-5" cx="204.07" cy="77.39" rx="1.35" ry="0.72" transform="translate(44.28 226.04) rotate(-63.7)"/><ellipse class="cls-5" cx="223.81" cy="76.13" rx="1.35" ry="0.72" transform="translate(56.39 243.04) rotate(-63.7)"/><ellipse class="cls-5" cx="222.73" cy="51.55" rx="1.35" ry="0.72" transform="translate(77.83 228.38) rotate(-63.7)"/><ellipse class="cls-5" cx="194.92" cy="61.06" rx="1.35" ry="0.72" transform="translate(53.82 208.75) rotate(-63.7)"/><ellipse class="cls-5" cx="211.6" cy="52.45" rx="1.35" ry="0.72" transform="translate(70.83 218.91) rotate(-63.7)"/><ellipse class="cls-5" cx="243" cy="55.5" rx="1.35" ry="0.72" transform="translate(85.59 248.76) rotate(-63.7)"/><ellipse class="cls-5" cx="257.72" cy="49.22" rx="1.35" ry="0.72" transform="translate(99.41 258.45) rotate(-63.7)"/><ellipse class="cls-5" cx="197.07" cy="89.95" rx="1.35" ry="0.72" transform="translate(29.12 226.77) rotate(-63.7)"/><ellipse class="cls-5" cx="189.53" cy="77.39" rx="1.35" ry="0.72" transform="translate(36.18 213.01) rotate(-63.7)"/><rect class="cls-4" x="185.77" y="61.87" width="1.7" height="9.33" transform="translate(58.27 -84.39) rotate(30)"/><polygon class="cls-4" points="221.42 71.02 220.32 70.39 223.81 64.44 224.91 65.07 221.42 71.02"/><polygon class="cls-4" points="247.16 42.75 246.12 42.16 248.75 37.71 249.78 38.3 247.16 42.75"/><polygon class="cls-4" points="220.88 53.19 219.78 52.56 223.27 46.61 224.37 47.24 220.88 53.19"/><rect class="cls-4" x="204.78" y="70.49" width="1.7" height="6.42" transform="translate(-9.3 112.69) rotate(-30)"/><polygon class="cls-4" points="219.2 63.13 218.1 63.76 215.7 59.66 216.8 59.04 219.2 63.13"/><polygon class="cls-4" points="223.82 50.97 222.72 51.6 220.32 47.5 221.42 46.88 223.82 50.97"/><polygon class="cls-4" points="250.31 48.36 249.4 48.88 247.78 46.14 248.69 45.62 250.31 48.36"/><rect class="cls-4" x="195.98" y="61.7" width="1.7" height="6.42" transform="matrix(1, 0.09, -0.09, 1, 6.24, -16.51)"/><polygon class="cls-4" points="234.46 60.29 233.19 60.18 233.6 55.47 234.86 55.58 234.46 60.29"/><rect class="cls-4" x="189.71" y="73.01" width="1.7" height="6.42" transform="translate(37.8 213.28) rotate(-63.7)"/><rect class="cls-4" x="177.86" y="68.88" width="1.7" height="6.42" transform="translate(77.22 235.9) rotate(-80.19)"/><polygon class="cls-4" points="238.52 62.82 238.3 64.05 233.56 63.24 233.78 62.01 238.52 62.82"/><polygon class="cls-4" points="235.69 43.76 234.8 43.68 235.09 40.4 235.97 40.47 235.69 43.76"/><polygon class="cls-4" points="238.52 45.52 238.37 46.38 235.06 45.81 235.22 44.96 238.52 45.52"/><polygon class="cls-4" points="214.83 54.58 214.61 55.81 209.87 55.01 210.09 53.78 214.83 54.58"/><polygon class="cls-4" points="258.26 48.8 258.09 49.74 254.6 49.15 254.77 48.21 258.26 48.8"/><rect class="cls-4" x="193.19" y="75.04" width="1.73" height="3.36" transform="translate(138.53 277.87) rotate(-96.14)"/><rect class="cls-4" x="161.79" y="87.42" width="1.73" height="3.36" transform="translate(91.46 260.36) rotate(-96.14)"/><polygon class="cls-4" points="213.47 52.95 213.61 54.21 211.1 54.48 210.96 53.21 213.47 52.95"/><polygon class="cls-4" points="243.25 53.66 243.39 54.93 240.89 55.2 240.75 53.93 243.25 53.66"/><rect class="cls-4" x="198.02" y="60.79" width="1.37" height="5.17" transform="matrix(-0.11, -0.99, 0.99, -0.11, 156.95, 267.73)"/><rect class="cls-4" x="189.67" y="57.03" width="1.37" height="3.4" transform="translate(-5.19 20.7) rotate(-6.14)"/><rect class="cls-4" x="196.13" y="86.28" width="1.37" height="3.4" transform="translate(265.98 292.16) rotate(-132.8)"/><polygon class="cls-4" points="221.84 66.45 222.53 67.19 220.66 68.89 219.97 68.15 221.84 66.45"/><ellipse class="cls-5" cx="192.23" cy="72.36" rx="0.72" ry="1.35"/><ellipse class="cls-5" cx="238.52" cy="70.93" rx="0.72" ry="1.35"/><ellipse class="cls-5" cx="252.33" cy="44.55" rx="0.72" ry="1.35"/><ellipse class="cls-5" cx="211.6" cy="64.83" rx="0.72" ry="1.35"/><ellipse class="cls-5" cx="200.12" cy="66.98" rx="0.72" ry="1.35"/><ellipse class="cls-5" cx="224.88" cy="65.54" rx="0.72" ry="1.35"/><ellipse class="cls-5" cx="239.24" cy="42.04" rx="0.72" ry="1.35"/><ellipse class="cls-5" cx="178.41" cy="70.21" rx="1.35" ry="0.72" transform="translate(-13.26 74.9) rotate(-22.88)"/><ellipse class="cls-5" cx="165.13" cy="86.18" rx="0.72" ry="1.35"/><ellipse class="cls-5" cx="203.53" cy="59.08" rx="0.72" ry="1.35"/><ellipse class="cls-5" cx="167.47" cy="88.51" rx="0.72" ry="1.35" transform="matrix(0.29, -0.96, 0.96, 0.29, 33.91, 222.83)"/><ellipse class="cls-5" cx="213.58" cy="69.49" rx="0.72" ry="1.35" transform="translate(84.74 253.47) rotate(-73.02)"/><rect class="cls-6" width="300" height="165"/></svg>