<svg xmlns="http://www.w3.org/2000/svg" xmlns:xlink="http://www.w3.org/1999/xlink" viewBox="0 0 300 165"><defs><style>.cls-1{isolation:isolate;}.cls-2{fill:#fce5cd;}.cls-3{fill:#474849;}.cls-4{fill:#efa441;}.cls-5{fill:#ffc76c;}.cls-6{opacity:0.78;}.cls-7{opacity:0.58;}.cls-10,.cls-13,.cls-16,.cls-7{mix-blend-mode:soft-light;}.cls-8{fill:#a37738;}.cls-9{fill:#2e7915;}.cls-10{opacity:0.47;}.cls-11{fill:#bbf9bf;}.cls-12{fill:#c1272d;}.cls-13{opacity:0.81;}.cls-14{fill:#fff;}.cls-15{fill:#54422e;}.cls-16{opacity:0.82;}.cls-17{fill:url(#linear-gradient);}</style><linearGradient id="linear-gradient" x1="150.37" y1="168.37" x2="149.66" y2="1.92" gradientUnits="userSpaceOnUse"><stop offset="0.03" stop-color="#591c16"/><stop offset="0.22" stop-color="#5f241d" stop-opacity="0.96"/><stop offset="0.38" stop-color="#733c33" stop-opacity="0.84"/><stop offset="0.53" stop-color="#936459" stop-opacity="0.64"/><stop offset="0.68" stop-color="#c09d8d" stop-opacity="0.36"/><stop offset="0.82" stop-color="#fae5cf" stop-opacity="0"/></linearGradient></defs><g class="cls-1"><g id="Layer_1" data-name="Layer 1"><rect class="cls-2" x="-0.27" y="-0.15" width="300" height="165"/><circle class="cls-3" cx="210.89" cy="83.2" r="62.11"/><circle class="cls-4" cx="211.02" cy="84.82" r="50.44"/><path class="cls-5" d="M261.34,83.2a50.42,50.42,0,1,1-.89-9.46h0A49.91,49.91,0,0,1,261.34,83.2Z"/><g class="cls-6"><g class="cls-7"><path d="M172.05,83.37a6.63,6.63,0,0,1,6.32-.51c2.36,1.13,1.91,3,4.32,5.17,3.32,2.94,8,2.73,9.58,2.66,4.07-.18,4.46-1.75,7.9-2.14a15.37,15.37,0,0,1,13.55,5.86c3.89,5.27,2.89,12.34.62,16.68-5.88,11.28-25,13.17-30.72,6.92-4.42-4.82.74-12.75-5.18-18.77-3.45-3.5-7.3-2.95-8.76-6.84C168.64,89.61,169.13,85.35,172.05,83.37Z"/></g><g class="cls-7"><path d="M188.05,76c-.48-.22-6.52-3.12-6.67-7.57-.16-4.65,6.31-5.58,8.77-12.54,2.12-6-1.34-9,.75-11.87,4.26-5.79,26-3.48,29.39,7.24C223,59.74,212.93,69.16,206.67,73,204.36,74.38,195.75,79.61,188.05,76Z"/></g><g class="cls-7"><path d="M226.85,61.18c3.71.32,3.12,7.44,9.62,11.15,5,2.87,8.76.55,11.38,3.72,2.28,2.77,1.87,7.48.21,10.5-3.63,6.64-15.63,9.35-23.4,3.94-5.94-4.15-7.58-11.78-6.56-17.5S223.23,60.86,226.85,61.18Z"/></g><g class="cls-7"><path d="M219.74,123.33c-1.69-.66.45-10.22,1.24-13.74.68-3,1-4.55,1.54-5.42,4.62-7.68,22.91-8.1,25.75-2.46,1.65,3.27-1.46,9.4-5.82,11.57-4.69,2.34-7.84-1.41-13.27.7C222.83,116.46,221.22,123.92,219.74,123.33Z"/></g></g><rect class="cls-8" x="210.74" y="32.75" width="0.31" height="100.89"/><rect class="cls-8" x="160.45" y="83.04" width="100.89" height="0.31"/><rect class="cls-8" x="160.64" y="83.24" width="100.89" height="0.31" transform="translate(1.3 170) rotate(-43.99)"/><rect class="cls-8" x="210.74" y="32.75" width="0.31" height="100.89" transform="translate(4.05 176.02) rotate(-45.7)"/><path class="cls-9" d="M216.82,67l.4.17.74.32a1.18,1.18,0,0,0,1.56-.57l2.81-6a1.12,1.12,0,0,0-.58-1.51l-1.14-.5a1,1,0,0,0-.36-.1,1.19,1.19,0,0,0-1.2.67l-2.81,6A1.13,1.13,0,0,0,216.82,67Z"/><g class="cls-10"><path class="cls-11" d="M216.82,67l.4.17c-.19-1.32,2.12-6.43,3-8.37a1.19,1.19,0,0,0-1.2.67l-2.81,6A1.13,1.13,0,0,0,216.82,67Z"/></g><path class="cls-9" d="M222,54.84l.08.42.15.8a1.21,1.21,0,0,0,1.35,1L230.09,56a1.13,1.13,0,0,0,.92-1.34l-.23-1.22a1.11,1.11,0,0,0-.13-.36,1.18,1.18,0,0,0-1.22-.61l-6.56,1.07A1.13,1.13,0,0,0,222,54.84Z"/><g class="cls-10"><path class="cls-11" d="M222,54.84l.08.42c1-.9,6.51-1.87,8.62-2.22a1.18,1.18,0,0,0-1.22-.61l-6.56,1.07A1.13,1.13,0,0,0,222,54.84Z"/></g><path class="cls-9" d="M199.46,118.44l.4.18.74.32a1.19,1.19,0,0,0,1.56-.57l2.81-6a1.12,1.12,0,0,0-.59-1.51l-1.13-.49a1,1,0,0,0-.37-.1,1.17,1.17,0,0,0-1.19.66l-2.82,6A1.12,1.12,0,0,0,199.46,118.44Z"/><g class="cls-10"><path class="cls-11" d="M199.46,118.44l.4.18c-.2-1.32,2.11-6.43,3-8.37a1.17,1.17,0,0,0-1.19.66l-2.82,6A1.12,1.12,0,0,0,199.46,118.44Z"/></g><path class="cls-9" d="M207.41,116.6l.29.06.55.1a.83.83,0,0,0,1-.63l.93-4.5a.77.77,0,0,0-.64-.92l-.84-.16h-.26a.81.81,0,0,0-.7.64l-.93,4.49A.77.77,0,0,0,207.41,116.6Z"/><g class="cls-10"><path class="cls-11" d="M207.41,116.6l.29.06c-.34-.86.4-4.66.7-6.11a.81.81,0,0,0-.7.64l-.93,4.49A.77.77,0,0,0,207.41,116.6Z"/></g><path class="cls-9" d="M200.25,41.29l.21.21.39.4A.81.81,0,0,0,202,42l3.38-3.1a.77.77,0,0,0,0-1.12l-.6-.62a.74.74,0,0,0-.2-.16.81.81,0,0,0-.94.11l-3.39,3.1A.79.79,0,0,0,200.25,41.29Z"/><g class="cls-10"><path class="cls-11" d="M200.25,41.29l.21.21c.22-.89,3-3.55,4.14-4.55a.81.81,0,0,0-.94.11l-3.39,3.1A.79.79,0,0,0,200.25,41.29Z"/></g><path class="cls-9" d="M202.23,123.36l.25.35.47.66a1.2,1.2,0,0,0,1.63.32l5.51-3.71a1.12,1.12,0,0,0,.28-1.6l-.72-1a1,1,0,0,0-.26-.27,1.19,1.19,0,0,0-1.37,0l-5.51,3.71A1.13,1.13,0,0,0,202.23,123.36Z"/><g class="cls-10"><path class="cls-11" d="M202.23,123.36l.25.35c.52-1.23,5.13-4.41,6.91-5.61a1.19,1.19,0,0,0-1.37,0l-5.51,3.71A1.13,1.13,0,0,0,202.23,123.36Z"/></g><path class="cls-9" d="M229,113.7l0,.44-.09.8a1.19,1.19,0,0,0,1,1.32l6.58.95a1.13,1.13,0,0,0,1.28-1l.14-1.24a1.15,1.15,0,0,0,0-.37,1.18,1.18,0,0,0-1-.95l-6.58-1A1.13,1.13,0,0,0,229,113.7Z"/><g class="cls-10"><path class="cls-11" d="M229,113.7l0,.44c1.21-.57,6.77.15,8.89.46a1.18,1.18,0,0,0-1-.95l-6.58-1A1.13,1.13,0,0,0,229,113.7Z"/></g><path class="cls-9" d="M233.41,92.81v.43l0,.81a1.19,1.19,0,0,0,1.19,1.16l6.64-.1a1.11,1.11,0,0,0,1.1-1.18l0-1.24a1.43,1.43,0,0,0-.07-.37,1.18,1.18,0,0,0-1.12-.79l-6.65.09A1.12,1.12,0,0,0,233.41,92.81Z"/><g class="cls-10"><path class="cls-11" d="M233.41,92.81v.43c1.11-.75,6.71-.89,8.86-.92a1.18,1.18,0,0,0-1.12-.79l-6.65.09A1.12,1.12,0,0,0,233.41,92.81Z"/></g><path class="cls-9" d="M240.11,84.42l-.24.54-.43,1a1.61,1.61,0,0,0,.77,2.1l8.1,3.79a1.51,1.51,0,0,0,2-.79l.67-1.53a1.28,1.28,0,0,0,.13-.49,1.59,1.59,0,0,0-.89-1.61l-8.11-3.8A1.52,1.52,0,0,0,240.11,84.42Z"/><g class="cls-10"><path class="cls-11" d="M240.11,84.42l-.24.54c1.78-.26,8.67,2.86,11.28,4.08a1.59,1.59,0,0,0-.89-1.61l-8.11-3.8A1.52,1.52,0,0,0,240.11,84.42Z"/></g><path class="cls-9" d="M191.4,93.73,191,94l-.68.43a1.2,1.2,0,0,0-.41,1.61l3.41,5.7a1.12,1.12,0,0,0,1.58.36l1-.66a1.31,1.31,0,0,0,.28-.24,1.19,1.19,0,0,0,.12-1.37L193,94.1A1.13,1.13,0,0,0,191.4,93.73Z"/><g class="cls-10"><path class="cls-11" d="M191.4,93.73,191,94c1.2.57,4.13,5.35,5.23,7.2a1.19,1.19,0,0,0,.12-1.37L193,94.1A1.13,1.13,0,0,0,191.4,93.73Z"/></g><path class="cls-12" d="M192.15,62l-.26.16-.48.31a.83.83,0,0,0-.29,1.13l2.4,4a.79.79,0,0,0,1.11.26l.74-.47a1.12,1.12,0,0,0,.2-.17.83.83,0,0,0,.08-1l-2.39-4A.79.79,0,0,0,192.15,62Z"/><g class="cls-13"><path class="cls-14" d="M192.15,62l-.26.16c.84.41,2.9,3.77,3.68,5.07a.83.83,0,0,0,.08-1l-2.39-4A.79.79,0,0,0,192.15,62Z"/></g><path class="cls-12" d="M171.05,70.12l-.27.46-.52.86a1.48,1.48,0,0,0,.45,2l6.92,4.39a1.39,1.39,0,0,0,1.94-.48l.79-1.31a1.58,1.58,0,0,0,.18-.43,1.46,1.46,0,0,0-.63-1.57L173,69.64A1.41,1.41,0,0,0,171.05,70.12Z"/><g class="cls-13"><path class="cls-14" d="M171.05,70.12l-.27.46c1.64,0,7.52,3.61,9.76,5a1.46,1.46,0,0,0-.63-1.57L173,69.64A1.41,1.41,0,0,0,171.05,70.12Z"/></g><path class="cls-12" d="M182.08,112.8l.53.09,1,.17a1.47,1.47,0,0,0,1.7-1.13l1.61-8a1.39,1.39,0,0,0-1.15-1.64l-1.51-.26a1.42,1.42,0,0,0-.46,0,1.47,1.47,0,0,0-1.24,1.15l-1.61,8A1.39,1.39,0,0,0,182.08,112.8Z"/><g class="cls-13"><path class="cls-14" d="M182.08,112.8l.53.09c-.62-1.52.65-8.32,1.17-10.91a1.47,1.47,0,0,0-1.24,1.15l-1.61,8A1.39,1.39,0,0,0,182.08,112.8Z"/></g><path class="cls-12" d="M191.68,110.61l.25,0,.47.08a.7.7,0,0,0,.82-.54l.78-3.87a.67.67,0,0,0-.55-.79l-.73-.13a.81.81,0,0,0-.22,0,.69.69,0,0,0-.6.55l-.78,3.87A.68.68,0,0,0,191.68,110.61Z"/><g class="cls-13"><path class="cls-14" d="M191.68,110.61l.25,0c-.3-.73.32-4,.57-5.25a.69.69,0,0,0-.6.55l-.78,3.87A.68.68,0,0,0,191.68,110.61Z"/></g><path class="cls-12" d="M213.64,102.52l.12.23.22.42a.71.71,0,0,0,.94.31l3.53-1.77a.67.67,0,0,0,.28-.92l-.35-.65a.59.59,0,0,0-.13-.18.68.68,0,0,0-.8-.13l-3.53,1.77A.67.67,0,0,0,213.64,102.52Z"/><g class="cls-13"><path class="cls-14" d="M213.64,102.52l.12.23c.39-.69,3.35-2.22,4.49-2.79a.68.68,0,0,0-.8-.13l-3.53,1.77A.67.67,0,0,0,213.64,102.52Z"/></g><path class="cls-12" d="M205.82,40.1l.12.23.22.42a.71.71,0,0,0,.94.31l3.52-1.77a.67.67,0,0,0,.29-.92l-.35-.65a.83.83,0,0,0-.13-.18.73.73,0,0,0-.81-.13l-3.52,1.77A.66.66,0,0,0,205.82,40.1Z"/><g class="cls-13"><path class="cls-14" d="M205.82,40.1l.12.23c.39-.69,3.35-2.22,4.49-2.79a.73.73,0,0,0-.81-.13l-3.52,1.77A.66.66,0,0,0,205.82,40.1Z"/></g><path class="cls-12" d="M256.13,74l.25,0,.47.08a.7.7,0,0,0,.82-.55l.78-3.87a.67.67,0,0,0-.55-.79l-.73-.12a.55.55,0,0,0-.22,0,.71.71,0,0,0-.6.55l-.77,3.87A.67.67,0,0,0,256.13,74Z"/><g class="cls-13"><path class="cls-14" d="M256.13,74l.25,0c-.3-.74.32-4,.57-5.26a.71.71,0,0,0-.6.55l-.77,3.87A.67.67,0,0,0,256.13,74Z"/></g><path class="cls-12" d="M187.64,46.19l-.14.23-.26.42a.73.73,0,0,0,.23,1l3.45,2.2a.69.69,0,0,0,1-.24l.4-.66a.6.6,0,0,0,.08-.21.71.71,0,0,0-.31-.79L188.61,46A.69.69,0,0,0,187.64,46.19Z"/><g class="cls-13"><path class="cls-14" d="M187.64,46.19l-.14.23c.82,0,3.76,1.8,4.87,2.51a.71.71,0,0,0-.31-.79L188.61,46A.69.69,0,0,0,187.64,46.19Z"/></g><path class="cls-12" d="M246.7,95.3l0,.27-.11.5a.76.76,0,0,0,.56.89l4.1,1a.72.72,0,0,0,.86-.56l.16-.77a1,1,0,0,0,0-.24.76.76,0,0,0-.57-.65l-4.1-1A.71.71,0,0,0,246.7,95.3Z"/><g class="cls-13"><path class="cls-14" d="M246.7,95.3l0,.27c.79-.29,4.25.47,5.58.77a.76.76,0,0,0-.57-.65l-4.1-1A.71.71,0,0,0,246.7,95.3Z"/></g><path class="cls-12" d="M233.15,103.55l-.37.08-.69.14a1,1,0,0,0-.81,1.19l1,5.65a1,1,0,0,0,1.18.77l1.05-.22a.79.79,0,0,0,.3-.12,1,1,0,0,0,.51-1.06l-1-5.66A1,1,0,0,0,233.15,103.55Z"/><g class="cls-13"><path class="cls-14" d="M233.15,103.55l-.37.08c.8.83,1.73,5.59,2.07,7.41a1,1,0,0,0,.51-1.06l-1-5.66A1,1,0,0,0,233.15,103.55Z"/></g><path class="cls-12" d="M226.52,70.39l.4.28.74.53a1.35,1.35,0,0,0,1.85-.26L234,65a1.27,1.27,0,0,0-.3-1.8l-1.13-.81a1.23,1.23,0,0,0-.38-.19,1.32,1.32,0,0,0-1.47.45l-4.49,6A1.27,1.27,0,0,0,226.52,70.39Z"/><g class="cls-13"><path class="cls-14" d="M226.52,70.39l.4.28c.09-1.49,3.82-6.58,5.27-8.5a1.32,1.32,0,0,0-1.47.45l-4.49,6A1.27,1.27,0,0,0,226.52,70.39Z"/></g><path class="cls-12" d="M221.1,49l.21.22.38.4a.81.81,0,0,0,1.13,0l3.37-3a.78.78,0,0,0,0-1.11l-.59-.62a1,1,0,0,0-.2-.15.8.8,0,0,0-.93.1l-3.37,3A.78.78,0,0,0,221.1,49Z"/><g class="cls-13"><path class="cls-14" d="M221.1,49l.21.22c.22-.89,3-3.49,4.12-4.47a.8.8,0,0,0-.93.1l-3.37,3A.78.78,0,0,0,221.1,49Z"/></g><path class="cls-9" d="M177.85,65.27l.11.42.19.78a1.2,1.2,0,0,0,1.41.89L186,65.91a1.11,1.11,0,0,0,.84-1.38l-.3-1.21a1,1,0,0,0-.15-.34,1.17,1.17,0,0,0-1.25-.55l-6.49,1.45A1.13,1.13,0,0,0,177.85,65.27Z"/><g class="cls-10"><path class="cls-11" d="M177.85,65.27l.11.42c.92-1,6.38-2.25,8.47-2.71a1.17,1.17,0,0,0-1.25-.55l-6.49,1.45A1.13,1.13,0,0,0,177.85,65.27Z"/></g><path class="cls-9" d="M182.16,57.47l0,.5-.07.93a1.38,1.38,0,0,0,1.21,1.49l7.64.79A1.28,1.28,0,0,0,192.32,60l.12-1.43a1.21,1.21,0,0,0,0-.43,1.36,1.36,0,0,0-1.17-1.06l-7.64-.79A1.3,1.3,0,0,0,182.16,57.47Z"/><g class="cls-10"><path class="cls-11" d="M182.16,57.47l0,.5c1.37-.71,7.82-.12,10.28.14a1.36,1.36,0,0,0-1.17-1.06l-7.64-.79A1.3,1.3,0,0,0,182.16,57.47Z"/></g><circle class="cls-15" cx="195.88" cy="82.67" r="2.05"/><circle class="cls-15" cx="225.91" cy="82.67" r="2.05"/><path class="cls-15" d="M211.06,87.25a9.18,9.18,0,0,1-5.45-1.69.47.47,0,1,1,.58-.73h0a8.5,8.5,0,0,0,4.87,1.48,9,9,0,0,0,5-1.49.47.47,0,0,1,.57.75A9.83,9.83,0,0,1,211.06,87.25Z"/><g class="cls-16"><path class="cls-14" d="M260.45,73.74c-24.8-46.85-74.78-34.24-74.78-34.24a50.46,50.46,0,0,1,74.78,34.24Z"/></g><rect class="cls-17" width="300" height="165"/></g></g></svg>