<svg xmlns="http://www.w3.org/2000/svg" xmlns:xlink="http://www.w3.org/1999/xlink" viewBox="0 0 300 165"><defs><style>.cls-1{isolation:isolate;}.cls-2{fill:#fce5cd;}.cls-3{fill:#f9dca0;}.cls-4{opacity:0.81;}.cls-11,.cls-4,.cls-7,.cls-9{mix-blend-mode:soft-light;}.cls-5{fill:#dd7b4a;}.cls-6{fill:#e5884a;}.cls-7{opacity:0.48;}.cls-8{fill:#94619b;}.cls-9{opacity:0.52;}.cls-10{fill:#fff;}.cls-11{opacity:0.36;}.cls-12{fill:#3f240f;}.cls-13{fill:url(#linear-gradient);}</style><linearGradient id="linear-gradient" x1="150.37" y1="168.37" x2="149.66" y2="1.92" gradientUnits="userSpaceOnUse"><stop offset="0.03" stop-color="#591c16"/><stop offset="0.22" stop-color="#5f241d" stop-opacity="0.96"/><stop offset="0.38" stop-color="#733c33" stop-opacity="0.84"/><stop offset="0.53" stop-color="#936459" stop-opacity="0.64"/><stop offset="0.68" stop-color="#c09d8d" stop-opacity="0.36"/><stop offset="0.82" stop-color="#fae5cf" stop-opacity="0"/></linearGradient></defs><g class="cls-1"><g id="Layer_1" data-name="Layer 1"><rect class="cls-2" x="-0.27" y="-0.15" width="300" height="165"/><path class="cls-3" d="M265.79,92.76v34.56a2.4,2.4,0,0,1-2.77,2.37l-95.86-15.44a2.39,2.39,0,0,1-2-2.36c0-1.54,0-3.86,0-6.65v-.79c0-3.26,0-7.08,0-11V77.13c0-2.07,0-3.89,0-5.36a2.4,2.4,0,0,1,2.91-2.34l33.37,7.31,59.76,13.08h0l2.73.6A2.39,2.39,0,0,1,265.79,92.76Z"/><g class="cls-4"><path d="M265.79,120.48v6.84a2.4,2.4,0,0,1-2.77,2.37l-95.86-15.44a2.39,2.39,0,0,1-2-2.36c0-1.54,0-3.86,0-6.65v-.79l1.68,1s-1.12,5.22,0,6.1,91.8,15.88,93.3,15.71,4.44-1.55,4.64-4.28S265.79,120.48,265.79,120.48Z"/></g><path class="cls-5" d="M265.73,107.25V118L165.08,102.77c0-3.42,0-7.54,0-11.77l2.57.42,97.26,15.7Z"/><path class="cls-6" d="M165.13,73.23v-6.8a2.39,2.39,0,0,1,.92-1.89c5.49-4.3,33.95-26.34,43.55-29.13a3.12,3.12,0,0,1,2.8.53c8.57,6.64,46.4,41.82,52.53,47.52a2.63,2.63,0,0,1,.84,1.93v5Z"/><g class="cls-7"><path d="M265.79,94.82v9.28a11.86,11.86,0,0,1-7.67.2c-5.55-1.79-6.07-7.11-10.33-7-3.25,0-5,3.17-7.5,1.91-1.66-.84-1.54-2.54-3.17-3-2.56-.8-5.45,2.58-5.83,3-2.68,3.2-1.9,5.9-3.84,6.85-2.24,1.11-6-1.2-6.33-3.62-.27-1.86,1.58-3.11,1-4.76a2.77,2.77,0,0,0-2.5-1.71c-1.93,0-2.45,2.59-4,2.47s-2.77-3-3.17-4.57a22.9,22.9,0,0,1-.34-3.24c-.65-3.42-4.74-6.42-8.5-6.47-4-.07-7.27,3.13-8.17,4a23.37,23.37,0,0,1-2.5,2.28,11.74,11.74,0,0,1-4.33,2.48c-1.37.27-2.56-.25-10.34-6.29-2.8-2.18-3.41-2.71-4.66-2.86-2.69-.31-3.63,1.71-6.34,1.34a6.39,6.39,0,0,1-2.14-.73V78.47c4.86-1.46,19.49-1.67,36.29-.4,21.81,1.66,47.29,5.84,59.76,13.08h0A24.13,24.13,0,0,1,265,93.8,5.55,5.55,0,0,1,265.79,94.82Z"/></g><path class="cls-8" d="M164,75.33a14.46,14.46,0,0,0-1.6,4.54c-.13,1.64,2.31,3.84,4.83,4.19,2.71.37,3.65-1.65,6.34-1.34,1.25.15,1.86.68,4.66,2.86,7.78,6,9,6.56,10.34,6.29a11.74,11.74,0,0,0,4.33-2.48,24.48,24.48,0,0,0,2.5-2.28c.9-.87,4.21-4.07,8.17-4,3.76,0,7.85,3,8.5,6.47a22.9,22.9,0,0,0,.34,3.24c.4,1.53,1.55,4.45,3.17,4.57s2.07-2.47,4-2.47a2.77,2.77,0,0,1,2.5,1.71c.58,1.65-1.27,2.9-1,4.76.35,2.42,4.09,4.73,6.33,3.62,1.94-1,1.16-3.65,3.84-6.85.38-.47,3.27-3.85,5.83-3,1.63.51,1.51,2.21,3.17,3,2.5,1.26,4.25-1.86,7.5-1.91,4.26-.06,4.78,5.26,10.33,7,4.4,1.41,9.63-.12,10.17-2.48.45-1.93-2.13-7-3.33-8C246.8,77.13,171,71,164,75.33Z"/><g class="cls-9"><ellipse class="cls-10" cx="177.72" cy="100.18" rx="2.15" ry="6.53" transform="translate(53.96 262.37) rotate(-82.06)"/></g><g class="cls-9"><ellipse class="cls-10" cx="238.07" cy="108.02" rx="2.15" ry="6.53" transform="translate(98.21 328.89) rotate(-82.06)"/></g><g class="cls-9"><ellipse class="cls-10" cx="246.41" cy="111.49" rx="1.53" ry="3.09" transform="translate(101.97 340.14) rotate(-82.06)"/></g><path class="cls-3" d="M265.79,87.11v4.41a1.07,1.07,0,0,1-1.25,1.06l-25-4.25L166,75.78a1.07,1.07,0,0,1-.89-1.06V68.65a1.08,1.08,0,0,1,.41-.85l.12-.09.19-.15h0l.13-.1.06,0,.15-.11,0,0,.15-.12.89-.68.23-.18.49-.37.25-.19,1.89-1.43.17-.12a1.09,1.09,0,0,1,.17-.13l.49-.37,1.1-.83.68-.5,1.06-.79.36-.27,2.42-1.79.67-.49.65-.47.44-.33,1.39-1L181.44,56l2-1.45.48-.34c2.28-1.61,4.61-3.23,6.92-4.79l.9-.6.52-.35.82-.55.89-.58.7-.46.48-.31.47-.3,1-.62.85-.53,0,0,.46-.28c1.09-.68,2.15-1.32,3.17-1.91l1.14-.65,1.22-.67.38-.2,1.12-.58.29-.14.48-.23.63-.29h0l.6-.26.09,0,.27-.11.3-.12.3-.11.28-.11.25-.08.06,0,.18-.06.32-.09.19,0,.52-.12.21,0,.25,0a1.09,1.09,0,0,1,.66.19c.38.26.87.63,1.47,1.1l.28.22c.39.31.83.66,1.3,1,.16.12.32.26.48.39l.37.3h0c4.05,3.33,10.26,8.67,17,14.51,3.17,2.77,6.47,5.65,9.7,8.49l1.1,1,3.51,3.08.66.58,8,7.06.52.47.89.79.44.38,7.76,6.88.19.17.94.84A1.1,1.1,0,0,1,265.79,87.11Z"/><g class="cls-9"><ellipse class="cls-10" cx="224.04" cy="100.25" rx="2.16" ry="1.25" transform="translate(71.64 292.65) rotate(-75.72)"/></g><g class="cls-9"><ellipse cx="188.16" cy="65.75" rx="1.58" ry="4.72" transform="translate(82.46 234.74) rotate(-77.24)"/></g><g class="cls-9"><ellipse cx="171.89" cy="88.68" rx="1.58" ry="5.78" transform="translate(68.41 252.09) rotate(-84.95)"/></g><g class="cls-9"><ellipse cx="254.74" cy="123.02" rx="1.58" ry="5.78" transform="translate(109.76 365.94) rotate(-84.95)"/></g><g class="cls-9"><ellipse cx="231.73" cy="120.52" rx="1.58" ry="5.78" transform="translate(91.27 340.74) rotate(-84.95)"/></g><g class="cls-9"><ellipse cx="223.42" cy="117.23" rx="1.58" ry="3.42" transform="translate(86.97 329.46) rotate(-84.95)"/></g><g class="cls-9"><ellipse cx="177.78" cy="88.6" rx="1.58" ry="3" transform="translate(73.87 257.89) rotate(-84.95)"/></g><g class="cls-9"><ellipse cx="210.94" cy="62.49" rx="1.58" ry="2.78" transform="translate(103.39 254.42) rotate(-77.24)"/></g><g class="cls-9"><ellipse cx="245.45" cy="76.49" rx="1.58" ry="2.78" transform="translate(116.62 298.98) rotate(-77.24)"/></g><g class="cls-9"><ellipse cx="219.03" cy="62.04" rx="1.58" ry="6.8" transform="translate(79.92 242.24) rotate(-68.15)"/></g><g class="cls-9"><path d="M265.79,86.63v4.89a1.07,1.07,0,0,1-1.25,1.06l-25-4.25L166,75.78a1.07,1.07,0,0,1-.89-1.06v-6.6l.41-.32.12-.09.19-.15h0l.13-.1.06,0,.15-.11,0,0,.15-.12.89-.68.23-.18.49-.37.25-.19,1.89-1.43.17-.12a1.09,1.09,0,0,1,.17-.13l.49-.37,1.1-.83.68-.5,1.06-.79.36-.27,2.42-1.79.67-.49.65-.47.44-.33,1.39-1L181.44,56l2-1.45.48-.34c2.28-1.61,4.61-3.23,6.92-4.79l.9-.6.52-.35.82-.55.89-.58.7-.46.48-.31.47-.3,1-.62.85-.53,0,0,.46-.28c1.09-.68,2.15-1.32,3.17-1.91l1.14-.65,1.22-.67.38-.2,1.12-.58.29-.14.48-.23.63-.29h0l.6-.26.09,0,.27-.11.3-.12.3-.11.28-.11.25-.08.06,0,.18-.06.32-.09.19,0,.52-.12.21,0,.25,0,.36,0,.3.21c.38.26.87.63,1.47,1.1l.28.22c.39.31.83.66,1.3,1l.48.39.37.3c-.14,0-4.89-1.29-8.67,1.66s-33.67,22-33.34,23,2,3.07,17,5.87l.19,0L240.39,82s14.57,2.83,15.9,0c.86-1.82-22.49-23.49-24.54-25.33h0c3.17,2.77,6.47,5.65,9.7,8.49l1.1,1,3.51,3.08.66.58,8,7.06.52.47.89.79.44.38,7.76,6.88.19.17.94.84Z"/></g><g class="cls-11"><path d="M265.73,107.33V118L165.08,102.74c0-3.42,0-7.55,0-11.79l2.57.42s-1.07,6.55,0,8.24.73,2.52,2.9,2.85S259.23,116,260.73,115.8s3-.83,3.34-2.5.83-6.2.83-6.2Z"/></g><circle class="cls-12" cx="200.55" cy="65.21" r="2"/><circle class="cls-12" cx="229.65" cy="69.26" r="2"/><path class="cls-12" d="M216,71.83a11,11,0,0,1-1.37-.09,9.06,9.06,0,0,1-5.08-2.39.5.5,0,0,1,0-.71.49.49,0,0,1,.7,0h0a8.26,8.26,0,0,0,4.5,2.09,8.72,8.72,0,0,0,5-.77.5.5,0,0,1,.49.87A9.27,9.27,0,0,1,216,71.83Z"/><rect class="cls-13" width="300" height="165"/></g></g></svg>