<svg xmlns="http://www.w3.org/2000/svg" xmlns:xlink="http://www.w3.org/1999/xlink" viewBox="0 0 300 165.5"><defs><style>.cls-1{isolation:isolate;}.cls-2{fill:#fce5cd;}.cls-3{fill:#d6b396;}.cls-4{fill:#5e6851;}.cls-5{fill:#ef9850;}.cls-6{fill:#bc7235;}.cls-7{opacity:0.48;}.cls-14,.cls-15,.cls-17,.cls-7,.cls-9{mix-blend-mode:soft-light;}.cls-8{fill:#f2e1d7;}.cls-10{fill:#8e3f13;}.cls-11{fill:#e09aef;}.cls-12{fill:#00922b;}.cls-13{fill:#dd2a22;}.cls-14{opacity:0.45;}.cls-15{opacity:0.52;}.cls-16{fill:#ffe8d9;}.cls-17{opacity:0.49;}.cls-18{fill:#fff;}.cls-19{fill:url(#linear-gradient);}</style><linearGradient id="linear-gradient" x1="150.37" y1="168.62" x2="149.66" y2="2.17" gradientUnits="userSpaceOnUse"><stop offset="0.03" stop-color="#591c16"/><stop offset="0.22" stop-color="#5f241d" stop-opacity="0.96"/><stop offset="0.38" stop-color="#733c33" stop-opacity="0.84"/><stop offset="0.53" stop-color="#936459" stop-opacity="0.64"/><stop offset="0.68" stop-color="#c09d8d" stop-opacity="0.36"/><stop offset="0.82" stop-color="#fae5cf" stop-opacity="0"/></linearGradient></defs><g class="cls-1"><g id="Layer_1" data-name="Layer 1"><rect class="cls-2" y="0.25" width="300" height="165"/><ellipse class="cls-3" cx="219.7" cy="73.36" rx="60.63" ry="12.27"/><path class="cls-4" d="M160,76.63a7.49,7.49,0,0,1-1.31-1.83,5.29,5.29,0,0,1-.42-1.07,2.89,2.89,0,0,1-.09-.61,3.08,3.08,0,0,1,.07-.61,4.28,4.28,0,0,1,1.14-2,10,10,0,0,1,1.73-1.41,23.29,23.29,0,0,1,3.89-2c1.34-.54,2.7-1,4.08-1.42,2.75-.83,5.55-1.48,8.36-2.05s5.64-1,8.47-1.42c5.68-.78,11.38-1.31,17.09-1.66S214.48,60,220.21,60s11.44.13,17.16.47,11.42.85,17.1,1.63c2.85.39,5.68.85,8.5,1.41a84.86,84.86,0,0,1,8.39,2.07,42.15,42.15,0,0,1,4.11,1.49c.67.29,1.34.6,2,1a15,15,0,0,1,1.92,1.21A7.47,7.47,0,0,1,281.07,71a4.16,4.16,0,0,1,.57,1.2,4,4,0,0,1,.13.69c0,.12,0,.24,0,.36s0,.22,0,.33a8.5,8.5,0,0,1-.23,1.16,9.13,9.13,0,0,1-.41,1.1,5.73,5.73,0,0,1-.63,1,3.21,3.21,0,0,1-1,.84L279,77a5.22,5.22,0,0,0,.73-1.68,11.64,11.64,0,0,0,.36-1.89,1.83,1.83,0,0,0,0-.21,1.09,1.09,0,0,0,0-.18,2.25,2.25,0,0,0-.06-.36,2.65,2.65,0,0,0-.35-.72,5.59,5.59,0,0,0-1.3-1.32,17.71,17.71,0,0,0-3.55-2,41.13,41.13,0,0,0-3.94-1.44,81.66,81.66,0,0,0-8.22-2.07c-2.78-.56-5.58-1-8.39-1.43a260.12,260.12,0,0,0-34.06-2.25c-5.69,0-11.39.09-17.08.39s-11.36.78-17,1.51c-2.82.37-5.63.79-8.43,1.31s-5.57,1.14-8.29,1.93c-1.36.39-2.71.83-4,1.34a22.69,22.69,0,0,0-3.77,1.84A9.2,9.2,0,0,0,160,71a3.46,3.46,0,0,0-1,1.64,1.68,1.68,0,0,0,0,.89,4.74,4.74,0,0,0,.34.93,6.53,6.53,0,0,0,1.15,1.67Z"/><path class="cls-5" d="M244.28,58.76a.32.32,0,0,1-.06.18h0l-3.56,4.88-2.6,3.56-.58.8-.26.35-1.89,2.6-.18.25-5.47,7.5h0a.32.32,0,0,1-.59-.17c0-.13,0-.28,0-.43V78c0-.1,0-.22,0-.34a1.09,1.09,0,0,1,0-.18l0-.38c0-.13,0-.26,0-.4s0-.12,0-.19c0-.32.07-.66.11-1l0-.27c0-.2.05-.41.08-.62l.06-.42c0-.09,0-.18,0-.26s.05-.34.08-.52,0-.17,0-.26a2.38,2.38,0,0,1,.05-.26l0-.27c0-.17.07-.35.1-.53.09-.48.19-1,.3-1.45.06-.24.11-.47.17-.7l.09-.35c0-.09.05-.19.08-.29s0-.21.09-.32a1.92,1.92,0,0,1,.09-.32l.09-.32c.16-.5.32-1,.5-1.49l.21-.53c0-.09.07-.17.1-.26l.12-.26c.08-.19.16-.38.25-.57l.12-.25.15-.3.14-.27c.08-.16.17-.31.25-.45a3.37,3.37,0,0,1,.19-.32l.12-.2h0l.05-.08a10.39,10.39,0,0,1,6.44-4.46h0l.31-.07h0a15.18,15.18,0,0,1,4.22-.32A.3.3,0,0,1,244.28,58.76Z"/><path class="cls-6" d="M244.28,58.76a.94.94,0,0,0-.06.18h0a9.91,9.91,0,0,0-2.72-.07,11,11,0,0,0-8,4.84c-.12.17-.25.36-.37.55l-.26.42a19.58,19.58,0,0,0-2,4.73c0,.09,0,.19-.08.29a38.45,38.45,0,0,0-1.15,9.18h0a.32.32,0,0,1-.59-.17c0-.13,0-.28,0-.43V78c0-.1,0-.22,0-.34a1.09,1.09,0,0,1,0-.18l0-.38c0-.13,0-.26,0-.4s0-.12,0-.19c0-.32.07-.66.11-1l0-.27c0-.2.05-.41.08-.62l.06-.42c0-.09,0-.18,0-.26s.05-.34.08-.52,0-.17,0-.26a2.38,2.38,0,0,1,.05-.26l0-.27c0-.17.07-.35.1-.53.09-.48.19-1,.3-1.45.06-.24.11-.47.17-.7l.09-.35c0-.09.05-.19.08-.29s0-.21.09-.32a1.92,1.92,0,0,1,.09-.32l.09-.32c.16-.5.32-1,.5-1.49l.21-.53c0-.09.07-.17.1-.26l.12-.26c.08-.19.16-.38.25-.57l.12-.25.15-.3.14-.27c.08-.16.17-.31.25-.45a3.37,3.37,0,0,1,.19-.32l.12-.2h0l.05-.08a10.39,10.39,0,0,1,6.44-4.46h0l.31-.07h0a15.18,15.18,0,0,1,4.22-.32A.3.3,0,0,1,244.28,58.76Z"/><g class="cls-7"><path d="M241.7,73.61l-.73-.29-5.64-2.19-4.42-1.72-.39-.16L220,65.14a.4.4,0,0,1-.16-.12.29.29,0,0,1,.07-.41,14.51,14.51,0,0,1,5.33-2.49,10.5,10.5,0,0,1,3.48-.2,9.63,9.63,0,0,1,1.38.51,16.52,16.52,0,0,1,2.55,1.48,3.37,3.37,0,0,1,.19-.32l.12-.2h0a6.16,6.16,0,0,1,.55.33,26.2,26.2,0,0,1,4.56,3.67l-.58.8a49.27,49.27,0,0,1,4.19,5.12A.28.28,0,0,1,241.7,73.61Z"/></g><path class="cls-5" d="M241.7,73.61a.35.35,0,0,1-.43.16h0l-6.11-2.38-4.32-1.68-.39-.16L218.28,64.8h0a.31.31,0,0,1-.15-.12.28.28,0,0,1,.06-.41,14.54,14.54,0,0,1,5.36-2.49,10.29,10.29,0,0,1,5.15.14,9.63,9.63,0,0,1,1.38.51,16.52,16.52,0,0,1,2.55,1.48l.5.35c.4.29.79.6,1.17.91h0l1,.87,0,0,.57.53h0c.54.52,1.07,1,1.56,1.57a49.27,49.27,0,0,1,4.19,5.12A.28.28,0,0,1,241.7,73.61Z"/><path class="cls-6" d="M241.7,73.61a.35.35,0,0,1-.43.16h0l-.29-.44a43.1,43.1,0,0,0-3.75-4.79,25.31,25.31,0,0,0-4.35-3.85c-.16-.11-.32-.22-.49-.32a12.84,12.84,0,0,0-7.16-2.24,10.83,10.83,0,0,0-6.94,2.68h0l-.15-.12a.28.28,0,0,1,.06-.41c1.34-1,5.64-3.78,10.51-2.35a9.63,9.63,0,0,1,1.38.51,16.52,16.52,0,0,1,2.55,1.48l.5.35a32.71,32.71,0,0,1,4.35,3.92,49.27,49.27,0,0,1,4.19,5.12A.28.28,0,0,1,241.7,73.61Z"/><path class="cls-8" d="M207.11,82.49a22.37,22.37,0,0,1-1.91,4.12,22.85,22.85,0,0,1-42.52-10.35,24.65,24.65,0,0,1,.11-4.14c1.14-10.46,9-17.87,21.46-18.55,9.83-.54,16.94,3,20.8,9.18h0a22.91,22.91,0,0,1,3.27,11A22.65,22.65,0,0,1,207.11,82.49Z"/><g class="cls-9"><path d="M207.11,82.49c-1.58-.69-2.56-1.5-1.09-2.2,3.41-1.62-1-17.54-1-17.54h0a22.91,22.91,0,0,1,3.27,11A22.65,22.65,0,0,1,207.11,82.49Z"/></g><path class="cls-10" d="M278.06,78.85c-.53,4.76-16.47,9.78-81.73,11.38.19-7,2-9.25,3.57-10,1.43-.69,2.69-.17,5.26-1.36,1.65-.76,3.54-1.64,3.91-3.23a2.32,2.32,0,0,0,0-1.2h0a4.28,4.28,0,0,0-.4-.91c-.75-1.36-2.08-2.7-1.78-4.68a4.21,4.21,0,0,1,.66-1.66h0a6.86,6.86,0,0,1,.53-.71,5.31,5.31,0,0,1,3.5-1.7c3-.44,7.64.15,14.88,1.08,2.32.29,4.91.62,7.79,1,6.58.78,7.71.78,9,.68,4.3-.32,6.46-1.45,10.19-.51,1.79.46,1.44.75,4.59,1.87a40.66,40.66,0,0,0,8.15,2c5.52.76,6.68-.43,8.67.85C277.57,73.48,278.2,77.58,278.06,78.85Z"/><path class="cls-11" d="M276.56,73.47c-2.25,0-8.8-.35-12.62-3h0l1.88.33h0c2.09,1,5.29,1.88,10.17,2Z"/><g class="cls-7"><path d="M236.84,79.81s1,3.7,6.32,4.51C243,83.06,236.84,79.81,236.84,79.81Z"/></g><path class="cls-11" d="M229.89,83.33s-11.37,6.08-16.54,2.06l-.19-1.12s3.66,5,16.31-1.52Z"/><path class="cls-11" d="M251.43,88.78S239.3,84.43,238.8,77.91l.7-.91c1.13-.36-.35,5.8,12.08,11.08Z"/><g class="cls-7"><ellipse cx="224.18" cy="74.27" rx="4.19" ry="1.86"/></g><g class="cls-7"><ellipse cx="250.11" cy="74.39" rx="1.86" ry="6.92" transform="translate(77.97 270.49) rotate(-65.29)"/></g><g class="cls-7"><path d="M200.35,80c.06,0,8.89,4.78,9.74,5a19.19,19.19,0,0,0,3.19,0s.39,1.9-.12,1.8-14.79-5.37-14.79-5.37A5.15,5.15,0,0,1,200.35,80Z"/></g><path class="cls-12" d="M228.79,71.76c0,.06-.09.07-.16,0a.69.69,0,0,0-.38,0c-.29.12-.07.62-.34.6s-.29-.22-.55-.3-.33.27-.67.15a1.69,1.69,0,0,1-.74-.69.14.14,0,0,1,0-.06c-.08-.2,0-.27,0-.38a.37.37,0,0,0,0-.27c-.12-.3-.42-.43-.59-.76s-.09-.91.24-.86.67.56,1,.69l.12,0c.25,0,.2-.24.44-.14s.27.3.67.66.55.35.74.62A.87.87,0,0,1,228.79,71.76Z"/><path class="cls-12" d="M226.74,70.86a3.9,3.9,0,0,0-3.18,3.71l.34.17A3.64,3.64,0,0,1,227,71.17C227,70.66,226.74,70.86,226.74,70.86Z"/><path class="cls-13" d="M200.37,83c-.35-.68,4.32-7,8.37-5.29a.47.47,0,0,1,0,.48s-2.65-1.68-8,5Z"/><path class="cls-11" d="M217.91,74.41s7.36-4.56,12.55-.82c.2.41-.08.49-.08.49s-3.73-4-12,.85Z"/><path class="cls-11" d="M194.12,81.2s7.36-4.55,12.55-.82c.2.42-.08.5-.08.5s-3.73-4-12,.84Z"/><g class="cls-9"><path d="M193.83,96.88l-.78-.28c-4-1.41-18.65-6.91-28-11.28a22.89,22.89,0,0,1-2.41-9.06,24.65,24.65,0,0,1,.11-4.14s.78,7.91,29.31,10.63c7.68.74,11.57,2.17,13.1,3.86C209.37,91.19,196.1,97.63,193.83,96.88Z"/></g><g class="cls-7"><path d="M215.54,75.5A9.75,9.75,0,0,1,217.4,77c.34.51,1.15,2.51,2.36,1.93s1.55-1.42,1.89-1.42-.17-.17.68.34,1.47.62,1.67.4-2.95-3.3-2.95-3.3a19.55,19.55,0,0,1-2.34.4C217.57,75.45,215.54,75.5,215.54,75.5Z"/></g><path class="cls-12" d="M257.77,75.26c.24-.27.65-.14.69-.41s-.24-.59-.58-.79-.52-.09-1.22-.31-.86-.44-1.16-.42-.17.36-.5.51c-.51.23-1.29-.36-1.78-.17s-.39.91.06,1.32.82.29,1.11.62,0,.55.24.88A1.76,1.76,0,0,0,256,77c.48-.08.25-.56.78-.67.38-.08.62.13.85,0S257.45,75.62,257.77,75.26Z"/><path class="cls-5" d="M214.45,89c-2,1.15-8.84,4.43-15.28.45C193.58,86,189,78.62,186.86,74.93h0c-.22-.39-.42-.75-.58-1.06a.41.41,0,0,1,.58-.52h0l18.9,10.23h0l8.66,4.69h0a.35.35,0,0,1,.17.17A.36.36,0,0,1,214.45,89Z"/><path class="cls-6" d="M214.45,89c-2,1.15-8.84,4.43-15.28.45C193.58,86,189,78.62,186.86,74.93h0c-.22-.39-.42-.75-.58-1.06a.41.41,0,0,1,.58-.52h0c.34.68.68,1.33,1,2,12.73,23.53,26.55,13,26.55,13h0l.17.17A.36.36,0,0,1,214.45,89Z"/><g class="cls-7"><path d="M276.8,73.85A10.39,10.39,0,0,1,277.92,77c.14,1.34-2.75,2-2.75,1.68a12.87,12.87,0,0,1,.17-2.55C275.51,75.79,276.8,73.85,276.8,73.85Z"/></g><g class="cls-7"><path d="M268.94,74.39s-3.23,3.91-4,4.1a22.28,22.28,0,0,1-7.27,1.07c-5.08.14,8.29.82,8.29.82Z"/></g><path class="cls-13" d="M243.88,70.28c.89-.9,13.31,3.09,12.71,10.37l-.69.83s1.18-5.65-12.16-10.55Z"/><path class="cls-13" d="M253.38,82.39c-.31,1.26-13.28,4.17-16.54-2.58.08-.46.18-1.09.18-1.09s1.9,5.61,16.14,3Z"/><path class="cls-13" d="M224,78.23c-.75.23-6.31-5.53-3.86-9.32l.62-.26s-2.29,2.74,3.5,9.26Z"/><path class="cls-13" d="M225.38,74.22c-.41.66-8.38-.13-9-4.61l.31-.59s0,3.57,8.66,4.79Z"/><path class="cls-5" d="M276.8,73.31c0,.1,0,.2,0,.3,0,.4,0,.81-.07,1.22l0,.23v.09h0a.17.17,0,0,1,0,.07c0,.2-.05.41-.09.61s0,.18-.05.26a.85.85,0,0,1,0,.17l0,.15c0,.15-.07.3-.1.45s-.1.35-.16.53l-.06.21-.09.25-.12.33-.21.52-.12.26-.12.27c-.2.39-.42.79-.67,1.19l-.1.15-.14.21-.14.2c-.13.19-.27.37-.42.56l-.28.35-.05,0-.3.35c-.1.12-.21.23-.32.35l0,0-.27.28c-.25.26-.52.52-.79.78l-.29.26-.12.11-.33.29a31.41,31.41,0,0,1-2.87,2.23l-.42.29c-.53.36-1.07.71-1.61,1l-.31.19c-.51.31-1,.61-1.54.89l-.59.33c-.7.38-1.38.73-2,1.06l-.28.14h0l-.26.13-1.37.65-.34.15-.09,0-.24.1h0l-.23.11-1.09.47-.26.1-.58.24a.41.41,0,0,1-.45-.64h0l3.06-4.36.49-.7.22-.3.41-.6,4.63-6.59.44-.63L273.4,68l1.25-1.79a.45.45,0,0,1,.19-.15.36.36,0,0,1,.49.21A18.46,18.46,0,0,1,276.8,73.31Z"/><path class="cls-6" d="M276.8,73.31c0,.1,0,.2,0,.3,0,.4,0,.81-.07,1.22l0,.23v.09h0a.2.2,0,0,1,0,.07c0,.2-.05.41-.09.61s0,.18-.05.26a.85.85,0,0,1,0,.17l0,.15c0,.15-.07.3-.1.45s-.1.35-.16.53l-.06.21-.09.25-.12.33-.21.52-.12.26-.12.27c-.2.39-.42.79-.67,1.19l-.1.15-.14.21-.14.2c-.13.19-.27.37-.42.56l-.28.35-.05,0-.3.35c-.1.12-.21.23-.32.35l0,0-.27.28c-.25.26-.52.52-.79.78l-.29.26-.12.11-.33.29a31.41,31.41,0,0,1-2.87,2.23l-.42.29c-.53.36-1.07.71-1.61,1l-.31.19c-.51.31-1,.61-1.54.89l-.59.33c-.7.38-1.38.73-2,1.06l-.28.14h0l-.26.13-1.37.65-.34.15-.09,0-.24.1h0l-.23.11-1.09.47-.26.1-.58.24a.41.41,0,0,1-.45-.64h0c16.43-5.94,19.63-14,19.56-19.48h0a13.54,13.54,0,0,0-1.55-6.19l.19-.15a.36.36,0,0,1,.49.21A18.46,18.46,0,0,1,276.8,73.31Z"/><g class="cls-14"><path d="M245.1,79.85a.43.43,0,0,0,.12.11c2.51,1.56,8.91,5.26,15.19,6.6.62.13,1.24.24,1.85.32h0a17.63,17.63,0,0,0,1.89.16,12.82,12.82,0,0,0,2.43-.14l.59-.11h0a11.24,11.24,0,0,0,1.59-.44c4.73-1.64,7.52-5.73,8.43-7.28a.38.38,0,0,0-.12-.52.48.48,0,0,0-.24-.06l-1,0-1,0-8.95.21-.44.63-19.06.45Z"/><path d="M245.1,79.85a.43.43,0,0,0,.12.11c2.51,1.56,8.91,5.26,15.19,6.6.62.13,1.24.24,1.85.32h0a17.63,17.63,0,0,0,1.89.16,12.82,12.82,0,0,0,2.43-.14l.59-.11h0a11.24,11.24,0,0,0,1.59-.44c4.73-1.64,7.52-5.73,8.43-7.28a.38.38,0,0,0-.12-.52l-.24-.06a13.68,13.68,0,0,1-5.61,5.92,12,12,0,0,1-1.34.67h0l-.74.28h0a13.9,13.9,0,0,1-2.41.63h0a17.76,17.76,0,0,1-5.91,0c-3.91-.62-8.67-2.43-14.43-6.14Z"/></g><path class="cls-5" d="M274.64,79.75a18.72,18.72,0,0,1-4.76,5.33,15.53,15.53,0,0,1-2.06,1.27c-.4.2-.81.38-1.24.55a12.53,12.53,0,0,1-5,.82c-.63,0-1.26-.08-1.9-.16-6.82-.91-14.27-5.2-17-6.92a.41.41,0,0,1,.25-.74h0l2.17-.05,1.29,0,19.06-.45,8.83-.2a.51.51,0,0,1,.22,0h0A.38.38,0,0,1,274.64,79.75Z"/><path class="cls-6" d="M242.67,80.64a.41.41,0,0,1,.25-.74h0c24.23,16.17,31.35-.73,31.35-.73l.24.06a.37.37,0,0,1,.12.52c-1.18,2-5.48,8.23-13,8C254.31,87.47,245.69,82.52,242.67,80.64Z"/><rect class="cls-4" x="201.41" y="106.59" width="38.5" height="5.4" rx="2.03"/><path class="cls-4" d="M280.93,73.14c0,20.33-27.39,36.81-61.17,36.81s-61.17-16.48-61.17-36.81c0,6.86,27.38,12.42,61.17,12.42S280.93,80,280.93,73.14Z"/><g class="cls-15"><path d="M201.38,108.15s8.75.92,18.23.92a198.51,198.51,0,0,0,20.1-1.27A67.55,67.55,0,0,1,201.38,108.15Z"/></g><circle class="cls-16" cx="207.45" cy="95.2" r="1.67"/><circle class="cls-16" cx="232" cy="95.2" r="1.67"/><path class="cls-16" d="M219.86,99.07a7.64,7.64,0,0,1-4.54-1.41.5.5,0,0,1-.08-.71.51.51,0,0,1,.72-.08,6.83,6.83,0,0,0,3.9,1.18,7.11,7.11,0,0,0,4-1.19.51.51,0,0,1,.72.1.5.5,0,0,1-.1.71A8,8,0,0,1,219.86,99.07Z"/><g class="cls-17"><path class="cls-18" d="M159.07,74.73s11,15.73,93.91,9.09C253.11,83.81,170.58,96.81,159.07,74.73Z"/></g><path class="cls-11" d="M243,71.27s12.89,0,15.55,6l-.36,1.09s-.87-6.15-15.1-6.36Z"/><g class="cls-9"><ellipse class="cls-18" cx="191.66" cy="57.61" rx="2.4" ry="4.03" transform="translate(91.46 230.85) rotate(-76.69)"/></g><path class="cls-12" d="M222.69,74.68a.77.77,0,0,1-.26.25c-.37.21-.91.13-1.19.58s.21,1-.05,1.68a2.1,2.1,0,0,1-2.52.9c-.88-.46-.54-1.74-1.51-2.18-.64-.3-1.09.1-1.51-.29s-.1-.69-.39-1.62-.73-1-.67-1.62a1.36,1.36,0,0,1,.95-1.17c.56-.13.73.45,1.51.56a2,2,0,0,0,1.14-.24c.38-.18.71-.38,1.09-.21s.34.5.65.84l.19.17a1.44,1.44,0,0,0,.59.24h.06c.52.07,1-.12,1.48.25A1.59,1.59,0,0,1,222.69,74.68Z"/><path class="cls-12" d="M190,57.67a.49.49,0,0,1-.36.24.6.6,0,0,0-.38.26c-.17.33.11.63,0,1a1,1,0,0,1-1.28.54c-.44-.27-.27-1-.76-1.32-.32-.18-.55.07-.76-.17s0-.42-.2-1-.37-.64-.34-1a.79.79,0,0,1,.48-.71c.28-.08.37.27.76.34a.65.65,0,0,0,.14,0h0c.43,0,.67-.44,1-.27s.15.37.42.6.74,0,1.07.31A1.09,1.09,0,0,1,190,57.67Z"/><path class="cls-12" d="M239.7,75.88a.81.81,0,0,1-.11.2h0a1.67,1.67,0,0,1-.65.57c-.31.12-.32-.15-.64,0s-.43.42-.77.59-.9.09-.86-.24.69-.75.72-1.13-.24-.21-.14-.44.29-.27.66-.68l.15-.17h0c.22-.28.24-.4.47-.56s.56-.29.7-.22-.07.33,0,.55.61.07.6.34-.22.29-.31.55S239.81,75.55,239.7,75.88Z"/><path class="cls-12" d="M238.32,75.83A3.92,3.92,0,0,0,242,79l.17-.34a3.64,3.64,0,0,1-3.57-3.06C238.13,75.62,238.32,75.83,238.32,75.83Z"/><path class="cls-12" d="M184,58.8c-.33-.16-.47-.9-.82-1.06s-.28.17-.47,0-.15-.37-.41-.85-.39-.51-.49-.83a.9.9,0,0,1,0-.73c.13-.12.29.18.52.16s.28-.55.52-.45.2.31.42.48h0a.61.61,0,0,0,.14.07h0c.21.05.3-.18.53,0a1.59,1.59,0,0,1,.47,1,.33.33,0,0,1-.12.3.34.34,0,0,0-.11.3c0,.33.25.55.29.92S184.31,59,184,58.8Z"/><path class="cls-12" d="M183.48,56.86a3.92,3.92,0,0,0,4.26-2.42l-.27-.27a3.63,3.63,0,0,1-4.08,2.32C183.22,57,183.48,56.86,183.48,56.86Z"/><g class="cls-7"><path class="cls-18" d="M233.13,64.26c.4.29.79.6,1.17.91a16.82,16.82,0,0,0-10.74-3.32.42.42,0,0,0,0-.07,10.29,10.29,0,0,1,5.15.14,9.63,9.63,0,0,1,1.38.51,16.52,16.52,0,0,1,2.55,1.48Z"/></g><g class="cls-7"><path class="cls-18" d="M235.91,66.6l-.57-.53Z"/></g><g class="cls-7"><path class="cls-18" d="M244.28,58.76a.32.32,0,0,1-.06.18h0l-3.56,4.88c2-3.28,1.64-4.52.84-5a2.79,2.79,0,0,0-1.72-.11,15.18,15.18,0,0,1,4.22-.32A.3.3,0,0,1,244.28,58.76Z"/></g><g class="cls-7"><path class="cls-18" d="M276.8,73.31c0,.1,0,.2,0,.3,0,.4,0,.81-.07,1.22l0,.23v.09c-.15-1.05-.31-1.94-.48-2.71h0C275,67,273.4,68,273.4,68l1.25-1.79a.45.45,0,0,1,.19-.15.36.36,0,0,1,.49.21A18.46,18.46,0,0,1,276.8,73.31Z"/></g><g class="cls-7"><ellipse class="cls-18" cx="252.57" cy="80.8" rx="5.61" ry="0.42"/></g><g class="cls-7"><ellipse class="cls-18" cx="253.75" cy="68.46" rx="0.86" ry="2.12" transform="translate(104.5 284.79) rotate(-70.5)"/></g><g class="cls-7"><path class="cls-18" d="M226.43,65.82c-.44.35-3.73.36-7.7,0a37.78,37.78,0,0,1-7.18-1.11C214.54,64.3,219.19,64.89,226.43,65.82Z"/></g><g class="cls-7"><path class="cls-18" d="M205.76,83.58c-11.08-5.71-16-7.6-17.88-8.27a6.55,6.55,0,0,1-1-.38h0c-.22-.39-.42-.75-.58-1.06a.41.41,0,0,1,.58-.52h0Z"/></g><g class="cls-9"><path class="cls-18" d="M190,57.67a.49.49,0,0,1-.36.24c.24-1-2.24-2-2.36-2,.43,0,.67-.44,1-.27s.15.37.42.6.74,0,1.07.31A1.09,1.09,0,0,1,190,57.67Z"/></g><g class="cls-9"><path class="cls-18" d="M184.46,56.55a.33.33,0,0,1-.12.3.28.28,0,0,0,0-.09,1.67,1.67,0,0,0-.87-1.18c.21.05.3-.18.53,0A1.59,1.59,0,0,1,184.46,56.55Z"/></g><g class="cls-7"><path class="cls-18" d="M222.69,74.68a.77.77,0,0,1-.26.25,2.44,2.44,0,0,0-1.66-2.35h0c.52.07,1-.12,1.48.25A1.59,1.59,0,0,1,222.69,74.68Z"/></g><g class="cls-7"><path class="cls-18" d="M219.93,72.16c-1.07-.89-1.74-.63-1.74-.63h0c.38-.18.71-.38,1.09-.21S219.62,71.82,219.93,72.16Z"/></g><g class="cls-7"><path class="cls-18" d="M220.71,72.57c-.1.09-.28,0-.59-.24A1.44,1.44,0,0,0,220.71,72.57Z"/></g><g class="cls-7"><path class="cls-18" d="M228.79,71.76c0,.06-.09.07-.16,0,0-.56-1.9-1.83-2-1.91l.12,0c.25,0,.2-.24.44-.14s.27.3.67.66.55.35.74.62A.87.87,0,0,1,228.79,71.76Z"/></g><g class="cls-7"><path class="cls-18" d="M239.7,75.88a.81.81,0,0,1-.11.2c-.54-2.15-1.44-1.58-1.53-1.52.22-.28.24-.4.47-.56s.56-.29.7-.22-.07.33,0,.55.61.07.6.34-.22.29-.31.55S239.81,75.55,239.7,75.88Z"/></g><g class="cls-7"><path d="M208.64,73.5c-.75-1.36-2.08-2.7-1.78-4.68a4.21,4.21,0,0,1,.66-1.66C207.48,67.27,206.94,69.32,208.64,73.5Z"/></g><rect class="cls-19" y="0.25" width="300" height="165"/></g></g></svg>