<svg xmlns="http://www.w3.org/2000/svg" xmlns:xlink="http://www.w3.org/1999/xlink" viewBox="0 0 300 165"><defs><style>.cls-1{isolation:isolate;}.cls-2{fill:#fce5cd;}.cls-3{fill:#ffc76c;}.cls-4{opacity:0.75;}.cls-4,.cls-6,.cls-8,.cls-9{mix-blend-mode:soft-light;}.cls-5{fill:#f28033;}.cls-6{opacity:0.5;}.cls-7{fill:#fff;}.cls-8{opacity:0.38;}.cls-9{opacity:0.32;}.cls-10{fill:#ffe8d9;}.cls-11{fill:url(#linear-gradient);}</style><linearGradient id="linear-gradient" x1="150.37" y1="168.37" x2="149.66" y2="1.92" gradientUnits="userSpaceOnUse"><stop offset="0.03" stop-color="#591c16"/><stop offset="0.22" stop-color="#5f241d" stop-opacity="0.96"/><stop offset="0.38" stop-color="#733c33" stop-opacity="0.84"/><stop offset="0.53" stop-color="#936459" stop-opacity="0.64"/><stop offset="0.68" stop-color="#c09d8d" stop-opacity="0.36"/><stop offset="0.82" stop-color="#fae5cf" stop-opacity="0"/></linearGradient></defs><g class="cls-1"><g id="Layer_1" data-name="Layer 1"><rect class="cls-2" x="-0.27" y="-0.15" width="300" height="165"/><path class="cls-3" d="M268,91.14l-1,31.66-94.79-3.74L164.5,82.84h0L160,61.73s1.5-5.55,5-6,5.12,4.41,8.69,3.89c2.89-.44,4.73-4,7.25-6.21h0a8,8,0,0,1,1.5-1.05h0l.34-.17c3.35-1.51,3.37,2.58,8.07,1.9h0a9.61,9.61,0,0,0,1.13-.24c3.72-1,5.3-4.05,7.58-5.48h0c1.31-.81,2.86-1.09,5.18-.11a6.49,6.49,0,0,0,4.32.62c1.51-.43,2.3-1.71,3.5-2.49a3.75,3.75,0,0,1,1.82-.61c1.51-.11,3.31,1.19,4.89,2.56h0c1,.82,1.83,1.67,2.53,2.25Z"/><g class="cls-4"><path d="M267,122.8l-94.79-3.74L164.5,82.84c.12.39,8,25.83,12.08,29S267,122.8,267,122.8Z"/></g><path class="cls-5" d="M267.85,91l-.8,29.06h0l-91.42-3.63-6.09-32.13L166.63,69l59.71-14.63Z"/><g class="cls-6"><path d="M173.69,74.24l78.23,17.1a.69.69,0,0,1-.21,1.36c-16.27-1.38-47.28-4.19-59.13-6.58C180.25,83.64,174.89,78,173,75.32A.69.69,0,0,1,173.69,74.24Z"/></g><path class="cls-7" d="M242.07,72.14c1.35,2.52-3.06,4.54-5.91,5.23-8,2-15.43.62-20.57-.42-10.46-2.12-16.73-5.1-17.29-7.26-.94-3.63,7.89-2.16,8.17-6.66.1-1.76-1.27-4.56-.5-6.12,1.52-3.07,7.84-1.15,8.91-3.89,1.16-3-.64-2.75,2.17-5.76,3-3.24,7.13-5.65,8-4.94s-2.13,2.84-1.47,5.69c1.12,4.82,7.35,5.38,7.44,8.91.05,1.8-2.51,2.12-2.48,4.07,0,2.66,3,2.94,8,5.38A12.63,12.63,0,0,1,242.07,72.14Z"/><g class="cls-8"><ellipse cx="219.78" cy="72.66" rx="6.51" ry="22.6" transform="translate(125.71 284.16) rotate(-84.32)"/></g><g class="cls-9"><path d="M267,120l-91.42-3.63-6.09-32.13s7.22,18.15,11.06,22,6.54,8,16.76,8.78S265.67,119.93,267,120Z"/></g><g class="cls-4"><path d="M173.73,59.6S168.28,61.06,168,59,165,55.71,165,55.71C168.55,55.23,170.16,60.12,173.73,59.6Z"/></g><g class="cls-4"><path d="M189,55.47c-3,1.59-4.63.16-5.4-1.1s-2.66-1-2.66-1h0c.13-.09.73-.55,1.5-1.05h0l.34-.17c3.35-1.51,3.37,2.58,8.07,1.9h0C191.1,54,191.79,54,189,55.47Z"/></g><g class="cls-4"><path d="M209.16,48.84a21.65,21.65,0,0,1-2.77,1.91,3.85,3.85,0,0,1-3.78-1.35c-.62-1.1-2.87-1.07-3-1.07,1.31-.81,2.86-1.09,5.18-.11A6.49,6.49,0,0,0,209.16,48.84Z"/></g><g class="cls-4"><path d="M219.37,48.3l-6.71-1.95a3.75,3.75,0,0,1,1.82-.61C216,45.63,217.79,46.93,219.37,48.3Z"/></g><circle class="cls-10" cx="205.77" cy="101.44" r="1.52"/><circle class="cls-10" cx="228.08" cy="101.44" r="1.52"/><path class="cls-10" d="M217.05,105a7.07,7.07,0,0,1-4.14-1.28.48.48,0,0,1,.6-.75,6.21,6.21,0,0,0,3.54,1.07,6.59,6.59,0,0,0,3.62-1.08.48.48,0,1,1,.58.76A7.32,7.32,0,0,1,217.05,105Z"/><rect class="cls-11" width="300" height="165"/></g></g></svg>