<svg xmlns="http://www.w3.org/2000/svg" xmlns:xlink="http://www.w3.org/1999/xlink" viewBox="0 0 300 165.5"><defs><style>.cls-1{isolation:isolate;}.cls-2{fill:#fce5cd;}.cls-3{fill:#9b4e23;}.cls-4{fill:#f7b93c;}.cls-5{fill:#c1272d;}.cls-6{fill:#009245;}.cls-7{fill:#ebefb4;}.cls-8{mix-blend-mode:soft-light;}.cls-9{fill:#ffe3c7;}.cls-10{fill:#bbf9bf;}.cls-11{opacity:0.48;}.cls-11,.cls-13{mix-blend-mode:darken;}.cls-12{fill:#ce8849;}.cls-13{opacity:0.75;}.cls-14{opacity:0.5;mix-blend-mode:multiply;}.cls-15{fill:url(#linear-gradient);}</style><linearGradient id="linear-gradient" x1="150.37" y1="168.62" x2="149.66" y2="2.17" gradientUnits="userSpaceOnUse"><stop offset="0.03" stop-color="#591c16"/><stop offset="0.22" stop-color="#5f241d" stop-opacity="0.96"/><stop offset="0.38" stop-color="#733c33" stop-opacity="0.84"/><stop offset="0.53" stop-color="#936459" stop-opacity="0.64"/><stop offset="0.68" stop-color="#c09d8d" stop-opacity="0.36"/><stop offset="0.82" stop-color="#fae5cf" stop-opacity="0"/></linearGradient></defs><g class="cls-1"><g id="Layer_1" data-name="Layer 1"><rect class="cls-2" y="0.25" width="300" height="165"/><path class="cls-3" d="M279,122.3a106,106,0,0,1-11.42,5.47A104.88,104.88,0,0,1,236,135.21h0q-3.93.3-7.94.32h-.26a105.24,105.24,0,0,1-50.71-13,2.1,2.1,0,0,1-.81-2.9l1.75-3h0l4.39-7.6,3.68-6.38L201.5,75.9l.43-.74,1.78-3.08,19.43-33.66L226.25,33a2.47,2.47,0,0,1,.29-.39l.06-.06a2,2,0,0,1,.7-.46l.1,0,.12,0,.11,0,.1,0H228A2.09,2.09,0,0,1,229.91,33l3.27,5.67,17.75,30.74,22.69,39.31h0l.79,1.38.61,1.06v0l.78,1.33,3.95,6.86A2.11,2.11,0,0,1,279,122.3Z"/><path class="cls-4" d="M273.63,108.78a89.23,89.23,0,0,1-8.19,4.23h0c-1.41.65-2.85,1.26-4.3,1.83l-1.11.43a91.1,91.1,0,0,1-24.21,5.52q-3.85.33-7.79.35h-.27a90.81,90.81,0,0,1-45.38-12.07l3.68-6.38L201.5,75.93l.43-.74,1.78-3.08,19.43-33.66,3.11-5.39a2.47,2.47,0,0,1,.29-.39l.06-.07a2.1,2.1,0,0,1,.7-.45l.1,0,.12,0,.11,0,.1,0h0l.11,0H228a2.1,2.1,0,0,1,1.87,1.06l3.27,5.67,17.75,30.74Z"/><path class="cls-5" d="M215.13,88.75a17.86,17.86,0,0,1-29.08,13.91L201.5,75.9l.43-.74,1.78-3.08A17.87,17.87,0,0,1,215.13,88.75Z"/><path class="cls-5" d="M250.93,69.44a17.8,17.8,0,0,1-7.05,1.44A17.56,17.56,0,0,1,239,70.2a17.9,17.9,0,0,1-10.93-8.87,18.3,18.3,0,0,1-1.28-3.14,17.54,17.54,0,0,1-.71-3.78c0-.46-.06-.93-.06-1.4a17.73,17.73,0,0,1,1.21-6.45,16.16,16.16,0,0,1,.84-1.85,17.89,17.89,0,0,1,5.12-6Z"/><path class="cls-5" d="M260.28,112.57a13.74,13.74,0,0,1-.26,2.67,90.71,90.71,0,0,1-24.21,5.52,13.6,13.6,0,1,1,24.47-8.19Z"/><path class="cls-6" d="M249.54,92.11l-.15.08-1.48.73a1.48,1.48,0,0,1-2-.67l-4.55-9.18a1.5,1.5,0,0,1,.68-2l1.63-.81a1.3,1.3,0,0,1,.45-.14,1.49,1.49,0,0,1,1.55.81l4.55,9.18A1.5,1.5,0,0,1,249.54,92.11Z"/><path class="cls-6" d="M223.65,102.18l-.52.89L220,108.48a1.5,1.5,0,0,1-2,.55l-.69-.4a1.5,1.5,0,0,1-.55-2l3.64-6.31a1.5,1.5,0,0,1,1.09-.73,1.47,1.47,0,0,1,.95.19l.69.4A1.49,1.49,0,0,1,223.65,102.18Z"/><path class="cls-6" d="M228.25,57.24l-.36.24L223.94,60a1.5,1.5,0,0,1-2.06-.45l-.32-.49A1.5,1.5,0,0,1,222,57l4.31-2.77a1.52,1.52,0,0,1,2.07.45l.31.49A1.5,1.5,0,0,1,228.25,57.24Z"/><path class="cls-7" d="M220.86,76.92l1,1.66a1.84,1.84,0,0,1-.5,2.55l-1.9,1.28a1.85,1.85,0,0,1-.37.19,1.83,1.83,0,0,1-2.18-.69l-1-1.63-.14-.22,0,0c-.18-.29-.29-.53-.44-.48h0a.39.39,0,0,0-.19.18c-1.92,2.71-3.7,3.67-5.55,1.91-3-2.91-.83-8.62,3.4-11.47s10.38-2.76,11.9,1.16c1,2.56-1,3.78-3.89,4.51C220.38,76,220.52,76.4,220.86,76.92Z"/><path class="cls-7" d="M233.49,101.93a8.3,8.3,0,0,1-1.91-.52c-2.72-1.09-4.71-3.51-3.83-5.8a1.85,1.85,0,0,1,1.3-1.27h0a4.54,4.54,0,0,1,2.92.75.45.45,0,0,0,.27.07c.19,0,.27-.27.31-.58h0l.24-1.38a1.3,1.3,0,0,1,1.49-1.11l1.62.23A1.31,1.31,0,0,1,237,93.8l-.26,1.54c-.05.35-.16.58.18.51,2.32-.52,3.72-.17,3.85,1.64C241,100.49,237.09,102.45,233.49,101.93Z"/><g class="cls-8"><path class="cls-9" d="M209.43,90.67c-.6-.3-.08-4.32-2.48-9-1.15-2.27-4-4.48-5.45-5.73l.43-.74a14.08,14.08,0,0,1,7.23,6.08C212.15,86.76,210,91,209.43,90.67Z"/></g><g class="cls-8"><path class="cls-9" d="M273.63,108.75a91.89,91.89,0,0,1-8.19,4.24h0L228,32h0A2.09,2.09,0,0,1,229.91,33l3.27,5.67,17.75,30.74Z"/></g><g class="cls-8"><path class="cls-9" d="M245.65,101.1c-.15.3,3.79.63,5.73,2.06,2.8,2.06,3.68,4.56,4.12,4.56s.44-3.09-2.94-5.44C249.64,100.25,245.79,100.81,245.65,101.1Z"/></g><g class="cls-8"><path class="cls-10" d="M228.25,57.24l-.36.24L227.15,54a1.49,1.49,0,0,1,1.24.68l.31.49A1.5,1.5,0,0,1,228.25,57.24Z"/></g><g class="cls-8"><path class="cls-10" d="M249.54,92.11l-.15.08-5.27-12.07a1.49,1.49,0,0,1,1.55.81l4.55,9.18A1.5,1.5,0,0,1,249.54,92.11Z"/></g><g class="cls-8"><path class="cls-10" d="M223.65,102.18l-.52.89-1.67-3.52a1.47,1.47,0,0,1,.95.19l.69.4A1.49,1.49,0,0,1,223.65,102.18Z"/></g><g class="cls-11"><path class="cls-12" d="M217.41,77.57a9.37,9.37,0,0,0-1.09,1.8.23.23,0,0,0,0,.25c.62.65,2.12,2.23,2.78,3a1.83,1.83,0,0,1-2.18-.69l-1-1.63-.14-.22,0,0c-.18-.29-.29-.53-.44-.48a7.28,7.28,0,0,1,1.66-2.4,4.71,4.71,0,0,1,2.79-.88C219.91,76.4,217.85,77.13,217.41,77.57Z"/></g><g class="cls-11"><path class="cls-12" d="M234.18,96a11.81,11.81,0,0,1-1.94-.8c.19,0,.27-.27.31-.58a5,5,0,0,0,1.77.93,5.43,5.43,0,0,0,1.62,0A3.77,3.77,0,0,1,234.18,96Z"/></g><g class="cls-13"><path class="cls-12" d="M231.58,101.41c-2.72-1.09-4.71-3.51-3.83-5.8a1.85,1.85,0,0,1,1.3-1.27h0S225.76,97.75,231.58,101.41Z"/></g><g class="cls-8"><path class="cls-9" d="M274.42,110.13c-2.69,2.78-19.57,9.66-28.48,10.82-11.65,1.53-14.85.15-14.85.15s22.58,0,42.53-12.35h0Z"/></g><g class="cls-8"><path class="cls-9" d="M182.41,109.19A76.54,76.54,0,0,0,205,118.26,67.63,67.63,0,0,1,181,111.34Z"/></g><g class="cls-14"><path class="cls-3" d="M247.26,133.75c-2.62.2-16.43,1.76-19.11,1.76h-.25a105.17,105.17,0,0,1-50.71-12.94,2.12,2.12,0,0,1-.82-2.91l1.75-3h0C178.44,121.25,221.38,137.87,247.26,133.75Z"/></g><ellipse class="cls-7" cx="214.86" cy="125.74" rx="1.68" ry="1.55"/><ellipse class="cls-7" cx="239.49" cy="125.74" rx="1.68" ry="1.55"/><path class="cls-7" d="M227.31,129.32a8.15,8.15,0,0,1-4.55-1.3.45.45,0,0,1-.08-.67.55.55,0,0,1,.72-.07,7.1,7.1,0,0,0,3.91,1.1,7.6,7.6,0,0,0,4-1.11.56.56,0,0,1,.72.09.45.45,0,0,1-.1.66A8.48,8.48,0,0,1,227.31,129.32Z"/><rect class="cls-15" y="0.25" width="300" height="165"/></g></g></svg>