<svg xmlns="http://www.w3.org/2000/svg" xmlns:xlink="http://www.w3.org/1999/xlink" viewBox="0 0 300 165.5"><defs><style>.cls-1{isolation:isolate;}.cls-2{fill:#fce5cd;}.cls-3{fill:#edc094;}.cls-4{fill:#aa312b;}.cls-5{fill:#302b2b;}.cls-6{fill:#dda050;}.cls-7{opacity:0.24;}.cls-10,.cls-11,.cls-12,.cls-15,.cls-7,.cls-8{mix-blend-mode:soft-light;}.cls-8{opacity:0.52;}.cls-9{fill:#fff;}.cls-10{opacity:0.31;}.cls-11{opacity:0.51;}.cls-12{opacity:0.33;}.cls-13{fill:#f7cda9;}.cls-14{fill:#f2e1d7;}.cls-15{opacity:0.49;}.cls-16{fill:#442a1c;}.cls-17{fill:#2e4f15;}.cls-18{fill:url(#linear-gradient);}</style><linearGradient id="linear-gradient" x1="150.37" y1="168.62" x2="149.66" y2="2.17" gradientUnits="userSpaceOnUse"><stop offset="0.03" stop-color="#591c16"/><stop offset="0.22" stop-color="#5f241d" stop-opacity="0.96"/><stop offset="0.38" stop-color="#733c33" stop-opacity="0.84"/><stop offset="0.53" stop-color="#936459" stop-opacity="0.64"/><stop offset="0.68" stop-color="#c09d8d" stop-opacity="0.36"/><stop offset="0.82" stop-color="#fae5cf" stop-opacity="0"/></linearGradient></defs><g class="cls-1"><g id="Layer_1" data-name="Layer 1"><rect class="cls-2" y="0.25" width="300" height="165"/><ellipse class="cls-3" cx="206.08" cy="93.08" rx="68.83" ry="5.21"/><path class="cls-4" d="M138.5,94.67a3.43,3.43,0,0,1-1.18-.35,3.48,3.48,0,0,1-.55-.33,1.94,1.94,0,0,1-.27-.23,1.31,1.31,0,0,1-.28-.37.78.78,0,0,1-.1-.37.88.88,0,0,1,0-.34,1.25,1.25,0,0,1,.28-.46,2.41,2.41,0,0,1,.6-.46,7,7,0,0,1,1.14-.49,21,21,0,0,1,2.26-.61c.75-.17,1.5-.31,2.26-.44,3-.51,6-.85,9.06-1.15,6.05-.59,12.1-1,18.16-1.28,12.13-.6,24.26-.85,36.39-.89q9.09,0,18.2.16c6.06.12,12.13.3,18.19.59s12.12.66,18.18,1.24c3,.3,6.05.63,9.08,1.15.75.14,1.51.28,2.27.45a18.41,18.41,0,0,1,2.29.66,5.09,5.09,0,0,1,.6.25,4.21,4.21,0,0,1,.62.37,2,2,0,0,1,.35.32,1.54,1.54,0,0,1,.31.59,1.16,1.16,0,0,1,0,.42s0,.07,0,.1v.07s0,.1,0,.14a1.13,1.13,0,0,1-.08.22c0,.07-.07.13-.1.19a2.87,2.87,0,0,1-1.05,1,2.61,2.61,0,0,1-1.32.35l-.25-.87a5,5,0,0,0,.7-.65,2.46,2.46,0,0,0,.45-.65l0-.07a.08.08,0,0,0,0,0h0v0a.17.17,0,0,0,0,.07.64.64,0,0,0,0,.07.24.24,0,0,0,0,.1l-.08-.07a3.73,3.73,0,0,0-.8-.39,18,18,0,0,0-2.08-.59c-.71-.16-1.45-.3-2.18-.43-2.95-.5-5.95-.84-9-1.13-6-.58-12-.94-18.09-1.23-12.09-.56-24.2-.8-36.31-.82s-24.23.14-36.32.65c-6.05.27-12.09.61-18.11,1.16-3,.28-6,.6-9,1.09-.74.12-1.48.25-2.2.41a21,21,0,0,0-2.14.56,5.77,5.77,0,0,0-.94.39,1.54,1.54,0,0,0-.31.23s0,0,0,0,0,0,0-.06a.21.21,0,0,0,0-.11s0,0,.06.09a2.11,2.11,0,0,0,.15.15c.11.11.25.21.38.32s.57.42.86.63Z"/><rect class="cls-5" x="245.12" y="93.91" width="3.05" height="16.43" rx="1.53" transform="translate(134.32 344.29) rotate(-87.61)"/><path class="cls-6" d="M193.27,75.73a.9.9,0,0,1-.49.41l-3.36,1.07-2,.62-7.74,2.47-4.62,1.46-1.21.39-2.46.78-1.36.43h0l-.25.08-1.42.45-1.89.6L148,90.37a.77.77,0,0,1-1-.56c-.05-.2-.11-.4-.17-.59-.33-1-.77-2.06-.31-3a3.36,3.36,0,0,0,.15-2.68,2.63,2.63,0,0,1,.54-2.53,2.19,2.19,0,0,0,.8-2.24l0-.12a1.45,1.45,0,0,1,0-.71,2.57,2.57,0,0,1,1.12-1.44,2.65,2.65,0,0,0,1.36-2.09,2.9,2.9,0,0,1,1.84-2.24,2.42,2.42,0,0,0,1.91-1.88,3,3,0,0,1,2.09-1.69A5,5,0,0,0,159,66.88a4.28,4.28,0,0,1,3.27-1.67,5.16,5.16,0,0,0,3.37-1.28,6.3,6.3,0,0,1,4.67-1.11,4.37,4.37,0,0,0,3.25-.33,4.13,4.13,0,0,1,3.87.1,4.73,4.73,0,0,0,2.71.44,3.83,3.83,0,0,1,3,.88,2.75,2.75,0,0,0,2,.87,2.12,2.12,0,0,1,1.86,1.11,2,2,0,0,0,1.63,1.25,2.56,2.56,0,0,1,1.73,1.78,2.49,2.49,0,0,0,.95,1.27c1.42,1,1.69,3.08,2.14,4.89A.91.91,0,0,1,193.27,75.73Z"/><g class="cls-7"><path d="M153.71,75.87c0-.11,5.41-7.67,13.59-9.94s18.85-.26,24.28,10.59l-2.16.69s-7-14.65-21.9-9.92C161.83,69,153.79,75.77,153.71,75.87Z"/></g><g class="cls-8"><ellipse class="cls-9" cx="163.39" cy="71.99" rx="3.49" ry="1.52" transform="translate(-14.06 91.74) rotate(-30.13)"/></g><g class="cls-8"><ellipse class="cls-9" cx="161.09" cy="75.88" rx="1.78" ry="0.65" transform="translate(-16.33 91.02) rotate(-30.1)"/></g><g class="cls-8"><ellipse class="cls-9" cx="147.93" cy="86.57" rx="1.28" ry="0.65" transform="translate(-18.25 44.61) rotate(-16.17)"/></g><g class="cls-7"><path d="M146.86,89.22l32.85-8.92L148,90.37a.77.77,0,0,1-1-.56C147,89.61,146.92,89.41,146.86,89.22Z"/></g><g class="cls-10"><path d="M163.27,90.25a3.35,3.35,0,0,0,1.1-2.45,2.6,2.6,0,0,1,1.4-2.17c.85-.4,1.5-.92,1.55-1.81a2.23,2.23,0,0,1,1.86-1.72,2.63,2.63,0,0,0,2-1.46,2.92,2.92,0,0,1,2.53-1.45,2.39,2.39,0,0,0,2.44-1.06,3,3,0,0,1,2.56-.84,5.12,5.12,0,0,0,3-.67,4.23,4.23,0,0,1,3.65-.41,5.1,5.1,0,0,0,3.61,0,6.33,6.33,0,0,1,4.75.62,4.33,4.33,0,0,0,3.16.85,4.15,4.15,0,0,1,3.58,1.48,4.76,4.76,0,0,0,2.37,1.37,3.87,3.87,0,0,1,2.48,1.89A2.76,2.76,0,0,0,206.87,84a2.07,2.07,0,0,1,1.35,1.69,2,2,0,0,0,1.07,1.75,2.56,2.56,0,0,1,1,2.28,2.46,2.46,0,0,0,.43,1.53c1,1.48.48,3.48.26,5.33a.88.88,0,0,1-.31.57.89.89,0,0,1-.61.21l-46.9-2.65a.76.76,0,0,1-.71-.88c0-.2,0-.4,0-.61C162.54,92.1,162.49,91,163.27,90.25Z"/></g><path class="cls-6" d="M162.09,91.77a3.36,3.36,0,0,0,1.09-2.45,2.65,2.65,0,0,1,1.4-2.17c.85-.4,1.51-.92,1.55-1.81A2.25,2.25,0,0,1,168,83.62a2.65,2.65,0,0,0,2-1.46,2.9,2.9,0,0,1,2.52-1.45A2.4,2.4,0,0,0,175,79.65a3,3,0,0,1,2.56-.84,5.12,5.12,0,0,0,3-.67,4.23,4.23,0,0,1,3.65-.41,5.07,5.07,0,0,0,3.6,0,6.36,6.36,0,0,1,4.76.62,4.33,4.33,0,0,0,3.16.85,4.12,4.12,0,0,1,3.57,1.48,4.79,4.79,0,0,0,2.38,1.37A3.86,3.86,0,0,1,204.17,84a2.76,2.76,0,0,0,1.52,1.52A2.09,2.09,0,0,1,207,87.16a2,2,0,0,0,1.07,1.75,2.56,2.56,0,0,1,1,2.28,2.46,2.46,0,0,0,.43,1.53c1,1.48.48,3.48.26,5.33a.92.92,0,0,1-.31.57.91.91,0,0,1-.61.21L162,96.18a.78.78,0,0,1-.72-.88,6,6,0,0,0,.05-.61C161.35,93.62,161.31,92.5,162.09,91.77Z"/><g class="cls-7"><path d="M172.46,84.66c.08-.09,7.79-5.24,16.24-4.45s17.71,6.48,18.92,18.55l-2.27-.13S204,82.45,188.42,81.56C182.5,81.12,172.57,84.6,172.46,84.66Z"/></g><g class="cls-8"><ellipse class="cls-9" cx="182.88" cy="84.49" rx="3.49" ry="1.52" transform="matrix(0.99, -0.16, 0.16, 0.99, -11.21, 30.53)"/></g><g class="cls-8"><ellipse class="cls-9" cx="179.35" cy="87.3" rx="1.78" ry="0.65" transform="matrix(0.99, -0.16, 0.16, 0.99, -11.68, 29.91)"/></g><g class="cls-8"><ellipse class="cls-9" cx="163.24" cy="92.6" rx="0.65" ry="1.28" transform="translate(57.57 247.71) rotate(-85.3)"/></g><g class="cls-7"><path d="M161.3,94.69l33.88,3.37L162,96.18a.78.78,0,0,1-.72-.88A6,6,0,0,0,161.3,94.69Z"/></g><path class="cls-6" d="M239.88,65l0,.09,0,0a.67.67,0,0,1-.09.14h0a.6.6,0,0,0-.08.08.92.92,0,0,1-.21.13h0l-13.37,6h0l-1,.47-4.21,1.88-1.42.64-.48.21-1.43.64-.22.1-1.8.81-2.08.92-.93.42-4.94,2.21-7.8,3.49-2,.88-2.18,1-1.2.54a1,1,0,0,1-.68,0,.92.92,0,0,1-.52-.45c-.91-1.73-2.13-3.52-1.74-5.33a2.68,2.68,0,0,0-.15-1.66,2.69,2.69,0,0,1,.11-2.61,2.06,2.06,0,0,0,.41-2.13,2.21,2.21,0,0,1,.68-2.17,2.89,2.89,0,0,0,.94-2.06,4,4,0,0,1,1.72-2.78,5,5,0,0,0,1.82-2.24,4.36,4.36,0,0,1,3-2.79,4.58,4.58,0,0,0,2.79-2A6.64,6.64,0,0,1,207.13,57a5.37,5.37,0,0,0,3.54-1.36,4.47,4.47,0,0,1,3.73-1,5.34,5.34,0,0,0,3.24-.47,3.17,3.17,0,0,1,2.82-.14,2.54,2.54,0,0,0,2.81.14,3,3,0,0,1,3,.47,2.77,2.77,0,0,0,2.53.69,2.63,2.63,0,0,1,1.89.35,1.52,1.52,0,0,1,.52.52.41.41,0,0,1,.06.11,2.33,2.33,0,0,0,2.21,1.21,2.75,2.75,0,0,1,2.18,1.6,3.57,3.57,0,0,0,2,2,2.94,2.94,0,0,1,1.47,1.69l.17.36c.07.17.15.35.22.53s.09.2.14.29a2.59,2.59,0,0,0,.14.29A.81.81,0,0,1,239.88,65Z"/><g class="cls-7"><path d="M224.82,58.05c-.11-.06-9.62-2.24-17.63,1.71s-15,13-11.64,25.31l2.18-1S193,67.69,208,61C213.63,58.33,224.69,58,224.82,58.05Z"/></g><g class="cls-8"><ellipse class="cls-9" cx="214.51" cy="61.78" rx="3.67" ry="1.6" transform="translate(-8.04 44.38) rotate(-11.6)"/></g><g class="cls-8"><ellipse class="cls-9" cx="219.03" cy="63.23" rx="1.87" ry="0.68" transform="translate(-8.25 45.43) rotate(-11.62)"/></g><g class="cls-8"><ellipse class="cls-9" cx="236.85" cy="62.4" rx="1.34" ry="0.69" transform="translate(-3.74 108.3) rotate(-25.56)"/></g><g class="cls-7"><path d="M239.54,63.73l-32,16,31.93-14.28a.8.8,0,0,0,.38-1.13C239.72,64.12,239.63,63.93,239.54,63.73Z"/></g><g class="cls-11"><path d="M183,101.62a.86.86,0,0,1-.41.5.58.58,0,0,1-.18.08.79.79,0,0,1-.46,0l-1.21-.29-.62-.15h0l-1.59-.39-.63-.15L168.59,99l-22.78-5.51h0l-9.54-2.3a.71.71,0,0,1-.26-.13.05.05,0,0,1,0,0,.49.49,0,0,1-.12-.13.1.1,0,0,1,0-.05l0,0a.69.69,0,0,1-.05-.13s0,0,0-.05a.43.43,0,0,0,0,0s0,0,0,0v0a.79.79,0,0,1,0-.3c.06-.2.11-.4.16-.6a8.91,8.91,0,0,1,.53-1.82,2.11,2.11,0,0,1,.77-.91,3.43,3.43,0,0,0,.47-.36,3.28,3.28,0,0,0,1.05-1.85,2.19,2.19,0,0,1,.21-.57,2.5,2.5,0,0,1,.88-.47,2.29,2.29,0,0,0,1.79-1.31,1.64,1.64,0,0,0,.74-1s0,0,0-.05a2.45,2.45,0,0,1,1.46-.46A2.62,2.62,0,0,0,146,79.67a3.21,3.21,0,0,1,2-1,1.45,1.45,0,0,1,0-.71,2.38,2.38,0,0,1,1.39-.07,2.41,2.41,0,0,0,2.6-.61,3,3,0,0,1,2.66-.36,5.12,5.12,0,0,0,3.11-.12,5.12,5.12,0,0,1,1.74-.29,4,4,0,0,1,1.31.23,2.53,2.53,0,0,1,.61.32,5.13,5.13,0,0,0,3.54.66,6.23,6.23,0,0,1,4.56,1.47,4.39,4.39,0,0,0,3,1.4,2.82,2.82,0,0,1,.86.14,4.2,4.2,0,0,1,1.52.9l.17.16a4.28,4.28,0,0,1,.69.89l.09.14a3.24,3.24,0,0,0,.52.64,5.81,5.81,0,0,0,1.49,1,4,4,0,0,1,2.05,2.17.74.74,0,0,1,0,.14,2.57,2.57,0,0,0,.4,1,2.92,2.92,0,0,0,.83.81,2.11,2.11,0,0,1,1,1.91,2,2,0,0,0,.75,1.92,2.56,2.56,0,0,1,.56,2.42,2.45,2.45,0,0,0,.15,1.58,3,3,0,0,1,.18.6,2.63,2.63,0,0,1,.06.49h0A12.56,12.56,0,0,1,183,101.62Z"/><g class="cls-7"><path d="M148.66,81.73c.08-.07,8.6-3.75,16.77-1.45s16.25,9.55,15.27,21.65l-2.21-.54s1.6-16.16-13.58-19.83C159.17,80.06,148.77,81.69,148.66,81.73Z"/></g><g class="cls-8"><ellipse cx="158.94" cy="83.43" rx="1.52" ry="3.49" transform="translate(72.46 240.73) rotate(-88.9)"/></g><g class="cls-8"><ellipse cx="154.96" cy="85.57" rx="0.65" ry="1.78" transform="matrix(0.02, -1, 1, 0.02, 66.35, 238.81)"/></g><g class="cls-8"><ellipse cx="138.16" cy="87.89" rx="0.65" ry="1.28" transform="matrix(0.26, -0.97, 0.97, 0.26, 17.38, 198.45)"/></g><g class="cls-7"><path d="M135.87,89.59,168.59,99l-32.33-7.82a.78.78,0,0,1-.55-1C135.77,90,135.82,89.79,135.87,89.59Z"/></g></g><path class="cls-6" d="M182.37,102.2c0,.09-.06.18-.08.26a.91.91,0,0,1-.41.51.89.89,0,0,1-.64.1l-1.22-.3-2.21-.53-9.9-2.4L135.59,92a.77.77,0,0,1-.55-1c.06-.19.11-.39.16-.6a4.2,4.2,0,0,1,1.2-2.66l.09-.07a3.28,3.28,0,0,0,1.15-1.2,3.51,3.51,0,0,0,.38-1,2.58,2.58,0,0,1,.88-1.41,2.5,2.5,0,0,1,.88-.47,2.29,2.29,0,0,0,1.79-1.31.66.66,0,0,0,.06-.2,1.63,1.63,0,0,1,.69-.89,2.45,2.45,0,0,1,1.46-.46A2.62,2.62,0,0,0,146,79.67a3.21,3.21,0,0,1,2-1,1.88,1.88,0,0,1,.75.07,2.41,2.41,0,0,0,2.6-.61,3,3,0,0,1,2.67-.37,5.08,5.08,0,0,0,3.1-.11,4.22,4.22,0,0,1,3.66.26,5.1,5.1,0,0,0,3.55.65A6.29,6.29,0,0,1,168.9,80a5.33,5.33,0,0,0,2,1.25,3.55,3.55,0,0,0,1,.16,3.33,3.33,0,0,1,1.74.54,2.83,2.83,0,0,1,.28.2,4.56,4.56,0,0,1,1.06,1.09,2.33,2.33,0,0,1,.17.26,2.13,2.13,0,0,0,.16.25,5,5,0,0,0,1.93,1.53,4.67,4.67,0,0,1,1.72,1.45h0a2.37,2.37,0,0,1,.37.85c0,.13.07.25.11.37a2.8,2.8,0,0,0,1.12,1.4,2.07,2.07,0,0,1,1,1.9,2,2,0,0,0,.74,1.92,2.54,2.54,0,0,1,.56,2.42,2.49,2.49,0,0,0,0,1.24,2.3,2.3,0,0,0,.12.34,1.67,1.67,0,0,1,.08.2h0C183.58,98.88,182.89,100.57,182.37,102.2Z"/><g class="cls-12"><path d="M148,82.58c.09-.08,8.6-3.76,16.78-1.46S181,90.68,180,102.77l-2.21-.53s1.6-16.17-13.58-19.84C158.49,80.9,148.1,82.53,148,82.58Z"/></g><g class="cls-8"><ellipse class="cls-9" cx="158.26" cy="84.28" rx="1.52" ry="3.49" transform="translate(70.95 240.89) rotate(-88.9)"/></g><g class="cls-8"><ellipse class="cls-9" cx="154.28" cy="86.41" rx="0.65" ry="1.78" transform="translate(64.84 238.96) rotate(-88.87)"/></g><g class="cls-8"><ellipse class="cls-9" cx="137.48" cy="88.73" rx="0.65" ry="1.28" transform="translate(16.06 198.42) rotate(-74.93)"/></g><g class="cls-12"><path d="M135.2,90.43l32.71,9.41L135.59,92a.77.77,0,0,1-.55-1C135.1,90.84,135.15,90.64,135.2,90.43Z"/></g><g class="cls-7"><path d="M270.7,89.09c-.07.2-.13.4-.18.59a.77.77,0,0,1-1,.57l-18.49-5.88-1.89-.6-1.42-.45-.25-.08h0l-1.36-.43L243.67,82l-1.21-.38-4.61-1.47-7.75-2.46-1.26-.4-.7-.22-1.46-.46-1.53-.49-.37-.12a.89.89,0,0,1-.5-.41,1,1,0,0,1-.09-.65,25.16,25.16,0,0,1,.83-3.07h0a4.87,4.87,0,0,1,.74-1.28,3.64,3.64,0,0,1,.57-.54,2.44,2.44,0,0,0,.95-1.27A2.58,2.58,0,0,1,229,67a2,2,0,0,0,1.64-1.26,2.1,2.1,0,0,1,1.85-1.1,2.77,2.77,0,0,0,2-.87,2.77,2.77,0,0,1,1.24-.71h0a4.87,4.87,0,0,1,1.66-.18h.08a6,6,0,0,0,1.7-.06l.17.36a3.73,3.73,0,0,0,1.52-.44,4.43,4.43,0,0,1,3.18-.4h0a2.85,2.85,0,0,0,.74.33A4.41,4.41,0,0,0,248,63a5.92,5.92,0,0,1,3.14.3h0a6.48,6.48,0,0,1,.84.51,7.52,7.52,0,0,0,1.92,1.08,3.91,3.91,0,0,0,2.13.48,3,3,0,0,1,1.09.15,5.11,5.11,0,0,1,1.5,1.24,5,5,0,0,0,2.29,1.61l.3.1a4.42,4.42,0,0,1,.79.33,2.42,2.42,0,0,1,1.3,1.36A2.38,2.38,0,0,0,265,72l.15,0a2.18,2.18,0,0,1,.58.27,3.15,3.15,0,0,1,1.26,2,2.65,2.65,0,0,0,1.36,2.09,2.49,2.49,0,0,1,1.12,1.44,1.45,1.45,0,0,1,0,.71l0,.11a2.21,2.21,0,0,0,.8,2.25,2.63,2.63,0,0,1,.54,2.53,3.36,3.36,0,0,0,.15,2.68C271.47,87,271,88.08,270.7,89.09Z"/></g><path class="cls-6" d="M271.37,89.38c-.06.2-.12.4-.17.59a.78.78,0,0,1-1,.57l-18.49-5.88-1.88-.6-1.42-.45-.25-.08h0l-1.36-.43-2.46-.78-1.21-.39-4.62-1.47L230.78,78l-2-.62-2.16-.69-1.2-.38a.75.75,0,0,1-.3-.17,1.12,1.12,0,0,1-.19-.24.86.86,0,0,1-.09-.65,14.53,14.53,0,0,1,1.2-3.83h0a3.52,3.52,0,0,1,.94-1.06,2.74,2.74,0,0,0,.69-.72h0a2.5,2.5,0,0,0,.26-.55,2.54,2.54,0,0,1,1.73-1.78,2,2,0,0,0,1.63-1.26,2.12,2.12,0,0,1,1.86-1.1,2.75,2.75,0,0,0,2-.87,3.86,3.86,0,0,1,3-.89,7.88,7.88,0,0,0,1.19,0,3.73,3.73,0,0,0,1.52-.44,4.43,4.43,0,0,1,3.18-.4,2.76,2.76,0,0,1,.68.3l.07,0A4.41,4.41,0,0,0,248,63a5.92,5.92,0,0,1,3.14.3h0a5.82,5.82,0,0,1,1.52.8,10.34,10.34,0,0,0,1.24.79,3.91,3.91,0,0,0,2.13.48,3,3,0,0,1,1.09.15,4.92,4.92,0,0,1,2.17,1.53,4.89,4.89,0,0,0,1.62,1.32,5.78,5.78,0,0,0,1,.39l.12,0a3,3,0,0,1,2,1.65A2.39,2.39,0,0,0,265,72a2.68,2.68,0,0,0,.73.31l.09,0a2.92,2.92,0,0,1,1.85,2.25,2.65,2.65,0,0,0,1.36,2.09,2.51,2.51,0,0,1,1.11,1.44,1.59,1.59,0,0,1,.05.71l0,.11a2.2,2.2,0,0,0,.8,2.25,2.63,2.63,0,0,1,.53,2.53,3.37,3.37,0,0,0,.16,2.68C272.14,87.33,271.7,88.37,271.37,89.38Z"/><g class="cls-7"><path d="M264.51,76c0-.11-5.4-7.67-13.59-10s-18.84-.25-24.27,10.6l2.16.69s7-14.65,21.9-9.92C256.4,69.16,264.44,75.94,264.51,76Z"/></g><g class="cls-8"><ellipse class="cls-9" cx="254.84" cy="72.16" rx="1.52" ry="3.49" transform="translate(64.51 256.35) rotate(-59.87)"/></g><g class="cls-8"><ellipse class="cls-9" cx="257.13" cy="76.05" rx="0.65" ry="1.78" transform="translate(62.38 260.37) rotate(-59.9)"/></g><g class="cls-8"><ellipse class="cls-9" cx="270.3" cy="86.74" rx="0.65" ry="1.28" transform="translate(111.73 322.2) rotate(-73.83)"/></g><g class="cls-7"><path d="M271.37,89.38l-32.85-8.92,31.69,10.08a.78.78,0,0,0,1-.56C271.25,89.78,271.31,89.58,271.37,89.38Z"/></g><g class="cls-10"><path d="M255,90.42a3.37,3.37,0,0,1-1.1-2.45,2.6,2.6,0,0,0-1.4-2.17c-.85-.4-1.51-.92-1.55-1.81a2.23,2.23,0,0,0-1.86-1.72,2.62,2.62,0,0,1-2-1.47,2.92,2.92,0,0,0-2.53-1.44,2.41,2.41,0,0,1-2.45-1.06,3,3,0,0,0-2.56-.84,5.09,5.09,0,0,1-3-.68,4.26,4.26,0,0,0-3.65-.4,5.13,5.13,0,0,1-3.6,0,6.29,6.29,0,0,0-4.75.62,4.34,4.34,0,0,1-3.17.85,4.14,4.14,0,0,0-3.57,1.48,4.75,4.75,0,0,1-2.38,1.37,3.84,3.84,0,0,0-2.47,1.89,2.81,2.81,0,0,1-1.53,1.52A2.08,2.08,0,0,0,210,85.81a2,2,0,0,1-1.08,1.75,2.55,2.55,0,0,0-1,2.28,2.59,2.59,0,0,1-.43,1.53c-1,1.48-.49,3.48-.26,5.33a.88.88,0,0,0,.31.57.89.89,0,0,0,.61.21l46.89-2.65a.77.77,0,0,0,.72-.88c0-.2,0-.4,0-.61C255.69,92.27,255.73,91.15,255,90.42Z"/></g><path class="cls-6" d="M256.14,91.94a3.37,3.37,0,0,1-1.1-2.45,2.6,2.6,0,0,0-1.4-2.17c-.85-.4-1.5-.92-1.55-1.81a2.22,2.22,0,0,0-1.86-1.72,2.62,2.62,0,0,1-2-1.47,2.91,2.91,0,0,0-2.53-1.44,2.39,2.39,0,0,1-2.44-1.06,3,3,0,0,0-2.56-.84,5.06,5.06,0,0,1-3-.68,4.26,4.26,0,0,0-3.65-.4,5.15,5.15,0,0,1-3.61,0,6.29,6.29,0,0,0-4.75.62,4.33,4.33,0,0,1-3.16.85,4.15,4.15,0,0,0-3.58,1.48,4.75,4.75,0,0,1-2.38,1.37,3.84,3.84,0,0,0-2.47,1.89,2.77,2.77,0,0,1-1.52,1.51,2.1,2.1,0,0,0-1.35,1.7,2,2,0,0,1-1.07,1.75,2.56,2.56,0,0,0-1,2.28,2.46,2.46,0,0,1-.43,1.53c-1,1.48-.49,3.48-.26,5.33a.88.88,0,0,0,.31.57.89.89,0,0,0,.61.21l46.89-2.65a.77.77,0,0,0,.72-.88c0-.2,0-.4,0-.61C256.87,93.79,256.92,92.67,256.14,91.94Z"/><g class="cls-11"><path d="M235.26,101.79a.87.87,0,0,0,.42.5.49.49,0,0,0,.18.08.77.77,0,0,0,.45,0l1.22-.3.62-.14h0l1.59-.39.63-.15,9.27-2.25,22.78-5.51h0L282,91.34a.66.66,0,0,0,.27-.12l0,0a.74.74,0,0,0,.12-.13l0,0,0,0a.43.43,0,0,0,.05-.12l0,0a.07.07,0,0,1,0,0v0s0,0,0,0a.68.68,0,0,0,0-.31c-.05-.19-.11-.39-.15-.59a9.59,9.59,0,0,0-.53-1.82,2.11,2.11,0,0,0-.77-.91,3.53,3.53,0,0,1-.48-.36,3.32,3.32,0,0,1-1-1.85,2.19,2.19,0,0,0-.21-.57,2.35,2.35,0,0,0-.88-.47,2.33,2.33,0,0,1-1.8-1.31,1.66,1.66,0,0,1-.73-1,.43.43,0,0,0,0-.05,2.48,2.48,0,0,0-1.46-.46,2.65,2.65,0,0,1-2.24-1.08,3.21,3.21,0,0,0-2-1,1.59,1.59,0,0,0-.05-.71,2.26,2.26,0,0,0-1.38-.07,2.41,2.41,0,0,1-2.6-.61,3,3,0,0,0-2.67-.36,5.09,5.09,0,0,1-3.1-.12,4.93,4.93,0,0,0-1.74-.29,4.11,4.11,0,0,0-1.32.23,2.66,2.66,0,0,0-.6.32,5.14,5.14,0,0,1-3.54.66,6.27,6.27,0,0,0-4.57,1.47,4.39,4.39,0,0,1-3,1.4,2.82,2.82,0,0,0-.86.14,4.32,4.32,0,0,0-1.52.89l-.17.17a4.28,4.28,0,0,0-.69.89l-.09.14a3.63,3.63,0,0,1-.52.64,5.81,5.81,0,0,1-1.49,1,4,4,0,0,0-2.06,2.17l0,.14a2.75,2.75,0,0,1-.4,1,2.92,2.92,0,0,1-.83.81,2.12,2.12,0,0,0-1,1.91,2,2,0,0,1-.74,1.92,2.56,2.56,0,0,0-.56,2.42,2.42,2.42,0,0,1-.15,1.57,3.28,3.28,0,0,0-.18.61,2.63,2.63,0,0,0-.07.49h0A12.79,12.79,0,0,0,235.26,101.79Z"/><g class="cls-7"><path d="M269.57,81.9c-.09-.07-8.6-3.75-16.77-1.45S236.55,90,237.53,102.1l2.21-.54s-1.6-16.16,13.58-19.83C259.06,80.23,269.45,81.86,269.57,81.9Z"/></g><g class="cls-8"><ellipse cx="259.29" cy="83.6" rx="3.49" ry="1.52" transform="translate(-1.56 5.01) rotate(-1.1)"/></g><g class="cls-8"><ellipse cx="263.27" cy="85.74" rx="1.78" ry="0.65" transform="translate(-1.64 5.21) rotate(-1.13)"/></g><g class="cls-8"><ellipse cx="280.07" cy="88.06" rx="1.28" ry="0.65" transform="translate(-13.26 75.83) rotate(-15.07)"/></g><g class="cls-7"><path d="M282.36,89.76l-32.72,9.41L282,91.34a.76.76,0,0,0,.55-1A5.66,5.66,0,0,1,282.36,89.76Z"/></g></g><path class="cls-6" d="M235.86,102.37c0,.09,0,.18.08.26a.91.91,0,0,0,.41.51.84.84,0,0,0,.64.09l1.22-.29,2.21-.53,9.9-2.4,32.32-7.82a.77.77,0,0,0,.55-1c-.06-.19-.11-.39-.16-.6a4.2,4.2,0,0,0-1.2-2.66l-.09-.07a3.31,3.31,0,0,1-1.16-1.2,3.94,3.94,0,0,1-.37-1,2.64,2.64,0,0,0-.88-1.41,2.35,2.35,0,0,0-.88-.47,2.33,2.33,0,0,1-1.8-1.31,1.46,1.46,0,0,1,0-.2,1.63,1.63,0,0,0-.69-.89,2.48,2.48,0,0,0-1.46-.46,2.65,2.65,0,0,1-2.24-1.08,3.21,3.21,0,0,0-2-1,1.7,1.7,0,0,0-.75.07,2.44,2.44,0,0,1-2.6-.61,3,3,0,0,0-2.67-.37,5.08,5.08,0,0,1-3.1-.11,4.28,4.28,0,0,0-3.67.25,5,5,0,0,1-3.54.66,6.28,6.28,0,0,0-4.56,1.47,5.33,5.33,0,0,1-2,1.25,3.55,3.55,0,0,1-1,.16,3.3,3.3,0,0,0-1.74.54,2.83,2.83,0,0,0-.28.2,4.51,4.51,0,0,0-1.06,1.08c-.06.09-.12.18-.17.27a2.13,2.13,0,0,1-.16.25A4.92,4.92,0,0,1,241,85.44a4.63,4.63,0,0,0-1.72,1.46h0a2.59,2.59,0,0,0-.38.85,2.24,2.24,0,0,1-.1.37,2.8,2.8,0,0,1-1.12,1.4,2.07,2.07,0,0,0-1,1.9,2,2,0,0,1-.74,1.92,2.54,2.54,0,0,0-.56,2.42,2.39,2.39,0,0,1,0,1.24c0,.11-.07.23-.11.34a1.67,1.67,0,0,0-.08.2h0C234.65,99,235.33,100.74,235.86,102.37Z"/><g class="cls-12"><path d="M270.25,82.75c-.09-.08-8.6-3.76-16.78-1.46s-16.25,9.56-15.26,21.65l2.21-.53S238.81,86.24,254,82.57C259.74,81.07,270.13,82.7,270.25,82.75Z"/></g><g class="cls-8"><ellipse class="cls-9" cx="259.97" cy="84.45" rx="3.49" ry="1.52" transform="matrix(1, -0.02, 0.02, 1, -1.58, 5.02)"/></g><g class="cls-8"><ellipse class="cls-9" cx="263.94" cy="86.58" rx="1.78" ry="0.65" transform="matrix(1, -0.02, 0.02, 1, -1.66, 5.23)"/></g><g class="cls-8"><ellipse class="cls-9" cx="280.74" cy="88.9" rx="1.28" ry="0.65" transform="translate(-13.46 76.03) rotate(-15.07)"/></g><g class="cls-12"><path d="M283,90.6,250.32,100l32.32-7.82a.77.77,0,0,0,.55-1C283.13,91,283.08,90.81,283,90.6Z"/></g><g class="cls-8"><path d="M238.43,101.7s3.72.54,7.76.71,8.59-.17,8.59-.17A29.39,29.39,0,0,1,238.43,101.7Z"/></g><rect class="cls-4" x="173.77" y="104.82" width="66.83" height="6.9" rx="2.01"/><ellipse class="cls-13" cx="206.01" cy="81.33" rx="25.87" ry="7.63" transform="translate(-1.62 4.22) rotate(-1.17)"/><path class="cls-9" d="M231.52,83.67c.09,4.21-11.42,7.87-25.7,8.16s-25-3.88-25.13-8.1A3.41,3.41,0,0,1,182.36,81h0c3.51-2.62,12.26-4.22,23.14-4.44,10.62-.22,19.77,1.49,23.82,4.1h0C230.72,81.58,231.5,82.59,231.52,83.67Z"/><path class="cls-5" d="M180.43,83.92a4.57,4.57,0,0,1-.51-.91,4.66,4.66,0,0,1-.31-1,3,3,0,0,1,.52-2.1,6.38,6.38,0,0,1,1.44-1.49,13,13,0,0,1,1.68-1.08,24.71,24.71,0,0,1,3.63-1.57c1.24-.43,2.5-.79,3.77-1.1a63.3,63.3,0,0,1,7.7-1.35c2.59-.31,5.19-.49,7.8-.56s5.21,0,7.82.16a64.16,64.16,0,0,1,7.78,1c1.29.25,2.57.56,3.84.94a22.47,22.47,0,0,1,3.75,1.48,11.08,11.08,0,0,1,1.76,1.12,5.39,5.39,0,0,1,1.49,1.73,3.34,3.34,0,0,1,.37,1.22,3.8,3.8,0,0,1-.09,1.16,4.41,4.41,0,0,1-.33,1,2.42,2.42,0,0,1-.73,1l-.69-.58c0-.22.06-.5.08-.78l.06-.86c0-.15,0-.29,0-.43v-.2a.76.76,0,0,0,0-.15,1.62,1.62,0,0,0-.18-.62,3.9,3.9,0,0,0-1-1.19,9.75,9.75,0,0,0-1.49-1,21,21,0,0,0-3.46-1.38,37.37,37.37,0,0,0-3.68-.93,62,62,0,0,0-7.58-1c-2.55-.21-5.11-.29-7.68-.27s-5.13.15-7.68.4a64.73,64.73,0,0,0-7.59,1.18c-1.25.27-2.49.59-3.7,1a24.05,24.05,0,0,0-3.53,1.41,11.69,11.69,0,0,0-1.6,1,5.94,5.94,0,0,0-1.29,1.26,2.53,2.53,0,0,0-.38.75,1.92,1.92,0,0,0-.09.4,1.48,1.48,0,0,0,0,.21v.19a4,4,0,0,0,.24.85,4.52,4.52,0,0,0,.41.79Z"/><path class="cls-14" d="M231.73,77.69c0,.34,0,.8-.13,1.48,0,.14,0,.3-.06.46-.08.66-.18,1.49-.33,2.53,0,.1,0,.2,0,.3l0,.21h0a1.37,1.37,0,0,0,0,.19c-.21,1.44-.31,2.19-.37,2.4,0,0-.07.22-.23.59a12.22,12.22,0,0,1-4.27,4.84c-3.68,2.54-19.69,3.46-41.4,1.24-1.26-1.31-4.78-5.25-4.85-9.71v-.06c0-.31,0-.62,0-.93,0-.11,0-.23.05-.38a7,7,0,0,1,.52-2.07,2.49,2.49,0,0,1,1.14-1.27,2.82,2.82,0,0,1,2,.07,3,3,0,0,0,.42.06,1.63,1.63,0,0,0,.67-.13,1.43,1.43,0,0,0,.53-.4,1.6,1.6,0,0,0,.2-.34c.62-1.3.11-3.78,1.6-5.93a6,6,0,0,1,.95-1.06h0a9.47,9.47,0,0,1,6.48-2,7.16,7.16,0,0,1,3.11,1,3.66,3.66,0,0,0,1.54.21,5.2,5.2,0,0,0,1.79-.38c1.44-.56,2.57-1.61,5.5-2.1a7.39,7.39,0,0,1,2.94,0,9.55,9.55,0,0,1,2.95,1.4,11.94,11.94,0,0,1,1.65,1.16h0a2.3,2.3,0,0,0,.83.54,3.81,3.81,0,0,0,2.75,0,3.68,3.68,0,0,1,2.52,0,5,5,0,0,1,1.27.85c.4.29,1,.71,2,1.32a7.21,7.21,0,0,0,1.7.93,4.08,4.08,0,0,0,2.36,0,2.84,2.84,0,0,1,1.36,0A3.91,3.91,0,0,1,231.1,75a9.81,9.81,0,0,1,.58,1.74A3,3,0,0,1,231.73,77.69Z"/><g class="cls-8"><path d="M231.73,77.69c0,.69-.17,1.93-.52,4.47-.26,1.91-.39,2.86-.46,3.1a11.29,11.29,0,0,1-4.5,5.43c-3.68,2.54-19.69,3.46-41.4,1.24-1.35-1.4-5.31-5.84-4.81-10.7a8.36,8.36,0,0,1,.57-2.45c19.29,10,28.62,10.54,50.91-1Z"/></g><path class="cls-5" d="M232.13,80.66c.25,12.65-11.22,23.14-25.63,23.43s-26.31-9.72-26.56-22.36c.08,4.26,11.84,7.48,26.25,7.19S232.21,84.93,232.13,80.66Z"/><g class="cls-15"><path class="cls-9" d="M180.16,82.71s4.91,9.69,40.18,4.84C220.4,87.54,185.35,96.35,180.16,82.71Z"/></g><circle class="cls-16" cx="197.81" cy="81.24" r="1.14"/><circle class="cls-16" cx="214.56" cy="80.2" r="1.14"/><path class="cls-16" d="M206.09,83.53a5.44,5.44,0,0,1-2.9-.81.52.52,0,0,1-.12-.71.51.51,0,0,1,.71-.12,4.46,4.46,0,0,0,2.61.61,4.82,4.82,0,0,0,2.58-.94.5.5,0,0,1,.66.76,5.66,5.66,0,0,1-3.18,1.19Z"/><path class="cls-4" d="M275.6,93a9.42,9.42,0,0,1-.82,4.11c-1.32,2.84-4.59,5.35-11.92,7.3-9.84,2.62-27,4.23-56.71,4.23-64.41,0-69.45-7-69.45-15.64,0,2.91,31.1,5.27,69.45,5.27,17.71,0,33.87-.5,46.14-1.33,12.84-.87,21.41-2.09,23-3.47A.62.62,0,0,0,275.6,93Z"/><g class="cls-8"><path d="M173.72,106.59s15.19,1,31.64,1,34.89-1.44,34.89-1.44S210.56,113.36,173.72,106.59Z"/></g><g class="cls-15"><path class="cls-9" d="M137.25,93.66s12.53,6.69,106.62,3.87C244,97.52,150.32,103.05,137.25,93.66Z"/></g><g class="cls-8"><path class="cls-9" d="M194.62,67.74a7.16,7.16,0,0,1,3.11,1c-5.57.35-9.49,1-9.59,1A9.47,9.47,0,0,1,194.62,67.74Z"/></g><g class="cls-8"><path class="cls-9" d="M212.45,67.9a11.94,11.94,0,0,1,1.65,1.16,89.6,89.6,0,0,0-13-.46c1.44-.56,2.57-1.61,5.5-2.1a7.39,7.39,0,0,1,2.94,0A9.55,9.55,0,0,1,212.45,67.9Z"/></g><g class="cls-8"><path class="cls-9" d="M220.2,69.6a5,5,0,0,1,1.27.85c-1.23-.34-2.5-.62-3.79-.85A3.68,3.68,0,0,1,220.2,69.6Z"/></g><g class="cls-8"><path class="cls-9" d="M231.1,75a21.66,21.66,0,0,0-3.58-2.29,2.84,2.84,0,0,1,1.36,0A3.91,3.91,0,0,1,231.1,75Z"/></g><polygon class="cls-17" points="206.54 72.11 209.43 75.58 210.23 75.25 207.2 72.09 206.54 72.11"/><polygon class="cls-17" points="187.4 75.28 190.15 74.74 190.16 75.23 187.41 75.84 187.4 75.28"/><polygon class="cls-17" points="192.36 79.08 192.59 79.07 192.78 79.97 192.38 79.98 192.36 79.08"/><polygon class="cls-17" points="200.07 71.57 201.38 71.01 201.39 71.55 200.07 71.57"/><polygon class="cls-17" points="217.77 73.36 216.65 75.12 217.22 75.11 218.28 73.33 217.77 73.36"/><polygon class="cls-17" points="218.3 74.53 219.27 75.86 218.97 74.12 218.3 74.53"/><polygon class="cls-17" points="221.66 81.69 224.28 80.82 224.53 81.23 221.67 82.21 221.66 81.69"/><polygon class="cls-17" points="191.54 79.75 191.7 79.99 190.79 81.19 190.52 81.04 191.54 79.75"/><polygon class="cls-17" points="199.55 71.92 200.09 72.89 199.83 73.05 199.24 71.92 199.55 71.92"/><rect class="cls-18" y="0.25" width="300" height="165"/></g></g></svg>