<svg xmlns="http://www.w3.org/2000/svg" xmlns:xlink="http://www.w3.org/1999/xlink" viewBox="0 0 300 165.5"><defs><style>.cls-1{isolation:isolate;}.cls-2{fill:#fce5cd;}.cls-3{fill:#f7cda9;}.cls-4{fill:#963848;}.cls-5{fill:#00922b;}.cls-6{fill:#5c929e;}.cls-7{opacity:0.31;}.cls-10,.cls-12,.cls-15,.cls-16,.cls-17,.cls-7,.cls-9{mix-blend-mode:soft-light;}.cls-8{fill:#6d1b2c;}.cls-9{opacity:0.18;}.cls-10{opacity:0.52;}.cls-11{fill:#ffe8d9;}.cls-12{opacity:0.49;}.cls-13{fill:#fff;}.cls-14{fill:#f9b7c5;}.cls-15{opacity:0.44;}.cls-16{opacity:0.55;}.cls-17{opacity:0.73;}.cls-18{fill:url(#linear-gradient);}</style><linearGradient id="linear-gradient" x1="150.37" y1="168.62" x2="149.66" y2="2.17" gradientUnits="userSpaceOnUse"><stop offset="0.03" stop-color="#591c16"/><stop offset="0.22" stop-color="#5f241d" stop-opacity="0.96"/><stop offset="0.38" stop-color="#733c33" stop-opacity="0.84"/><stop offset="0.53" stop-color="#936459" stop-opacity="0.64"/><stop offset="0.68" stop-color="#c09d8d" stop-opacity="0.36"/><stop offset="0.82" stop-color="#fae5cf" stop-opacity="0"/></linearGradient></defs><g class="cls-1"><g id="Layer_1" data-name="Layer 1"><rect class="cls-2" y="0.25" width="300" height="165"/><ellipse class="cls-3" cx="209.66" cy="61.72" rx="67.72" ry="20.36"/><ellipse class="cls-4" cx="209.66" cy="67.23" rx="67.72" ry="20.36"/><path class="cls-5" d="M177.64,75.71a6.38,6.38,0,0,1-.84,1.64s-2.88-.92-2.92-6.74h0a22.46,22.46,0,0,1,.3-3.68C178.62,70.27,178.34,73.74,177.64,75.71Z"/><path class="cls-6" d="M143,67a12,12,0,0,1-1.2-2.34,12.47,12.47,0,0,1-.72-2.53q0-.33-.06-.69c0-.23,0-.45,0-.68a7.31,7.31,0,0,1,.24-1.32A8.83,8.83,0,0,1,142.42,57a15.73,15.73,0,0,1,3.66-3.71,30.83,30.83,0,0,1,4.39-2.73,62.56,62.56,0,0,1,9.5-3.89c3.26-1,6.56-1.92,9.89-2.66a168.4,168.4,0,0,1,20.22-3.07c6.78-.64,13.6-.94,20.41-1s13.64.3,20.43,1a165.14,165.14,0,0,1,20.23,3.15c3.33.76,6.65,1.65,9.9,2.74a55.6,55.6,0,0,1,9.5,4.1,26.33,26.33,0,0,1,4.34,3,15.76,15.76,0,0,1,1.9,1.93,10.76,10.76,0,0,1,1.49,2.35A7.87,7.87,0,0,1,279,61c0,.13,0,.25,0,.37s0,.25,0,.36,0,.46-.05.69c-.05.44-.11.88-.2,1.31a14.64,14.64,0,0,1-.71,2.57,7.4,7.4,0,0,1-.59,1.24,4.53,4.53,0,0,1-.88,1.14l-.77-.66a8.35,8.35,0,0,0,.74-2.18c.17-.78.3-1.58.4-2.39.05-.41.1-.81.13-1.21,0-.2,0-.4,0-.59a4.82,4.82,0,0,0,0-.54,5.71,5.71,0,0,0-.53-2.12,11,11,0,0,0-2.89-3.65,25.53,25.53,0,0,0-4-2.79,54.33,54.33,0,0,0-9.17-4,97.81,97.81,0,0,0-9.72-2.72,160.13,160.13,0,0,0-20-3.19c-6.73-.67-13.49-1-20.26-1.06s-13.54.2-20.29.78a167.22,167.22,0,0,0-20.07,2.88c-3.31.7-6.59,1.52-9.81,2.52a60.26,60.26,0,0,0-9.39,3.7A31.43,31.43,0,0,0,146.65,54a15.18,15.18,0,0,0-3.51,3.46,7.83,7.83,0,0,0-1.06,2.15,6.08,6.08,0,0,0-.24,1.17q0,.3,0,.6a4,4,0,0,0,.05.58,11.17,11.17,0,0,0,.64,2.36,11.32,11.32,0,0,0,1.08,2.21Z"/><g class="cls-7"><path d="M177.64,75.71a6.38,6.38,0,0,1-.84,1.64s-2.88-.92-2.92-6.74C173.9,70.7,175.19,77.21,177.64,75.71Z"/></g><path class="cls-8" d="M180.67,80.21c-.34,1.11-3.45,1.34-6.8,1.2a36.52,36.52,0,0,1-8.4-1.2c-2.14-.89-.18-8.71,3.44-8A28.91,28.91,0,0,1,178,76.69C179.76,78,181,79.31,180.67,80.21Z"/><g class="cls-9"><path d="M180.67,80.21c-.34,1.11-3.45,1.34-6.8,1.2.37-2,1.41-4,3.2-4.53.28-.07.59-.14.92-.19C179.76,78,181,79.31,180.67,80.21Z"/></g><path class="cls-8" d="M176,85.55c-1.49-.74-.78-7.38,2.61-8.29s11.45-.05,12,1.28-.42,6.5-.8,7.5S178.43,86.78,176,85.55Z"/><rect class="cls-6" x="189.23" y="117.38" width="43" height="8.14" rx="2.26"/><path class="cls-6" d="M278.05,61.36c0,33.74-30.59,61.09-68.32,61.09S141.4,95.1,141.4,61.36C141.4,72.74,172,82,209.73,82S278.05,72.74,278.05,61.36Z"/><g class="cls-10"><path d="M189.2,121.25s9.78,1,20.36,1A221.41,221.41,0,0,0,232,120.85S212.91,127.9,189.2,121.25Z"/></g><circle class="cls-11" cx="195.98" cy="98.81" r="1.87"/><circle class="cls-11" cx="223.4" cy="98.81" r="1.87"/><path class="cls-11" d="M209.84,103.14a8.61,8.61,0,0,1-5.07-1.58.58.58,0,0,1-.09-.8.56.56,0,0,1,.8-.09,7.59,7.59,0,0,0,4.36,1.33,8.1,8.1,0,0,0,4.47-1.34.56.56,0,0,1,.79.11.57.57,0,0,1-.11.8A9,9,0,0,1,209.84,103.14Z"/><g class="cls-12"><path class="cls-13" d="M141.94,64s12.32,26.11,104.9,15.09C247,79.07,154.8,100.65,141.94,64Z"/></g><path class="cls-14" d="M198.36,70.66c-3.05-.2-10-.65-11.19-4.36a5.36,5.36,0,0,1,1.32-4.94c1.93-2.08,3.88-.6,8.36-2.47,3.23-1.34,3.74-2.74,6.83-3.22a8,8,0,0,1,4.17.19c3.89,1.48,6.43,7.64,4.56,11.39C210.31,71.44,203.47,71,198.36,70.66Z"/><g class="cls-15"><path d="M236.31,77.6s-12.16.45-13.34,0c-.08,0-.12-.07-.13-.12-7,1.22-20.32,2.12-21.24-.89-1.16-3.77,13.34-11.89,19.27-13.08,5.14-1,8.24,8.43,6.71,11.93a23.69,23.69,0,0,1,2.62-.7C231.33,74.57,239.93,76.54,236.31,77.6Z"/></g><g class="cls-15"><path d="M246.34,63.51c-.34,1.1-3.45,1.34-6.8,1.19a36.21,36.21,0,0,1-8.41-1.19c-2.14-.89-.17-8.71,3.45-8A29,29,0,0,1,243.66,60C245.43,61.3,246.62,62.6,246.34,63.51Z"/></g><g class="cls-15"><path d="M241.65,68.85c-1.5-.75-.78-7.38,2.61-8.29s11.44-.05,12,1.28-.41,6.5-.79,7.5S244.09,70.08,241.65,68.85Z"/></g><path class="cls-5" d="M210.17,72.51a4.17,4.17,0,0,1-.77.52h0c-2.2,1.12-4.18-.82-5.13-3.38a9.5,9.5,0,0,1-.57-2.73Z"/><path class="cls-5" d="M244.87,58c-.39,1.39-1.19,2.67-2.82,2.57a6.56,6.56,0,0,1,0-1.55,5.15,5.15,0,0,1,.7-2,5.71,5.71,0,0,1,2.44-2.24v.11A11.26,11.26,0,0,1,244.87,58Z"/><g class="cls-16"><path class="cls-13" d="M245.23,54.91a2.78,2.78,0,0,1-.73,1.49c-.64.72-1.38,1-1.67.71l0-.07a5.71,5.71,0,0,1,2.44-2.24Z"/></g><g class="cls-7"><path d="M244.87,58c-.39,1.39-1.19,2.67-2.82,2.57a6.56,6.56,0,0,1,0-1.55C242.4,59.24,243.76,60,244.87,58Z"/></g><path class="cls-5" d="M214.77,60c.6,4.95,6.36,6.45,7.7,6.73l.28,0,1.83-2.32s.92-6.9-9.31-8.4A8.85,8.85,0,0,0,214.77,60Z"/><g class="cls-7"><path d="M214.77,60c.6,4.95,6.36,6.45,7.7,6.73-.21-1.18-.46-2.42-.46-2.42S217.14,63.7,214.77,60Z"/></g><path class="cls-8" d="M246.72,62.56a.61.61,0,0,1-.05.12l0,0,0,.07-.06.07h0l-.05,0,0,0a.1.1,0,0,1-.05,0l-.12.09-.09,0a2.29,2.29,0,0,1-.35.16l-.14.05-.15,0-.14,0-.09,0-.18,0-.19,0-.2,0a23.41,23.41,0,0,1-4.81.17,36.21,36.21,0,0,1-8.41-1.19c-.78-.33-1-1.58-.82-3,.35-2.46,2-5.43,4.27-5A29,29,0,0,1,244,59C245.81,60.35,247,61.66,246.72,62.56Z"/><g class="cls-7"><path d="M209.4,73c-2.2,1.12-4.18-.82-5.13-3.38C204.27,69.65,207.28,73,209.4,73Z"/></g><path class="cls-8" d="M227.47,75.81c-3.1,1.28-19.31,3.22-23.81,1.06h0a1.91,1.91,0,0,1-1.1-1.06c-1.16-3.77,13.34-11.89,19.27-13.08a4.12,4.12,0,0,1,.85-.07C228.05,62.76,230.8,74.43,227.47,75.81Z"/><g class="cls-9"><path d="M246.72,62.56a.61.61,0,0,1-.05.12l0,0,0,.07-.06.07h0l-.05,0,0,0a.1.1,0,0,1-.05,0l-.12.09-.09,0a2.29,2.29,0,0,1-.35.16l-.14.05-.15,0-.14,0-.09,0-.18,0-.19,0-.2,0a23.41,23.41,0,0,1-4.81.17,36.21,36.21,0,0,1-8.41-1.19c-.78-.33-1-1.58-.82-3,0,0,2.12,2.55,9.45,3.28.49-1.65,1.47-3.2,3-3.6A9.26,9.26,0,0,1,244,59C245.81,60.35,247,61.66,246.72,62.56Z"/></g><g class="cls-15"><path d="M178.5,63.89c2.38-1.19,1.25-11.75-4.15-13.2s-18.22-.08-19.18,2,.67,10.35,1.27,11.93S174.61,65.85,178.5,63.89Z"/></g><g class="cls-15"><path d="M190.83,51.45c-.37-1.46-9.48-4.78-12.1-2.94s-4.83,7.92-3.32,9.1,8.81,3.45,10.29,3.75S191.44,53.86,190.83,51.45Z"/></g><path class="cls-8" d="M190,54.39v0c-1.22,2.9-3.3,6-4.24,5.82-.76-.16-3-.83-5.28-1.6a26.75,26.75,0,0,1-4.84-2h0l-.16-.12c-1-.8-.33-3.86,1-6.32a8.33,8.33,0,0,1,2.29-2.78c2.61-1.84,11.72,1.48,12.09,3A7.88,7.88,0,0,1,190,54.39Z"/><path class="cls-8" d="M256.49,65.79a19,19,0,0,1-.6,2.6c-.38,1-11.42.74-13.86-.49-.55-.27-.8-1.33-.73-2.61.11-2.22,1.18-5.1,3.34-5.68,3.39-.91,11.44,0,12,1.28C257.05,61.7,256.82,63.94,256.49,65.79Z"/><g class="cls-16"><ellipse class="cls-13" cx="217.43" cy="57.42" rx="0.49" ry="1.37" transform="translate(94.72 245.87) rotate(-71.72)"/></g><g class="cls-9"><path d="M189.94,54.41c-1.22,2.9-3.3,6-4.24,5.82-.76-.16-3-.83-5.28-1.6a26.75,26.75,0,0,1-4.84-2h0l-.16-.12c-1-.8-.33-3.86,1-6.32,2.28,1.43,3.55,4.68,3.9,7.54C187.63,58.58,189.77,54.74,189.94,54.41Z"/></g><g class="cls-9"><path d="M227.47,75.81c-3.1,1.28-19.31,3.22-23.81,1.06,24.45,2.61,19-14.21,19-14.21C228.05,62.76,230.8,74.43,227.47,75.81Z"/></g><g class="cls-15"><path d="M201.43,54.42c-.79-1.79,4.52-3.69,5.66-3.69s8.66,1.22,7.56,1.85S201.43,54.42,201.43,54.42Z"/></g><path class="cls-8" d="M214.65,52c-1.1.62-13.22,1.84-13.22,1.84a1.15,1.15,0,0,1,.34-1.27,10.7,10.7,0,0,1,5.32-2.42,41.08,41.08,0,0,1,6.42,1.11C214.46,51.54,215,51.8,214.65,52Z"/><path class="cls-8" d="M237.26,76.84s-8.94.33-12.23.13a4.35,4.35,0,0,1-1.11-.15c-1.18-.47,6.1-2.7,7.23-2.86a8.28,8.28,0,0,1,2.2.26C235.28,74.65,237.62,75.59,237.26,76.84Z"/><path class="cls-8" d="M178.5,62.75c-3.89,2-21.46,2.36-22.06.77s-2.22-9.81-1.27-11.93a2.22,2.22,0,0,1,1.08-.86c3.39-1.59,13.47-2.41,18.1-1.17,3.56.95,5.26,5.87,5.33,9.45C179.71,60.85,179.31,62.35,178.5,62.75Z"/><g class="cls-9"><path d="M237.26,76.84s-8.94.33-12.23.13c11.25,0,8.32-2.75,8.32-2.75C235.28,74.65,237.62,75.59,237.26,76.84Z"/></g><g class="cls-9"><path d="M256.49,65.79a19,19,0,0,1-.6,2.6c-.38,1-11.42.74-13.86-.49-.55-.27-.8-1.33-.73-2.61C241.3,65.29,249.14,69.64,256.49,65.79Z"/></g><g class="cls-9"><path d="M178.5,62.75c-3.89,2-21.46,2.36-22.06.77s-2.22-9.81-1.27-11.93a2.22,2.22,0,0,1,1.08-.86s-.21,8.35,3,9.87,17.36,1.88,20.25-1.43c0-.06.11-.11.16-.16C179.71,60.85,179.31,62.35,178.5,62.75Z"/></g><g class="cls-9"><path d="M214.65,52c-1.1.62-13.22,1.84-13.22,1.84a1.15,1.15,0,0,1,.34-1.27c.39.43,7,.18,11.74-1.31C214.46,51.54,215,51.8,214.65,52Z"/></g><g class="cls-17"><ellipse class="cls-13" cx="234.8" cy="56.14" rx="1.52" ry="0.66"/></g><g class="cls-17"><ellipse class="cls-13" cx="218.95" cy="65.55" rx="2.48" ry="1.19" transform="translate(-7.95 92.94) rotate(-23.55)"/></g><g class="cls-17"><ellipse class="cls-13" cx="217.56" cy="68.3" rx="1.08" ry="0.66" transform="translate(-9.17 92.62) rotate(-23.55)"/></g><g class="cls-17"><ellipse class="cls-13" cx="205.92" cy="51.16" rx="0.7" ry="0.43" transform="translate(-3.29 86.54) rotate(-23.55)"/></g><g class="cls-17"><ellipse class="cls-13" cx="179.79" cy="48.81" rx="1.4" ry="0.87" transform="translate(-4.53 75.9) rotate(-23.55)"/></g><g class="cls-17"><ellipse class="cls-13" cx="171.57" cy="51.17" rx="1.24" ry="1.99" transform="translate(93.67 212.38) rotate(-80.81)"/></g><g class="cls-17"><ellipse class="cls-13" cx="174.5" cy="51.19" rx="0.5" ry="0.79" transform="translate(96.11 215.28) rotate(-80.81)"/></g><g class="cls-17"><ellipse class="cls-13" cx="231.01" cy="74.7" rx="0.73" ry="0.45" transform="translate(-10.26 47.64) rotate(-11.52)"/></g><g class="cls-17"><ellipse class="cls-13" cx="246.47" cy="60.7" rx="2.18" ry="0.66"/></g><g class="cls-17"><ellipse class="cls-13" cx="248.6" cy="62.22" rx="1.08" ry="0.47"/></g><g class="cls-17"><ellipse class="cls-13" cx="169.56" cy="74.04" rx="0.8" ry="1.66" transform="matrix(0.39, -0.92, 0.92, 0.39, 34.6, 200.61)"/></g><g class="cls-17"><ellipse class="cls-13" cx="188.31" cy="78.99" rx="0.66" ry="1.08" transform="translate(80.26 252.28) rotate(-80.81)"/></g><path class="cls-5" d="M197.77,54.88c-1.12.89-2.52,1.47-3.8.44a6.6,6.6,0,0,1,.94-1.24,5.51,5.51,0,0,1,1.73-1.21,5.74,5.74,0,0,1,3.28-.39l-.06.09A11.25,11.25,0,0,1,197.77,54.88Z"/><g class="cls-16"><path class="cls-13" d="M199.86,52.57a2.68,2.68,0,0,1-1.46.78c-.93.22-1.72,0-1.77-.39a.28.28,0,0,1,0-.09,5.74,5.74,0,0,1,3.28-.39Z"/></g><g class="cls-7"><path d="M197.77,54.88c-1.12.89-2.52,1.47-3.8.44a6.6,6.6,0,0,1,.94-1.24C195,54.44,195.7,55.86,197.77,54.88Z"/></g><rect class="cls-18" y="0.25" width="300" height="165"/></g></g></svg>