<svg xmlns="http://www.w3.org/2000/svg" xmlns:xlink="http://www.w3.org/1999/xlink" viewBox="0 0 300 165.5"><defs><style>.cls-1{isolation:isolate;}.cls-2{fill:#fce5cd;}.cls-3{fill:#f2cead;}.cls-4{fill:#87ace8;}.cls-5{fill:#70a032;}.cls-6{opacity:0.54;}.cls-13,.cls-6{mix-blend-mode:multiply;}.cls-7{fill:#ffc81a;}.cls-8{fill:#c1272d;}.cls-9{opacity:0.74;}.cls-16,.cls-17,.cls-19,.cls-9{mix-blend-mode:soft-light;}.cls-10{fill:#fff;}.cls-11{fill:#009245;}.cls-12{fill:#ffa81d;}.cls-13{opacity:0.17;}.cls-14{fill:#606060;}.cls-15{fill:#ddbd97;}.cls-16{opacity:0.43;}.cls-17{opacity:0.52;}.cls-18{fill:#ffe8d9;}.cls-19{opacity:0.49;}.cls-20{fill:url(#linear-gradient);}</style><linearGradient id="linear-gradient" x1="150.37" y1="168.62" x2="149.66" y2="2.17" gradientUnits="userSpaceOnUse"><stop offset="0.03" stop-color="#591c16"/><stop offset="0.22" stop-color="#5f241d" stop-opacity="0.96"/><stop offset="0.38" stop-color="#733c33" stop-opacity="0.84"/><stop offset="0.53" stop-color="#936459" stop-opacity="0.64"/><stop offset="0.68" stop-color="#c09d8d" stop-opacity="0.36"/><stop offset="0.82" stop-color="#fae5cf" stop-opacity="0"/></linearGradient></defs><g class="cls-1"><g id="Layer_1" data-name="Layer 1"><rect class="cls-2" y="0.25" width="300" height="165"/><ellipse class="cls-3" cx="206.56" cy="78.23" rx="61.74" ry="13.31"/><path class="cls-4" d="M146.24,80.94a7.4,7.4,0,0,1-1.32-1.84A5.38,5.38,0,0,1,144.5,78a2.44,2.44,0,0,1-.09-.62,3.08,3.08,0,0,1,.07-.61,4.27,4.27,0,0,1,1.15-2,9.33,9.33,0,0,1,1.74-1.42,22.88,22.88,0,0,1,3.92-2c1.35-.55,2.73-1,4.12-1.44,2.77-.84,5.59-1.49,8.42-2.06s5.69-1,8.55-1.44c5.72-.79,11.47-1.32,17.23-1.67s11.53-.53,17.3-.55,11.54.14,17.3.48,11.52.85,17.25,1.64c2.86.39,5.72.85,8.56,1.42a86.29,86.29,0,0,1,8.46,2.09c1.4.44,2.78.92,4.14,1.5.68.3,1.35.61,2,1a15.22,15.22,0,0,1,1.93,1.22,7.56,7.56,0,0,1,1.7,1.73,4.43,4.43,0,0,1,.58,1.22,3.11,3.11,0,0,1,.12.69,2.17,2.17,0,0,1,0,.36,3.25,3.25,0,0,1,0,.33,6.92,6.92,0,0,1-.24,1.17,7.4,7.4,0,0,1-.41,1.11,5.88,5.88,0,0,1-.63,1,3.25,3.25,0,0,1-1,.84l-.57-.72a5.23,5.23,0,0,0,.74-1.7,11.7,11.7,0,0,0,.37-1.91,1.55,1.55,0,0,0,0-.21v-.18a2.29,2.29,0,0,0-.07-.36,2.7,2.7,0,0,0-.35-.73,5.88,5.88,0,0,0-1.31-1.33,17.24,17.24,0,0,0-3.58-2,41.82,41.82,0,0,0-4-1.46,83,83,0,0,0-8.29-2.08c-2.8-.57-5.63-1-8.46-1.44a260.83,260.83,0,0,0-34.34-2.27q-8.61-.06-17.22.39c-5.73.31-11.46.79-17.15,1.53-2.85.36-5.68.79-8.5,1.32s-5.62,1.14-8.36,1.93c-1.38.4-2.73.84-4.06,1.36a22.3,22.3,0,0,0-3.8,1.86,8.82,8.82,0,0,0-1.62,1.27,3.67,3.67,0,0,0-1,1.66,2.32,2.32,0,0,0-.06.46,1.85,1.85,0,0,0,.06.44,4.21,4.21,0,0,0,.35.93,6.41,6.41,0,0,0,1.15,1.68Z"/><path class="cls-5" d="M277,72.57c-1.88,3.3-5.64,2.38-9.08,6.42-2.77,3.26-1.26,5-4,7.62-2.49,2.4-7.26,4.44-10.94,3.39-3.53-1-3.28-4.06-8.55-13.17-3.51-6-4.73-6.63-5.86-9.72l-.28-.82c-.28-.9-.63-2-.92-3.23-.8-3.41-1.1-7.63,2-10.34s8.74-3.48,11.31-1.58c2,1.48,1,3.86,1.26,6.29a7.36,7.36,0,0,0,.15.94v0a4.77,4.77,0,0,0,.41,1.08,5.26,5.26,0,0,0,.85,1.19c3.19,3.4,10.24,3,11.34,3a18.51,18.51,0,0,0,4.21-.7c2.06-.58,3.28-1.2,4.75-.65C277.08,63.57,279,69,277,72.57Z"/><g class="cls-6"><path class="cls-7" d="M240.77,68.67l-2.25-1.56-.28-.82c-.28-.9-.63-2-.92-3.23a13.3,13.3,0,0,1,9,2.66C250.54,69,240.77,68.67,240.77,68.67Z"/></g><g class="cls-6"><path class="cls-7" d="M251.24,64.91s3.64,0,6.75,5.29a14.45,14.45,0,0,1,3.8,10c1.44.36,3.11.88,2.93,1.68s-8.6.92-8.6.92Z"/></g><path class="cls-8" d="M247.62,72.38a8.86,8.86,0,1,1-.81-3.71A8.87,8.87,0,0,1,247.62,72.38Z"/><g class="cls-9"><path class="cls-10" d="M246.81,68.67a9.56,9.56,0,0,1-.88-.9c-4.26-4.88-11.21-3.29-11.21-3.29h0a8.87,8.87,0,0,1,12.09,4.19Z"/></g><path class="cls-11" d="M262.1,88.36c-3.92,6.59-11.52,8.5-12.31,8.7-9.47,2.28-17.94-2.67-20.68-4.27-6.7-3.91-6.32-6.76-11.66-8.21-7.09-1.93-11.35,2.11-14.44-.65-2.35-2.11-.42-4.94-1.36-10.81A19.88,19.88,0,0,0,201.2,71c-1.58-6.18-4.56-8.14-5.3-11.4a7.31,7.31,0,0,1-.11-2.55,10.75,10.75,0,0,1,4.13-7.33A4.69,4.69,0,0,1,201.7,49c3.16-.54,5.14,3,8.08,4h0a4.7,4.7,0,0,0,.92.19h0a4.26,4.26,0,0,0,1.12,0c2.53-.42,3.15-2.58,5.1-3.61A4.47,4.47,0,0,1,218.6,49a8,8,0,0,1,6.9,3.28c1.69,2.25.81,3.81,1.8,9,.64,3.39,1.24,6.51,2.58,8.28h0a3.86,3.86,0,0,0,1.52,1.25c2,.87,3.45-.91,9.36-3.12,1.84-.69,3.45-1.29,4.87-1.75,3.18-1,5.46-1.3,7.44-.22,2.33,1.27,4.11,4.39,4.56,7.5h0a10,10,0,0,1,0,2.67c-.25,1.83-1,3-.33,3.94,1.21,1.76,4.87,0,6.24,1.64C265.11,83.3,262.41,87.83,262.1,88.36Z"/><g class="cls-6"><path class="cls-7" d="M220.48,81.89l-18.83-8.77A19.88,19.88,0,0,0,201.2,71c-1.58-6.18-4.56-8.14-5.3-11.4a4.35,4.35,0,0,1,4,.31C204,62.11,210.11,73.51,215.51,75S220.48,81.89,220.48,81.89Z"/></g><path class="cls-8" d="M236.78,88.63a18.43,18.43,0,1,1-25.9-16.85h0a18.45,18.45,0,0,1,25.77,14.71A19,19,0,0,1,236.78,88.63Z"/><g class="cls-9"><path class="cls-10" d="M236.66,86.48c-.37-.75-.8-1.71-1.28-2.9C229,68.11,211.25,71.7,210.89,71.77a18.45,18.45,0,0,1,25.77,14.71Z"/></g><path class="cls-12" d="M222.19,63.06s-14.25,3.49-10.95,20.41a1.24,1.24,0,0,0,.74-.1s-4-14.7,10.54-19.44C222.67,64,222.19,63.06,222.19,63.06Z"/><path class="cls-12" d="M191.17,56.24s4.56,13.94-11.56,20.07a1.33,1.33,0,0,1-.31-.68s14.63-4.32,11-19.21C190.14,56.32,191.17,56.24,191.17,56.24Z"/><g class="cls-6"><path class="cls-7" d="M174.24,68.72a3,3,0,0,1,2.51-.5,2.33,2.33,0,0,1,1.5,1.55,2.44,2.44,0,0,1-.45,2.31,2.55,2.55,0,0,0,.3,2.88c1.33,1.23,3,3,4.21,3.58,4.75,2.26,4.86,1.15,5.61,2.45.33.57-4.11,1.48-7.82,0-2.57-1-4-2.77-5.76-4.86-2.14-2.58-2.13-3.76-2.1-4.2A4.29,4.29,0,0,1,174.24,68.72Z"/></g><g class="cls-13"><path class="cls-14" d="M209.23,72.61a11.88,11.88,0,0,0,10.18,4c6.66-.58-3.9,5.71-3.9,5.71L209.23,79Z"/></g><path class="cls-11" d="M194,71.71c-.5,2.05-1.51,6.17-5.26,8.63-5.26,3.46-13,1.8-16.92-2.51a13.2,13.2,0,0,1-3.11-7.9c-.23-2.39-.58-6.05,2.07-8.87a5.73,5.73,0,0,1,.56-.54c1.85-1.65,4.78-3,7.38-2.21,4.44,1.26,4.17,7.41,8.27,8.15a4.1,4.1,0,0,0,1.35,0c2.25-.3,3.9-2.18,5.26-1.29C195.27,66.33,194.27,70.42,194,71.71Z"/><g class="cls-9"><path class="cls-10" d="M188.29,66.49c-.29,1.61-1.25,2.07-3.75-1.37-5.72-7.87-13.25-4.6-13.25-4.6,1.85-1.65,4.78-3,7.38-2.21,4.44,1.26,4.17,7.41,8.27,8.15A4.1,4.1,0,0,0,188.29,66.49Z"/></g><g class="cls-13"><path class="cls-14" d="M176.21,72.82s3.72,6.68,11.52,7.07-3.16,2.47-3.16,2.47L171.8,75.54l2.81-3.76Z"/></g><path class="cls-5" d="M229.81,86.53c-.44,3.3-2.73,5.78-3.83,7-9.36,10.12-31.52,10.89-46.83,2.35C175.41,93.76,170,90.64,170,86v-.17a18.52,18.52,0,0,1-2.52-2.3c-3.5-3.92-5.93-10.83-3.05-14.08A6.15,6.15,0,0,1,168,67.66a15.08,15.08,0,0,1,2.71-.15c1.77,0,5.55.55,6.16,2.52.36,1.16-.63,2-.76,3.25a2.64,2.64,0,0,0,.06.87c.32,1.44,1.56,2,2.51,2.9a5.54,5.54,0,0,1,.65.71,16.9,16.9,0,0,0,3.41,1.84c2.1.82,3.73,1.46,4.59.82,1.44-1.08-1-4.43-.49-8.37s4.15-8,7.88-9.68h0a7.49,7.49,0,0,1,4.6-.66c1.51.34,3.71,3.08,8,8.53.45.57.85,1.08,1.2,1.54h0c2.41,3.09,2.82,3.75,4,4.53,2,1.29,3.87,1,5.72.59,2-.46,4.1-1.07,6.43.07a9.77,9.77,0,0,1,5.08,7.88A8.49,8.49,0,0,1,229.81,86.53Z"/><g class="cls-6"><path class="cls-7" d="M181.59,93.24c1.78-1.27,2.07-4.32,1.56-6.4-.94-3.81-4.88-5.34-5.9-5.74-5.23-2-12.22-.08-12.79,2.71C163.6,88.05,177.12,96.43,181.59,93.24Z"/></g><g class="cls-9"><path class="cls-10" d="M176.13,73.28c-.63-4.39-6.73-5.44-8.11-5.62a15.08,15.08,0,0,1,2.71-.15c1.77,0,5.55.55,6.16,2.52C177.25,71.19,176.26,72,176.13,73.28Z"/></g><path class="cls-11" d="M175.81,94.69c-4.25,3.73-6.66,5.85-9.79,5.65-2.5-.16-2.48-1.61-8.43-5-4.62-2.65-6.53-2.86-6.79-4.4-.43-2.51,4.3-3.93,3.94-6.78-.22-1.74-2.17-2.84-4.49-4.15-5-2.81-7.59-1.69-9.78-4.14-1.53-1.71-2.25-4.47-1.23-6.41,1.33-2.5,4.42-1.45,7.21-4,3.35-3.07.9-6.44,4.08-9.92a10.43,10.43,0,0,1,4.72-2.84h0a13,13,0,0,1,5.61-.42c5.09.75,9.06,4.69,9.65,8.54a5.89,5.89,0,0,1-.77,3.7c-.57,1.27-1.42,3-2.5,6-1.85,5.09-3.39,9.32-1.76,10.55s4.11-1.76,8.42-1.13c3.72.54,7.66,3.56,7.89,6.91C182,89.28,179.91,91.08,175.81,94.69Z"/><path class="cls-12" d="M192.35,87s9.59,11.09,23.16.45a1.29,1.29,0,0,0-.42-.61s-11.25,10.3-22.11-.53C193,86.1,192.35,87,192.35,87Z"/><g class="cls-9"><path class="cls-10" d="M229.81,86.53h0c-2.14-8.22-11.46-9.63-11.46-9.63,2-.46,4.1-1.07,6.43.07a9.77,9.77,0,0,1,5.08,7.88A8.49,8.49,0,0,1,229.81,86.53Z"/></g><g class="cls-13"><path class="cls-14" d="M145.6,71.78S150,69.22,154.48,75,145.6,71.78,145.6,71.78Z"/></g><path class="cls-8" d="M176.51,87.73a10.29,10.29,0,1,1-.6-3.47A10.32,10.32,0,0,1,176.51,87.73Z"/><path class="cls-12" d="M154.16,79.36s13.4-6,21.15,9.45a1.32,1.32,0,0,1-.65.37s-5.79-14.1-20.23-8.93C154.34,80.38,154.16,79.36,154.16,79.36Z"/><g class="cls-13"><path class="cls-14" d="M153.76,74.16s4.94,7.64,9.81,6.68-1,3.83-1,3.83l-10.94-4.41Z"/></g><g class="cls-9"><path class="cls-10" d="M257.63,73.21c-.11-.19-.22-.4-.34-.64-3-6-11.66-6.64-11.66-6.64,3.18-1,5.46-1.3,7.44-.22C255.4,67,257.18,70.1,257.63,73.21Z"/></g><rect class="cls-4" x="187.95" y="111.15" width="38.82" height="5.44" rx="2.04"/><path class="cls-2" d="M244.25,87.42a7.74,7.74,0,0,0,5.61,3.63h0l.43.07a9.38,9.38,0,0,0,10.54-7.91,17.08,17.08,0,0,0-.38-6.62h0c-.05-.22-.11-.45-.18-.67-.88-3-2.61-5.66-5.45-6.17-3.91-.72-7.19,2.42-9.22,5.73a16.08,16.08,0,0,0-2.2,5.26A10,10,0,0,0,244.25,87.42Z"/><ellipse class="cls-12" cx="251.65" cy="83.58" rx="5.97" ry="5.66" transform="translate(-1.63 162.1) rotate(-35.6)"/><path class="cls-2" d="M242.4,71.85c4.92,1.94,4.25,10.4,2.54,14.26a10,10,0,0,1-12.26,5.74c-5.42-2-6.35-6.39-4.17-11.43C229.94,77.14,236.58,69.56,242.4,71.85Z"/><ellipse class="cls-12" cx="235.87" cy="84.75" rx="6.14" ry="5.51" transform="translate(-10.1 132.88) rotate(-30.83)"/><path class="cls-15" d="M245.53,75.58s1.24,8.15-1.28,11.84C247.41,84.75,247.28,79.82,245.53,75.58Z"/><path class="cls-15" d="M249.86,91.05h0l.43.07a9.38,9.38,0,0,0,10.54-7.91,17.08,17.08,0,0,0-.38-6.62h0c-.11-.42-.18-.67-.18-.67S260.85,90.31,249.86,91.05Z"/><g class="cls-9"><path class="cls-10" d="M253.06,77.89s-5.16,1.27-6.37,4.65C246.64,77.58,251.44,77.86,253.06,77.89Z"/></g><g class="cls-9"><path class="cls-10" d="M237.52,79.16A9.34,9.34,0,0,0,230,85.7C229.82,80,235.74,78.57,237.52,79.16Z"/></g><g class="cls-16"><path d="M257.5,83.73c.07-.13-.81,6-6.8,5.59A11.16,11.16,0,0,0,257.5,83.73Z"/></g><g class="cls-16"><path d="M241.76,84.85c.07-.13-.81,6-6.8,5.59A11.16,11.16,0,0,0,241.76,84.85Z"/></g><path class="cls-5" d="M163.18,92.62c-3.62,2-9.57.29-12.45-5.1-6.51-10.87-6.59-14.37-5.41-15.52a2.13,2.13,0,0,1,1.14-.53c1.65-.31,4.22.5,6,1.66,2.48,1.61,3.1,3.7,4.3,5.45h0A6.54,6.54,0,0,0,159,80.68a4.87,4.87,0,0,0,3.56.46h0c1.3-.24,2.39-.64,3.28.15a4.18,4.18,0,0,1,1.16,2.6h0C167.38,86.8,166.16,90.94,163.18,92.62Z"/><path class="cls-4" d="M268.13,77.43c0,20.49-27.61,37.1-61.68,37.1s-61.67-16.61-61.67-37.1c0,6.91,27.61,12.51,61.67,12.51S268.13,84.34,268.13,77.43Z"/><g class="cls-17"><path d="M187.92,112.72s8.83.93,18.38.93a200.31,200.31,0,0,0,20.27-1.28A68.14,68.14,0,0,1,187.92,112.72Z"/></g><circle class="cls-18" cx="194.04" cy="99.67" r="1.69"/><path class="cls-18" d="M206.56,103.57a7.73,7.73,0,0,1-4.58-1.42.51.51,0,1,1,.64-.8,6.92,6.92,0,0,0,3.94,1.19,7.23,7.23,0,0,0,4-1.2.51.51,0,0,1,.72.1.52.52,0,0,1-.09.72A8.27,8.27,0,0,1,206.56,103.57Z"/><path class="cls-12" d="M238.92,65.39s11.39,9.23,22.87-3.63a1.25,1.25,0,0,0-.52-.53S252,73.34,239.41,64.6C239.36,64.45,238.92,65.39,238.92,65.39Z"/><g class="cls-19"><path class="cls-10" d="M145.26,79S156.39,94.89,240,88.19C240.08,88.18,156.87,101.29,145.26,79Z"/></g><circle class="cls-18" cx="218.79" cy="99.67" r="1.69"/><g class="cls-9"><path class="cls-10" d="M251.9,57.43v0c-1.17-8.3-12.56-4.68-12.56-4.68,3-2.62,8.74-3.48,11.31-1.58C252.64,52.62,251.66,55,251.9,57.43Z"/></g><g class="cls-9"><path class="cls-10" d="M252.47,59.47c-.14-.09-.28-.43-.41-1.08A4.77,4.77,0,0,0,252.47,59.47Z"/></g><g class="cls-9"><path class="cls-10" d="M277,72.57c.2-10.86-8.1-9.64-8.1-9.64,2.06-.58,3.28-1.2,4.75-.65C277.08,63.57,279,69,277,72.57Z"/></g><g class="cls-9"><path class="cls-10" d="M229.88,69.55c-1.36-.6-5.07-10.21-6-15.2s-6.75-4.89-6.93-4.89A4.47,4.47,0,0,1,218.6,49a8,8,0,0,1,6.9,3.28c1.69,2.25.81,3.81,1.8,9C227.94,64.66,228.54,67.78,229.88,69.55Z"/></g><g class="cls-9"><path class="cls-10" d="M209.78,52.92c-1.52-.33-4.39-1-5-1.89-.83-1.18-4.87-1.34-4.87-1.34h0A4.69,4.69,0,0,1,201.7,49C204.86,48.43,206.84,52,209.78,52.92Z"/></g><g class="cls-9"><path class="cls-10" d="M208.58,71.78c-8.9-9.38-13.69-9.42-13.84-9.41a7.49,7.49,0,0,1,4.6-.66c1.51.34,3.71,3.08,8,8.53C207.83,70.81,208.23,71.32,208.58,71.78Z"/></g><g class="cls-9"><path class="cls-10" d="M175.91,84.26c-5.42-7.14-12.62-6.42-12.62-6.42a10.35,10.35,0,0,1,12.62,6.42Z"/></g><g class="cls-9"><path class="cls-10" d="M167,83.89a4.69,4.69,0,0,0-4.44-2.75c1.3-.24,2.39-.64,3.28.15A4.18,4.18,0,0,1,167,83.89Z"/></g><g class="cls-9"><path class="cls-10" d="M156.76,78.58c-4.51-5.5-9-6.83-10.3-7.11,1.65-.31,4.22.5,6,1.66C154.94,74.74,155.56,76.83,156.76,78.58Z"/></g><g class="cls-9"><path class="cls-10" d="M169.74,64.48C168,53.7,155.46,52.68,155.25,52.66a13,13,0,0,1,5.61-.42c5.09.75,9.06,4.69,9.65,8.54A5.89,5.89,0,0,1,169.74,64.48Z"/></g><rect class="cls-20" y="0.25" width="300" height="165"/></g></g></svg>