<svg xmlns="http://www.w3.org/2000/svg" xmlns:xlink="http://www.w3.org/1999/xlink" viewBox="0 0 300 165"><defs><style>.cls-1{isolation:isolate;}.cls-2{fill:#fce5cd;}.cls-3{fill:#ffc76c;}.cls-4{opacity:0.59;}.cls-4,.cls-5{mix-blend-mode:soft-light;}.cls-5{opacity:0.84;}.cls-6{fill:#fff;}.cls-7{fill:#3f240f;}.cls-8{fill:url(#linear-gradient);}</style><linearGradient id="linear-gradient" x1="150.37" y1="168.37" x2="149.66" y2="1.92" gradientUnits="userSpaceOnUse"><stop offset="0.03" stop-color="#591c16"/><stop offset="0.22" stop-color="#5f241d" stop-opacity="0.96"/><stop offset="0.38" stop-color="#733c33" stop-opacity="0.84"/><stop offset="0.53" stop-color="#936459" stop-opacity="0.64"/><stop offset="0.68" stop-color="#c09d8d" stop-opacity="0.36"/><stop offset="0.82" stop-color="#fae5cf" stop-opacity="0"/></linearGradient></defs><g class="cls-1"><g id="Layer_1" data-name="Layer 1"><rect class="cls-2" x="-0.27" y="-0.15" width="300" height="165"/><path class="cls-3" d="M270.43,109.43a59,59,0,0,1-28.87,4.41c-4.73-2-7.56-2.81-9.88-2.25a29.8,29.8,0,0,1-7.62.5l-.25,0a13.88,13.88,0,0,1-5.16-1.25c-3.73-2-10.59-8.49-19.36-10.4,0,0-5.54-4.27-1.15-8.42s10.84-5.84,13.45-9.64h0c2.6-3.8,7.69-13.38,13.38-22s10.65-13.45,11.83-14,5.45-1.91,5.88,3.29S247,61.1,248.77,63.12c.29.34.79,1,1.42,1.86,3.09,4.29,9.45,14.1,11.49,20.66,2.45,7.9,9.07,10.37,9.63,13.82S275.57,107.07,270.43,109.43Z"/><path d="M247,114.56c-1.84,0-3.73-.09-5.63-.27h0l-.05,0c-4.92-2.14-7.54-2.74-9.67-2.24s-9.31,1.28-13.26-.8a39.67,39.67,0,0,1-3.92-2.57c-3.85-2.72-9.13-6.44-15.36-7.79l-.07,0-.06,0c-.11-.09-2.83-2.21-3-5a5,5,0,0,1,1.8-3.92,34,34,0,0,1,6.82-4.64c2.68-1.52,5.21-3,6.58-5,1.11-1.62,2.71-4.36,4.57-7.54,2.47-4.24,5.55-9.52,8.8-14.42,5.74-8.67,10.71-13.53,12-14.09.64-.28,2.83-1.12,4.51-.13,1.08.64,1.7,1.88,1.84,3.69.4,4.9,4.11,11,6,13.22s10.51,14.7,13,22.65c1.39,4.49,4.16,7.19,6.38,9.36,1.68,1.65,3,2.94,3.26,4.5a14.47,14.47,0,0,0,.85,2.73c1,2.69,2.17,5.72-1.92,7.59A58.91,58.91,0,0,1,247,114.56Zm-5.51-.93a59.12,59.12,0,0,0,28.65-4.39c3.51-1.61,2.61-4,1.57-6.75a16.19,16.19,0,0,1-.89-2.86c-.21-1.35-1.47-2.57-3.06-4.13-2.28-2.22-5.11-5-6.56-9.65-2.44-7.86-11.09-20.37-12.84-22.4s-5.73-8.26-6.17-13.6a3.79,3.79,0,0,0-1.51-3.17c-1.45-.86-3.51,0-3.9.16-1.06.46-5.91,5.11-11.69,13.84-3.24,4.9-6.32,10.16-8.79,14.39-1.86,3.19-3.47,6-4.59,7.59-1.46,2.13-4.06,3.6-6.8,5.16a33.78,33.78,0,0,0-6.7,4.54,4.35,4.35,0,0,0-1.58,3.4c.11,2.28,2.27,4.15,2.65,4.46,6.33,1.4,11.64,5.15,15.52,7.88a40,40,0,0,0,3.85,2.54,16.32,16.32,0,0,0,6.89,1.29,28.65,28.65,0,0,0,5.91-.55C233.74,110.83,236.47,111.45,241.51,113.63Z"/><path d="M225.16,111.11l-.66-.06c.34-3.45,8.54-5.76,10.18-6.19a.54.54,0,0,0,.4-.45c.39-1.44-1.37-5.19-4.51-8.28-2.78-2.73-.8-11.56.94-19.36a67.36,67.36,0,0,0,1.72-9.37c.34-6.74,4.24-16.91,4.28-17l.05-.13.13,0a1.6,1.6,0,0,1,1.45.13c.71.46,1.09,1.51,1.12,3.12a4.12,4.12,0,0,1-1.06,3.2,2.81,2.81,0,0,1-2,.73l.05-.66a2.17,2.17,0,0,0,1.49-.56,3.52,3.52,0,0,0,.83-2.7c0-1.7-.45-2.34-.8-2.57a1,1,0,0,0-.71-.12c-.49,1.29-3.87,10.47-4.19,16.66a68,68,0,0,1-1.73,9.49c-1.62,7.25-3.64,16.27-1.13,18.73,3,3,5.19,7.08,4.69,8.94a1.19,1.19,0,0,1-.87.91C231.37,106.41,225.41,108.62,225.16,111.11Z"/><path d="M253.55,104.75c-1.91,0-3.64-.27-4.45-1.13-1.67-1.75-10.68-1.43-14-1.15l-.06-.66c.51,0,12.33-1,14.55,1.36,1.65,1.73,8.77.6,11.38,0l.14.65A40,40,0,0,1,253.55,104.75Z"/><g class="cls-4"><path d="M270.29,109.54A59,59,0,0,1,241.42,114c-4.73-2.06-7.56-2.81-9.87-2.26a29.32,29.32,0,0,1-7.87.48c6.67-7.23,9.14-3.06,11.09-7,2.14-4.34-9.54-14.69-3.34-11.88s16.79,4,21.57-2.13c5.12-6.6-2.95-26.08-2.95-26.08,3.1,4.29,9.45,14.1,11.49,20.66,2.45,7.9,9.07,10.38,9.63,13.83S275.43,107.19,270.29,109.54Z"/></g><g class="cls-4"><path d="M227.54,108c-2.24,2.48-3.18,3.34-3.61,4.19l-.25,0a13.51,13.51,0,0,1-5.16-1.25c-3.74-2-10.59-8.49-19.37-10.4,0,0-5.54-4.26-1.14-8.41s10.84-5.85,13.44-9.65c0,.13-.83,10.19,20.52,14.68C234.74,105.16,238.53,102.75,227.54,108Z"/></g><g class="cls-5"><ellipse class="cls-6" cx="237.17" cy="72.14" rx="5.27" ry="1.76" transform="translate(144.48 302.07) rotate(-84.96)"/></g><g class="cls-5"><ellipse class="cls-6" cx="227.63" cy="61.29" rx="4.25" ry="1.42" transform="translate(66.89 233.72) rotate(-62.08)"/></g><g class="cls-5"><ellipse class="cls-6" cx="245.12" cy="103.33" rx="0.99" ry="4.25" transform="translate(120.66 338.43) rotate(-84.96)"/></g><g class="cls-5"><ellipse class="cls-6" cx="238.05" cy="62.21" rx="1.82" ry="1.76" transform="translate(155.18 293.88) rotate(-84.96)"/></g><g class="cls-4"><path d="M235.32,58.15s2.08-8.23,3-7.73,3,5.06-.58,6.59S235.32,58.15,235.32,58.15Z"/></g><path class="cls-3" d="M253.05,122.55a67.79,67.79,0,0,1-32.6,8c-5.62-1.87-8.93-2.45-11.53-1.59a33.51,33.51,0,0,1-8.67,1.35H200a15.68,15.68,0,0,1-6-.91c-4.47-1.88-13-8.65-23.21-10,0,0-6.77-4.32-2.16-9.51s11.82-7.79,14.42-12.4h0c2.59-4.61,7.45-16.09,13.09-26.49S206.9,54.56,208.2,53.84s6.06-2.74,7.06,3.17,6.13,12.6,8.33,14.73c.37.36,1,1.05,1.81,2,4,4.6,12.24,15.18,15.23,22.48,3.61,8.8,11.43,11,12.42,14.85S258.69,119.34,253.05,122.55Z"/><path d="M220.93,131h-.68l-.05,0c-5.86-1.95-8.92-2.38-11.32-1.59s-10.51,2.4-15.22.43a46.51,46.51,0,0,1-4.75-2.55c-4.68-2.72-11.1-6.45-18.37-7.37h-.08l-.06,0c-.14-.09-3.44-2.23-3.88-5.39a5.71,5.71,0,0,1,1.65-4.63,39.78,39.78,0,0,1,7.33-6c2.92-2,5.67-3.91,7-6.35,1.11-2,2.67-5.27,4.47-9.1,2.41-5.1,5.4-11.45,8.62-17.39,5.69-10.49,10.88-16.54,12.27-17.31.69-.38,3.09-1.56,5.1-.6q1.92.93,2.45,4c1,5.57,5.82,12.22,8.22,14.55,2.24,2.16,13.5,15.74,17.13,24.58,2,5,5.5,7.84,8.26,10.1,2.08,1.7,3.73,3,4.17,4.79a17.22,17.22,0,0,0,1.25,3c1.42,3,3,6.29-1.41,8.82C246.22,126.88,234.23,131,220.93,131Zm-.57-.67h.57c13.17,0,25-4.08,31.81-7.93,3.91-2.22,2.56-5,1.14-8a16.9,16.9,0,0,1-1.29-3.17c-.39-1.53-2-2.82-4-4.44-2.82-2.32-6.34-5.19-8.46-10.37-3.59-8.75-14.76-22.21-17-24.36s-7.38-8.85-8.42-14.91c-.31-1.82-1-3-2.08-3.52-1.76-.84-4.05.34-4.49.58-1.16.64-6.26,6.46-12,17-3.22,5.92-6.2,12.26-8.61,17.35-1.8,3.84-3.37,7.16-4.49,9.15-1.44,2.57-4.26,4.51-7.25,6.57a38.91,38.91,0,0,0-7.2,5.88,5.07,5.07,0,0,0-1.49,4.1c.37,2.64,3.08,4.58,3.52,4.88,7.37,1,13.83,4.7,18.55,7.44a44.15,44.15,0,0,0,4.67,2.51c2.38,1,5.68,1,8,.79a32.06,32.06,0,0,0,6.71-1.23C211.21,127.92,214.38,128.34,220.36,130.33Z"/><path d="M201.36,129.05h-.66c0-4,9.16-7.41,11-8.07a.66.66,0,0,0,.45-.59c.3-1.7-2.1-5.84-6-9.07-3.43-2.82-2.06-13.12-.85-22.21a78,78,0,0,0,1-10.9c-.28-7.75,3.15-19.77,3.19-19.89l0-.14.12-.07a1.87,1.87,0,0,1,1.63,0c.84.45,1.37,1.6,1.56,3.42a4.66,4.66,0,0,1-.87,3.73,3.15,3.15,0,0,1-2.16,1v-.67a2.5,2.5,0,0,0,1.67-.8,4,4,0,0,0,.7-3.21c-.21-2-.77-2.66-1.21-2.9a1.13,1.13,0,0,0-.89-.06c-.39,1.42-3.38,12.36-3.11,19.53a80.92,80.92,0,0,1-1,11c-1.13,8.47-2.53,19,.61,21.6,4.16,3.43,6.59,7.79,6.25,9.71a1.33,1.33,0,0,1-.87,1.1,40.09,40.09,0,0,0-6.08,2.76C202.92,126,201.38,127.66,201.36,129.05Z"/><path d="M231.67,118.94a5.6,5.6,0,0,1-3.59-.91c-.71-.63-2.85-1.28-9-.81-3.73.29-7.17.88-7.21.89l-.11-.66s3.51-.6,7.26-.89c5.11-.4,8.3-.07,9.48,1,1,.9,3.58,1,7.42.28a51.23,51.23,0,0,0,5.66-1.4l.2.64C241.47,117.15,235.79,118.94,231.67,118.94Z"/><g class="cls-4"><path d="M252.91,122.7a67.73,67.73,0,0,1-32.6,8c-5.62-1.87-8.94-2.45-11.53-1.58a34.11,34.11,0,0,1-9,1.35c6.91-9,10.16-4.44,12-9.13,2-5.19-12.39-15.86-5-13.27s19.63,2.94,24.48-4.61c5.19-8.07-6-29.55-6-29.55,4,4.6,12.24,15.18,15.23,22.49,3.6,8.79,11.43,11,12.42,14.85S258.55,119.49,252.91,122.7Z"/></g><g class="cls-4"><path d="M203.82,125.26c-2.31,3.06-3.3,4.14-3.71,5.16h-.29a15.81,15.81,0,0,1-6-.92c-4.47-1.87-13-8.65-23.21-9.94,0,0-6.78-4.33-2.16-9.52s11.82-7.78,14.41-12.39c0,.15.08,11.74,25,14.72C211.77,121.27,215.87,118.13,203.82,125.26Z"/></g><g class="cls-5"><ellipse class="cls-6" cx="211.23" cy="83.24" rx="2.02" ry="6.05"/></g><g class="cls-5"><ellipse class="cls-6" cx="199.22" cy="71.78" rx="4.89" ry="1.63" transform="translate(55.62 227.4) rotate(-67.12)"/></g><g class="cls-5"><ellipse class="cls-6" cx="223.46" cy="118.14" rx="4.89" ry="1.14"/></g><g class="cls-5"><ellipse class="cls-6" cx="211.23" cy="71.78" rx="2.02" ry="2.09"/></g><g class="cls-4"><path d="M207.69,67.41s1.55-9.63,2.69-9.15,3.91,5.5,0,7.6S207.69,67.41,207.69,67.41Z"/></g><circle class="cls-7" cx="212.84" cy="100.46" r="0.97"/><circle class="cls-7" cx="224.26" cy="100.46" r="0.97"/><path class="cls-7" d="M218.15,102.91a4.77,4.77,0,0,1-2.77-.86.5.5,0,0,1-.08-.7.5.5,0,0,1,.7-.08,3.79,3.79,0,0,0,2.15.65,3.93,3.93,0,0,0,2.2-.66.51.51,0,0,1,.7.1.49.49,0,0,1-.09.69A4.92,4.92,0,0,1,218.15,102.91Z"/><rect class="cls-8" width="300" height="165"/></g></g></svg>