<svg xmlns="http://www.w3.org/2000/svg" xmlns:xlink="http://www.w3.org/1999/xlink" viewBox="0 0 300 165.5"><defs><style>.cls-1{isolation:isolate;}.cls-2{fill:#fce5cd;}.cls-3{fill:#f2cead;}.cls-4{fill:#13315b;}.cls-5{fill:#f4a69a;}.cls-16,.cls-18,.cls-6{mix-blend-mode:soft-light;}.cls-7{fill:#f48d7f;}.cls-8{fill:#ff7a55;}.cls-9{fill:#f4543f;}.cls-10{fill:#f43b31;}.cls-11{fill:#1b181e;}.cls-12{fill:#3b393f;}.cls-13{fill:#fccf86;}.cls-14{fill:#ef8f26;}.cls-15{fill:#fff;}.cls-16{opacity:0.52;}.cls-17{fill:#ffe8d9;}.cls-18{opacity:0.49;}.cls-19{fill:#d9e021;}.cls-20{fill:#009245;}.cls-21{fill:url(#linear-gradient);}</style><linearGradient id="linear-gradient" x1="150.37" y1="168.62" x2="149.66" y2="2.17" gradientUnits="userSpaceOnUse"><stop offset="0.03" stop-color="#591c16"/><stop offset="0.22" stop-color="#5f241d" stop-opacity="0.96"/><stop offset="0.38" stop-color="#733c33" stop-opacity="0.84"/><stop offset="0.53" stop-color="#936459" stop-opacity="0.64"/><stop offset="0.68" stop-color="#c09d8d" stop-opacity="0.36"/><stop offset="0.82" stop-color="#fae5cf" stop-opacity="0"/></linearGradient></defs><g class="cls-1"><g id="Layer_1" data-name="Layer 1"><rect class="cls-2" y="0.25" width="300" height="165"/><ellipse class="cls-3" cx="210.11" cy="84.36" rx="64.43" ry="13.04"/><path class="cls-4" d="M146.71,87.83a7.47,7.47,0,0,1-1.38-1.94,5.92,5.92,0,0,1-.45-1.13,2.69,2.69,0,0,1,0-1.3,4.6,4.6,0,0,1,1.21-2.14,10.42,10.42,0,0,1,1.84-1.5A24.58,24.58,0,0,1,152,77.74c1.42-.58,2.87-1.07,4.34-1.52,2.92-.88,5.89-1.57,8.88-2.17s6-1.09,9-1.52c6-.83,12.09-1.39,18.16-1.76s12.15-.56,18.23-.58,12.17.15,18.24.5,12.14.91,18.18,1.73c3,.42,6,.91,9,1.5A89.83,89.83,0,0,1,265,76.13c1.47.46,2.93,1,4.37,1.58.71.31,1.42.64,2.12,1a14.82,14.82,0,0,1,2,1.29,7.94,7.94,0,0,1,1.79,1.82,4.73,4.73,0,0,1,.61,1.28,4.46,4.46,0,0,1,.13.73,2.41,2.41,0,0,1,0,.38,1.9,1.9,0,0,1,0,.35,7,7,0,0,1-.24,1.24,8.61,8.61,0,0,1-.44,1.16,5.56,5.56,0,0,1-.66,1.09,3.38,3.38,0,0,1-1,.89l-.59-.76a5.82,5.82,0,0,0,.78-1.79,11.85,11.85,0,0,0,.38-2c0-.08,0-.15,0-.22a1.21,1.21,0,0,0,0-.19,1.8,1.8,0,0,0-.07-.38,2.56,2.56,0,0,0-.36-.77,6.14,6.14,0,0,0-1.39-1.4,18.37,18.37,0,0,0-3.77-2.1,42.73,42.73,0,0,0-4.19-1.54c-2.85-.89-5.78-1.59-8.73-2.2s-5.93-1.09-8.92-1.51a275.2,275.2,0,0,0-36.19-2.4q-9.08,0-18.15.42c-6,.32-12.08.83-18.08,1.61-3,.39-6,.84-9,1.39s-5.92,1.21-8.81,2c-1.45.42-2.88.89-4.27,1.43a24,24,0,0,0-4,2,9.37,9.37,0,0,0-1.71,1.34,3.8,3.8,0,0,0-1,1.74,2.05,2.05,0,0,0-.06.49,2,2,0,0,0,.06.47,4.9,4.9,0,0,0,.37,1,6.85,6.85,0,0,0,1.21,1.77Z"/><path class="cls-5" d="M194.61,65.59a17,17,0,0,0-2.71.92,6.17,6.17,0,0,0-2.51,2.32,2.39,2.39,0,0,0-.08,2.77,3.31,3.31,0,0,1,.56,1c.49,1.46-.45,2.79-2.14,4l-.24.17-.24.15-.05,0-.15.08a1.4,1.4,0,0,1-.17.09h0l-.12.07h0a1.74,1.74,0,0,0-.26.15h0c-1,.66-2.16,2-3.22,2l.75.26.12.27,3.79,8.26,0,.1v0l.2,0a14.54,14.54,0,0,0,3.2-1.08,3.29,3.29,0,0,0,.57-.37l.11-.09.06-.05h0a8.29,8.29,0,0,0,1-1.07h0s0,0,0,0l.22-.27a6.8,6.8,0,0,1,.5-.59c1.2-1.28,2.71-2.25,3.8-3.64a10.43,10.43,0,0,0,1.76-4.07c.71-3.06.94-6.73-.06-9.45C198.67,65.65,196.54,65.08,194.61,65.59Z"/><g class="cls-6"><path d="M178.91,76.22h0c-.09.14-.18.29-.29.45l-.39.64C177.28,78.86,176,81,174.91,83l-.36.62L173,86.23c.41.33.83.64,1.27.94l.33.22.07,0h0l.42.27c1.85,1.14,4,1,6.27,1.33,2.1.29,4.31-.34,6.48-.93l.27-.07.25-.07a14.54,14.54,0,0,0,3.2-1.08,3.76,3.76,0,0,0,.47-.3h0a8.29,8.29,0,0,0,1-1.07h0s0,0,0,0l.22-.27a5.1,5.1,0,0,0-.2-1.13A4.07,4.07,0,0,0,191.77,82c-1-.78-4.4-1.35-5.32-2.71l0-.07c-.33-.54-.27-1.21.46-2.06l-.12.07h0a1.74,1.74,0,0,0-.26.15h0c-1.39.79-2.93,2.19-4.27,1.82a4,4,0,0,1-2-1.3h0a6.26,6.26,0,0,1-.41-.49C179.51,77,179.22,76.6,178.91,76.22Z"/></g><path class="cls-7" d="M178.84,76.15h0l0,0c-.14.2-.29.43-.46.7l-.2.32c-1.58,2.56-4.34,7.4-5.37,9.23h0l.39.3c.25.2.51.39.77.57l.06,0,.38.25.07,0h0l.41.26,0,0c1.85,1.14,4,1,6.26,1.33s4.51-.4,6.76-1l.25-.07a14.54,14.54,0,0,0,3.2-1.08,5.19,5.19,0,0,0,.52-.34l.11-.09.19-.16,0,0,0,0a8.29,8.29,0,0,0,1-1.07h0a4.88,4.88,0,0,0-.2-1.22,4.07,4.07,0,0,0-1.37-2.13c-1-.79-4.52-1.37-5.37-2.78v0c-.32-.56-.23-1.25.58-2.14l0,0-.27.15h0c-1.39.79-2.93,2.19-4.27,1.82a4,4,0,0,1-2-1.3h0a6.26,6.26,0,0,1-.41-.49c-.3-.38-.59-.77-.9-1.15l-.06-.07Z"/><g class="cls-6"><path d="M174.4,70.37c-1.28-.33-4.33,1.26-6.4,2.4a.3.3,0,0,0,0,.1,2.84,2.84,0,0,0-.06.31,12.69,12.69,0,0,0-.18,2.59c0,.2,0,.39,0,.59s0,.36.06.54a16.53,16.53,0,0,0,2.82,7.17,7,7,0,0,0,.47.64l.18.23.21.25.41.45.17.17.13.12.18.18.15.14.22.2h0l0,0c.11.09.23.19.35.27h0c.13.11.27.21.41.31l.35.25.06,0,.06,0,.32.21.07,0h0l.41.26a4.12,4.12,0,0,1-.13-.47c-.72-3.07,1-5,2.07-5.23a4.36,4.36,0,0,0,3-3s0,0,0,0c.08-.22.15-.43.2-.61s.13-.51.16-.65h0a6.26,6.26,0,0,1-.41-.49c-.3-.38-.59-.77-.9-1.15l0,0-.05-.06h0l0,.05h0a10.8,10.8,0,0,1-.94-1.28c-.12-.19-.22-.37-.32-.56a7.17,7.17,0,0,1-.52-1.25,2.76,2.76,0,0,1-.08-.27,6.57,6.57,0,0,1-.16-.77c0-.18,0-.37,0-.55a6.17,6.17,0,0,1,.15-1.59l-.45.15A4.07,4.07,0,0,1,174.4,70.37Z"/></g><path class="cls-8" d="M176.57,69.47A5.45,5.45,0,0,1,174,70c-1.23-.32-4.11,1.15-6.18,2.28a1.51,1.51,0,0,0-.22.11.44.44,0,0,0,0,.1l-.06.31a12.65,12.65,0,0,0-.08,3.73l.06.45h0a.13.13,0,0,1,0,.06,16.87,16.87,0,0,0,2.75,6.64c.15.22.31.44.47.64l.19.24.2.24q.19.22.42.45a1.37,1.37,0,0,0,.17.17l.12.13.18.17.15.14.37.33.29.24h0l0,0c.11.09.23.19.35.27h0c.13.11.27.21.41.31l.35.25.06,0,.06,0,.32.21.07,0h0s0-.05,0-.08-.08-.27-.11-.4a5.35,5.35,0,0,1,.24-3.6,4,4,0,0,1,.36-.62,2.48,2.48,0,0,1,1.44-1.1c1.69-.3,2.59-1.86,3-3.06a6.25,6.25,0,0,0,.22-.65,6.33,6.33,0,0,0,.19-.78c-.3-.37-.59-.76-.9-1.13a.18.18,0,0,0-.05-.07h0a10.8,10.8,0,0,1-.94-1.28,6.22,6.22,0,0,1-.32-.56,7.17,7.17,0,0,1-.52-1.25,2.76,2.76,0,0,1-.08-.27,6.57,6.57,0,0,1-.16-.77c0-.18,0-.37,0-.55a6.17,6.17,0,0,1,.15-1.59v0a1.16,1.16,0,0,1,0-.18,1,1,0,0,1,0-.14h0v0a1.42,1.42,0,0,1,.07-.22Z"/><g class="cls-6"><path d="M175.54,60.54a.05.05,0,0,1,0,0l-.08.15-.09.19s0,0,0,.06l0,.06a1.12,1.12,0,0,0-.05.13c0,.1-.09.21-.13.31l0,.08-.08,0h-.28a1.26,1.26,0,0,0-.3,0h0c-.22.05-.27.16-.27.16a21.26,21.26,0,0,0-6.37,10.57c0,.1-.05.21-.08.32s-.05.21-.07.32,0,.06,0,.09l-.06.31a13.08,13.08,0,0,0-.14,3.17c0,.17,0,.33,0,.49h0a.13.13,0,0,1,0,.06h0a7.44,7.44,0,0,1,.32-.69c1.32-2.43,3.79-2.81,4.87-1.93s2.53-.46,3.42-1.47l.08-.08c.2-.23.36-.44.48-.6a2.16,2.16,0,0,0,.19-.26c0-.18,0-.37,0-.55a6.17,6.17,0,0,1,.15-1.59v0a1.16,1.16,0,0,1,0-.18,1,1,0,0,1,0-.14h0v0a1.42,1.42,0,0,1,.07-.22,1.09,1.09,0,0,1,0-.17,3.52,3.52,0,0,1,.15-.42c.22-.55.52-1.1.74-1.65h0a4.68,4.68,0,0,0,.18-.48,3.9,3.9,0,0,0,.14-.59h0l.4-.15h0c-.41-.67-.88-1.46-1.38-2.27L177,63l-1.18-2C175.74,60.88,175.64,60.71,175.54,60.54Z"/></g><path class="cls-9" d="M175.47,60l0,0-.08.15a1.62,1.62,0,0,1-.1.18s0,0,0,0l0,0,0,.07-.06.13c0,.1-.09.2-.13.31a.19.19,0,0,1,0,.07h-.16l-.2,0c-.47,0-.57.2-.57.2a21.33,21.33,0,0,0-6.45,10.88c0,.11-.05.22-.07.32a.44.44,0,0,0,0,.1l-.06.31a12.65,12.65,0,0,0-.08,3.73s0,0,0,0c.11-.26.22-.5.34-.72,1.33-2.37,3.77-2.74,4.84-1.87s2.61-.53,3.5-1.55c.2-.23.36-.44.48-.59l.22-.29a6.17,6.17,0,0,1,.15-1.59v0a1.16,1.16,0,0,1,0-.18,1,1,0,0,1,0-.14h0v0a1.42,1.42,0,0,1,.07-.22,1.09,1.09,0,0,1,0-.17,3.52,3.52,0,0,1,.15-.42c.22-.55.52-1.1.74-1.65h0a4.68,4.68,0,0,0,.18-.48,3.9,3.9,0,0,0,.14-.59h0l.4-.15,0,0,.16,0-2-3.28-1.18-2Z"/><g class="cls-6"><path d="M175.24,60.45h0l0,.07-.06.13A2.85,2.85,0,0,0,175,61a.1.1,0,0,1-.1.06h-.09l-.2,0c-.54,1.09-.5,2.25.17,2.37.73-.26,3.26,2.21,3.33,2.27h0c0-.08-.67-1.81-1.18-3.14-.31-.81-.56-1.47-.62-1.55a1.45,1.45,0,0,0-.56-.42A1,1,0,0,0,175.24,60.45Z"/></g><path class="cls-10" d="M184.93,53.49l-.44,1.11c-.41,1-.81,2.09-1.11,3.15,0,.19-.1.39-.14.6-.4,2.15-.24,5.29-2.23,6.53a6.54,6.54,0,0,1-.79.41l-.2.08-.29.11-.24.09-.54.2-.08,0-.08,0h0a.53.53,0,0,1-.61-.2h0c-.48-.77-1.7-2.54-2.86-2.9a1,1,0,0,1-.56-1.21,2.24,2.24,0,0,1,.08-.32h0l0-.09s0-.07.08-.08h0S175,61,175,61h0l.06-.16.06-.15.06-.13,0,0s0,0,0,0,0,0,0,0a.05.05,0,0,0,0,0l.1-.18.08-.15,0,0h0a10.31,10.31,0,0,1,.71-1.06l.19-.27.14-.18.27-.33c.07-.09.13-.18.2-.26l0,0,.38-.47.15-.19.31-.39.15-.19c.07-.08.13-.17.19-.25l.18-.26.18-.25.4-.63c.93-1.43,2.07-3.2,3.32-3.81.72-.36,3.12-.3,3.28.18C185.66,51.94,185.16,52.9,184.93,53.49Z"/><g class="cls-6"><path d="M178.2,66.58a22.27,22.27,0,0,0-1.63,2.89.59.59,0,0,0,0,.13c0,.06,0,.22-.07.43-.14.73-.4,2.09-.4,2.32s0,.42,0,.61a4,4,0,0,0,1.15,2.86,15.86,15.86,0,0,1,.93,1.4h0l.06.09a8,8,0,0,0,.88,1.22,3.47,3.47,0,0,0,.29.25,4.48,4.48,0,0,0,.47.33,5.25,5.25,0,0,0,2.88.69c.33,0,1,0,1.37,0l.15,0c.69.12,1.16-.26,1.87-.52l.05,0,.27-.1a8.68,8.68,0,0,0,4-3.57c1.34-2.41-.62-3.06-.62-3.06.49,1.46-.45,2.79-2.14,4l-.24.17-.24.15-.05,0-.15.08a1.4,1.4,0,0,1-.17.09h0l-.12.07h0a1.74,1.74,0,0,0-.26.15h0c-1.39.79-2.93,2.19-4.27,1.82a4,4,0,0,1-2-1.3h0a6.26,6.26,0,0,1-.41-.49c-.3-.38-.59-.77-.9-1.15l0,0-.05-.06h0l0,.05h0a10.8,10.8,0,0,1-.94-1.28c-.12-.19-.22-.37-.32-.56a7.17,7.17,0,0,1-.52-1.25,2.76,2.76,0,0,1-.08-.27,6.57,6.57,0,0,1-.16-.77c0-.18,0-.37,0-.55a6.17,6.17,0,0,1,.15-1.59v0a1.16,1.16,0,0,1,0-.18,1,1,0,0,1,0-.14h0v0a1.42,1.42,0,0,1,.07-.22,1.09,1.09,0,0,1,0-.17,3.52,3.52,0,0,1,.15-.42c.22-.55.52-1.1.74-1.65h0A4.68,4.68,0,0,0,178.2,66.58Z"/></g><path class="cls-8" d="M178,67.06a12.57,12.57,0,0,0-.74,1.65C177.5,68.16,177.8,67.61,178,67.06Z"/><g class="cls-6"><path d="M180.55,58l-.72.55Z"/></g><g class="cls-6"><path d="M184.93,53.49l-.44,1.11c-.33.32-.71.66-1.12,1-.83.73-1.78,1.54-2.82,2.34a18,18,0,0,0,2.75-2.86,23.06,23.06,0,0,0,2.25-3.47C185.66,51.94,185.16,52.9,184.93,53.49Z"/></g><ellipse class="cls-11" cx="238.67" cy="79.16" rx="8.05" ry="20.26" transform="translate(-2.41 7.66) rotate(-1.83)"/><path class="cls-12" d="M229.54,81.08c.35,11.18,3.62,12.55,9.37,12.37,6.51-.21,7.07-1.7,6.71-12.89s-5.5-20.09-8.69-20C234.38,60.65,229.18,69.89,229.54,81.08Z"/><path class="cls-13" d="M227.55,89.9c0,.14,0,.27,0,.41,2.35,9.6,6.22,16.57,11.37,15.51a5.56,5.56,0,0,0,3.71-2.53c1-3.64,2-3.61,1.82-8.93l-.19-5.3c-.31-9.67-2.51-16.22-8.1-19.32a2.41,2.41,0,0,0-1.23-.35C232.39,69.47,227.19,78.71,227.55,89.9Z"/><path class="cls-11" d="M241.24,97.84a5.55,5.55,0,0,1-3.51,2.78c-5.07,1.43-9.41-5.26-12.44-14.67-.27-.86-.54-1.75-.79-2.66-3-10.77-.2-21,2.26-21.68,1.34-.38,3.47.83,5.68,3.21A35.31,35.31,0,0,1,240,78.94c.46,1.64.87,3.25,1.22,4.8l.06.25C242.56,89.83,242.89,94.82,241.24,97.84Z"/><path class="cls-14" d="M168.57,99.54c-2.12-1.81-10-8.59-8.31-13.16s12.3-5,18.21-5.32c9.81-.44,10.56,1.78,17.76.65,9.12-1.43,9.37-5.22,17.12-5.2,7,0,13.72,1.69,15.52,2.67,4.06,2.19,8,5.35,10.46,6.63,10.9,5.72,19.51-9.21,26.46-4.75,4.06,2.61,5,11,2.6,16.9C259.21,120.48,194.64,122,168.57,99.54Z"/><rect class="cls-4" x="190.68" y="119.67" width="40.91" height="5.74" rx="2.15"/><ellipse class="cls-11" cx="263.48" cy="75.62" rx="24.3" ry="9.65" transform="translate(137.23 318.93) rotate(-78.59)"/><path class="cls-12" d="M273.9,79.71c-2.65,13.15-6.79,14.12-13.55,12.76-7.65-1.55-8-3.43-5.37-16.58S265.5,53.22,269.25,54C272.25,54.59,276.56,66.55,273.9,79.71Z"/><path class="cls-13" d="M272.3,90.92c0,.16-.07.32-.1.48-4.7,10.88-10.66,18.35-16.54,16.07a6.67,6.67,0,0,1-3.88-3.73c-.41-4.5-1.63-4.66-.37-10.93l1.29-6.22c2.29-11.37,6.2-18.69,13.42-21.24a3,3,0,0,1,1.53-.16C270.65,65.8,275,77.76,272.3,90.92Z"/><path class="cls-11" d="M278.44,76.22c-.36,1.3-.8,2.63-1.31,4-.41,1-.83,2.08-1.26,3.08a66,66,0,0,1-3.43,6.89c-3.79,6.54-8.09,10.5-12.38,9.41a6.83,6.83,0,0,1-.73-.23,6.67,6.67,0,0,1-3.88-3.73,12.77,12.77,0,0,1-.78-5.48A43.71,43.71,0,0,1,257,79.05q.93-2.85,2.12-5.88a47,47,0,0,1,2.43-5.26,39.72,39.72,0,0,1,8.21-10.7q.79-.7,1.56-1.26l.09-.08c2.26-1.64,4.25-2.33,5.51-1.84C279.5,55,281.52,65.14,278.44,76.22Z"/><ellipse class="cls-11" cx="229" cy="100.02" rx="6.32" ry="15.91" transform="translate(27.22 247.43) rotate(-59.74)"/><path class="cls-12" d="M233.74,94.43c7.59,4.43,7.31,7.2,5,11.1-2.58,4.41-3.82,4.24-11.41-.18S215.55,94,216.81,91.87C217.82,90.14,226.15,90,233.74,94.43Z"/><path class="cls-13" d="M236.33,97.81l.28.17c5.75,5.21,9.12,10.48,6.46,13.65a4.37,4.37,0,0,1-3.13,1.61c-2.87-.69-3.23,0-6.85-2.08L229.5,109c-6.56-3.82-10.26-7.79-10.31-12.81a1.74,1.74,0,0,1,.22-1C220.42,93.52,228.74,93.39,236.33,97.81Z"/><path class="cls-11" d="M244.17,107.39c-.11.12-.23.23-.34.33a4.37,4.37,0,0,1-1.42.82,4.53,4.53,0,0,1-1.47.24,8.32,8.32,0,0,1-3.73-1,29.11,29.11,0,0,1-5.85-4.13c-1-.85-2-1.78-3-2.77a29.82,29.82,0,0,1-5.21-6.71A24.73,24.73,0,0,1,221.66,91l-.09-.26c0-.13-.1-.27-.14-.4a7.42,7.42,0,0,1-.45-4.54,1.66,1.66,0,0,1,.35-.58c1.4-1.44,9.51.42,15.82,6.54.53.52,1,1,1.54,1.55C244.06,98.93,247.05,104.43,244.17,107.39Z"/><ellipse class="cls-11" cx="163.16" cy="79.17" rx="9.65" ry="24.3" transform="translate(-13 36.08) rotate(-12.14)"/><path class="cls-12" d="M152.79,83.4c2.82,13.12,7,14,13.71,12.58,7.64-1.64,8-3.52,5.16-16.64s-10.8-22.53-14.54-21.73C154.12,58.26,150,70.28,152.79,83.4Z"/><path class="cls-13" d="M154.24,95c0,.17.07.33.11.49,4.83,10.82,10.89,18.22,16.74,15.85a6.64,6.64,0,0,0,3.83-3.78c.36-4.49,1.57-4.68.23-10.93l-1.36-6.2c-2.44-11.34-6.44-18.61-13.7-21.06a2.94,2.94,0,0,0-1.52-.15C155.57,69.84,151.42,81.86,154.24,95Z"/><path class="cls-11" d="M170.35,101.05a6.67,6.67,0,0,1-3.4,4.17c-5.56,3-12.38-3.7-18.37-13.93-.55-.94-1.09-1.91-1.63-2.9-5.41-10.08-5.74-20.79-4-24.64a2.64,2.64,0,0,1,1-1.33c1.48-.8,4.28.07,7.49,2.28a40.76,40.76,0,0,1,10.68,11.45l.08.1c.61,1,1.19,2,1.75,3,1,1.9,2,3.77,2.82,5.58C169.8,91.33,171.49,97.08,170.35,101.05Z"/><ellipse class="cls-11" cx="174.22" cy="91.58" rx="20.81" ry="8.26" transform="translate(65.79 255.84) rotate(-84.3)"/><path class="cls-12" d="M183.45,94.18c-1.14,11.44-4.58,12.61-10.46,12-6.65-.67-7.13-2.24-6-13.67s7-20.22,10.3-19.89C179.91,72.91,184.59,82.74,183.45,94.18Z"/><path class="cls-13" d="M186.67,98.76l.09.41c.12,10.15-1.92,18.08-7.33,18.34A5.7,5.7,0,0,1,175.1,116c-1.89-3.37-2.9-3.08-4.1-8.42l-1.17-5.31c-2.18-9.69-1.68-16.78,3.08-21.3a2.52,2.52,0,0,1,1.13-.66C176.6,79.69,184.15,87.54,186.67,98.76Z"/><path class="cls-11" d="M189.88,90.75h0a36.56,36.56,0,0,1-1.68,5.49c-.36.9-.72,1.77-1.1,2.63l-.34.76c-4,8.88-9,14.85-13.91,12.91h0c-.18-.07-.35-.15-.51-.23a5.63,5.63,0,0,1-2.76-3,10.19,10.19,0,0,1-.66-4,24.91,24.91,0,0,1,.59-4.73A51,51,0,0,1,171,95.17c.54-1.62,1.16-3.3,1.84-5a39.53,39.53,0,0,1,4.51-8.33,32.43,32.43,0,0,1,3.5-4.18l.24-.23c.32-.31.64-.61.95-.88s.78-.66,1.16-.94c2.05-1.54,3.86-2.19,5-1.75C190.19,74.64,191.78,82.13,189.88,90.75Z"/><g class="cls-6"><path class="cls-15" d="M162.12,76.15c-5.15-7.81-19.21-12.39-19.21-12.39h0a2.64,2.64,0,0,1,1-1.33c1.48-.8,4.28.07,7.49,2.28A40.76,40.76,0,0,1,162.12,76.15Z"/></g><g class="cls-6"><path class="cls-15" d="M241.21,83.74a19.14,19.14,0,0,1-1.58-2.63c-7-13.55-12.87-19.5-12.87-19.5,1.34-.38,3.47.83,5.68,3.21A35.31,35.31,0,0,1,240,78.94C240.45,80.58,240.86,82.19,241.21,83.74Z"/></g><path class="cls-5" d="M168.38,72.85a16.28,16.28,0,0,1-.53,2.82,5.39,5.39,0,0,1-.51,1.13,6.39,6.39,0,0,1-1.44,1.68,2.4,2.4,0,0,1-2.73.46,3.54,3.54,0,0,0-1.08-.41c-1.51-.28-2.7.84-3.64,2.67l-.12.26-.12.26,0,0-.07.16-.06.18h0a.78.78,0,0,1-.05.14v0c0,.09-.07.18-.12.27h0c-.51,1.12-1.72,2.43-1.52,3.47l-.36-.71-.29-.08-8.7-2.6-.11,0h0c0-.07,0-.13,0-.2a14.3,14.3,0,0,1,.63-3.32,3.44,3.44,0,0,1,.29-.61.54.54,0,0,1,.07-.13.21.21,0,0,1,0-.06h0a7.7,7.7,0,0,1,.92-1.13h0l0,0,.24-.25.51-.58c1.1-1.37,1.84-3,3.07-4.28a10.42,10.42,0,0,1,3.79-2.3c.67-.26,1.38-.5,2.1-.7a15.61,15.61,0,0,1,7.26-.56C167.76,68.84,168.63,70.87,168.38,72.85Z"/><g class="cls-6"><path d="M160,89.89h0l-.42.35-.57.48c-1.39,1.15-3.38,2.71-5.11,4.06l-.57.44L151,97.09c-.39-.36-.76-.74-1.11-1.12l-.27-.3-.06-.07h0v0l-.32-.37c-1.39-1.68-1.57-3.8-2.19-6-.58-2-.26-4.33,0-6.55l0-.28c0-.08,0-.17,0-.26a14.82,14.82,0,0,1,.62-3.32,3.81,3.81,0,0,1,.23-.5h0a7.7,7.7,0,0,1,.92-1.13h0l0,0,.24-.25a5.1,5.1,0,0,1,1.14,0,4.14,4.14,0,0,1,2.3,1.06c.91.9,1.95,4.17,3.42,4.89l.08,0c.58.25,1.23.1,2-.75a.78.78,0,0,1-.05.14v0a1.59,1.59,0,0,1-.12.27h0c-.59,1.49-1.75,3.21-1.21,4.49a4.09,4.09,0,0,0,1.56,1.77h0c.17.12.36.23.54.34C159.19,89.4,159.63,89.63,160,89.89Z"/></g><path class="cls-7" d="M160.12,89.94h0s0,0,0,0c-.18.16-.39.35-.64.55l-.28.24c-2.32,1.93-6.73,5.33-8.39,6.61h0l-.35-.33c-.23-.23-.45-.46-.67-.7,0,0,0,0-.05,0l-.3-.33,0-.07h0c-.1-.12-.21-.24-.31-.37l0,0c-1.39-1.67-1.57-3.79-2.2-6s-.22-4.52.06-6.83l0-.26a15.43,15.43,0,0,1,.63-3.32,4.13,4.13,0,0,1,.26-.56l.07-.13.14-.21,0,0,0,.06a7.7,7.7,0,0,1,.92-1.13h0a5.29,5.29,0,0,1,1.24,0,4,4,0,0,1,2.29,1.06c.94.91,2,4.29,3.51,4.93h0c.6.24,1.27.06,2-.87l0,0c0,.09-.07.19-.11.28h0c-.59,1.49-1.75,3.21-1.21,4.49a4.09,4.09,0,0,0,1.56,1.77h0c.17.12.36.23.54.34.41.24.85.47,1.26.73l.08,0Z"/><g class="cls-6"><path d="M166.46,93.54c.51,1.22-.64,4.45-1.48,6.67l-.1,0-.3.11a12.77,12.77,0,0,1-2.54.53l-.59,0-.54,0a16.75,16.75,0,0,1-7.49-1.8c-.24-.12-.47-.25-.7-.38l-.26-.15-.27-.17-.5-.35-.2-.14-.14-.11-.2-.15-.15-.13-.23-.19h0l0,0-.32-.3h0l-.37-.37c-.09-.1-.2-.21-.29-.32s0,0-.05,0l-.05-.05-.25-.28,0-.07h0c-.1-.12-.21-.24-.31-.37l.48.06c3.14.29,4.86-1.68,4.89-2.77.06-1.72,1.48-2.83,2.6-3.44l0,0,.57-.29c.28-.12.5-.2.62-.24h0c.17.12.36.23.54.34.41.24.85.47,1.26.73l0,0,.08,0h0s0,0,0,0h0a12.43,12.43,0,0,0,1.4.75l.6.24a7.2,7.2,0,0,0,1.31.34l.28,0a5.1,5.1,0,0,0,.78,0l.56,0A6.69,6.69,0,0,0,166.6,91l-.09.46A4,4,0,0,0,166.46,93.54Z"/></g><path class="cls-8" d="M167.05,91.26a5.23,5.23,0,0,0-.15,2.67c.48,1.17-.57,4.23-1.4,6.44l-.09.23a.32.32,0,0,1-.09,0l-.3.11a12.87,12.87,0,0,1-3.68.6h-.52a16.88,16.88,0,0,1-7-1.79l-.7-.38-.26-.15-.27-.17-.5-.35-.19-.14-.15-.11-.19-.15-.16-.13-.37-.32-.29-.26h0l0,0-.32-.3h0l-.37-.37c-.09-.1-.2-.21-.29-.32s0,0-.05,0l-.05-.05-.25-.28,0-.07h0l.09,0,.41.06a5.41,5.41,0,0,0,3.53-.75,5.34,5.34,0,0,0,.57-.44,2.53,2.53,0,0,0,.89-1.58,4.35,4.35,0,0,1,2.6-3.44l.61-.31c.45-.19.75-.28.75-.28.41.24.83.46,1.25.72l.07,0h0a12.43,12.43,0,0,0,1.4.75q.3.14.6.24a7.2,7.2,0,0,0,1.31.34l.28,0a5.1,5.1,0,0,0,.78,0l.56,0A6.69,6.69,0,0,0,166.6,91h0l.17-.06.13-.06h0l.21-.09C167.12,90.91,167.09,91.09,167.05,91.26Z"/><g class="cls-6"><path d="M176,91l0,0a.71.71,0,0,1-.14.1,1.09,1.09,0,0,1-.17.13l-.05,0-.06,0-.12.08-.29.17-.07,0s0,0,0,.07h0a.19.19,0,0,1,0,.07,1.62,1.62,0,0,1,0,.19h0a1.51,1.51,0,0,1,0,.29h0a.42.42,0,0,1-.13.29,21.29,21.29,0,0,1-9.57,7.78l-.31.12-.31.11-.09,0-.3.1a13.18,13.18,0,0,1-3.12.58l-.49,0h-.06a4,4,0,0,0,.63-.41c2.22-1.64,2.26-4.14,1.24-5.08s.1-2.58,1-3.6l.08-.09c.2-.23.38-.42.52-.56l.23-.23.56,0A6.69,6.69,0,0,0,166.6,91h0l.17-.06.13-.06h0l.21-.09.16-.08a3.84,3.84,0,0,0,.4-.21c.51-.29,1-.66,1.53-1h0l.44-.24a4.53,4.53,0,0,1,.57-.23h0l.09-.41h0l2.44,1.05.6.26,2.1.89Z"/></g><path class="cls-9" d="M176.56,91l0,0a.71.71,0,0,1-.14.1l-.17.12,0,0,0,0-.07,0-.11.08-.29.17-.07,0s0,.06,0,.08h0a.19.19,0,0,1,0,.07.71.71,0,0,1,0,.2c.07.46-.11.59-.11.59a21.33,21.33,0,0,1-9.88,7.9l-.31.11a.32.32,0,0,1-.09,0l-.3.11a12.87,12.87,0,0,1-3.68.6l0,0a6,6,0,0,0,.67-.44c2.16-1.64,2.19-4.11,1.18-5s.16-2.66,1-3.68l.53-.56.26-.26A6.69,6.69,0,0,0,166.6,91h0l.17-.06.13-.06h0l.21-.09.16-.08a3.84,3.84,0,0,0,.4-.21c.51-.29,1-.66,1.53-1h0l.44-.24a4.53,4.53,0,0,1,.57-.23h0l.09-.41a.08.08,0,0,0,0,0,1.36,1.36,0,0,0,0-.17l3.52,1.51,2.11.9Z"/><g class="cls-6"><path d="M176.16,91.32h0l-.07,0-.11.08-.29.17a.09.09,0,0,0,0,.1h0a.14.14,0,0,1,0,.07.71.71,0,0,1,0,.2c-1,.68-2.15.81-2.36.15.15-.75-2.64-2.91-2.72-3h0l3.28.73c.84.19,1.54.36,1.63.4a1.43,1.43,0,0,1,.48.5A.89.89,0,0,1,176.16,91.32Z"/></g><path class="cls-10" d="M184.1,83.11a4.69,4.69,0,0,1-1,1.58h0a30.74,30.74,0,0,1-2.92,2.73l-.22.2-.23.22-.22.22-.17.18a3.89,3.89,0,0,0-.34.36l-.17.18c-.14.14-.27.29-.41.44t0,0l-.22.23-.3.31a1.29,1.29,0,0,1-.16.17c-.07.08-.15.15-.23.23a10.69,10.69,0,0,1-1,.84h0l0,0a.71.71,0,0,1-.14.1l-.17.12,0,0,0,0-.07,0-.11.08-.29.17a.09.09,0,0,0,0,.1h0a.09.09,0,0,1-.06.09l-.09,0h0a1.14,1.14,0,0,1-.3.13,1,1,0,0,1-1.28-.39c-.51-1.1-2.44-2.06-3.27-2.43h0a.51.51,0,0,1-.28-.57v0a.94.94,0,0,0,0-.16l.12-.56a1.84,1.84,0,0,1,.05-.25c0-.1.05-.2.07-.3l.06-.21a5.54,5.54,0,0,1,.29-.84c1.05-2.36,4.72-2.46,6.73-3.34l1.06-.5c.64-.33,1.27-.68,1.9-1l1.05-.59c.54-.31,1.42-.94,1.75-.88C184,80,184.36,82.35,184.1,83.11Z"/><g class="cls-6"><path d="M169.68,89.25a22.3,22.3,0,0,1-2.63,2l-.12,0-.42.13c-.71.24-2,.69-2.25.72l-.6.09a3.9,3.9,0,0,1-3-.74c-.26-.16-.9-.44-1.52-.73h0l-.1,0a7.87,7.87,0,0,1-1.33-.7l-.29-.26a3.73,3.73,0,0,1-.39-.41A5.32,5.32,0,0,1,156,86.59a12,12,0,0,0-.24-1.35.47.47,0,0,0,0-.14c-.21-.67.1-1.19.26-1.93v0l.06-.29a8.74,8.74,0,0,1,3-4.49c2.2-1.66,3.11.19,3.11.19-1.51-.28-2.7.84-3.64,2.67l-.12.26-.12.26,0,0-.07.16-.06.18h0a.78.78,0,0,1-.05.14v0a1.59,1.59,0,0,1-.12.27h0c-.59,1.49-1.75,3.21-1.21,4.49a4.09,4.09,0,0,0,1.56,1.77h0c.17.12.36.23.54.34.41.24.85.47,1.26.73l0,0,.08,0h0s0,0,0,0h0a12.43,12.43,0,0,0,1.4.75l.6.24a7.2,7.2,0,0,0,1.31.34l.28,0a5.1,5.1,0,0,0,.78,0l.56,0A6.69,6.69,0,0,0,166.6,91h0l.17-.06.13-.06h0l.21-.09.16-.08a3.84,3.84,0,0,0,.4-.21c.51-.29,1-.66,1.53-1h0Z"/></g><path class="cls-8" d="M169.24,89.49a11.64,11.64,0,0,1-1.53,1C168.22,90.16,168.72,89.79,169.24,89.49Z"/><g class="cls-6"><path d="M177.9,85.72l-.44.79C177.59,86.25,177.74,86,177.9,85.72Z"/></g><g class="cls-6"><path d="M183.47,79.88A22.56,22.56,0,0,0,181,82a18.34,18.34,0,0,0-3.11,3.77c.78-1.38,1.6-2.65,2.29-3.68l.48-.69,1.05-.59C182.26,80.45,183.14,79.82,183.47,79.88Z"/></g><path class="cls-5" d="M261.14,68a17,17,0,0,1-.54,2.81,5.24,5.24,0,0,1-.74,1.5,5.87,5.87,0,0,1-1.2,1.32,2.4,2.4,0,0,1-2.73.46,3.54,3.54,0,0,0-1.09-.42c-1.5-.27-2.69.84-3.63,2.68l-.13.25c0,.09-.08.18-.11.27l0,.05-.06.16-.07.18h0a.69.69,0,0,0-.05.13v0c0,.09-.07.19-.11.28h0c-.51,1.12-1.72,2.43-1.52,3.46l-.36-.7-.29-.09-8.71-2.59-.1,0h0l0-.2a14.71,14.71,0,0,1,.62-3.32,3.55,3.55,0,0,1,.29-.62l.07-.13,0,0h0a8.25,8.25,0,0,1,.93-1.12h0l0,0,.23-.25a7.28,7.28,0,0,0,.51-.58c1.1-1.36,1.85-3,3.08-4.27h0a10.38,10.38,0,0,1,3.78-2.3c2.94-1.13,6.54-1.87,9.37-1.26C260.52,64,261.38,66,261.14,68Z"/><g class="cls-6"><path d="M252.79,85h0l-.41.35-.58.48c-1.39,1.15-3.37,2.71-5.11,4.06l-.56.44-2.43,1.87c-.38-.36-.75-.74-1.11-1.13l-.26-.3-.06-.06h0l0,0-.32-.38c-1.38-1.68-1.57-3.8-2.19-6-.58-2-.26-4.32,0-6.54,0-.1,0-.19,0-.28l0-.26a14.3,14.3,0,0,1,.63-3.32,3.28,3.28,0,0,1,.22-.5h0a8.25,8.25,0,0,1,.93-1.12h0s0,0,0,0,.15-.17.23-.26A6.05,6.05,0,0,1,243,72a4,4,0,0,1,2.3,1.06c.92.9,1.95,4.17,3.43,4.89l.07,0c.59.25,1.24.09,2-.75a.69.69,0,0,0-.05.13v0c0,.09-.07.19-.11.28h0c-.59,1.49-1.76,3.21-1.21,4.49A4,4,0,0,0,251,83.94h0l.55.34C252,84.53,252.38,84.76,252.79,85Z"/></g><path class="cls-7" d="M252.88,85.07h0l0,0c-.17.16-.39.35-.63.55l-.29.24c-2.31,1.93-6.72,5.33-8.39,6.6h0l-.36-.34c-.23-.22-.45-.45-.67-.69l0,0c-.1-.11-.21-.22-.3-.34l-.06-.06h0c-.11-.11-.21-.24-.31-.36l0,0c-1.39-1.68-1.57-3.8-2.19-6s-.23-4.51.06-6.82l0-.26a14.3,14.3,0,0,1,.63-3.32,4.11,4.11,0,0,1,.25-.56l.08-.13.13-.21,0,0,0,.05a8.25,8.25,0,0,1,.93-1.12h0a5.19,5.19,0,0,1,1.23,0,4,4,0,0,1,2.3,1.06c.93.91,2,4.28,3.5,4.93h0c.6.24,1.27.06,2-.87l0,0c0,.09-.07.18-.11.28h0c-.59,1.49-1.76,3.21-1.21,4.49A4,4,0,0,0,251,83.94h0l.55.34c.41.25.84.48,1.25.73l.08,0Z"/><g class="cls-6"><path d="M259.22,88.67c.5,1.21-.65,4.45-1.49,6.67l-.09,0-.3.1a12.22,12.22,0,0,1-2.55.54l-.58,0-.55,0a16.52,16.52,0,0,1-7.49-1.8c-.23-.11-.47-.24-.7-.37l-.25-.15-.27-.17-.51-.35-.19-.14-.14-.11-.2-.16-.16-.13-.23-.19h0l0,0-.32-.31h0l-.36-.36-.3-.32,0,0,0,0a3.47,3.47,0,0,1-.25-.29l-.06-.06h0c-.11-.11-.21-.24-.31-.36l.47.06c3.15.29,4.86-1.68,4.9-2.77.06-1.72,1.48-2.83,2.6-3.44l.05,0c.2-.11.39-.2.57-.28s.49-.2.62-.25h0l.55.34c.41.25.84.48,1.25.73l.05,0,.07,0h0l0,0h0a11.06,11.06,0,0,0,1.4.76l.59.24a8.52,8.52,0,0,0,1.32.34l.27,0a6.85,6.85,0,0,0,.79,0l.55,0a6.14,6.14,0,0,0,1.55-.37l-.09.47A4.1,4.1,0,0,0,259.22,88.67Z"/></g><path class="cls-8" d="M259.81,86.39a5.24,5.24,0,0,0-.16,2.67c.49,1.17-.57,4.23-1.4,6.43l-.08.24-.1,0-.3.1a12.42,12.42,0,0,1-3.68.6h-.52a16.7,16.7,0,0,1-7-1.8,7.74,7.74,0,0,1-.7-.37l-.26-.15-.27-.17-.5-.35-.2-.14-.14-.11-.2-.16-.15-.13c-.13-.1-.26-.2-.38-.31l-.28-.26h0l0,0-.32-.31h0l-.36-.36-.3-.32,0,0,0,0a3.47,3.47,0,0,1-.25-.29l-.06-.06h0l.09,0,.41,0a5.4,5.4,0,0,0,3.54-.74,4.36,4.36,0,0,0,.56-.44,2.48,2.48,0,0,0,.89-1.58c.06-1.72,1.48-2.83,2.6-3.44.22-.12.43-.23.62-.31a6.51,6.51,0,0,1,.74-.29c.42.24.84.47,1.25.73l.08,0h0a11.06,11.06,0,0,0,1.4.76l.59.24a8.52,8.52,0,0,0,1.32.34l.27,0a6.85,6.85,0,0,0,.79,0l.55,0a6.14,6.14,0,0,0,1.55-.37h0l.17-.07.13,0h0s0,0,0,0l.21-.09C259.88,86,259.84,86.21,259.81,86.39Z"/><g class="cls-6"><path d="M268.79,86.16l0,0-.13.1-.17.12-.06,0-.06,0-.12.08-.29.17-.07,0,0,.08h0s0,0,0,.06a1.77,1.77,0,0,1,0,.2h0a1,1,0,0,1,0,.29h0a.4.4,0,0,1-.12.3,21.35,21.35,0,0,1-9.58,7.77l-.31.13-.3.11-.09,0-.3.1a12.32,12.32,0,0,1-3.12.58l-.49,0h-.07a5.84,5.84,0,0,0,.64-.41c2.22-1.64,2.26-4.14,1.23-5.09s.1-2.57,1-3.59l.07-.09c.2-.23.39-.42.52-.56l.24-.23.55,0a6.14,6.14,0,0,0,1.55-.37h0l.17-.07.13,0h0s0,0,0,0l.21-.09.16-.08.4-.21c.5-.3,1-.66,1.52-1h0l.45-.23a3.31,3.31,0,0,1,.56-.23h0l.09-.41h0l2.44,1,.6.25,2.11.9Z"/></g><path class="cls-9" d="M269.32,86.16l0,0-.13.1-.17.12,0,0,0,0-.06,0-.12.07-.29.18-.07,0a.24.24,0,0,1,0,.08h0s0,0,0,.06,0,.14,0,.2c.07.47-.11.59-.11.59a21.36,21.36,0,0,1-9.89,7.91l-.3.11-.1,0-.3.1a12.42,12.42,0,0,1-3.68.6.05.05,0,0,0,0,0,5.36,5.36,0,0,0,.66-.43C257,94.37,257,91.9,256,91s.17-2.67,1-3.68c.2-.23.38-.42.52-.56s.26-.26.26-.26a6.14,6.14,0,0,0,1.55-.37h0l.17-.07.13,0h0s0,0,0,0l.21-.09.16-.08.4-.21c.5-.3,1-.66,1.52-1h0l.45-.23a3.31,3.31,0,0,1,.56-.23h0l.09-.41a.09.09,0,0,1,0,0l0-.17L266.67,85l2.11.9Z"/><g class="cls-6"><path d="M268.92,86.45h0l-.06,0-.12.07-.29.17a.1.1,0,0,0-.05.11h0s0,0,0,.06,0,.14,0,.2c-1,.69-2.16.81-2.37.16.16-.76-2.63-2.92-2.71-3h0l3.28.73c.84.19,1.53.36,1.62.4a1.52,1.52,0,0,1,.49.5A1,1,0,0,1,268.92,86.45Z"/></g><path class="cls-10" d="M276.86,78.24c-.5,1.53-2.53,3.11-3.88,4.3l-.23.21-.22.22-.23.22a1.37,1.37,0,0,1-.17.17l-.34.36-.17.19c-.13.14-.27.28-.4.43l0,0-.23.24-.29.31-.16.16-.23.24a10.69,10.69,0,0,1-1,.84l0,0-.13.1-.17.12,0,0,0,0-.06,0-.12.08-.14.08-.15.08h0a.09.09,0,0,0-.05.1h0a.1.1,0,0,1-.07.09l-.09,0h0l-.3.13a1,1,0,0,1-1.28-.39c-.51-1.1-2.44-2.06-3.27-2.43h0a.52.52,0,0,1-.28-.58.08.08,0,0,1,0,0l0-.17.12-.55.06-.26c0-.1,0-.2.07-.3a1.6,1.6,0,0,1,.05-.21,6,6,0,0,1,.3-.84,3.39,3.39,0,0,1,1-1.26c1.56-1.18,4.14-1.39,5.7-2.07,1-.45,2-1,3-1.54l1-.59c.55-.31,1.43-.94,1.75-.88C276.73,75.11,277.11,77.47,276.86,78.24Z"/><g class="cls-6"><path d="M262.44,84.38a24.08,24.08,0,0,1-2.63,2l-.12,0a3.73,3.73,0,0,0-.43.13c-.7.23-2,.68-2.24.72l-.6.09a3.89,3.89,0,0,1-3-.75c-.25-.16-.89-.44-1.52-.72h0l-.1,0a9.21,9.21,0,0,1-1.33-.7l-.29-.26a4.81,4.81,0,0,1-.38-.42,5.17,5.17,0,0,1-1.09-2.75c-.05-.33-.15-1-.24-1.35,0-.06,0-.11,0-.15-.21-.67.09-1.19.25-1.92v-.06c0-.09,0-.18.07-.28a8.63,8.63,0,0,1,3-4.49c2.2-1.67,3.11.18,3.11.18-1.5-.27-2.69.84-3.63,2.68l-.13.25c0,.09-.08.18-.11.27l0,.05-.06.16-.07.18h0a.69.69,0,0,0-.05.13v0c0,.09-.07.19-.11.28h0c-.59,1.49-1.76,3.21-1.21,4.49A4,4,0,0,0,251,83.94h0l.55.34c.41.25.84.48,1.25.73l.05,0,.07,0h0l0,0h0a11.06,11.06,0,0,0,1.4.76l.59.24a8.52,8.52,0,0,0,1.32.34l.27,0a6.85,6.85,0,0,0,.79,0l.55,0a6.14,6.14,0,0,0,1.55-.37h0l.17-.07.13,0h0s0,0,0,0l.21-.09.16-.08.4-.21c.5-.3,1-.66,1.52-1h0Z"/></g><path class="cls-8" d="M262,84.62a12.39,12.39,0,0,1-1.52,1C261,85.28,261.48,84.92,262,84.62Z"/><g class="cls-6"><path d="M270.65,80.85l-.44.79C270.35,81.37,270.49,81.11,270.65,80.85Z"/></g><g class="cls-6"><path d="M276.22,75a24.28,24.28,0,0,0-3.37,3,17.88,17.88,0,0,0-2.2,2.86c.57-1,1.15-1.93,1.69-2.76.39-.6.76-1.14,1.09-1.61l1-.59C275,75.58,275.9,75,276.22,75Z"/></g><path class="cls-4" d="M275.18,84.13c0,21.6-29.1,39.11-65,39.11s-65-17.51-65-39.11c0,7.29,29.11,13.19,65,13.19S275.18,91.42,275.18,84.13Z"/><g class="cls-16"><path d="M190.64,121.33s9.31,1,19.38,1A210.73,210.73,0,0,0,231.38,121,71.76,71.76,0,0,1,190.64,121.33Z"/></g><circle class="cls-17" cx="197.1" cy="107.57" r="1.78"/><circle class="cls-17" cx="223.18" cy="107.57" r="1.78"/><path class="cls-17" d="M210.29,111.69a8.2,8.2,0,0,1-4.83-1.5.54.54,0,0,1,.68-.85,7.17,7.17,0,0,0,4.15,1.26,7.57,7.57,0,0,0,4.24-1.27.54.54,0,0,1,.76.11.55.55,0,0,1-.1.76A8.61,8.61,0,0,1,210.29,111.69Z"/><g class="cls-18"><path class="cls-15" d="M145.68,85.82s11.73,16.72,99.8,9.66C245.62,95.47,157.92,109.28,145.68,85.82Z"/></g><path class="cls-9" d="M221.89,77.23h0c0,.19,0,.39,0,.58-1.76,5.7-2.09,4.8-5.16,6C210,86.5,202.55,79.5,196.2,66.19a112,112,0,0,1-4.43-10.79c.09,0,5.62,9.26,11.63,12.63a9.19,9.19,0,0,0,3,1.13c.75-.28,1.61-1.83,1.08-5.15-.7-4.43-3.91-12-13.23-23.91h0a32.77,32.77,0,0,1,4.82,1.66h0c7,3,19.4,10.52,22.21,27.42A45.47,45.47,0,0,1,221.89,77.23Z"/><g class="cls-6"><path class="cls-15" d="M211.74,66c-.7,8.71-8.51,2.25-8.51,2.25l.17-.21a9.19,9.19,0,0,0,3,1.13c.75-.28,1.61-1.83,1.08-5.15C209.81,62.24,212.1,61.49,211.74,66Z"/></g><g class="cls-6"><path class="cls-19" d="M206.44,69.16c1.74-.66,4.14-8.28-12.15-29.06C194.63,40.42,223.31,67.28,206.44,69.16Z"/></g><g class="cls-6"><path d="M221.89,77.24c0,.19,0,.39,0,.58-1.76,5.7-2.09,4.8-5.16,6C210,86.5,202.55,79.5,196.2,66.19h0S212.6,90.73,221.89,77.24Z"/></g><g class="cls-6"><path class="cls-15" d="M221.32,69.18c-.17-.38-.35-.81-.54-1.3-5.48-14.44-21-25.76-21.67-26.12C206.1,44.73,218.51,52.28,221.32,69.18Z"/></g><g class="cls-6"><path class="cls-15" d="M278.44,76.22A52.78,52.78,0,0,0,277,54C279.5,55,281.52,65.14,278.44,76.22Z"/></g><g class="cls-6"><path class="cls-15" d="M261.14,68a17,17,0,0,1-.54,2.81,5.24,5.24,0,0,1-.74,1.5c0-.11,0-.22.05-.33,1.41-10.4-14.17-4.93-14.43-4.84a10.38,10.38,0,0,1,3.78-2.3c2.94-1.13,6.54-1.87,9.37-1.26C260.52,64,261.38,66,261.14,68Z"/></g><g class="cls-6"><path class="cls-15" d="M276.86,78.24c-.1-.73-1.86-.64-4-.25l-.51.1c-3.44.68-7.58,2-7.58,2,1.56-1.18,4.14-1.39,5.7-2.07,1-.45,2-1,3-1.54l1-.59c.55-.31,1.43-.94,1.75-.88C276.73,75.11,277.11,77.47,276.86,78.24Z"/></g><g class="cls-6"><path class="cls-15" d="M237.15,91.78c-9.2-6.45-16.17-6-16.17-6a1.66,1.66,0,0,1,.35-.58C222.73,83.8,230.84,85.66,237.15,91.78Z"/></g><g class="cls-6"><path class="cls-15" d="M189.88,90.75c-.14-14.06-6.54-15.14-6.69-15.16,2.05-1.54,3.86-2.19,5-1.75C190.19,74.64,191.78,82.13,189.88,90.75Z"/></g><g class="cls-6"><path class="cls-15" d="M168.38,72.85a16.28,16.28,0,0,1-.53,2.82,5.39,5.39,0,0,1-.51,1.13,2.56,2.56,0,0,1,0-.27c1.37-6.74-8.82-7.34-8.82-7.34s0-.07,0-.2a15.61,15.61,0,0,1,7.26-.56C167.76,68.84,168.63,70.87,168.38,72.85Z"/></g><g class="cls-6"><path class="cls-15" d="M184.1,83.11a4.69,4.69,0,0,1-1,1.58c.61-2.26-.57-2.83-2.13-2.74a7.9,7.9,0,0,0-.82.09c-.47.09-.95.21-1.42.35.64-.33,1.27-.68,1.9-1l1.05-.59c.54-.31,1.42-.94,1.75-.88C184,80,184.36,82.35,184.1,83.11Z"/></g><g class="cls-6"><path class="cls-15" d="M184.93,53.49l-.44,1.11c-.41,1-.81,2.09-1.11,3.15,0,.19-.1.39-.14.6a12.41,12.41,0,0,0,.13-2.73c0-.19,0-.36-.07-.52-.66-3.44-4.35.17-4.35.17h0c.93-1.43,2.07-3.2,3.32-3.81.72-.36,3.12-.3,3.28.18C185.66,51.94,185.16,52.9,184.93,53.49Z"/></g><polygon class="cls-20" points="200.07 82.42 197.5 85.35 199.41 87.13 200.07 82.42"/><path class="cls-20" d="M205.55,88.36s.39,1.09.67,2.09A3,3,0,0,0,207.76,92s.37-3.08,1.29-2.76,0-2.3,0-2.3-2.16,2.76-2.83,2.08Z"/><path class="cls-20" d="M223.18,78.9c-.24.41.52,1,1,1.95s2.57,1.83,2.57,1.83L226,80.79Z"/><path class="cls-20" d="M211,87.92c-.1.59.39,1,0,1.25s-.24,1.25.07,1.21,1.37,0,1.37-.41.48-1.44,0-1.69A5.44,5.44,0,0,0,211,87.92Z"/><rect class="cls-21" y="0.25" width="300" height="165"/></g></g></svg>