<svg xmlns="http://www.w3.org/2000/svg" xmlns:xlink="http://www.w3.org/1999/xlink" viewBox="0 0 300 165.5"><defs><style>.cls-1{isolation:isolate;}.cls-2{fill:#fce5cd;}.cls-3{fill:#edba94;}.cls-4{fill:#50514f;}.cls-5{fill:#e5884a;}.cls-6{fill:#f9dca0;}.cls-7{opacity:0.91;}.cls-11,.cls-14,.cls-15,.cls-16,.cls-17,.cls-19,.cls-7{mix-blend-mode:soft-light;}.cls-8{fill:#ad5625;}.cls-9{fill:#ff9b1d;}.cls-10{fill:#00922b;}.cls-11{opacity:0.63;}.cls-12{fill:#f7b469;}.cls-13{fill:#dd7e14;}.cls-14{opacity:0.61;}.cls-15{opacity:0.31;}.cls-16{opacity:0.52;}.cls-17{opacity:0.49;}.cls-18{fill:#fff;}.cls-20{fill:#ffe8d9;}.cls-21{fill:url(#linear-gradient);}</style><linearGradient id="linear-gradient" x1="150.37" y1="168.62" x2="149.66" y2="2.17" gradientUnits="userSpaceOnUse"><stop offset="0.03" stop-color="#591c16"/><stop offset="0.22" stop-color="#5f241d" stop-opacity="0.96"/><stop offset="0.38" stop-color="#733c33" stop-opacity="0.84"/><stop offset="0.53" stop-color="#936459" stop-opacity="0.64"/><stop offset="0.68" stop-color="#c09d8d" stop-opacity="0.36"/><stop offset="0.82" stop-color="#fae5cf" stop-opacity="0"/></linearGradient></defs><g class="cls-1"><g id="Layer_1" data-name="Layer 1"><rect class="cls-2" y="0.25" width="300" height="165"/><ellipse class="cls-3" cx="211.8" cy="92.31" rx="68.66" ry="6.28"/><path class="cls-4" d="M144.37,94.17a3.73,3.73,0,0,1-1.16-.45,3.77,3.77,0,0,1-.52-.37,2.36,2.36,0,0,1-.49-.54,1.18,1.18,0,0,1-.19-.51.34.34,0,0,1,0-.1v-.07s0-.1,0-.14a2,2,0,0,1,.07-.26,1.77,1.77,0,0,1,.52-.67,4.48,4.48,0,0,1,1.12-.68A15.3,15.3,0,0,1,146,89.6c.75-.21,1.5-.39,2.26-.55,3-.63,6-1,9.07-1.42,6.07-.72,12.15-1.19,18.23-1.55,12.17-.72,24.36-1,36.54-1.07q9.13,0,18.28.21c6.09.15,12.18.36,18.27.72s12.17.81,18.24,1.52c1.52.18,3,.39,4.56.62s3,.49,4.54.82c.76.17,1.51.35,2.27.57a13,13,0,0,1,2.29.88,3.9,3.9,0,0,1,.6.37,2.51,2.51,0,0,1,.61.61,1.86,1.86,0,0,1,.23.55,1.32,1.32,0,0,1,0,.34c0,.06,0,.11,0,.17l0,.13a2.35,2.35,0,0,1-.29.75,3.18,3.18,0,0,1-1,1,2.68,2.68,0,0,1-1.3.46l-.31-.87a4.19,4.19,0,0,0,.66-.68,3.3,3.3,0,0,0,.43-.74,1.17,1.17,0,0,0,.11-.31h0v.09s0,0,0,0a.92.92,0,0,0-.2-.19,3,3,0,0,0-.37-.23,11.18,11.18,0,0,0-2-.74c-.71-.21-1.43-.38-2.16-.54-2.92-.63-5.93-1-8.93-1.41-6-.7-12.08-1.15-18.14-1.5-12.13-.69-24.29-1-36.45-1s-24.32.19-36.46.83c-6.07.32-12.13.75-18.16,1.42-3,.35-6,.75-9,1.35-.73.15-1.46.32-2.18.52a14,14,0,0,0-2.07.7,4,4,0,0,0-.83.48.62.62,0,0,0-.19.22h0v0s0,0,0,0a2,2,0,0,0,.26.33c.11.11.23.24.35.35s.54.46.82.69Z"/><path class="cls-5" d="M209.46,93.94l-50.26,7.51a.89.89,0,0,1-.95-.82l-2.63-21.37c-1.16-8.11,2.55-15.48,13.1-17.11,5.25-.81,8.19-.29,11.42,3a.74.74,0,0,0,1.19-.13,11.13,11.13,0,0,1,4.46-3.76,25,25,0,0,1,8.86-2.41c6.89-.57,9.75,1.59,11.24,6h0a32.07,32.07,0,0,1,1.21,5.62l3,22.44A.91.91,0,0,1,209.46,93.94Z"/><path class="cls-6" d="M205.41,71.81l2.66,19.76a.84.84,0,0,1-.64,1l-46.74,7a.81.81,0,0,1-.88-.73l-2.26-18.7c-1-7.21,2.49-13.8,12.36-15.32,4.91-.76,7.63.11,10.62,3a.72.72,0,0,0,1.11-.13c2.21-3.32,7.9-5.65,12.53-6C203.25,60.9,204.38,64.6,205.41,71.81Z"/><g class="cls-7"><path d="M175.41,89.54a6.56,6.56,0,0,1-3.4-3.8c-.53-1.81-.25-4.38,1-5,1.51-.69,3.13,1.88,5.11,1.18.68-.24.94-.7,2.23-2.75a52.14,52.14,0,0,1,3.27-5c2.35-2.3,6.54-2.77,7.59-1.44.79,1-.46,2.66.66,4.06.64.8,1.33.58,1.7,1.31.59,1.12-.23,3.24-1.7,4.19-2.15,1.38-4.24-.69-5.89.52S186,87,184.18,89,178.15,91,175.41,89.54Z"/></g><path class="cls-8" d="M244.3,67.7c-.44,1.12-1.44,1.58-2.8,2.33h0a16.53,16.53,0,0,0-2.65,1.76c-5.93,4.89-7,8.29-7.51,9.52C228.69,88,229,89,226.45,94.42c-4.28,9-13.15,18.1-21.21,15.06-4.28-1.62-8.65-6.93-8.9-11.4-.49-8.83,6.67-15.48,10.24-17.7,7.09-4.4,10.69-2.34,17.06-6.8,8-5.6,9.42-10,9.42-10,1.66-2.36,2.65-4.17,4.1-4.72a2.33,2.33,0,0,1,.79-.17C241.38,58.53,245.52,64.54,244.3,67.7Z"/><path class="cls-9" d="M239.83,103.25c-1-.73-4.77-3.74-4.38-7,.49-4.07,7.31-6.28,8.68-6.72C248,88.3,250.86,87.24,253,85c1.53-1.59,1.44-2.92,3.05-3.67,1.93-.9,4.69-.19,5.62,1.57.65,1.23.36,2.49,1.21,3,1.41.84,4.82,1.29,8.15.73,3.74-.63,5.48,1.18,7.56,4.37.28.43,1.77,2.81,1.1,5-.9,2.94-5.09,3.79-7.5,4.22C261.25,102.24,245.47,103,239.83,103.25Z"/><path class="cls-10" d="M204.2,100.86a13.62,13.62,0,0,1-1.08,2.35,18.53,18.53,0,0,1-5.17,5.6c-4.77-4.86-15.94-8.27-29-8.27A63.18,63.18,0,0,0,150.82,103a18.86,18.86,0,0,0-.66-2,18.2,18.2,0,0,0-.76-1.66c-2.44-4.68-5.32-5.65-6.53-8.13a6,6,0,0,1-.55-2,9.51,9.51,0,0,1,0-1.51,8.72,8.72,0,0,1,2.21-5.28,4.27,4.27,0,0,1,1.38-1c2.6-1.09,4.91,1.39,7.57,1.52h0a3.25,3.25,0,0,0,.82,0h0a4.48,4.48,0,0,0,.94-.27h0c2.06-.86,2.21-2.75,3.68-4a4.35,4.35,0,0,1,1.3-.74,7,7,0,0,1,6.44,1.23c1.84,1.47,1.37,2.91,3.14,6.93,1.14,2.61,2.19,5,3.65,6.17h0A3.21,3.21,0,0,0,175,93a2.47,2.47,0,0,0,1.57-.28h0c1.19-.61,2.6-2.08,5.81-4.18,1.44-.94,2.7-1.76,3.83-2.42a16.31,16.31,0,0,1,3.06-1.49,5.63,5.63,0,0,1,3.22-.24,8.36,8.36,0,0,1,5.2,5.13,8,8,0,0,1,.51,2.16c.12,1.53-.34,2.6.42,3.26.94.82,2.61,0,4-.22a2.13,2.13,0,0,1,1.57.25C205.86,96.14,204.38,100.37,204.2,100.86Z"/><g class="cls-11"><path d="M257.37,92.68a8.55,8.55,0,0,0-4.93-3.77,12.16,12.16,0,0,0-.77,2.81A3.81,3.81,0,0,1,255,94.13"/><ellipse cx="252.02" cy="90.31" rx="1.46" ry="0.69" transform="translate(95.26 307.33) rotate(-73.87)"/><ellipse cx="252.02" cy="90.31" rx="1.01" ry="0.47" transform="translate(95.26 307.33) rotate(-73.87)"/><ellipse cx="256.16" cy="93.41" rx="1.41" ry="0.71" transform="translate(-11.08 147.51) rotate(-31.48)"/><ellipse cx="256.15" cy="93.5" rx="0.97" ry="0.49" transform="translate(-11.13 147.51) rotate(-31.48)"/></g><path class="cls-12" d="M257.54,92.37a8.59,8.59,0,0,0-4.93-3.77,12.31,12.31,0,0,0-.77,2.82,3.76,3.76,0,0,1,3.28,2.41"/><ellipse class="cls-12" cx="252.19" cy="90" rx="1.46" ry="0.69" transform="matrix(0.28, -0.96, 0.96, 0.28, 95.68, 307.27)"/><ellipse class="cls-13" cx="252.19" cy="90" rx="1.01" ry="0.47" transform="translate(95.68 307.27) rotate(-73.87)"/><ellipse class="cls-12" cx="256.33" cy="93.11" rx="1.41" ry="0.71" transform="translate(-10.9 147.55) rotate(-31.48)"/><ellipse class="cls-13" cx="256.32" cy="93.2" rx="0.97" ry="0.49" transform="translate(-10.95 147.56) rotate(-31.48)"/><g class="cls-11"><path d="M258.65,90.65a12.58,12.58,0,0,0-7.37,5.61,17,17,0,0,0,3.42,2.47,5.79,5.79,0,0,1,4.77-3.79"/><ellipse cx="252.96" cy="97.54" rx="1.06" ry="2.12" transform="translate(19.7 235.71) rotate(-51.72)"/><ellipse cx="252.96" cy="97.54" rx="0.73" ry="1.46" transform="matrix(0.62, -0.79, 0.79, 0.62, 19.7, 235.71)"/><ellipse cx="259.07" cy="92.79" rx="1.02" ry="2.19" transform="translate(-12.21 46.59) rotate(-10.04)"/><ellipse cx="259.19" cy="92.85" rx="0.7" ry="1.51" transform="translate(-12.22 46.61) rotate(-10.04)"/></g><path class="cls-12" d="M258.32,90.25A12.58,12.58,0,0,0,251,95.86a16.51,16.51,0,0,0,3.42,2.47,5.78,5.78,0,0,1,4.77-3.78"/><ellipse class="cls-12" cx="252.63" cy="97.14" rx="1.06" ry="2.12" transform="translate(19.88 235.3) rotate(-51.72)"/><ellipse class="cls-13" cx="252.63" cy="97.14" rx="0.73" ry="1.46" transform="translate(19.88 235.3) rotate(-51.72)"/><ellipse class="cls-12" cx="258.74" cy="92.4" rx="1.02" ry="2.19" transform="translate(-12.15 46.53) rotate(-10.04)"/><ellipse class="cls-13" cx="258.86" cy="92.46" rx="0.7" ry="1.51" transform="translate(-12.16 46.55) rotate(-10.04)"/><g class="cls-14"><path d="M267.43,96.85a6.75,6.75,0,0,0,4.41-2.4,9.08,9.08,0,0,0-1.66-1.63,3.07,3.07,0,0,1-2.87,1.63"/><ellipse cx="271.03" cy="93.61" rx="0.57" ry="1.17" transform="translate(9.17 210.43) rotate(-43.1)"/><ellipse cx="271.03" cy="93.61" rx="0.39" ry="0.8" transform="translate(9.17 210.43) rotate(-43.1)"/><ellipse cx="267.36" cy="95.65" rx="0.56" ry="1.2" transform="translate(-3.45 10.26) rotate(-2.18)"/><ellipse cx="267.31" cy="95.61" rx="0.38" ry="0.83" transform="translate(-3.45 10.26) rotate(-2.18)"/></g><path class="cls-12" d="M267.22,96.77a6.68,6.68,0,0,0,4.41-2.4A9.56,9.56,0,0,0,270,92.74a3.1,3.1,0,0,1-2.88,1.64"/><ellipse class="cls-12" cx="270.82" cy="93.54" rx="0.57" ry="1.17" transform="translate(9.16 210.27) rotate(-43.1)"/><ellipse class="cls-13" cx="270.82" cy="93.54" rx="0.39" ry="0.8" transform="translate(9.16 210.27) rotate(-43.1)"/><ellipse class="cls-12" cx="267.16" cy="95.58" rx="0.56" ry="1.2" transform="translate(-3.45 10.25) rotate(-2.18)"/><ellipse class="cls-13" cx="267.1" cy="95.53" rx="0.38" ry="0.83" transform="translate(-3.45 10.25) rotate(-2.18)"/><g class="cls-15"><path d="M230.87,82.49s-12.91,0-19,8.08c-4.34,5.75-4.34,8-4.34,8l-1.28,0s4.66-20.45,25.08-17.2"/></g><path class="cls-8" d="M262.69,82.15a2.49,2.49,0,0,1-1,.81c-1.2.56-2.94.52-5.3,1.52a25.74,25.74,0,0,0-7.93,4.86h0a14.89,14.89,0,0,0-1.78,2.07c-3,3.89-3.86,5.6-5.41,7.76-.7,1-1.53,2-2.74,3.4-6.48,7.41-17.39,13.53-24.33,8.24-3.69-2.82-6.48-9.2-5.55-13.57,1.66-7.73,8.77-12,13.11-13.55.51-.18,1-.32,1.39-.44,8-2.14,10.88.89,18.18-1.52.76-.26,1.49-.52,2.17-.78h0c7.39-2.86,9.5-6,9.5-6,.91-.73,1.69-1.41,2.4-2,1.3-1,2.37-1.6,3.59-1.31C262.31,72.49,264.7,79.48,262.69,82.15Z"/><g class="cls-15"><path d="M248.44,89.35a14.89,14.89,0,0,0-1.78,2.07c-3,3.89-3.86,5.6-5.41,7.76l-5.13-.39a6.38,6.38,0,0,0,4.72-2.47A39.57,39.57,0,0,1,248.44,89.35Z"/></g><g class="cls-15"><path d="M203.12,103.21a18.53,18.53,0,0,1-5.17,5.6c-4.77-4.86-15.94-8.27-29-8.27A63.18,63.18,0,0,0,150.82,103a18.86,18.86,0,0,0-.66-2,18.2,18.2,0,0,0-.76-1.66c-2.44-4.68-5.32-5.65-6.53-8.13a6,6,0,0,1-.55-2,9.51,9.51,0,0,1,0-1.51c.31,1.09,3.55,7.39,37.25,10.1C193.92,99,200.76,101.07,203.12,103.21Z"/></g><rect class="cls-4" x="179.57" y="106.46" width="66.65" height="8.32" rx="2.06"/><path class="cls-4" d="M281.14,92.2c0,10.41-7.39,18.86-69.27,18.86-64.24,0-69.27-8.45-69.27-18.86,0,3.51,31,6.36,69.27,6.36S281.14,95.71,281.14,92.2Z"/><g class="cls-16"><path d="M179.52,108.6s15.16,1.25,31.56,1.25,34.8-1.73,34.8-1.73S216.27,116.76,179.52,108.6Z"/></g><g class="cls-17"><path class="cls-18" d="M143.14,93s12.5,8,106.35,4.65C249.64,97.67,156.18,104.33,143.14,93Z"/></g><path class="cls-12" d="M268.81,86a12.33,12.33,0,0,0,8.37,3.73,18.67,18.67,0,0,0,.22-4.36A5.52,5.52,0,0,1,271.85,83"/><ellipse class="cls-12" cx="277.34" cy="87.54" rx="2.19" ry="1.02" transform="translate(170.15 357.89) rotate(-85.89)"/><ellipse class="cls-13" cx="277.34" cy="87.54" rx="1.51" ry="0.7" transform="translate(170.15 357.89) rotate(-85.89)"/><ellipse class="cls-12" cx="270.33" cy="84.5" rx="2.13" ry="1.05" transform="translate(18.99 215.06) rotate(-44.81)"/><ellipse class="cls-13" cx="270.32" cy="84.36" rx="1.47" ry="0.72" transform="translate(19.08 215.01) rotate(-44.81)"/><g class="cls-11"><path d="M269.7,86.83c-.06-.06,3.78,3.47,7.36,2.87.26.14.53-.12.53-.12l.25.34S274,91.39,269.7,86.83Z"/></g><g class="cls-19"><path class="cls-18" d="M243.48,81c-.11.08-3.56,2.51-6,2.68s-7.91-.87-14.39,0a4.62,4.62,0,0,1-1.38.06c.51-.18,1-.32,1.39-.44,8-2.14,10.88.89,18.18-1.52C242.07,81.48,242.8,81.22,243.48,81Z"/></g><g class="cls-11"><path class="cls-18" d="M244.3,67.7c-.44,1.12-1.44,1.58-2.8,2.33,5.34-4.18-4.34-11.13-4.34-11.13h0a2.33,2.33,0,0,1,.79-.17C241.38,58.53,245.52,64.54,244.3,67.7Z"/></g><g class="cls-11"><path class="cls-18" d="M262.69,82.15a2.49,2.49,0,0,1-1,.81v0c.07-9.36-6.29-9.94-6.29-9.94,1.3-1,2.37-1.6,3.59-1.31C262.31,72.49,264.7,79.48,262.69,82.15Z"/></g><g class="cls-19"><path class="cls-18" d="M176.59,92.73c-3.2,2.33-7.34-.84-7.74-4.24-.52-7.86-8.58-10.5-8.58-10.5a7,7,0,0,1,6.44,1.23c1.84,1.47,1.37,2.91,3.14,6.93,1.14,2.61,2.19,5,3.65,6.17h0A3.21,3.21,0,0,0,175,93,2.47,2.47,0,0,0,176.59,92.73Z"/></g><g class="cls-19"><path class="cls-18" d="M202.67,94.72a4.84,4.84,0,0,1-2.13.58c-3.7.33-3.54.13-4.22-3,.49-5.21-7-7.68-7-7.68a5.63,5.63,0,0,1,3.22-.24,8.36,8.36,0,0,1,5.2,5.13,8,8,0,0,1,.51,2.16c.12,1.53-.34,2.6.42,3.26C199.59,95.76,201.26,94.92,202.67,94.72Z"/></g><g class="cls-19"><path class="cls-18" d="M155.28,82.71c-.1.08-2,1.58-3.19,1s-6.18-2.23-6.18-2.23c2.6-1.09,4.91,1.39,7.57,1.52h0a3.25,3.25,0,0,0,.82,0h0A4.48,4.48,0,0,0,155.28,82.71Z"/></g><g class="cls-19"><path class="cls-18" d="M205.89,64.8c-3.24-7.32-16.23-4.58-20.1-3.58a25,25,0,0,1,8.86-2.41C201.54,58.24,204.4,60.4,205.89,64.8Z"/></g><circle class="cls-20" cx="219.93" cy="92.06" r="1.17"/><circle class="cls-20" cx="234.75" cy="92.06" r="1.17"/><path class="cls-20" d="M227.46,94.77a5.34,5.34,0,0,1-3.17-1,.35.35,0,0,1,.43-.54,4.78,4.78,0,0,0,2.74.84,5.12,5.12,0,0,0,2.81-.84.34.34,0,1,1,.42.54A5.63,5.63,0,0,1,227.46,94.77Z"/><rect class="cls-21" y="0.25" width="300" height="165"/></g></g></svg>