<svg xmlns="http://www.w3.org/2000/svg" xmlns:xlink="http://www.w3.org/1999/xlink" viewBox="0 0 300 165.5"><defs><style>.cls-1{isolation:isolate;}.cls-2{fill:#fce5cd;}.cls-3{fill:#5e583b;}.cls-4{fill:#688978;}.cls-5{fill:#7f2f19;}.cls-6{fill:#e5884a;}.cls-7{fill:#f9dca0;}.cls-8{fill:#ea6f6c;}.cls-9{opacity:0.58;}.cls-10{fill:#fff;}.cls-11{opacity:0.63;}.cls-11,.cls-12{mix-blend-mode:soft-light;}.cls-12{opacity:0.85;}.cls-13{fill:#5b7237;}.cls-14{fill:#efb262;}.cls-15{fill:#db4d4d;}.cls-16{fill:#3f240f;}.cls-17{fill:url(#linear-gradient);}</style><linearGradient id="linear-gradient" x1="150.37" y1="168.62" x2="149.66" y2="2.17" gradientUnits="userSpaceOnUse"><stop offset="0.03" stop-color="#591c16"/><stop offset="0.22" stop-color="#5f241d" stop-opacity="0.96"/><stop offset="0.38" stop-color="#733c33" stop-opacity="0.84"/><stop offset="0.53" stop-color="#936459" stop-opacity="0.64"/><stop offset="0.68" stop-color="#c09d8d" stop-opacity="0.36"/><stop offset="0.82" stop-color="#fae5cf" stop-opacity="0"/></linearGradient></defs><g class="cls-1"><g id="Layer_1" data-name="Layer 1"><rect class="cls-2" y="0.25" width="300" height="165"/><path class="cls-3" d="M219.38,118.91l-23.8,13.74a4.77,4.77,0,0,1-6.5-1.74l-32.44-56.2A4.75,4.75,0,0,1,158.7,68l19.51-9.35a4.76,4.76,0,0,1,5.94,1.54L220.88,112A4.76,4.76,0,0,1,219.38,118.91Z"/><path class="cls-4" d="M248,102l-16.28,9.41a4.74,4.74,0,0,1-6.23-1.35l-35-49c-3.59-4.44-2.1-6.57,2.16-8.44l13.05-5.8a5.7,5.7,0,0,1,7,1.7l37,45.13A5.69,5.69,0,0,1,248,102Z"/><path class="cls-5" d="M277.76,84.3l-17.37,10a4.39,4.39,0,0,1-5.77-1.18L217.4,47.72a4.34,4.34,0,0,1,1-6,4.24,4.24,0,0,1,1-.56l15.47-6.83a4.35,4.35,0,0,1,5.47,1.34L279.21,78A4.36,4.36,0,0,1,277.76,84.3Z"/><path class="cls-6" d="M214.16,105.56c-1.88-3.68-9.29-1.65-11.34-1.21-1.21.25-4.27,2-10.34,5.42-3.4,1.93-3.47.83-4.35,2.58-1.29,2.55-2.68,8.32-1.06,10.28.62.75,1.47,1.13,3.29,1.28a18.89,18.89,0,0,0,8.87-1.57c6.88-2.73,12.34-5,13.52-6.64C214.64,113.07,215.64,108.45,214.16,105.56Z"/><path class="cls-7" d="M214,104.49c-1.88-3.68-8.11-2.36-10.16-1.93-1.21.26-4.27,2-10.35,5.43-3.39,1.92-4.52,2.61-5.4,4.36-1.29,2.55-1.63,6.54,0,8.49.62.75,1.47,1.13,3.29,1.29a19,19,0,0,0,8.87-1.57c6.88-2.74,10.34-4.14,11.52-5.79C213.7,112.14,215.52,107.38,214,104.49Z"/><path class="cls-6" d="M272,72.28c-1.43-2.81-7.08-1.25-8.64-.92-.93.19-3.26,1.51-7.89,4.14-2.59,1.46-2.65.63-3.32,2-1,1.94-2,6.35-.8,7.84a3.24,3.24,0,0,0,2.51,1,14.42,14.42,0,0,0,6.76-1.2C265.88,83,270.05,81.27,271,80,272.39,78,273.15,74.49,272,72.28Z"/><path class="cls-7" d="M271.93,71.47c-1.43-2.81-6.18-1.81-7.75-1.47-.92.19-3.26,1.51-7.88,4.13-2.59,1.47-3.46,2-4.13,3.33-1,1.94-1.24,5,0,6.48a3.28,3.28,0,0,0,2.51,1,14.59,14.59,0,0,0,6.77-1.2c5.24-2.09,7.88-3.15,8.78-4.41C271.67,77.3,273.06,73.67,271.93,71.47Z"/><path class="cls-6" d="M262.68,61.52c-1.44-2.81-7.09-1.26-8.65-.93-.93.2-3.26,1.51-7.89,4.14-2.59,1.47-2.64.63-3.32,2-1,2-2,6.35-.8,7.84a3.24,3.24,0,0,0,2.51,1,14.39,14.39,0,0,0,6.76-1.2c5.25-2.08,9.41-3.8,10.31-5.06C263,67.24,263.8,63.72,262.68,61.52Z"/><path class="cls-7" d="M262.59,60.7c-1.44-2.81-6.19-1.8-7.76-1.47-.92.19-3.25,1.51-7.88,4.14-2.59,1.47-3.45,2-4.13,3.32-1,2-1.23,5,0,6.48a3.28,3.28,0,0,0,2.51,1A14.47,14.47,0,0,0,252.1,73c5.24-2.08,7.88-3.15,8.78-4.41C262.33,66.53,263.71,62.9,262.59,60.7Z"/><path class="cls-6" d="M252,51.24c-1.35-2.64-6.65-1.18-8.11-.87-.87.18-3.06,1.42-7.4,3.88-2.43,1.38-2.48.59-3.11,1.84-.92,1.82-1.92,5.95-.76,7.35a3.05,3.05,0,0,0,2.36.92,13.66,13.66,0,0,0,6.34-1.12c4.92-2,8.82-3.57,9.67-4.75C252.35,56.6,253.07,53.3,252,51.24Z"/><path class="cls-7" d="M251.92,50.47c-1.34-2.63-5.8-1.69-7.27-1.38-.86.18-3.05,1.42-7.39,3.88-2.43,1.38-3.24,1.87-3.87,3.12-.92,1.82-1.16,4.68,0,6.07a3,3,0,0,0,2.35.92A13.45,13.45,0,0,0,242.09,62c4.92-2,7.39-3,8.24-4.14C251.68,55.94,253,52.54,251.92,50.47Z"/><path class="cls-6" d="M242.81,41.1c-1.3-2.54-6.4-1.14-7.81-.84-.83.18-2.93,1.37-7.11,3.74-2.34,1.32-2.39.57-3,1.76-.89,1.76-1.85,5.74-.73,7.08a2.92,2.92,0,0,0,2.26.88,13,13,0,0,0,6.11-1.08c4.73-1.88,8.48-3.43,9.3-4.57C243.14,46.26,243.83,43.09,242.81,41.1Z"/><path class="cls-7" d="M242.73,40.36c-1.3-2.53-5.59-1.63-7-1.33-.83.18-2.94,1.37-7.11,3.74-2.34,1.32-3.12,1.8-3.72,3-.89,1.76-1.12,4.51,0,5.85a2.9,2.9,0,0,0,2.26.89,13.21,13.21,0,0,0,6.11-1.08c4.72-1.89,7.11-2.85,7.92-4C242.49,45.62,243.74,42.35,242.73,40.36Z"/><path class="cls-6" d="M201.25,87.59c-1.78-3.64-8.78-1.63-10.72-1.2-1.15.26-4,2-9.77,5.37-3.21,1.9-3.28.81-4.11,2.54-1.22,2.52-2.54,8.23-1,10.16.58.74,1.39,1.12,3.11,1.27a17.13,17.13,0,0,0,8.38-1.55c6.5-2.7,11.66-4.93,12.77-6.56C201.7,95,202.64,90.45,201.25,87.59Z"/><path class="cls-7" d="M201.14,86.53c-1.78-3.64-7.67-2.33-9.61-1.9-1.15.25-4,2-9.77,5.36-3.21,1.9-4.28,2.58-5.11,4.31-1.22,2.52-1.54,6.47,0,8.4.58.74,1.39,1.12,3.11,1.27a17.37,17.37,0,0,0,8.38-1.55c6.5-2.71,9.77-4.09,10.89-5.72C200.81,94.09,202.53,89.39,201.14,86.53Z"/><path class="cls-6" d="M187.85,68.67c-1.6-3.74-7.92-1.67-9.67-1.23-1,.26-3.64,2-8.82,5.51-2.89,2-3,.84-3.7,2.62-1.1,2.59-2.29,8.46-.91,10.45.53.76,1.26,1.15,2.81,1.3a14,14,0,0,0,7.57-1.59C181,83,185.64,80.65,186.65,79,188.26,76.3,189.11,71.61,187.85,68.67Z"/><path class="cls-7" d="M187.75,67.58c-1.6-3.74-6.92-2.4-8.67-2-1,.26-3.64,2-8.81,5.52-2.9,2-3.86,2.65-4.61,4.43-1.1,2.59-1.39,6.65,0,8.63.53.76,1.25,1.15,2.8,1.31a14,14,0,0,0,7.57-1.6c5.86-2.78,8.81-4.2,9.82-5.88C187.46,75.36,189,70.52,187.75,67.58Z"/><path class="cls-8" d="M216.75,55.09v0l-.4.93-.47,1.1-6.73,15.74a2.35,2.35,0,0,1-1.48,1.3,2,2,0,0,1-.74.08,2.21,2.21,0,0,1-.66-.13l-4.8-1.73h0l-1.58-.57a2.22,2.22,0,0,1-1.3-1.19,2.28,2.28,0,0,1-.12-1.63l2.65-8.69h0l2.72-8.9.28-.92a2.28,2.28,0,0,1,3-1.48l8.36,3a2.29,2.29,0,0,1,1.47,1.71A2.27,2.27,0,0,1,216.75,55.09Z"/><g class="cls-9"><path class="cls-10" d="M216.75,55.09l-.41.95c-4-4.14-12.52-4.62-12.52-4.62l.28-.92a2.28,2.28,0,0,1,3-1.48l8.36,3A2.3,2.3,0,0,1,216.75,55.09Z"/></g><g class="cls-11"><path class="cls-10" d="M216.89,53.74c-8.54-6.17-15.7,6.42-15.79,6.58l2.72-8.9.28-.92a2.28,2.28,0,0,1,3-1.48l8.36,3A2.29,2.29,0,0,1,216.89,53.74Z"/></g><g class="cls-12"><path d="M207.66,74.18a2.24,2.24,0,0,1-1.4-.05l-6.39-2.3a2.22,2.22,0,0,1-1.3-1.19,10.46,10.46,0,0,1,4.23.29C205.53,71.63,207.58,73,207.66,74.18Z"/></g><g class="cls-12"><path d="M216.75,55.09v0l-.4.93-.47,1.1-6.73,15.74a2.35,2.35,0,0,1-1.48,1.3,2,2,0,0,1-.74.08l9.23-21.8a2.32,2.32,0,0,1,.74,1.28A2.27,2.27,0,0,1,216.75,55.09Z"/></g><path class="cls-8" d="M221.52,60.63v0l-.4.93-.47,1.1-6.73,15.74a2.27,2.27,0,0,1-1.48,1.3,2.16,2.16,0,0,1-1.4,0L206.23,78h0l-1.58-.58a2.26,2.26,0,0,1-1.3-1.18,2.31,2.31,0,0,1-.12-1.64l2.65-8.68h0l2.72-8.9.28-.91a2.29,2.29,0,0,1,3-1.49l8.36,3a2.29,2.29,0,0,1,.73.42,2.35,2.35,0,0,1,.74,1.28A2.26,2.26,0,0,1,221.52,60.63Z"/><g class="cls-9"><path class="cls-10" d="M221.52,60.63l-.41.95c-4-4.14-12.52-4.62-12.52-4.62l.28-.91a2.29,2.29,0,0,1,3-1.49l8.36,3A2.28,2.28,0,0,1,221.52,60.63Z"/></g><g class="cls-11"><path class="cls-10" d="M221.66,59.28c-8.54-6.16-15.7,6.43-15.79,6.58l2.72-8.9.28-.91a2.29,2.29,0,0,1,3-1.49l8.36,3A2.27,2.27,0,0,1,221.66,59.28Z"/></g><g class="cls-12"><path d="M212.43,79.72a2.24,2.24,0,0,1-1.4,0l-6.39-2.3a2.26,2.26,0,0,1-1.3-1.18,10.43,10.43,0,0,1,4.23.28C210.3,77.17,212.35,78.57,212.43,79.72Z"/></g><g class="cls-12"><path d="M221.52,60.63v0l-.4.93-.47,1.1-6.73,15.74a2.27,2.27,0,0,1-1.48,1.3,2.25,2.25,0,0,1-.74.09L220.92,58a2.35,2.35,0,0,1,.74,1.28A2.26,2.26,0,0,1,221.52,60.63Z"/></g><path class="cls-8" d="M225.46,66.24v0l-.39.91-.46,1.08L218,83.67A2.24,2.24,0,0,1,216.55,85a2.45,2.45,0,0,1-.72.08,2.09,2.09,0,0,1-.65-.13l-4.71-1.69h0l-1.55-.56a2.25,2.25,0,0,1-1.39-2.77l2.6-8.51h0l2.66-8.72.27-.9A2.24,2.24,0,0,1,216,60.3l8.2,3a2.19,2.19,0,0,1,.71.42,2.27,2.27,0,0,1,.59,2.57Z"/><g class="cls-9"><path class="cls-10" d="M225.46,66.24l-.4.93c-3.88-4.05-12.27-4.52-12.27-4.52l.27-.9A2.24,2.24,0,0,1,216,60.3l8.2,3A2.25,2.25,0,0,1,225.46,66.24Z"/></g><g class="cls-11"><path class="cls-10" d="M225.59,64.92c-8.37-6-15.37,6.29-15.46,6.45l2.66-8.72.27-.9A2.24,2.24,0,0,1,216,60.3l8.2,3A2.24,2.24,0,0,1,225.59,64.92Z"/></g><g class="cls-12"><path d="M216.55,85a2.3,2.3,0,0,1-1.37,0l-6.26-2.25a2.24,2.24,0,0,1-1.28-1.17,10.22,10.22,0,0,1,4.15.28C214.47,82.45,216.47,83.81,216.55,85Z"/></g><g class="cls-12"><path d="M225.46,66.24v0l-.39.91-.46,1.08L218,83.67A2.24,2.24,0,0,1,216.55,85a2.45,2.45,0,0,1-.72.08l9-21.36a2.27,2.27,0,0,1,.59,2.57Z"/></g><path class="cls-8" d="M230.48,72.06v0l-.4.93-.47,1.1-6.75,15.78a2.32,2.32,0,0,1-1.48,1.31,2.06,2.06,0,0,1-.74.08,2.27,2.27,0,0,1-.67-.13l-4.81-1.73h0l-1.59-.58A2.28,2.28,0,0,1,212.14,86l2.65-8.71h0l2.72-8.92.28-.92a2.28,2.28,0,0,1,3-1.48l8.38,3a2.14,2.14,0,0,1,.73.43,2.3,2.3,0,0,1,.6,2.63Z"/><g class="cls-9"><path class="cls-10" d="M230.48,72.06l-.41,1c-4-4.15-12.55-4.63-12.55-4.63l.28-.92a2.28,2.28,0,0,1,3-1.48l8.38,3A2.29,2.29,0,0,1,230.48,72.06Z"/></g><g class="cls-11"><path class="cls-10" d="M230.62,70.71c-8.56-6.19-15.73,6.44-15.82,6.59l2.72-8.92.28-.92a2.28,2.28,0,0,1,3-1.48l8.38,3A2.27,2.27,0,0,1,230.62,70.71Z"/></g><g class="cls-12"><path d="M221.37,91.2a2.27,2.27,0,0,1-1.41,0l-6.41-2.31a2.28,2.28,0,0,1-1.3-1.19,10.55,10.55,0,0,1,4.25.29C219.23,88.64,221.29,90,221.37,91.2Z"/></g><g class="cls-12"><path d="M230.48,72.06v0l-.4.93-.47,1.1-6.75,15.78a2.32,2.32,0,0,1-1.48,1.31,2.06,2.06,0,0,1-.74.08l9.25-21.85a2.3,2.3,0,0,1,.6,2.63Z"/></g><path class="cls-8" d="M234.93,77.27v0l-.42,1L234,79.38l-7,16.24A2.32,2.32,0,0,1,225.55,97a2.17,2.17,0,0,1-.76.09,2.4,2.4,0,0,1-.69-.13l-4.95-1.79h0l-1.64-.59a2.34,2.34,0,0,1-1.45-2.91l2.73-9h0l2.8-9.18.29-.95A2.36,2.36,0,0,1,224.93,71l8.63,3.11a2.2,2.2,0,0,1,.74.44,2.32,2.32,0,0,1,.77,1.32A2.39,2.39,0,0,1,234.93,77.27Z"/><g class="cls-9"><path class="cls-10" d="M234.93,77.27l-.43,1c-4.08-4.27-12.92-4.76-12.92-4.76l.29-.95A2.36,2.36,0,0,1,224.93,71l8.63,3.11A2.37,2.37,0,0,1,234.93,77.27Z"/></g><g class="cls-11"><path class="cls-10" d="M235.07,75.88c-8.82-6.36-16.2,6.62-16.29,6.79l2.8-9.18.29-.95A2.36,2.36,0,0,1,224.93,71l8.63,3.11A2.38,2.38,0,0,1,235.07,75.88Z"/></g><g class="cls-12"><path d="M225.55,97a2.32,2.32,0,0,1-1.45,0l-6.6-2.38a2.37,2.37,0,0,1-1.34-1.22,10.77,10.77,0,0,1,4.37.29C223.35,94.33,225.47,95.77,225.55,97Z"/></g><g class="cls-12"><path d="M234.93,77.27v0l-.42,1L234,79.38l-7,16.24A2.32,2.32,0,0,1,225.55,97a2.17,2.17,0,0,1-.76.09l9.51-22.49a2.32,2.32,0,0,1,.77,1.32A2.39,2.39,0,0,1,234.93,77.27Z"/></g><path class="cls-8" d="M240.08,81.65v0l-.41,1-.48,1.14-7,16.24a2.38,2.38,0,0,1-1.52,1.34,2.5,2.5,0,0,1-.77.09,2.36,2.36,0,0,1-.68-.14l-5-1.78h0l-1.64-.59A2.37,2.37,0,0,1,221.2,96l2.74-9h0l2.8-9.18.29-1a2.37,2.37,0,0,1,3.06-1.53l8.62,3.11a2.52,2.52,0,0,1,.75.44,2.35,2.35,0,0,1,.77,1.32A2.32,2.32,0,0,1,240.08,81.65Z"/><g class="cls-9"><path class="cls-10" d="M240.08,81.65l-.42,1c-4.08-4.27-12.92-4.76-12.92-4.76l.29-1a2.37,2.37,0,0,1,3.06-1.53l8.62,3.11A2.35,2.35,0,0,1,240.08,81.65Z"/></g><g class="cls-11"><path class="cls-10" d="M240.23,80.26c-8.82-6.36-16.2,6.63-16.29,6.79l2.8-9.18.29-1a2.37,2.37,0,0,1,3.06-1.53l8.62,3.11A2.37,2.37,0,0,1,240.23,80.26Z"/></g><g class="cls-12"><path d="M230.71,101.35a2.4,2.4,0,0,1-1.45,0l-6.6-2.37a2.39,2.39,0,0,1-1.34-1.23,10.8,10.8,0,0,1,4.37.3C228.51,98.72,230.62,100.16,230.71,101.35Z"/></g><g class="cls-12"><path d="M240.08,81.65v0l-.41,1-.48,1.14-7,16.24a2.38,2.38,0,0,1-1.52,1.34,2.5,2.5,0,0,1-.77.09l9.52-22.5a2.35,2.35,0,0,1,.77,1.32A2.32,2.32,0,0,1,240.08,81.65Z"/></g><path class="cls-8" d="M244.39,87.26v0l-.43,1-.52,1.19-7.29,17.06a2.49,2.49,0,0,1-1.6,1.4,2.41,2.41,0,0,1-.8.1,2.64,2.64,0,0,1-.72-.15l-5.2-1.87h0l-1.72-.62a2.49,2.49,0,0,1-1.41-1.29,2.55,2.55,0,0,1-.12-1.77l2.87-9.41h0l2.94-9.64.31-1a2.47,2.47,0,0,1,3.21-1.6L243,84a2.69,2.69,0,0,1,.79.46,2.59,2.59,0,0,1,.8,1.39A2.55,2.55,0,0,1,244.39,87.26Z"/><g class="cls-9"><path class="cls-10" d="M244.39,87.26l-.44,1c-4.3-4.48-13.58-5-13.58-5l.31-1a2.47,2.47,0,0,1,3.21-1.6L243,84A2.49,2.49,0,0,1,244.39,87.26Z"/></g><g class="cls-11"><path class="cls-10" d="M244.54,85.8c-9.26-6.68-17,7-17.11,7.13l2.94-9.64.31-1a2.47,2.47,0,0,1,3.21-1.6L243,84A2.5,2.5,0,0,1,244.54,85.8Z"/></g><g class="cls-12"><path d="M234.54,107.94a2.48,2.48,0,0,1-1.52,0l-6.93-2.49a2.49,2.49,0,0,1-1.41-1.29,11.21,11.21,0,0,1,4.59.32C232.23,105.18,234.45,106.69,234.54,107.94Z"/></g><g class="cls-12"><path d="M244.39,87.26v0l-.43,1-.52,1.19-7.29,17.06a2.49,2.49,0,0,1-1.6,1.4,2.41,2.41,0,0,1-.8.1l10-23.63a2.59,2.59,0,0,1,.8,1.39A2.55,2.55,0,0,1,244.39,87.26Z"/></g><path class="cls-8" d="M212,109.25c-.08.61.13,3.28-1.55,4.67a23.78,23.78,0,0,1-13.39,5.41,28,28,0,0,1-2.88.07c-1.75-.07-3.33-.45-4.29-1.69a4.37,4.37,0,0,1-.82-3.65c.35-1.25,1.19-1.4,2-2.64,1.44-2.11.26-3.49,1.15-5.62a6.14,6.14,0,0,1,2-2.41h0l.15-.11h0a10.51,10.51,0,0,1,5.86-1.87c1.5,0,1,.41,5.69,1.62a40.63,40.63,0,0,1,4.77,1.28,2.27,2.27,0,0,1,1,.89C212.42,106.24,212.25,107.47,212,109.25Z"/><g class="cls-12"><path d="M212,109.25c-.08.61.13,3.28-1.55,4.67a23.78,23.78,0,0,1-13.39,5.41,28,28,0,0,1-2.88.07h0a29.13,29.13,0,0,0,17.55-14.2C212.42,106.24,212.25,107.47,212,109.25Z"/></g><g class="cls-11"><path class="cls-10" d="M210.7,104.31c-.5-.07-1.07-.17-1.7-.31-10.83-2.42-13.95-1.14-14.62-.72a10.51,10.51,0,0,1,5.86-1.87c1.5,0,1,.41,5.69,1.62A40.63,40.63,0,0,1,210.7,104.31Z"/></g><path class="cls-8" d="M240.9,43.7c-.05.4.09,2.14-1,3a15.48,15.48,0,0,1-8.71,3.52c-.63,0-1.27.07-1.88.05a3.56,3.56,0,0,1-2.79-1.1,2.89,2.89,0,0,1-.53-2.38c.23-.81.77-.91,1.32-1.72.94-1.37.17-2.27.75-3.65a3.94,3.94,0,0,1,1.27-1.57h0l.09-.07h0a6.83,6.83,0,0,1,3.82-1.22c1,0,.67.27,3.69,1a26.65,26.65,0,0,1,3.11.84,1.47,1.47,0,0,1,.68.57C241.17,41.74,241.06,42.54,240.9,43.7Z"/><g class="cls-12"><path d="M240.9,43.7c-.05.4.09,2.14-1,3a15.48,15.48,0,0,1-8.71,3.52c-.63,0-1.27.07-1.88.05h0a19,19,0,0,0,11.43-9.25C241.17,41.74,241.06,42.54,240.9,43.7Z"/></g><g class="cls-11"><path class="cls-10" d="M240.05,40.49c-.33-.05-.69-.11-1.11-.21-7.05-1.57-9.08-.74-9.51-.46a6.83,6.83,0,0,1,3.82-1.22c1,0,.67.27,3.69,1A26.65,26.65,0,0,1,240.05,40.49Z"/></g><path class="cls-13" d="M177.41,99.73a3.41,3.41,0,0,1,.13-3.16c1.13-1.77,3.49-.76,6.38-2,3.76-1.61,2.94-4.71,7-7,3.23-1.85,7.38-1.94,8.19-.58.31.51-.09.87-.19,2.64-.14,2.37.51,3.06.32,4.19-.24,1.44-1.6,2.26-5.54,4.26-8.18,4.13-9.57,4.27-10.84,4.19C181.83,102.18,178.44,102,177.41,99.73Z"/><path class="cls-13" d="M253,81.35a2.75,2.75,0,0,1,.1-2.52c.91-1.41,2.79-.6,5.1-1.59,3-1.29,2.34-3.76,5.55-5.6,2.57-1.48,5.89-1.55,6.53-.47.25.41-.07.7-.15,2.11-.11,1.89.4,2.44.25,3.34-.19,1.15-1.27,1.81-4.42,3.4-6.52,3.29-7.63,3.4-8.64,3.34C256.56,83.31,253.86,83.14,253,81.35Z"/><path class="cls-14" d="M198.17,89.93c-.24,7.49-13.84,12.71-17.34,9.74a3.61,3.61,0,0,1-1.09-2.61c-.19-2.76,1.22-6.33,1.41-6.81a22.58,22.58,0,0,1,3.64-6c1.61-1.81,3.71-3.25,6.22-3,2.85.31,5.39,2.74,6.53,5.5h0c.09.22.17.43.24.65A7.61,7.61,0,0,1,198.17,89.93Z"/><g class="cls-12"><path d="M198.17,89.93c-.24,7.49-13.84,12.71-17.34,9.74a3.61,3.61,0,0,1-1.09-2.61c6.39,8.15,18-9.68,18-9.68A7.61,7.61,0,0,1,198.17,89.93Z"/></g><path class="cls-13" d="M234.37,59.4a2.45,2.45,0,0,1,.09-2.23c.8-1.26,2.48-.54,4.52-1.42,2.66-1.14,2.08-3.33,4.93-5,2.28-1.31,5.22-1.37,5.79-.41.22.37-.07.62-.14,1.87-.09,1.68.36,2.17.23,3-.17,1-1.13,1.6-3.92,3-5.79,2.92-6.77,3-7.67,3C237.5,61.14,235.1,61,234.37,59.4Z"/><path class="cls-14" d="M249.06,52.47c-.17,5.3-9.79,9-12.27,6.89a2.58,2.58,0,0,1-.77-1.85,12.93,12.93,0,0,1,1-4.81c.22-.56,2.79-6.85,7-6.39a6.27,6.27,0,0,1,4.79,4.35A5.45,5.45,0,0,1,249.06,52.47Z"/><g class="cls-12"><path d="M249.06,52.47c-.17,5.3-9.79,9-12.27,6.89a2.58,2.58,0,0,1-.77-1.85c4.52,5.77,12.77-6.85,12.77-6.85A5.45,5.45,0,0,1,249.06,52.47Z"/></g><path class="cls-14" d="M166,77.3c-.21-.38,13.22-10.49,14.42-10.18s6.36,5.22,5.88,5.89S173,83.89,172.28,84,166.66,78.47,166,77.3Z"/><path class="cls-15" d="M187.61,70.54c-.21.5-17.09,13.64-17.8,13.42a11.28,11.28,0,0,1-2-1.29c-1.22-.92-2.52-2.06-2.49-2.47,0-.71,18.52-14.34,18.52-14.34s1.62,1.69,2.74,3C187.21,69.68,187.69,70.35,187.61,70.54Z"/><g class="cls-12"><path d="M187.61,70.54c-.21.5-17.09,13.64-17.8,13.42a11.28,11.28,0,0,1-2-1.29c5.86-1.14,18.77-13.76,18.77-13.76C187.21,69.68,187.69,70.35,187.61,70.54Z"/></g><path class="cls-6" d="M175.7,74.76,177,63.43a.74.74,0,0,1,1-.59l.15.06a.75.75,0,0,1,.43.77l-1.42,11.26a.74.74,0,0,1-.73.65h0A.75.75,0,0,1,175.7,74.76Z"/><path class="cls-14" d="M244.1,67.67c-.14-.32,11.05-7.68,12-7.37s4.79,4.48,4.38,5-11.15,8-11.75,8.06S244.53,68.63,244.1,67.67Z"/><path class="cls-15" d="M261.61,63.38c-.19.4-14.29,10-14.85,9.78A9.64,9.64,0,0,1,245.22,72c-.93-.8-1.9-1.77-1.85-2.09.07-.57,15.46-10.47,15.46-10.47s1.2,1.43,2,2.56C261.33,62.68,261.68,63.24,261.61,63.38Z"/><g class="cls-12"><path d="M261.61,63.38c-.19.4-14.29,10-14.85,9.78A9.64,9.64,0,0,1,245.22,72c4.72-.61,15.64-10,15.64-10C261.33,62.68,261.68,63.24,261.61,63.38Z"/></g><path class="cls-6" d="M251.92,66.14l1.59-9a.58.58,0,0,1,.85-.42l.12.06a.58.58,0,0,1,.3.63l-1.7,8.89a.6.6,0,0,1-.62.48h0A.59.59,0,0,1,251.92,66.14Z"/><path class="cls-6" d="M232.7,44.2,234,32.87a.73.73,0,0,1,1-.59l.15.06a.75.75,0,0,1,.43.77l-1.42,11.27a.74.74,0,0,1-.73.64h0A.73.73,0,0,1,232.7,44.2Z"/><g class="cls-11"><path class="cls-10" d="M197.54,86.73c-4.3-5.06-12.75-2.53-12.75-2.53,1.61-1.81,3.71-3.25,6.22-3C193.86,81.54,196.4,84,197.54,86.73Z"/></g><polygon class="cls-14" points="265.71 69.71 263.96 76.44 264.83 76.9 266.87 69.71 265.71 69.71"/><polygon class="cls-14" points="257.86 75.58 263.96 73.01 264.45 74.56 258.23 77.24 257.86 75.58"/><polygon class="cls-14" points="260.5 77.94 258.79 83.2 260.5 83.2 261.69 78.25 260.5 77.94"/><polygon class="cls-14" points="254.79 76.08 254.79 81.98 255.81 82 255.49 75.5 254.79 76.08"/><polygon class="cls-14" points="261.84 77.31 270.41 76.62 270.41 78.48 261.69 78.25 261.84 77.31"/><circle class="cls-16" cx="184.89" cy="92.98" r="0.68"/><circle class="cls-16" cx="191.55" cy="88.9" r="0.68"/><path class="cls-16" d="M187.81,93a1.93,1.93,0,0,1-.34,0,.26.26,0,0,1-.22-.31.26.26,0,0,1,.31-.21,2.7,2.7,0,0,0,1.58-.33,2.89,2.89,0,0,0,1.17-1.18.27.27,0,0,1,.35-.13.26.26,0,0,1,.14.35,3.51,3.51,0,0,1-1.4,1.43A3.4,3.4,0,0,1,187.81,93Z"/><circle class="cls-16" cx="196.24" cy="112.81" r="0.62"/><circle class="cls-16" cx="202.28" cy="109.11" r="0.62"/><path class="cls-16" d="M198.89,112.94a1.21,1.21,0,0,1-.34,0,.4.4,0,0,1,.14-.78,2.33,2.33,0,0,0,1.33-.29,2.53,2.53,0,0,0,1-1,.4.4,0,1,1,.73.33,3.3,3.3,0,0,1-1.34,1.37A3.16,3.16,0,0,1,198.89,112.94Z"/><circle class="cls-16" cx="230.03" cy="93.01" r="0.67"/><circle class="cls-16" cx="237.48" cy="95.03" r="0.67"/><path class="cls-16" d="M234.47,96.12a3.33,3.33,0,0,1-1.06-.17,3.11,3.11,0,0,1-1.59-1.12.27.27,0,0,1,.44-.3,2.69,2.69,0,0,0,1.32.92,2.78,2.78,0,0,0,1.63,0,.28.28,0,0,1,.34.17.26.26,0,0,1-.16.34A3.05,3.05,0,0,1,234.47,96.12Z"/><rect class="cls-17" y="0.25" width="300" height="165"/></g></g></svg>