<svg xmlns="http://www.w3.org/2000/svg" xmlns:xlink="http://www.w3.org/1999/xlink" viewBox="0 0 300 165.5"><defs><style>.cls-1{isolation:isolate;}.cls-2{fill:#fce5cd;}.cls-3{fill:#d6b396;}.cls-4{fill:#f7c36f;}.cls-5{fill:#99c9d1;}.cls-6{fill:#bf4e34;}.cls-7{opacity:0.27;}.cls-10,.cls-12,.cls-17,.cls-19,.cls-20,.cls-21,.cls-22,.cls-7,.cls-8{mix-blend-mode:soft-light;}.cls-8{opacity:0.9;}.cls-9{fill:#c79966;}.cls-11{fill:#fff;}.cls-12{opacity:0.45;}.cls-13{fill:#7f4b28;}.cls-14{opacity:0.58;}.cls-15{fill:#00922b;}.cls-16{fill:#ffe8d9;}.cls-17{opacity:0.46;}.cls-18{fill:#009245;}.cls-19{opacity:0.74;}.cls-20{opacity:0.61;}.cls-21{opacity:0.52;}.cls-22{opacity:0.49;}.cls-23{fill:url(#linear-gradient);}</style><linearGradient id="linear-gradient" x1="150.37" y1="168.62" x2="149.66" y2="2.17" gradientUnits="userSpaceOnUse"><stop offset="0.03" stop-color="#591c16"/><stop offset="0.22" stop-color="#5f241d" stop-opacity="0.96"/><stop offset="0.38" stop-color="#733c33" stop-opacity="0.84"/><stop offset="0.53" stop-color="#936459" stop-opacity="0.64"/><stop offset="0.68" stop-color="#c09d8d" stop-opacity="0.36"/><stop offset="0.82" stop-color="#fae5cf" stop-opacity="0"/></linearGradient></defs><g class="cls-1"><g id="Layer_1" data-name="Layer 1"><rect class="cls-2" y="0.25" width="300" height="165"/><path class="cls-3" d="M273.45,81.73c.29,9-29,13.11-64.77,13.11S144.35,89,143.9,81.73c-.51-8.22,29-13.11,64.78-13.11S273.22,74.5,273.45,81.73Z"/><path class="cls-4" d="M272,87.42a7.17,7.17,0,0,0-5.18-7.5c-2.28-.83-3.38-.19-5.65-.34-4.3-.29-4.48-2.85-11-5.25-2.67-1-6.24-2.25-8.51-.61-.93.67-.77,1.18-1.91,2.18-2,1.71-4.38,1.89-6.48,2-3.33.25-6.11.45-8.11-1.29-1.85-1.62-1.93-4-4-4.36a16.91,16.91,0,0,1-2.25-.21c-1.53-.37-1.59-.94-2.66-1.09-1.29-.18-1.67.58-3.54.89a12.57,12.57,0,0,1-3-.07,12.46,12.46,0,0,0-6,1.53c-.78.41-3.83,2-4.78,4.33-1.85,4.59,4.66,11.39,8.52,14.52,2.12,1.71,9,6.8,23.45,7.84C252.14,101.54,271.55,93.08,272,87.42Z"/><ellipse class="cls-4" cx="208.68" cy="85.97" rx="62.62" ry="12.67"/><path class="cls-5" d="M144.93,85.22a7.8,7.8,0,0,1-1.39-2,6,6,0,0,1-.45-1.14,2.77,2.77,0,0,1-.09-.66,3.5,3.5,0,0,1,.07-.65,4.56,4.56,0,0,1,1.22-2.15,10.13,10.13,0,0,1,1.85-1.5,23.78,23.78,0,0,1,4.15-2.1c1.43-.58,2.89-1.08,4.36-1.52,2.94-.89,5.93-1.59,8.93-2.19s6-1.1,9.06-1.52c6.06-.84,12.15-1.4,18.25-1.78s12.22-.56,18.33-.58,12.23.15,18.34.51,12.2.91,18.27,1.74c3,.42,6.06.91,9.08,1.5s6,1.31,9,2.22c1.48.46,2.95,1,4.39,1.59.72.31,1.43.65,2.13,1a14.91,14.91,0,0,1,2.05,1.29,8.12,8.12,0,0,1,1.81,1.84,4.31,4.31,0,0,1,.6,1.28,3.72,3.72,0,0,1,.14.74c0,.13,0,.25,0,.38s0,.24,0,.35a7,7,0,0,1-.25,1.24,7.19,7.19,0,0,1-.44,1.17,5.18,5.18,0,0,1-.66,1.1,3.38,3.38,0,0,1-1,.89l-.6-.76a5.65,5.65,0,0,0,.78-1.8,12.19,12.19,0,0,0,.39-2,1.77,1.77,0,0,0,0-.22,1.21,1.21,0,0,0,0-.19,1.78,1.78,0,0,0-.07-.39,2.71,2.71,0,0,0-.37-.77,6.38,6.38,0,0,0-1.39-1.41,18.38,18.38,0,0,0-3.8-2.11c-1.36-.59-2.77-1.09-4.2-1.55a87.34,87.34,0,0,0-8.78-2.2c-3-.61-6-1.1-9-1.53A278.09,278.09,0,0,0,209.22,69q-9.14,0-18.25.42c-6.08.33-12.14.84-18.17,1.62-3,.39-6,.84-9,1.4s-5.95,1.21-8.86,2c-1.46.42-2.9.89-4.3,1.44a23.14,23.14,0,0,0-4,2,9.42,9.42,0,0,0-1.71,1.35,3.72,3.72,0,0,0-1,1.75,2,2,0,0,0-.06.49,1.53,1.53,0,0,0,.06.46,4.5,4.5,0,0,0,.37,1,7.3,7.3,0,0,0,1.22,1.78Z"/><path class="cls-6" d="M220.06,71.55c0,1.62,1,2.67,2.81,4.57a16.39,16.39,0,0,0,4.54,3.7c3.3,1.72,7.72,2.31,8.3,1.14.14-.29,0-.62-1.7-2.91l-.83-1.1c-3-4-3-3.72-3.55-4.66-1.93-3.17-1.58-4.65-3.14-5.4a4.54,4.54,0,0,0-4.22.55,4.93,4.93,0,0,0-2.13,3.19A4.14,4.14,0,0,0,220.06,71.55Z"/><g class="cls-7"><path d="M220.06,71.55c0,1.62,1,2.67,2.81,4.57a16.39,16.39,0,0,0,4.54,3.7c3.3,1.72,7.72,2.31,8.3,1.14.14-.29,0-.62-1.7-2.91-4.94,2.35-13.87-7.42-13.87-7.42A4.14,4.14,0,0,0,220.06,71.55Z"/></g><g class="cls-8"><path d="M219.43,69h0a.06.06,0,0,1,0,0c0,.3.07.6.09.89s0,.31,0,.47v.47c0,.14,0,.29,0,.42s0,.32,0,.47,0,.19,0,.28l-.06.53.36,0a24.42,24.42,0,0,1-.45,3.49c-.53,3-.25,3.44-.76,3.73a14.92,14.92,0,0,1-11.23,1.31c-8.11-2.2-11.41-.43-14.49.08-7.05,1.16-12.71,4.66-13.69,5.94-.19.24-.36.47-.52.7s-.23.32-.33.48l-.13.2c-2.29,3.5-2.06,5.5-5.11,7.76a10.86,10.86,0,0,1-2,1.18,15.54,15.54,0,0,1-3.71,1c-1.38.25-3,.44-5,.68-6,.71-8.22-.46-10.55-2.79a22.09,22.09,0,0,1-1.53-1.7l-.12-.14a8.77,8.77,0,0,1-1.72-2.76l.06-.54c.26-1.93.8-2.3,1.27-3.56a11.27,11.27,0,0,0,.56-2.49c.13-1.11.5-2.44.9-4.53h0c0-.18.07-.36.11-.55.19-1.08.4-2.37.58-3.91.27-2.3.7-3.39.39-5.54-.07-.5-.16-.89-.24-1.23a8.54,8.54,0,0,1-.48-2,2.41,2.41,0,0,1,0-.38c.1-2.44,2-4.24,2.93-5.11a13.2,13.2,0,0,1,1.37-1.1c2.69-1.9,5.43-2.26,8.49-3.32,8.23-2.85,6.89-6.68,14.74-9.17,2.15-.68,8.74-2.78,13.44.32,1.93,1.27,1.8,2.27,3.59,2.86,3.61,1.2,5.84-2.29,10.94-1.81,1.62.15,3.84.74,4.68,1.73a3.27,3.27,0,0,1-1,1.17l1.3-.47a1.34,1.34,0,0,1,0,.2c-.06,1-1.69,2.1-5.19,4.55h0l-.41.28c-5.57,3.91-7.56,5.61-8.23,6.42a2.48,2.48,0,0,0-.18.24l-.06.1a.56.56,0,0,0-.08.42l0,0a.64.64,0,0,0,.29.33,3.41,3.41,0,0,0,1.31.42h0a11.89,11.89,0,0,0,1.29.1,18,18,0,0,0,3.42-.28,11,11,0,0,0,3.88-1.34c2.81-1.79,3.71-1.72,5.11-1.27.43.15.92.33,1.52.51,2.09.61,3.16,2.76,3.84,4.13a7.53,7.53,0,0,1,.41.93c.11.28.2.56.28.83h0s0,0,0,0v0h0C219.4,68.88,219.41,69,219.43,69Z"/></g><path class="cls-9" d="M238.22,52.69c-6.59-.48-14.53,2.23-21.24,5.33l-1.37.64c-1.35.65-2.64,1.31-3.84,2l-.35.19h0c-3.07,1.65-5.56,3.17-7.1,4.15-1.06.67-1.66,1.08-1.66,1.08l-1.75-.81L199,64.36l-.77-.36h0l-.21-.1L195,62.48l2.95-2.4h0l1.12-.9,2.19-1.78.83-.68.82-.67h0L204.2,55l4.74-1.72,1.87-.67,1.3-.47C220.75,49,233.45,44.48,234,44.5a3,3,0,0,1,.94.35C236.74,45.77,240.26,48.49,238.22,52.69Z"/><g class="cls-10"><path class="cls-11" d="M234.89,44.85c-2.09.76-10.89,3.92-12.61,4.44l-10.16,3-1.52.45-1.66.49,1.87-.67,1.3-.47C220.75,49,233.45,44.48,234,44.5A3,3,0,0,1,234.89,44.85Z"/></g><g class="cls-12"><path d="M196.79,60.49s26.72-9.76,28.86-9.43.24,1.18.24,1.18L196.67,65.43l-1.7-3Z"/></g><path class="cls-13" d="M219.33,68.39c0,.21.07.42.1.63h0a.06.06,0,0,1,0,0c0,.3.07.6.09.89s0,.31,0,.47v.47c0,.14,0,.29,0,.42s0,.32,0,.47,0,.19,0,.28l-.06.53c-.07.67-.18,1.3-.28,1.87l-.06.32c0,.19-.06.36-.09.53a22.73,22.73,0,0,1-.45,3h0a.58.58,0,0,1-.22.22,14.92,14.92,0,0,1-10.27,1.53l-.23,0c-.24-.05-.49-.11-.73-.18-8.11-2.19-11.41-.43-14.49.08-7.05,1.16-12.71,4.67-13.7,6l-.3.4-.15.2-.19.28q-.18.24-.33.48l-.12.18c-.2.32-.38.63-.55.93l-.12.21h0l-.06.11,0,.09h0c-.2.37-.38.73-.54,1.07-.07.14-.13.27-.19.41l-.45,1a2,2,0,0,1-.1.21l-.08.16a2.91,2.91,0,0,1-.18.35,8.2,8.2,0,0,1-.43.76,1,1,0,0,0-.08.11l-.32.45-.09.11c-.05.08-.12.15-.18.23l-.1.11-.09.11-.11.11L174,94l-.11.11-.11.11a11.12,11.12,0,0,1-.94.78l-.24.17-.26.18-.14.09q-.39.24-.78.45l-.13.06-.17.09,0,0-.2.09-.06,0-.13,0-.25.11-.21.08-.12,0-.31.11-.51.16-.27.08-.08,0-.27.07c-.43.11-.88.2-1.37.29l-1.05.18-.36,0-.34,0h-.1l-1.3.18-.28,0-.33,0h-.06l-.28,0-1.09.13c-6,.71-8.22-.46-10.54-2.79l-.29-.3c-.1-.1-.19-.2-.29-.29l-.13-.15-.4-.45,0,0c-.06-.08-.13-.15-.19-.22s-.25-.3-.36-.45a1.84,1.84,0,0,1-.17-.22,13.91,13.91,0,0,1-1.2-1.76s0-.09-.08-.14l0-.08a1.39,1.39,0,0,1-.19-.51s0-.1,0-.16a2.7,2.7,0,0,1,0-.28,9.11,9.11,0,0,1,.16-1l0-.12,0-.12.06-.19a.32.32,0,0,1,0-.09.24.24,0,0,1,0-.08l.06-.16a8.94,8.94,0,0,1,.43-.93.91.91,0,0,0,.07-.14,6.93,6.93,0,0,0,.55-1.35c0-.14.08-.3.12-.46v0c0-.06,0-.12.05-.19s0-.22.07-.34,0-.2,0-.31l0-.19c0-.16.05-.33.07-.5.14-1.11.51-2.43.91-4.53h0c.23-1.2.47-2.65.68-4.46.27-2.28.7-3.37.41-5.5a.06.06,0,0,1,0,0,11.38,11.38,0,0,0-.47-2,4.65,4.65,0,0,1-.26-1.65c.11-2.44,2-4.24,2.94-5.1a13.26,13.26,0,0,1,1.36-1.11c2.7-1.9,5.44-2.26,8.49-3.32,8.24-2.85,6.89-6.67,14.75-9.17,2.15-.68,8.73-2.77,13.44.32,1.93,1.28,1.79,2.27,3.59,2.86,3.61,1.2,5.84-2.29,10.94-1.81,2,.18,4.76,1,5,2.39a1.18,1.18,0,0,1-.07.61,3.27,3.27,0,0,1-1,1.17l-.21.18c-.91.76-2.34,1.72-4.33,3.11-1.31.92-2.42,1.72-3.36,2.41h0c-5.18,3.79-5.28,4.43-5.19,4.77l0,0a.09.09,0,0,0,0,.07.16.16,0,0,0,0,.07l.05.06.15.12.08,0,.07,0,0,0,.11,0a1.45,1.45,0,0,0,.25.1l.09,0a5.65,5.65,0,0,0,1.24.22H200q.36,0,.75,0a15.45,15.45,0,0,0,1.64-.06q.44,0,.87-.09h0l.27,0a16.09,16.09,0,0,0,2.33-.52l.45-.15h0l.43-.17c.15-.05.28-.12.42-.18l.39-.2.36-.21.26-.16c.25-.16.48-.3.71-.42l.37-.21.11-.06.33-.17.51-.22.05,0,.27-.09a3.36,3.36,0,0,1,.47-.13l.16,0,.24,0H212l.35,0h.05l.27.07c.4.11.82.27,1.33.44l.23.07.38.12c2.08.61,3.16,2.76,3.84,4.13a10.17,10.17,0,0,1,.69,1.76h0a.07.07,0,0,1,0,0h0C219.2,67.82,219.27,68.1,219.33,68.39Z"/><g class="cls-14"><path class="cls-9" d="M178.41,86.55c-2.79,3.93-2.33,6-5.57,8.44a11,11,0,0,1-2,1.18l-3.71,1c-1.39.24-3,.44-5,.67-6,.71-8.22-.46-10.54-2.79s-3.4-4.32-3.37-4.6c.31-3.43,1.39-2.62,1.88-6.59.14-1.11.51-2.43.91-4.53h0c.23-1.2.47-2.65.68-4.46.28-2.3.71-3.38.4-5.54-.27-1.89-.78-2.31-.73-3.63.11-2.44,2-4.24,2.94-5.1a13.26,13.26,0,0,1,1.36-1.11c1.63.18,3.14.68,3.41,1.84.63,2.71-4,16.08-1.11,19.45s9.56,7.6,12.72,7.2C172.46,87.8,175.84,87.11,178.41,86.55Z"/></g><g class="cls-12"><path d="M214.57,61.57S206.89,66.5,202.65,66c-3.91-.43-4.8-2.59-4.91-2.93.49,1.33,7.22,1.13,10.2-.77C211.62,60,212,60.83,214.57,61.57Z"/></g><g class="cls-10"><ellipse class="cls-11" cx="187.74" cy="48.94" rx="1.57" ry="3.36" transform="translate(88.7 215.78) rotate(-73.92)"/></g><g class="cls-10"><ellipse class="cls-11" cx="182.26" cy="49.26" rx="1.08" ry="1.53" transform="translate(84.43 210.74) rotate(-73.92)"/></g><g class="cls-12"><path d="M219.33,68.39c0,.21.08.42.1.63h0a.06.06,0,0,1,0,0c0,.3.07.6.09.89s0,.31,0,.47v.47c0,.14,0,.29,0,.42s0,.32,0,.47,0,.19,0,.28l-.06.53c-.07.67-.18,1.3-.28,1.87l-.06.32c0,.19-.06.36-.09.53-.33,2.08-.14,2.59-.45,3h0a1.52,1.52,0,0,1-.22.22c-1.85,1.44-5.75,2.49-10.27,1.53l-.23,0c-.24-.05-.49-.11-.73-.18-8.11-2.19-11.41-.43-14.49.08-7.05,1.16-12.71,4.67-13.7,6l-.3.4-.15.2-.19.28q-.18.24-.33.48l-.12.18c-.2.32-.38.63-.55.93l-.12.21h0l-.06.11,0,.09c-.2.37-.38.73-.54,1.07-.07.14-.13.27-.19.41l-.45,1a2,2,0,0,1-.1.21l-.08.16a2.91,2.91,0,0,1-.18.35,8.2,8.2,0,0,1-.43.76,1,1,0,0,0-.08.11l-.32.45-.09.11c-.05.08-.12.15-.18.23l-.1.11-.09.11-.11.11L174,94l-.11.11-.11.11a11.12,11.12,0,0,1-.94.78l-.24.17-.26.18-.14.09q-.39.24-.78.45l-.13.06-.17.09,0,0-.2.09-.06,0-.13,0-.25.11-.21.08-.12,0-.31.11-.51.16-.27.08-.08,0-.27.07c-.43.11-.88.2-1.37.29l-1.05.18-.36,0-.34,0h-.1l-1.3.18-.28,0-.33,0h-.06l-.28,0-1.09.13c-6,.71-8.22-.46-10.54-2.79l-.29-.3c-.1-.1-.19-.2-.29-.29l-.13-.15-.4-.45,0,0c-.06-.08-.13-.15-.19-.22s-.25-.3-.36-.45a1.84,1.84,0,0,1-.17-.22,13.91,13.91,0,0,1-1.2-1.76s0-.09-.08-.14l0-.08a1.39,1.39,0,0,1-.19-.51s0-.1,0-.16a2.7,2.7,0,0,1,0-.28,9.11,9.11,0,0,1,.16-1l0-.12,0-.12.06-.19a.32.32,0,0,1,0-.09.24.24,0,0,1,0-.08l.06-.16a8.94,8.94,0,0,1,.43-.93.91.91,0,0,0,.07-.14,6.93,6.93,0,0,0,.55-1.35c0-.14.08-.3.12-.46v0c0-.06,0-.12.05-.19s0-.22.07-.34,0-.2,0-.31l0-.19c0-.16.05-.33.07-.5.14-1.11.51-2.43.91-4.53,0,0,.13.29.36.72a29.51,29.51,0,0,0,3.34,5.15c3.13,3.79,7.9,7,13,1a24.56,24.56,0,0,1,6.87-5.3c11.6-6.37,29.8-8.52,31.58-7.08,2.05,1.67,12.1-3.75,12.93-5.94a.59.59,0,0,0,.05-.36C219.2,67.82,219.27,68.1,219.33,68.39Z"/></g><path class="cls-15" d="M175.89,46.18a1.73,1.73,0,0,1-.15,1.42,1.82,1.82,0,0,0-.15,1.46c.4,1.2,1.61,1.3,2.21,2.56.73,1.54.08,3.86-1.27,4.16s-2.87-2-4.43-1.54c-1,.28-.93,1.39-1.87,1.28-.79-.09-1-.92-2.57-2s-2.13-.75-2.85-1.66a3.11,3.11,0,0,1-.65-2.81c.4-.81,1.33-.15,2.25-.87a1.85,1.85,0,0,0,.28-.28h0c.81-1,.31-2.58,1.31-2.89.73-.22,1.12.57,2.18.55,1.53,0,1.44-1.67,2.78-1.64A3.77,3.77,0,0,1,175.89,46.18Z"/><path class="cls-15" d="M168.93,61.58c-1,.32-2.93-1.15-4-.76-.67.25-.19,1-.93,1s-1.14-.57-2.71-1.18-1.9-.37-2.79-.94S157,58.32,157,57.82s.95-.2,1.37-.75c.56-.73-.7-2,0-2.28.47-.19,1.07.32,1.87.24h0a1,1,0,0,0,.41-.12h0c.54-.32.19-1.11,1.05-1.17a5,5,0,0,1,3.08,1.34,1.33,1.33,0,0,1,.43,1,1.39,1.39,0,0,0,.44,1c.75.79,1.72.78,2.64,1.6C169.46,59.66,169.85,61.29,168.93,61.58Z"/><path class="cls-15" d="M163.58,58s7.1-5.3,2.88-15.4l-1.13-.08s4.37,8.1-2.75,14.79C163.32,58.86,163.58,58,163.58,58Z"/><g class="cls-10"><path class="cls-11" d="M175.89,46.18a1.73,1.73,0,0,1-.15,1.42c-1.85-3.11-8.78.1-9.05.33.81-1,.31-2.58,1.31-2.89.73-.22,1.12.57,2.18.55,1.53,0,1.44-1.67,2.78-1.64A3.77,3.77,0,0,1,175.89,46.18Z"/></g><g class="cls-10"><path class="cls-11" d="M164.8,55.06a1.33,1.33,0,0,1,.43,1,2.42,2.42,0,0,1-.24-.19,4.76,4.76,0,0,0-4.32-1c.54-.32.19-1.11,1.05-1.17A5,5,0,0,1,164.8,55.06Z"/></g><ellipse class="cls-16" cx="171.74" cy="68.3" rx="1.49" ry="1.38" transform="translate(-10.07 35.06) rotate(-11.33)"/><ellipse class="cls-16" cx="188.09" cy="65.03" rx="1.49" ry="1.38" transform="translate(-9.11 38.21) rotate(-11.33)"/><path class="cls-16" d="M179.47,70.45a6.74,6.74,0,0,1-2.6-.49.36.36,0,0,1-.17-.48.36.36,0,0,1,.48-.18h0a6.42,6.42,0,0,0,3.66.29,6.72,6.72,0,0,0,3.35-1.7.36.36,0,0,1,.53.5A7.43,7.43,0,0,1,181,70.3,7.73,7.73,0,0,1,179.47,70.45Z"/><g class="cls-17"><path d="M226.77,80.43a1.85,1.85,0,0,0,0,.23l0,.47c0,.08,0,.15,0,.23l0,.24c0,.14,0,.28-.05.42s0,.31-.08.47a2.56,2.56,0,0,1-.05.27c0,.18-.07.35-.11.52-.15.66-.32,1.27-.48,1.83l-.09.31c0,.19-.1.35-.15.52a24.67,24.67,0,0,1-.76,2.92h0a.45.45,0,0,1-.24.18,14.9,14.9,0,0,1-10.37.44l-.22-.08c-.24-.08-.48-.16-.71-.26a25,25,0,0,0-8.77-1.94c-2.34,0-4,.38-5.65.47-7.13.41-13.14,3.29-14.25,4.46l-.35.36-.16.19-.23.25-.37.45-.05,0-.09.12-.31.39-.34.47a1.43,1.43,0,0,0-.14.2h0a.36.36,0,0,0-.07.1l-.06.08h0c-.24.35-.45.69-.65,1l-.24.38-.46.78-.08.12-.12.2-.1.15-.21.33c-.17.24-.33.48-.52.71l-.09.1q-.17.21-.36.42l-.1.1-.21.2-.11.1-.11.1-.11.1-.12.09-.12.1-.13.1a11.28,11.28,0,0,1-1,.68l-.25.14-.28.15-.15.07a8.75,8.75,0,0,1-.83.37l-.13,0-.17.07h0l-.21.07-.07,0-.14,0-.25.07-.22.06-.13,0-.32.08-.52.1-.28,0h-.08l-.27,0c-.44.06-.9.11-1.4.15l-1,.06h-.38l-.34,0h-.09l-1.32,0h-2.05c-4.26,0-6.54-.62-8.24-1.92a9.55,9.55,0,0,1-1.24-1.15c-.24-.26-.47-.53-.71-.82l-.25-.33-.22-.29,0,0-.12-.15-.35-.49,0,0-.16-.24-.32-.48,0-.07-.1-.17a15.23,15.23,0,0,1-1-1.87.58.58,0,0,1-.06-.15.36.36,0,0,1,0-.09,1.42,1.42,0,0,1-.14-.52c0-.06,0-.11,0-.16l.06-.28a7.22,7.22,0,0,1,.27-.94.36.36,0,0,1,0-.11s0-.08,0-.12l.07-.18a.3.3,0,0,0,0-.08.36.36,0,0,0,0-.09,1,1,0,0,0,.07-.15l0,0c.16-.31.33-.57.5-.84l.09-.12a7.9,7.9,0,0,0,.68-1.29l.18-.45v0a.88.88,0,0,0,.05-.15,0,0,0,0,0,0,0c0-.11.07-.22.11-.33l.09-.3c0-.06,0-.13,0-.19l.12-.49c0-.06,0-.12,0-.18.27-1,.76-2.29,1.35-4.22h0c.15-.51.32-1.08.49-1.71s.38-1.44.57-2.27l.09-.37c.51-2.22,1-3.25,1-5.34v-.13a11,11,0,0,0-.26-2,4.49,4.49,0,0,1-.08-1.66c.37-2.43,2.44-4,3.46-4.77a11.83,11.83,0,0,1,1.48-.95c2.88-1.61,5.65-1.67,8.79-2.4,8.5-2,7.57-5.9,15.64-7.54,2.22-.45,9-1.83,13.33,1.75a7.3,7.3,0,0,1,.79.74h0c.51.55.77,1,1.11,1.44a2.61,2.61,0,0,0,.27.31,4.17,4.17,0,0,0,.63.49l.06,0,.41.21c2.78,1.27,5-.57,8.37-.82a9.86,9.86,0,0,1,2.7.18L217,58l-1.37.64a10.22,10.22,0,0,1,1.91.21,10.93,10.93,0,0,1,3.41,1.28,1.4,1.4,0,0,1,.24.65,1.06,1.06,0,0,1-.14.6s0,0,0,0a3.42,3.42,0,0,1-1.07,1l-.23.16c-.58.38-1.33.81-2.27,1.33l-.51.28-.66.36-1.2.66c-1.4.78-2.59,1.45-3.6,2h0l-1.32.78-.64.39c-.54.33-1,.62-1.41.88-2.26,1.48-2.34,1.89-2.3,2.15v0s0,0,0,.07l0,.07.05.07a.8.8,0,0,0,.13.13.46.46,0,0,1,.07.07l.07,0,0,0,.1.06a1.33,1.33,0,0,0,.24.11l.09,0a1.33,1.33,0,0,0,.24.1l.46.13a3.81,3.81,0,0,0,.51.12h.07l.06,0,.74.11c.51.06,1.07.1,1.64.11q.42,0,.87,0h.29c.2,0,.4,0,.59,0a16.62,16.62,0,0,0,1.78-.23l.47-.11h0a3.45,3.45,0,0,0,.46-.12l.43-.13.41-.16.38-.17.27-.13.75-.35.4-.16.11,0,.35-.13.52-.16h.06l.28-.07.48-.07h.59l.18,0a.47.47,0,0,1,.17,0,2.25,2.25,0,0,1,.35.09l0,0a1.14,1.14,0,0,1,.26.09c.25.1.5.22.78.35l.5.23.22.1.36.15a4.24,4.24,0,0,1,.7.37h0a5,5,0,0,1,1,1l.25.33a9.54,9.54,0,0,1,1.12,2.17c.1.24.19.48.27.7a10.87,10.87,0,0,1,.5,1.83h0s0,0,0,0h0q.07.44.12.87c0,.21,0,.43,0,.64h0v.7Z"/></g><g class="cls-8"><path d="M227.84,80.69h0v0c0,.3,0,.6,0,.9a3.55,3.55,0,0,1,0,.46,1.79,1.79,0,0,1,0,.23,2.29,2.29,0,0,1,0,.25l-.06.42c0,.15,0,.31-.07.46s0,.18,0,.27-.08.35-.11.53h.35a22.72,22.72,0,0,1-.81,3.42c-.84,2.88-.62,3.4-1.15,3.63a15,15,0,0,1-11.31.11c-7.83-3-11.3-1.65-14.42-1.47-7.13.4-13.13,3.28-14.25,4.45-.21.21-.4.43-.59.63l-.38.45-.15.18c-2.64,3.23-2.63,5.25-5.9,7.17a10.37,10.37,0,0,1-2.14,1,15.33,15.33,0,0,1-3.8.65c-1.4.1-3,.12-5,.14-6.08.06-8.12-1.34-10.18-3.9a21.26,21.26,0,0,1-1.35-1.85c0-.06-.07-.11-.1-.16a8.67,8.67,0,0,1-1.41-2.92c0-.19.07-.37.11-.53.46-1.9,1.05-2.2,1.65-3.41a10.93,10.93,0,0,0,.81-2.42c.26-1.09.77-2.36,1.39-4.4h0c0-.17.11-.34.16-.53.31-1.06.65-2.31,1-3.82.52-2.26,1.07-3.3,1-5.47a11.61,11.61,0,0,0-.11-1.25,8.61,8.61,0,0,1-.26-2.06,2.46,2.46,0,0,1,0-.37c.36-2.43,2.43-4,3.46-4.77a12.17,12.17,0,0,1,1.47-1c2.89-1.61,5.65-1.67,8.8-2.4,8.49-2,7.56-5.9,15.64-7.54,2.21-.45,9-1.83,13.33,1.75,1.78,1.47,1.54,2.45,3.26,3.23,3.46,1.58,6.06-1.66,11.07-.64,1.6.33,3.74,1.15,4.46,2.23A3.38,3.38,0,0,1,221,63.44l1.34-.33a1.15,1.15,0,0,1,0,.19c-.17,1-1.9,1.92-5.64,4h0l-.44.24c-6,3.3-8.12,4.77-8.87,5.51a1.83,1.83,0,0,0-.2.21l-.07.09a.56.56,0,0,0-.13.42v0a.72.72,0,0,0,.26.36,3.39,3.39,0,0,0,1.26.55h0a10.1,10.1,0,0,0,1.28.24,17.5,17.5,0,0,0,3.43.1,11.16,11.16,0,0,0,4-.93c3-1.48,3.88-1.32,5.21-.71.42.19.88.42,1.47.66,2,.83,2.84,3.08,3.37,4.52a7.76,7.76,0,0,1,.31,1c.08.29.14.57.19.86h0a.09.09,0,0,1,0,0h0Z"/></g><path class="cls-9" d="M248.27,66.46c-8.44-1.53-19.69,2-27.52,5.2-3.23,1.31-5.88,2.56-7.51,3.37-1.13.55-1.77.9-1.77.9l-1.66-1-1.76-1.05-.72-.44-.2-.12-2.92-1.74,3.21-2.08,6.78-4.39,4.89-1.2,1.93-.47,1.34-.33c8.92-2.17,22-5.33,22.53-5.25a3.08,3.08,0,0,1,.9.45C247.53,59.42,250.74,62.5,248.27,66.46Z"/><g class="cls-10"><path class="cls-11" d="M245.79,58.31c-2.17.53-11.25,2.74-13,3.06L222.35,63.3l-1.56.29-1.7.32,1.93-.47,1.34-.33c8.92-2.17,22-5.33,22.53-5.25A3.08,3.08,0,0,1,245.79,58.31Z"/></g><g class="cls-12"><path d="M206.24,69.79s27.61-6.84,29.7-6.29.11,1.19.11,1.19l-30.46,10-1.38-3.11Z"/></g><path class="cls-13" d="M227.83,81.64c0,.15,0,.31,0,.46l0,.23a2.29,2.29,0,0,1,0,.25l-.06.42c0,.15,0,.31-.07.46s0,.18,0,.27-.08.35-.11.53c-.15.65-.32,1.26-.48,1.82,0,.11-.07.21-.1.32s-.1.35-.14.51a22.58,22.58,0,0,1-.77,2.93h0a.58.58,0,0,1-.24.19,14.93,14.93,0,0,1-10.38.43l-.22-.07-.71-.26a24.56,24.56,0,0,0-9-1.95c-2.22,0-3.87.39-5.43.48-7.13.4-13.13,3.28-14.25,4.45l-.34.37-.12.12-.05.06-.11.13a.69.69,0,0,0-.11.13c-.13.15-.26.29-.38.44l-.13.17c-.12.15-.24.29-.34.44l-.16.21-.16.21a2.43,2.43,0,0,1-.14.2h0a.61.61,0,0,1-.07.1l-.05.08h0c-.18.27-.35.52-.5.77-.06.08-.11.16-.16.24l-.06.11a.41.41,0,0,0,0,.09l0,0a.25.25,0,0,0,0,.07l0,.06h0s0,0,0,0-.09.14-.13.22h0l-.12.19c-.09.16-.19.32-.29.48l-.12.19-.09.15,0,0c-.06.1-.13.19-.19.28a5.62,5.62,0,0,1-.35.5l-.08.1a.76.76,0,0,0-.08.11l-.09.1-.18.21h0l-.19.2a.94.94,0,0,1-.1.1l-.1.1-.1.1-.11.1-.11.1-.12.1-.11.1-.13.1-.12.09-.12.09c-.19.14-.4.28-.62.42l-.28.17-.26.14-.14.08-.14.07,0,0-.1,0-.19.09-.18.08-.2.09,0,0-.21.08-.13,0-.07,0-.11,0h0l-.21.07-.07,0-.13,0-.26.07-.22.07-.12,0-.32.08-.52.1-.28.05h-.08l-.28,0c-.43.07-.9.11-1.39.15h-.26l-.53,0h-.27l-.37,0h-3.8c-5.23,0-7.48-1-9.32-2.9-.29-.31-.58-.64-.87-1l-.09-.11h0l-.17-.22-.25-.32-.11-.16-.13-.18a.18.18,0,0,1-.05-.07l0,0,0-.05-.05-.07-.07-.09s0,0,0,0h0l-.11-.15a.41.41,0,0,1-.05-.09c-.12-.16-.22-.32-.32-.48a2.39,2.39,0,0,1-.13-.21s0,0,0,0l-.17-.28c-.18-.3-.33-.58-.46-.83l-.08-.15-.16-.34L155,95.3a.36.36,0,0,0,0-.09l-.06-.15,0-.09a1.38,1.38,0,0,1-.14-.52l0-.16c0-.09,0-.19.06-.27a1.24,1.24,0,0,0,0-.16l.06-.23s0,0,0,0,.06-.22.09-.32v0l.06-.17a.06.06,0,0,0,0,0l0-.08s0,0,0,0a.36.36,0,0,1,0-.09l0-.1h0l0-.08h0l0-.09a.36.36,0,0,1,0-.09l.07-.15.08-.15.2-.34.08-.13.17-.25.08-.13a.35.35,0,0,0,.05-.08l.08-.12a2.39,2.39,0,0,1,.13-.21l.12-.23q.13-.24.27-.54a1,1,0,0,1,0-.1l0-.08s0,0,0,0h0l.05-.11h0a.56.56,0,0,1,0-.12l0-.12v0l0-.08,0-.09,0-.11a.14.14,0,0,0,0-.06v0s0-.09,0-.14l.06-.22a.19.19,0,0,0,0-.08,1.33,1.33,0,0,0,0-.19l0-.12c0-.11.07-.24.1-.37a1.74,1.74,0,0,1,0-.22c.27-1,.75-2.28,1.33-4.18h0c.15-.49.31-1,.47-1.62.22-.81.45-1.72.69-2.74.08-.37.16-.7.25-1l0-.08c.15-.56.29-1,.4-1.53.05-.19.1-.38.13-.57l0-.14c0-.15.05-.3.07-.45a9.32,9.32,0,0,0,.09-1.65h0s0,0,0,0v-.17a.92.92,0,0,1,0-.16c0-.21,0-.41-.06-.58a.88.88,0,0,0,0-.17v0h0a1.43,1.43,0,0,0,0-.22v-.1c0-.16-.06-.31-.09-.44s0-.06,0-.09a.13.13,0,0,1,0-.06h0a.29.29,0,0,1,0-.09s0,0,0-.08,0-.06,0-.08a4.6,4.6,0,0,1-.08-.93h0c0-.1,0-.2,0-.31a1,1,0,0,1,0-.16c.36-2.42,2.43-4,3.46-4.77a14,14,0,0,1,1.47-1c2.89-1.61,5.65-1.67,8.8-2.4,8.5-2,7.57-5.9,15.64-7.54,2.16-.44,8.68-1.76,13,1.52h0l.29.23a7.37,7.37,0,0,1,1.05,1l.29.39.41.56,0,0a3.46,3.46,0,0,0,1.48,1.18,4.81,4.81,0,0,0,2.39.43c2-.13,4-1.29,6.77-1.27a10.22,10.22,0,0,1,1.91.21,10.93,10.93,0,0,1,3.41,1.28,2.35,2.35,0,0,1,1.31,1.63,1.19,1.19,0,0,1-.13.6A3.54,3.54,0,0,1,221,63.44l-.23.15c-.65.43-1.53.93-2.66,1.55l-.36.2-1.62.89c-1.24.68-2.32,1.29-3.26,1.83l-.33.2h0l-.32.19c-4.55,2.65-5.27,3.46-5.34,3.85a.38.38,0,0,0,0,.15v0a.24.24,0,0,0,0,.08l0,0h0a.13.13,0,0,0,0,.05l0,0a1.37,1.37,0,0,0,.4.32,1.23,1.23,0,0,0,.23.11h0l.08,0h0l.14,0,.14.05.15,0,.16,0,.17,0,.54.12.19,0,.19,0,.37,0h0l.25,0,.41,0h.25l.68,0h.23c.32,0,.65,0,1,0s.45,0,.68,0l.25,0,.21,0h.12l.48-.06.08,0,.26,0,.38-.07.14,0,.24,0h0l.07,0,.22-.06.38-.11.13,0h0l.05,0,.2-.07.18-.07h0l.2-.09.18-.08.61-.3.14-.06.14-.06.56-.24.09,0,.09,0c.28-.11.53-.19.77-.26h0l.06,0h0a1.05,1.05,0,0,1,.24-.06h0l.26,0h.08l.25,0h.79l.1,0,.24.07h0l.57.22h0l.05,0,.19.09.23.1.33.16.05,0,.13.06.1,0,.3.13.19.08a4.12,4.12,0,0,1,.66.34,3.79,3.79,0,0,1,.45.34l.19.17h0A7.42,7.42,0,0,1,226.67,76c.2.46.36.91.51,1.29a10.87,10.87,0,0,1,.5,1.83h0v.07h0c.05.29.08.57.11.86s0,.43,0,.64h0v0C227.85,81,227.85,81.34,227.83,81.64Z"/><g class="cls-14"><path class="cls-9" d="M185.18,93.75c-3.19,3.6-3,5.75-6.44,7.79a10.72,10.72,0,0,1-2.14,1l-3.8.64c-1.4.1-3,.12-5,.14-6.08.06-8.13-1.34-10.19-3.9s-2.91-4.66-2.86-4.93c.68-3.38,1.66-2.46,2.58-6.36.25-1.08.76-2.36,1.38-4.4h0c.36-1.17.75-2.59,1.16-4.36.51-2.26,1.06-3.29,1-5.47-.06-1.91-.53-2.38-.33-3.68.36-2.42,2.43-4,3.46-4.77a14,14,0,0,1,1.47-1c1.61.36,3.05,1,3.19,2.19.34,2.76-5.73,15.55-3.17,19.22s8.69,8.57,11.87,8.52C179.13,94.35,182.57,94,185.18,93.75Z"/></g><g class="cls-12"><path d="M223.8,72.77s-8.16,4.08-12.33,3.16c-3.84-.85-4.5-3.09-4.57-3.44.35,1.38,7.06,1.9,10.22.33C221,70.87,221.35,71.76,223.8,72.77Z"/></g><g class="cls-10"><ellipse class="cls-11" cx="198.47" cy="57.35" rx="1.57" ry="3.36" transform="translate(70.35 219.41) rotate(-67.79)"/></g><g class="cls-10"><ellipse class="cls-11" cx="192.99" cy="57.08" rx="1.08" ry="1.53" transform="translate(67.19 214.17) rotate(-67.79)"/></g><g class="cls-12"><path d="M227.8,80.05c0,.22,0,.43,0,.64h0v0c0,.3,0,.6,0,.9a3.55,3.55,0,0,1,0,.46,1.79,1.79,0,0,1,0,.23,2.29,2.29,0,0,1,0,.25l-.06.42c0,.15,0,.31-.07.46s0,.18,0,.27-.08.35-.11.53c-.15.65-.32,1.26-.48,1.82,0,.11-.07.21-.1.32s-.1.35-.14.51c-.55,2-.42,2.56-.77,2.93h0a1.83,1.83,0,0,1-.24.19c-2,1.23-6,1.87-10.38.43l-.22-.07-.71-.26c-7.83-3-11.29-1.65-14.42-1.47-7.13.4-13.13,3.28-14.25,4.45l-.34.37-.17.18-.22.26c-.13.15-.26.29-.38.44l-.13.17c-.24.3-.46.58-.66.86a2.43,2.43,0,0,1-.14.2h0a.61.61,0,0,1-.07.1l-.05.08q-.36.53-.66,1c-.08.12-.16.25-.23.38l-.55.9a2,2,0,0,1-.12.19l-.09.15c-.07.11-.14.22-.22.33s-.33.48-.51.71l-.09.1c-.12.15-.24.28-.37.42a.94.94,0,0,1-.1.1,1.89,1.89,0,0,1-.2.2l-.11.1-.11.1-.12.1-.11.1-.13.1-.12.09a9.5,9.5,0,0,1-1,.68l-.26.14a1.91,1.91,0,0,1-.28.15l-.14.08c-.28.13-.55.26-.83.36l-.13,0-.18.07h0l-.21.07-.07,0-.13,0-.26.07a.79.79,0,0,1-.22.06.53.53,0,0,1-.12,0l-.32.08-.52.1-.28.05h-.08l-.28,0c-.43.07-.9.11-1.39.15-.34,0-.69.05-1.06.06l-.37,0h-.44c-.42,0-.85,0-1.31,0h-2c-6.08.06-8.13-1.34-10.19-3.9l-.26-.33-.25-.32-.11-.16c-.13-.17-.25-.33-.36-.49s0,0,0,0l-.16-.24c-.12-.16-.22-.32-.32-.48l-.15-.23a14.54,14.54,0,0,1-1-1.88l-.06-.15,0-.09a1.38,1.38,0,0,1-.14-.52l0-.16c0-.09,0-.19.06-.27.09-.37.18-.68.27-.94,0,0,0-.08,0-.12a1.17,1.17,0,0,1,0-.11,1.71,1.71,0,0,1,.07-.18l0-.09a.36.36,0,0,1,0-.09l.07-.15a10,10,0,0,1,.53-.87l.08-.13a7.16,7.16,0,0,0,.69-1.29c.06-.13.11-.28.17-.45a0,0,0,0,0,0,0l.06-.17c0-.11.07-.22.11-.34s.05-.2.08-.3a1.33,1.33,0,0,0,0-.19c0-.15.09-.32.13-.49.25-1.08.76-2.36,1.38-4.4,0,0,.1.3.28.75a29.16,29.16,0,0,0,2.78,5.48c2.7,4.1,7.11,7.79,12.82,2.35A24.36,24.36,0,0,1,182,87.74c12.22-5.1,30.55-5.3,32.16-3.67,1.85,1.87,12.43-2.44,13.49-4.53a.63.63,0,0,0,.09-.35A8.43,8.43,0,0,1,227.8,80.05Z"/></g><ellipse class="cls-16" cx="180.5" cy="74.89" rx="1.49" ry="1.38" transform="translate(-6.04 16.67) rotate(-5.2)"/><ellipse class="cls-16" cx="197.1" cy="73.38" rx="1.49" ry="1.38" transform="translate(-5.84 18.16) rotate(-5.2)"/><path class="cls-16" d="M188.77,77.89a6.84,6.84,0,0,1-3.35-.81.37.37,0,0,1-.12-.5.37.37,0,0,1,.5-.12,6.39,6.39,0,0,0,3.61.68,6.86,6.86,0,0,0,3.51-1.33.36.36,0,0,1,.47.55,7.39,7.39,0,0,1-3.91,1.5Z"/><path class="cls-6" d="M264.21,85.49c-.89,2.37-2.89,3.42-6.49,5.31A25.45,25.45,0,0,1,249.11,94c-5.76.86-12.61-.53-12.86-2.56-.07-.5.29-.92,4-3.43l1.79-1.2c6.55-4.37,6.32-4,7.64-5.08,4.48-3.71,4.72-6.08,7.41-6.38,2.43-.28,4.72,1.36,5.95,3a7.67,7.67,0,0,1,1.53,5.81A7.46,7.46,0,0,1,264.21,85.49Z"/><g class="cls-7"><path d="M264.21,85.49c-.89,2.37-2.89,3.42-6.49,5.31A25.45,25.45,0,0,1,249.11,94c-5.76.86-12.61-.53-12.86-2.56-.07-.5.29-.92,4-3.43,6.12,6,24.32-3.89,24.32-3.89A7.46,7.46,0,0,1,264.21,85.49Z"/></g><path class="cls-18" d="M223.36,97.67,222.29,97a5.62,5.62,0,0,1-1.88-1.91,4.77,4.77,0,0,1-.66-2.27l.14-3.71h0l0-.6a.13.13,0,0,1,.22-.07l3,2.4a5,5,0,0,1,1.62,4.72l-.09.34-.51,1.56A.55.55,0,0,1,223.36,97.67Z"/><g class="cls-19"><path class="cls-11" d="M224.79,95.55a6,6,0,0,1-.22-.83c-.59-3.12-4.66-6.22-4.66-6.22a.13.13,0,0,1,.22-.07l3,2.4A5,5,0,0,1,224.79,95.55Z"/></g><g class="cls-20"><path d="M221.6,95c.4.3-.32.25-1,.15h-.16a4.77,4.77,0,0,1-.66-2.27l.14-3.7a21.26,21.26,0,0,0,.46,3.81,1.14,1.14,0,0,0,.66.76,9.34,9.34,0,0,0,2.19.59C224.38,94.46,222.8,94.77,221.6,95Z"/></g><rect class="cls-5" x="189.13" y="117.23" width="41.13" height="5.77" rx="2.17"/><path class="cls-5" d="M274.09,81.5c0,21.71-29.26,39.32-65.35,39.32s-65.35-17.61-65.35-39.32c0,7.32,29.26,13.26,65.35,13.26S274.09,88.82,274.09,81.5Z"/><g class="cls-21"><path d="M189.1,118.9s9.36,1,19.48,1a211.4,211.4,0,0,0,21.47-1.36S211.78,125.27,189.1,118.9Z"/></g><circle class="cls-16" cx="195.59" cy="105.07" r="1.79"/><circle class="cls-16" cx="221.82" cy="105.07" r="1.79"/><path class="cls-16" d="M208.85,109.2a8.15,8.15,0,0,1-4.85-1.51.54.54,0,1,1,.68-.85h0a7.2,7.2,0,0,0,4.17,1.27,7.78,7.78,0,0,0,4.27-1.27.53.53,0,0,1,.76.1.54.54,0,0,1-.1.76A8.65,8.65,0,0,1,208.85,109.2Z"/><g class="cls-22"><path class="cls-11" d="M143.9,83.19S155.69,100,244.24,92.91C244.38,92.9,156.2,106.79,143.9,83.19Z"/></g><g class="cls-20"><path d="M259.49,78.56a5.6,5.6,0,0,0,.89,1.79c.63.79,2.22,1.73,2.84,1.56S259.49,78.56,259.49,78.56Z"/></g><path class="cls-18" d="M270.66,79l-1.6,1h0l-1.82,1.12a5.49,5.49,0,0,1-4.07.28,5.39,5.39,0,0,1-1.79-1l-1.52-1.23a.62.62,0,0,1,0-1l.41-.33h0l.61-.5a5.21,5.21,0,0,1,2.79-1.12h0a5.1,5.1,0,0,1,2.4.35l4.58,2.13A.15.15,0,0,1,270.66,79Z"/><g class="cls-19"><path class="cls-11" d="M270.66,79l-1.6,1c1.55-.95-5.25-3.66-5.39-3.72a5.1,5.1,0,0,1,2.4.35l4.58,2.13A.15.15,0,0,1,270.66,79Z"/></g><g class="cls-7"><path d="M263.16,81.36a5.39,5.39,0,0,1-1.79-1l-1.52-1.23a.62.62,0,0,1,0-1l.41-.33h0S259.73,79.42,263.16,81.36Z"/></g><g class="cls-10"><ellipse class="cls-11" cx="257.62" cy="76.74" rx="1.58" ry="1"/></g><g class="cls-12"><ellipse cx="247.35" cy="62.99" rx="1" ry="2.15" transform="translate(-6.34 91.09) rotate(-20.61)"/></g><g class="cls-12"><ellipse cx="236.82" cy="49.2" rx="1" ry="2.15" transform="translate(-2.16 86.51) rotate(-20.61)"/></g><g class="cls-10"><ellipse class="cls-11" cx="254.03" cy="79.66" rx="0.88" ry="0.53" transform="translate(-5.8 137.69) rotate(-30)"/></g><rect class="cls-23" y="0.25" width="300" height="165"/></g></g></svg>