<svg xmlns="http://www.w3.org/2000/svg" xmlns:xlink="http://www.w3.org/1999/xlink" viewBox="0 0 300 165.5"><defs><style>.cls-1{isolation:isolate;}.cls-2{fill:#fce5cd;}.cls-3{fill:#8e3a1a;}.cls-4{fill:#dba47f;}.cls-5{opacity:0.45;}.cls-10,.cls-14,.cls-5,.cls-8{mix-blend-mode:soft-light;}.cls-6{fill:#af5228;}.cls-7{opacity:0.16;}.cls-8{opacity:0.27;}.cls-9{fill:#f9bebd;}.cls-10{opacity:0.69;}.cls-11{fill:#fff;}.cls-12{fill:#ffe8d9;}.cls-13{fill:#00922b;}.cls-15{fill:url(#linear-gradient);}</style><linearGradient id="linear-gradient" x1="150.37" y1="168.62" x2="149.66" y2="2.17" gradientUnits="userSpaceOnUse"><stop offset="0.03" stop-color="#591c16"/><stop offset="0.22" stop-color="#5f241d" stop-opacity="0.96"/><stop offset="0.38" stop-color="#733c33" stop-opacity="0.84"/><stop offset="0.53" stop-color="#936459" stop-opacity="0.64"/><stop offset="0.68" stop-color="#c09d8d" stop-opacity="0.36"/><stop offset="0.82" stop-color="#fae5cf" stop-opacity="0"/></linearGradient></defs><g class="cls-1"><g id="Layer_1" data-name="Layer 1"><rect class="cls-2" y="0.25" width="300" height="165"/><path class="cls-3" d="M192.64,131.66c-11.54,1.46-25.45-15.74-26.57-17.07-10.88-12.91-4.56-33.95-3.31-38.87,4.38-17.39,20.94-24.9,44.24-31.33,5-1.39,32.93-8.48,52.75,5.22,1.77,1.23,14.61,6,14.55,30.67-.05,17.47-17.94,31.25-33.33,34.42-11.24,2.32-15.57-2.29-26.05,1.8C202.42,121.38,202.14,130.46,192.64,131.66Z"/><path class="cls-4" d="M272.35,72.67c-.05.88-.14,1.74-.27,2.59-.08.57-.18,1.13-.3,1.69A29.54,29.54,0,0,1,271,80c-.2.62-.42,1.24-.66,1.84a34.42,34.42,0,0,1-3.62,6.8l-.25.37q-1,1.48-2.22,2.88c-.43.52-.88,1-1.34,1.52A47.23,47.23,0,0,1,250.34,103l-.91.47c-1,.5-2,.95-3,1.37l-.94.38A41.3,41.3,0,0,1,239,107.1a33.24,33.24,0,0,1-9.48.59l-1.32-.11c-1.13-.1-2.22-.22-3.31-.31q-.66-.06-1.32-.09A23.73,23.73,0,0,0,213,108.9a29.17,29.17,0,0,0-3.71,1.74l-1,.6a25.75,25.75,0,0,0-2.54,1.78c-.32.25-.63.51-.93.77-4.82,4.16-7,8.66-12.62,10-.37.09-.76.17-1.16.23l-.32,0a16.31,16.31,0,0,1-2.87.1c-.44,0-.87-.07-1.31-.13a22,22,0,0,1-7-2.26c-.54-.27-1.06-.56-1.57-.86-.88-.51-1.72-1.06-2.51-1.61-.45-.33-.89-.65-1.32-1a44.52,44.52,0,0,1-6.5-6.16c-.52-.62-1-1.25-1.46-1.88-.34-.46-.65-.93-.95-1.4s-.71-1.15-1-1.72-.52-1-.76-1.49a32.45,32.45,0,0,1-3-11.67c0-.36,0-.71-.07-1.06-.06-1.25-.06-2.46,0-3.62,0-.38,0-.76.06-1.13a54,54,0,0,1,1.67-9.9,48.86,48.86,0,0,1,2.37-7c.11-.27.23-.54.35-.81s.27-.61.42-.92c.62-1.35,1.32-2.69,2.07-4,.24-.42.49-.84.74-1.26.11-.18.23-.36.34-.55A60,60,0,0,1,179.21,50.8l.92-.81c.79-.68,1.61-1.35,2.45-2l.95-.72a63.82,63.82,0,0,1,12.74-7.38l1.09-.47c.9-.37,1.82-.73,2.75-1.06l1.12-.4c1.25-.42,2.52-.81,3.82-1.17,1.1-.31,3.18-.88,6-1.45,1.68-.34,3.61-.68,5.73-1l1-.13q1.65-.19,3.42-.33l1.07-.07a65.53,65.53,0,0,1,12.82.5c.76.11,1.52.24,2.29.38.6.11,1.2.23,1.8.37,1.53.34,3.06.75,4.6,1.25l1.45.5.48.18a43.55,43.55,0,0,1,9.67,5,38.32,38.32,0,0,1,3.54,2.79l.82.74c.8.73,1.66,1.57,2.54,2.51l.72.78a40.49,40.49,0,0,1,6,8.67c.23.45.46.92.67,1.39s.44,1,.65,1.54.46,1.24.67,1.88.32,1.07.46,1.61A28.26,28.26,0,0,1,272.35,72.67Z"/><g class="cls-5"><path d="M266.11,78.44a28,28,0,0,1-1.62,3,1.9,1.9,0,0,1-1.44.21,5,5,0,0,1-.75-.21c-1-.38-2.29-1.08-4.07-1.69a21.18,21.18,0,0,0-5.76-1.12c-5.78-.34-9.31,1.5-12.93,3a30.47,30.47,0,0,1-3.08,1.14,16.8,16.8,0,0,1-6.21.67,16.46,16.46,0,0,1-3.67-.69,18.2,18.2,0,0,1-2.62-1,58.74,58.74,0,0,1-8.65-5.65c-.47-.34-.91-.67-1.32-1a35.71,35.71,0,0,1-6-5.87c-2.64-3.25-3.9-5.75-8.76-8.29a29.56,29.56,0,0,0-6.77-2.52c-1.78-.44-3.41-.7-4.8-.93-.92-.15-1.74-.29-2.43-.47-1.31-.33-2.15-.77-2.37-1.64s.72-2.63,1.36-3.42c2.06-2.51,6.24-4.55,9.68-6.24,1.14-.55,3.06-.67,4.48-1.3.85-.38,1.76-.77,2.71-1.15a54.76,54.76,0,0,1,17.76-3.84h0c.86,0,2.06-.1,3.51-.11a57.88,57.88,0,0,1,5.95.28,50,50,0,0,1,5.15.78,42.22,42.22,0,0,1,8.75,2.81l1.46.7a39.13,39.13,0,0,1,4.46,2.65,40,40,0,0,1,4.1,3.23c.9.81,1.75,1.64,2.55,2.5A45.34,45.34,0,0,1,263,64.56c.28.62.54,1.23.78,1.84C266.32,72.78,267.61,76.19,266.11,78.44Z"/></g><g class="cls-5"><path d="M222.7,99.39c-.24,3.44-8.9,3.3-17.9,8.74a31,31,0,0,0-6.05,4.67c-4.27,4.32-4.58,7.61-9.36,8a9.84,9.84,0,0,1-1.33,0,14.24,14.24,0,0,1-3.51-.63c-.48-.15-1-.31-1.41-.5a21.93,21.93,0,0,1-2.92-1.43,26.15,26.15,0,0,1-7.1-6,33,33,0,0,1-3-4.54c-.32-.59-.62-1.19-.89-1.78a34.87,34.87,0,0,1-3.13-14.55c0-1.32.06-2.56.16-3.7a42.8,42.8,0,0,1,1-6.38c.17-.7.35-1.44.54-2.2.37-1.52.8-3.12,1.33-4.71a26.79,26.79,0,0,1,3.44-7.14,12.59,12.59,0,0,1,6.53-4.92,15.91,15.91,0,0,1,7.46-.27c5.95,1,12.34,4.7,16.94,9.24a28.21,28.21,0,0,1,2.34,2.59,23.59,23.59,0,0,1,1.56,2.17c2.44,3.81,3.09,7.41,4.75,11,.27.59.57,1.18.91,1.77A20.79,20.79,0,0,0,218,94.47l.14.12C220.71,96.73,222.81,97.68,222.7,99.39Z"/></g><path class="cls-6" d="M223.73,97.9c-.23,3.44-8.89,3.3-17.89,8.74a31,31,0,0,0-6.05,4.67c-4.27,4.32-4.58,7.61-9.36,8a12,12,0,0,1-1.34,0,13.81,13.81,0,0,1-3.5-.64c-.48-.14-1-.31-1.41-.49a24.11,24.11,0,0,1-2.93-1.44,26.06,26.06,0,0,1-7.09-6,32.37,32.37,0,0,1-2.95-4.53c-.32-.6-.62-1.19-.89-1.79a34.84,34.84,0,0,1-3.13-14.55c0-1.31.06-2.55.16-3.69a42.8,42.8,0,0,1,1-6.38c.17-.71.35-1.45.54-2.2.37-1.52.8-3.12,1.33-4.71a26.64,26.64,0,0,1,3.44-7.14,12.54,12.54,0,0,1,6.53-4.92,15.78,15.78,0,0,1,7.46-.28c5.95,1.06,12.34,4.71,16.94,9.24A33,33,0,0,1,207,72.42a25,25,0,0,1,1.56,2.17c2.44,3.82,3.09,7.41,4.74,11,.28.59.58,1.18.92,1.77A20.94,20.94,0,0,0,219,93l.13.11C221.75,95.24,223.85,96.18,223.73,97.9Z"/><path class="cls-6" d="M265.83,79.56a2.46,2.46,0,0,1-.76.75,1.9,1.9,0,0,1-1.44.22,5,5,0,0,1-.74-.22c-1-.37-2.3-1.07-4.07-1.69a21.18,21.18,0,0,0-5.77-1.12c-5.78-.33-9.31,1.51-12.92,3A29.14,29.14,0,0,1,237,81.66a16.34,16.34,0,0,1-6.2.67,17.14,17.14,0,0,1-3.68-.68,18.61,18.61,0,0,1-2.61-1A58.06,58.06,0,0,1,215.9,75c-.47-.34-.91-.68-1.33-1a36,36,0,0,1-6-5.87c-2.64-3.26-3.91-5.75-8.76-8.3A30.71,30.71,0,0,0,193,57.29c-1.79-.44-3.42-.7-4.81-.93-.92-.15-1.73-.29-2.42-.46-1.31-.33-2.16-.78-2.38-1.65a2.71,2.71,0,0,1,.78-2.29c2.06-2.51,7.48-5.17,10.92-6.86,1.13-.56,2.41-1.18,3.82-1.81.86-.38,1.76-.76,2.72-1.14a54.44,54.44,0,0,1,17.75-3.84h0c.86,0,2.06-.09,3.51-.1a55.35,55.35,0,0,1,6,.28,49.46,49.46,0,0,1,5.14.78,41.44,41.44,0,0,1,8.75,2.81c.5.22,1,.46,1.47.7a39.32,39.32,0,0,1,8.55,5.88c.9.8,1.75,1.64,2.56,2.5a45.65,45.65,0,0,1,8.22,12.31c.28.62.53,1.23.77,1.83C266.91,71.68,267.33,77.31,265.83,79.56Z"/><g class="cls-5"><path d="M253.05,96.13c-2.4,1.5-4.34,2.67-5.92,3.59-1.13.66-2.08,1.19-2.89,1.61-3,1.56-4,1.71-5.22,1.65-2.93-.12-5.09-1.4-7.9-3.49l-2-1.56-.21-.17c-4.63-3.62-9.76-9.28-8.74-11.07a1,1,0,0,1,.12-.16,1.14,1.14,0,0,1,.95-.31c2.65.1,9.1,4.62,16.65,2.84q.68-.16,1.26-.36a12.75,12.75,0,0,0,3-1.44c2.47-1.59,3.93-3.48,7.74-3.76a15.58,15.58,0,0,1,7.83,1.61,10.67,10.67,0,0,1,2.45,1.64,3.92,3.92,0,0,1,1.47,2.59C261.61,90.5,260.73,91.36,253.05,96.13Z"/></g><path class="cls-6" d="M253.05,94.18c-2.4,1.5-4.34,2.67-5.92,3.59-1.13.66-2.08,1.19-2.89,1.62-3,1.55-4,1.7-5.22,1.65-2.93-.13-5.09-1.41-7.9-3.5l-2-1.56-.21-.17c-4.63-3.62-9.76-9.28-8.74-11.07a1,1,0,0,1,.12-.16,1.14,1.14,0,0,1,.95-.31c2.65.11,9.1,4.62,16.65,2.84q.68-.17,1.26-.36a12.75,12.75,0,0,0,3-1.44c2.47-1.59,3.93-3.48,7.74-3.76a15.58,15.58,0,0,1,7.83,1.61,10.67,10.67,0,0,1,2.45,1.64,3.92,3.92,0,0,1,1.47,2.59C261.61,88.55,260.73,89.41,253.05,94.18Z"/><g class="cls-7"><path d="M263.63,80.53a1.9,1.9,0,0,0,1.44-.22,2.46,2.46,0,0,0,.76-.75ZM184.19,52a2.71,2.71,0,0,0-.78,2.29c.22.87,1.07,1.32,2.38,1.65Zm35,41.13L221.56,99l-15.49,6.82-5.14-12.66,13.26-5.83c-.34-.59-.64-1.18-.92-1.77l-13.09,5.76-5.49-13.52L207,72.42a33,33,0,0,0-2.34-2.59l-11.19,4.92-5.75-14.16a15.78,15.78,0,0,0-7.46.28,12.54,12.54,0,0,0-6.53,4.92L184.6,61l6.08,15L174.4,83.12l-4.14-10.19c-.53,1.59-1,3.19-1.33,4.71l2.71,6.69-4.29,1.89c-.1,1.14-.16,2.38-.16,3.69l5.7-2.5,5.49,13.51-8.06,3.54c.27.6.57,1.19.89,1.79l7.92-3.49,5.14,12.66-3,1.32a24.11,24.11,0,0,0,2.93,1.44l1-.46.39,1a13.81,13.81,0,0,0,3.5.64l-1.13-2.8,11.83-5.2a31,31,0,0,1,6.05-4.67c9-5.44,17.66-5.3,17.89-8.74C223.85,96.18,221.75,95.24,219.15,93.09Zm-43.5-6.89L191.93,79l5.48,13.51-16.27,7.16Zm11.37,28-5.13-12.66,16.27-7.15,5.14,12.65Zm77.34-48.92c-.24-.6-.49-1.21-.77-1.83l-6.4,2.81L251.7,52.76l3.67-1.61c-.81-.86-1.66-1.7-2.56-2.5l-2.36,1-1.73-4.26a38.55,38.55,0,0,0-4.46-2.65L247.58,51l-16.51,7.26-6.08-15,9-4a49.46,49.46,0,0,0-5.14-.78l-5,2.18-1-2.46c-1.45,0-2.65.06-3.51.1l1.5,3.68L204.51,49.2l-2.86-7.05c-1,.38-1.86.76-2.72,1.14l2.88,7.09-13.6,6c1.39.23,3,.49,4.81.93L202.86,53l6.08,15-.39.18a36,36,0,0,0,6,5.87l-1.68-4.15,16.41-7.22,5.49,13.51-10.24,4.5a18.61,18.61,0,0,0,2.61,1L235.54,78l1.5,3.7a29.14,29.14,0,0,0,3.09-1.13l-1.58-3.89,16.51-7.26,3.76,9.24c1.77.62,3.05,1.32,4.07,1.69l-4.95-12.19Zm-52.72,1.46-6.08-15L222,44.56l6.07,15Zm26.16,8-5.49-13.52L248.83,54l5.48,13.52Zm19.84,8.36L243.69,89.3l-1.62-4a12.75,12.75,0,0,1-3,1.44l1.57,3.87-11.81,5.19.21.17,2,1.56,10.49-4.62,2.63,6.47c.81-.43,1.76-1,2.89-1.62l-2.51-6.17,15.47-6.8A10.67,10.67,0,0,0,257.64,83.16Zm-37.39,1.42a1,1,0,0,0-.12.16l1.07-.47A1.14,1.14,0,0,0,220.25,84.58Z"/></g><g class="cls-8"><path d="M241.32,60.24a3.31,3.31,0,0,1-.38.75c-2.54,3.79-12.94,4.52-18.87-1-.77-.72-2.73-3.31-2.71-5a3.4,3.4,0,0,1,.79-2c1.19-1.53,3.62-2.77,6.41-3.4h0a17.71,17.71,0,0,1,6.69-.26,10,10,0,0,1,8.31,8.54h0A5.45,5.45,0,0,1,241.32,60.24Z"/></g><path class="cls-9" d="M242,59.3a3.31,3.31,0,0,1-.38.75c-2.54,3.8-12.94,4.52-18.87-1-.77-.71-2.73-3.3-2.71-5a3.37,3.37,0,0,1,.79-2c1.19-1.53,3.62-2.77,6.41-3.4h0a17.71,17.71,0,0,1,6.69-.26,10,10,0,0,1,8.31,8.53h0A5.45,5.45,0,0,1,242,59.3Z"/><g class="cls-8"><path d="M241.57,60.05c-2.54,3.8-12.94,4.52-18.87-1-.77-.71-2.73-3.3-2.71-5a3.37,3.37,0,0,1,.79-2c4.28,7.08,12.29,11,20,8.22C241.07,60.19,241.33,60.11,241.57,60.05Z"/></g><g class="cls-10"><path class="cls-11" d="M242.19,56.94a19.79,19.79,0,0,0-15-8.27,17.71,17.71,0,0,1,6.69-.26A10,10,0,0,1,242.19,56.94Z"/></g><g class="cls-10"><path class="cls-11" d="M269,57.56h0c-21.83-27.32-57.62-22.25-58-22.22h0c1.68-.34,3.61-.68,5.73-1l1-.13q1.65-.19,3.42-.33l1.07-.07a65.53,65.53,0,0,1,12.82.5c.76.11,1.52.24,2.29.38.6.11,1.2.23,1.8.37,1.53.34,3.06.75,4.6,1.25l1.45.5.48.18a43.55,43.55,0,0,1,9.67,5,38.32,38.32,0,0,1,3.54,2.79l.82.74c.8.73,1.66,1.57,2.54,2.51l.72.78A40.49,40.49,0,0,1,269,57.56Z"/></g><circle class="cls-12" cx="174.38" cy="91.34" r="1.89"/><circle class="cls-12" cx="202.05" cy="91.34" r="1.89"/><path class="cls-12" d="M188.37,95.61A8.6,8.6,0,0,1,183.31,94a.48.48,0,0,1,.6-.75,7.68,7.68,0,0,0,4.46,1.36,8.26,8.26,0,0,0,4.56-1.36.48.48,0,0,1,.58.76A9.06,9.06,0,0,1,188.37,95.61Z"/><g class="cls-8"><path d="M229.4,46.34a1.48,1.48,0,0,1-.49,1.22,1.61,1.61,0,0,0-.51,1.26c.11,1.11,1.3,1.39,1.6,2.58.36,1.46-.86,3.39-2.29,3.44s-2.41-2.17-4.07-2c-1.1.08-1.28,1.07-2.19.83s-.81-1-2.1-2.12-2-1-2.46-1.9a2.42,2.42,0,0,1,0-2.56c.59-.65,1.37.08,2.46-.41a1.9,1.9,0,0,0,.35-.2h0c1-.74.95-2.21,2-2.32.77-.08,1,.67,2,.82,1.54.21,1.85-1.24,3.19-1A3.24,3.24,0,0,1,229.4,46.34Z"/></g><path class="cls-13" d="M229.73,45.56a1.51,1.51,0,0,1-.5,1.22,1.63,1.63,0,0,0-.51,1.26c.12,1.11,1.31,1.39,1.6,2.58.37,1.46-.86,3.39-2.29,3.44s-2.4-2.17-4.07-2c-1.09.08-1.27,1.07-2.19.83s-.8-1-2.1-2.12-2-1-2.46-1.9a2.4,2.4,0,0,1,0-2.56c.59-.65,1.36.08,2.46-.41a2.91,2.91,0,0,0,.35-.2h0c1.05-.74.94-2.21,2-2.32.78-.08,1,.67,2.06.82,1.53.21,1.84-1.24,3.18-1A3.25,3.25,0,0,1,229.73,45.56Z"/><g class="cls-8"><path d="M217.8,62.5c-1.39.15-3.41-1.89-4.85-1.65-.95.15-.56,1.1-1.52.94s-1.28-.87-3.11-1.87S206,59.12,205,58.3s-1.56-1.86-1.42-2.43,1.28,0,2-.56c1-.71-.28-2.36.73-2.56.66-.13,1.28.57,2.34.64h0a1.39,1.39,0,0,0,.57-.05h0c.79-.26.6-1.22,1.73-1.11a6.18,6.18,0,0,1,3.55,2.12,1.28,1.28,0,0,1,.23,1.19,1.37,1.37,0,0,0,.26,1.22c.73,1,2,1.23,2.91,2.34C219.09,60.45,219.08,62.36,217.8,62.5Z"/></g><path class="cls-13" d="M218.13,61.72c-1.39.16-3.41-1.89-4.86-1.65-.94.15-.55,1.1-1.51.94s-1.29-.87-3.12-1.87-2.34-.8-3.3-1.62-1.57-1.86-1.43-2.43,1.29,0,2-.56c1-.71-.28-2.36.72-2.56.67-.13,1.29.57,2.34.64h0a1.61,1.61,0,0,0,.57-.06h0c.8-.26.6-1.22,1.73-1.11a6.21,6.21,0,0,1,3.55,2.12,1.32,1.32,0,0,1,.24,1.19,1.39,1.39,0,0,0,.25,1.22c.73,1.05,2,1.23,2.91,2.34C219.41,59.67,219.4,61.58,218.13,61.72Z"/><g class="cls-8"><path d="M211.65,57.39s10.81-4.53,8.52-16.72l-1.42-.33s3.09,10-8.17,16.07C211,58.31,211.65,57.39,211.65,57.39Z"/></g><path class="cls-13" d="M212.36,56.61s10.81-4.53,8.53-16.72l-1.42-.32s3.09,10-8.18,16.06C211.75,57.53,212.36,56.61,212.36,56.61Z"/><g class="cls-14"><path class="cls-11" d="M229.73,45.56a1.51,1.51,0,0,1-.5,1.22c-1.1-3-8.84-1.29-9.16-1.13,1.05-.74.94-2.21,2-2.32.78-.08,1,.67,2.06.82,1.53.21,1.84-1.24,3.18-1A3.25,3.25,0,0,1,229.73,45.56Z"/></g><g class="cls-14"><path class="cls-11" d="M214.85,53.56a1.32,1.32,0,0,1,.24,1.19,3.47,3.47,0,0,1-.24-.26,6.47,6.47,0,0,0-5.28-1.94c.8-.26.6-1.22,1.73-1.11A6.21,6.21,0,0,1,214.85,53.56Z"/></g><rect class="cls-15" y="0.25" width="300" height="165"/></g></g></svg>