<svg xmlns="http://www.w3.org/2000/svg" xmlns:xlink="http://www.w3.org/1999/xlink" viewBox="0 0 300 165.5"><defs><style>.cls-1{fill:none;}.cls-2{isolation:isolate;}.cls-3{fill:#fce5cd;}.cls-4{fill:#0c3f27;}.cls-5{fill:#fff;}.cls-6{fill:#dde8e8;}.cls-7{fill:#f7b93c;}.cls-8{fill:#009245;}.cls-9{clip-path:url(#clip-path);}.cls-10{fill:#ff7878;}.cls-11{fill:#f9e2c2;}.cls-12{fill:#4be290;}.cls-13{opacity:0.7;}.cls-14{fill:#ebefb4;}.cls-15{opacity:0.79;mix-blend-mode:lighten;}.cls-16{fill:#1c5441;}.cls-17{clip-path:url(#clip-path-2);}.cls-18{opacity:0.81;}.cls-18,.cls-19{mix-blend-mode:soft-light;}.cls-19{opacity:0.57;}.cls-20{fill:#3f240f;}.cls-21{fill:url(#linear-gradient);}</style><clipPath id="clip-path"><rect class="cls-1" x="224.64" y="41.11" width="10.46" height="22.11" rx="4.12" transform="translate(115.95 -154.19) rotate(48.31)"/></clipPath><clipPath id="clip-path-2"><path class="cls-1" d="M205.74,74.88c-8.05-4.26-18.65,3.16-21.28,5s-6.69,4.77-8.69,10.17a19.34,19.34,0,0,0-.37,12c2.27,7.64,8.67,11.27,11.65,13s6.87,3.89,12,3.52A19.22,19.22,0,0,0,215,106.71c2.18-5.46.84-10.29-.92-16.66C212.09,82.93,210.57,77.44,205.74,74.88Z"/></clipPath><linearGradient id="linear-gradient" x1="150.37" y1="169.14" x2="149.66" y2="1.68" gradientUnits="userSpaceOnUse"><stop offset="0.03" stop-color="#591c16"/><stop offset="0.22" stop-color="#5f241d" stop-opacity="0.96"/><stop offset="0.38" stop-color="#733c33" stop-opacity="0.84"/><stop offset="0.53" stop-color="#936459" stop-opacity="0.64"/><stop offset="0.68" stop-color="#c09d8d" stop-opacity="0.36"/><stop offset="0.82" stop-color="#fae5cf" stop-opacity="0"/></linearGradient></defs><g class="cls-2"><g id="Layer_1" data-name="Layer 1"><rect class="cls-3" y="-0.25" width="300" height="166"/><circle class="cls-4" cx="239.55" cy="57.61" r="37.68"/><circle class="cls-5" cx="239.72" cy="57.61" r="32.88" transform="translate(174.17 295.28) rotate(-88.09)"/><circle class="cls-6" cx="239.89" cy="58.64" r="22.65" transform="translate(173.3 296.45) rotate(-88.09)"/><circle class="cls-7" cx="241.88" cy="64.61" r="13.22"/><path class="cls-8" d="M258.22,55.62h0A1.39,1.39,0,0,1,257,57a.88.88,0,0,1-.28,0l-.74-.08-8.87-1a1.39,1.39,0,0,1-1.22-1.55v0s0-.06,0-.09a1,1,0,0,1,.12-.33.3.3,0,0,1,0-.08l0-.07,4.69-8.33a1.41,1.41,0,0,1,1.86-.56.91.91,0,0,1,.16.11A13.25,13.25,0,0,1,258.22,55.62Z"/><path class="cls-8" d="M250.85,44.22l-4.73,7.92-.22.37a1.4,1.4,0,0,1-2,.4,13.23,13.23,0,0,1-5.15-10.83v0a1.37,1.37,0,0,1,1.57-1.31h.1l9.47,1.37A1.39,1.39,0,0,1,250.85,44.22Z"/><g class="cls-9"><rect class="cls-10" x="224.64" y="41.11" width="10.46" height="22.11" rx="4.12" transform="translate(115.95 -154.19) rotate(48.31)"/><path class="cls-5" d="M228.74,60.39c-.29-1.8-.73-2.76-1.31-2.87-.42-.08-.88.32-1.28.67s-.82.69-1.16.53c-.16-.07-.38-.29-.4-1.28a7.77,7.77,0,0,1,.52-2.81,2.42,2.42,0,0,0,.18-1.83,2.11,2.11,0,0,0-1.16-1c-1.35-.6-3.14-.07-4.57,1.36l-.13-.12c1.48-1.48,3.35-2,4.77-1.4a2.29,2.29,0,0,1,1.25,1.08,2.56,2.56,0,0,1-.17,2,7.36,7.36,0,0,0-.51,2.75c0,.66.11,1,.29,1.14s.6-.19,1-.51.93-.8,1.43-.71c.67.12,1.14,1.11,1.45,3Z"/><path class="cls-5" d="M230.29,59.71l-.16-.05c.86-2.84.93-4.56.2-5.1a2.53,2.53,0,0,0-.45-.23c-.25-.12-.64-.29-1.26-.62a7.48,7.48,0,0,1-1.24-.71c-.53-.61-.33-1.48-.14-2.32s.35-1.52,0-2a2.21,2.21,0,0,0-2-.48l0-.18c1.07-.09,1.79.09,2.15.55a2.59,2.59,0,0,1,.07,2.16c-.18.8-.37,1.62.1,2.16a8.44,8.44,0,0,0,1.19.67c.62.33,1,.51,1.25.62a2.6,2.6,0,0,1,.49.26C231.24,55,231.19,56.75,230.29,59.71Z"/><path class="cls-5" d="M231.68,57.61h-.17c.2-3.33-.19-5.22-1.16-5.62a1.59,1.59,0,0,0-.89,0,1.23,1.23,0,0,1-1-.15c-.54-.43-.46-1.26-.31-2.91,0-.34.07-.72.1-1.14.09-1,.15-2.09.18-3.11h.17c0,1-.09,2.08-.17,3.12,0,.42-.07.8-.1,1.15-.15,1.59-.23,2.39.24,2.75a1.08,1.08,0,0,0,.9.12,1.74,1.74,0,0,1,1,0C231.47,52.26,231.89,54.15,231.68,57.61Z"/><path class="cls-5" d="M232.2,57.26c0-5.57-.73-6.88-1.31-7a1.42,1.42,0,0,0-.95.38c-.36.24-.69.47-1,.3s-.31-1.1-.1-2.51l.06-.34c.2-1.36.37-2.75.51-4.15l.18,0c-.15,1.4-.32,2.8-.52,4.15l-.05.35c-.19,1.24-.33,2.14,0,2.33.19.11.48-.08.79-.29a1.52,1.52,0,0,1,1.08-.41c1,.2,1.43,2.54,1.45,7.17Z"/><path class="cls-5" d="M236.21,55.26c-2.27-1.55-3.51-3.2-3.66-4.91a8.82,8.82,0,0,1,0-1.55c.07-.71.13-1.32-.17-1.49s-.55.06-.88.25-.71.41-1,.27c-.62-.28-.64-1.83-.05-4.76l.17,0c-.7,3.49-.41,4.41,0,4.57s.55-.08.86-.26.74-.43,1.05-.25.34.85.27,1.65a7.76,7.76,0,0,0-.05,1.53c.15,1.65,1.36,3.25,3.59,4.78Z"/><path class="cls-5" d="M236.75,53.88a4.2,4.2,0,0,1-2.12-1.58,3.41,3.41,0,0,1-.46-1.35c-.08-.41-.2-1-.41-1.79-.5-2-.76-2.48-1.19-2.9a3.07,3.07,0,0,0-.53-.42,1.57,1.57,0,0,1-.52-.46,3.28,3.28,0,0,1,0-3l.17.05a3.1,3.1,0,0,0,0,2.86,1.39,1.39,0,0,0,.46.42,2.56,2.56,0,0,1,.56.44c.45.45.72,1,1.24,3,.21.83.33,1.39.41,1.8a3.25,3.25,0,0,0,.44,1.28,4,4,0,0,0,2,1.52Z"/><path class="cls-5" d="M237.79,53.19a4.05,4.05,0,0,1-2.47-2.12,4.21,4.21,0,0,1,0-2.41c.15-.76.29-1.41-.15-1.88a1.38,1.38,0,0,0-.6-.36,2.71,2.71,0,0,1-1.12-.68,4.16,4.16,0,0,1-.89-1.23,4.56,4.56,0,0,1-.35-2.65l.17,0a4.34,4.34,0,0,0,.34,2.54,4,4,0,0,0,.85,1.19,2.66,2.66,0,0,0,1.06.64,1.58,1.58,0,0,1,.67.4c.49.53.35,1.26.19,2a4.12,4.12,0,0,0,0,2.31,3.86,3.86,0,0,0,2.37,2Z"/><path class="cls-5" d="M239.81,52.08c-.34-4-1.37-6.39-3.07-7.19a6,6,0,0,0-.79-.29,4.31,4.31,0,0,1-2.35-1.46,4,4,0,0,1-.71-2.3h.17a3.81,3.81,0,0,0,.68,2.2A4.07,4.07,0,0,0,236,44.43a7.6,7.6,0,0,1,.81.31c1.75.82,2.81,3.28,3.16,7.33Z"/><path class="cls-5" d="M228.05,62l-.17-.06c.5-1.38.38-1.84.21-2s-.34,0-.67.1a2.88,2.88,0,0,1-1.37.27,3.14,3.14,0,0,1-2.31-1.78,3,3,0,0,1-.14-2,1.55,1.55,0,0,0,0-1.13c-.51-.86-2.57-.84-6.13,0l0-.16c3.69-.92,5.76-.91,6.32,0a1.7,1.7,0,0,1,.05,1.24,2.8,2.8,0,0,0,.12,1.87,3,3,0,0,0,2.18,1.68,2.46,2.46,0,0,0,1.28-.25c.33-.13.62-.25.84-.07S228.48,60.75,228.05,62Z"/></g><path class="cls-11" d="M241,74.75a6.53,6.53,0,0,1-4.39-1.56A7.3,7.3,0,0,1,234.2,68a9,9,0,0,1,1.5-5.5c1.23-1.77,4.23-4.49,7.73-3.38A6.39,6.39,0,0,1,247.75,66c-.44,2.73-3,5.48-5.82,5-2.16-.33-4.39-2.57-4-5A4.65,4.65,0,0,1,240,63a2.83,2.83,0,0,1,2.36-.4,3.09,3.09,0,0,1,1.77,1.7,2.83,2.83,0,0,1,.12,2.27,2.39,2.39,0,0,1-2.55,1.54,2.27,2.27,0,0,1-1.41-1.41,1.18,1.18,0,0,1,.05-1.07c.35-.48,1.19-.38,1.65-.27a.25.25,0,0,1,.2.3.26.26,0,0,1-.31.2c-.55-.12-1-.09-1.12.07a.74.74,0,0,0,0,.6,1.75,1.75,0,0,0,1.05,1.08,1.89,1.89,0,0,0,1.94-1.24,2.28,2.28,0,0,0-.11-1.85A2.64,2.64,0,0,0,242.23,63a2.31,2.31,0,0,0-1.93.36,4.09,4.09,0,0,0-1.88,2.72c-.32,2.1,1.66,4.08,3.59,4.37,2.5.38,4.82-2.13,5.23-4.63a5.86,5.86,0,0,0-4-6.28,5.27,5.27,0,0,0-4.28.56,8.87,8.87,0,0,0-2.86,2.63c-1.94,2.82-2.08,7.52.82,10,3.26,2.81,8,.88,10.06-.54a9.64,9.64,0,0,0,3.88-11.1,9.65,9.65,0,0,0-11.11-5.55A10.4,10.4,0,0,0,232,66.75a.26.26,0,1,1-.52,0,10.92,10.92,0,0,1,8.15-11.68c4.29-1,9.84,1,11.71,5.86a9.14,9.14,0,0,1-.12,6.72,11.27,11.27,0,0,1-3.95,5A11.94,11.94,0,0,1,241,74.75Z"/><path class="cls-12" d="M250.85,44.22l-4.73,7.92c-5.3-3.26-5.76-9.23-5.74-11.38l9.47,1.37A1.39,1.39,0,0,1,250.85,44.22Z"/><path class="cls-12" d="M246.12,53.63l4.49-8c5.41,3.08,5.93,9.15,6,11.29l-9.52-1A1.43,1.43,0,0,1,246.12,53.63Z"/><g class="cls-13"><path class="cls-14" d="M244.49,44.28c-.42,0-.59-.21-.58-.45s.18-.45.6-.44a1.1,1.1,0,0,1,.81.47A1.08,1.08,0,0,1,244.49,44.28Z"/></g><g class="cls-13"><path class="cls-14" d="M246.35,47.08c-.19.37-.43.44-.65.34s-.33-.35-.15-.73a1.15,1.15,0,0,1,.76-.55A1.09,1.09,0,0,1,246.35,47.08Z"/></g><g class="cls-13"><path class="cls-14" d="M244.42,46.17c-.35.23-.6.17-.73,0s-.11-.47.24-.7a1.12,1.12,0,0,1,.94-.09A1.12,1.12,0,0,1,244.42,46.17Z"/></g><g class="cls-13"><path class="cls-14" d="M252,54c.42,0,.59.17.6.42s-.15.45-.57.46a1.11,1.11,0,0,1-.84-.42A1.06,1.06,0,0,1,252,54Z"/></g><g class="cls-13"><path class="cls-14" d="M250,51.28c.16-.39.4-.47.63-.37s.35.32.19.71a1.15,1.15,0,0,1-.74.59A1.09,1.09,0,0,1,250,51.28Z"/></g><g class="cls-13"><path class="cls-14" d="M252,52.08c.33-.25.58-.2.73,0s.13.46-.21.71a1.12,1.12,0,0,1-.93.13A1.07,1.07,0,0,1,252,52.08Z"/></g><circle class="cls-4" cx="196.16" cy="94.95" r="43.39"/><g class="cls-15"><path class="cls-16" d="M196.16,51.56A43.29,43.29,0,0,0,164.29,65.5a43.39,43.39,0,0,1,61.31,61.31,43.38,43.38,0,0,0-29.44-75.25Z"/></g><g class="cls-15"><path class="cls-16" d="M239.68,19.75a37.3,37.3,0,0,0-27.45,12,37.38,37.38,0,0,1,52.82,52.81,37.37,37.37,0,0,0-25.37-64.82Z"/></g><circle class="cls-5" cx="196.16" cy="94.95" r="37.86"/><g class="cls-17"><path class="cls-10" d="M205.74,74.88c-8.05-4.26-18.65,3.16-21.28,5s-6.69,4.77-8.69,10.17a19.34,19.34,0,0,0-.37,12c2.27,7.64,8.67,11.27,11.65,13s6.87,3.89,12,3.52A19.22,19.22,0,0,0,215,106.71c2.18-5.46.84-10.29-.92-16.66C212.09,82.93,210.57,77.44,205.74,74.88Z"/><path class="cls-5" d="M172.2,97.28l-.31-.17c5-9.1,9.65-13.55,13.82-13.23a9,9,0,0,1,3.48,1.22,7.62,7.62,0,0,0,5,1.2,7.44,7.44,0,0,0,4.14-2.19,12.89,12.89,0,0,1,3.42-2.29c3.34-1.44,7.57-1.09,12.58,1l-.14.32c-4.91-2.1-9.05-2.45-12.31-1a12.64,12.64,0,0,0-3.32,2.23,7.87,7.87,0,0,1-4.33,2.28A8,8,0,0,1,189,85.41a8.51,8.51,0,0,0-3.34-1.18C181.66,83.91,177.12,88.3,172.2,97.28Z"/><path class="cls-5" d="M172.17,99.55l-.26-.23c5.72-6.4,10.32-9.1,13.67-8a6.08,6.08,0,0,1,2.94,2.43,4.24,4.24,0,0,0,2.74,2.06c2,.3,3.54-1.37,5.46-3.47a21.72,21.72,0,0,1,7.41-5.85,17.86,17.86,0,0,1,11-.7l-.07.34a17.53,17.53,0,0,0-10.79.68c-3.28,1.4-5.4,3.72-7.28,5.76s-3.32,3.62-5.25,3.62a3,3,0,0,1-.52,0,4.52,4.52,0,0,1-3-2.19,5.71,5.71,0,0,0-2.77-2.31C182.27,90.6,177.79,93.26,172.17,99.55Z"/><path class="cls-5" d="M189.94,81.83a51.19,51.19,0,0,1-12.58-1.93l.09-.33a48.3,48.3,0,0,0,13.6,1.89,11.71,11.71,0,0,0,4.26-.85,10.88,10.88,0,0,0,3.53-2.44c.32-.3.63-.59.93-.82,2.44-1.85,6.86-1.33,13.14,1.53l-.14.32c-6.15-2.81-10.46-3.34-12.79-1.58a11.85,11.85,0,0,0-.9.8,11.21,11.21,0,0,1-3.63,2.51,12.2,12.2,0,0,1-4.38.88Z"/><path class="cls-5" d="M173.23,105.23l-.3-.17c3.63-6.62,6.88-9.79,9.68-9.42,1.51.2,2.3,1.35,3.07,2.46s1.53,2.21,3,2.55c2.36.56,4.37-1.39,6.92-3.85s5.81-5.61,10.45-6.86a18.57,18.57,0,0,1,9.77.17l-.09.33a18.31,18.31,0,0,0-9.59-.17c-4.55,1.23-7.74,4.31-10.3,6.78s-4.7,4.54-7.24,3.94c-1.6-.37-2.41-1.55-3.2-2.69s-1.48-2.14-2.83-2.32C179.93,95.63,176.79,98.74,173.23,105.23Z"/><path class="cls-5" d="M175.83,109.88l-.32-.14c1.71-4,3.51-6.12,5.35-6.15,1.18,0,1.9.8,2.74,1.74a9.1,9.1,0,0,0,3.21,2.6c2.8,1.25,7.62.95,11.4-2.06a9.89,9.89,0,0,0,3.34-5.24,11.17,11.17,0,0,1,2.7-4.77c2.9-2.87,7.71-3.93,14.31-3.16l0,.34c-6.49-.75-11.21.28-14,3.07a10.9,10.9,0,0,0-2.61,4.63,10.34,10.34,0,0,1-3.45,5.4c-3,2.34-7.94,3.81-11.76,2.1a9.46,9.46,0,0,1-3.33-2.68c-.81-.92-1.45-1.65-2.48-1.63C179.17,104,177.48,106,175.83,109.88Z"/><path class="cls-5" d="M190.83,113.58a7.58,7.58,0,0,1-2.24-.32A11.49,11.49,0,0,1,184,110c-1.34-1.36-2.4-2.43-3.76-2.09a3.58,3.58,0,0,0-2.14,2l-.3-.16a3.87,3.87,0,0,1,2.36-2.16c1.54-.38,2.72.81,4.09,2.19a11.06,11.06,0,0,0,4.47,3.17c5,1.53,11.82-2.83,14.84-7.7a14.88,14.88,0,0,0,1.93-5.12c.36-1.6.67-3,2.09-4.09,2.54-2,6.84-1.7,12.79.84l-.14.32c-5.82-2.49-10-2.79-12.44-.89-1.32,1-1.6,2.3-2,3.9a15.13,15.13,0,0,1-2,5.22C201.17,109.69,195.6,113.58,190.83,113.58Z"/><path class="cls-5" d="M202.81,122.65l-.34-.1,3.81-12.79c1.46-4.91,2.53-8.46,4-8.42.79,0,1.22,1.07,1.68,2.19s1,2.48,2,2.65,2.39-.57,4.83-4.92l.3.17c-2.07,3.69-3.77,5.36-5.19,5.09-1.15-.2-1.73-1.62-2.24-2.86-.42-1-.81-2-1.37-2h0c-1.18,0-2.37,4-3.62,8.17C205.31,114.22,204,118.52,202.81,122.65Z"/></g><g class="cls-18"><path class="cls-3" d="M189.93,74.55s24.21,7.08,25.59,37.34c10.54-13.31-3.29-43-3.29-43Z"/></g><g class="cls-19"><path class="cls-3" d="M258.22,55.62h0A1.39,1.39,0,0,1,257,57c.62-5.51-2.66-10.17-4.35-12.17a.91.91,0,0,1,.16.11A13.25,13.25,0,0,1,258.22,55.62Z"/></g><g class="cls-19"><path class="cls-3" d="M241.36,40.91c.78.1,10.34,1.9,8.24,5.41,1.33-2.15,2.39-3.23.32-4.27C247.84,41.7,241.36,40.91,241.36,40.91Z"/></g><circle class="cls-20" cx="184.1" cy="102.17" r="1.65"/><circle class="cls-20" cx="208.34" cy="102.17" r="1.65"/><path class="cls-20" d="M196.36,106a7.53,7.53,0,0,1-4.49-1.4.52.52,0,0,1,.64-.81,6.71,6.71,0,0,0,3.85,1.17,7,7,0,0,0,3.93-1.18.53.53,0,0,1,.73.1.52.52,0,0,1-.1.73A7.94,7.94,0,0,1,196.36,106Z"/><path class="cls-20" d="M239.58,68.56h-.19a6.64,6.64,0,0,1-3.87-1.31.51.51,0,0,1-.06-.73.52.52,0,0,1,.73-.07,5.61,5.61,0,0,0,3.23,1.08,6.09,6.09,0,0,0,3.36-.91.52.52,0,0,1,.73.11.53.53,0,0,1-.12.73A7,7,0,0,1,239.58,68.56Z"/><path class="cls-20" d="M234.64,62.76a.51.51,0,0,1-.41-.21,2.22,2.22,0,0,0-1.62-1,3.35,3.35,0,0,0-2.18,1.08.53.53,0,0,1-.74,0,.52.52,0,0,1,0-.73,4.3,4.3,0,0,1,3-1.43,3.2,3.2,0,0,1,2.41,1.46.52.52,0,0,1-.11.73A.5.5,0,0,1,234.64,62.76Z"/><path class="cls-20" d="M244.45,63.35a.5.5,0,0,1-.31-.1.51.51,0,0,1-.11-.72,3.14,3.14,0,0,1,2.41-1.46,4.29,4.29,0,0,1,3,1.42.52.52,0,0,1,0,.73.51.51,0,0,1-.73,0h0a3.35,3.35,0,0,0-2.19-1.08,2.19,2.19,0,0,0-1.61,1A.53.53,0,0,1,244.45,63.35Z"/><rect class="cls-21" y="-0.25" width="300" height="166"/></g></g></svg>