<svg xmlns="http://www.w3.org/2000/svg" xmlns:xlink="http://www.w3.org/1999/xlink" viewBox="0 0 300 165.5"><defs><style>.cls-1{isolation:isolate;}.cls-2{fill:#fce5cd;}.cls-3{fill:#edc094;}.cls-4{fill:#9b4e23;}.cls-5{opacity:0.49;}.cls-14,.cls-15,.cls-17,.cls-5{mix-blend-mode:soft-light;}.cls-6{fill:#ffe3c7;}.cls-7{opacity:0.5;mix-blend-mode:multiply;}.cls-8{fill:#4c7891;}.cls-9{fill:#f4cd9d;}.cls-10{opacity:0.6;}.cls-11{fill:#891b3b;}.cls-12{fill:#962a2a;}.cls-13{fill:#fff;}.cls-14{opacity:0.52;}.cls-15{opacity:0.63;}.cls-16{fill:#00922b;}.cls-18{fill:#ffe8d9;}.cls-19{fill:url(#linear-gradient);}</style><linearGradient id="linear-gradient" x1="150.37" y1="168.62" x2="149.66" y2="2.17" gradientUnits="userSpaceOnUse"><stop offset="0.03" stop-color="#591c16"/><stop offset="0.22" stop-color="#5f241d" stop-opacity="0.96"/><stop offset="0.38" stop-color="#733c33" stop-opacity="0.84"/><stop offset="0.53" stop-color="#936459" stop-opacity="0.64"/><stop offset="0.68" stop-color="#c09d8d" stop-opacity="0.36"/><stop offset="0.82" stop-color="#fae5cf" stop-opacity="0"/></linearGradient></defs><g class="cls-1"><g id="Layer_1" data-name="Layer 1"><rect class="cls-2" y="0.25" width="300" height="165"/><ellipse class="cls-3" cx="210.45" cy="87.41" rx="73.25" ry="6.53"/><path class="cls-4" d="M242,72.85a10.22,10.22,0,0,1-.3,1.87,2,2,0,0,1-.15.39,3.64,3.64,0,0,1-.39.54h0a10.7,10.7,0,0,1-.86.79c-.86.77-.19,1.44-.45,1.87-.09.14-.42.64-1.93,1.06s-2.56.72-3.28.14-.68-1.15-1.58-1.87l-.12-.09a13.43,13.43,0,0,1-1.58-1.11c-.7-.66-.69-2-.68-3.19a7.82,7.82,0,0,1,.5-2.93c.05-.13.11-.26.18-.4a4.71,4.71,0,0,1,1.14-1.63h0l.09-.07.24-.16a4.61,4.61,0,0,1,.68-.33,11.75,11.75,0,0,1,2.83-.34c1.86-.18,2.87-.44,3.51.14.49.44.08,1.14.56,2.53C241,71.75,242.06,71.94,242,72.85Z"/><g class="cls-5"><path class="cls-6" d="M242,72.85a10.22,10.22,0,0,1-.3,1.87c-.65-4.81-6.51-6.58-8.19-7a11.75,11.75,0,0,1,2.83-.34c1.86-.18,2.87-.44,3.51.14.49.44.08,1.14.56,2.53C241,71.75,242.06,71.94,242,72.85Z"/></g><g class="cls-7"><path class="cls-4" d="M233.05,77.38a.66.66,0,0,1-.12.17,13.43,13.43,0,0,1-1.58-1.11c-.7-.66-.69-2-.68-3.19a7.82,7.82,0,0,1,.5-2.93S231,75,233.05,77.38Z"/></g><path class="cls-8" d="M138.51,89.34a3.92,3.92,0,0,1-1.23-.47,4,4,0,0,1-.56-.39,2.42,2.42,0,0,1-.52-.57,1.19,1.19,0,0,1-.2-.59,1.26,1.26,0,0,1,.13-.57,1.87,1.87,0,0,1,.56-.68,5.62,5.62,0,0,1,1.2-.68,16.83,16.83,0,0,1,2.39-.81c.8-.21,1.6-.39,2.4-.56,3.22-.66,6.45-1.09,9.68-1.47,6.46-.75,12.94-1.23,19.43-1.61,13-.74,26-1.06,38.94-1.1q9.74,0,19.48.21c6.49.16,13,.38,19.47.75s13,.84,19.44,1.58c3.24.38,6.47.81,9.7,1.48.81.17,1.61.36,2.42.59a14.73,14.73,0,0,1,2.44.89,5.16,5.16,0,0,1,.63.37,2.73,2.73,0,0,1,.65.6,1.84,1.84,0,0,1,.29.54,2.25,2.25,0,0,1,.06.36v.19c0,.06,0,.12,0,.16a2.51,2.51,0,0,1-.32.82,3.17,3.17,0,0,1-1,1.11,2.83,2.83,0,0,1-1.38.48l-.31-.89a5.43,5.43,0,0,0,.72-.72,3.82,3.82,0,0,0,.48-.78,1.46,1.46,0,0,0,.07-.19.19.19,0,0,0,0-.07v0h0s0,0,0,0v0s0,0,0,.06,0,0,0,0a1,1,0,0,0-.25-.21,2.73,2.73,0,0,0-.42-.24,11.49,11.49,0,0,0-2.12-.77c-.75-.21-1.53-.4-2.31-.56-3.12-.65-6.33-1.08-9.53-1.45-6.42-.73-12.88-1.2-19.34-1.56-12.93-.72-25.89-1-38.85-1s-25.92.19-38.86.85c-6.47.34-12.93.78-19.36,1.48-3.21.36-6.42.77-9.57,1.39-.79.16-1.57.34-2.33.54a16.48,16.48,0,0,0-2.22.72,4.18,4.18,0,0,0-.92.51.63.63,0,0,0-.22.24s0,0,0,0,0-.05,0,0a2.79,2.79,0,0,0,.27.35c.12.12.25.25.39.37s.58.48.88.72Z"/><path class="cls-9" d="M277.06,94.35c-1.84,6.49-15.58,6-29,6.22-45.72.61-84.74,8.44-100.64-5.44-1.49-1.31-5.44-4.76-5.29-9.12.13-3.77,3.28-7.18,6.89-9.29A17.75,17.75,0,0,1,152.89,75c4.76-1.42,6,.79,11.72,0,5.58-.78,7.21-3.24,13.61-6.23,3.9-1.82,4-1.22,17.95-4.56,2.66-.63,5.05-1.22,7.18-1.75,9.78-2.41,14.18-3.43,15.59-.91,1.25,2.21-1.1,4.9.38,8,1.16,2.42,3.87,3.43,9.36,4,12.14,1.26,18.61-1.64,19.84,1,1.31,2.82-5,8.4-3.87,10.45,1.7,3.09,16.15-9.33,25.32-3.67C274.47,84.12,278.21,90.27,277.06,94.35Z"/><path class="cls-4" d="M269.25,84.07a15.68,15.68,0,0,1-.49,3,2.66,2.66,0,0,1-.25.63,5.51,5.51,0,0,1-.62.87h0c-.25.27-.62.59-1.39,1.27-1.4,1.24-.3,2.32-.73,3-.14.23-.68,1-3.11,1.72-2.67.75-4.15,1.16-5.31.21-1.31-1.07-1.09-1.85-2.56-3l-.19-.14a22.62,22.62,0,0,1-2.55-1.8c-1.14-1.08-1.12-3.16-1.1-5.16a12.35,12.35,0,0,1,.81-4.74c.08-.21.18-.42.29-.64a7.57,7.57,0,0,1,1.83-2.63h0l.14-.11a2.48,2.48,0,0,1,.4-.26,7.79,7.79,0,0,1,1.09-.54c1.2-.45,2.12-.3,4.58-.54,3-.29,4.64-.72,5.67.21.8.73.13,1.86.91,4.09C267.65,82.29,269.36,82.6,269.25,84.07Z"/><g class="cls-5"><path class="cls-6" d="M269.25,84.07a15.68,15.68,0,0,1-.49,3c-1.05-7.78-10.53-10.64-13.24-11.31,1.2-.45,2.12-.3,4.58-.54,3-.29,4.64-.72,5.67.21.8.73.13,1.86.91,4.09C267.65,82.29,269.36,82.6,269.25,84.07Z"/></g><g class="cls-7"><path class="cls-4" d="M254.79,91.39a1.6,1.6,0,0,1-.19.29,22.62,22.62,0,0,1-2.55-1.8c-1.14-1.08-1.12-3.16-1.1-5.16a12.35,12.35,0,0,1,.81-4.74S251.5,87.52,254.79,91.39Z"/></g><rect class="cls-8" x="176.06" y="102.1" width="71.12" height="8.64" rx="2.11"/><path class="cls-4" d="M225.29,71.55a9.77,9.77,0,0,1-.31,1.93,1.63,1.63,0,0,1-.16.41,3.14,3.14,0,0,1-.4.56h0c-.16.17-.39.38-.88.82-.9.79-.2,1.48-.47,1.92-.1.15-.44.67-2,1.11-1.71.48-2.66.74-3.4.13s-.7-1.19-1.64-1.92l-.12-.1a14.8,14.8,0,0,1-1.64-1.14c-.72-.7-.71-2-.7-3.31a7.8,7.8,0,0,1,.52-3,3.79,3.79,0,0,1,.18-.42,4.88,4.88,0,0,1,1.18-1.68h0l.09-.07.25-.17a5.46,5.46,0,0,1,.7-.34,12.2,12.2,0,0,1,2.94-.34c1.93-.19,3-.46,3.63.13s.08,1.19.58,2.62C224.27,70.4,225.36,70.6,225.29,71.55Z"/><g class="cls-5"><path class="cls-6" d="M225.29,71.55a9.77,9.77,0,0,1-.31,1.93c-.67-5-6.74-6.81-8.48-7.24a12.2,12.2,0,0,1,2.94-.34c1.93-.19,3-.46,3.63.13s.08,1.19.58,2.62C224.27,70.4,225.36,70.6,225.29,71.55Z"/></g><g class="cls-7"><path class="cls-4" d="M216,76.23a.94.94,0,0,1-.12.18,14.8,14.8,0,0,1-1.64-1.14c-.72-.7-.71-2-.7-3.31a7.8,7.8,0,0,1,.52-3S213.93,73.75,216,76.23Z"/></g><path class="cls-4" d="M235.12,91a10.88,10.88,0,0,1-.31,1.94,1.69,1.69,0,0,1-.16.4,3.74,3.74,0,0,1-.4.56h0a11.6,11.6,0,0,1-.89.82c-.89.79-.19,1.48-.47,1.93-.09.15-.43.66-2,1.1s-2.66.74-3.39.14-.71-1.19-1.64-1.93l-.12-.1a11.88,11.88,0,0,1-1.64-1.14c-.73-.7-.72-2-.7-3.31a7.79,7.79,0,0,1,.51-3c.06-.14.12-.27.19-.41a4.87,4.87,0,0,1,1.17-1.69h0s0,0,.09-.08l.25-.16a5.46,5.46,0,0,1,.7-.34,11.49,11.49,0,0,1,2.93-.35c1.93-.19,3-.46,3.63.14s.09,1.18.59,2.61C234.1,89.86,235.19,90.05,235.12,91Z"/><g class="cls-5"><path class="cls-6" d="M235.12,91a10.88,10.88,0,0,1-.31,1.94c-.68-5-6.74-6.82-8.48-7.24a11.49,11.49,0,0,1,2.93-.35c1.93-.19,3-.46,3.63.14s.09,1.18.59,2.61C234.1,89.86,235.19,90.05,235.12,91Z"/></g><g class="cls-7"><path class="cls-4" d="M225.87,95.68a1.4,1.4,0,0,1-.12.18,11.88,11.88,0,0,1-1.64-1.14c-.73-.7-.72-2-.7-3.31a7.79,7.79,0,0,1,.51-3S223.76,93.2,225.87,95.68Z"/></g><path class="cls-4" d="M253.44,87a18.54,18.54,0,0,1-.55,3.39,3,3,0,0,1-.27.7,6,6,0,0,1-.7,1h0c-.28.31-.69.67-1.55,1.43-1.56,1.38-.34,2.58-.82,3.37-.16.26-.76,1.16-3.47,1.92-3,.83-4.65,1.3-5.94.24-1.46-1.21-1.22-2.08-2.86-3.37l-.21-.16a24.93,24.93,0,0,1-2.86-2C233,92.33,233,90,233,87.76a13.93,13.93,0,0,1,.9-5.29c.1-.24.21-.48.32-.72a8.49,8.49,0,0,1,2.06-2.94s0,0,0,0l.15-.13.44-.29a8.92,8.92,0,0,1,1.23-.59c1.34-.51,2.37-.35,5.11-.61,3.37-.32,5.19-.8,6.34.24.9.81.14,2.07,1,4.57C251.65,85.05,253.56,85.39,253.44,87Z"/><g class="cls-5"><path class="cls-6" d="M253.44,87a18.54,18.54,0,0,1-.55,3.39c-1.18-8.7-11.76-11.9-14.79-12.64,1.34-.51,2.37-.35,5.11-.61,3.37-.32,5.19-.8,6.34.24.9.81.14,2.07,1,4.57C251.65,85.05,253.56,85.39,253.44,87Z"/></g><g class="cls-7"><path class="cls-4" d="M237.28,95.22a1.6,1.6,0,0,1-.21.32,24.93,24.93,0,0,1-2.86-2C233,92.33,233,90,233,87.76a13.93,13.93,0,0,1,.9-5.29S233.6,90.89,237.28,95.22Z"/></g><g class="cls-10"><path class="cls-11" d="M209.21,69.67c-.37,4.44-9.86,4.45-11.53,11.23-.7,2.85.72,3.92.85,10,.13,5.88.4,8.84-1,10-2.42,2-9-1.45-10.67-6.67-.79-2.47-.09-4.13-1.42-9.34-.8-3.14-1.44-4-2.17-4.45s-1.71-.61-5.11,1.23c-4,2.15-6.37,3.45-8.12,6.44-2.55,4.35-.78,7.24-2.74,8.78-3.5,2.75-11.32-4.62-14.27-8a15.73,15.73,0,0,1-3.21-5.45c-.5-1.44-1.53-4.48-.77-6.73A17.75,17.75,0,0,1,152.89,75c4.76-1.42,6,.79,11.72,0,5.58-.78,7.21-3.24,13.61-6.23,3.9-1.82,4-1.22,17.95-4.56,2.66-.63,5.05-1.22,7.18-1.75C206.51,64.15,209.42,67.11,209.21,69.67Z"/></g><path class="cls-12" d="M153.55,87.79a16.05,16.05,0,0,1-3.21-5.45c-.55-1.63-1.8-5.3-.38-7.56s4.44-1.94,7-1.77,3.17.86,5.1,1c3.72.27,6.6-1.93,8.13-3,4.79-3.39,21.17-15,32.5-10.23,3.59,1.49,7.33,4.89,7.09,7.78-.37,4.43-9.87,4.45-11.53,11.23-.7,2.85.72,3.92.85,10,.13,5.88.39,8.84-1,10-2.42,2-9-1.44-10.68-6.66-.78-2.47-.08-4.13-1.41-9.34-.81-3.14-1.44-4-2.18-4.45s-1.7-.61-5.1,1.22c-4,2.16-6.38,3.45-8.13,6.45-2.54,4.35-.77,7.24-2.74,8.78C164.33,98.54,156.51,91.17,153.55,87.79Z"/><g class="cls-5"><path class="cls-13" d="M195.78,86.6c.39-.15,1.35,1.67,1.89,3.16a9.23,9.23,0,0,1,.57,5c-.11.44-.27,1-.59,1.08-.6,0-1.49-1.86-1.83-3.53a25.86,25.86,0,0,1-.16-3.29C195.61,86.88,195.66,86.65,195.78,86.6Z"/></g><path class="cls-4" d="M223.77,84.6a18.4,18.4,0,0,1-.55,3.38,3.31,3.31,0,0,1-.27.71,7.05,7.05,0,0,1-.7,1h0c-.28.31-.69.67-1.55,1.43-1.56,1.38-.34,2.59-.82,3.37-.16.26-.76,1.16-3.48,1.92-3,.84-4.64,1.3-5.93.24-1.46-1.2-1.22-2.07-2.86-3.36l-.21-.17a23.74,23.74,0,0,1-2.86-2c-1.26-1.21-1.24-3.53-1.22-5.77a13.9,13.9,0,0,1,.9-5.29c.1-.24.21-.48.32-.72a8.52,8.52,0,0,1,2.06-3,0,0,0,0,1,0,0l.15-.12.44-.29a8,8,0,0,1,1.23-.6c1.34-.51,2.37-.34,5.11-.61,3.37-.32,5.19-.79,6.34.25.89.81.14,2.07,1,4.57C222,82.6,223.89,83,223.77,84.6Z"/><g class="cls-5"><path class="cls-6" d="M223.77,84.6a18.4,18.4,0,0,1-.55,3.38c-1.18-8.7-11.76-11.9-14.79-12.64,1.34-.51,2.37-.34,5.11-.61,3.37-.32,5.19-.79,6.34.25.89.81.14,2.07,1,4.57C222,82.6,223.89,83,223.77,84.6Z"/></g><g class="cls-7"><path class="cls-4" d="M207.61,92.78a2.11,2.11,0,0,1-.21.31,23.74,23.74,0,0,1-2.86-2c-1.26-1.21-1.24-3.53-1.22-5.77a13.9,13.9,0,0,1,.9-5.29S203.93,88.45,207.61,92.78Z"/></g><path class="cls-8" d="M284.43,87.3c0,10.81-7.89,19.58-73.91,19.58-68.54,0-73.9-8.77-73.9-19.58,0,3.64,33.09,6.6,73.9,6.6S284.43,90.94,284.43,87.3Z"/><g class="cls-14"><path d="M176,104.33s16.17,1.3,33.67,1.3,37.13-1.8,37.13-1.8S215.22,112.8,176,104.33Z"/></g><g class="cls-5"><path class="cls-13" d="M137.2,88.14S150.53,96.51,250.66,93C250.82,93,151.11,99.89,137.2,88.14Z"/></g><g class="cls-5"><path class="cls-13" d="M193,62.93c0-.75,2.82-1.32,5-1.37,1.13,0,4.32-.06,6.47,2,.48.44,1.14,1.06,1,1.63-.29,1-3.13,1.43-5.36,1A26.42,26.42,0,0,1,196,64.56C193.29,63.39,193,63.17,193,62.93Z"/></g><g class="cls-15"><ellipse class="cls-13" cx="154.83" cy="75.06" rx="2.69" ry="1.06"/></g><g class="cls-15"><ellipse class="cls-13" cx="157.71" cy="76.51" rx="1.23" ry="0.61"/></g><path class="cls-16" d="M196.93,60.87a1.38,1.38,0,0,1-.56,1,1.49,1.49,0,0,0-.58,1c-.08,1,.8,1.49.85,2.62.05,1.39-1.17,2.91-2.28,2.71s-1.52-2.38-2.82-2.56c-.86-.12-1.14.74-1.81.37s-.48-1-1.3-2.29-1.36-1.24-1.61-2.15a2.55,2.55,0,0,1,.41-2.31c.56-.48,1,.31,2,.06a1,1,0,0,0,.3-.12h0c.92-.49,1.06-1.83,1.91-1.75.61.07.65.79,1.45,1.11,1.15.46,1.61-.8,2.6-.35A3,3,0,0,1,196.93,60.87Z"/><path class="cls-16" d="M186.83,70.17c-.85-.08-1.83-1.79-2.72-1.82-.58,0-.46.7-1,.45s-.67-.78-1.65-1.74-1.31-.88-1.79-1.6a2.72,2.72,0,0,1-.57-1.9c.18-.44.77.16,1.26-.12.66-.37.11-1.7.74-1.7.41,0,.7.58,1.32.77h0a.94.94,0,0,0,.35,0h0c.51-.07.5-.77,1.17-.54a4.07,4.07,0,0,1,1.87,2,1,1,0,0,1,0,.87,1.15,1.15,0,0,0,0,.9c.31.83,1,1.13,1.47,2C187.84,68.91,187.61,70.25,186.83,70.17Z"/><path class="cls-16" d="M184,65.79s7-1.71,7.05-10.61l-.82-.42A10.15,10.15,0,0,1,183.44,65C183.5,66.35,184,65.79,184,65.79Z"/><g class="cls-17"><path class="cls-13" d="M196.93,60.87a1.38,1.38,0,0,1-.56,1c-.4-2.92-6.6-2.72-6.88-2.63.92-.49,1.06-1.83,1.91-1.75.61.07.65.79,1.45,1.11,1.15.46,1.61-.8,2.6-.35A3,3,0,0,1,196.93,60.87Z"/></g><g class="cls-17"><path class="cls-13" d="M185.81,64a1,1,0,0,1,0,.87,2.22,2.22,0,0,1-.11-.22,3.9,3.9,0,0,0-2.94-2.09c.51-.07.5-.77,1.17-.54A4.07,4.07,0,0,1,185.81,64Z"/></g><ellipse class="cls-18" cx="175.35" cy="72.91" rx="1.23" ry="1.14"/><ellipse class="cls-18" cx="193.4" cy="72.91" rx="1.23" ry="1.14"/><path class="cls-18" d="M184.47,75.74a6.11,6.11,0,0,1-3.42-1,.54.54,0,0,1,.64-.86,5,5,0,0,0,2.78.78,5.38,5.38,0,0,0,2.86-.79.55.55,0,0,1,.74.13.53.53,0,0,1-.13.74A6.34,6.34,0,0,1,184.47,75.74Z"/><rect class="cls-19" y="0.25" width="300" height="165"/></g></g></svg>