<svg xmlns="http://www.w3.org/2000/svg" xmlns:xlink="http://www.w3.org/1999/xlink" viewBox="0 0 300 165.5"><defs><style>.cls-1{isolation:isolate;}.cls-2{fill:#fce5cd;}.cls-3{fill:#edc094;}.cls-4{fill:#637c3c;}.cls-5{fill:#ffedd4;}.cls-10,.cls-12,.cls-14,.cls-16,.cls-18,.cls-6{mix-blend-mode:soft-light;}.cls-7{fill:#984d18;}.cls-8{fill:#ffa81d;}.cls-9{fill:#ddbd97;}.cls-10{opacity:0.74;}.cls-11{fill:#fff;}.cls-12{opacity:0.43;}.cls-13{fill:#f9c273;}.cls-14{opacity:0.52;}.cls-15{fill:#ffe8d9;}.cls-16{opacity:0.49;}.cls-17{fill:#2e7915;}.cls-18{opacity:0.47;}.cls-19{fill:#bbf9bf;}.cls-20{fill:url(#linear-gradient);}</style><linearGradient id="linear-gradient" x1="150.37" y1="168.62" x2="149.66" y2="2.17" gradientUnits="userSpaceOnUse"><stop offset="0.03" stop-color="#591c16"/><stop offset="0.22" stop-color="#5f241d" stop-opacity="0.96"/><stop offset="0.38" stop-color="#733c33" stop-opacity="0.84"/><stop offset="0.53" stop-color="#936459" stop-opacity="0.64"/><stop offset="0.68" stop-color="#c09d8d" stop-opacity="0.36"/><stop offset="0.82" stop-color="#fae5cf" stop-opacity="0"/></linearGradient></defs><g class="cls-1"><g id="Layer_1" data-name="Layer 1"><rect class="cls-2" y="0.25" width="300" height="165"/><ellipse class="cls-3" cx="221.71" cy="70.02" rx="57.82" ry="18.84"/><path class="cls-4" d="M164.77,74.85a11.76,11.76,0,0,1-1-2.06,13.38,13.38,0,0,1-.61-2.19,5.54,5.54,0,0,1-.07-.57c0-.1,0-.2,0-.3v-.3a6.45,6.45,0,0,1,.14-1.15,8,8,0,0,1,.8-2.17,13,13,0,0,1,2.91-3.48,24.63,24.63,0,0,1,3.67-2.6,48.64,48.64,0,0,1,8.11-3.71,84.18,84.18,0,0,1,8.52-2.54,133,133,0,0,1,17.51-2.93A172.12,172.12,0,0,1,222.48,50a166.7,166.7,0,0,1,17.73.92,127.09,127.09,0,0,1,17.52,3,77.75,77.75,0,0,1,8.53,2.63c1.4.53,2.78,1.11,4.14,1.75a36.31,36.31,0,0,1,4,2.19,20.87,20.87,0,0,1,3.58,2.87,12.51,12.51,0,0,1,1.5,1.82,9.1,9.1,0,0,1,1.08,2.16,7.43,7.43,0,0,1,.4,2.44,10.89,10.89,0,0,1-.09,1.17c0,.39-.1.76-.17,1.14a15.84,15.84,0,0,1-.6,2.22,8.73,8.73,0,0,1-.49,1.08,4.26,4.26,0,0,1-.72,1l-.68-.54a5.25,5.25,0,0,0,.37-.91c.1-.33.17-.67.25-1,.14-.68.25-1.39.34-2.09,0-.35.08-.71.11-1.06s.06-.71.06-1a5.7,5.7,0,0,0-.31-1.91,9.11,9.11,0,0,0-2.19-3.38,19,19,0,0,0-3.3-2.65,33,33,0,0,0-3.77-2.11c-1.31-.63-2.64-1.2-4-1.71a78.61,78.61,0,0,0-8.36-2.62,124.77,124.77,0,0,0-17.3-3,177.35,177.35,0,0,0-35.19-.27,130.46,130.46,0,0,0-17.38,2.77A81.52,81.52,0,0,0,179,57.23a46.55,46.55,0,0,0-8,3.54,24.63,24.63,0,0,0-3.57,2.47,12,12,0,0,0-2.78,3.23,7,7,0,0,0-.76,2,5.11,5.11,0,0,0-.14,1,2.35,2.35,0,0,0,0,.26,2,2,0,0,0,0,.25c0,.17,0,.35.06.52a11.86,11.86,0,0,0,.56,2.08,11,11,0,0,0,.89,1.94Z"/><ellipse class="cls-5" cx="221.8" cy="86.41" rx="33.7" ry="10.05"/><g class="cls-6"><path d="M197.5,85.77c-3.4-1.51-21.47,10.88-24,8A23.09,23.09,0,0,1,168,76.69c.53-5.19,2.79-8.48,6.66-14.11,3.4-4.93,5.91-8.48,9.92-8.95,2.6-.3,3.39,1,8,.95a18.12,18.12,0,0,0,7.55-1.22c4.79-2.11,3.92-5.47,8.29-7.59,3.39-1.65,5.15-.22,10.37-1.22,6.12-1.18,6.29-4.48,10.21-4.48,4.35,0,8.48,3.53,10.37,6.78,2.43,4.18.61,6.93,3.11,8.68,2.13,1.5,4.09-.07,10.07.14,3.47.11,10,.33,12.43,3.79,2.07,2.89-.68,5.23,1.34,8.41,2.41,3.81,7.54,2.3,10.21,5.42,3.54,4.13.4,13.58-5.48,19-5.52,5.08-21.29-14.45-35.16-13.48C208,80.74,211.75,92.09,197.5,85.77Z"/></g><path class="cls-7" d="M197,83.66c-3.39-1.51-21.46,10.89-24,8a23.12,23.12,0,0,1-5.48-17.09c.54-5.19,2.79-8.47,6.67-14.1,3.39-4.94,5.9-8.49,9.92-8.95,2.59-.31,3.38,1,8,.94a18.08,18.08,0,0,0,7.55-1.22c4.79-2.11,3.92-5.47,8.3-7.59,3.39-1.65,5.14-.22,10.36-1.22,6.13-1.17,6.3-4.47,10.22-4.48,4.35,0,8.47,3.53,10.36,6.79,2.43,4.17.61,6.92,3.11,8.67,2.14,1.5,4.09-.06,10.07.14,3.47.12,10,.33,12.44,3.8,2.06,2.89-.69,5.23,1.33,8.4,2.41,3.81,7.54,2.31,10.22,5.43,3.53,4.13.4,13.57-5.48,19-5.52,5.08-21.3-14.45-35.16-13.48C207.55,78.64,211.26,90,197,83.66Z"/><path class="cls-2" d="M254.39,86.09A9.27,9.27,0,0,0,261.13,91h0l.53.1c5.6,1,11.59-3.21,12.82-10.64a25.52,25.52,0,0,0-.39-8.91h0c-.06-.31-.13-.61-.21-.91-1-4-3.1-7.62-6.52-8.32-4.72-1-8.71,3.25-11.21,7.7a23.66,23.66,0,0,0-2.72,7.09A15,15,0,0,0,254.39,86.09Z"/><ellipse class="cls-8" cx="263.38" cy="80.93" rx="7.83" ry="7.03" transform="translate(111.45 310.79) rotate(-73.62)"/><path class="cls-2" d="M252.32,65.11c5.93,2.62,5,14,2.92,19.22-2.85,7-9.62,9.83-14.88,7.7-6.53-2.64-7.61-8.62-4.92-15.4C237.2,72.21,245.32,62,252.32,65.11Z"/><ellipse class="cls-8" cx="244.29" cy="82.48" rx="7.87" ry="7" transform="matrix(0.51, -0.86, 0.86, 0.51, 48.54, 250.29)"/><path class="cls-9" d="M256.07,70.14s1.4,11-1.68,16C258.24,82.5,258.14,75.85,256.07,70.14Z"/><path class="cls-9" d="M261.13,91h0l.53.1c5.6,1,11.59-3.21,12.82-10.64a25.52,25.52,0,0,0-.39-8.91h0c-.13-.58-.21-.91-.21-.91S274.42,90,261.13,91Z"/><g class="cls-10"><path class="cls-11" d="M265.14,73.26s-6.25,1.71-7.75,6.25C257.38,72.84,263.18,73.23,265.14,73.26Z"/></g><g class="cls-10"><path class="cls-11" d="M246.34,75s-6.49.51-9.21,8.79C237,76.06,244.19,74.15,246.34,75Z"/></g><g class="cls-12"><path d="M270.45,81.13c.09-.17-1,8-8.28,7.52C262.05,88.62,267.23,87.6,270.45,81.13Z"/></g><g class="cls-12"><path d="M251.41,82.62c.08-.17-1,8-8.28,7.52C243,90.11,248.19,89.09,251.41,82.62Z"/></g><rect class="cls-4" x="204.27" y="123.1" width="36.72" height="4.99" rx="1.93"/><path class="cls-13" d="M185.93,95.44l-5.39-7.58-1.26-1.77-2.87-4h0l-8.62-12.11-.22-.3-.45-.64-.09-.13a3.91,3.91,0,0,1,1-5.32l1.39-1a3.91,3.91,0,0,1,5.45.92l8.31,11.67,2.87,4L187.32,81l6.38,9A3.91,3.91,0,0,1,194,94a4,4,0,0,1-1.14,1.3l0,0-.62.44-.78.55A3.9,3.9,0,0,1,185.93,95.44Z"/><g class="cls-12"><path d="M194,94l0,0-17.49-12h0l-9.31-6.36a3.91,3.91,0,0,1-1.7-3.21v0a4.23,4.23,0,0,1,.24-.4l1-1.41a3.59,3.59,0,0,1,1-1l-.45-.64-.09-.13,0,0a3.91,3.91,0,0,1,5.43-1l10.71,7.32,2.87,4,12.77,8.72a3.89,3.89,0,0,1,1.7,3.27c-.07.13-.15.26-.23.39l-.14.2L199.33,93A3.92,3.92,0,0,1,194,94Z"/></g><path class="cls-13" d="M193.45,95.77l-.64-.43-13.53-9.25-12.62-8.62a3.91,3.91,0,0,1-1.35-4.85l.09-.19a4.23,4.23,0,0,1,.24-.4l1-1.41a3.59,3.59,0,0,1,1-1,3.91,3.91,0,0,1,4.47,0l14,9.58,12.77,8.72a3.89,3.89,0,0,1,1.7,3.27,3.78,3.78,0,0,1-.68,2.16l0,.07-.93,1.35A3.9,3.9,0,0,1,193.45,95.77Z"/><path class="cls-4" d="M280.1,69.69c0,31.21-26.11,56.51-58.33,56.51s-58.34-25.3-58.34-56.51c0,10.53,26.12,19.06,58.34,19.06S280.1,80.22,280.1,69.69Z"/><g class="cls-14"><path d="M204.73,123.6s8.34.85,17.38.85a171.06,171.06,0,0,0,18.21-1.13S225,129.11,204.73,123.6Z"/></g><ellipse class="cls-15" cx="210.03" cy="103.16" rx="1.59" ry="1.54"/><ellipse class="cls-15" cx="233.44" cy="103.16" rx="1.59" ry="1.54"/><path class="cls-15" d="M221.87,106.75a7.43,7.43,0,0,1-4.33-1.3.48.48,0,0,1-.08-.68.49.49,0,0,1,.68-.09,6.57,6.57,0,0,0,3.73,1.1,7,7,0,0,0,3.81-1.1.49.49,0,1,1,.58.78A7.93,7.93,0,0,1,221.87,106.75Z"/><g class="cls-16"><path class="cls-11" d="M163.89,72.13s10.52,24.15,89.56,14C253.58,86.07,174.87,106,163.89,72.13Z"/></g><path class="cls-17" d="M231.75,67.82a1.66,1.66,0,0,0,.64,1.26,3.32,3.32,0,0,0,2.11.7c1.52,0,2.75-.88,2.75-2a2,2,0,0,0-1.37-1.69,3.57,3.57,0,0,0-1.38-.26C233,65.87,231.75,66.74,231.75,67.82Z"/><g class="cls-18"><path class="cls-19" d="M231.75,67.82a1.66,1.66,0,0,0,.64,1.26h0c.39-1.79,2.18-2.6,3.49-3a3.57,3.57,0,0,0-1.38-.26C233,65.87,231.75,66.74,231.75,67.82Z"/></g><path class="cls-17" d="M224.74,65.71l.42.19.76.33a1.24,1.24,0,0,0,1.62-.59l2.91-6.23a1.17,1.17,0,0,0-.61-1.57l-1.17-.51a1.13,1.13,0,0,0-.38-.1,1.21,1.21,0,0,0-1.24.69l-2.92,6.23A1.17,1.17,0,0,0,224.74,65.71Z"/><g class="cls-18"><path class="cls-19" d="M224.74,65.71l.42.19c-.21-1.37,2.19-6.66,3.13-8.67a1.21,1.21,0,0,0-1.24.69l-2.92,6.23A1.17,1.17,0,0,0,224.74,65.71Z"/></g><path class="cls-17" d="M202.89,59.56h0a1.17,1.17,0,0,0,.83,1.2,1.59,1.59,0,0,0,.3.06l3.79.25a1.21,1.21,0,0,0,1.31-1.1h0A1.2,1.2,0,0,0,208,58.71l-2.64-.17-1.16-.08A1.2,1.2,0,0,0,202.89,59.56Z"/><g class="cls-18"><path class="cls-19" d="M202.89,59.56h0a1.17,1.17,0,0,0,.83,1.2c.59-.71,1.2-1.59,1.63-2.23l-1.16-.08A1.2,1.2,0,0,0,202.89,59.56Z"/></g><path class="cls-17" d="M215.89,51l.55,1.64.63,1.86a1.22,1.22,0,0,0,1.54.75h0a1.17,1.17,0,0,0,.78-1.49l-1.18-3.5a1.19,1.19,0,0,0-.3-.48,1.26,1.26,0,0,0-1.24-.28h0A1.18,1.18,0,0,0,215.89,51Z"/><g class="cls-18"><path class="cls-19" d="M215.89,51l.55,1.64a6.91,6.91,0,0,1,1.48-2.86,1.26,1.26,0,0,0-1.24-.28h0A1.18,1.18,0,0,0,215.89,51Z"/></g><path class="cls-17" d="M212.19,70.56a1.2,1.2,0,0,0,.89,1.15h0a1.22,1.22,0,0,0,1.51-.81l1-3.55a1.16,1.16,0,0,0-.19-1,1.22,1.22,0,0,0-.65-.45h0a1.23,1.23,0,0,0-1.51.81l-1,3.55A1.67,1.67,0,0,0,212.19,70.56Z"/><g class="cls-18"><path class="cls-19" d="M212.19,70.56a18.06,18.06,0,0,1,3.26-4.22,1.22,1.22,0,0,0-.65-.45h0a1.23,1.23,0,0,0-1.51.81l-1,3.55A1.67,1.67,0,0,0,212.19,70.56Z"/></g><path class="cls-17" d="M232.11,53h3.81a1.2,1.2,0,0,0,1.22-1.18v0a1.2,1.2,0,0,0-1.22-1.18h-3.8a1.25,1.25,0,0,0-.56.13,1.19,1.19,0,0,0-.67,1h0A1.19,1.19,0,0,0,232.11,53Z"/><g class="cls-18"><path class="cls-19" d="M232.11,53h1.79a7.12,7.12,0,0,1-2.34-2.25,1.19,1.19,0,0,0-.67,1h0A1.19,1.19,0,0,0,232.11,53Z"/></g><path class="cls-17" d="M230.88,48a1.23,1.23,0,0,0,1.4-.46h0a1.15,1.15,0,0,0-.33-1.64l-3.15-2.06a1.23,1.23,0,0,0-1.05-.14,1.16,1.16,0,0,0-.65.46h0a1.17,1.17,0,0,0,.33,1.64l3.16,2.06A1.11,1.11,0,0,0,230.88,48Z"/><g class="cls-18"><path class="cls-19" d="M230.88,48a17.89,17.89,0,0,1-3.12-4.31,1.16,1.16,0,0,0-.65.46h0a1.17,1.17,0,0,0,.33,1.64l3.16,2.06A1.11,1.11,0,0,0,230.88,48Z"/></g><path class="cls-17" d="M211.82,54.55a2,2,0,0,0,.39,1.16,2.77,2.77,0,0,0,2.24,1,2.45,2.45,0,0,0,2.63-2.21,2.09,2.09,0,0,0-1-1.74,2.93,2.93,0,0,0-1.61-.47A2.45,2.45,0,0,0,211.82,54.55Z"/><g class="cls-18"><path class="cls-19" d="M211.82,54.55a2,2,0,0,0,.39,1.16,8.33,8.33,0,0,1,3.85-2.9,2.93,2.93,0,0,0-1.61-.47A2.45,2.45,0,0,0,211.82,54.55Z"/></g><path class="cls-13" d="M214.24,49.53l-6.88,2.56-1.61.59-3.66,1.37h0l-11,4.09-.28.1-.57.21-.12,0a3.09,3.09,0,0,1-3.85-1.86l-.47-1.27a3.08,3.08,0,0,1,1.81-4l10.59-3.94,3.67-1.37,1.6-.59,8.13-3a3.1,3.1,0,0,1,3.2.65,3.17,3.17,0,0,1,.76,1.13,0,0,0,0,0,0,0l.21.56.26.71A3.1,3.1,0,0,1,214.24,49.53Z"/><g class="cls-12"><path d="M214.81,43.13l0,0L202.09,54.05h0l-6.75,5.79a3.09,3.09,0,0,1-2.79.64h0a2.11,2.11,0,0,1-.25-.27l-.89-1a3.45,3.45,0,0,1-.55-.94l-.57.21-.12,0,0,0a3.09,3.09,0,0,1,.34-4.35l7.76-6.66,3.67-1.37,9.25-7.94a3.06,3.06,0,0,1,2.84-.63,3.07,3.07,0,0,1,.25.26l.13.15.75.88A3.07,3.07,0,0,1,214.81,43.13Z"/></g><g class="cls-12"><path d="M216,43.87l-.46.39a0,0,0,0,0,0,0l.21.56-8.43,7.24-1.61.59-9.15,7.86a3.1,3.1,0,0,1-4,0l-.08-.1-.76-.88a3.09,3.09,0,0,1,.34-4.35l11.35-9.74,8.07-6.93a3.07,3.07,0,0,1,2.8-.64,3,3,0,0,1,1.17.6l.84,1A3.09,3.09,0,0,1,216,43.87Z"/></g><path class="cls-13" d="M216,43.87l-.46.39-9.82,8.42-9.15,7.86a3.1,3.1,0,0,1-4,0l-.12-.11a2.11,2.11,0,0,1-.25-.27l-.89-1a3.45,3.45,0,0,1-.55-.94,3.08,3.08,0,0,1,.89-3.41l10.17-8.73,9.25-7.94a3.09,3.09,0,0,1,4.35.33l0,0,.84,1A3.09,3.09,0,0,1,216,43.87Z"/><rect class="cls-20" y="0.25" width="300" height="165"/></g></g></svg>