<svg xmlns="http://www.w3.org/2000/svg" xmlns:xlink="http://www.w3.org/1999/xlink" viewBox="0 0 300 165"><defs><style>.cls-1{isolation:isolate;}.cls-2{fill:#fce5cd;}.cls-3{fill:#9b4e23;}.cls-4{fill:#c1272d;}.cls-5{opacity:0.52;}.cls-5,.cls-6{mix-blend-mode:soft-light;}.cls-7{fill:#fff;}.cls-8{fill:#f4e1ce;}.cls-9{fill:url(#linear-gradient);}</style><linearGradient id="linear-gradient" x1="150.37" y1="168.37" x2="149.66" y2="1.92" gradientUnits="userSpaceOnUse"><stop offset="0.03" stop-color="#591c16"/><stop offset="0.22" stop-color="#5f241d" stop-opacity="0.96"/><stop offset="0.38" stop-color="#733c33" stop-opacity="0.84"/><stop offset="0.53" stop-color="#936459" stop-opacity="0.64"/><stop offset="0.68" stop-color="#c09d8d" stop-opacity="0.36"/><stop offset="0.82" stop-color="#fae5cf" stop-opacity="0"/></linearGradient></defs><g class="cls-1"><g id="Layer_1" data-name="Layer 1"><rect class="cls-2" x="-0.27" y="-0.15" width="300" height="165"/><rect class="cls-3" x="216.66" y="75.23" width="2.51" height="63.92" transform="translate(-7.92 17.87) rotate(-4.61)"/><path class="cls-4" d="M227.15,103.72A9.52,9.52,0,0,1,218.46,114h0a9.52,9.52,0,0,1-8.15-15.5q.3-.36.63-.69a9.45,9.45,0,0,1,6-2.78h0a9.49,9.49,0,0,1,6.32,1.79,8.35,8.35,0,0,1,.81.66A9.44,9.44,0,0,1,227.15,103.72Z"/><g class="cls-5"><path d="M224.06,97.44a9.49,9.49,0,0,1-6.62,3.47h0a9.48,9.48,0,0,1-7.13-2.44q.3-.36.63-.69A9.51,9.51,0,0,1,207.18,92,9.5,9.5,0,0,1,210,84.6a10,10,0,0,1,1-.85,9.42,9.42,0,0,1,4.84-1.81h0A9.54,9.54,0,0,1,226,89.48a9.48,9.48,0,0,1-2.75,7.3A8.35,8.35,0,0,1,224.06,97.44Z"/></g><path class="cls-4" d="M226,89.31a1,1,0,0,0,0,.17,9.53,9.53,0,0,1-8.7,10.08h0A9.51,9.51,0,0,1,207.18,92a8.91,8.91,0,0,1-.17-1.17,9.51,9.51,0,0,1,2.2-6.89,10,10,0,0,1,.77-.82,9.49,9.49,0,0,1,5.75-2.55h0a9.45,9.45,0,0,1,6,1.6,7.76,7.76,0,0,1,1,.74A9.53,9.53,0,0,1,226,89.31Z"/><g class="cls-5"><path d="M224.81,74.82h0l-1.31,5.26a9.74,9.74,0,0,1-1.69,2.1,7.76,7.76,0,0,1,1,.74,7.18,7.18,0,0,1-.65.7,9.51,9.51,0,0,1-5.87,2.67h0A9.51,9.51,0,0,1,210,84.6a10.31,10.31,0,0,1-.83-.65,10,10,0,0,1,.77-.82,9.53,9.53,0,0,1-4-5.92h0a9.47,9.47,0,0,1,2.83-7.2,9,9,0,0,1,.88-.76,9.39,9.39,0,0,1,5-1.94,9.51,9.51,0,0,1,5.2,1.06A10.59,10.59,0,0,1,221,69,9.54,9.54,0,0,1,224.81,74.82Z"/></g><path class="cls-4" d="M224.79,74.47c0,.11,0,.23,0,.35h0a9.52,9.52,0,0,1-1.31,5.26,9.74,9.74,0,0,1-1.69,2.1,10.18,10.18,0,0,1-.87.73,9.51,9.51,0,0,1-4.84,1.81h0A9.51,9.51,0,0,1,206,77.21h0a8,8,0,0,1-.18-1.21,9.49,9.49,0,0,1,2.08-6.74,7.63,7.63,0,0,1,.66-.73,9.49,9.49,0,0,1,12.34-1,7.9,7.9,0,0,1,.84.69A9.45,9.45,0,0,1,224.79,74.47Z"/><g class="cls-5"><path d="M221.73,68.22A9.2,9.2,0,0,1,221,69a9.53,9.53,0,0,1-13.11.23,7.63,7.63,0,0,1,.66-.73,9.48,9.48,0,0,1-3.73-5.76,9.5,9.5,0,0,1,3-7.43,9.62,9.62,0,0,1,.92-.77,9.49,9.49,0,0,1,9.89-.84,10.37,10.37,0,0,1,1.11.65,9.48,9.48,0,0,1,3.95,5.91,9.47,9.47,0,0,1-2.75,7.24A7.9,7.9,0,0,1,221.73,68.22Z"/></g><path class="cls-4" d="M223.63,60.06c0,.08,0,.15,0,.23a9.47,9.47,0,0,1-2.75,7.24,9.62,9.62,0,0,1-1,.84,9.36,9.36,0,0,1-5,1.94,9.53,9.53,0,0,1-5.2-1.06,11.14,11.14,0,0,1-1.15-.72,9.48,9.48,0,0,1-3.73-5.76,9.06,9.06,0,0,1-.17-1.18,9.51,9.51,0,0,1,2.23-6.93,9.85,9.85,0,0,1,.7-.74,9.5,9.5,0,0,1,11.92-1c.31.21.6.44.89.68A9.5,9.5,0,0,1,223.63,60.06Z"/><g class="cls-5"><path d="M219.5,53c.31.21.6.44.89.68-.22.26-.46.5-.7.74a9.54,9.54,0,0,1-11.92,1c-.31-.21-.6-.44-.89-.68a9.85,9.85,0,0,1,.7-.74,9.52,9.52,0,0,1-4-5.92,9.52,9.52,0,0,1,18.82-2.47A9.5,9.5,0,0,1,219.5,53Z"/></g><path class="cls-4" d="M222.43,45.29a1.94,1.94,0,0,1,0,.24A9.5,9.5,0,0,1,219.5,53a11.36,11.36,0,0,1-.92.77,9.52,9.52,0,0,1-15-5.73,9.06,9.06,0,0,1-.17-1.18,9.52,9.52,0,1,1,19-1.53Z"/><g class="cls-6"><circle class="cls-7" cx="215.82" cy="41.59" r="1.86"/></g><g class="cls-6"><circle class="cls-7" cx="219.43" cy="59.68" r="1.57"/></g><g class="cls-6"><circle class="cls-7" cx="220.24" cy="73.25" r="1.57"/></g><g class="cls-6"><circle class="cls-7" cx="221.44" cy="88.17" r="1.57"/></g><g class="cls-6"><circle class="cls-7" cx="222.65" cy="103.08" r="1.57"/></g><circle class="cls-8" cx="208.69" cy="50.23" r="0.72"/><circle class="cls-8" cx="217.86" cy="49.49" r="0.72"/><path class="cls-8" d="M213.47,51.52a3.28,3.28,0,0,1-2-.45.21.21,0,0,1-.06-.3.22.22,0,0,1,.3-.05,2.92,2.92,0,0,0,1.73.37,3.1,3.1,0,0,0,1.68-.65.22.22,0,0,1,.3,0,.22.22,0,0,1,0,.31A3.54,3.54,0,0,1,213.47,51.52Z"/><rect class="cls-3" x="210.41" y="91.02" width="60.34" height="2.37" transform="translate(116.04 317.75) rotate(-82.06)"/><path class="cls-4" d="M249.8,90.9a9,9,0,0,1-10.11,7.66h0a9,9,0,0,1-4.33-16q.34-.27.72-.51a9,9,0,0,1,6.09-1.34h0A9,9,0,0,1,249.8,90.9Z"/><g class="cls-5"><path d="M248.24,84.47a8.94,8.94,0,0,1-6.81,1.85h0a8.94,8.94,0,0,1-6.07-3.71q.34-.27.72-.51A9,9,0,0,1,233.8,76,8.92,8.92,0,0,1,238,69.77a9.5,9.5,0,0,1,1.09-.58,8.94,8.94,0,0,1,4.83-.68h0a8.9,8.9,0,0,1,4.43,1.92,7.53,7.53,0,0,1,1,.91,8.92,8.92,0,0,1,2.36,6.19,9,9,0,0,1-4,6.16A9,9,0,0,1,248.24,84.47Z"/></g><path class="cls-4" d="M251.69,77.38l0,.16A9,9,0,0,1,241.58,85h0a9,9,0,0,1-7.74-9,8.56,8.56,0,0,1,.08-1.12A9,9,0,0,1,244,67.23h0A8.94,8.94,0,0,1,249.3,70a7.76,7.76,0,0,1,.74.89A9,9,0,0,1,251.69,77.38Z"/><g class="cls-5"><path d="M253.57,63.78h0l-2.29,4.58a8.93,8.93,0,0,1-2,1.59,7.76,7.76,0,0,1,.74.89c-.24.18-.48.35-.74.51a8.94,8.94,0,0,1-6,1.25h0A8.89,8.89,0,0,1,238,69.77a7.68,7.68,0,0,1-.63-.78,9,9,0,0,1,.88-.59,8.93,8.93,0,0,1-2.47-6.27h0a9,9,0,0,1,14.66-5.29,8.33,8.33,0,0,1,.85.83A8.92,8.92,0,0,1,253.57,63.78Z"/></g><path class="cls-4" d="M253.63,63.46l-.06.32h0A9,9,0,0,1,249.3,70a8.67,8.67,0,0,1-1,.49,8.9,8.9,0,0,1-4.82.68h0a8.8,8.8,0,0,1-5.27-2.72,8.93,8.93,0,0,1-2.47-6.27h0a9.17,9.17,0,0,1,.08-1.16,8.93,8.93,0,0,1,3.3-5.78,6.56,6.56,0,0,1,.76-.54,9,9,0,0,1,11.58,1.61,9.77,9.77,0,0,1,.63.81A9,9,0,0,1,253.63,63.46Z"/><g class="cls-5"><path d="M252.09,57.07q-.41.32-.84.6a9,9,0,0,1-11.42-1.6,8.54,8.54,0,0,1-.71-.88,6.56,6.56,0,0,1,.76-.54,9,9,0,0,1-2.26-6.07,9,9,0,0,1,4.25-6.24,7.29,7.29,0,0,1,1-.52,8.87,8.87,0,0,1,4.86-.68,9,9,0,0,1,4.43,1.93,8.67,8.67,0,0,1,.89.83,9,9,0,0,1,2.43,6.26,9,9,0,0,1-4,6.1A9.77,9.77,0,0,1,252.09,57.07Z"/></g><path class="cls-4" d="M255.51,49.94l0,.22a9,9,0,0,1-4,6.1,8.36,8.36,0,0,1-1.06.58,9,9,0,0,1-9.61-1.29,9.66,9.66,0,0,1-.91-.9,9,9,0,0,1-2.26-6.07,11,11,0,0,1,.09-1.13,8.94,8.94,0,0,1,3.48-5.92A6.23,6.23,0,0,1,242,41a9,9,0,0,1,11.17,1.56,6.63,6.63,0,0,1,.68.81A8.92,8.92,0,0,1,255.51,49.94Z"/><g class="cls-5"><path d="M253.16,42.55a6.63,6.63,0,0,1,.68.81c-.25.19-.52.37-.79.54a9,9,0,0,1-11.18-1.56,8.58,8.58,0,0,1-.68-.81A6.23,6.23,0,0,1,242,41a9,9,0,0,1-2.44-6.26,9,9,0,0,1,17.86,1.57A9,9,0,0,1,253.16,42.55Z"/></g><path class="cls-4" d="M257.44,36.08l0,.22a9,9,0,0,1-4.25,6.25,8.59,8.59,0,0,1-1,.52,9,9,0,0,1-9.29-1.25A9.91,9.91,0,0,1,242,41a9,9,0,0,1-2.44-6.26,10.75,10.75,0,0,1,.09-1.13,9,9,0,1,1,17.8,2.48Z"/><g class="cls-6"><circle class="cls-7" cx="252.1" cy="31.31" r="1.76"/></g><g class="cls-6"><circle class="cls-7" cx="251.72" cy="48.73" r="1.49"/></g><g class="cls-6"><circle class="cls-7" cx="249.68" cy="61.4" r="1.49"/></g><g class="cls-6"><circle class="cls-7" cx="247.73" cy="75.39" r="1.49"/></g><g class="cls-6"><circle class="cls-7" cx="245.78" cy="89.38" r="1.49"/></g><circle class="cls-8" cx="243.77" cy="37.82" r="0.68"/><circle class="cls-8" cx="252.36" cy="39.02" r="0.68"/><path class="cls-8" d="M247.9,40a3.09,3.09,0,0,1-1.75-.83.2.2,0,0,1,.29-.28,2.82,2.82,0,0,0,1.52.71,3.06,3.06,0,0,0,1.69-.26.19.19,0,0,1,.27.07.21.21,0,0,1-.07.28A3.36,3.36,0,0,1,247.9,40Z"/><rect class="cls-9" width="300" height="165"/></g></g></svg>