<svg xmlns="http://www.w3.org/2000/svg" xmlns:xlink="http://www.w3.org/1999/xlink" viewBox="0 0 300 165.5"><defs><style>.cls-1{isolation:isolate;}.cls-2{fill:#fce5cd;}.cls-3{fill:#f7cda9;}.cls-4{fill:#7f2f19;}.cls-5{fill:#00922b;}.cls-6{opacity:0.54;}.cls-16,.cls-18,.cls-21,.cls-6,.cls-7,.cls-9{mix-blend-mode:soft-light;}.cls-7{opacity:0.68;}.cls-8{fill:#fc9447;}.cls-10{fill:#f4a69a;}.cls-11{fill:#f48d7f;}.cls-12{fill:#ff7a55;}.cls-13{fill:#f4543f;}.cls-14{fill:#f43b31;}.cls-15{fill:#b5e55a;}.cls-16{opacity:0.49;}.cls-17{fill:#fff;}.cls-18{opacity:0.36;}.cls-19{fill:#0a561d;}.cls-20{fill:#93251d;}.cls-21{opacity:0.52;}.cls-22{fill:#ffe8d9;}.cls-23{fill:url(#linear-gradient);}</style><linearGradient id="linear-gradient" x1="150.37" y1="168.62" x2="149.66" y2="2.17" gradientUnits="userSpaceOnUse"><stop offset="0.03" stop-color="#591c16"/><stop offset="0.22" stop-color="#5f241d" stop-opacity="0.96"/><stop offset="0.38" stop-color="#733c33" stop-opacity="0.84"/><stop offset="0.53" stop-color="#936459" stop-opacity="0.64"/><stop offset="0.68" stop-color="#c09d8d" stop-opacity="0.36"/><stop offset="0.82" stop-color="#fae5cf" stop-opacity="0"/></linearGradient></defs><g class="cls-1"><g id="Layer_1" data-name="Layer 1"><rect class="cls-2" y="0.25" width="300" height="165"/><ellipse class="cls-3" cx="208.66" cy="78.37" rx="68.86" ry="17.36"/><path class="cls-4" d="M140.86,82.83a10.16,10.16,0,0,1-1.21-2,9.09,9.09,0,0,1-.73-2.15,3.8,3.8,0,0,1-.06-.59,3.62,3.62,0,0,1,0-.57,5.29,5.29,0,0,1,.25-1.13,7.37,7.37,0,0,1,1.16-2.06A15.22,15.22,0,0,1,144,71.17a33.68,33.68,0,0,1,4.46-2.33,72.34,72.34,0,0,1,9.66-3.31c3.31-.89,6.67-1.63,10.06-2.26a201.75,201.75,0,0,1,20.55-2.62q10.35-.81,20.76-.8t20.77.81a197.12,197.12,0,0,1,20.57,2.68c3.39.65,6.75,1.41,10.06,2.34a62.48,62.48,0,0,1,9.66,3.49A27.89,27.89,0,0,1,275,71.71a15.92,15.92,0,0,1,1.93,1.64,9.22,9.22,0,0,1,1.51,2,5.67,5.67,0,0,1,.71,2.37c0,.1,0,.21,0,.31s0,.21,0,.31a5.44,5.44,0,0,1-.05.58,12.23,12.23,0,0,1-.92,3.31,6.57,6.57,0,0,1-.59,1.06,3.81,3.81,0,0,1-.89,1l-.76-.54a6.29,6.29,0,0,0,.77-1.86,19.9,19.9,0,0,0,.41-2c0-.35.1-.69.13-1,0-.17,0-.34,0-.51s0-.31,0-.46a4.4,4.4,0,0,0-.55-1.82,9.85,9.85,0,0,0-3-3.11,25.74,25.74,0,0,0-4.1-2.39,61.54,61.54,0,0,0-9.33-3.4c-3.23-.92-6.54-1.68-9.88-2.32a194.12,194.12,0,0,0-20.34-2.72c-6.85-.57-13.73-.85-20.61-.9s-13.78.17-20.63.66a201.42,201.42,0,0,0-20.42,2.47c-3.37.59-6.7,1.29-10,2.14a70.15,70.15,0,0,0-9.54,3.16,33,33,0,0,0-4.36,2.21A14.42,14.42,0,0,0,141,74.74a6.4,6.4,0,0,0-1.08,1.84,4.9,4.9,0,0,0-.28,1.51,4.28,4.28,0,0,0,0,.49,8.49,8.49,0,0,0,.65,2,9.58,9.58,0,0,0,1.11,1.88Z"/><path class="cls-5" d="M205,73.05c-1.44,1.77-3.08,2.88-4.71,2.91a5.39,5.39,0,0,1-3.5-1.52c-3.32-2.87-6.09-9.26-6.92-14.34-.18-1.09-.17-1.57,1.34-10.2.35-2,.77-4.36,1.29-7.28.15-.81.3-1.67.46-2.58.78-4.39,1.25-7.06,2.7-7.28.85-.12,2.33.55,6.37,7.61a125.4,125.4,0,0,1,6.09,11.37c.3.7.56,1.38.78,2a15.49,15.49,0,0,1,.85,4.55A24.29,24.29,0,0,1,205,73.05Z"/><g class="cls-6"><path d="M205,73.05c-.67-1.19-.81-2.74-1-5.18-.32-3.4-.68-7.23,1.35-10.84.64-1.14,1.33-1.92,3.59-3.26a15.49,15.49,0,0,1,.85,4.55A24.29,24.29,0,0,1,205,73.05Z"/></g><path class="cls-5" d="M238.09,60.26A21.88,21.88,0,0,1,226.7,73.53a29.19,29.19,0,0,1-6.25,2c-4.51.94-9.26.83-11.7-1.4-1.12-1-1.47-2.26-1.71-4.24,0-.19,0-.38-.07-.58-.05-.46-.09-1-.15-1.49-.31-3.4-.67-7.23,1.36-10.84.73-1.3,1.51-2.13,4.6-3.85h0c2.59-1.44,6.78-3.5,13.89-7,5.33-2.61,8-3.9,9.46-3.4a5.11,5.11,0,0,1,2.91,3.58h0a11.3,11.3,0,0,1,.34,1.39h0A26.09,26.09,0,0,1,238.09,60.26Z"/><g class="cls-7"><path d="M196.76,74.44c-3.32-2.87-6.09-9.26-6.92-14.34-.18-1.09-.17-1.57,1.34-10.2h0s-.37,19.42,10,20.39C208.36,71,202,73.33,196.76,74.44Z"/></g><g class="cls-7"><path d="M238.09,60.26A21.88,21.88,0,0,1,226.7,73.53a29.19,29.19,0,0,1-6.25,2c-4.52-1.57-12-4.32-13.41-5.64-.27-.25-.31-.45-.07-.58.55-.3,2.58-.24,6.82.39,20.28,3,25.28-23.39,25.28-23.39h0C240.24,50.09,239.69,55.82,238.09,60.26Z"/></g><ellipse class="cls-8" cx="208.66" cy="84.03" rx="68.86" ry="17.36"/><g class="cls-7"><path d="M220.73,74.79a7.39,7.39,0,0,1-1.11,1.85,12.53,12.53,0,0,0-3.72,0,8.27,8.27,0,0,0-1.88.51l-.25.11A12.83,12.83,0,0,1,210,78.5l-1.15-3-.07-.19-.54-.22c.79.12,1.77-.67,2.62-1h0l.21-.08h0l.1,0h0l.13-.05.13,0h0l.2-.08.2-.09a5.58,5.58,0,0,0,1.34-.79l.07-.06.07-.07a.74.74,0,0,0,.12-.13,1.35,1.35,0,0,0,.39-1.3,2,2,0,0,0-.33-.69,1.37,1.37,0,0,1,.32-1.76,4.71,4.71,0,0,1,1-.79,4.53,4.53,0,0,1,1.14-.48,13,13,0,0,1,2.14-.38c1.51-.18,3.07.35,3.41,1.56A9.67,9.67,0,0,1,220.73,74.79Z"/><g class="cls-9"><path d="M214,77.11l-.25.11A12.83,12.83,0,0,1,210,78.5l-.29,0a12,12,0,0,1-4.63-.16A7.84,7.84,0,0,1,202,76.87l-.33-.24-.09.08.08-.09c1-1.1,2.12-2.35,3-3.23L205,73l.26-.27h0c.2.26.38.53.57.79l.27.35h0a3,3,0,0,0,1.37,1c1,.34,2.28-.43,3.41-.82h0l.21-.08h0l.1,0c-.64.49-.75.9-.55,1.27l0,0C211.17,76,213,76.61,214,77.11Z"/></g><path d="M201.59,76.71l-.33.37A2.35,2.35,0,0,1,201.59,76.71Z"/><path d="M201.68,76.63l-.09.08.08-.09-.07-.05c1-1.14,2.17-2.41,3-3.25l.18-.19.41-.41,0,0h0l0,0c.2.26.38.53.57.79l.27.35h0a3,3,0,0,0,1.37,1c1,.34,2.28-.43,3.41-.82h0l.22-.07h0c-.7.5-.83.93-.63,1.32h0c.43.81,2.31,1.39,3.33,1.9A12.83,12.83,0,0,1,210,78.5l-.29,0a12,12,0,0,1-4.63-.16A7.84,7.84,0,0,1,202,76.87Z"/><g class="cls-9"><path d="M201.26,77.08a2.35,2.35,0,0,1,.33-.37Z"/></g><g class="cls-9"><path d="M206.09,73.89h0a3.49,3.49,0,0,1-.18.4c-.06.11-.13.24-.21.37l0,0a3.28,3.28,0,0,1-2.59,1.71,1.93,1.93,0,0,0-1.08.47l-.33-.24-.09.08.08-.09-.07-.05a3.53,3.53,0,0,0-2.11-.78,3.09,3.09,0,0,0-1.7.45,8.79,8.79,0,0,1-1-3.93c0-.11,0-.23,0-.35s0-.25,0-.37a6.47,6.47,0,0,1,.37-1.64c0-.07.05-.13.07-.19l0-.07c1.68-.56,4.14-1.33,5.08-1a3.71,3.71,0,0,0,1.61,0l.36-.07a3.72,3.72,0,0,0-.27,1c0,.12,0,.24,0,.36a2.74,2.74,0,0,0,0,.5,1.16,1.16,0,0,0,0,.18,3.84,3.84,0,0,0,.27.83c.06.13.13.26.2.38a6.54,6.54,0,0,0,.59.89h0l0,0h0l0,0,0,0c.2.26.38.53.57.79Z"/></g><path d="M205.81,73.54a3.39,3.39,0,0,1-.21.48,4.16,4.16,0,0,1-.22.4,3.33,3.33,0,0,1-2.6,1.7,2,2,0,0,0-1.1.51l-.09.08.08-.09-.07-.05a3.53,3.53,0,0,0-2.11-.78,3.09,3.09,0,0,0-1.7.45l-.13.07a9.26,9.26,0,0,1-1.18-3.93v0h0V72a6.56,6.56,0,0,1,.41-2.36,1.59,1.59,0,0,1,.07-.2l0-.06.18-.06c1.68-.55,4-1.26,4.91-1a4.89,4.89,0,0,0,2-.13l.4-.07a.83.83,0,0,1-.07.13v0h0a.3.3,0,0,0,0,.08l0,.11h0a3.72,3.72,0,0,0-.27,1c0,.12,0,.24,0,.36a2.74,2.74,0,0,0,0,.5,1.16,1.16,0,0,0,0,.18,3.84,3.84,0,0,0,.27.83c.06.13.13.26.2.38a6.54,6.54,0,0,0,.59.89h0l0,0C205.45,73,205.62,73.28,205.81,73.54Z"/><g class="cls-9"><path d="M204.16,62.51l0,0-.08.09-.09.11,0,0,0,0,0,.07a2.14,2.14,0,0,0-.13.19l0,0h-.11l-.15,0h0a.8.8,0,0,0-.22,0h0a.35.35,0,0,0-.22.08,14.36,14.36,0,0,0-5.82,6.22l-.09.2-.08.2a.14.14,0,0,0,0,.06c0,.07-.05.13-.08.19a6.83,6.83,0,0,0-.4,2c0,.1,0,.21,0,.31h0v0h0a3.91,3.91,0,0,1,.3-.41c1.22-1.44,3.14-1.49,3.87-.85s2-.09,2.74-.66l.06,0c.18-.13.32-.25.43-.34l.17-.15c0-.12,0-.24,0-.36a3.72,3.72,0,0,1,.27-1h0l0-.11a.3.3,0,0,1,0-.08h0v0a.83.83,0,0,0,.07-.13l.06-.11a1.75,1.75,0,0,1,.16-.25c.21-.33.49-.66.71-1h0a3.31,3.31,0,0,0,.18-.29,1.73,1.73,0,0,0,.16-.37h0l.32-.06h0l-.84-1.56c-.07-.12-.14-.25-.2-.38-.25-.45-.49-.9-.72-1.34Z"/></g><path d="M204.15,62.17l0,0-.07.09a.44.44,0,0,0-.09.11l0,0v0l0,0-.06.07c0,.07-.09.13-.13.19l0,.05-.06,0h-.06l-.15,0c-.36,0-.45.08-.45.08a14.28,14.28,0,0,0-5.91,6.42l-.09.2a.14.14,0,0,1,0,.06,1.59,1.59,0,0,0-.07.2,6.79,6.79,0,0,0-.41,2.36v0a2.88,2.88,0,0,1,.33-.43c1.22-1.41,3.11-1.45,3.84-.82s2-.13,2.8-.71l.42-.34.19-.17a3.72,3.72,0,0,1,.27-1h0l0-.11a.3.3,0,0,1,0-.08h0v0a.83.83,0,0,0,.07-.13l.06-.11a1.75,1.75,0,0,1,.16-.25c.21-.33.49-.66.71-1h0a3.31,3.31,0,0,0,.18-.29,1.73,1.73,0,0,0,.16-.37h0l.32-.06h0l.13,0c-.33-.62-.77-1.42-1.21-2.25l-.72-1.34Z"/><g class="cls-9"><path d="M203.94,62.43h0l0,0-.06.07c0,.07-.09.13-.13.19a.05.05,0,0,1-.07,0h-.07l-.15,0c-.51.66-.59,1.4-.09,1.52.57-.11,2.26,1.66,2.31,1.71h0c0-.06-.34-1.2-.6-2.1-.16-.53-.29-1-.33-1a1.06,1.06,0,0,0-.39-.31A.85.85,0,0,0,203.94,62.43Z"/></g><path d="M210.11,57.25c-1.16.33-2.35,1.66-3.24,2.53l-.16.15-.16.15-.17.14a.69.69,0,0,1-.13.11l-.27.23-.13.11-.33.26,0,0-.18.15-.23.19-.12.11-.18.15a7.38,7.38,0,0,0-.63.62l0,0-.07.09-.09.11,0,0v0l0,0-.06.07-.06.1-.07.09h0a.05.05,0,0,1-.07,0h0a.08.08,0,0,0-.07,0l0,.06h0a1.88,1.88,0,0,0-.09.19.56.56,0,0,0,.31.82,4.83,4.83,0,0,1,1.9,2.07h0a.44.44,0,0,0,.45.18h0l.13,0,.42-.09.19,0,.23,0,.16,0a4.34,4.34,0,0,0,.64-.2,2.34,2.34,0,0,0,.95-.67c.88-1,1-2.66,1.51-3.67a19.78,19.78,0,0,1,1.14-1.92c.14-.23.29-.45.44-.68s.7-.92.64-1.13S210.69,57.08,210.11,57.25Z"/><g class="cls-9"><path d="M205.61,66.56a15.15,15.15,0,0,0-1.51,1.71l0,.08a2.66,2.66,0,0,1-.09.27c-.17.45-.5,1.29-.52,1.44s-.05.27-.06.39a2.19,2.19,0,0,0,.61,1.91c.12.15.34.56.57,1h0l0,.06a5.38,5.38,0,0,0,.56.85l.2.18a2.43,2.43,0,0,0,.32.24,4.49,4.49,0,0,0,2.12.67c.25,0,.75.08,1,.14l.11,0a3.19,3.19,0,0,0,1.47-.18h0l.21,0a6.76,6.76,0,0,0,3.4-2c1.24-1.43-.19-2-.19-2,.24,1-.6,1.73-2,2.36l-.2.08-.2.08h0l-.13,0-.13,0h0l-.1,0h0l-.21.08h0c-1.13.39-2.43,1.16-3.41.82a3,3,0,0,1-1.37-1h0c-.1-.11-.18-.23-.27-.35s-.37-.53-.57-.79c0,0,0,0,0,0l0,0h0l0,0h0a6.93,6.93,0,0,1-.6-.89l-.19-.38a4,4,0,0,1-.27-.83,1.16,1.16,0,0,1,0-.18,4,4,0,0,1,0-.5c0-.12,0-.24,0-.36a3.72,3.72,0,0,1,.27-1h0l0-.11a.3.3,0,0,1,0-.08h0v0a.83.83,0,0,0,.07-.13l.06-.11a1.75,1.75,0,0,1,.16-.25c.21-.33.49-.66.71-1h0A3.31,3.31,0,0,0,205.61,66.56Z"/></g><path d="M205.43,66.85a6.81,6.81,0,0,0-.71,1C204.93,67.51,205.21,67.18,205.43,66.85Z"/><g class="cls-9"><path d="M208.19,61.26l-.59.29Z"/></g><g class="cls-9"><path d="M212.58,57.62a16,16,0,0,1-2.23,2.19,13.11,13.11,0,0,1-2.16,1.45c.76-.38,1.47-.76,2.09-1.12.45-.25.86-.5,1.22-.71.14-.23.29-.45.44-.68S212.64,57.83,212.58,57.62Z"/></g></g><path class="cls-10" d="M220.92,73.65a7.16,7.16,0,0,1-1.11,1.86,12.53,12.53,0,0,0-3.72,0,7.92,7.92,0,0,0-1.88.51l-.25.11a12.83,12.83,0,0,1-3.76,1.28l-1.15-3-.07-.18-.54-.22c.8.11,1.78-.67,2.63-1h0l.21-.07h0l.1,0h0l.14,0,.12,0h0l.2-.08.19-.09a5.58,5.58,0,0,0,1.34-.79.23.23,0,0,0,.07-.07l.07-.06.13-.13a1.41,1.41,0,0,0,.39-1.31,2.38,2.38,0,0,0-.33-.69,1.34,1.34,0,0,1,.31-1.75,4.41,4.41,0,0,1,1-.79,5,5,0,0,1,1.14-.49,14.3,14.3,0,0,1,2.14-.37c1.52-.18,3.08.35,3.41,1.56A9.57,9.57,0,0,1,220.92,73.65Z"/><g class="cls-9"><path d="M214.21,76l-.25.11a12.83,12.83,0,0,1-3.76,1.28l-.29,0a12,12,0,0,1-4.63-.16,7.84,7.84,0,0,1-3.08-1.51c-.11-.08-.22-.17-.33-.24l-.09.08.08-.09c1-1.1,2.12-2.35,2.95-3.23l.36-.38c.1-.09.18-.18.27-.27h0c.2.27.38.54.57.8l.27.35h0a3,3,0,0,0,1.37,1c1,.34,2.29-.43,3.42-.82h0l.21-.07h0l.1,0c-.63.48-.74.9-.55,1.27l0,.05C211.36,74.91,213.22,75.48,214.21,76Z"/></g><path class="cls-11" d="M201.78,75.58l-.33.37A2,2,0,0,1,201.78,75.58Z"/><path class="cls-11" d="M201.87,75.5l-.09.08.08-.09-.07,0c1-1.14,2.18-2.41,3-3.25L205,72l.42-.41s0,0,0,0h0l0,0c.2.27.38.54.57.8l.27.35h0a3,3,0,0,0,1.37,1c1,.34,2.29-.43,3.42-.82h0l.22-.07,0,0c-.7.5-.84.93-.64,1.31v0c.42.81,2.3,1.38,3.32,1.9a12.83,12.83,0,0,1-3.76,1.28l-.29,0a12,12,0,0,1-4.63-.16,7.84,7.84,0,0,1-3.08-1.51C202.09,75.66,202,75.57,201.87,75.5Z"/><g class="cls-9"><path d="M201.45,76a2,2,0,0,1,.33-.37Z"/></g><g class="cls-9"><path d="M206.28,72.76h0c0,.08-.09.22-.18.4s-.13.24-.21.37,0,0,0,0a3.27,3.27,0,0,1-2.59,1.7,2,2,0,0,0-1.08.48c-.11-.08-.22-.17-.33-.24l-.09.08.08-.09-.07,0a3.5,3.5,0,0,0-2.11-.78,3,3,0,0,0-1.7.45,8.82,8.82,0,0,1-1-3.93c0-.12,0-.23,0-.35l0-.38a7.37,7.37,0,0,1,.37-1.63l.08-.2a.14.14,0,0,1,0-.06c1.69-.56,4.15-1.33,5.08-1a3.88,3.88,0,0,0,1.61-.05l.36-.07a3.36,3.36,0,0,0-.26,1c0,.12,0,.24,0,.36a4.21,4.21,0,0,0,0,.5,1.36,1.36,0,0,1,0,.17,4.14,4.14,0,0,0,.28.84c.06.13.12.26.19.38a6.54,6.54,0,0,0,.59.89h0l0,0h0l0,0,0,0c.2.27.38.54.57.8Z"/></g><path class="cls-12" d="M206,72.41s-.07.19-.21.48l-.23.4A3.3,3.3,0,0,1,203,75a1.94,1.94,0,0,0-1.11.51l-.09.08.08-.09-.07,0a3.5,3.5,0,0,0-2.11-.78,3,3,0,0,0-1.7.45l-.13.07a9.11,9.11,0,0,1-1.17-3.94v0h0c0-.1,0-.2,0-.29a7.08,7.08,0,0,1,.41-2.37l.07-.19,0-.06.17-.06c1.68-.55,4-1.26,4.91-1a4.63,4.63,0,0,0,2-.13l.39-.06-.06.13h0a.2.2,0,0,0,0,.08l-.05.11h0a3.36,3.36,0,0,0-.26,1c0,.12,0,.24,0,.36a4.21,4.21,0,0,0,0,.5,1.36,1.36,0,0,1,0,.17,4.14,4.14,0,0,0,.28.84c.06.13.12.26.19.38a6.54,6.54,0,0,0,.59.89h0s0,0,0,0C205.64,71.88,205.82,72.15,206,72.41Z"/><g class="cls-9"><path d="M204.35,61.38l0,0-.08.09-.09.11s0,0,0,0,0,0,0,0a.35.35,0,0,1,0,.08c0,.06-.09.12-.13.19l0,0h-.12l-.15,0h-.23c-.17,0-.22.08-.22.08a14.39,14.39,0,0,0-5.83,6.22l-.09.2a1.67,1.67,0,0,1-.08.2.14.14,0,0,0,0,.06,1.46,1.46,0,0,0-.07.19,6.86,6.86,0,0,0-.41,2v.32h0s0,0,0,0h0a4.33,4.33,0,0,1,.3-.41c1.23-1.44,3.14-1.49,3.88-.85s2-.09,2.73-.66l.07,0,.42-.34.17-.15c0-.12,0-.24,0-.36a3.36,3.36,0,0,1,.26-1h0l.05-.11a.2.2,0,0,1,0-.08h0l.06-.13.06-.11.16-.26c.22-.32.49-.65.71-1h0a2.2,2.2,0,0,0,.18-.28,4,4,0,0,0,.17-.37h0l.32-.06h0l-.84-1.55-.2-.38c-.24-.45-.49-.9-.72-1.34Z"/></g><path class="cls-13" d="M204.34,61a0,0,0,0,0,0,0l-.08.09-.09.11,0,0h0l0,0-.06.08-.12.19,0,0h-.12l-.15,0c-.36,0-.45.08-.45.08a14.24,14.24,0,0,0-5.91,6.42,1.67,1.67,0,0,0-.08.2l0,.06-.07.19a6.84,6.84,0,0,0-.41,2.37v0c.11-.15.22-.3.33-.43,1.22-1.4,3.11-1.45,3.84-.81s2-.13,2.8-.71l.43-.34.19-.17a3.36,3.36,0,0,1,.26-1h0l.05-.11a.2.2,0,0,1,0-.08h0l.06-.13.06-.11.16-.26c.22-.32.49-.65.71-1h0a2.2,2.2,0,0,0,.18-.28,4,4,0,0,0,.17-.37h0l.32-.06h0l.13,0-1.21-2.24-.71-1.34Z"/><g class="cls-9"><path d="M204.13,61.3h0l0,0-.06.08-.12.19a.08.08,0,0,1-.08,0h-.07l-.15,0c-.51.65-.59,1.39-.09,1.52.58-.11,2.27,1.66,2.31,1.71h0c0-.06-.33-1.21-.6-2.1-.15-.53-.29-1-.32-1a1.05,1.05,0,0,0-.39-.31A.78.78,0,0,0,204.13,61.3Z"/></g><path class="cls-14" d="M210.3,56.12c-1.16.33-2.34,1.65-3.24,2.53l-.15.15-.17.15-.16.14-.13.11-.27.22-.14.12-.33.26,0,0-.18.15a2.11,2.11,0,0,0-.23.19l-.13.1-.17.15a7.64,7.64,0,0,0-.64.63,0,0,0,0,0,0,0l-.08.09-.09.11,0,0h0l0,0-.06.08-.06.09-.06.1h0a.06.06,0,0,1-.07,0h0a.08.08,0,0,0-.07,0l0,.06h0a.9.9,0,0,0-.1.19.57.57,0,0,0,.31.82,4.78,4.78,0,0,1,1.9,2.07h0a.44.44,0,0,0,.45.17h0l.13,0,.42-.08.2,0,.23,0,.15,0a5.35,5.35,0,0,0,.64-.2,2.37,2.37,0,0,0,.95-.67c.88-1,1-2.67,1.52-3.68a18.75,18.75,0,0,1,1.13-1.91c.15-.23.3-.45.44-.68s.7-.92.65-1.13S210.88,56,210.3,56.12Z"/><g class="cls-9"><path d="M205.8,65.43a14,14,0,0,0-1.5,1.7.16.16,0,0,0,0,.08s-.05.14-.1.27c-.17.46-.49,1.3-.52,1.45s0,.27-.06.39a2.2,2.2,0,0,0,.61,1.9,11.08,11.08,0,0,1,.58,1h0l0,.07a4.77,4.77,0,0,0,.56.84,1.8,1.8,0,0,0,.2.19,3.33,3.33,0,0,0,.32.24,4.49,4.49,0,0,0,2.12.67c.26,0,.76.08,1,.13l.11,0a3.2,3.2,0,0,0,1.47-.19h0l.21,0a6.7,6.7,0,0,0,3.4-2c1.24-1.42-.18-2-.18-2,.23,1-.61,1.74-2,2.36l-.19.09-.2.07,0,0-.13,0-.13,0h0l-.1,0h0l-.21.07h0c-1.13.39-2.43,1.16-3.42.82a3.07,3.07,0,0,1-1.37-1h0l-.27-.35c-.19-.26-.37-.53-.57-.8l0,0,0,0h0l0,0h0a7.62,7.62,0,0,1-.59-.89c-.07-.12-.13-.25-.19-.38a4.14,4.14,0,0,1-.28-.84l0-.17a2.83,2.83,0,0,1-.05-.5c0-.12,0-.24,0-.36a3.36,3.36,0,0,1,.26-1h0l.05-.11a.2.2,0,0,1,0-.08h0l.06-.13.06-.11.16-.26c.22-.32.49-.65.71-1h0A2.2,2.2,0,0,0,205.8,65.43Z"/></g><path class="cls-12" d="M205.62,65.72a6.43,6.43,0,0,0-.71,1C205.13,66.38,205.4,66.05,205.62,65.72Z"/><g class="cls-9"><path d="M208.39,60.12l-.6.29C208,60.32,208.19,60.23,208.39,60.12Z"/></g><g class="cls-9"><path d="M212.78,56.49a16.46,16.46,0,0,1-2.24,2.19,12.78,12.78,0,0,1-2.15,1.44c.75-.37,1.46-.75,2.09-1.11.45-.25.86-.5,1.21-.71.15-.23.3-.45.44-.68S212.83,56.7,212.78,56.49Z"/></g><path class="cls-5" d="M183,68.48h0a13.68,13.68,0,0,1-2.77,3.89c-4.54,4.51-11.57,5.93-16.47,3.56-.31-.15-.61-.32-.91-.5l-.47-.32a9.49,9.49,0,0,1-.84-.67l-.21-.19a.74.74,0,0,1-.06-1s0,0,0,0L178,56.62a1.17,1.17,0,0,1,1.31-.18l.26.13a9.77,9.77,0,0,1,.93.59,8.26,8.26,0,0,1,3.54,5.9A10.07,10.07,0,0,1,183,68.48Z"/><path class="cls-15" d="M182.26,63.08a12,12,0,0,1-3.8,8c-4.19,4.16-10.5,5.7-15.3,4a10.09,10.09,0,0,1-1.61-.71l0,0a.76.76,0,0,1-.24-1.22s0,0,0,0L178,56.62l0,0a1.16,1.16,0,0,1,1.52,0s0,0,0,0A8.29,8.29,0,0,1,182.26,63.08Z"/><g class="cls-16"><path class="cls-17" d="M184,63.06a13.51,13.51,0,0,0-1.73,0,23.46,23.46,0,0,0-17,9.72,18.06,18.06,0,0,1-2.05,2.35l-.3.28-.47-.32a9.49,9.49,0,0,1-.84-.67l0,0a.76.76,0,0,1-.24-1.22s0,0,0,0L178,56.62l0,0a1.16,1.16,0,0,1,1.52,0s0,0,0,0a9.77,9.77,0,0,1,.93.59A8.26,8.26,0,0,1,184,63.06Z"/></g><g class="cls-7"><path d="M183,68.48a13.68,13.68,0,0,1-2.77,3.89c-4.54,4.51-11.57,5.93-16.47,3.56q.69-.08,1.44-.12l.72-.07c4.18-.45,8.88-2.56,12.28-4.39A55.25,55.25,0,0,0,183,68.48Z"/></g><g class="cls-18"><path d="M256.32,69.37a2.5,2.5,0,0,1-.06.38,3.88,3.88,0,0,1-.45,1.22,2.46,2.46,0,0,1-.54.65,1.88,1.88,0,0,1-1.42.49,3.81,3.81,0,0,0-1,.06l-.12,0-.22.07-.31.14-.09.06-.14.11-.13.1-.09.09-.07.08a2.16,2.16,0,0,0-.24.35.75.75,0,0,0-.07.12l-.06.12a3.26,3.26,0,0,0-.15.44l-.06.24s0,.08,0,.12a2.17,2.17,0,0,0,0,.25c0,.05,0,.09,0,.13s0,.18,0,.27,0,.09,0,.14v.52s0,.08,0,.13v.58l0,.14h0a.28.28,0,0,0,0,.09v0h0a1.55,1.55,0,0,1,0,.22h0a13.67,13.67,0,0,1-.15,1.49c0,.14,0,.29,0,.43a1.29,1.29,0,0,0,.18.69l.08.12-.54-.35-.25,0h0l-2.24.28-2.36.3-3.12.4h-.12l-.05-.14c-.17-.43-.36-.87-.5-1.32a5.38,5.38,0,0,1-.23-1,2,2,0,0,1,0-.49.06.06,0,0,1,0,0v-.06a.09.09,0,0,0,0,0h0s0-.09,0-.13h0a5.78,5.78,0,0,1,.29-.89h0s0,0,0,0l.09-.24c.06-.16.12-.32.17-.49v0c0-.08,0-.15.07-.22a23.38,23.38,0,0,1,.77-3.51h0a7.52,7.52,0,0,1,2.1-2.66,15.94,15.94,0,0,1,1.33-1.07,14.46,14.46,0,0,1,5.5-2.63,3.25,3.25,0,0,1,3.57,2.12,10,10,0,0,1,.61,2Z"/><g class="cls-9"><path d="M252,80.18l-.73,0a25.78,25.78,0,0,1-5.49-.48l-3.12.4-.08-.2-.06-.17c-.14-.34-.28-.68-.4-1a5.55,5.55,0,0,1-.33-1.32,2.71,2.71,0,0,1,0-.4h0a4.78,4.78,0,0,1,.31-1h0s0,0,0,0l.09-.24a5.77,5.77,0,0,1,.9-.32,4.2,4.2,0,0,1,2.18,0c1,.31,3,2.13,4.45,2.15h.08c.54,0,1-.32,1.26-1.1v.11h0a1.55,1.55,0,0,1,0,.22h0c.09,1.15-.19,2.64.7,3.3Z"/></g><path d="M251.75,80l.21.14-.73,0a25.78,25.78,0,0,1-5.49-.48l-3.12.4h-.12l-.05-.14c-.17-.43-.36-.87-.5-1.32h0a5.38,5.38,0,0,1-.23-1,3.23,3.23,0,0,1,0-.44v-.11s0-.09,0-.14v0a4.78,4.78,0,0,1,.31-1h0a5,5,0,0,1,1-.36,4.11,4.11,0,0,1,2.18,0c1.06.31,3.11,2.18,4.53,2.14h0c.55,0,1-.35,1.26-1.19v0a1.5,1.5,0,0,1,0,.22h0C251.14,77.89,250.86,79.38,251.75,80Z"/><g class="cls-9"><path d="M261.05,80h-.18c-.48.38-1.19.95-1.34,1l-.44.25,0-.08a5.61,5.61,0,0,1,.2-.53c0-.1.08-.18.1-.22l.42-.19a5.39,5.39,0,0,0,.52-.3,5.7,5.7,0,0,0,.55-.42c0,.12.07.23.1.34A.65.65,0,0,1,261.05,80Z"/></g><path d="M261.51,80.06l-.46,0h-.18c-.48.38-1.19.95-1.34,1l-.44.25,0-.08a5.61,5.61,0,0,1,.2-.53c0-.1.08-.18.1-.22l.42-.19a5.39,5.39,0,0,0,.52-.3,5.7,5.7,0,0,0,.55-.42h0l.11-.1.09-.08h0a0,0,0,0,0,0,0l.13-.12c0,.12.08.24.11.37S261.46,79.91,261.51,80.06Z"/><g class="cls-9"><path d="M268.28,76.71s0,0,0,0a.41.41,0,0,0-.07.11l-.09.13,0,0,0,0-.07.09-.16.2s0,0,0,0l.05,0h0a.08.08,0,0,0,0,0l.1.11h0a.59.59,0,0,1,.12.19h0a.23.23,0,0,1,0,.23,14.35,14.35,0,0,1-1.2,3.54c-1.06-.9-3.33-1.31-5.39-1.5l-.46,0h-.18c-.48.38-1.19.95-1.34,1l-.44.25,0-.08a5.61,5.61,0,0,1,.2-.53c0-.1.08-.18.1-.22l.42-.19a5.39,5.39,0,0,0,.52-.3,5.7,5.7,0,0,0,.55-.42h0l.11-.1.09-.08h0a0,0,0,0,0,0,0l.13-.12.1-.1c.08-.08.15-.17.23-.26.29-.35.55-.74.84-1.1h0a3.58,3.58,0,0,1,.26-.29,2.6,2.6,0,0,1,.35-.32h0c0-.1-.05-.2-.08-.3h0l2.29-.06.56,0,2,0Z"/></g><path d="M268.69,76.55a0,0,0,0,1,0,0l-.07.11-.09.13,0,0v0l0,0-.07.09,0,.05,0,0,0,0-.08.1h0l0,0,0,0h0a.08.08,0,0,1,0,0l.11.12c.22.28.12.41.12.41a14.63,14.63,0,0,1-1.39,3.92l-.22-.21c-1.06-.9-3.33-1.31-5.39-1.5l-.46,0h-.18c-.48.38-1.19.95-1.34,1a5.28,5.28,0,0,1,.2-.52l.11-.25a5.39,5.39,0,0,0,.52-.3,5.7,5.7,0,0,0,.55-.42h0l.11-.1.09-.08h0a0,0,0,0,0,0,0l.13-.12.1-.1c.08-.08.15-.17.23-.26.29-.35.55-.74.84-1.1h0a3.58,3.58,0,0,1,.26-.29,2.6,2.6,0,0,1,.35-.32h0c0-.1-.05-.2-.08-.3h0v0l0-.12,3.3-.09h0l2-.06Z"/><g class="cls-9"><path d="M268.49,76.86h0l0,0-.07.09-.16.2a.06.06,0,0,0,0,.08h0s0,0,0,0l.1.11c-.53.76-1.38,1.19-1.78.83-.16-.54-3.12-1.09-3.2-1.11h0l2.82-.53c.72-.13,1.32-.24,1.41-.24a1.72,1.72,0,0,1,.56.18A.72.72,0,0,1,268.49,76.86Z"/></g><path d="M270.22,73.06l-.1.21-.1.21-.09.21c0,.06-.05.11-.07.17s-.09.22-.13.34-.05.11-.07.17l-.15.41a0,0,0,0,0,0,0l-.09.22-.12.29a.77.77,0,0,1-.07.16,1.45,1.45,0,0,1-.09.22,6.84,6.84,0,0,1-.44.85,0,0,0,0,1,0,0l-.07.11-.09.13,0,0v0l0,0-.07.09,0,.05,0,0-.08.1h0a.08.08,0,0,0,0,0l0,0h0a.06.06,0,0,1,0,.08l-.05,0h0l-.19.17a.91.91,0,0,1-1.14.14,7.32,7.32,0,0,0-3.43-.58h0a.45.45,0,0,1-.44-.29h0v0l0-.12c0-.13-.08-.26-.11-.4a1.21,1.21,0,0,1-.05-.18,1.42,1.42,0,0,1-.05-.22.83.83,0,0,1,0-.15,4.86,4.86,0,0,1-.08-.64,2,2,0,0,1,.34-1.14,11,11,0,0,1,2.84-2.43,6.85,6.85,0,0,0,.84-.67A24.16,24.16,0,0,0,268.35,69l.6-.71c.32-.36.77-1.05,1-1.1.43-.09,1.59,1.33,1.68,1.91C271.84,70.21,270.83,71.87,270.22,73.06Z"/><g class="cls-9"><path d="M251.17,74.53a2.84,2.84,0,0,1,.15-.44A2.84,2.84,0,0,0,251.17,74.53Z"/></g><g class="cls-9"><path d="M251.32,73.44a3.26,3.26,0,0,0-.15.44l-.06.24s0,.08,0,.12a2.17,2.17,0,0,0,0,.25c0,.05,0,.09,0,.13s0,.18,0,.27,0,.09,0,.14v.52s0,.08,0,.13v.58l0,.14h0a.28.28,0,0,0,0,.09v0h0a1.55,1.55,0,0,1,0,.22h0c0,.65,0,1.41.08,2.07h0a2.46,2.46,0,0,0,.22.74,1.43,1.43,0,0,0,.4.48l.21.14-.73,0L251,80l-.32-.39-.36-.42-.09-.08a1.18,1.18,0,0,1-.32-.51c-.08-.25-.1-.52-.18-.82l0,0c0-.07,0-.14-.05-.2s-.05-.27-.07-.41l0-.25c0-.22,0-.46,0-.69a5.45,5.45,0,0,1,.78-2.5A1.9,1.9,0,0,1,252,72.58l-.13.1-.09.09-.07.08a2.16,2.16,0,0,0-.24.35.75.75,0,0,0-.07.12Z"/></g><g class="cls-9"><path d="M262.69,77.49a15.59,15.59,0,0,1-1.32,2.12l-.08.06-.28.22-.14.12c-.48.38-1.19.95-1.34,1l-.44.25,0-.08a5.61,5.61,0,0,1,.2-.53c0-.1.08-.18.1-.22l.42-.19a5.39,5.39,0,0,0,.52-.3,5.7,5.7,0,0,0,.55-.42h0l.11-.1.09-.08h0a0,0,0,0,0,0,0l.13-.12.1-.1c.08-.08.15-.17.23-.26.29-.35.55-.74.84-1.1h0A3.58,3.58,0,0,1,262.69,77.49Z"/></g><path d="M262.43,77.78a8.43,8.43,0,0,1-.84,1.1C261.88,78.53,262.14,78.14,262.43,77.78Z"/><g class="cls-9"><path d="M267.79,72.67c0,.22,0,.44-.05.65A4.87,4.87,0,0,1,267.79,72.67Z"/></g><g class="cls-9"><path d="M270,67.16a15.83,15.83,0,0,0-1.53,3,12.94,12.94,0,0,0-.43,1.33,8.35,8.35,0,0,0-.24,1.21c0-.43.09-.85.15-1.25s.1-.73.16-1.07c.08-.5.17-1,.25-1.38l.6-.71C269.27,67.9,269.72,67.21,270,67.16Z"/></g></g><g class="cls-18"><path d="M242.08,78.72a26.08,26.08,0,0,0,3.66,1l-3.12.4h-.12l-.05-.14c-.17-.43-.36-.87-.5-1.32Z"/></g><path class="cls-10" d="M147.66,84.58a21.68,21.68,0,0,1,3.24-.69,7.52,7.52,0,0,1,1.95,0,7.65,7.65,0,0,1,2,.52c1.15.48,1.93,1.23,1.84,2.22a3,3,0,0,0,.1,1.14c.46,1.45,2.23,2,4.63,2.1h1.73c1.43,0,3.41.51,4.41-.1l-.56.61,0,.29,1.57,8.79,0,.11v0l-.22.06a19.74,19.74,0,0,1-3.83.83,5.21,5.21,0,0,1-.79,0l-.17,0h-.08a10.3,10.3,0,0,1-1.65-.35h0l-.07,0-.38-.1q-.42-.12-.87-.21c-2-.41-4.09-.39-6-1h0a12.47,12.47,0,0,1-4.3-2.39c-2.66-2.13-5.22-5-6-7.78C143.73,86.8,145.45,85.19,147.66,84.58Z"/><g class="cls-9"><path d="M169.81,84.89h0l.58.22.79.31c1.9.75,4.54,1.86,6.82,2.84l.75.31,3.18,1.37a14.48,14.48,0,0,1-.64,1.45l-.18.37,0,.07h0l-.24.44c-1.09,1.93-3.24,3-5.28,4.45-1.87,1.36-4.44,2-6.93,2.7l-.31.09-.29.08a19.47,19.47,0,0,1-3.82.82,4.58,4.58,0,0,1-.64,0h0a10.3,10.3,0,0,1-1.65-.35h0l-.07,0-.38-.1a4.2,4.2,0,0,1-.53-1,3.32,3.32,0,0,1,0-2.47c.49-1.19,3.43-3.46,3.47-5.07v-.09c0-.62-.51-1.13-1.77-1.43l.16,0h.39c1.86-.1,4.26.22,5.34-.8a3.69,3.69,0,0,0,1.09-2.12h0q.06-.32.09-.63C169.71,85.84,169.74,85.36,169.81,84.89Z"/></g><path class="cls-11" d="M182.32,90h0l-.18.45v0c-.07.14-.13.28-.19.43l-.21.43,0,.07,0,.09-.16.31,0,.07h0c-.07.14-.15.28-.23.42l0,0c-1.08,1.92-3.23,3-5.27,4.44s-4.66,2.08-7.24,2.79l-.29.08a19.79,19.79,0,0,1-3.82.82,5.82,5.82,0,0,1-.72,0h-.17l-.26,0h0a.22.22,0,0,0,.08,0,10.3,10.3,0,0,1-1.65-.35h0A4.79,4.79,0,0,1,161.3,99a3.37,3.37,0,0,1,0-2.47c.5-1.21,3.54-3.54,3.47-5.16v0c0-.63-.57-1.15-1.93-1.44h0l.35,0h0c1.86-.1,4.26.22,5.34-.8a3.69,3.69,0,0,0,1.09-2.12h0q.06-.32.09-.63c.05-.46.08-.94.15-1.41V84.8h0l.07,0c.25.09.56.2.89.34l.4.15c2.27.89,5.86,2.41,8.52,3.55Z"/><g class="cls-9"><path d="M182.88,86.9c0,.26,0,.52,0,.78l0,.29c0,.1,0,.2-.05.31s-.07.39-.12.59,0,.15,0,.23a1.09,1.09,0,0,1-.05.17,2.1,2.1,0,0,1-.06.24l-.06.19-.09.28h0s0,0,0,0-.11.28-.17.41v0c-.07.14-.13.28-.19.43l0,0c-.06.13-.12.27-.19.39l0,.07,0,.06s0,0,0,0h0l-.16.31,0,.08h0c-.07.14-.15.28-.23.42,0-.16-.11-.3-.17-.45s-.19-.39-.29-.58a5.74,5.74,0,0,0-1.11-1.38,4.46,4.46,0,0,0-4-1.22,5.87,5.87,0,0,1-4.93-.87l-.05,0-.58-.39a6,6,0,0,1-.57-.45h0q.06-.32.09-.63c.05-.46.08-.94.15-1.41l-.07,0a.19.19,0,0,0,0-.08h0l.07,0h0a10.06,10.06,0,0,0,.1-1.56c0-.21,0-.42,0-.62a6.71,6.71,0,0,0-.3-1.31L169.5,81a6.59,6.59,0,0,0-.34-.71c-.09-.16-.2-.32-.31-.48a6.34,6.34,0,0,0-1.16-1.22l.54-.12a5.28,5.28,0,0,0,2.25-.83,3.54,3.54,0,0,1,1.43-.65,36.43,36.43,0,0,1,6.36-.81l.08.07.25.22a12.77,12.77,0,0,1,1.83,2l.34.5c.1.16.2.32.29.48A14.06,14.06,0,0,1,182.88,86.9Z"/></g><path class="cls-12" d="M183.07,86.35c0,.26,0,.52,0,.78a2.54,2.54,0,0,1,0,.29c0,.11,0,.21,0,.31s-.08.39-.12.59l-.06.23a.85.85,0,0,1,0,.17,1.68,1.68,0,0,1-.07.24,1.46,1.46,0,0,1,0,.2l-.15.46-.13.36h0s0,0,0,0-.11.28-.17.41v0c-.07.14-.13.28-.19.43l0,0c-.06.13-.12.27-.19.39l0,.07,0,.06s0,0,0,0h0l-.16.31,0,.08h0l0-.08c0-.12-.09-.24-.13-.35l0,0a5.61,5.61,0,0,0-1.63-2.22,6.2,6.2,0,0,0-.91-.6,6,6,0,0,0-.75-.32,3.41,3.41,0,0,0-2.11-.12,5.88,5.88,0,0,1-4.92-.88c-.24-.14-.45-.29-.63-.42-.43-.31-.68-.53-.68-.53.05-.47.09-.94.15-1.41,0,0,0-.06,0-.09s0,0,0,0h0a10.06,10.06,0,0,0,.1-1.56c0-.21,0-.42,0-.62a6.71,6.71,0,0,0-.3-1.31L169.5,81a6.59,6.59,0,0,0-.34-.71c-.09-.16-.2-.32-.31-.48a6.34,6.34,0,0,0-1.16-1.22s0,0,0,0l-.16-.12-.12-.09h0l-.2-.15.6-.13a6.77,6.77,0,0,0,2.89-1,2.53,2.53,0,0,1,.72-.41,27,27,0,0,1,6.78-1l.29,0,.09.07.25.22a12.71,12.71,0,0,1,2.46,3l.23.41h0l0,0A14.08,14.08,0,0,1,183.07,86.35Z"/><g class="cls-9"><path d="M181.52,79.44h0c-.25-.15-.5-.28-.75-.4a5.3,5.3,0,0,0-5.44.29,1.86,1.86,0,0,0-.55.73c-.48,1.28-2.77,1-4.29.64l-.12,0c-.35-.08-.64-.17-.86-.23l-.35-.11c-.09-.16-.2-.32-.31-.48a6.34,6.34,0,0,0-1.16-1.22s0,0,0,0l-.16-.12-.12-.09h0l-.2-.15-.16-.11c-.14-.09-.28-.18-.43-.26-.56-.33-1.2-.63-1.77-1h0a4.19,4.19,0,0,1-.47-.29,3.14,3.14,0,0,1-.52-.41h0l-.49.09h0c0-.77-.07-1.66-.1-2.6h0l0-.63c0-.14,0-.28,0-.41,0-.62-.06-1.24-.08-1.84l0-.57,0,0,.17.08a1.36,1.36,0,0,1,.21.1l.07,0,.08,0,.13.07.33.19.07,0,.07,0h0l.06-.05.18-.11h0a1.09,1.09,0,0,1,.31-.13h0a.53.53,0,0,1,.37,0,27.11,27.11,0,0,1,13,5.25l.28.22.28.23.08.07.25.22A12.63,12.63,0,0,1,181.22,79l.27.43h0A.13.13,0,0,1,181.52,79.44Z"/></g><path class="cls-13" d="M181.26,79l0,0a7.44,7.44,0,0,0-.79-.41c-2.35-1-4.58-.5-5.52.47a1.72,1.72,0,0,0-.4.59c-.49,1.3-2.9,1-4.41.6-.34-.08-.63-.16-.85-.23l-.4-.12a6.34,6.34,0,0,0-1.16-1.22s0,0,0,0l-.16-.12-.12-.09h0l-.2-.15-.16-.11c-.14-.09-.28-.18-.43-.26-.56-.33-1.2-.63-1.77-1h0a4.19,4.19,0,0,1-.47-.29,3.14,3.14,0,0,1-.52-.41h0l-.49.09h-.05l-.2,0c0-1-.09-2.37-.14-3.75h0s0,0,0,0c0-.73-.05-1.48-.09-2.19,0-.2,0-.39,0-.58l0,0,.18.08.21.1,0,0h0s0,0,0,0l0,0,.14.07.08,0,.08,0,.08,0,.08,0h0l.07,0,.06,0h0l0,0,0,0,.1-.06.1-.06c.45-.25.68-.14.68-.14a27,27,0,0,1,13.25,5.47l.27.22.09.07.25.22A12.71,12.71,0,0,1,181.26,79Z"/><g class="cls-9"><path d="M165.6,72.16c-.32.06-.64.54-.92,1.14a15.88,15.88,0,0,0-.88,2.5h0c0-.06-.29-1-.57-2.11l-.29-1.1h0l0,0c-.2-.81-.37-1.46-.36-1.55a1.3,1.3,0,0,1,.28-.64,1.07,1.07,0,0,1,.48-.35s0,0,0,0l0,0,.14.07.08,0,.08,0,.07,0,.09,0h0a.12.12,0,0,0,.1,0h0l0,0h0l.1-.07.1-.06a6.13,6.13,0,0,1,.57.34C165.68,71,166.08,71.78,165.6,72.16Z"/></g><path class="cls-14" d="M164.74,71.89a2.89,2.89,0,0,0-.64,1.16,9.09,9.09,0,0,0-.3,2.75h0a.55.55,0,0,1-.47.49h-.05l-.2,0-.64.13-.3.06-.35.06-.25,0a9.15,9.15,0,0,1-1,.09,4.34,4.34,0,0,1-1.84-.39c-2-.89-3.53-3.08-5-4.18a36.22,36.22,0,0,0-3.09-2l-1.15-.68c-.59-.36-1.7-.87-1.79-1.19s.34-.59.91-1h0a6.23,6.23,0,0,1,2.19-1c1.85-.2,4.54,1,6.47,1.64l.33.12.34.11.35.1.26.08.55.15.28.08.66.18H160l.36.1.48.13.25.08.36.11c.47.14.93.31,1.37.49l0,0,.18.08.21.1,0,0h0s0,0,0,0l0,0,.14.07.08,0,.08,0,.08,0,.08,0h0a.12.12,0,0,0,.1,0h0a.13.13,0,0,1,.13,0l.07.06h0s.14.1.28.22C164.83,70.88,165.25,71.39,164.74,71.89Z"/><g class="cls-9"><path d="M164.34,76.61a27.88,27.88,0,0,1,3.44,1.49l.1.09.35.32c.6.53,1.72,1.5,1.87,1.69l.4.5a3.35,3.35,0,0,1,.69,3c0,.29,0,1,0,1.65h0v.11a7,7,0,0,1-.08,1.47c0,.12-.08.24-.13.36a3.58,3.58,0,0,1-.25.52,5.69,5.69,0,0,1-2.37,2.11c-.33.18-1,.54-1.31.77l-.13.1a4.75,4.75,0,0,1-2.16.57l-.06,0-.33.06a12,12,0,0,1-6.23-.77c-2.85-1.26-1.35-2.83-1.35-2.83.46,1.45,2.23,2,4.63,2.1h1.18l.16,0h.39c1.86-.1,4.26.22,5.34-.8a3.69,3.69,0,0,0,1.09-2.12h0q.06-.32.09-.63c.05-.46.08-.94.15-1.41l-.07,0v-.08h0l.07,0h0a10.06,10.06,0,0,0,.1-1.56c0-.21,0-.42-.05-.62a6,6,0,0,0-.29-1.31,2.67,2.67,0,0,0-.09-.26,6.59,6.59,0,0,0-.34-.71c-.09-.16-.2-.32-.31-.48a6.34,6.34,0,0,0-1.16-1.22v0l-.16-.12-.12-.09h0l-.2-.15-.16-.11c-.14-.09-.28-.18-.43-.26-.56-.33-1.2-.63-1.77-1h0A5.55,5.55,0,0,1,164.34,76.61Z"/></g><path class="cls-12" d="M164.82,76.9a14,14,0,0,1,1.77,1C166,77.53,165.39,77.23,164.82,76.9Z"/><g class="cls-9"><path d="M156.54,70.8c.35,0,.7,0,1.06.06C157.25,70.85,156.89,70.83,156.54,70.8Z"/></g><g class="cls-9"><path d="M147.61,68.29A30.15,30.15,0,0,0,152.43,70a24.49,24.49,0,0,0,4.12.76c-1.34-.09-2.62-.21-3.76-.35-.83-.09-1.58-.2-2.24-.29l-1.15-.68C148.81,69.12,147.7,68.61,147.61,68.29Z"/></g><path class="cls-10" d="M256.32,69.37a2.5,2.5,0,0,1-.06.38,3.88,3.88,0,0,1-.45,1.22,2.46,2.46,0,0,1-.54.65,1.88,1.88,0,0,1-1.42.49,3.81,3.81,0,0,0-1,.06l-.12,0-.22.07-.31.14-.09.06-.14.11-.13.1-.09.09-.07.08a2.16,2.16,0,0,0-.24.35.75.75,0,0,0-.07.12l-.06.12a3.26,3.26,0,0,0-.15.44l-.06.24s0,.08,0,.12a2.17,2.17,0,0,0,0,.25c0,.05,0,.09,0,.13a2.45,2.45,0,0,0,0,.27s0,.09,0,.14v.58l0,.14h0v.1h0a1.62,1.62,0,0,1,0,.22h0a2.6,2.6,0,0,1,0,.39v0a8.53,8.53,0,0,0-.13,1.71,1.07,1.07,0,0,0,.23.58h0l-.25-.16-.28-.19-.25,0h0l-.4,0-4.2.53-3.12.39h-.12s0-.09-.05-.13c-.17-.43-.36-.88-.5-1.33a5.36,5.36,0,0,1-.21-.9h0V77a2,2,0,0,1,0-.49s0-.07,0-.11a.09.09,0,0,0,0-.05h0a4.78,4.78,0,0,1,.31-1h0s0,0,0,0l.09-.23a4.88,4.88,0,0,0,.18-.54,34.59,34.59,0,0,1,.84-3.73h0a7.52,7.52,0,0,1,2.1-2.66c.41-.36.86-.72,1.33-1.07a14.29,14.29,0,0,1,5.5-2.62,3.25,3.25,0,0,1,3.57,2.11,10,10,0,0,1,.61,2A3.27,3.27,0,0,1,256.32,69.37Z"/><g class="cls-9"><path d="M252,79.54l-.73,0a25.83,25.83,0,0,1-5.49-.47l-3.12.39c0-.06-.05-.13-.08-.19l-.06-.18c-.14-.34-.28-.68-.4-1a5.63,5.63,0,0,1-.33-1.33,2.71,2.71,0,0,1,0-.4h0a4.78,4.78,0,0,1,.31-1h0s0,0,0,0l.09-.23a4.68,4.68,0,0,1,.9-.33,4.11,4.11,0,0,1,2.18,0c1,.3,3,2.12,4.45,2.14h.08A1.37,1.37,0,0,0,251,75.76v.1h0a1.62,1.62,0,0,1,0,.22h0c.09,1.15-.19,2.63.7,3.29Z"/></g><path class="cls-11" d="M251.75,79.39l.21.15-.73,0a25.83,25.83,0,0,1-5.49-.47l-3.12.39h-.12s0-.09-.05-.13c-.17-.43-.36-.88-.5-1.33h0a5.38,5.38,0,0,1-.23-1,3.23,3.23,0,0,1,0-.44v-.11s0-.09,0-.14v0a4.78,4.78,0,0,1,.31-1h0a4.57,4.57,0,0,1,1-.35,4.1,4.1,0,0,1,2.18,0c1.06.31,3.11,2.19,4.53,2.14h0c.55,0,1-.35,1.26-1.19v0a1.64,1.64,0,0,1,0,.22h0C251.14,77.25,250.86,78.73,251.75,79.39Z"/><g class="cls-9"><path d="M261.05,79.37h-.18c-.48.38-1.19,1-1.34,1l-.44.24,0-.08c.07-.21.14-.39.2-.53s.08-.18.1-.22a3.89,3.89,0,0,0,.42-.19,5.39,5.39,0,0,0,.52-.3,4.36,4.36,0,0,0,.55-.41c0,.11.07.22.1.33A.93.93,0,0,1,261.05,79.37Z"/></g><path class="cls-12" d="M261.51,79.41l-.46,0h-.18c-.48.38-1.19,1-1.34,1l-.44.24,0-.08c.07-.21.14-.39.2-.53s.08-.18.1-.22a3.89,3.89,0,0,0,.42-.19,5.39,5.39,0,0,0,.52-.3,4.36,4.36,0,0,0,.55-.41h0l.11-.09.09-.08h0s0,0,0,0l.13-.12c0,.12.08.25.11.37S261.46,79.26,261.51,79.41Z"/><g class="cls-9"><path d="M268.28,76.06s0,0,0,0l-.07.11-.09.13,0,0,0,0-.07.08a1.56,1.56,0,0,1-.16.2l0,0,.05,0h0a.08.08,0,0,0,0,0l.1.12h0a.72.72,0,0,1,.12.19h0a.23.23,0,0,1,0,.23,14.21,14.21,0,0,1-1.2,3.54c-1.06-.9-3.33-1.3-5.39-1.5l-.46,0h-.18c-.48.38-1.19,1-1.34,1l-.44.24,0-.08c.07-.21.14-.39.2-.53s.08-.18.1-.22a3.89,3.89,0,0,0,.42-.19,5.39,5.39,0,0,0,.52-.3,4.36,4.36,0,0,0,.55-.41h0l.11-.09.09-.08h0s0,0,0,0l.13-.12.1-.1c.08-.08.15-.17.23-.26.29-.34.55-.74.84-1.09h0a3.58,3.58,0,0,1,.26-.29l.35-.32h0c0-.09-.05-.19-.08-.29h0l2.29-.07h.56l2-.06Z"/></g><path class="cls-13" d="M268.69,75.9s0,0,0,0l-.07.1-.09.14,0,0s0,0,0,0l0,0-.07.09,0,0,0,0s0,0,0,0l-.08.1h0l0,0s0,0,0,0h0l0,0,.11.12c.22.28.12.42.12.42a14.56,14.56,0,0,1-1.39,3.91l-.22-.21c-1.06-.9-3.33-1.3-5.39-1.5l-.46,0h-.18c-.48.38-1.19,1-1.34,1a5.61,5.61,0,0,1,.2-.53l.11-.25a5.39,5.39,0,0,0,.52-.3,4.36,4.36,0,0,0,.55-.41h0l.11-.09.09-.08h0s0,0,0,0l.13-.12.1-.1c.08-.08.15-.17.23-.26.29-.34.55-.74.84-1.09h0a3.58,3.58,0,0,1,.26-.29l.35-.32h0c0-.09-.05-.19-.08-.29h0v0s0-.08,0-.12l3.3-.09h0c.66,0,1.33,0,2-.06Z"/><g class="cls-9"><path d="M268.49,76.21h0l0,0-.07.09-.16.2a.06.06,0,0,0,0,.08h0s0,0,0,0a.53.53,0,0,1,.1.12c-.53.75-1.38,1.19-1.78.83-.16-.55-3.12-1.1-3.2-1.12h0l2.82-.53c.72-.13,1.32-.23,1.41-.23a1.44,1.44,0,0,1,.56.17A.78.78,0,0,1,268.49,76.21Z"/></g><path class="cls-14" d="M270.22,72.42c0,.06-.07.13-.1.2l-.1.21-.09.21c0,.06-.05.12-.07.17l-.13.34c0,.06-.05.11-.07.17l-.15.41a0,0,0,0,0,0,0l-.09.22-.12.3a1,1,0,0,1-.07.15,1.45,1.45,0,0,1-.09.22,6.2,6.2,0,0,1-.44.85s0,0,0,0l-.07.1-.09.14,0,0s0,0,0,0l0,0-.07.09,0,0,0,0-.08.1h0s0,0,0,0a.05.05,0,0,0,0,0h0a.08.08,0,0,1,0,.09l-.05,0h0L268,77a.94.94,0,0,1-1.14.14,7.21,7.21,0,0,0-3.43-.59h0a.45.45,0,0,1-.44-.28v0s0-.08,0-.12-.08-.26-.11-.4a1.21,1.21,0,0,1-.05-.18,1.42,1.42,0,0,1-.05-.22.83.83,0,0,1,0-.15,4.48,4.48,0,0,1-.08-.64,2,2,0,0,1,.34-1.13,10.6,10.6,0,0,1,2.84-2.43,8,8,0,0,0,.84-.67c.62-.61,1.19-1.26,1.74-1.92l.6-.7c.32-.37.77-1.05,1-1.11.43-.09,1.59,1.33,1.68,1.91C271.84,69.57,270.83,71.23,270.22,72.42Z"/><g class="cls-9"><path d="M252.86,72.17l-.12,0-.22.07-.31.14-.09.06-.14.11-.13.1-.09.09-.07.08a2.16,2.16,0,0,0-.24.35.75.75,0,0,0-.07.12l-.06.12a3.26,3.26,0,0,0-.15.44l-.06.24s0,.08,0,.12a2.17,2.17,0,0,0,0,.25c0,.05,0,.09,0,.13s0,.18,0,.27,0,.09,0,.14v.58l0,.14h0v.1h0a1.62,1.62,0,0,1,0,.22h0c.09,1.15-.19,2.63.7,3.29l.21.15-.61,0h-.12l-.17-.21,0,0c-.16-.21-.48-.6-.68-.81l-.09-.08a1.24,1.24,0,0,1-.37-.7c0-.08,0-.16,0-.24s-.05-.26-.08-.4l0,0c0-.06,0-.13-.05-.2a5.36,5.36,0,0,1-.1-.7,5.5,5.5,0,0,1,.78-3.15A1.74,1.74,0,0,1,252.86,72.17Z"/></g><g class="cls-9"><path d="M262.69,76.84A15.59,15.59,0,0,1,261.37,79a.27.27,0,0,1-.08.07l-.28.21-.14.12c-.48.38-1.19,1-1.34,1l-.44.24,0-.08c.07-.21.14-.39.2-.53s.08-.18.1-.22a3.89,3.89,0,0,0,.42-.19,5.39,5.39,0,0,0,.52-.3,4.36,4.36,0,0,0,.55-.41h0l.11-.09.09-.08h0s0,0,0,0l.13-.12.1-.1c.08-.08.15-.17.23-.26.29-.34.55-.74.84-1.09h0A3.58,3.58,0,0,1,262.69,76.84Z"/></g><path class="cls-12" d="M262.43,77.14a9.59,9.59,0,0,1-.84,1.09C261.88,77.88,262.14,77.49,262.43,77.14Z"/><g class="cls-9"><path d="M267.79,72c0,.21,0,.43-.05.65A4.62,4.62,0,0,1,267.79,72Z"/></g><g class="cls-9"><path d="M270,66.51a15.83,15.83,0,0,0-1.53,3,13.78,13.78,0,0,0-.43,1.33,8.49,8.49,0,0,0-.24,1.22c0-.43.09-.86.15-1.26s.1-.73.16-1.06c.08-.51.17-1,.25-1.39l.6-.7C269.27,67.25,269.72,66.57,270,66.51Z"/></g><path class="cls-8" d="M201.78,75.58l-.33.37A2,2,0,0,1,201.78,75.58Z"/><path class="cls-8" d="M201.87,75.5l-.09.08.08-.09Z"/><path class="cls-8" d="M242.08,78.08a27.52,27.52,0,0,0,3.66,1l-3.12.39h-.12s0-.09-.05-.13c-.17-.43-.36-.88-.5-1.33Z"/><path class="cls-19" d="M230.18,80.32c-.74.71-5.39-1.33-8.49-3.88a18.53,18.53,0,0,1-4.64-6c-1.09-2-.86-2.22-.77-2.27.36-.22,1.69.72,2.51,1.46,1.33,1.19,1.31,1.85,2.32,2.75s2.24,1.13,3.47,1.61C228.47,75.54,230.91,79.62,230.18,80.32Z"/><path class="cls-19" d="M210,91.85c-.38.88,4,3.31,8.14,4.37a26.06,26.06,0,0,0,8.49.53c2.58-.14,2.73-.43,2.74-.52.06-.38-1.56-.9-2.73-1.15-1.89-.4-2.57-.07-4-.38a9.21,9.21,0,0,1-3.36-1.77C215.8,90.8,210.35,91,210,91.85Z"/><path class="cls-19" d="M144,71.62c-.68.64,2,3.94,5.09,6a21.83,21.83,0,0,0,7,2.87c2.24.63,2.48.42,2.53.35.2-.3-1-1.21-1.84-1.75-1.43-.88-2.14-.79-3.21-1.46a7,7,0,0,1-2.12-2.46C149.33,72.41,144.66,71,144,71.62Z"/><path class="cls-19" d="M255.33,93c-.63-.77,2.85-4.05,6.56-6a25,25,0,0,1,8.05-2.31c2.54-.42,2.77-.16,2.81-.08.17.35-1.24,1.2-2.3,1.69-1.7.78-2.46.61-3.74,1.21-1.45.68-1.86,1.55-2.72,2.43C261.29,92.82,256,93.81,255.33,93Z"/><g class="cls-16"><path class="cls-17" d="M182.3,86.84a6.49,6.49,0,0,1-.05.77l0,.3c0,.1,0,.2,0,.31l-.12.59L182,89a1,1,0,0,1,0,.17,2.17,2.17,0,0,1-.07.24,1.39,1.39,0,0,1-.06.19c0,.16-.09.31-.14.46s-.09.24-.13.36h0l0,0c-.05.14-.1.27-.16.41h0l-.18.43,0,0-.19.39,0,.06,0,.07s0,0,0,0h0c-.12,0-.24,0-.36-.06h0a3.09,3.09,0,0,1-.51-.15,1.65,1.65,0,0,1-1.11-1.39,3.32,3.32,0,0,1,0-.71l0-.2a.5.5,0,0,1,0-.12,7.33,7.33,0,0,1,.23-.89c1-3-1.08-5.94-4.6-8.64l-.43-.32c-.92-.68-1.92-1.34-3-2l-.52-.31a72.82,72.82,0,0,0-6.72-3.41l-.57-.26-.92-.4-.25-.11h0a137.58,137.58,0,0,0-14.4-5.19,6.32,6.32,0,0,1,2.18-1c1.86-.19,4.54.95,6.48,1.65l.33.11.34.11.34.11.27.08.55.15.28.07.66.18h0l.36.11.47.13.26.07.36.11a13.64,13.64,0,0,1,1.36.5l.05,0,.17.07.22.11h0l0,0h0l.05,0,.14.07.08.05.08,0,.07,0,.09.06h0a.16.16,0,0,0,.1,0h0s0,0,0,0h0l0,0,0,0,.1-.07.09,0c.46-.26.68-.15.68-.15a27,27,0,0,1,13.26,5.47l.27.23a.27.27,0,0,1,.08.07l.26.22a12.76,12.76,0,0,1,2.46,3l.22.4h0l0,0h0A14.13,14.13,0,0,1,182.3,86.84Z"/></g><path class="cls-8" d="M144.11,79.28c.14-.36.94-.15,2.92-.78,2.17-.69,2.27-1.26,3.33-1.23,1.51,0,1.66,1.24,3.85,1.78a8,8,0,0,0,3.19.11c2.12-.28,2.5-1.07,4.25-1.33s4.15.14,4.38.89c.43,1.42-6.31,5.6-13.15,4.9C147.94,83.11,143.76,80.15,144.11,79.28Z"/><path class="cls-20" d="M173.88,71.69c-.68.85,3.15,4.41,7.22,6.47a27.53,27.53,0,0,0,8.82,2.46c2.78.44,3,.16,3.07.07.18-.38-1.37-1.3-2.52-1.83-1.87-.85-2.7-.65-4.11-1.3-1.59-.73-2.05-1.68-3-2.63C180.39,71.9,174.56,70.85,173.88,71.69Z"/><path class="cls-20" d="M228.26,77.38c.51.84,5.61-.15,9.38-2a21.25,21.25,0,0,0,6.28-4.82c1.64-1.67,1.49-2,1.42-2-.28-.29-1.85.34-2.86.88-1.64.88-1.83,1.52-3.07,2.17-1.4.75-2.51.63-3.84.84C231.35,73.11,227.76,76.55,228.26,77.38Z"/><path class="cls-10" d="M226.67,94.22A12.81,12.81,0,0,1,228,92a5.14,5.14,0,0,1,1.16-1.11,6.63,6.63,0,0,1,1.6-.84,2.92,2.92,0,0,1,2.91.24,3.45,3.45,0,0,0,1,.6c1.45.59,3-.09,4.44-1.43l.2-.19.19-.2,0,0,.11-.12.12-.14h0l.08-.1,0,0a1.8,1.8,0,0,1,.19-.21h0c.83-.84,2.43-1.68,2.51-2.61l.17.68.27.15,8.15,4.24.1,0,0,0-.08.16a12,12,0,0,1-1.56,2.69,4,4,0,0,1-.46.46l-.11.09-.06,0h0a8.62,8.62,0,0,1-1.25.75h0l-.06,0-.31.16c-.22.12-.45.24-.68.38-1.5.91-2.71,2.13-4.32,2.93h0a12.54,12.54,0,0,1-4.49,1.09c-3.3.28-7.18.07-9.89-1.11C226.19,97.79,225.87,95.86,226.67,94.22Z"/><g class="cls-9"><path d="M239.9,81.62h0l.52-.21.72-.27c1.73-.66,4.19-1.53,6.33-2.28l.7-.24,3-1c.29.39.56.8.82,1.21l.19.32,0,.07h0v0c.07.13.15.26.22.4.95,1.75.54,3.6.56,5.64,0,1.88-.94,3.76-1.84,5.59a2.4,2.4,0,0,0-.11.23l-.11.21A11.82,11.82,0,0,1,249.38,94a4.44,4.44,0,0,1-.37.38h0a8.62,8.62,0,0,1-1.25.75h0l-.06,0-.31.16a6.06,6.06,0,0,1-1.15-.3,4.24,4.24,0,0,1-2-1.43c-.68-1-.82-4-2.13-5l-.07,0a2,2,0,0,0-2.21.18l.08-.1,0,0a1.8,1.8,0,0,1,.19-.21h0c1-1.14,2.68-2.34,2.48-3.55a3.42,3.42,0,0,0-1.1-1.88h0c-.15-.14-.3-.28-.46-.41C240.62,82.23,240.25,81.93,239.9,81.62Z"/></g><path class="cls-11" d="M253.27,85.05a9.32,9.32,0,0,1-1,3.76c-.31.69-.65,1.37-1,2l-.1.22a12.44,12.44,0,0,1-1.56,2.69,4.16,4.16,0,0,1-.42.42l-.11.09-.2.15.05,0,0,0h0l-.14.11-.46.29-.65.35h0a5.72,5.72,0,0,1-1.24-.31,4.17,4.17,0,0,1-2.05-1.44c-.7-1-.84-4.12-2.2-5l0,0c-.54-.35-1.28-.34-2.32.27l0,0,.19-.22h0c1-1.13,2.67-2.33,2.47-3.54a3.36,3.36,0,0,0-1.1-1.87h0c-.15-.14-.3-.28-.47-.41l-1.07-.92-.07-.06h0l.06,0c.22-.1.49-.2.79-.32l.36-.14c1.56-.6,3.86-1.42,6-2.16l4.41-1.53h0l0,0a2.62,2.62,0,0,1,.24.34h0l0,0c.15.23.3.45.44.68l0,.06,0,0,.18.3a.16.16,0,0,0,0,.07h0c.07.12.15.25.21.38l0,0C253.65,81.16,253.25,83,253.27,85.05Z"/><g class="cls-9"><path d="M252.68,79.37a4.19,4.19,0,0,0-.46-.16,6.1,6.1,0,0,0-4.69.22,2.19,2.19,0,0,0-1.07,1c-.54,1.45-2.29,2.07-3.6,2.33h-.06l-.66.11-.7.07h0c-.15-.14-.3-.28-.47-.41l-1.07-.92-.06,0-.06,0h0l.06,0h0a10.83,10.83,0,0,0-1.22-1c-.17-.12-.36-.23-.54-.34a8.36,8.36,0,0,0-1.24-.6l-.27-.1c-.26-.08-.52-.16-.79-.22l-.57-.1a7.89,7.89,0,0,0-1.69,0c.08-.12.15-.25.22-.38a3.18,3.18,0,0,0,.64-1.78c-.11-.69.58-1.84,1.45-3,.61-.82,1.31-1.64,1.91-2.34h.11l.33,0a16.44,16.44,0,0,1,2.74.14l.61.1.56.11a18.7,18.7,0,0,1,7.13,3.27c.21.16.42.32.61.49l.22.19.23.2.42.42.15.17.12.12.16.18.12.15.18.21h0l0,0a2.62,2.62,0,0,1,.24.34h0l0,0,.23.34.21.34,0,.06,0,0,.18.3a.16.16,0,0,0,0,.07h0C252.54,79.11,252.62,79.24,252.68,79.37Z"/></g><path class="cls-12" d="M252.43,78.91a.16.16,0,0,0,0,.07l-.09,0-.4-.14a6.75,6.75,0,0,0-3.81-.18,5.72,5.72,0,0,0-.7.24,3.59,3.59,0,0,0-.34.17,2.12,2.12,0,0,0-1,1c-.54,1.45-2.29,2.07-3.6,2.34-.26,0-.51.08-.72.11-.5.07-.84.08-.84.08-.35-.3-.72-.6-1.07-.91l-.06-.06h0a10.83,10.83,0,0,0-1.22-1c-.17-.12-.35-.23-.54-.34a8.36,8.36,0,0,0-1.24-.6l-.27-.1c-.26-.08-.52-.16-.79-.22l-.57-.1a7.89,7.89,0,0,0-1.69,0h0l-.19,0-.15,0h0l-.24,0,.24-.43a4.08,4.08,0,0,0,.9-2.24,4.76,4.76,0,0,1,1.19-2.64c.62-.87,1.37-1.77,2-2.53l.15-.18h.44a16.14,16.14,0,0,1,3.91.34l.47.11h.06a19,19,0,0,1,6.6,3.16c.21.15.41.32.61.48l.22.19.23.21c.14.13.28.27.41.41l.16.17.11.13a1.37,1.37,0,0,1,.16.18.86.86,0,0,1,.13.14l.29.36c.08.09.15.19.22.28h0l0,0a2.62,2.62,0,0,1,.24.34h0l0,0,.23.34.21.34,0,.06,0,0Z"/><polygon class="cls-12" points="252.47 78.98 252.47 78.98 252.47 78.98 252.47 78.98"/><g class="cls-9"><path d="M242.29,71.66h0a7.6,7.6,0,0,0-.76.21,4,4,0,0,0-2.9,2.61,1.71,1.71,0,0,0,.23,1.44c.76,1-.81,2.18-2,2.85l-.1,0-.69.36-.3.14-.57-.1a7.89,7.89,0,0,0-1.69,0h0l-.19,0-.15,0h0l-.24,0-.19,0-.46.09c-.6.14-1.22.33-1.82.47h0l-.52.1a3.44,3.44,0,0,1-.63.06h0l-.21.33h0l-2.19-1.46-.54-.36-1.9-1.26-.49-.32,0,0,.17-.05.21-.07.07,0,.07,0,.14,0,.34-.08.09,0a.17.17,0,0,1,0-.07v-.07c0-.06,0-.12,0-.17h0a.92.92,0,0,1,.08-.25h0a.39.39,0,0,1,.2-.23,26.05,26.05,0,0,1,2.76-1.68,24.71,24.71,0,0,1,9.16-2.73l.34,0,.35,0h.1l.33,0a15.94,15.94,0,0,1,3.34.23l.51.1h.07Z"/></g><path class="cls-13" d="M241.75,71.54h0a6.23,6.23,0,0,0-.8.22,4,4,0,0,0-2.83,2.59,1.71,1.71,0,0,0,.23,1.44c.78,1-.91,2.24-2.09,2.9l-.69.36-.33.16a7.89,7.89,0,0,0-1.69,0h0l-.19,0-.15,0h0l-.24,0-.19,0-.46.09c-.6.14-1.22.33-1.82.47h0l-.52.1a3.44,3.44,0,0,1-.63.06h0l-.21.33v0a0,0,0,0,0,0,0,.21.21,0,0,0,0,.06.43.43,0,0,1,0,.07h0l-3.17-2.11-1.9-1.26-.49-.32,0,0h0l.16-.06.21-.06h.07l.07,0,.14,0,.31-.07h.12a.17.17,0,0,1,0-.07h0v-.06c0-.06,0-.12,0-.17h0c.06-.41.28-.48.28-.48A24.31,24.31,0,0,1,227,74.34a24.71,24.71,0,0,1,10.1-3.09l.35,0h.44A16.14,16.14,0,0,1,241.75,71.54Z"/><g class="cls-9"><path d="M223.87,76.64h0l.07,0,.14,0,.34-.07a.09.09,0,0,0,.08-.08h0v-.06c0-.06,0-.12,0-.18,1.22-.35,2.43-.19,2.46.42-.37.61,1.88,3.1,1.94,3.17h0l-3.14-1.38c-.81-.36-1.47-.66-1.54-.72a1.28,1.28,0,0,1-.36-.54A.72.72,0,0,1,223.87,76.64Z"/></g><path class="cls-14" d="M213.5,81.8c.93-1.18,3.44-2.06,5.15-2.77l.29-.12.29-.13.29-.14.22-.11.44-.23.23-.11.53-.28,0,0,.3-.15.38-.2.21-.1.3-.15c.4-.18.8-.35,1.21-.49l0,0,.17,0,.21-.07h.07l.07,0,.14,0,.17,0,.17,0h0a.08.08,0,0,0,.07-.07h0a.11.11,0,0,1,.1-.06h.11a2.17,2.17,0,0,1,.34,0c.42,0,1.08,0,1.2.63.21,1.06,1.92,2.32,2.66,2.83h0a.41.41,0,0,1,.13.56s0,0,0,0l-.08.13c-.09.15-.18.3-.28.45l-.12.2-.16.24-.12.17a4.7,4.7,0,0,1-.53.65,3.51,3.51,0,0,1-1.39.84c-1.92.64-4.6.22-6.38.44-1.16.15-2.31.38-3.45.63l-1.23.26a6.86,6.86,0,0,1-2,.34C212.77,84.51,213,82.4,213.5,81.8Z"/><g class="cls-9"><path d="M229.89,79.92a26.28,26.28,0,0,1,3.24-1.1h.14l.47,0c.78,0,2.24-.11,2.48-.09l.64.07a4.41,4.41,0,0,1,2.84,1.33c.21.19.78.58,1.34,1h0l.09.06a8.35,8.35,0,0,1,1.16.91c.08.09.15.19.23.29a4,4,0,0,1,.27.44,3.9,3.9,0,0,1,.34,2.61c0,.29-.12.87-.13,1.21v.13c0,.62-.42,1-.79,1.58l0,0-.15.22a8.89,8.89,0,0,1-4.28,3.15c-2.7.91-3.11-.89-3.11-.89,1.45.59,3-.09,4.44-1.43l.2-.19.19-.2,0,0,.11-.12.12-.14h0l.08-.1,0,0a1.8,1.8,0,0,1,.19-.21h0c1-1.14,2.68-2.34,2.48-3.55a3.42,3.42,0,0,0-1.1-1.88h0c-.15-.14-.3-.28-.46-.41-.36-.31-.73-.61-1.08-.92l-.06,0-.06,0h0l.06,0h0a10.83,10.83,0,0,0-1.22-1c-.17-.12-.36-.23-.54-.34a8.36,8.36,0,0,0-1.24-.6l-.27-.1c-.26-.08-.52-.16-.79-.22l-.57-.1a7.89,7.89,0,0,0-1.69,0h0l-.2,0-.15,0h0l-.24,0-.19,0-.46.09c-.6.14-1.22.33-1.82.47h0Z"/></g><path class="cls-12" d="M230.42,79.82a13.78,13.78,0,0,1,1.82-.47C231.64,79.49,231,79.68,230.42,79.82Z"/><g class="cls-9"><path d="M220.55,81l.67-.57C221,80.64,220.78,80.84,220.55,81Z"/></g><g class="cls-9"><path d="M213.25,84.71A27.26,27.26,0,0,0,217.51,83a18.69,18.69,0,0,0,3-1.93c-.85.72-1.71,1.38-2.49,2l-1.55,1.12-1.23.26A6.86,6.86,0,0,1,213.25,84.71Z"/></g><path class="cls-10" d="M181.08,99.43a17.41,17.41,0,0,0,2.4-1,5.22,5.22,0,0,0,1.16-.88,4.79,4.79,0,0,0,.88-1.2,1.65,1.65,0,0,0-.28-2.17,2.93,2.93,0,0,1-.66-.73c-.63-1.08.07-2.22,1.49-3.33l.2-.15.2-.14,0,0,.13-.09.15-.08h0l.1-.07h0a1.64,1.64,0,0,0,.22-.14h0c.88-.62,1.75-1.82,2.74-1.89l-.73-.12-.15-.2-4.58-6-.06-.07v0l-.18.06a15.37,15.37,0,0,0-2.84,1.19,3.72,3.72,0,0,0-.48.35l-.09.09-.05,0h0a7,7,0,0,0-.78.94h0l0,0-.17.23c-.12.17-.25.34-.39.52-.95,1.12-2.24,2-3.07,3.25h0a7.09,7.09,0,0,0-1.11,3.36,11.89,11.89,0,0,0,1.27,7.36C177.29,99.82,179.35,100,181.08,99.43Z"/><g class="cls-9"><path d="M194.32,89.44h0l.21-.39c.09-.16.18-.35.28-.54.68-1.3,1.58-3.14,2.36-4.74.08-.18.17-.36.25-.53.44-.92.82-1.72,1.07-2.23-.43-.22-.86-.42-1.3-.6l-.34-.14-.08,0h0l-.42-.16c-1.87-.69-3.84-.37-6-.36a18.11,18.11,0,0,0-5.91,1.42l-.24.09-.23.08a14.71,14.71,0,0,0-2.84,1.19,3.13,3.13,0,0,0-.4.28h0a7,7,0,0,0-.78.94h0l0,0-.17.23a3.54,3.54,0,0,0,.33.86,3.35,3.35,0,0,0,1.54,1.51c1,.5,4.27.58,5.3,1.54l.06,0c.37.39.4.92-.17,1.66l.1-.07h0a1.64,1.64,0,0,0,.22-.14h0c1.2-.76,2.45-2,3.74-1.88a4.1,4.1,0,0,1,2,.81h0c.16.11.3.22.45.34Z"/></g><path class="cls-11" d="M198.71,80.81c-.36.75-1,2.13-1.72,3.59s-1.51,3.08-2.09,4.18q-.08.15-.15.27-.18.34-.33.6a.08.08,0,0,0,0,0h0l-.07,0-.49-.39h0l-.49-.39c-.15-.12-.29-.23-.45-.34h0a4.1,4.1,0,0,0-2-.81c-1.29-.14-2.54,1.12-3.74,1.88h0l-.23.14,0,0c.64-.78.63-1.32.26-1.73,0,0,0,0,0,0-1-1-4.29-1.08-5.35-1.59a3.38,3.38,0,0,1-1.55-1.51,3.68,3.68,0,0,1-.34-.93h0c.15-.21.29-.41.45-.6a3.34,3.34,0,0,1,.32-.33.05.05,0,0,0,0,0l.12-.11.09-.08a5,5,0,0,1,.44-.32,15.66,15.66,0,0,1,2.84-1.19l.23-.08a19.12,19.12,0,0,1,6.15-1.51c2.17,0,4.13-.33,6,.36h0L197,80h0l.07,0,.33.13.06,0,0,0c.27.11.54.23.8.36l.36.17a.05.05,0,0,0,0,0Z"/><g class="cls-9"><path d="M204.94,90.63a2,2,0,0,1,0,.25V91l-.7.43c-1.72,1-3.87,2.24-4.95,2.13a4.31,4.31,0,0,0-1.89.49l-.4.17a4.41,4.41,0,0,0-.06-1.26,3.31,3.31,0,0,0-.12-.42,4.29,4.29,0,0,0-.24-.59l-.11-.2a6.32,6.32,0,0,0-.64-.92c-.12-.13-.24-.27-.37-.4a11.19,11.19,0,0,0-1-.9h0l0,0h0l-.06,0a.05.05,0,0,0,0,0l-.49-.39h0l-.49-.39c-.15-.12-.29-.23-.45-.34h0c0-.11,0-.3.07-.53s.06-.31.1-.49a.08.08,0,0,0,0,0,3.57,3.57,0,0,1,2.44-2.71,1.86,1.86,0,0,0,.8-.5,3.27,3.27,0,0,0,.45-3.81l-.17-.35L197,80h0l.07,0,.33.13.06,0,0,0,.36.16.43.19h0l.36.17a.05.05,0,0,0,0,0h0l.22.13.16.09.19.12.13.08.18.12.44.3.23.17.2.16.52.45a12.68,12.68,0,0,1,3.55,5.29l.12.42c0,.14.08.3.11.45A8.12,8.12,0,0,1,204.94,90.63Z"/></g><path class="cls-12" d="M205.41,90.88c0,.08,0,.16,0,.25v.07l-.19.12-.78.47c-1.67,1-3.66,2.07-4.68,2a5.63,5.63,0,0,0-2.37.7c-.15.06-.3.13-.45.18l0-.17v0h0s0-.08,0-.11,0-.1,0-.15h0a4.41,4.41,0,0,0-.06-1.26,3.31,3.31,0,0,0-.12-.42,4.29,4.29,0,0,0-.24-.59l-.11-.2a6.32,6.32,0,0,0-.64-.92c-.12-.13-.24-.27-.37-.4a11.19,11.19,0,0,0-1-.9h0l-.06,0-.5-.39h0l-.48-.39a5.72,5.72,0,0,1,.07-.62c0-.16.07-.35.12-.54A3.57,3.57,0,0,1,196,84.78a1.92,1.92,0,0,0,.8-.5,3,3,0,0,0,.4-.51,3.71,3.71,0,0,0,.25-.53,3.56,3.56,0,0,0-.23-2.83c0-.1-.1-.2-.16-.3s0,0,0-.06h0l.07,0,.33.13.06,0,0,0,.36.16.43.19h0l.36.17a.05.05,0,0,0,0,0h0l.3.16.39.21.15.09.19.12.14.09.18.11.44.31.22.17a1.56,1.56,0,0,1,.2.16,5.59,5.59,0,0,1,.52.45,13,13,0,0,1,3.42,4.89s0,0,0,0v0c.05.11.08.23.12.34A8.36,8.36,0,0,1,205.41,90.88Z"/><g class="cls-9"><path d="M205.27,90.48c0,.08,0,.16,0,.25s0,0,0,.07,0,.17,0,.26l0,.26a13.43,13.43,0,0,1-.3,1.56,16,16,0,0,1-4.27,7.37s0,.09-.24.15h0a.83.83,0,0,1-.27.06h-.34s0,0,0,.06l-.08.26,0,.1s0,0,0,.06,0,0,0,0a1,1,0,0,1-.07.15.5.5,0,0,1,0,.13l0,0-.35-.36-1.35-1.4-.38-.4h0l-1.57-1.62h0l.35-.16h0a2.5,2.5,0,0,1,.05-.47c0-.13.07-.26.11-.39h0c.14-.45.34-.91.47-1.36a2.25,2.25,0,0,0,.09-.35l0-.14,0-.17v0h0s0-.08,0-.11,0-.1,0-.15h0a4.41,4.41,0,0,0-.06-1.26,3.31,3.31,0,0,0-.12-.42l.15-.23.37-.52.06-.07c.7-.88,1.91-2.07,3-1.51a3.08,3.08,0,0,0,2.87-.38,3.79,3.79,0,0,0,1.41-1.65,4.79,4.79,0,0,0,.21-.57h0s0,0,0,0v0c0,.12.08.25.11.37A8.25,8.25,0,0,1,205.27,90.48Z"/></g><path class="cls-13" d="M205.41,90.88c0,.08,0,.16,0,.25v.07l0,.26a13.53,13.53,0,0,1-.31,1.78,16.11,16.11,0,0,1-4.29,7.41s-.07.16-.5.21h-.34a.11.11,0,0,0,0,0h0l0,.08,0,0a.14.14,0,0,1,0,.06.14.14,0,0,1,0,.07.42.42,0,0,1,0,.1.14.14,0,0,1,0,.06s0,0,0,0a0,0,0,0,1,0,0l-.06.15-.06.13v0h0l-.35-.36L197.9,100c-.83-.87-1.65-1.7-2.27-2.35l.14-.06,0,0,.35-.16h0a2.5,2.5,0,0,1,.05-.47c0-.13.07-.26.11-.39h0c.14-.45.34-.91.47-1.36a2.25,2.25,0,0,0,.09-.35l0-.14,0-.17v0h0s0-.08,0-.11,0-.1,0-.15h0a4.41,4.41,0,0,0-.06-1.26l.16-.25.38-.52c.68-.88,1.93-2.15,3-1.58a3.11,3.11,0,0,0,3-.44,4,4,0,0,0,1.29-1.54A3.54,3.54,0,0,0,205,88a0,0,0,0,0,0,0A8.36,8.36,0,0,1,205.41,90.88Z"/><g class="cls-9"><path d="M199.76,101.35h0a.14.14,0,0,0,0-.06.42.42,0,0,0,0-.1,2.58,2.58,0,0,0,.08-.26.1.1,0,0,1,.08-.06h.28c.36-.91.17-1.81-.47-1.83-.64.28-3.31-1.37-3.39-1.41h0l1.5,2.33c.39.59.72,1.08.78,1.14a1.37,1.37,0,0,0,.58.26A.94.94,0,0,0,199.76,101.35Z"/></g><path class="cls-14" d="M194.39,109.13c1.25-.71,2.15-2.59,2.89-3.87a2.39,2.39,0,0,1,.13-.21c0-.08.09-.15.13-.22l.15-.22.11-.16.24-.34.12-.17.29-.4,0,0,.16-.22c.07-.1.14-.19.2-.29l.11-.16.15-.22a7.49,7.49,0,0,0,.51-.91l0,0,.06-.13.06-.15v0s0,0,0,0a.14.14,0,0,0,0-.06.42.42,0,0,0,0-.1.93.93,0,0,0,0-.13.65.65,0,0,0,0-.13h0a.1.1,0,0,1,.08-.06h0a.08.08,0,0,0,.07-.07v-.07h0a1.83,1.83,0,0,0,0-.26.75.75,0,0,0-.67-.89,6.79,6.79,0,0,1-3-1.95h0a.54.54,0,0,0-.59-.09h0l-.14.06-.48.21-.21.1-.25.12-.18.09a5.06,5.06,0,0,0-.68.4,2.59,2.59,0,0,0-.88,1c-.66,1.43-.19,3.43-.41,4.76a22,22,0,0,1-.63,2.58c-.09.3-.18.61-.26.92-.14.48-.49,1.28-.34,1.51S193.76,109.48,194.39,109.13Z"/><g class="cls-9"><path d="M196.22,96.88a15.28,15.28,0,0,0,1.15-2.42v-.1s0-.18,0-.35c0-.58.1-1.67.08-1.85s-.05-.33-.08-.48a3,3,0,0,0-1.44-2.1c-.21-.16-.62-.58-1-1h0a.46.46,0,0,0-.07-.07,7.34,7.34,0,0,0-1-.86l-.31-.16a3.26,3.26,0,0,0-.48-.2,5.79,5.79,0,0,0-2.76-.23c-.32,0-.93.1-1.29.11h-.14a3.72,3.72,0,0,0-1.67.6l0,0-.24.11a7.35,7.35,0,0,0-3.29,3.23c-.94,2,1,2.31,1,2.31-.64-1.08.06-2.22,1.48-3.33l.2-.15a1.53,1.53,0,0,1,.21-.14l0,0,.13-.09.14-.08h0l.1-.07h0a1.64,1.64,0,0,0,.22-.14h0c1.2-.76,2.45-2,3.74-1.88a4.1,4.1,0,0,1,2,.81h0c.16.11.3.22.45.34l1,.79s0,0,0,0l.06,0h0l0,0h0a11.19,11.19,0,0,1,1,.9c.13.13.25.27.37.4a6.32,6.32,0,0,1,.64.92,2,2,0,0,1,.11.2,4.29,4.29,0,0,1,.24.59,3.31,3.31,0,0,1,.12.42,4.41,4.41,0,0,1,.06,1.26h0s0,.1,0,.15,0,.07,0,.11h0v0l0,.18,0,.13a2.25,2.25,0,0,1-.09.35c-.13.45-.33.91-.47,1.36h0C196.29,96.63,196.25,96.76,196.22,96.88Z"/></g><path class="cls-12" d="M196.33,96.49a7.84,7.84,0,0,0,.47-1.36C196.67,95.58,196.47,96,196.33,96.49Z"/><g class="cls-9"><path d="M195.15,103.86l.6-.5C195.54,103.52,195.34,103.69,195.15,103.86Z"/></g><g class="cls-9"><path d="M191.31,109.34a17,17,0,0,1,1.82-3.19,14.62,14.62,0,0,1,2-2.29c-.75.65-1.45,1.29-2.06,1.88-.44.42-.84.82-1.18,1.17-.09.3-.18.61-.26.92C191.51,108.31,191.16,109.11,191.31,109.34Z"/></g><path class="cls-4" d="M229.39,132.75H190.12a2.08,2.08,0,0,1-2.23-1.87v-3.2a2.08,2.08,0,0,1,2.23-1.87h39.27a2.08,2.08,0,0,1,2.23,1.87v3.2A2.08,2.08,0,0,1,229.39,132.75Z"/><path class="cls-4" d="M278.21,78.06c0,28.76-31.11,52.07-69.48,52.07s-69.48-23.31-69.48-52.07c0,9.7,31.11,17.56,69.48,17.56S278.21,87.76,278.21,78.06Z"/><g class="cls-21"><path d="M187.85,129.1s10,.87,20.71.87,22.83-1.2,22.83-1.2A90.8,90.8,0,0,1,187.85,129.1Z"/></g><ellipse class="cls-22" cx="194.75" cy="109.98" rx="1.9" ry="1.59"/><ellipse class="cls-22" cx="222.63" cy="109.98" rx="1.9" ry="1.59"/><path class="cls-22" d="M208.85,113.65a9.92,9.92,0,0,1-5.15-1.34.42.42,0,0,1-.08-.66.63.63,0,0,1,.78-.08,8.71,8.71,0,0,0,4.45,1.14,9.31,9.31,0,0,0,4.55-1.14.62.62,0,0,1,.78.09.42.42,0,0,1-.1.66A10.49,10.49,0,0,1,208.85,113.65Z"/><g class="cls-16"><path class="cls-17" d="M139.8,80.31s12.53,22.25,106.67,12.86C246.62,93.15,152.88,111.55,139.8,80.31Z"/></g><g class="cls-16"><path class="cls-17" d="M239.41,47.77c-2.88-4.5-25.63,5-26.6,5.4,2.59-1.44,6.78-3.5,13.89-7,5.33-2.61,8-3.9,9.46-3.4a5.11,5.11,0,0,1,2.91,3.58h0A11.3,11.3,0,0,1,239.41,47.77Z"/></g><g class="cls-16"><path class="cls-17" d="M208.09,51.74c-9.35-10.79-14.69-9.46-15.62-9.12.15-.81.3-1.67.46-2.58.78-4.39,1.25-7.06,2.7-7.28.85-.12,2.33.55,6.37,7.61A125.4,125.4,0,0,1,208.09,51.74Z"/></g><g class="cls-16"><path class="cls-17" d="M256.26,69.75a3.88,3.88,0,0,1-.45,1.22,2.46,2.46,0,0,1-.54.65s0,0,0-.06c-1.07-5.08-7.59-4.62-8.65-4.51a14.29,14.29,0,0,1,5.5-2.62,3.25,3.25,0,0,1,3.57,2.11,10,10,0,0,1,.61,2A3.3,3.3,0,0,1,256.26,69.75Z"/></g><g class="cls-16"><path class="cls-17" d="M270.22,72.42c0,.06-.07.13-.1.2l-.1.21-.09.21c0,.06-.05.12-.07.17l-.13.34c0,.06-.05.11-.07.17l-.15.41a0,0,0,0,0,0,0c-.1-2.06-.75-3-1.47-3.35l-.09,0a2.82,2.82,0,0,0-2.17.14,8,8,0,0,0,.84-.67c.62-.61,1.19-1.26,1.74-1.92l.6-.7c.32-.37.77-1.05,1-1.11.43-.09,1.59,1.33,1.68,1.91C271.84,69.57,270.83,71.23,270.22,72.42Z"/></g><g class="cls-16"><path class="cls-17" d="M251.54,84.41a8.23,8.23,0,0,1-.86,3.34l-.06-.23a17.38,17.38,0,0,0-4.19-8.12l-.35-.35,0,0-.08-.08A16,16,0,0,0,238.5,75l-.48-.1c-.68-.15-1.35-.26-2-.34l-.53,0a26.21,26.21,0,0,0-6.35.18c-.64.1-1,.18-1,.18a22.15,22.15,0,0,1,9-2.75l.31,0h.39a14.19,14.19,0,0,1,3.48.3l.41.1h.06a17,17,0,0,1,5.87,2.81l.55.43.19.17a1.8,1.8,0,0,1,.2.19l.37.36.14.15.11.12.14.16.11.13.26.31.19.26h0s0,0,0,0l.22.3h0a.1.1,0,0,1,0,0l.2.3c.07.1.13.2.19.3s0,0,0,0l0,.05c.06.09.11.18.16.27a.09.09,0,0,1,0,0h0l.19.34,0,0C251.88,80.94,251.52,82.59,251.54,84.41Z"/></g><g class="cls-16"><path class="cls-17" d="M205.39,91.72a2.18,2.18,0,0,1,0,.25V92a2.28,2.28,0,0,1,0,.26,15.41,15.41,0,0,1-.31,1.78c-.06-.12-.1-.23-.15-.35-.15-.38-.31-.74-.48-1.1l-.2-.4a13.08,13.08,0,0,0-.75-1.26c-.07-.11-.14-.23-.22-.34A17.53,17.53,0,0,0,197,85.24l-.09,0-.13-.07-.47-.24A32,32,0,0,0,184.48,82h-.32l.23-.08a19.06,19.06,0,0,1,6.15-1.51c2.17,0,4.13-.33,6,.36h0l.4.16h0l.07,0,.32.13.06,0,.06,0,.36.16.43.19h0l.35.17,0,0h0l.31.16c.13.07.26.14.38.22a.65.65,0,0,1,.16.09l.19.11.13.09.18.11c.15.1.3.2.44.31l.23.17a1.56,1.56,0,0,1,.2.16c.18.14.35.29.52.45a12.86,12.86,0,0,1,3.41,4.89h0l0,0v0l.12.34A8.6,8.6,0,0,1,205.39,91.72Z"/></g><rect class="cls-23" y="0.25" width="300" height="165"/></g></g></svg>