<svg xmlns="http://www.w3.org/2000/svg" xmlns:xlink="http://www.w3.org/1999/xlink" viewBox="0 0 300 165"><defs><style>.cls-1{isolation:isolate;}.cls-2{fill:#fce5cd;}.cls-3{fill:#bca499;}.cls-4{fill:#f7ac41;}.cls-5{fill:#fcefeb;}.cls-6{fill:#c68d7d;}.cls-7{opacity:0.88;}.cls-11,.cls-13,.cls-15,.cls-7,.cls-9{mix-blend-mode:soft-light;}.cls-8{fill:#c1272d;}.cls-10{fill:#fff;}.cls-11{opacity:0.32;}.cls-12{fill:#487233;}.cls-13{opacity:0.52;}.cls-14{fill:#ffe8d9;}.cls-15{opacity:0.49;}.cls-16{fill:url(#linear-gradient);}</style><linearGradient id="linear-gradient" x1="150.37" y1="168.37" x2="149.66" y2="1.92" gradientUnits="userSpaceOnUse"><stop offset="0.03" stop-color="#591c16"/><stop offset="0.22" stop-color="#5f241d" stop-opacity="0.96"/><stop offset="0.38" stop-color="#733c33" stop-opacity="0.84"/><stop offset="0.53" stop-color="#936459" stop-opacity="0.64"/><stop offset="0.68" stop-color="#c09d8d" stop-opacity="0.36"/><stop offset="0.82" stop-color="#fae5cf" stop-opacity="0"/></linearGradient></defs><g class="cls-1"><g id="Layer_1" data-name="Layer 1"><rect class="cls-2" x="-0.27" y="-0.15" width="300" height="165"/><ellipse class="cls-3" cx="211.7" cy="66.2" rx="60.84" ry="19.09"/><path class="cls-4" d="M151.79,71.1a11.38,11.38,0,0,1-1.07-2.19,12.37,12.37,0,0,1-.65-2.37,4.51,4.51,0,0,1,0-.65,4.42,4.42,0,0,1,0-.63,7.61,7.61,0,0,1,.22-1.25,8.58,8.58,0,0,1,1-2.26,14.75,14.75,0,0,1,3.29-3.48,28.64,28.64,0,0,1,3.95-2.56,53.74,53.74,0,0,1,8.53-3.64c2.92-1,5.9-1.8,8.89-2.5a146.91,146.91,0,0,1,18.16-2.88c6.1-.6,12.22-.88,18.34-.88a181.36,181.36,0,0,1,18.35.89A140.49,140.49,0,0,1,249,49.65a87.4,87.4,0,0,1,8.89,2.57,48.67,48.67,0,0,1,8.54,3.84,23.26,23.26,0,0,1,3.9,2.8,14.63,14.63,0,0,1,1.71,1.8,10.17,10.17,0,0,1,1.34,2.21,7.69,7.69,0,0,1,.63,2.61c0,.12,0,.23,0,.35s0,.23,0,.34,0,.43,0,.64q-.07.61-.18,1.23a14.52,14.52,0,0,1-.64,2.41,8.1,8.1,0,0,1-.53,1.16,4.49,4.49,0,0,1-.79,1.07l-.69-.62a8.14,8.14,0,0,0,.66-2c.16-.73.27-1.49.36-2.25.05-.37.09-.75.12-1.13,0-.18,0-.37,0-.55a4.34,4.34,0,0,0,0-.51,5.8,5.8,0,0,0-.48-2,10.24,10.24,0,0,0-2.6-3.41,22.58,22.58,0,0,0-3.62-2.62,47.84,47.84,0,0,0-8.24-3.74,87.31,87.31,0,0,0-8.73-2.55,137.75,137.75,0,0,0-18-3c-6-.63-12.12-.94-18.2-1s-12.17.18-18.23.72a144.88,144.88,0,0,0-18,2.71c-3,.65-5.92,1.42-8.81,2.36a52.44,52.44,0,0,0-8.43,3.47A26.54,26.54,0,0,0,155.09,59a13.79,13.79,0,0,0-3.15,3.23,8,8,0,0,0-1,2,6.56,6.56,0,0,0-.21,1.09,5.25,5.25,0,0,0,0,.56c0,.17,0,.36,0,.54a10.84,10.84,0,0,0,.58,2.22,11.24,11.24,0,0,0,1,2.07Z"/><path class="cls-5" d="M199.48,73.73a16,16,0,0,1-1.07,5.77c-2.11,5.55-7.19,10-13.72,12.15A27.93,27.93,0,0,1,176,93c-13,0-23.53-8.64-23.53-19.3,0-6.47,3.88-12.19,9.82-15.69A27.1,27.1,0,0,1,176,54.43c7.64,0,14.42,3,18.72,7.6A17.1,17.1,0,0,1,199.48,73.73Z"/><ellipse class="cls-5" cx="201.7" cy="64.3" rx="20.63" ry="19.3"/><path class="cls-6" d="M211,53.54a.69.69,0,0,1-.49-1.19,3,3,0,0,1,2-1,4,4,0,0,1,2.26.86.61.61,0,0,1-.31,1.1Z"/><ellipse class="cls-5" cx="224.04" cy="85.29" rx="23.53" ry="19.3"/><g class="cls-7"><path d="M225.16,87c.22-.3.44-.6.64-.91a16.79,16.79,0,0,0,2.65-6.75,15.37,15.37,0,0,0,.19-2.45c0-9.87-9-18-20.69-19.16-.93-.09-1.88-.14-2.84-.14A28.22,28.22,0,0,0,196.37,59c-6.46,2.12-11.5,6.53-13.65,12a16.09,16.09,0,0,0-1.14,5.94,17.08,17.08,0,0,0,4.82,11.7Z"/></g><path class="cls-5" d="M250.47,70a17.22,17.22,0,0,1-5.09,12h0a24.15,24.15,0,0,1-11.24,6.39h0a27.9,27.9,0,0,1-5.41.87h0c-.59,0-1.18.05-1.78.05-1,0-1.91-.05-2.84-.14a24.74,24.74,0,0,1-16.44-8.09A17,17,0,0,1,203.41,70a16.51,16.51,0,0,1,2.84-9.2c4-6,11.75-10.1,20.69-10.1C239.93,50.69,250.47,59.33,250.47,70Z"/><g class="cls-7"><path d="M247.57,76.77l-4.88,5.36-4.3,4.72a25.47,25.47,0,0,1-4.25,1.52h0l-5.41.87h0l-3.2.5-6.18-7.61L213,74.35l3.15-8.49s10.84,8.67,15.23,8.49,12.39-9.09,12.39-9.09Z"/></g><g class="cls-7"><path d="M238.39,86.85l-8,8.85-4.83-6,3.2-.5h0l5.41-.87h0A25.47,25.47,0,0,0,238.39,86.85Z"/></g><path class="cls-8" d="M251.09,53.29a7.93,7.93,0,0,1-.25,1.08c-1.24,4.16-5.65,9.49-9.64,10.2a4.69,4.69,0,0,1-1.67,0,4.83,4.83,0,0,1-1.75-.77c-3.94-2.46-5.74-9.5-5.2-13.28a5.81,5.81,0,0,1,.24-1.05A2.89,2.89,0,0,1,233,49a4.65,4.65,0,0,1,.73-1.08c1.28-1.44,3.32-2,5.67-2l1.13,0h0l.35,0,.94.11c.52.06,1,.15,1.56.25.76.15,1.53.33,2.3.53a8.82,8.82,0,0,1,.95.32h0a9.56,9.56,0,0,1,3.55,2.56h0a5.26,5.26,0,0,1,.63.85,2.51,2.51,0,0,1,.22.56l.06.22A5.19,5.19,0,0,1,251.09,53.29Z"/><g class="cls-9"><path class="cls-10" d="M251.09,53.29a7.93,7.93,0,0,1-.25,1.08c-1.24,4.16-5.65,9.49-9.64,10.2,3.77-3.68,7.39-6.76,9.85-13.34l.06.22A5.19,5.19,0,0,1,251.09,53.29Z"/></g><g class="cls-11"><path d="M251.11,51.45c-.05-.11-.1-.22-.16-.33a8.79,8.79,0,0,0-.75-1.3h0a8.88,8.88,0,0,0-3.6-3,9.26,9.26,0,0,0-1.18-.42h0a9.29,9.29,0,0,0-1.73-.27h-1.3l-.3,0h-.24a5.83,5.83,0,0,0-.83.08l-.1-.06a1.39,1.39,0,0,0-.28-.12l-.08,0h0a2.53,2.53,0,0,0-1.13,0,5.17,5.17,0,0,0-.54.11c-.81.22-1.61.48-2.4.75A18,18,0,0,0,233.73,48a7.32,7.32,0,0,0-1.52,1,.75.75,0,0,0,.54.47h.07a5.81,5.81,0,0,0-.24,1.05h.07c1.18.17,2.31-.43,3.43-.75.66-.18,1.33-.35,2-.48h.06c-.11.44-.2.89-.28,1.35a26.5,26.5,0,0,0-.36,2.82.88.88,0,0,0,1.49.65c.65-.7,1.31-1.4,2-2.08l1-1c.15-.15.32-.37.5-.55a6.49,6.49,0,0,1,.38.74c.26.52.52,1,.77,1.56.53,1.07,1,2.14,1.55,3.22a.88.88,0,0,0,1.63-.46l-.06-.43a22.69,22.69,0,0,0-.75-3.46l.49.14a8.4,8.4,0,0,1,3.71,2.32.81.81,0,0,0,.66.27,7.93,7.93,0,0,0,.25-1.08,1,1,0,0,0,.5-.31A8.78,8.78,0,0,0,251.11,51.45Zm-11.52-.55a.06.06,0,0,1,0,0h0Z"/></g><path class="cls-12" d="M251.82,52.17v0a9,9,0,0,0-5.05-6.4,8.1,8.1,0,0,0-3-.69,5.33,5.33,0,0,0-.57,0c-.23,0-.46,0-.69,0l-.3,0h-.18a8.91,8.91,0,0,0-.89.08,1.46,1.46,0,0,0-.38-.18A2.94,2.94,0,0,0,239,45c-.81.21-1.61.47-2.4.74A11.89,11.89,0,0,0,232.37,48a.9.9,0,0,0-.16,1,.75.75,0,0,0,.54.47h.07c1.18.17,2.31-.42,3.43-.74.68-.2,1.37-.36,2.06-.5-.09.36-.16.72-.23,1.08s-.16.89-.22,1.34-.15,1.17-.19,1.76a.88.88,0,0,0,1.49.64c.65-.7,1.31-1.4,2-2.08l1-1c.15-.15.33-.36.5-.55a6.49,6.49,0,0,1,.38.74c.26.52.52,1,.77,1.56.53,1.07,1,2.15,1.55,3.23a.89.89,0,0,0,1.4.17.73.73,0,0,0,.23-.63,22,22,0,0,0-.49-2.69c-.09-.41-.2-.81-.32-1.21a8.51,8.51,0,0,1,4.2,2.46.79.79,0,0,0,.74.26,1,1,0,0,0,.5-.31A1,1,0,0,0,251.82,52.17Zm-12.06-2.33a.09.09,0,0,1,0-.05l0,0Z"/><g class="cls-9"><path class="cls-10" d="M251.82,52.17l-.31-.39c-.15-.18-.3-.37-.46-.55l-.07-.08c-.52-.59-1.07-1.15-1.63-1.67l-.56-.51c-.57-.49-1.14-.95-1.69-1.38l-.46-.34c-.71-.52-1.38-1-2-1.35l-.88-.54-.57-.33c-.45-.26-.73-.4-.73-.4l1.31.18a1.93,1.93,0,0,1,0,.24,8.1,8.1,0,0,1,3,.69,9,9,0,0,1,5.05,6.4Z"/></g><path class="cls-12" d="M244.65,40.34c-.14.65-.42,1.27-.57,1.91a12,12,0,0,0-.27,2.56,1.93,1.93,0,0,1,0,.24v.31c0,.1,0,.2,0,.3a1.34,1.34,0,0,1,0,.3.87.87,0,0,1-.35.44.91.91,0,0,1-.77.1.89.89,0,0,1-.26.38h0a.61.61,0,0,1-.24.15l0,0a.87.87,0,0,1-.31.07,1,1,0,0,1-.25,0l0,0a.76.76,0,0,1-.33-.23,1.14,1.14,0,0,1-.25-.62l0-.17s0-.07,0-.11c0-.23,0-.45-.07-.68s0-.18,0-.27a5.94,5.94,0,0,1,.14-2,14.93,14.93,0,0,1,.76-2c.29-.68.58-1.61,1.33-1.88A1.19,1.19,0,0,1,244.65,40.34Z"/><ellipse class="cls-5" cx="251.92" cy="73.73" rx="19.25" ry="17.18" transform="matrix(0.21, -0.98, 0.98, 0.21, 127.38, 304.79)"/><path class="cls-8" d="M181.07,47.63a12.11,12.11,0,0,0-.57,1.14c-1.95,4.6-2,12.71.94,16.49a5.14,5.14,0,0,0,3.52,2c5.22,1,11.9-3.7,14.17-7.41a6.73,6.73,0,0,0,.56-1.1,3.84,3.84,0,0,0,.16-.52,6.14,6.14,0,0,0,.16-1.52c-.06-2.26-1.44-4.35-3.48-6.21-.32-.3-.66-.58-1-.86h0l-.33-.26-.9-.66c-.49-.35-1-.68-1.53-1-.77-.48-1.57-.93-2.38-1.36a9.81,9.81,0,0,0-1.06-.47h0a10.55,10.55,0,0,0-4.94-.59h0a6.67,6.67,0,0,0-1.18.24,3,3,0,0,0-.59.31l-.21.15A5.65,5.65,0,0,0,181.07,47.63Z"/><g class="cls-9"><path class="cls-10" d="M181.07,47.63a12.11,12.11,0,0,0-.57,1.14c-1.95,4.6-2,12.71.94,16.49-.59-6.18-1.49-11.72,1.16-19.38l-.21.15A5.65,5.65,0,0,0,181.07,47.63Z"/></g><g class="cls-11"><path d="M182.39,46l.38-.17a9.68,9.68,0,0,1,1.6-.53h0a9.78,9.78,0,0,1,5.31.25,8.32,8.32,0,0,1,1.33.57h0a10.82,10.82,0,0,1,1.71,1.14l0,0c.17.14.34.28.5.43l.6.57.24.25.15.16,0,0a6.78,6.78,0,0,1,.67.74l.12,0,.34.11.1,0h0a3.05,3.05,0,0,1,1,.86,6.42,6.42,0,0,1,.38.53c.55.83,1.05,1.69,1.54,2.55A22.82,22.82,0,0,1,200,56.76a9.37,9.37,0,0,1,.56,2.11.83.83,0,0,1-.81,0l-.07,0a6.73,6.73,0,0,1-.56,1.1h0l-.07,0c-1.15-.78-1.69-2.19-2.43-3.36-.44-.69-.9-1.35-1.39-2l0-.05c-.23.47-.48.93-.74,1.39a30.14,30.14,0,0,1-1.74,2.74A1,1,0,0,1,191,58c0-1.13-.11-2.25-.19-3.37l-.12-1.69c0-.24,0-.57,0-.87a7.52,7.52,0,0,0-.87.35l-1.8.74c-1.24.51-2.47,1-3.69,1.57A1.05,1.05,0,0,1,183.17,53l.36-.32a24.6,24.6,0,0,1,3.17-2.42l-.53-.27a9.51,9.51,0,0,0-4.9-.92,1,1,0,0,1-.77-.29,12.11,12.11,0,0,1,.57-1.14,1.08,1.08,0,0,1-.21-.66A8.61,8.61,0,0,1,182.39,46Zm10.39,8.65,0,0h0Z"/></g><path class="cls-12" d="M181.25,46.1l0,0a9.53,9.53,0,0,1,12.11.19c.17.14.34.28.5.43l.59.57.25.25.15.16a10.44,10.44,0,0,1,.71.77,2.24,2.24,0,0,1,.46.14A3.74,3.74,0,0,1,197.54,50c.55.83,1.05,1.68,1.54,2.55a15.09,15.09,0,0,1,2.12,5.26,1,1,0,0,1-.63,1,.83.83,0,0,1-.81,0l-.07,0c-1.15-.78-1.69-2.19-2.43-3.36-.45-.71-.93-1.39-1.43-2.06-.19.37-.38.75-.59,1.11s-.51.9-.78,1.34-.72,1.13-1.11,1.68a1,1,0,0,1-1.77-.63c-.05-1.12-.12-2.24-.19-3.36l-.12-1.69c0-.25,0-.57,0-.87a7.36,7.36,0,0,0-.86.35l-1.81.74c-1.23.51-2.46,1-3.68,1.57-.62.27-1.28-.33-1.35-.95a.83.83,0,0,1,.27-.74,27.24,27.24,0,0,1,2.37-2c.38-.27.76-.53,1.16-.79A9.55,9.55,0,0,0,181.9,48a.9.9,0,0,1-.83-.37,1.08,1.08,0,0,1-.21-.66A1.11,1.11,0,0,1,181.25,46.1Zm12.16,7.52,0,0h0Z"/><g class="cls-9"><path class="cls-10" d="M181.25,46.1l.55-.1c.26,0,.53-.08.8-.12h.12a26,26,0,0,1,2.64-.16h.85c.84,0,1.68.07,2.47.14l.64.07c1,.11,1.9.24,2.69.38l1.16.22.72.16.93.23L193.55,46l-.16.22a9.53,9.53,0,0,0-12.11-.19Z"/></g><path class="cls-12" d="M196.07,41.5c-.34.68-.55,1.44-.89,2.12A13.69,13.69,0,0,1,193.55,46l-.16.22-.22.27c-.07.1-.15.18-.22.28a1.22,1.22,0,0,0-.17.29.94.94,0,0,0,0,.66,1.13,1.13,0,0,0,.6.7,1.06,1.06,0,0,0-.06.53h0a.85.85,0,0,0,.09.31.05.05,0,0,0,0,0,.87.87,0,0,0,.22.31.78.78,0,0,0,.24.16l.05,0a.87.87,0,0,0,.45.06,1.26,1.26,0,0,0,.68-.34l.13-.13.09-.09.55-.54.22-.22a6.41,6.41,0,0,0,1.34-1.85,19.16,19.16,0,0,0,.81-2.35c.24-.83.66-1.86.21-2.68A1.33,1.33,0,0,0,196.07,41.5Z"/><path class="cls-8" d="M255.15,65.2a9.38,9.38,0,0,0-.39,1c-1.28,3.84-.8,10.37,1.8,13.21a4.58,4.58,0,0,0,1.25,1,4.42,4.42,0,0,0,1.72.44c4.26.43,9.34-3.8,10.94-6.94a6.77,6.77,0,0,0,.38-.93,3.67,3.67,0,0,0,.09-.43,4.32,4.32,0,0,0,0-1.24c-.19-1.81-1.43-3.4-3.19-4.76-.28-.21-.57-.42-.87-.62h0l-.28-.18c-.25-.16-.5-.32-.76-.47-.42-.25-.86-.48-1.3-.71-.65-.33-1.33-.64-2-.93a8.59,8.59,0,0,0-.89-.31h0a8.31,8.31,0,0,0-4-.13h0a4.47,4.47,0,0,0-.93.27,2.22,2.22,0,0,0-.46.29,1.07,1.07,0,0,0-.16.14A4.44,4.44,0,0,0,255.15,65.2Z"/><g class="cls-9"><path class="cls-10" d="M255.15,65.2a9.38,9.38,0,0,0-.39,1c-1.28,3.84-.8,10.37,1.8,13.21-.87-4.93-1.94-9.34-.29-15.68a1.07,1.07,0,0,0-.16.14A4.44,4.44,0,0,0,255.15,65.2Z"/></g><g class="cls-11"><path d="M256.11,63.82l.29-.17a8.19,8.19,0,0,1,1.26-.53h0a8,8,0,0,1,4.3-.18,8.5,8.5,0,0,1,1.11.37h0a7.53,7.53,0,0,1,1.44.8h0l.43.32c.17.13.35.27.52.42l.21.18.13.12,0,0c.19.17.4.35.58.54l.1,0a1.27,1.27,0,0,1,.28.06l.08,0h0a2.62,2.62,0,0,1,.87.62c.12.13.23.27.34.41.49.63.95,1.28,1.4,1.94A18.55,18.55,0,0,1,271,71.23a7.36,7.36,0,0,1,.59,1.67.7.7,0,0,1-.66,0l0,0a6.77,6.77,0,0,1-.38.93h0l-.06,0a8.23,8.23,0,0,1-2.17-2.54c-.4-.52-.81-1-1.25-1.52l0,0q-.24.58-.51,1.17a25.89,25.89,0,0,1-1.23,2.33.81.81,0,0,1-1.46-.38c-.12-.9-.24-1.8-.37-2.7-.07-.45-.13-.9-.21-1.35,0-.2,0-.46-.08-.7a5.26,5.26,0,0,0-.67.34l-1.41.72c-1,.5-1.92,1-2.87,1.52-.68.37-1.53-.67-1-1.28l.27-.29a19.6,19.6,0,0,1,2.4-2.16l-.45-.19a7.67,7.67,0,0,0-4-.4.76.76,0,0,1-.64-.18,9.38,9.38,0,0,1,.39-1,.93.93,0,0,1-.22-.53A7.51,7.51,0,0,1,256.11,63.82ZM265,70.06s0,0,0,0h0A.08.08,0,0,0,265,70.06Z"/></g><path class="cls-12" d="M255.19,63.94l0,0a7.68,7.68,0,0,1,9.77-.68l.43.31c.17.14.35.27.51.42l.21.18.14.12a8.36,8.36,0,0,1,.62.58,1.23,1.23,0,0,1,.38.08,2.85,2.85,0,0,1,1.29,1c.49.63.95,1.28,1.4,1.94A12.09,12.09,0,0,1,272,72a.85.85,0,0,1-.44.89.7.7,0,0,1-.66,0l0,0a8.1,8.1,0,0,1-2.17-2.54c-.41-.53-.84-1.06-1.28-1.56-.13.32-.26.63-.41.94s-.35.76-.54,1.13-.51,1-.79,1.43a.81.81,0,0,1-1.46-.38c-.12-.9-.24-1.8-.37-2.7l-.21-1.35c0-.2,0-.46-.08-.7a5.26,5.26,0,0,0-.67.34l-1.41.72-2.87,1.52c-.48.26-1-.18-1.14-.67a.67.67,0,0,1,.17-.61,20.85,20.85,0,0,1,1.78-1.74c.29-.24.58-.48.88-.71a7.63,7.63,0,0,0-4.44-.59.73.73,0,0,1-.69-.23.93.93,0,0,1-.22-.53A1,1,0,0,1,255.19,63.94Zm10.27,5.22a.05.05,0,0,0,0,0h0Z"/><g class="cls-9"><path class="cls-10" d="M255.19,63.94l.44-.11c.21-.06.42-.11.64-.15l.09,0c.7-.14,1.41-.24,2.12-.31l.68-.05c.69,0,1.36-.06,2-.06h.52c.81,0,1.55.07,2.19.13.35,0,.67.06.95.1l.59.07.76.12-1.07-.62-.12.19a7.68,7.68,0,0,0-9.77.68Z"/></g><path class="cls-12" d="M266.84,59.22c-.24.57-.36,1.2-.59,1.77a11,11,0,0,1-1.15,2.06l-.12.19-.16.24-.16.23a1.15,1.15,0,0,0-.12.25.8.8,0,0,0,0,.53.92.92,0,0,0,.52.52.89.89,0,0,0,0,.43h0a.84.84,0,0,0,.09.25l0,0a.87.87,0,0,0,.19.23,1.06,1.06,0,0,0,.21.11h0a.67.67,0,0,0,.37,0,1,1,0,0,0,.52-.32l.1-.11a.27.27,0,0,1,.07-.08c.13-.16.27-.31.41-.47s.11-.13.16-.19a5.45,5.45,0,0,0,1-1.59,14.29,14.29,0,0,0,.5-2c.14-.68.42-1.54,0-2.17A1.07,1.07,0,0,0,266.84,59.22Z"/><path class="cls-4" d="M230,126H195.38a2.08,2.08,0,0,1-2-2.12v-3.39a2.08,2.08,0,0,1,2-2.12H230a2.08,2.08,0,0,1,2,2.12v3.39A2.08,2.08,0,0,1,230,126Z"/><path class="cls-5" d="M223.45,90.06c.23-.29.44-.6.65-.91a16.79,16.79,0,0,0,2.65-6.75,16.53,16.53,0,0,0,.19-2.45c0-9.87-9-18-20.69-19.16-.94-.09-1.88-.14-2.84-.14A27.93,27.93,0,0,0,194.67,62c-6.46,2.12-11.51,6.52-13.66,12A16,16,0,0,0,179.88,80a17.1,17.1,0,0,0,4.81,11.7Z"/><path class="cls-6" d="M213.18,78.83a1.09,1.09,0,0,1-.77-1.88,4.74,4.74,0,0,1,3.21-1.51,6.2,6.2,0,0,1,3.59,1.37,1,1,0,0,1-.48,1.75Z"/><path class="cls-6" d="M179.71,85a.92.92,0,0,1-1-1.39,4.16,4.16,0,0,1,2.36-1.91,5.11,5.11,0,0,1,3.21.36.83.83,0,0,1-.06,1.54Z"/><path class="cls-8" d="M210.71,73.75a6.38,6.38,0,0,1,.88.28c3.41,1.3,7.59,5.34,8,8.75a3.65,3.65,0,0,1-.83,2.84c-2.28,3.18-8.24,4.27-11.36,3.58a4.58,4.58,0,0,1-.86-.27,2,2,0,0,1-.36-.18,4.09,4.09,0,0,1-.86-.68A6.26,6.26,0,0,1,204,83.16c0-.31,0-.63.09-1h0c0-.1,0-.2,0-.3,0-.26.08-.52.14-.79q.12-.65.3-1.29c.16-.64.36-1.28.57-1.91a6.06,6.06,0,0,1,.32-.78h0a8,8,0,0,1,2.33-2.84h0a4.26,4.26,0,0,1,.75-.48,2,2,0,0,1,.47-.15l.19,0A4.11,4.11,0,0,1,210.71,73.75Z"/><g class="cls-9"><path class="cls-10" d="M210.71,73.75a6.38,6.38,0,0,1,.88.28c3.41,1.3,7.59,5.34,8,8.75-2.85-3.4-5.22-6.64-10.56-9.12l.19,0A4.11,4.11,0,0,1,210.71,73.75Z"/></g><g class="cls-11"><path d="M209.18,73.63l-.28.1a9.13,9.13,0,0,0-1.13.56h0a7.49,7.49,0,0,0-2.71,2.85,7.41,7.41,0,0,0-.41,1h0a7.91,7.91,0,0,0-.33,1.44v0c0,.16,0,.32-.05.48s0,.39,0,.59v.45a5.61,5.61,0,0,0,0,.71.35.35,0,0,0,0,.08,1.71,1.71,0,0,0-.13.23l0,.07h0a2.18,2.18,0,0,0-.09,1,3.55,3.55,0,0,0,.06.47c.14.69.31,1.38.49,2.07a16.39,16.39,0,0,0,.77,2.37,6.35,6.35,0,0,0,.79,1.35.63.63,0,0,0,.41-.43l0-.06a4.58,4.58,0,0,0,.86.27h0l0-.06A7.13,7.13,0,0,0,207,86.2c-.12-.57-.21-1.14-.29-1.72v0c.36.12.73.23,1.11.32a22.36,22.36,0,0,0,2.33.48.74.74,0,0,0,.62-1.22c-.54-.59-1.09-1.19-1.62-1.79l-.8-.91c-.12-.13-.29-.29-.43-.45a5.92,5.92,0,0,1,.64-.28l1.34-.55c.92-.38,1.85-.75,2.78-1.11a.74.74,0,0,0-.29-1.4l-.36,0a19.15,19.15,0,0,0-2.93.42c0-.14.09-.27.14-.41a7.19,7.19,0,0,1,2.14-3,.65.65,0,0,0,.26-.54,6.38,6.38,0,0,0-.88-.28.76.76,0,0,0-.23-.44A6.5,6.5,0,0,0,209.18,73.63Zm-1.11,9.68h0l0,0S208.06,83.3,208.07,83.31Z"/></g><path class="cls-12" d="M209.83,73.07h0a7.47,7.47,0,0,0-5.63,3.87,7,7,0,0,0-.74,2.45c0,.16,0,.32,0,.48a5.83,5.83,0,0,0,0,.59v.41a6.32,6.32,0,0,0,0,.75,1.65,1.65,0,0,0-.18.31,2.6,2.6,0,0,0-.06,1.49c.14.7.31,1.38.49,2.07a10.32,10.32,0,0,0,1.56,3.73.8.8,0,0,0,.88.2.63.63,0,0,0,.41-.43l0-.06a7.13,7.13,0,0,0-.43-2.94c-.12-.58-.22-1.17-.29-1.77.29.1.59.18.88.26s.74.19,1.11.27,1,.19,1.45.27a.74.74,0,0,0,.62-1.22c-.54-.59-1.09-1.19-1.62-1.79l-.8-.91-.43-.45a4.37,4.37,0,0,1,.64-.27l1.34-.56c.92-.38,1.85-.75,2.78-1.11a.76.76,0,0,0,.23-1.17.61.61,0,0,0-.52-.23,21.28,21.28,0,0,0-2.27.24c-.34.06-.68.12-1,.2a7.07,7.07,0,0,1,2.28-3.39.65.65,0,0,0,.26-.61.76.76,0,0,0-.23-.44A.84.84,0,0,0,209.83,73.07Zm-2.64,10h0v0Z"/><g class="cls-9"><path class="cls-10" d="M209.83,73.07l-.35.23-.49.36-.07,0A18.11,18.11,0,0,0,207.44,75l-.45.44c-.45.44-.87.9-1.25,1.34l-.31.37c-.47.56-.89,1.1-1.23,1.57l-.51.71-.3.45c-.25.37-.38.59-.38.59s.08-.41.22-1.09l.2,0a7,7,0,0,1,.74-2.45,7.47,7.47,0,0,1,5.63-3.87Z"/></g><path class="cls-12" d="M199.56,78.39c.53.16,1,.43,1.56.6a9.82,9.82,0,0,0,2.11.38l.2,0,.26,0,.26,0a1.05,1.05,0,0,1,.24.06.71.71,0,0,1,.35.33.82.82,0,0,1,0,.65.68.68,0,0,1,.29.24h0a.56.56,0,0,1,.11.2,0,0,0,0,1,0,0,.63.63,0,0,1,0,.27.65.65,0,0,1,0,.2s0,0,0,0a.67.67,0,0,1-.21.26,1,1,0,0,1-.54.18h-1a5,5,0,0,1-1.66-.24,13.57,13.57,0,0,1-1.64-.76c-.55-.3-1.31-.59-1.49-1.24S198.75,78.15,199.56,78.39Z"/><g class="cls-7"><path d="M219.86,82,226,89.56l-2.06.33L185.2,91.48a28.2,28.2,0,0,1-8.73,1.37c-13,0-23.53-8.64-23.53-19.3,0-6.46,3.87-12.18,9.81-15.69,1.49,3.14,6.09,10.24,18.77,16a84.11,84.11,0,0,0,17.4,5.49c2.86.59,5.94,1.12,9.25,1.55C211.78,81.35,215.67,81.72,219.86,82Z"/></g><g class="cls-7"><path d="M245.38,82a23,23,0,0,1-7,4.87l4.3-4.72Z"/></g><path class="cls-4" d="M273.15,65.86c0,31.62-27.48,57.26-61.39,57.26s-61.38-25.64-61.38-57.26c0,10.66,27.48,19.31,61.38,19.31S273.15,76.52,273.15,65.86Z"/><g class="cls-13"><path d="M193.32,122s8.78,1,18.29,1a190.83,190.83,0,0,0,20.17-1.33A65.09,65.09,0,0,1,193.32,122Z"/></g><ellipse class="cls-14" cx="199.41" cy="100.96" rx="1.68" ry="1.75"/><ellipse class="cls-14" cx="224.05" cy="100.96" rx="1.68" ry="1.75"/><path class="cls-14" d="M211.87,105a7.52,7.52,0,0,1-4.56-1.47.56.56,0,0,1-.08-.75.5.5,0,0,1,.72-.09,6.61,6.61,0,0,0,3.92,1.24,7,7,0,0,0,4-1.25.49.49,0,0,1,.71.11.54.54,0,0,1-.09.74A7.93,7.93,0,0,1,211.87,105Z"/><path class="cls-6" d="M247.87,58a.76.76,0,0,1,.86-1.12,3.47,3.47,0,0,1,2,1.58,4.79,4.79,0,0,1,.37,2.76.63.63,0,0,1-1.19.26Z"/><g class="cls-15"><path class="cls-10" d="M150.86,68.33S161.93,92.8,245.1,82.47C245.24,82.46,162.42,102.68,150.86,68.33Z"/></g><path class="cls-6" d="M166.4,67.12a.61.61,0,0,1-.43-1.05,2.64,2.64,0,0,1,1.8-.84,3.53,3.53,0,0,1,2,.76.54.54,0,0,1-.27,1Z"/><path class="cls-6" d="M239.14,72.93a.8.8,0,0,1-.56-1.38,3.49,3.49,0,0,1,2.33-1.09,4.53,4.53,0,0,1,2.61,1,.71.71,0,0,1-.35,1.28Z"/><rect class="cls-16" width="300" height="165"/></g></g></svg>