<svg xmlns="http://www.w3.org/2000/svg" xmlns:xlink="http://www.w3.org/1999/xlink" viewBox="0 0 300 165"><defs><style>.cls-1{isolation:isolate;}.cls-2{fill:#fce5cd;}.cls-3{fill:#487233;}.cls-4{fill:#dd7b4a;}.cls-5{opacity:0.28;}.cls-5,.cls-7,.cls-8{mix-blend-mode:soft-light;}.cls-6{fill:#ffe8d9;}.cls-7{opacity:0.19;}.cls-8{opacity:0.39;}.cls-9{fill:#fff;}.cls-10{fill:url(#linear-gradient);}</style><linearGradient id="linear-gradient" x1="150.37" y1="168.37" x2="149.66" y2="1.92" gradientUnits="userSpaceOnUse"><stop offset="0.03" stop-color="#591c16"/><stop offset="0.22" stop-color="#5f241d" stop-opacity="0.96"/><stop offset="0.38" stop-color="#733c33" stop-opacity="0.84"/><stop offset="0.53" stop-color="#936459" stop-opacity="0.64"/><stop offset="0.68" stop-color="#c09d8d" stop-opacity="0.36"/><stop offset="0.82" stop-color="#fae5cf" stop-opacity="0"/></linearGradient></defs><g class="cls-1"><g id="Layer_1" data-name="Layer 1"><rect class="cls-2" x="-0.27" y="-0.15" width="300" height="165"/><path class="cls-3" d="M271,103.26l-1,.1L257.15,105l-18,2.3a45.65,45.65,0,0,1-4.67.36,47.34,47.34,0,0,1-4.91-.11l-.48,0-5.3-.45-2.92-.24-.54,0-1.37-.12h0l-5.1-.43h-.09l-4.73-.4-2-.17-3.24-.28-4.35-.37-1.55-.13-1-.06a4.4,4.4,0,0,1-3.84-6.21l.46-1,.29-.7,1.59-3.77.29-.68L200.12,82l1.38-3.26.45-1.09c.78-1.84,1.59-3.66,2.45-5.45q1-2.13,2.11-4.21l.47-.88c.05-.08.09-.16.13-.24.14-.27.29-.53.43-.79q1.67-3,3.51-6c.85-1.36,1.72-2.71,2.63-4l.09-.14,1.61-2.37h0l13.17-19.42.22-.36a4.41,4.41,0,0,1,7.53,0l18,26.68c2,3,3.89,6.11,5.61,9.3l14.49,26.87A4.41,4.41,0,0,1,271,103.26Z"/><path class="cls-4" d="M205.29,68.4a17.35,17.35,0,0,0,8,5.84A45.88,45.88,0,0,0,224,77a76,76,0,0,0,23.47-.59c4.47-.75,8.89-1.79,13.26-3a1.68,1.68,0,0,0-.89-3.23c-14.07,3.77-29.23,6.18-43.42,1.62-3-1-6.29-2.41-8.21-5.09a1.73,1.73,0,0,0-2.29-.61,1.69,1.69,0,0,0-.6,2.29Z"/><path class="cls-4" d="M242.29,75.77a11.52,11.52,0,0,0-5.13,3.89c-1.12,1.43-2.26,4.19-.1,5.32,1.72.9,3.72-1.16,4.66-2.4a13.91,13.91,0,0,0,2.37-6.41c.2-1.22-1.67-1.74-1.86-.51-.43,2.69-1.24,5.9-3.8,7.36-.25.15-.39.32-.6.09s0-.89.16-1.15a6.05,6.05,0,0,1,1.2-1.69,9.32,9.32,0,0,1,3.62-2.63c1.18-.39.67-2.26-.52-1.87Z"/><path class="cls-4" d="M243.12,77a9.74,9.74,0,0,0,5.5,4.66,11.82,11.82,0,0,0,4.39.46c1-.06,3.14.08,3.22-1.31.07-1.08-1.46-2-2.21-2.61a14.83,14.83,0,0,0-3.28-1.88,15.07,15.07,0,0,0-7.45-1.1c-1.22.13-1.24,2.07,0,1.94a13.53,13.53,0,0,1,6.05.69A13,13,0,0,1,252,79.2a12,12,0,0,1,1.23.89c.21.17.41.35.61.54s.44.62.42.21l.28-.69c.32-.28-.19-.07-.4,0l-.84.08a13.15,13.15,0,0,1-1.66,0,8.43,8.43,0,0,1-3.06-.61,7.8,7.8,0,0,1-3.83-3.58c-.58-1.1-2.26-.13-1.67,1Z"/><path class="cls-4" d="M242.22,76.44,244.51,92c.18,1.23,2.05.7,1.87-.52l-2.29-15.59c-.18-1.23-2.05-.71-1.87.52Z"/><g class="cls-5"><path d="M217.27,53q1.51,4.42,3.39,8.7a16,16,0,0,0,4.62,6.53c4,3.18,9.26,6.58,14.62,5.57.67-.12.38-1.14-.28-1A11.91,11.91,0,0,1,232,71.3a33.14,33.14,0,0,1-6.49-4.25,16,16,0,0,1-4.11-6.23c-1.16-2.67-2.21-5.39-3.15-8.14-.22-.64-1.24-.36-1,.28Z"/></g><path class="cls-4" d="M243.2,77.45a72.25,72.25,0,0,0,6.41,13.32c.65,1.06,2.33.09,1.68-1a69.94,69.94,0,0,1-6.22-12.86c-.43-1.16-2.3-.66-1.87.52Z"/><g class="cls-5"><path d="M196.53,95.52A136.7,136.7,0,0,1,232,106.71c.61.29,1.15-.62.53-.91a137.8,137.8,0,0,0-35.71-11.3c-.66-.11-.95.9-.28,1Z"/></g><g class="cls-5"><path d="M199.45,88.51a57.08,57.08,0,0,1,40.81,8.22,54.85,54.85,0,0,1,9.44,7.68c.47.49,1.22-.26.74-.74a58.13,58.13,0,0,0-39.13-17.08,55.64,55.64,0,0,0-12.15.9c-.66.13-.38,1.15.29,1Z"/></g><g class="cls-5"><path d="M203.26,82.89c9.44-.44,19.26.47,27.62,5.21a.53.53,0,0,0,.53-.91c-8.52-4.84-18.53-5.81-28.15-5.36-.68,0-.68,1.09,0,1.06Z"/></g><path class="cls-4" d="M206.28,67.5a56.09,56.09,0,0,0,19.29,5.25c7.06.67,14.23.58,21.32.61,4.09,0,8.18,0,12.26-.15,1.25,0,1.25-2,0-1.94-7.06.23-14.13.17-21.2.06-6.81-.11-13.68-.2-20.34-1.81a51.49,51.49,0,0,1-10.35-3.7c-1.12-.54-2.1,1.13-1,1.68Z"/><path class="cls-4" d="M205.64,67.34c4.49,2.82,7.3,7.45,9.73,12a63.84,63.84,0,0,1,3.79,8,27.62,27.62,0,0,1,1.52,9.15,83.06,83.06,0,0,1-.76,10.45c-.15,1.24,1.79,1.23,1.94,0,.74-6.35,1.46-13-.52-19.19a53.88,53.88,0,0,0-3.91-8.62,57.05,57.05,0,0,0-4.21-7.05,23.93,23.93,0,0,0-6.6-6.4c-1.06-.67-2,1-1,1.67Z"/><path class="cls-4" d="M205.29,67.54c2.23,5.27,4.74,10.4,7.47,15.43,2.52,4.65,5.17,9.44,5.82,14.78.4,3.25.24,6.54.94,9.75.27,1.22,2.14.71,1.87-.51-.63-2.88-.52-5.82-.81-8.74a28.83,28.83,0,0,0-2-7.8c-2.08-5.16-5.07-9.91-7.53-14.89q-2.19-4.44-4.11-9c-.49-1.15-2.16-.16-1.68,1Z"/><g class="cls-5"><path d="M227.6,38.82c2.85,6,10,7,15.88,7.41.68.06.68-1,0-1-5.51-.44-12.29-1.28-15-6.9-.29-.61-1.2-.07-.91.54Z"/></g><g class="cls-5"><path d="M227.28,42.65a14.88,14.88,0,0,0,7.59,8.72c4.26,2.27,9.14,2.88,13.86,3.48.68.09.67-1,0-1.06-7.67-1-17.92-2.71-20.43-11.42a.53.53,0,0,0-1,.28Z"/></g><g class="cls-5"><path d="M220.39,46.77a17.46,17.46,0,0,0,7.17,11.87,23.11,23.11,0,0,0,15.22,4c3.43-.23,6.73-1.23,10.13-1.66.66-.09.67-1.15,0-1.06-2.77.35-5.46,1.09-8.22,1.47a26,26,0,0,1-7.82-.07,19.21,19.21,0,0,1-12.46-7.25,15.38,15.38,0,0,1-3-7.29c-.08-.67-1.14-.68-1.06,0Z"/></g><g class="cls-5"><path d="M261.43,76.36c-2.7,4.19-5.15,8.67-6.22,13.58a16.48,16.48,0,0,0-.32,6.88,7.42,7.42,0,0,0,1.38,2.92,11,11,0,0,1,2,3c.21.64,1.24.37,1-.28-.68-2-2.59-3.27-3.21-5.31-.7-2.29-.28-4.91.24-7.19a41.67,41.67,0,0,1,6-13c.37-.58-.54-1.11-.91-.54Z"/></g><g class="cls-5"><path d="M264.13,85.93c-3.15,4.37-1.38,9.92,1.22,14.07.36.58,1.27,0,.91-.53-2.41-3.85-4.15-8.93-1.22-13,.4-.55-.52-1.08-.91-.53Z"/></g><g class="cls-5"><path d="M248.26,98.23a8.37,8.37,0,0,1,.66-4.47c.28-.62-.63-1.15-.91-.53a9.35,9.35,0,0,0-.81,5c.08.66,1.14.67,1.06,0Z"/></g><circle class="cls-6" cx="245.34" cy="97.41" r="1.29"/><circle class="cls-6" cx="260.5" cy="94.56" r="1.29"/><path class="cls-6" d="M252.36,99.16a6,6,0,0,1-2.55-.54.53.53,0,0,1,.5-.94,5.11,5.11,0,0,0,3.05.33,5.43,5.43,0,0,0,2.79-1.44.53.53,0,0,1,.79.71,6.53,6.53,0,0,1-4.58,1.88Z"/><g class="cls-7"><path d="M229.6,107.55l2.9,9.09,2.45,7.71-10.19-3.21-7.85-2.48-10.25-3.22-25.41-8L177,106.08l-6.48-2,1.32-4.42,1.56-5.27,1.72-5.75h0l.07-.26.77-2.59L179.44,74l1.09-1.11,12.62-12.7,7.18-7.24c.11-.1.21-.22.31-.33a4.68,4.68,0,0,1,7.85,1.51L211.05,60c.85-1.36,1.72-2.71,2.63-4l.09-.14,1.61-2.37A90.25,90.25,0,0,0,220.09,71c.47,1.26,1,2.54,1.55,3.85a72,72,0,0,0,5.86,11A55.39,55.39,0,0,0,232,91.76a42.85,42.85,0,0,0,7.53,6.8c.67.47,1.35.91,2.05,1.34a36,36,0,0,0,7.91,3.57,37.33,37.33,0,0,0,6.46,1.38l1.19.15-18,2.3a45.65,45.65,0,0,1-4.67.36A47.34,47.34,0,0,1,229.6,107.55Z"/></g><path class="cls-3" d="M231,133.37l-1-.09-1.87-.11h0l-31-1.83a50,50,0,0,1-10.52-1.75l-8.44-2.34-.56-.16-23-6.39-1-.25a4.68,4.68,0,0,1-2.79-7.23l.68-1,12.67-19.15q3.12-4.72,6.64-9.17l.67-.83.18-.22q2.77-3.44,5.78-6.67h0q1-1.12,2.1-2.22l1.09-1.11,12.62-12.7,7.18-7.24c.11-.1.21-.22.31-.33a4.68,4.68,0,0,1,7.85,1.51L211.05,60l4.25,9.88,1.64,3.81,4.32,10,.71,1.65c.48,1.13.95,2.27,1.4,3.42h0q1.44,3.64,2.62,7.38l2.68,8.4.93,2.93,2.9,9.09,2.45,7.71.87,2.72A4.68,4.68,0,0,1,231,133.37Z"/><path class="cls-4" d="M169.57,84.39a18.39,18.39,0,0,0,7.36,7.55,52.35,52.35,0,0,0,10.49,4.8,79.45,79.45,0,0,0,24.1,3.89c4.82.11,9.65-.11,14.46-.48a1.71,1.71,0,0,0,1.68-1.67A1.69,1.69,0,0,0,226,96.81c-15.39,1.17-31.76.75-45.66-6.78-3.21-1.74-6.28-3.93-7.85-7.33a1.68,1.68,0,0,0-2.29-.6,1.71,1.71,0,0,0-.61,2.29Z"/><path class="cls-4" d="M206.56,99.14a12.27,12.27,0,0,0-6.29,3.15c-1.38,1.24-3,3.88-1,5.35,1.73,1.26,4.36-.73,5.56-1.94a15.76,15.76,0,0,0,3.43-6c.42-1.18-1.46-1.69-1.87-.52-1,2.72-2.5,5.81-5.43,6.82-1,.34-.68-.66-.33-1.2a6.24,6.24,0,0,1,1.57-1.59,10.12,10.12,0,0,1,4.33-2.1c1.22-.16,1.24-2.1,0-1.94Z"/><path class="cls-4" d="M207.12,100.47a10.28,10.28,0,0,0,4.78,6,12.51,12.51,0,0,0,4.34,1.33c1,.14,3.43.77,3.72-.72.21-1.1-1.19-2.42-1.88-3.16a16.13,16.13,0,0,0-10.65-5.1c-1.24-.1-1.23,1.84,0,1.94a14.13,14.13,0,0,1,6.18,2,13.77,13.77,0,0,1,2.54,2,15.09,15.09,0,0,1,1.09,1.17c.17.21.34.43.49.65l.23.33c.17.27.19.3.08.08l.48-.83c.24,0,.25-.06,0,0l-.47,0-.8-.06a15.1,15.1,0,0,1-1.77-.26,9.48,9.48,0,0,1-3.08-1.19A8.28,8.28,0,0,1,209,100c-.36-1.18-2.24-.68-1.87.52Z"/><path class="cls-4" d="M206.33,99.68l-.68,16.7c-.05,1.25,1.89,1.25,1.94,0l.67-16.7c.05-1.25-1.88-1.24-1.93,0Z"/><g class="cls-5"><path d="M184.92,70.49c.48,3.32,1.09,6.63,1.86,9.9a16.88,16.88,0,0,0,3.84,7.85c3.53,3.89,8.1,8.26,13.71,8.25a.53.53,0,0,0,0-1c-5.37,0-9.84-4.42-13.17-8.18a16.66,16.66,0,0,1-3.5-7.78q-1-4.61-1.72-9.27c-.1-.67-1.12-.38-1,.28Z"/></g><path class="cls-4" d="M207.18,101.19a75.94,75.94,0,0,0,4,14.88c.44,1.16,2.31.66,1.87-.51a76,76,0,0,1-4-14.89c-.2-1.23-2.07-.71-1.87.52Z"/><g class="cls-5"><path d="M155,110.7a144.87,144.87,0,0,1,34.76,18.65c.55.4,1.08-.52.53-.91a146,146,0,0,0-35-18.76c-.64-.24-.91.78-.28,1Z"/></g><g class="cls-5"><path d="M159.26,103.93a60.55,60.55,0,0,1,41.09,16.66,57.75,57.75,0,0,1,8.23,9.76c.37.56,1.29,0,.91-.53a61.61,61.61,0,0,0-37.27-25.47,58.88,58.88,0,0,0-13-1.48.53.53,0,0,0,0,1.06Z"/></g><g class="cls-5"><path d="M164.35,98.81c9.92,1.38,20,4.25,27.8,10.84.51.44,1.27-.31.75-.75-7.93-6.71-18.15-9.7-28.27-11.11-.66-.1-.95.92-.28,1Z"/></g><path class="cls-4" d="M170.74,83.45a59,59,0,0,0,19,9.19c7.15,2,14.53,3.34,21.82,4.75,4.28.82,8.58,1.59,12.89,2.26,1.22.19,1.75-1.68.52-1.87-7.49-1.16-14.93-2.63-22.35-4.15-7.13-1.46-14.35-2.93-21-6a55.76,55.76,0,0,1-9.93-5.87c-1-.74-2,.94-1,1.67Z"/><path class="cls-4" d="M169.91,83c4.13,3.82,6.18,9.15,7.81,14.4a71.6,71.6,0,0,1,2.39,8.92,28.69,28.69,0,0,1-.13,9.91,85.25,85.25,0,0,1-2.87,10.87c-.37,1.19,1.5,1.71,1.87.52,2-6.53,4.1-13.33,3.23-20.24a57.7,57.7,0,0,0-2.37-9.68,62.88,62.88,0,0,0-3-8.2,24.88,24.88,0,0,0-5.55-7.87c-.91-.85-2.29.52-1.37,1.37Z"/><path class="cls-4" d="M169.56,83.15c1.27,5.88,2.86,11.67,4.69,17.4,1.78,5.54,3.66,11.2,3.23,17.1-.24,3.33-1,6.61-.91,10a1,1,0,0,0,1.93,0,69.08,69.08,0,0,1,.83-9,30,30,0,0,0-.46-8.76c-1.11-5.84-3.35-11.44-5-17.15q-1.39-5-2.5-10.11c-.26-1.21-2.13-.7-1.86.52Z"/><g class="cls-5"><path d="M198.43,57.63c1.8,6.79,9,9.22,15,10.86a.53.53,0,0,0,.28-1c-5.65-1.53-12.62-3.73-14.31-10.12a.53.53,0,0,0-1,.28Z"/></g><g class="cls-5"><path d="M197.36,61.56a15.87,15.87,0,0,0,6.45,10.81c3.94,3,8.77,4.62,13.45,6.13.65.21.93-.81.28-1-7.8-2.52-18.21-6.33-19.12-15.92-.07-.67-1.13-.68-1.06,0Z"/></g><g class="cls-5"><path d="M189.37,64.65A18.52,18.52,0,0,0,195,78.82a25,25,0,0,0,14.73,6.65c3.6.43,7.23,0,10.84.25.68,0,.68-1,0-1.06-3-.18-6,.07-8.94-.09a27.71,27.71,0,0,1-7.9-1.57,20.43,20.43,0,0,1-11.56-9.9,16.38,16.38,0,0,1-1.73-8.45c.05-.68-1-.67-1,0Z"/></g><g class="cls-5"><path d="M226.36,103.45c-3.54,3.73-6.88,7.79-9,12.53a18,18,0,0,0-1.88,7.32,7.89,7.89,0,0,0,.84,3.47,11.86,11.86,0,0,1,1.52,3.62c.1.67,1.11.38,1-.28-.33-2.41-2.25-4.15-2.33-6.65a17.3,17.3,0,0,1,2-7.49,45.69,45.69,0,0,1,8.57-11.77c.46-.49-.28-1.24-.75-.75Z"/></g><g class="cls-5"><path d="M227.3,114c-4.14,3.93-3.42,10-1.53,14.87.25.62,1.27.35,1-.28-1.75-4.48-2.61-10.18,1.26-13.85.49-.47-.26-1.21-.75-.74Z"/></g><g class="cls-5"><path d="M208.27,123.56a8.82,8.82,0,0,1,1.62-4.52c.39-.56-.53-1.09-.91-.53a9.89,9.89,0,0,0-1.77,5c-.05.68,1,.68,1.06,0Z"/></g><circle class="cls-6" cx="200.38" cy="122.88" r="1.37"/><circle class="cls-6" cx="216.75" cy="122.88" r="1.37"/><path class="cls-6" d="M208.63,126.17a6.41,6.41,0,0,1-3.8-1.18.52.52,0,0,1-.08-.74.53.53,0,0,1,.74-.09,5.44,5.44,0,0,0,3.14,1,5.78,5.78,0,0,0,3.21-1,.53.53,0,0,1,.64.85A6.84,6.84,0,0,1,208.63,126.17Z"/><g class="cls-7"><path d="M228,133.17l-31-1.83a50,50,0,0,1-10.52-1.75l-8.44-2.34-.56-.16-23-6.39-1-.25a4.68,4.68,0,0,1-2.79-7.23l.68-1,12.67-19.15q3.12-4.72,6.64-9.17l.67-.83.18-.22q2.77-3.44,5.78-6.67a45,45,0,0,0-3.78,8.06c-.12.32-.23.66-.35,1s-.25.77-.37,1.17c-.29,1-.57,2-.81,3a35.89,35.89,0,0,0-1,10c0,.68.1,1.35.18,2a28.5,28.5,0,0,0,.53,3l.09.36a26.42,26.42,0,0,0,6.63,11.9c.62.65,1.28,1.29,2,1.92C188.66,125.85,203.2,131.55,228,133.17Z"/></g><g class="cls-8"><ellipse class="cls-9" cx="206.19" cy="64.67" rx="4.36" ry="6.59" transform="translate(-6.36 103.67) rotate(-27.81)"/></g><g class="cls-8"><ellipse class="cls-9" cx="236.1" cy="43.3" rx="3.14" ry="5.6" transform="translate(7.07 115.16) rotate(-27.81)"/></g><rect class="cls-10" width="300" height="165"/></g></g></svg>